<?xml version="1.0" encoding="utf-8"?>
<!-- Generator: Adobe Illustrator 26.3.1, SVG Export Plug-In . SVG Version: 6.00 Build 0)  -->
<svg version="1.1" xmlns="http://www.w3.org/2000/svg" xmlns:xlink="http://www.w3.org/1999/xlink" x="0px" y="0px"
	 viewBox="0 0 500 500" style="enable-background:new 0 0 500 500;" xml:space="preserve">
<style type="text/css">
	.st0{clip-path:url(#SVGID_00000071529376290308947650000015807229150419888797_);fill:#9FA4A6;}
	.st1{clip-path:url(#SVGID_00000071529376290308947650000015807229150419888797_);}
	.st2{clip-path:url(#SVGID_00000088838940086331362900000017941425496468485012_);fill:#94B0BE;}
	.st3{clip-path:url(#SVGID_00000071529376290308947650000015807229150419888797_);fill:#ED1A3B;}
	.st4{clip-path:url(#SVGID_00000071529376290308947650000015807229150419888797_);fill:#DDD382;}
	.st5{filter:url(#Adobe_OpacityMaskFilter);}
	.st6{clip-path:url(#SVGID_00000036952663245583346930000001828425858805015219_);}
	
		.st7{clip-path:url(#SVGID_00000096761386374147629620000008454611939798756516_);fill:url(#SVGID_00000131363574238089924740000000412406759985137025_);}
	
		.st8{clip-path:url(#SVGID_00000036952663245583346930000001828425858805015219_);mask:url(#SVGID_00000129906171522365190700000016090890371428980645_);fill:url(#SVGID_00000018934168690411133180000009678858977558712478_);}
	.st9{clip-path:url(#SVGID_00000095336362322869200050000001269179631613502080_);fill:#FFDF4F;}
	.st10{clip-path:url(#SVGID_00000095336362322869200050000001269179631613502080_);fill:#FFFFFF;}
	.st11{clip-path:url(#SVGID_00000095336362322869200050000001269179631613502080_);}
</style>
<g id="Layer_1">
</g>
<g id="Layer_2">
	<g>
		<defs>
			<rect id="SVGID_1_" width="500" height="500"/>
		</defs>
		<clipPath id="SVGID_00000100357945966039031370000010815662279622673806_">
			<use xlink:href="#SVGID_1_"  style="overflow:visible;"/>
		</clipPath>
		<g style="clip-path:url(#SVGID_00000100357945966039031370000010815662279622673806_);">
			<text transform="matrix(1 0 0 1 25.166 654.8799)" style="font-family:'AvenirNext-DemiBold'; font-size:12.1607px;">6</text>
		</g>
		<polygon style="clip-path:url(#SVGID_00000100357945966039031370000010815662279622673806_);fill:#9FA4A6;" points="47.7,428.1 
			51.4,440.3 42.3,479.8 42.3,498 47.7,521.5 59.4,531.1 77,534.3 96.8,528.4 116,506 130.9,480.9 101,462.8 96.8,486.2 86.1,499.1 
			71.7,502.8 61.5,496.9 60.5,476.6 65.8,448.9 74.9,427 67.4,428.1 61.5,432.3 56.2,425.9 		"/>
		<polygon style="clip-path:url(#SVGID_00000100357945966039031370000010815662279622673806_);fill:#9FA4A6;" points="105.9,442.5 
			116,420.6 126.7,404.6 145.4,390.7 145.9,373.1 150.2,357 157.6,347.4 165.1,348 174.2,357 177.4,361.3 193.4,354.4 207.8,354.4 
			214.2,358.1 228.6,348.5 240.9,342.1 256.4,343.2 268.2,346.9 283.1,343.2 304.5,341.6 328.5,343.2 357.8,346.9 381.3,354.4 
			404.8,371.5 419.2,391.8 431,426.5 434.7,445.7 435.8,464.4 436.3,491.1 436.3,504.4 428.8,496.9 424.6,485.7 415.5,509.2 
			403.2,525.8 400,533.2 401.6,544.4 401.1,563.1 396.3,575.4 385.6,577.5 374.9,577 372.3,558.9 372.3,551.4 357.3,555.7 
			356.2,575.9 346.6,580.2 337.6,579.7 332.8,575.4 332.2,557.8 304.5,558.3 278.8,558.3 259.1,558.3 259.1,579.1 252.7,585.6 
			244.7,588.2 234,585.6 232.9,577 233.4,558.3 224.4,554.6 214.2,555.1 214.2,572.2 206.8,581.3 192.9,579.7 189.1,572.7 
			191.8,543.9 179,542.8 166.2,530.6 155.5,511.9 150.7,487.3 138.4,495.3 132,484.6 139,477.7 143.2,462.2 124.5,460.6 
			112.3,456.4 104.8,449.4 		"/>
		<g style="clip-path:url(#SVGID_00000100357945966039031370000010815662279622673806_);">
			<defs>
				<rect id="SVGID_00000169541645132671567520000000046567956626021254_" x="-43.8" y="-48.3" width="655" height="758.4"/>
			</defs>
			<clipPath id="SVGID_00000135690725495025626600000016344763908654753956_">
				<use xlink:href="#SVGID_00000169541645132671567520000000046567956626021254_"  style="overflow:visible;"/>
			</clipPath>
			<path style="clip-path:url(#SVGID_00000135690725495025626600000016344763908654753956_);fill:#94B0BE;" d="M223.7,65.4l4.3-3.6
				l8.5,5.3l10.3,19.2l-11.4,3.9l-8.5,3.9c0,0-4.3-13.5-4.3-14.6S223.7,65.4,223.7,65.4"/>
			<path style="clip-path:url(#SVGID_00000135690725495025626600000016344763908654753956_);fill:#94B0BE;" d="M230.4,99.2
				c1.1-0.4,19.9-3.2,19.9-3.2l1.1,9.3l2.5,11l7.5,9.6l-3.9,2.5l-4.6,3.2l-6.1,6.8l-0.7-9.3v-5.7l-13.5-17.8L230.4,99.2z"/>
		</g>
		<polygon style="clip-path:url(#SVGID_00000100357945966039031370000010815662279622673806_);fill:#ED1A3B;" points="265.5,60.6 
			275.1,58.1 282.9,52.9 286.8,45.3 292.2,42.6 287,39.6 282.9,35.5 277.8,36.9 275.6,41 267.1,43.5 261.2,47.8 254.4,46.3 
			252.7,49.5 254.8,52.2 249.8,54.3 251.2,56.7 259.1,56.5 262.5,60.2 		"/>
		<polygon style="clip-path:url(#SVGID_00000100357945966039031370000010815662279622673806_);fill:#DDD382;" points="253.7,85.6 
			259.1,81 265.2,73.6 276.7,69.8 287.1,76.5 289.2,82.6 302.1,85.3 318.6,95.7 331.4,108.5 343.2,129.3 347.7,142.7 356,165.4 
			352,168.6 340.2,165.1 326.1,162.2 313.5,156.3 298,151 287.4,141.1 280.2,128.8 277.2,112.8 277.8,106.9 269.2,102.9 
			257.2,102.1 		"/>
		<g style="clip-path:url(#SVGID_00000100357945966039031370000010815662279622673806_);">
			<defs>
				<path id="SVGID_00000143589507433516326220000009892420499444952455_" d="M296.4,106.1l-6.4,6.7l3.5,10.4l6.7,9.1l10.4,8.8
					l10.1,3.5l11.2,1.6l8.5-1.1c0,0-27.2-39-37.6-39.5L296.4,106.1z"/>
			</defs>
			<clipPath id="SVGID_00000053503139278671726760000017737518845984419512_">
				<use xlink:href="#SVGID_00000143589507433516326220000009892420499444952455_"  style="overflow:visible;"/>
			</clipPath>
			<defs>
				<filter id="Adobe_OpacityMaskFilter" filterUnits="userSpaceOnUse" x="270.4" y="81.2" width="89.7" height="89.4">
					<feColorMatrix  type="matrix" values="1 0 0 0 0  0 1 0 0 0  0 0 1 0 0  0 0 0 1 0"/>
				</filter>
			</defs>
			
				<mask maskUnits="userSpaceOnUse" x="270.4" y="81.2" width="89.7" height="89.4" id="SVGID_00000049186430608807371370000012988140150800702620_">
				<g class="st5">
					<g>
						<defs>
							
								<rect id="SVGID_00000099659349386888006770000000652876301333087400_" x="282.9" y="94.4" transform="matrix(0.7924 -0.6101 0.6101 0.7924 -11.331 218.4673)" width="64.7" height="62.9"/>
						</defs>
						
							<clipPath id="SVGID_00000116223898030007325340000009402573926981048210_" style="clip-path:url(#SVGID_00000053503139278671726760000017737518845984419512_);">
							<use xlink:href="#SVGID_00000099659349386888006770000000652876301333087400_"  style="overflow:visible;"/>
						</clipPath>
						
							<linearGradient id="SVGID_00000110432777654242769770000001931840256594870456_" gradientUnits="userSpaceOnUse" x1="1604.7832" y1="1610.5646" x2="1605.9993" y2="1610.5646" gradientTransform="matrix(-24.8048 19.0975 19.0975 24.8048 9375.5615 -70480.2969)">
							<stop  offset="0" style="stop-color:#000000"/>
							<stop  offset="0.315" style="stop-color:#000000"/>
							<stop  offset="0.3854" style="stop-color:#404040"/>
							<stop  offset="0.4671" style="stop-color:#838383"/>
							<stop  offset="0.5413" style="stop-color:#B8B8B8"/>
							<stop  offset="0.605" style="stop-color:#DFDFDF"/>
							<stop  offset="0.6558" style="stop-color:#F6F6F6"/>
							<stop  offset="0.6875" style="stop-color:#FFFFFF"/>
							<stop  offset="1" style="stop-color:#FFFFFF"/>
						</linearGradient>
						
							<polygon style="clip-path:url(#SVGID_00000116223898030007325340000009402573926981048210_);fill:url(#SVGID_00000110432777654242769770000001931840256594870456_);" points="
							403.3,137.3 303.8,213.9 227.2,114.5 326.7,37.9 						"/>
					</g>
				</g>
			</mask>
			
				<linearGradient id="SVGID_00000130623305662874350930000012277948123961579679_" gradientUnits="userSpaceOnUse" x1="1604.7832" y1="1610.5646" x2="1605.9993" y2="1610.5646" gradientTransform="matrix(-24.8048 19.0975 19.0975 24.8048 9375.5615 -70480.2969)">
				<stop  offset="0" style="stop-color:#FFFFFF"/>
				<stop  offset="0.315" style="stop-color:#FFFFFF"/>
				<stop  offset="0.3695" style="stop-color:#F5E3EF"/>
				<stop  offset="0.4757" style="stop-color:#E9B8D5"/>
				<stop  offset="0.5679" style="stop-color:#E19AC3"/>
				<stop  offset="0.6416" style="stop-color:#DD88B9"/>
				<stop  offset="0.6875" style="stop-color:#DB82B5"/>
				<stop  offset="1" style="stop-color:#DB82B5"/>
			</linearGradient>
			
				<polygon style="clip-path:url(#SVGID_00000053503139278671726760000017737518845984419512_);mask:url(#SVGID_00000049186430608807371370000012988140150800702620_);fill:url(#SVGID_00000130623305662874350930000012277948123961579679_);" points="
				360.1,131.1 308.8,170.6 270.4,120.7 321.7,81.2 			"/>
		</g>
		<g style="clip-path:url(#SVGID_00000100357945966039031370000010815662279622673806_);">
			<defs>
				<rect id="SVGID_00000009552175598358114080000004959396122643108754_" x="-43.8" y="-48.3" width="655" height="758.4"/>
			</defs>
			<clipPath id="SVGID_00000091737177431486434230000009277975822486443152_">
				<use xlink:href="#SVGID_00000009552175598358114080000004959396122643108754_"  style="overflow:visible;"/>
			</clipPath>
			<path style="clip-path:url(#SVGID_00000091737177431486434230000009277975822486443152_);fill:#FFDF4F;" d="M223.3,115.7
				c2.7-1.1,12.3-2.1,12.5-2.9c0.3-0.8-4-6.9-4-6.9l-5.3,3.7L223.3,115.7z"/>
			<path style="clip-path:url(#SVGID_00000091737177431486434230000009277975822486443152_);fill:#FFDF4F;" d="M254.3,86.6
				c7.7,1.9,6.9,13.1,6.9,13.1l-7.5,2.9l-4-6.1l-14.1,1.3l-19.5,4l9.6-7.2l17.4-6.1L254.3,86.6z"/>
			<path style="clip-path:url(#SVGID_00000091737177431486434230000009277975822486443152_);fill:#FFFFFF;" d="M284.9,580.8
				c-0.2-0.3-0.3-0.6-0.3-0.9C284.5,580.2,284.7,580.5,284.9,580.8"/>
			<path style="clip-path:url(#SVGID_00000091737177431486434230000009277975822486443152_);fill:#FFFFFF;" d="M377,594.9L377,594.9
				c-0.6,0.2-1.1,0.5-1.7,0.8C375.9,595.5,376.5,595.2,377,594.9"/>
			<path style="clip-path:url(#SVGID_00000091737177431486434230000009277975822486443152_);fill:#FFFFFF;" d="M348,164.5
				c1.3,0.7,2.8,0.4,4.3,0C350.8,164.9,349.3,165.2,348,164.5"/>
			<path style="clip-path:url(#SVGID_00000091737177431486434230000009277975822486443152_);fill:#FFFFFF;" d="M68.9,385.7
				L68.9,385.7c0.2,0,0.4,0,0.6,0C69.2,385.7,69,385.7,68.9,385.7"/>
			<path style="clip-path:url(#SVGID_00000091737177431486434230000009277975822486443152_);fill:#FFFFFF;" d="M399.1,596.9
				c2.4,0.7,5.1,0.8,7.3-0.1c-0.2-0.4-0.3-0.8-0.6-1.5c0.3,0.7,0.4,1.1,0.6,1.5C404.2,597.7,401.5,597.6,399.1,596.9"/>
			<path style="clip-path:url(#SVGID_00000091737177431486434230000009277975822486443152_);fill:#FFFFFF;" d="M257.1,52.3
				c-0.2,0.1-0.3,0.3-0.5,0.4C256.8,52.5,257,52.4,257.1,52.3"/>
			<path style="clip-path:url(#SVGID_00000091737177431486434230000009277975822486443152_);fill:#FFFFFF;" d="M171.3,409.6
				c0,0.1,0,0.3,0,0.4C171.3,409.9,171.3,409.8,171.3,409.6"/>
			<path style="clip-path:url(#SVGID_00000091737177431486434230000009277975822486443152_);" d="M617.6,508.7
				c-1.4-1.1-2.8-2.6-4.4-3c-2.1-0.5-4.4-0.2-6.6-0.2c-5.3-0.1-10.6-0.3-15.9-0.2c-4.2,0.1-61.3-0.1-65.5,0
				c-1.4,0.1-2.9-0.1-4.4-0.1c-0.6,0-1.3-0.3-1.9-0.2c-0.8,0-1.7,0.4-2.5,0.4c-5-0.1-10-0.4-15-0.5c-9.1-0.2-18.2-0.2-27.2-0.4
				c-2.5,0-4.9-0.2-7.4-0.4c-5.8-0.4-11.7-0.9-17.5-1.3c-1.3-0.1-2.5,0.2-3.6,0.3c-0.3-0.8-0.5-1.5-0.9-2.1c-0.8-1.4-1.8-2.6-2.6-4
				c-1-1.8-1.8-3.8-2.6-5.7c-0.6-1.4-1.4-2.8-1.5-4.2c-0.3-3.5-0.3-7-0.2-10.5c0-1.9,0.9-3.9,0.7-5.8c-0.5-5.5-1.4-10.9-1.9-16.3
				c-0.2-2.6,0-5.3,0.4-7.9c1.1-7.4-1.3-14.1-3.5-20.9c-1.3-3.8-2.7-7.6-3-11.5c-0.4-4.7-2.1-8.9-3.6-13.1c-1.4-4.1-4-7.8-5.8-11.9
				c-1.7-3.9-2.9-8.4-6.9-11.1c-0.7-0.5-1.2-1.5-1.5-2.3c-1.5-3.5-4.1-5.8-7.4-7.6c-1.5-0.8-2.5-2.3-3.8-3.5c-2.2-2-4.2-4.4-6.7-6
				c-4.3-2.8-9.2-4.8-13.3-7.8c-2.1-1.5-4.3-2.5-6.6-3.3c-4.2-1.5-8.5-2.5-12.8-3.7c1.1-2.9-0.5-5.3-1.4-7.7
				c-1.3-3.6-1.6-7.1-1-10.8c0.2-1.3,0.5-2.7,0.1-3.9c-1.8-5.2,0-10.4,0-15.6c0.1-4.1,0.6-8.1,1-12.1c0.2-1.9,0.3-3.8,2.1-5.1
				c1.8-1.3,3.5-2.8,5-4.4c1.8-2,3.5-4.1,5-6.3c1.7-2.5,3.6-5.1,4.7-7.9c1.6-4.3,2.7-8.8,3.7-13.2c0.7-3.1,0.9-6.3,1.7-9.3
				c1.5-5.2,4.5-9.6,7.9-13.8c1.8-2.2,3.4-4.5,5.3-6.6c1.1-1.2,2.6-1.5,4.2-0.7c3,1.5,6.1,2.9,9.1,4.4c2,1,4.1,1.8,5.8,3.1
				c1.8,1.4,3.1,3.6,5,4.9c2.6,1.8,5.4,3.3,8.4,4.4c1.3,0.5,3.1-0.2,4.7-0.3c6.1-0.7,10.7-7.9,8.8-13c-1.6-4.2-1.9-8.9-4.6-12.7
				c-0.2-0.3-0.2-0.8-0.3-1.2c-0.8-2.3-1.3-4.8-2.4-7c-2.5-5-5.1-10-7.8-14.8c-1.6-2.8-2.3-6.8-6.9-6.6c0.1-0.5,0.2-0.8,0.3-1
				c0.7-1.8,1.4-3.5,2-5.3c1.1-3.5-0.4-5.8-4.1-5.6c-2.3,0.1-4.7,1-7.2,1.6c0.1-1.3,0-2.8,0.3-4.4c0.4-2.1,0-4.2-1.1-5.9
				c-1.1-1.6-6.6-1.7-8-0.2c-1.6,1.7-3,3.7-4.3,5.8c-2.3,3.6-4.4,7.3-6.7,11.2c0,0,0.3,0.4,0.6,0.9c-1.6,0.9-3.1,1.6-4.6,2.5
				c-4,2.2-8.1,4.4-12,6.7c-2.9,1.7-5.6,3.6-8.3,5.4c-1.8,1.3-3.5,2.7-5.3,4c-3.9,2.9-7,7.1-13.1,5.2c-2.3-0.7-5.1,0.1-7.7,0.3
				c-1.6,0.1-3.3,0.7-4.7,0.4c-3.8-1-7.6-1.6-11.5-1.2c-2.1,0.2-4.3,0.2-6.4,0.3c-3.4,0.2-6.9,0.4-10.9,0.6c0.9-2.4,1.7-4.3,2.4-6.2
				c1.1-2.8,2.3-5.5,3.4-8.4c1-2.7,2-5.3,2.6-8.1c0.8-3.8,4.9-7,2.2-11.4c-0.1-0.1,0-0.3,0-0.4c-0.5-2.1-1-4.2-1.5-6.2
				c-0.1-0.6-0.5-1.1-0.5-1.6c-0.1-2.3,0-4.6,0-6.8c1.8,0.9,3.9,2.1,6,3.1c3.2,1.5,6.2,3.6,9.9,3.1c2.7-0.3,5.1,0.5,7.3,2
				c1,0.7,2.3,0.8,3.5,1.1c1.7,0.5,3.8,0.6,5,1.6c2.2,1.9,3.9,4.4,5.9,6.6c1.1,1.2,2.1,2.4,3.4,3.3c2.1,1.4,5,0.6,4.9-1.3
				c0-1.5-0.4-3.1-0.9-4.6c-0.7-1.8-1.7-3.5-2.6-5.3c1.3,0,2.6,0,3.9,0c1.8,0,4.4-1.7,4.5-3.1c0.2-1.8-0.7-3.1-2.2-4.4
				c-2.9-2.4-5.6-5-8.2-7.7c-0.9-1-1-2.6-1.6-3.9c-1.1-2.3-2.7-4.5-3.6-6.9c-1.3-3.7-2.1-7.6-3.3-11.3c-1.8-5.7-4.9-10.7-8.3-15.5
				c-1.6-2.3-3.3-4.6-4.3-7.1c-1-2.6-2.9-4.1-5-5.7c-0.8-0.6-1.8-1.2-2.3-2.1c-3.4-5.6-7.8-10-13.4-13.3c-6.3-3.7-13-5.7-20.1-7
				c-0.7-0.1-1.7-0.8-1.8-1.4c-0.5-2.7-2.1-4.5-4.2-6c-2.7-2-5.3-3.9-8-5.9c-0.4-0.3-1-0.8-1-1.2c0-4.6-0.6-9.5,4-12.7
				c0.3-0.2,0.7-0.6,0.9-1c1.8-4.6,4.6-8.3,9.5-10.1c0.4-0.1,0.6-0.9,0.9-1.3c-0.5-0.3-1-0.9-1.5-0.9c-2,0.2-3.2-1-4.5-2.2
				c-1.4-1.3-3-2.5-4.7-3.5c-2.1-1.3-7.1-0.2-8.2,1.8c-1.2,2.3-2.3,4.5-5.5,3.1c-0.1-0.1-0.4,0.1-0.6,0.2c-2.5,1.2-5.4,1.9-7.4,3.6
				c-2.2,1.8-3.7,1.1-5.5,0c-2.5-1.5-3.3-1.1-3.8,1.3c-1.4,0.7-3.3,1-3.6,1.8c-0.9,2.3,1.2,3.6,2.9,4.8c-0.9,0.4-1.9,0.6-2.4,1.2
				c-0.8,0.9-1.3,2.1-1.9,3.1c1,0.6,1.9,1.4,3,1.7c1,0.2,2.2,0,3.2-0.2c2.3-0.4,4.3-0.2,5.6,2.1c0.6,1.1,1.9,1.9,3.1,2.4
				c2.3,0.9,4.7,1.3,7,1.9v4.2c-4.9,1.7-8.6,5.4-11.4,9.6c-2.2,3.2-4.8,5.2-8.3,6.4c-2,0.7-2.4,0.5-2.8-1.7c-0.3-1.2-1-2.4-1.6-3.5
				c-0.4-0.8-1-1.4-1.5-2.1c-3.5-4.7-6.6-9.6-10.5-14c-1.6-1.8-4.5-2.5-6.8-3.6c-0.3-0.2-1,0-1.4,0.3c-4.3,3-5.4,7.7-5.6,12.4
				c-0.1,3.2,0.8,6.4,1.3,9.6c0.5,2.8,0.8,5.5,1.6,8.2c0.9,3.2,0.6,4-2.2,5.6c-3.7,2-7.4,4.1-11.1,6.1c-2,1.1-2.1,2.8-0.3,4.1
				c0.4,0.3,1,0.5,1.4,0.4c4.6-1,9.1-2,13.6-3.1c1.4-0.3,2.7-0.8,3.8-1.2c0.5,1.2,1,2.1,1.3,3c0.1,0.4-0.1,1.2-0.4,1.5
				c-2.4,2-5,3.8-7.4,5.8c-1.3,1.1-2.2,2.5-3.3,3.7c-0.1,0.2-0.1,0.6-0.1,0.9c0.4,2.8,1.6,3.7,4.3,2.7c3.2-1.1,6.4-2.5,9.6-3.7
				c3.9-1.4,3.9-1.4,6.2,1.8c0.3,0.4,0.5,0.9,0.9,1.2c4.3,3.3,5.1,7.7,4.5,12.8c-0.3,2.3-0.3,4.7-0.2,7.1c0,0.8,0.5,2,1.1,2.4
				c0.6,0.3,1.7-0.2,2.5-0.5c3.1-1.2,4.7-3.8,6.2-6.5c1.1-1.9,2.2-4.2,5.4-3.7c1,0.2,2.2-0.5,3.3-0.9c1.7-0.7,2.5-3.3,1.3-4.9
				c-1-1.3-2.1-2.4-3.2-3.5c-3.3-3.2-5.5-7-6.4-11.5c-0.4-1.8,0.4-4.3,1.5-4.4c2.3-0.2,4.7-0.3,7-0.1c3.3,0.3,6.7,0.6,9.9,1.4
				c1.7,0.4,3.1,1.9,4.4,3.1c0.3,0.3-0.5,1.7-0.8,2.7c-0.1,0.4-0.2,0.8-0.2,1.2c0.4,4.3,1,8.5,1.1,12.8c0.1,2.7,0.7,5.1,2.1,7.1
				c3.7,5.3,6.8,11.1,12,15.1c2.5,2,3.9,5.3,7.2,5.9c-0.4,1.9-1.1,3.4-1,5c0.1,2.3,1,4.6,1.3,6.9c0.5,3.8,0.7,7.7,1.2,11.6
				c0.3,1.9,0,3.5-1,5.2c-2,3.5-3.7,7.1-5.3,10.8c-1.6,3.8-2.8,7.7-4.1,11.6c-0.6,2-1.5,3.4-3.8,3.8c-1.4,0.2-2.7,1.5-4,2.2
				c-0.7,0.4-1.3,1-2,1.1c-2.6,0.4-5.2,0.5-7.7,0.9c-3.7,0.6-7.4,1.2-10.6,3.8c-2.3,1.9-4.2,4.5-7.6,4.6c-0.3,0-0.7,0.5-1,0.9
				c-2.2,3-4.6,6-6.6,9.2c-1.8,2.9-3,6.2-4.7,9.2c-2.1,3.7-3.5,7.7-3.2,12c0.5,6-1.3,11.4-3.2,16.9c-1.3,3.6-2.6,7.2-4,10.8
				c-0.6,1.6-0.3,2.6,1.6,2.9c-1.3,2.9-2.8,5.6-3.5,8.4c-0.9,3.5-1,7.1-1.4,10.7c-0.1,1-0.3,2.3,1.1,2.3c0.5,0,1-1.4,1.5-2.2
				c0.4-0.8,0.8-1.7,1.2-2.7c0.2,0.1-0.2-0.1-0.7-0.4c0.5-0.6,0.9-1.2,1.6-2.2c0.3,1.1,0.4,1.7,0.7,2.9c1.9-2.3,3.8-4.1,5.1-6.3
				c0.8-1.4,0.9-3.2,1.1-4.9c0.4-3.4,0.6-6.8,1-10.2c0.2,0,0.4,0.1,0.6,0.1c0,2.4,0,4.9,0,7.3c0,0.5,0.4,0.9,0.6,1.4
				c0.5-0.3,1.3-0.6,1.3-0.9c0.2-1,0.1-2.1,0.1-3.1c0-2.9,0-5.7,0-8.6c0-1.6-0.3-3.3,0-4.9c0.5-3.3,1.2-6.6,1.8-9.9
				c0.3-1.6,0.5-3.3,0.9-4.9c0.3-1.3,0.8-2.5,1.1-3.8c0.3,0,0.6,0,0.9,0c0.3,1.8,1,3.6,0.9,5.4c-0.2,4.5,0.8,8.8,1.7,13.2
				c0.2,0.9,0.2,1.9,0,2.8c-0.7,2.9,0.1,5.3,1.4,7.9c1.8,3.7,4.2,6.8,6.7,9.9c1.9,2.4,3.1,5.2,6,6.8c2.4,1.4,2.5,4.2,2.7,6.7
				c0.1,1.1,0.1,2.2,0.2,3.4c0.2,1.4,0.6,2.8,0.6,4.2c0.1,3.7,0,7.4,0,11.1c0,6.1-0.5,12.1-3.6,17.6c0.4,0.3,0.7,0.5,0.9,0.8
				c0.2,0.4,0.3,0.8,0.4,1.3c-0.4,0.1-0.8,0.2-1.2,0.1c-2.3-0.8-4.6-1.7-6.9-2.4c-2-0.6-4-1.2-6-1.2c-4.1,0.2-8.3,0.7-12.4,1.3
				c-1.9,0.3-3.8,1-5.4,2c-6.1,3.7-12,7.5-18.1,11.3c-4.4-2.4-9.1-3.8-14.2-3.3c-2.2,0.3-4.5,1-6.6,0.8c-4.3-0.4-8.4-0.1-12.2,2.2
				c-2.1,1.3-4.3,2.2-6.3,3.2c-1.7-2.7-3-5.9-5.2-8.3c-2.4-2.7-4.9-6.2-9.6-4.6c-0.4,0.1-0.9,0-1.3,0c-2.6-0.5-5.5,0.5-6.7,2.6
				c-3,5.2-6.1,10.4-8.8,15.8c-3.7,7.4-4,15.4-3,23.6c0.2,1.7,1.1,4-0.8,5.4c-3.1,2.3-6.4,4.2-9.3,6.6c-3.6,2.9-7.1,5.9-10.4,9.1
				c-2,1.9-3.7,4.2-5.1,6.6c-2.5,4.2-4.7,8.6-7,12.9c-1.6,3-3.5,5.9-4.8,9.1c-1.3,3.3-1.9,6.9-2.5,9.2c-2.4-2-5.3-4.2-7.9-6.7
				c-2-1.9-3.5-4.2-5.4-6.1c-0.9-0.9-2.7-2-3.6-1.6c-1.4,0.6-2.9,2.1-3.4,3.5c-1.9,5.9,1.6,10.4,4.4,14.9c0.9,1.4,2.3,2.5,3.6,4
				c-0.7,0.1-1,0.2-1.3,0.2c-3.3,0.3-5.1,2.4-4.2,5.5c0.9,3.1,2.5,6,3.7,9c0.8,2.1,1.7,3.9,4.3,4.4c0.5,0.1,0.9,0.9,1.4,1.3
				c0.8,0.7,1.6,1.3,2.6,2.1c-0.3,1-0.7,2.5-1.2,3.9c-3.2,9.4-8.6,16.7-18.4,20c-3.7,1.3-6.6,0.4-8.6-3c-1.2-2.1-2.4-4.1-3.2-6.3
				c-0.7-1.8-1.1-3.8-1.2-5.8c-0.1-2.2,0.4-4.4,0.7-6.7c0.5-4.3,1-8.6,1.6-12.8c0.6-3.9,1.3-7.8,2.4-11.6c0.7-2.7,1.9-5.3,3.1-7.9
				c1-2.2,2.2-4.2,3.3-6.3c1.3-2.5,2.5-5.1,3.7-7.6c0.9-2,1.4-4,0-5.9c-1.2-1.8-3.6-2.7-5.8-1.9c-3.5,1.3-7,2.8-10.7,4.2
				c-1.2-3.8-4.5-5.1-8.4-5.4c-3.8-0.3-7.1,0.6-9.9,3.3c0.4,0.7,0.8,1.3,0.9,1.9c0.8,5.7,3.7,11.1,2.7,17.2c-0.5,3.1-0.4,6.3-1,9.3
				c-0.9,4.4-2.2,8.7-3.3,13.1c-0.3,1.4-0.4,2.8-2.2,3.3c-0.4,0.1-0.8,1-0.9,1.6c-0.3,1.5-0.3,3-0.5,4.5c-0.3,2.3-0.7,4.6-1.2,6.9
				c-0.6,2.9-1.4,5.6-0.7,8.7c0.9,4.2,1.4,8.6,2.1,13.2c-3.7,0-7.4,0-11,0c-3.4,0-6.7-0.2-10.1-0.2c-2.6,0-5.3,0.2-7.9,0.2
				c-9.8-0.1-67.8-0.3-77.6-0.5c-0.5,0-1.3,0.2-1.5,0.5c-0.6,1.2-1.1,2.5-1.6,3.8c1.3,0.5,2.6,1.1,3.9,1.5c0.2,0.1,0.6-0.1,0.9-0.1
				c2-0.2,4-0.7,6-0.7c6.6-0.1,61.5-0.1,68.1,0c5.6,0.1,11.2,0.4,16.7,0.4c5.1,0,10.1-0.4,15.4-0.6c0.6,2.7,1,5.6,1.9,8.3
				c1.1,3.6,2.4,7.3,6.5,8.9c2.3,0.9,5.2,1.1,5.3,4.7c3-1.6,5.3-0.3,7.5,0.9c4.3,2.2,8.8,3.8,13.7,3.7c2.3,0,4.5-0.7,6.8-1
				c2-0.3,4.1-0.3,6.1-0.7c1.7-0.4,3.4-1.1,5-1.7c4.4-1.7,8.4-3.9,10.3-8.7c0.3-0.8,1.1-1.3,1.7-2c2.8-3.1,5.7-6.1,8.3-9.4
				c1.6-2,3.2-3.3,5.8-3.1c4.2,0.3,8.4,0.6,12.5,0.9c1,0.1,2,0,3.1,0.1c5.7,0.2,11.4,0.4,17.3,0.5c0,0,0.2,0.5,0.4,0.9
				c2.7,7.6,5.8,14.9,11.1,21.1c2.1,2.4,3.9,5.1,7,6.5c1.4,0.6,2.5,1.7,3.7,2.7c2.8,2.2,5.6,4.5,9.5,4.7c1.5,0.1,2.9,0.6,4.3,0.9
				c-0.1,1-0.1,1.7-0.1,2.4c0.1,2.2,0.7,4.5,0.1,6.5c-1.2,4.3-2.4,8.5-2,13.1c0,0.4,0,0.9-0.1,1.3c-0.7,2.8-0.6,5.3,1.7,7.3
				c0.2,0.2,0.5,0.7,0.4,0.9c-0.5,1.4,0.5,1.9,1.5,2.1c2,0.4,4,0.7,5.9,1c4.7,0.8,9.5,1.5,14.2,0c0.7-0.2,1.3-1,2-1.6
				c1.5-1.2,3.5-2.1,4.5-3.6c2.2-3.4,2.2-7.3,1.3-11.3c-0.3-1.2-0.3-2.6-0.1-3.8c0.2-1.5,0.6-3,1.3-4.4c0.3-0.6,1.3-1.2,2-1.2
				c1.5,0,3,0.4,4.5,0.7c2.9,0.4,4.2,2.1,4.2,5.1c0,0.7-0.1,1.3,0.1,2c1.3,5.2,1.4,10.4-0.4,15.6c-0.2,0.6-0.3,1.4,0,1.9
				c1.8,2.9,3.1,6.4,7.3,6.9c2.1,0.3,4.3,0.7,6.4,0.8c3.7,0.2,7.4,0.2,10.6-2.5c1.6-1.3,3.3-2.8,5.2-3.5c2.4-0.9,2.7-3.1,2.9-4.6
				c0.6-4.3,0.3-8.7,0.5-13c0.1-3.7,1.4-4.8,5-4.9c3.7-0.1,7.5-0.6,11.2-0.8c2-0.1,4.1-0.4,5.9,0.2c5.6,2,11.2,2.2,16.9,0.9
				c1.3-0.3,2.7-0.7,4-0.7c2.6-0.1,5.3,0,8,0c2.4,0,4.7-0.1,7-0.1c2.6,0,5.1,0,7.7,0.1c0.6,0,1.5,0.4,1.6,0.7
				c0.3,1.8,0.7,3.8,0.4,5.6c-0.7,3.9,0,7.6,1.1,11.3c0.2,0.5,0.9,0.9,1.4,1.2c0.7,0.5,1.7,0.7,2.3,1.3c2,1.7,3.8,3.5,6.8,3.1
				c3.5-0.4,7.1-0.4,10.5-1c3.1-0.5,5.6-2.6,7.3-5.1c0.7-1.1,0.1-3.1,0-4.7c0-0.4,0-0.9,0-1.3c0.6-4.6,1.1-9.1,1.8-13.7
				c0.1-0.4,0.6-1,1-1.2c1.7-0.7,3.5-1.2,5.2-1.9c1.3-0.5,1.7-0.5,1.7,1.2c0.1,5.5,0.3,11,0.8,16.5c0.4,4,2.4,6.4,6.3,6.8
				c4.7,0.6,9.4,0.6,14.1,0.5c3.2-0.1,6.2-1.6,7.8-4.5c3.2-5.9,6.2-11.9,5-19c-0.1-0.7,0-1.5,0.1-2.2c0.2-2.5,0.5-5,0.8-7.5
				c0.1-1.1-0.1-2.2,0.2-3.3c0.6-2.8,0.2-5.3-2.1-7.8c3-4.8,5.9-9.7,9-14.6c1.7-2.6,3.7-5,5.4-7.7c1.2-1.8,2.3-3.1,4.7-2.3
				c1,0.3,2.2,0,3.3,0.1c0.5,0,1,0.3,1.5,0.5c0.7,0.2,1.3,0.4,2,0.7c0.2-0.8,0.5-1.6,0.5-2.4c-0.2-2.7-0.6-5.4-0.9-8.1
				c0.2,0,0.4,0,0.6-0.1c0.1,0.8,0.2,1.6,0.4,2.4c0.8,4.5,1.5,8.9,2.3,13.4c0.3,1.5,1.2,2.2,2.6,2.4c0.6,0.1,1.2,0.7,1.6,1.3
				c0.4,0.8,0.6,1.8,0.9,2.6c1.1,3,1.4,3.1,3.4,1.5c1,0.8,2,1.5,2.9,2.3c0.3-1.1,0.6-2.1,0.9-3.3c2-0.3,2.2-0.5,1.4-2.7
				c0.7-0.8,1.3-1.5,1.8-2.2c-0.9-0.4-1.7-0.9-2.7-1.4c0.3-0.2,0.5-0.3,0.8-0.4c2-0.8,2-1.7,0.5-3.2c-0.7-0.7-1.1-1.7-1.5-2.3
				c1-0.6,2.3-1,2.4-1.6c0.1-0.9-0.6-1.9-1.1-2.9c1.9,0,3.7-0.1,5.5,0c6.5,0.3,13.1-0.8,19.4,2c0.3,0.1,0.8-0.1,1.2-0.1
				c1.2,0,2.3,0.1,3.4,0.1c0.7,0,1.4,0.1,2.2,0c1.8-0.3,3.6-0.9,5.4-0.9c5.5,0.1,11,0.4,16.5,0.6c2.6,0.1,5.3-0.1,7.9,0.1
				c5.6,0.3,11.2,0.9,16.8,0c1.8-0.3,3.6,0.2,5.4,0.3c0.6,0,1.2,0.1,1.7,0c3.5-0.3,60-0.2,63.5-0.2c7.1,0,14.1,0.3,21.2,0.4
				c0.7,0,1.4-0.1,2.1-0.4C617.5,509.8,617.7,508.8,617.6,508.7 M433.5,218.3c2.2,5.1,3.6,10.5,3.1,16.1c-0.3,3.8-4.3,5.7-7.4,3.4
				c-2.2-1.6-3.9-3.9-5.9-5.8c-0.8-0.7-1.9-1.2-2.8-1.7c-0.8-0.4-1.7-0.6-2.6-0.9c0.9-3.1,3.2-5,5.4-6.6c2.6-1.9,5.6-3.3,8.5-4.8
				C432.1,217.9,433.4,218,433.5,218.3 M422.8,219.4c-3,2.4-6.2,4.5-7.9,8.4c-0.9-0.5-1.6-0.8-2.6-1.4c4.3-7.2,10.7-11.6,18.5-14.2
				C428.2,214.7,425.6,217.2,422.8,219.4 M425.6,203c0.3,0.4,0.8,1,1.3,1.7c0.9,1.3,0.9,2.3-1,2.5c-0.5,0.1-1,0.4-1.3,0.7
				c-3.2,2.8-6.6,5.4-9.4,8.4c-2.2,2.4-3.9,5.4-6,8.3c-0.9-0.7-2.1-1.7-4.1-3.4c3.5-3.1,6.8-6.1,10.1-8.9c2.2-1.9,4.6-3.6,6.8-5.6
				C423.2,205.6,424.3,204.4,425.6,203 M398.6,189.7c1.5-0.3,3.4-3.1,3.4-4.7c0-2.2,0.7-4.4,0.3-6.4c-0.5-2.8,1.6-3.9,2.4-5.8
				c0.2,0,0.5,0.1,0.7,0.1c-0.1,1.1-0.2,2.2-0.2,3.2c-0.1,1.7-0.2,3.5-0.1,5.2c0.1,3.3,2.3,4.9,5.1,5.9c1.1,0.4,2,0.3,2.4-1
				c0.4-1,0.7-2,1.2-3c0.5-0.9,1.1-1.8,1.7-2.6c0.2,0.2,0.4,0.3,0.7,0.5c-0.4,1.9-0.8,3.8-1.2,5.6c0,0.1-0.1,0.2-0.1,0.2
				c1.1,2.2,2,4.5,1.8,7c0,0.1,0.7,0.5,0.9,0.4c2.2-0.9,2.5,1.2,2.9,2.2c0.2,0.6-1,1.8-1.7,2.6c-1.8,2-3.9,3.8-5.4,6
				c-3.5,4.8-6.7,9.9-10,14.9c-2.9-0.3-4.6-1.8-5.3-4.6c-1.4-5.3-2.8-10.5-4.1-15.8c-0.4-1.7-0.5-3.6-0.7-5.3c-0.1-1-0.4-2-0.6-3.3
				C394.4,190.6,396.5,190.1,398.6,189.7 M386,195.2c0.8,3.4,1.3,7,2.5,10.3c1.5,4.1,3.4,8,5.4,11.9c1.8,3.5,1.9,3.4-1,6
				c-5.2-7.5-10.3-15-15.7-22.8C380.9,199.8,381.9,195.2,386,195.2 M371.4,205.2c4.4,8.8,9.5,16.8,18.1,21.9c-1.5,1.7-2.9,3.3-4.4,5
				c-5.8-7.8-11.5-15.6-17.4-23.6C368.9,207.5,370.1,206.4,371.4,205.2 M365.1,212.1c2.5,10.6,10.8,17.8,14.6,28
				c-0.6,1-1.7,2.7-2.8,4.4c-2.7-3.5-5.5-6.6-7.7-10.1c-1.7-2.7-2.8-5.9-3.9-9c-1.1-3.1-2.7-5.9-2.9-9.4
				C362.3,213.4,363.3,212.9,365.1,212.1 M334.2,226.6c1.4-3.6,2.6-7.3,3.9-10.9c0.9-0.2,2-0.4,2.9-0.8c1.6-0.7,2,0.4,1.8,1.4
				c-0.7,4.3-1.4,8.5-2.3,12.7c-1.4,6.6-3.3,13.2-4.5,19.8c-1.1,6.1-1.6,12.3-2.3,18.4c-0.4,4.2-0.6,8.4-0.8,12.6
				c0,0.6,0.2,1.1,0.3,1.7c0.4,1.4,0.9,3.1,2.7,2.9c1.8-0.3,1.1-2,1.2-3.3c0.6-3.8,1-7.7,1.8-11.5c1.8-8.9,3.6-17.8,5.7-26.7
				c1.4-5.8,3.4-11.5,4.9-17.4c0.8-3.3,1.2-6.7,1.8-10c-0.2-0.1-0.4-0.3-0.6-0.4c0.9-0.2,1.9-0.5,2.8-0.5c0.4,0,0.9,0.6,1.1,1
				c0.3,0.8,0.4,1.6,1,2.2c-0.7,5.5-1.4,10.9-2.2,16.4c-0.6,4.5-1.3,9-1.9,13.5c-0.7,5-1.4,10-2,15c-0.5,3.9-1.1,7.7-1.2,11.6
				c-0.1,3.2,0.2,6.5,0.4,9.8c0,0.5,1,1.2,1.7,1.3c0.3,0.1,1.2-0.8,1.3-1.3c0.7-4.6,1.1-9.3,1.9-14c0.5-2.7,1.5-5.4,2.1-8
				c0.9-3.8,1.8-7.5,2.6-11.3c1.5-6.8,3-13.5,4.5-20.3c0.2,0,0.4-0.1,0.6-0.1c0.5,1.4,1.3,2.8,1.5,4.3c0.4,4.9,1.5,9.7,3.3,14.2
				c1.4,3.5,3.8,6.6,5.8,10c0.3,0.5,0.7,1.2,0.5,1.6c-2.5,6.6-4.8,13.3-10.5,18c-3,2.4-5.9,4.9-8.7,7.5c-0.3,0.3-0.1,1.2-0.2,1.8
				c-0.2,0.7-0.2,1.6-0.7,1.9c-1.1,0.9-4,0.1-4.9-1c-0.8-1-1.6-2.1-2.6-2.9c-2.5-2-7.6-1.3-10,1c-2.4,2.3-4.5,5.1-8,5.3
				c-0.7-1-1.6-1.7-2-2.7c-0.4-1.1-0.5-2.5-0.6-3.7c-0.1-3.9-0.2-7.8-0.3-11.7c0-0.5-0.2-1.2-0.5-1.3c-1.8-0.8-1.4-2.3-1.1-3.6
				c1.3-6.8,2.7-13.6,3.9-20.5C329.4,241,331.5,233.7,334.2,226.6 M353.4,307.1c-1.1,0.1-2,0.3-3.1,0.4c0.2-1,0.4-1.9,0.7-3h3
				C353.8,305.5,353.6,306.4,353.4,307.1 M350.2,326.1v-5.5c0.8-0.2,1.9-0.4,3-0.6C354.1,324.7,354.1,324.7,350.2,326.1 M350.3,299
				c0.2-1.2,0.3-2.4,0.5-3.7c1.2-0.2,2.2-0.4,3.1-0.6C354.9,298.1,354.3,298.9,350.3,299 M352.9,311.4c0.4,3.9,0.4,3.9-2.3,4.7
				C349.6,313.7,350.2,312.5,352.9,311.4 M353.7,328.8c0.2,0.7,0.5,1.5,0.9,2.6c-1.4,0.6-2.9,1.1-4.3,1.7
				C349.3,329.5,352.1,329.7,353.7,328.8 M355.2,335.5c0.3,2.4,0.5,4.7,0.8,7.5c-2-0.2-3.9-0.4-5.8-0.5c-1.5-0.1-1.8-0.8-1.3-2.2
				c0.4-1,0.5-2.2,0.7-3.3C351.4,336.5,353.2,336,355.2,335.5 M344.2,325.1c-0.2,5-0.5,9.9-0.8,15.1c-3.3,0.2-3.1-0.6-4-3.3
				c-0.9-2.6-1.5-5.1-1-7.9c0.2-1.1-1-2.4-1.1-3.7c-0.4-4.8-1.6-9.5-0.2-14.3c1.5-5.4,2.6-11,3.9-16.4c0.2-0.8,0.2-1.7,0.3-2.7
				c1.4,0.1,2,0.6,2.1,2c0.4,5.5,0.9,11.1,1.2,16.6c0.1,2.9-0.2,5.9-0.3,8.9C344.2,321.2,344.3,323.1,344.2,325.1 M327.8,324v-2.8
				c0.5-0.2,1.1-0.3,1.7-0.6c0.5-0.3,0.9-0.6,1.5-1.1C331.8,322.5,331.5,322.9,327.8,324 M331.4,325.9c0.1,1,0.2,2,0.3,3.3
				c-1.3,0.3-2.6,0.5-3.8,0.8C328,327.5,328,327.5,331.4,325.9 M331.4,332.6c0.2,2.2,0.5,4.3,0.7,6.6h-2.9c-0.5-2-1-3.7-1.5-5.6
				C328.8,333.3,330,333,331.4,332.6 M328.1,316.1c-0.4-0.1-0.9-0.8-0.8-1.2c0.1-0.6,0.5-1.4,0.9-1.5c1.2-0.4,2.5-0.4,3.9-0.6
				C331.6,315.3,330.2,316.4,328.1,316.1 M326.7,309.1v-4.4h5.9C333.9,307.5,330.7,309.5,326.7,309.1 M327.8,300.2
				c-0.3-3.2-0.3-3.2,2.7-3.8c1-0.2,2-0.5,3-0.8C334.1,299.3,332.9,299.4,327.8,300.2 M315.4,248.5c0.1-3.4,0.5-6.8,0.9-10.1
				c0.5-4.4,0.9-8.8,1.8-13.1c0.8-3.5,2.2-6.9,3.6-10.3c0.2-0.5,1.6-0.7,2.4-0.8c1-0.1,2.1,0.2,3.8,0.4c-4.7,11.6-4.8,23.9-6.4,36
				c-1.6,12.2-0.3,24.3,1,36.9c-1.7-0.3-3.6-0.7-5.4-1.2c-0.4-0.1-0.6-0.9-0.7-1.5c-0.2-1.6-0.5-3.3-0.5-4.9c0.1-4.5,0.4-9,0.4-13.6
				c0-2.3-0.7-4.6-0.8-6.8C315.3,255.8,315.2,252.2,315.4,248.5 M322.5,338.9c-3.9,0-7.5,0-11.1,0c-1.5,0-2.1-0.8-2.2-2.4
				c-0.6-6.9-1.8-13.8-2-20.6c-0.2-5.8,0.7-11.7,1.1-17.5c0.2-2.1,0.4-4.7,2.6-5.6c2.7-1.1,5.5-0.1,8.1,1.2c0.6,0.3,1.2,0.4,2,0.7
				C321.8,309.3,323.4,324,322.5,338.9 M308.3,215.1c1.5-0.3,3.1-0.5,4.7-0.7c-0.7,4.2-1,8.4-2.1,12.4c-1.1,3.6-0.8,7.2-1.1,10.8
				c-0.3,3.9-0.5,7.9-0.4,11.9c0.1,5.1,0.6,10.1,0.9,15.2c0.2,3.1,0.1,6.2,0.3,9.2c0.2,3.2,0.6,6.3,1.1,9.4c0.6,3.3,0.4,3.8-3,4
				c-1.2,0.1-2.4,0.3-3.9,0.6c-0.6-4.8-2.2-9.1-1.4-14c0.4-2.7-0.2-5.6-0.2-8.4c0-1.3,0.3-2.7,0.5-4c0.1-0.5,0.3-1.3,0.1-1.6
				c-1.6-1.6-1.5-3.6-1.5-5.6c-0.1-4.1,0.2-8.2-0.1-12.2c-0.4-5.7,1.2-11.2,1.7-16.7c0.3-3.5,3.1-6,3.4-9.4
				C307.3,215.6,307.9,215.2,308.3,215.1 M299.1,315.1c0.6,0.2,1.6-0.3,2.5-0.6c0,0.7,0,1.4,0,2c0,1.8-1.6,3.2-3.2,2.6
				c-0.6-0.2-1.4-1.4-1.2-1.9C297.4,316.4,296.7,314.2,299.1,315.1 M301.6,322c0,2.5-0.8,3.2-3.2,2.7c-0.3-0.9-0.6-1.7-1-2.7H301.6z
				 M298.3,328.1c0.8-0.3,1.7-0.3,2.7-0.4c1,1.7-0.3,2.2-1.4,2.4c-0.7,0.1-1.4-0.5-2.2-0.8C297.7,328.9,297.9,328.2,298.3,328.1
				 M298.1,333.5c0.9-0.4,1.9-0.6,3-0.9c0.3,1.2,0.4,2.1,0.8,3.7c-1.5-0.5-2.6-0.7-3.6-1.2C298,335,297.9,333.5,298.1,333.5
				 M301.6,310.6c-1,0.7-2.4,0.9-3.6,1c-0.2,0-0.6-1.6-0.8-2.5c1.9-0.4,3.4-0.8,5.4-1.3C302.1,309,302.1,310.2,301.6,310.6
				 M297,304.3v-3.4c2-0.2,4-0.3,5.9-0.5C302.8,305.1,302.1,304.5,297,304.3 M297.2,296.4c-0.6-1.2-0.8-2.1,1.2-2.1
				c1.8-0.1,3.5-0.5,5.5-0.8C303.4,296.4,302.6,296.7,297.2,296.4 M266.8,58.5c-2.1,0.1-4.7-0.4-5.9-2.5c-1.2-2-2.6-1.8-4.4-1.3
				c-1.4,0.4-2.8,0.5-4.2,0.7c-0.1-0.2-0.1-0.4-0.2-0.6c1.1-0.4,2.2-0.6,3.2-1.1c0.5-0.2,1-0.6,1.4-1c0.1-0.1,0.3-0.3,0.5-0.4
				c-0.5-0.6-0.9-1.2-1.4-1.7c-0.4-0.4-1-0.7-1.3-0.9c1.1-0.6,2.2-1.3,3.3-1.7c0.5-0.2,1.4,0.3,1.9,0.6c1.7,1.2,3,1.1,4.5-0.5
				c3.6-4,8.3-5.4,13.8-5.1c0.2-0.9,0.4-1.6,0.6-2.4c0.4-2.1,1.9-3,3.8-3.1c1.6,0,2.5,1.1,2.9,2.7c0.3,1.1,0.8,2.2,2.4,1.6
				c0.3-0.1,0.9,0.3,1.5,1c-1.1,0.4-2.1,0.8-3.2,1.1c-1.5,0.3-2.3,1.1-2,2.7c0.3,1.9-1.1,4.2-2.8,5.3c-1.3,0.8-2.3,2.2-3.5,3.2
				c-0.8,0.7-1.8,1.3-2.7,1.6C272.2,57.4,269.5,58.4,266.8,58.5 M276.9,59.4c-0.2,2.3-0.3,4.7-0.5,7.1c-4.1,0.5-4.1,0.5-3.1-3.8
				C273.7,60.7,273.8,58.7,276.9,59.4 M225.6,67.7c1.1-2.9,3.7-3.5,6-1.4c0.8,0.7,1.6,1.3,2.3,2c4.4,4.7,7.3,10.2,9.1,16.4
				c0.1,0.4-0.5,1.3-1,1.5c-3.1,1.2-6.2,2.1-9.3,3.3c-1.1,0.4-2.1,1.2-3.8,2.1c-0.6-2.2-1.1-4-1.6-5.8c-0.1-0.5-0.3-0.9-0.5-1.4
				c-1.1-3.2-2.5-6.3-1.3-9.8c0.1-0.4,0.2-1,0-1.3C224,71.3,224.9,69.5,225.6,67.7 M227.1,112.3c1.2-2.5,4.6-3.9,5.9-2.3
				C231,110.8,229.1,111.6,227.1,112.3 M252.1,129.9V125C254.1,128.6,254.1,128.6,252.1,129.9 M258.4,125.4c0.2,0.2,0.3,0.6,0.5,1
				c-1.8,1.2-2.7,0.5-3.1-1.3c-0.1-0.3-0.1-0.7-0.3-1c-0.4-0.6-0.8-1.6-1.4-1.7c-0.5-0.1-1.1,0.8-1.8,1.3c-1.7-1.2-2.2-1.2-2.6,1.3
				c-0.5,2.8-0.5,5.7-0.8,8.6c-0.1,0.7-0.4,1.3-0.6,2c-0.3-0.1-0.6-0.2-0.8-0.2c0.2-2.3,0.4-4.5,0.7-6.8c0.2-1.3,0.7-2.5,1-3.8
				c0.1-0.3-0.1-0.7-0.3-1c-2.1-3-4.2-6-6.4-9c-3-4.1-6.1-8.2-9.2-12.3c-0.3-0.4-0.3-0.9-0.6-1.8c4.6-0.8,9.1-1.7,13.6-2.4
				c0.5-0.1,1.6,0.8,1.7,1.3c0.7,3.9,1.2,7.8,1.8,11.8c0.1,0.4,0.1,0.8,0.3,1.3c0.5,1.7,2.1,3.1,1.7,5.2c-0.1,0.5,0.8,1.3,1.3,1.8
				C254.8,121.6,256.6,123.4,258.4,125.4 M291.8,140.9c-2.9-2.9-5.6-5.9-6.8-10.1c-0.6-2-2.1-3.8-2.6-5.9c-1-4.5-2.5-9.2-2.3-13.7
				c0.2-6.1-3.6-9.3-9.3-10.6c-2.8-0.6-5.4-1.9-8.3-1.8c-0.5,0-1.1-0.2-1.4,0c-1.8,1.8-3.9,0.4-5.9,0.8c-0.7,0.1-1.4-0.2-2.7-0.4
				c1.5-0.8,2.5-1.4,3.6-2c1.2-0.6,2.4-1.1,3.5-1.9c0.4-0.3,0.8-1.3,0.6-1.8c-0.2-0.5-1-0.7-1.6-1.1c-0.1,0-0.1,0-0.2,0
				c-5.4,1.7-11.2,1.3-16.7,2.3c-2.2,0.4-4.3,1.1-6.5,1.4c-1.3,0.2-2.7-0.2-4,0.1c-2.2,0.5-4.2,1.3-6.4,2c-0.6,0.2-1.1,0.4-1.9,0.3
				c0.3-0.3,0.5-0.7,0.8-0.8c3.4-1.2,6.9-2.4,10.4-3.5c0.4-0.1,0.9-0.1,1.2-0.4c3.2-3,7.4-2.7,11.2-3.6c6.6-1.5,12.4-3.8,16.6-9.9
				c2.3-3.4,4.7-7.8,9.9-8.3c2.5-0.3,4.6-0.2,6.9,1.5c3.5,2.5,5.7,5.6,6.7,9.6c0.5,1.9,1.7,2.9,3.8,2.7c7-0.9,12.5,2.5,18.1,6
				c1.6,1,3.4,1.7,4.8,2.9c1.7,1.5,3.3,3.2,4.7,5.1c2.6,3.4,5.5,6.3,8.9,8.8c1.2,0.9,2.2,2.1,3,3.4c1.5,2.3,4.3,3.4,5.3,6.2
				c2.2,5.8,5.6,11.3,7.1,17.3c1.5,6.1,4.2,11.7,6.6,17.3c0.2,0.5,0.4,1,0.6,1.4c1.2,3.4,1.7,6.9,2.8,10.2c0,0,0,0,0,0
				c-1.5,0.4-3,0.7-4.3,0c-0.4-0.2-0.8-0.6-1.2-1.1c-0.2-0.3-1.4,0.1-2.5,0.3c-1.7-1.9-3.9-2.6-7-2.1c-3.6,0.7-6.9-0.6-10.1-2.6
				c-2.4-1.5-5-2.9-7.6-3.7c-1.8-0.6-3.7-0.7-5-2.3c-0.1-0.1-0.3-0.2-0.4-0.1c-3.2,1.2-5.6-1.5-8.6-1.8c-1.8-0.2-3.7-1.4-5.2-2.6
				C297.3,146.1,294.5,143.5,291.8,140.9 M294.9,204.4c1.8-4.7,4.2-9.2,5.3-14c1-4.6,3.5-8.1,5.9-11.8c0.3-0.5,0.6-1.2,0.5-1.8
				c-0.5-3.3-1-6.7-1.6-10c-0.6-3.4-1.1-6.7-1.7-10.3c2.7,0.4,4.8,0.8,6.6,1.1c0,3.1-0.3,6.3,0.1,9.4c0.4,2.6,1.8,5.1,2.3,7.8
				c0.3,1.7,0.2,3.7-0.3,5.4c-1.8,5.6-4.5,10.9-5.8,16.6c-0.7,2.9-1.4,5.7-2.7,8.4c-0.3,0.7-1.2,1.3-1.9,1.7c-1.3,0.7-2.7,1.3-4,1.8
				c-1.2,0.5-2.5,1-3.7,1.5c-0.2-0.2-0.4-0.3-0.6-0.5C293.8,207.8,294.2,206.1,294.9,204.4 M289.6,233.6c0.3-4.7,1.5-9.3,2.6-13.9
				c0.6-2.3,2.5-3.7,5.1-3.8c0.7,0,1.4-0.2,2.2-0.4c-1,4.3-2.3,8.3-2.8,12.4c-0.5,3.8-0.2,7.6-0.1,11.4c0.1,3.3,0.3,6.5,0.4,9.7
				c0.2,6,0.2,11.9,0.5,17.9c0.2,4.1,0.9,8.2,1.4,12.3c0.4,2.6,1.1,5.2,1.4,7.9c0.1,0.6-0.7,1.6-1.3,1.8c-1.4,0.6-3,0.8-4.5,1.2
				c-0.6-1.4,0.9-3.9-1.9-3.8c-0.6-2.1-1.5-3.9-1.8-5.9c-0.3-2.2-0.2-4.5-0.3-6.7c0-1.8,0-3.6,0-5.4c0-2,0.2-3.9,0.2-5.9
				c-0.1-3.4-0.3-6.8-0.5-10.2c0-0.4-0.3-0.8-0.3-1.3C289.8,245.2,289.3,239.4,289.6,233.6 M282.5,303.4c-0.2-2.7,1.1-4.7,2.5-6.7
				c0.4-0.6,1.7-1.1,2.2-0.9c0.8,0.3,1.7,1.3,1.9,2.1c1.9,7.7,2.7,15.6,2.8,23.6c0,2.4,0.7,4.8,0.8,7.2c0.1,2.4-0.1,4.9-0.1,7.3
				c0,1.2-0.1,2.3-0.2,4h-10c-0.1-2.1,0.1-3.9-0.3-5.5c-1.3-5.9-2.1-11.7-0.9-17.7c0.4-2,1-4,1.2-6.1
				C282.5,308.2,282.7,305.8,282.5,303.4 M277.4,253.8c0.1-3.5,0.9-7.1,1.8-10.5c0.6-2.2,0.6-4.3,0.3-6.5c-0.4-2.8-0.4-5.7,0-8.5
				c0.5-3.7,1.6-7.3,2.6-10.8c0.2-0.7,1.2-1.2,1.9-1.7c0.4,0.6,1.1,1.3,1,1.9c-0.2,4-0.5,8.1-0.7,12.1c-0.2,4.4-0.3,8.7-0.5,13.1
				c0,0.9-0.2,1.9-0.4,2.8c-0.6,2.6-0.4,5,0.3,7.6c0.5,1.8,0.1,3.8,0.1,5.7c0,2.3,0.2,4.6,0.2,6.9c0,1.9-0.1,3.7-0.2,5.6
				c-0.1,4.8,1.2,9.2,3.2,13.4c0.8,1.7,1.4,3.6,2.1,5.5h-4.6c-0.8-3-3.1-5-5-7.3c-0.3-0.4-0.9-0.8-0.9-1.3c-0.2-2.4-0.4-4.8-0.5-7.2
				c-0.1-2.2,0.1-4.4,0-6.6C277.9,263.1,277.2,258.4,277.4,253.8 M261.4,284.9c-1.2-3.1-2.8-6.1-4.2-9.1c-0.2-0.4-0.4-0.9-0.4-1.4
				c-0.2-3.5,0.2-7.1-0.6-10.4c-0.7-3,0.6-6.5-1.9-9.2c-0.4-0.5,0.3-1.8,0.2-2.6c-0.4-2.7,0.5-5,1.7-7.4c0.7-1.4,0.5-3.2,0.9-4.8
				c1-3.9,1.9-7.7,3.2-11.5c0.6-1.9,1.8-3.5,3-5.7c-0.4,3.5,0,6.7-1.1,9.2c-1.5,3.4-2.1,7-2.9,10.5c-1.6,7.2-1.5,14.4,0.2,21.6
				c0.6,2.6,0.9,5.3,1.6,7.9c1.6,5.8,3.4,11.6,5.2,17.8C264.2,288.2,262.3,287.3,261.4,284.9 M267.5,279.4c0.2-3.2-0.3-6.5-1-9.6
				c-0.6-2.6-0.9-5.1,0.2-7.6c0.3-0.7,0.4-1.5,0.4-2.3c-0.1-1.8-0.3-3.5-0.4-5.3c-0.2-4.8-0.4-9.6-0.4-14.4c0-2.2,0.4-4.4,0.9-6.6
				c0.7-3.3,1.6-6.5,2.3-9.8c0.2-1,0.3-2.2,0.1-3.2c-0.3-1.5,0.1-2.1,1.6-2.3c1.3-0.1,2.7-0.5,4.2-0.7c-0.7,1.5-1.2,2.7-1.8,3.9
				c-1.8,3.7-0.2,7.4-0.3,11.1c-0.1,5.1,1.8,10,1,15.3c-0.7,4.5-0.2,9.2-0.3,13.8c0,1.9-0.4,3.7-0.4,5.6c-0.1,2.5-0.1,5,0.1,7.5
				c0.2,2.8,0.7,5.6,1.3,8.3c0.3,1.5,1.1,3,1.7,4.4c0.2,0.4,0.8,0.7,1.2,0.7c2.6-0.3,2.9,1.2,2.6,3.3c-1.7,0.8-2.8,2-3,4
				c-0.1,1.5-0.6,2.8-2.6,2.8c-2.6,0-3.5-0.8-4-3c-0.2-1.1-1-2.1-1.8-3c-0.1-1.2,0-2.4-0.4-3.4C267.7,285.8,267.4,282.7,267.5,279.4
				 M275.7,328.3c-3.7-1.3-3.9-1.7-3.7-6.6C276.1,322.8,276.3,323.1,275.7,328.3 M275.9,333.1v3.6c-3.1-0.6-3.3-0.9-3.3-5
				C273.7,332.1,274.8,332.6,275.9,333.1 M271.2,312.5c1.5,0.4,2.8,0.8,4.3,1.2v3.5C272.8,317.6,272,316.8,271.2,312.5 M274.4,308.7
				c-1.1-0.3-2.4-0.4-1.7-2.2c0.3-0.8-0.1-1.8-0.2-3.2c1.5,0.4,2.9,0.8,4.2,1.1c-0.1,1-0.4,1.8-0.3,2.6
				C276.4,308.4,275.8,309,274.4,308.7 M148.8,369.2c0.8-3.1,1.6-6.2,2.5-9.3c0.2-0.5,0.5-1.1,0.9-1.5c2.2-2.2,4.3-4.5,6.9-6.3
				c1.6-1.1,3.8-1.5,5.8-1.8c0.7-0.1,1.9,0.7,2.3,1.4c1.4,2.2,3.9,3.8,3.8,6.9c0,0.7,0.8,1.5,1.4,2.3c-2.1,1.6-4.3,3.1-6.2,4.8
				c-1,1-1.4,3-2.5,3.5c-2.8,1.2-3.2,4.1-4.9,6.1c-1.7,2-3,4.1-5.7,5.1c-1.6,0.6-2.7,2.4-4.2,3.9c-1-4,2.4-7.8-0.2-11
				c0.1-1.1,0.2-2,0.2-2.9C148.9,370.1,148.7,369.6,148.8,369.2 M87.6,442.7c-1.4-1.8-2.2-4-3.2-6.1c0.4-0.3,0.8-0.5,1.1-0.8
				c1.7,2.1,3.6,4.1,5.2,6.2c1.8,2.5,4.2,4,6.8,5.5c1.6,0.9,2.9,2.4,4.1,3.8c2.8,3.1,6.4,4.8,10.1,6.4c3.4,1.5,6.9,2.8,10.3,4.2
				c0.5,0.2,1,0.6,1.4,0.9c2.2,2.2,5.1,2.7,8.1,2.9c2.2,0.1,4.5,0.1,6.8,0.1c1.2,0,1.8,0.4,1.3,1.7c-0.2,0.4,0,1,0,1.4
				c0.3,3.6-3.1,6.4-6.7,5.7c-3.9-0.7-7.5-1.9-9.8-5.6c-1.7,1.9-3.2,0.5-4.5-0.2c-8.6-4.9-16.2-11.1-23.3-18
				C92.7,448.4,90,445.7,87.6,442.7 M88.6,460.1c0.2-0.2,0.3-0.3,0.5-0.5l9.4,6.3c-0.2,0.1-0.5,0.2-0.7,0.4
				c-0.2,1.3-0.5,2.5-0.8,3.9C92.7,468,91,463.8,88.6,460.1 M115.9,496.2c-0.6,1-1,2.2-1.6,3.3c-1.2,2.2-2.2,4.6-3.6,6.6
				c-3.1,4.3-6.3,8.5-9.5,12.7c-3.5,4.6-7.9,7.8-13.3,10c-3.9,1.6-7.7,3-11.9,2.4c-3.1-0.4-6.1-1.3-9.1-2.1c-2.1-0.6-4.1-1.3-6-2.2
				c-1.6-0.7-2.9-1.9-4.4-2.6c-0.8-0.4-1.3-2-2.7-0.8c-0.1,0.1-0.4-0.1-0.5-0.3c-1.3-1.5-2.9-2.9-3.7-4.6c-1.6-3.5-2.6-7.3-2.6-11.3
				c0-4.3-0.9-8.6-1.4-12.9c-0.1-1.1,0-2.1,0-3.2c0.1-2.8,0.1-5.5,0.2-8.3c0-1.2,0.2-2.4,0.4-3.6c0.9-5.4,1.5-10.9,2.7-16.3
				c1.3-5.9,3.3-11.7,4.5-17.7c0.6-3.1,1.8-6.2,0.8-9.6c-0.5-1.6-0.1-3.5-0.1-5.2c2.7-0.3,3.4,1.6,4.4,3.3c0.6,1,1.2,2.4,2.1,2.6
				c1.3,0.3,2.7,0,3.9-1.6c1.6-2.2,4.1-3.7,6.3-5.5c-0.8,3.2-1.3,6.2-2.4,8.9c-1.2,2.9-3.1,5.6-4.4,8.5c-1.9,4.5-3.8,9-3.3,14.2
				c0.2,1.8-0.9,3.7-0.7,5.5c0.5,4.2-0.8,8.1-1.5,12.1c-0.3,1.7-0.2,3.5-0.1,5.2c0,2.6,0.6,5.3,0.1,7.9c-0.6,3.4,0.4,6.1,2,8.7
				c2.8,4.7,7.2,5.3,12.3,5.2c3.5-0.1,6.8-0.4,10-1.6c1.9-0.7,3.8-1.6,5.4-2.8c2.3-1.6,4.3-3.6,6.5-5.4c3-2.5,4.2-6,5.2-9.5
				c1.1-3.6,2.1-7.2,3-10.8c0.6-2.5,0.8-5.1,1.2-8c2.1,1.3,4.2,2.3,6,3.7c1.1,0.9,1,2.7,2.5,3.6c3.6,2.1,7,4.4,10.5,6.6
				c0.4,0.2,0.7,0.6,1.3,1.2C121.6,487.1,118.7,491.6,115.9,496.2 M120.3,505.4c1.5-3,2.6-5.6,4.1-8c0.9-1.5,2.2-2.9,3.5-3.9
				c2.1-1.6,4-1.1,5.6,1c1.2,1.5,2.6,2.9,4.2,4c1.7,1.2,4.3,0.5,6.4-1.5c1.3-1.2,2.6-2.4,4.1-3.9c1,4.4,1.9,8.3,2.8,12.3H120.3z
				 M425.1,504.9c-1.2,0.1-2.4,0.2-3.7,0.4c1.4-4,2.9-7.9,4.3-12.1C425.5,497.2,425.3,501,425.1,504.9 M426.9,441.6
				c0,0.7-0.3,1.4-0.3,2.1c0,2.8,0.1,5.6-0.1,8.4c-0.3,4.3-0.9,8.6-1.3,12.9c-0.3,3.6-0.6,7.2-0.9,10.8c0,0.5,0.1,1.1-0.1,1.5
				c-1,2.6-2,5.2-3,7.8c-0.1,0.3-0.4,0.7-0.3,1c0.3,2.8-0.6,5.2-1.9,7.6c-1.8,3.2-3.1,6.7-5.1,9.7c-3.9,6.2-8.2,12.2-12.2,18.3
				c-1.9,3-3.9,6-5.1,9.3c-0.7,1.8-0.1,4.4,0.6,6.3c1.2,3.5,1.6,7.1,0.7,10.4c-1.4,5.6-0.7,11-0.2,16.6c0.5,5.4-3.2,9.7-8.6,10.2
				c-3,0.3-6.1,0.4-9,0.9c-2.2,0.4-2.6-1.1-2.8-2.6c-0.4-2.2-0.9-4.4-0.8-6.5c0.2-3.7-0.7-7.6,1.3-11.2c0.8-1.3-1.4-5.6-3-6.3
				c-2.9-1.3-5.5-0.9-8.7-0.1c-4.4,1.1-8,3.3-12.6,5.4c0,4.5,0,9.3,0,14.1c0,2,0.1,4-0.5,5.9c-0.3,1-1.8,2.2-2.9,2.3
				c-4,0.6-8.1,0.7-12.7,1.1c0.4-2.1,0.8-3.6,1-5.2c0.2-1.7,0.2-3.4,0.3-5.1c0-2.6,0-5.2,0-7.9c0-3-1.2-4.2-4.2-4.5
				c-1-0.1-2-0.7-3-0.9c-0.7-0.1-1.5-0.2-2.2,0c-2.4,0.8-4.6,1.2-7.3,1c-3.8-0.3-7.7,0.6-11.6,0.9c-1.4,0.1-2.7,0.3-4.1,0.2
				c-5.3-0.2-10.6-0.6-15.8-0.8c-1.1,0-2.3,0.3-3.4,0.4c-1.5,0.1-3.1,0-4.6,0c-2.8,0-5.5-0.1-8.3-0.1c-3-0.1-6,0-8.9-0.2
				c-3.1-0.2-6.1-0.3-8.8,1.3c-0.6,0.4-1.3,1.7-1.1,2.2c2.4,5.3,0.8,10.9,1.1,16.3c0.3,4.8-2.8,7.5-6.6,9.4c-2,1-4.4,1.1-6.7,0.3
				c-1.8-0.6-3.7-0.7-5.5-1.2c-0.5-0.2-1.4-1-1.3-1.4c1.3-5.7,1.9-11.5,1.7-17.4c0-1.4,0.5-2.9,0.1-4.2c-1.1-3.9-4.3-6.2-7.9-7
				c-5.5-1.1-11.1-1.5-16.7-1.8c-3.9-0.2-4.9,1.2-4.8,5c0.1,3.3-0.3,6.5,1.1,9.8c1.5,3.5-1.9,11.3-5.3,11.6c-0.6,0-1.2,0.3-1.7,0.1
				c-3.1-0.8-6.2-1.8-9-2.6c0-2.7-0.1-5.2,0-7.6c0.1-1.7,0.3-3.5,0.5-5.2c0.3-4,0.6-8,0.8-12c0-0.7-0.4-1.5-0.5-2.3
				c-0.1-0.7,0-1.4,0.2-2.1c0.3-0.9,0.8-1.7,1-2.6c0.3-1.5-0.2-2.4-1.9-2.4c-1.5,0-3.1-0.1-4.6,0c-3.4,0.3-6-1.1-8.4-3.3
				c-0.3-0.3-0.8-0.7-1.2-0.8c-4.6-1-6.9-4.7-9.3-8.1c-1.8-2.5-3.5-5.1-5-7.8c-1.3-2.3-2.1-4.8-3.2-7.2c-0.6-1.1-1.5-2-2.3-3
				c0.1-0.1,0.2-0.1,0.3-0.2c-0.3-1.3-0.5-2.7-0.8-4c-0.6-2.9-1.3-5.7-1.9-8.6c0-0.2,0.1-0.5-0.1-0.6c-2.3-3.5-0.5-7.4-0.7-11
				c-0.1-3-1.4-4.5-4.4-4.2c-0.9,0.1-1.9,0.2-2.8,0.2c-1.2,0-2.6-0.3-2.6,1.7c0,0.2-0.3,0.3-0.4,0.5c-2.5,1.7-5.1,3.5-7.8,5.4
				c0.8-2,1.5-3.7,2.2-5.5c0.6-1.7,1.4-3.5,1.7-5.3c0.2-1.5-0.4-3.2-0.2-4.8c0.4-3,1-5.9,1.7-8.8c0.3-1.3,1.5-2.4,2-3.7
				c0.4-0.9,0.3-2,0.4-3c-0.8,0-1.6-0.1-2.4,0c-5.8,1-11.4,0.2-17-1.1c-3.5-0.8-7-1.6-10.4-2.8c-2.3-0.8-4.6-1.9-6.4-3.5
				c-1-0.9-1.7-3.6-1.1-4.5c1.8-2.5,1.4-5.3,2.2-7.9c2-6.4,3.9-12.9,8.2-18.3c2.1-2.7,3.9-5.7,6-8.4c2.1-2.7,4.5-5.3,6.8-7.9
				c4.1-4.9,10.3-6.6,15.1-10.2c1-0.7,2.1-1.5,2.8-2.4c1.6-2.1,3.9-3.2,5.8-4.9c1.6-1.4,3-3,4.5-4.5c3-3.2,5.9-6.5,8.9-9.7
				c1.8-1.9,3.6-3.9,5.5-5.7c3.1-2.9,6.7-4.9,11-5.9c3.6-0.8,7-2.5,10.6-3.5c2.9-0.8,5.8-2.3,8.9-0.8c1.5,0.7,3,1.4,4.3,2
				c-2.5,3.2-5,6.3-7.4,9.5c-0.7,0.9-1.9,1.8-2.1,2.9c-0.2,1.2,0.1,2.8,0.7,3.9c0.9,1.4,2.3,2.6,3.6,3.8c1.1,1,2.1,0.6,2.8-0.7
				c1.5-2.5,3.1-5,4.5-7.6c1.3-2.3,2.6-4.6,3.8-7c2.2-4.4,6-7.5,9.7-10.4c3.4-2.7,7.7-4.2,11.5-6.3c1.5-0.8,3-1.8,4.6-2.3
				c1.2-0.4,2.7-0.2,4-0.1c2,0.1,4.1,0.7,6,0.4c8.5-1,18.4,3.4,21.6,12.3c1.9,5.1,2,10.6,3.9,15.6c1.8,4.9,1.7,9.9,1.7,14.9
				c0.1,5.8,0.3,11.7,0,17.5c-0.5,8.7-1.1,17.3-3.6,25.8c-2,6.9-4,13.6-7.9,19.7c-4.3,6.6-8.5,13.4-12.8,20
				c-1.5,2.3-3.4,4.2-6.1,5.4c-3,1.3-5.8,3.2-8.7,4.9c-1.6,0.9-3.2,1.8-5.2,0.6c-0.3-0.2-0.9,0.2-1.4,0.2c-1,0-2-0.1-3-0.2
				c-0.4-0.1-0.8-0.5-1.2-0.5c-4.5,1-6-2.6-8.1-5.2c-1.1-1.4-2-3.1-2.7-4.8c-1.4-3.5-4.1-4.5-7.6-4.5c-0.4,0-0.9,0-1.8,0
				c0.2,1.5,0.5,2.8,0.7,4.2c0.2,1,0.3,2,0.4,2.9c0,0.2,0.1,0.5,0.3,0.7c4.9,6.5,11.1,11.3,18.8,13.9c4.1,1.3,8.2,0.9,12.3-0.5
				c5.1-1.7,8.8-5.6,13.4-8c0.8-0.4,1.3-1.7,2-2.7c1.3,0.6,2.2,0.4,2.7-1.5c0.4-1.4,2-2.5,3-3.8c0.9-1.2,2-2.3,2.8-3.6
				c2.9-4.9,5.9-9.7,8.4-14.8c2.1-4.2,3.7-8.6,5.3-12.9c1.3-3.6,2.3-7.2,3.1-10.9c1.3-6.5,3.3-12.9,3.2-19.7
				c-0.1-3.7,0.7-7.4,0.7-11.1c0-3.8-0.4-7.5-0.7-11.3c-0.3-3.4-0.6-6.8-1-10.2c-0.2-1.9-0.5-3.9-1-5.7c-0.6-2.1-0.8-4.1-0.8-6.3
				c0-2.2-1.1-4.4-1.8-6.6c-1.1-3.4-2.6-6.7-5.3-9.2c-0.3-0.3-0.5-1.5-0.3-1.6c0.8-0.4,2.1-1.1,2.4-0.8c2.1,2,4.3,0.5,6.3,0.1
				c3.6-0.7,7.2-1.6,11-1.3c1.8,0.1,3.7-1.1,5.6-1.5c1.2-0.2,2.4,0,3.6,0.1c0.6,0,1.3,0.2,1.9,0.2c3.6,0.2,7.2,0.6,10.8,0.4
				c4.5-0.2,8.6,1.8,13,1.7c2,0,3.9-0.1,5.9-0.1c0.1,0,0.3-0.1,0.4-0.1c3.9,2,8.1,0.7,12.1,1.1c3.1,0.3,6.1,0.8,9.1,1.3
				c0.3,0,0.6,0.1,0.8,0.2c5,1.9,10.1,3.7,15.1,5.6c4.8,1.9,9.6,3.7,14.3,5.9c1.8,0.9,4.3,1.6,4.4,4.5c0,0.3,0.8,0.7,1.3,1
				c1.8,1.1,3.6,2.1,5.4,3.3c0.6,0.4,1.1,1.1,1.6,1.7c0.4,0.4,0.6,1.2,1,1.3c2.5,0.4,3.5,2.5,4.6,4.3c3.5,5.4,7.3,10.8,10.6,16.4
				c2.5,4.3,4.6,8.8,6.3,13.4c1.2,3.3,1.3,7,2.1,10.5c0.5,2.3,1,4.7,2,6.8c1.1,2.4,1.3,4.6,0.5,7c-0.1,0.3-0.3,0.7-0.3,1
				C426.4,435.4,426.7,438.5,426.9,441.6 M433,498.5c-0.7-2.7-1.4-4.8-1.7-7c-0.7-4.1-1.6-8.2-1.8-12.4c-0.1-3.2,0.4-6.4,1.1-9.5
				c0.6-2.6,1.5-4.9,1.1-7.7c-0.5-3.2,0.1-6.6,0.3-10c0.3,0,0.7,0,1,0V498.5z"/>
			<path style="clip-path:url(#SVGID_00000091737177431486434230000009277975822486443152_);" d="M213.9,590.3
				c-0.8-2.2-2.6-1.6-4.2-1.3c-2.5,0.5-4.9,1.3-7.3,1.5c-2.3,0.2-4.7-0.5-7-0.3c-6.5,0.5-12.4-2.2-18.7-3.2c-2.8-0.5-5.5-2-8.9-3.2
				c1.1-2.1,1.6-4.4,3-5.4c2.5-1.7,5.5-2.6,8.3-4c0.9-0.4,2.2-1,2.3-1.7c0.2-1.3-0.2-2.8-0.7-4.1c-0.1-0.4-1.2-0.8-1.6-0.6
				c-3.3,1.2-6.7,2.3-9.8,3.8c-1.3,0.6-2.1,2.3-2.9,3.6c-0.5,0.8-0.6,1.9-1,2.8c-1.3,3.2,0.1,8.2,2.7,9.9c5.5,3.5,11.8,5.1,18.1,5.9
				c4.9,0.7,9.9,0.4,14.8,0.5c2.2,0.1,4.4,0.3,6.5,0c2.1-0.3,4.1-1.2,6.1-2.1C214.1,592.3,214.1,591,213.9,590.3"/>
			<path style="clip-path:url(#SVGID_00000091737177431486434230000009277975822486443152_);" d="M399.1,596.9
				c-0.6-0.2-1.2-0.4-1.7-0.7C397.9,596.5,398.5,596.7,399.1,596.9"/>
			<path style="clip-path:url(#SVGID_00000091737177431486434230000009277975822486443152_);" d="M416.5,568.5
				c-3.4-1.3-7.3-1.4-11-1.9c-0.5-0.1-1.1,0.4-1.6,0.6c1.2,3.1,3.6,4.5,6.3,5.3c2,0.6,4,1,6.1,1.4c1.9,0.4,2.8,1.3,2.9,3.4
				c0.1,3.2-1.7,5.4-4.1,6.8c-3.4,2-7.1,3.4-10.8,4.7c-2.6,0.9-5.5,1.1-8.2,1.8c-2.3,0.6-2.6,1.9-1,3.8c0.6,0.7,1.3,1.3,2.2,1.7
				c0.5,0.3,1.1,0.5,1.7,0.7c2.4,0.7,5.1,0.8,7.3-0.1c-0.2-0.4-0.3-0.8-0.6-1.5c1.2,0.4,2.2,1.2,2.9,1c2.4-0.9,5.1-1.8,6.9-3.5
				c3.1-2.8,5.8-6,6.9-10.6C423.7,576.2,422.1,570.7,416.5,568.5"/>
			<path style="clip-path:url(#SVGID_00000091737177431486434230000009277975822486443152_);" d="M270.7,574.4
				c-0.7-0.1-1.4,0.1-2.1,0.2c0.4,0.8,0.5,1.9,1.1,2.4c1.2,1,2.7,1.6,3.9,2.6c0.9,0.7,2.9,0.7,1.9,2.9c-0.5,1.2-0.2,3-0.9,3.9
				c-1.1,1.5-2.7,2.8-4.4,3.7c-4.3,2.1-8.4,4.7-13.2,5.6c-1.2,0.2-1.5,0.9-0.9,2.2c1.3,2.7,5.4,4.1,8.3,2.8c1.9-0.9,3.9-1.8,5.9-2.5
				c7-2.7,9.7-7.7,10-14.6c-0.1-0.3-0.1-0.6-0.2-1C278.9,577.6,275.7,574.9,270.7,574.4"/>
			<path style="clip-path:url(#SVGID_00000091737177431486434230000009277975822486443152_);" d="M338.2,593.8
				c-2.1-0.2-4.3-0.1-6.3-0.5c-3.7-0.7-7.5-1.3-11-2.6c-3.9-1.5-4.7-4.9-1.9-8.1c1.8-2.1,4.3-3.7,6.3-5.6c0.5-0.4,0.8-1.9,0.7-2
				c-1.4-0.7-2.9-1.5-4.4-1.9c-2-0.5-3.2,0.9-4.4,2.3c-5.1,6.1-4.6,14.3,2.2,19c4.7,3.4,10.2,4.6,16,4.5c1.3,0,2.6,0,3.9,0
				c0.4,0,1.1-0.2,1.2-0.6C341.7,596.4,340.5,594,338.2,593.8"/>
			<path style="clip-path:url(#SVGID_00000091737177431486434230000009277975822486443152_);" d="M161.1,591.1
				c-0.1,0.2-0.2,0.3-0.3,0.5C161,591.5,161,591.3,161.1,591.1c-0.4-0.2-0.8-0.5-1.1-0.7C160.4,590.7,160.8,590.9,161.1,591.1"/>
			<path style="clip-path:url(#SVGID_00000091737177431486434230000009277975822486443152_);" d="M160,590.5
				c-0.4-0.2-0.8-0.4-1.2-0.6c-0.2-0.1-0.7,0.2-1,0.3c-0.1,0.1-0.2,0.3-0.3,0.4c-1.7-1.2-3.5-2.3-5.2-3.5c-0.6-0.4-1-1.1-1.5-1.5
				c-2.2-1.4-2.5-2.1-1-4.1c1-1.3,2.4-2.5,3.9-3.3c1.4-0.8,3-1,2.7-3.2c0-0.3,0.4-0.6,0.7-0.9c0.3-0.4,0.6-0.9,1-1.3
				c-0.6-0.3-1.2-0.7-1.8-1c-0.4-0.1-1,0.2-1.3,0c-1.6-1.6-2.9-0.2-4.3,0.3c-2.7,1.1-3.7,3.7-5.1,5.9c-3.2,4.9-2.4,9.5,2.6,12.8
				c0.6,0.4,1.2,0.8,1.6,1.4c2,2.8,8.1,2.7,10.2,0.8c0.4-0.4,0.6-0.9,0.9-1.4c0.1-0.2,0.2-0.3,0.3-0.5
				C160.8,590.9,160.4,590.7,160,590.5"/>
			<path style="clip-path:url(#SVGID_00000091737177431486434230000009277975822486443152_);" d="M370.1,605.1
				c-5.7,0.4-11.5,0.8-17.1,1.2c0.5,3.8,2.2,6.8,6.9,7c4.1,0.2,8.2,0.4,12.2-1c1.7-0.6,2.9-1.5,2.4-3.6
				C374,606.8,371.8,605,370.1,605.1"/>
			<path style="clip-path:url(#SVGID_00000091737177431486434230000009277975822486443152_);" d="M226.8,604.7
				c-3.5,0.1-7-0.1-10.5-0.4c-2.7-0.2-5.4-0.8-8.3-1.3c0.2,1,0.5,1.7,0.5,2.4c0.1,2.7,1.5,4,4.1,4.2c1.7,0.1,3.4,0.4,5.2,0.7
				c4.1,0.7,8.2,1.2,12.2-0.3c1.1-0.4,1.6-0.9,1.3-2.2C230.9,605.4,229.6,604.6,226.8,604.7"/>
			<path style="clip-path:url(#SVGID_00000091737177431486434230000009277975822486443152_);" d="M430.9,570.3
				c-1.5-0.6-2.7,0.2-2.2,1.7c0.6,1.7,1.4,3.4,2.6,4.6c1.7,1.8,1.8,6-0.1,7.6c-1.4,1.3-2.7,2.8-4,4.2c-0.3,0.3-0.4,1.1-0.2,1.5
				c1.2,1.9,4.5,2.2,6,0.5c1.2-1.4,2.4-2.9,3.4-4.4c0.9-1.5,1.5-3.2,2.3-4.7C438.9,577.8,434.6,572,430.9,570.3"/>
			<path style="clip-path:url(#SVGID_00000091737177431486434230000009277975822486443152_);" d="M376.6,593.9
				c0.1,0.4,0.3,0.7,0.5,1C376.9,594.6,376.7,594.2,376.6,593.9"/>
			<path style="clip-path:url(#SVGID_00000091737177431486434230000009277975822486443152_);" d="M375.1,590.8
				c-0.3-0.4-1.3-0.5-2-0.6c-1.2,0-2.5,0.2-3.7,0.2c-4.5,0-9,0-13.6,0c0.5,3.7,0.6,3.9,3,4c-1.1,1.4-0.3,1.8,0.9,1.9
				c2.2,0.2,4.3,0.4,6.5,0.4c2.5,0,4.9-0.1,7.4-0.5c0.6-0.1,1.1-0.3,1.7-0.6c0.6-0.3,1.1-0.6,1.7-0.8c-0.2-0.3-0.3-0.7-0.5-1.1
				C376.1,592.8,375.7,591.8,375.1,590.8"/>
			<path style="clip-path:url(#SVGID_00000091737177431486434230000009277975822486443152_);" d="M304.2,24.6
				c-2,0.9-2.3,2.4-1.9,4.2c2.2,0.6,3.5-0.1,4.6-1.9c2-3.3-0.1-5.6-1.7-8.2c2.4-1.3,4.9-2.7,7.5-4.1c0.8,2,1.5,3.9,2.1,5.5
				c-1.3,1.4-2.5,2.5-3.4,3.7c-0.3,0.5-0.2,1.5,0.1,2.1c0.2,0.3,1.3,0.4,1.8,0.2c1.6-0.8,3.1-1.7,4.7-2.7c-0.3-1.1-0.5-2-0.9-2.9
				c-1.5-3.4-3.1-6.7-4.7-10c-0.2-0.5-0.5-1-0.8-1.5c-0.6,0.4-1.3,0.9-1.9,1.3c0,0,0-0.1,0-0.1c-2.5,1.4-5,2.7-7.9,4.3
				c1,1.9,2,4.3,3.3,6.5C306.1,22.8,306.1,23.7,304.2,24.6 M307.3,13.2c1.2-0.4,2.4-0.8,3.7-1.2c0.7,0.8,0.6,1.5-0.8,2.2
				c-1.8,0.9-3.5,1.9-5.3,3C304.2,15,304.8,14.1,307.3,13.2"/>
			<path style="clip-path:url(#SVGID_00000091737177431486434230000009277975822486443152_);" d="M291,579.6c-2.1-0.5-4.1-1-6.2-1.5
				c-0.3,0.7-0.4,1.3-0.4,1.8c0-0.5,0.1-1.1,0.3-1.8C286.9,578.6,289,579.1,291,579.6"/>
			<path style="clip-path:url(#SVGID_00000091737177431486434230000009277975822486443152_);" d="M291,579.6c-2.1-0.5-4.1-1-6.2-1.5
				c-0.3,0.7-0.4,1.3-0.3,1.8c0,0.3,0.1,0.6,0.3,0.9c0.3,0.4,0.8,0.8,1.7,1c1.5,0.5,3.1,1.3,3.1,3.7c-0.1,2.5-1.4,4.1-3.3,5.6
				c3.9,3.1,6.5,3,8.1-1.4c0.2-0.5,0.5-0.9,0.6-1.4C295.7,584.8,295.4,580.7,291,579.6"/>
			<path style="clip-path:url(#SVGID_00000091737177431486434230000009277975822486443152_);" d="M56.2,408.4
				c0.9-1.5,1.8-2.9,2.5-4.3c0.8-1.6,1.6-1.4,2.8-0.6c1.8,1.2,3.7,2.4,5.6,3.4c0.5,0.3,1.4-0.1,2.1-0.1c-0.2-0.8-0.2-2-0.7-2.3
				c-2.4-1.7-5-3.1-7.5-4.6c0.2-0.4,0.2-0.7,0.4-1c0.8-1,1.3-2.3-0.1-2.9c-1.3-0.7-2,0.7-2.5,1.7c-1.2,2.3-2.2,4.7-3.6,6.8
				C54,406.3,54.5,407.3,56.2,408.4"/>
			<path style="clip-path:url(#SVGID_00000091737177431486434230000009277975822486443152_);" d="M68.9,385.7c0,0.4,0,0.8,0,1.2
				C68.9,386.5,68.9,386.1,68.9,385.7"/>
			<path style="clip-path:url(#SVGID_00000091737177431486434230000009277975822486443152_);" d="M73,397.7c0.8-0.7,2.5-1.5,3.4-2.9
				c0.5-0.8,0-2.7-0.7-3.7c-1.3-2-3-3.7-4.8-5.3c-0.3-0.3-0.9-0.2-1.5-0.1c-0.2,0-0.4,0-0.6,0c0,0.4,0,0.8,0,1.2
				c0,0.4,0.1,0.8,0.3,1c1.3,1.5,2.8,2.9,4.2,4.3c0.4,0.4,0.8,1.5,0.6,1.6c-0.6,0.5-1.4,1-2.1,1.1c-0.7,0-1.5-0.4-2.2-0.8
				c-1.1-0.7-1.9-1.8-3-2.4c-0.5-0.3-1.4-0.1-2.1,0.1c-0.2,0.1-0.4,1.1-0.3,1.3C66.3,395.5,68.8,397.4,73,397.7"/>
			<path style="clip-path:url(#SVGID_00000091737177431486434230000009277975822486443152_);" d="M71.2,384.2c1.7,1.3,2.3-0.9,3.4-2
				c1.9,1.6,3.7,3.2,5.6,4.7c0.6,0.4,1.6,0.5,2.3,0.4c0.4-0.1,1-1.1,0.9-1.4c-0.3-0.8-0.9-1.4-1.5-2.1c-0.2-0.2-0.7-0.1-1-0.3
				c-1.4-1-2.8-2-3.9-3.3c-0.3-0.4,1.1-1.8,1.4-2.9c0.2-0.7-0.4-1.5-0.7-2.2c-0.8,0.3-1.9,0.3-2.4,0.9c-1.2,1.5-2.2,3.1-3.1,4.8
				C71.5,381.8,69.5,382.9,71.2,384.2"/>
			<path style="clip-path:url(#SVGID_00000091737177431486434230000009277975822486443152_);" d="M59.8,420.5c1.7-1,3.1-7.7,1.8-9.1
				C60.4,414.4,59.4,417.2,59.8,420.5"/>
			<path style="clip-path:url(#SVGID_00000091737177431486434230000009277975822486443152_);" d="M295.1,29
				c-0.6-0.1-1.3-0.1-1.7,0.2c-1.6,1.5-3,3-4.7,4.7C289.9,34.7,293,32.5,295.1,29"/>
			<path style="clip-path:url(#SVGID_00000091737177431486434230000009277975822486443152_);fill:#FFFFFF;" d="M325.3,272.6
				c0.3,0.1,0.5,0.9,0.5,1.3c0.1,3.9,0.1,7.8,0.3,11.7c0,1.2,0.1,2.6,0.6,3.7c0.4,1,1.3,1.8,2,2.7c3.5-0.2,5.6-3,8-5.3
				c2.4-2.3,7.5-3,10-1c1,0.8,1.8,1.9,2.6,2.9c0.9,1.1,3.8,1.9,4.9,1c0.5-0.4,0.5-1.3,0.7-1.9c0.1-0.6-0.1-1.5,0.2-1.8
				c2.9-2.6,5.8-5,8.7-7.5c5.7-4.7,8-11.4,10.5-18c0.2-0.4-0.2-1.1-0.5-1.6c-1.9-3.3-4.3-6.4-5.8-10c-1.8-4.5-2.9-9.3-3.3-14.2
				c-0.1-1.5-1-2.9-1.5-4.3c-0.2,0-0.4,0.1-0.6,0.1c-1.5,6.8-3,13.5-4.5,20.3c-0.8,3.8-1.7,7.5-2.6,11.3c-0.7,2.7-1.7,5.3-2.1,8
				c-0.8,4.6-1.2,9.3-1.9,14c-0.1,0.5-0.9,1.4-1.3,1.3c-0.6-0.1-1.6-0.8-1.7-1.3c-0.3-3.2-0.6-6.5-0.4-9.8c0.2-3.9,0.8-7.8,1.2-11.6
				c0.6-5,1.3-10,2-15c0.6-4.5,1.3-9,1.9-13.5c0.7-5.5,1.5-10.9,2.2-16.4c-0.5-0.6-0.6-1.5-1-2.2c-0.2-0.4-0.7-1-1.1-1
				c-0.9,0-1.9,0.3-2.8,0.5c0.2,0.1,0.4,0.3,0.6,0.4c-0.6,3.4-0.9,6.8-1.8,10c-1.5,5.8-3.5,11.5-4.9,17.4
				c-2.1,8.9-3.9,17.8-5.7,26.7c-0.8,3.8-1.2,7.7-1.8,11.5c-0.2,1.2,0.5,3-1.2,3.3c-1.8,0.3-2.2-1.5-2.7-2.9
				c-0.2-0.5-0.4-1.1-0.3-1.7c0.2-4.2,0.3-8.4,0.8-12.6c0.6-6.2,1.2-12.4,2.3-18.4c1.2-6.7,3.1-13.2,4.5-19.8
				c0.9-4.2,1.6-8.5,2.3-12.7c0.2-1-0.2-2.1-1.8-1.4c-1,0.4-2.1,0.6-2.9,0.8c-1.3,3.6-2.6,7.3-3.9,10.9c-2.7,7.1-4.8,14.4-6.1,21.9
				c-1.2,6.8-2.7,13.6-3.9,20.5C323.9,270.3,323.5,271.8,325.3,272.6"/>
			<path style="clip-path:url(#SVGID_00000091737177431486434230000009277975822486443152_);fill:#FFFFFF;" d="M394,199.6
				c1.3,5.3,2.8,10.5,4.1,15.8c0.7,2.8,2.5,4.3,5.3,4.6c3.4-5,6.6-10,10-14.9c1.6-2.2,3.7-4,5.4-6c0.7-0.8,1.9-2,1.7-2.6
				c-0.4-1-0.7-3.1-2.9-2.2c-0.2,0.1-0.9-0.3-0.9-0.4c0.2-2.6-0.7-4.8-1.8-7c0,0,0.1-0.1,0.1-0.2c0.4-1.9,0.8-3.8,1.2-5.6
				c-0.2-0.2-0.4-0.3-0.7-0.5c-0.6,0.9-1.2,1.7-1.7,2.6c-0.5,0.9-0.9,2-1.2,3c-0.4,1.3-1.3,1.4-2.4,1c-2.8-1-5-2.6-5.1-5.9
				c-0.1-1.7,0-3.5,0.1-5.2c0-1.1,0.1-2.2,0.2-3.2c-0.2,0-0.5-0.1-0.7-0.1c-0.8,1.9-2.9,3-2.4,5.8c0.4,2-0.3,4.3-0.3,6.4
				c0,1.5-1.9,4.3-3.4,4.7c-2.1,0.5-4.2,1-6,1.4c0.2,1.2,0.5,2.2,0.6,3.3C393.5,196.1,393.6,197.9,394,199.6 M407.6,194.5
				c1.1,0,3,2.1,2.9,3.1c-0.1,1.5-2.8,3.9-4.4,3.9c-2,0-3.7-1.5-3.6-3.2C402.5,196.5,405.3,194.4,407.6,194.5"/>
			<path style="clip-path:url(#SVGID_00000091737177431486434230000009277975822486443152_);fill:#FFFFFF;" d="M269.3,292.3
				c0.8,0.9,1.5,1.9,1.8,3c0.4,2.2,1.3,2.9,4,3c2,0,2.5-1.3,2.6-2.8c0.2-2,1.3-3.2,3-4c0.3-2,0-3.5-2.6-3.3c-0.4,0-1-0.3-1.2-0.7
				c-0.7-1.4-1.4-2.9-1.7-4.4c-0.6-2.7-1-5.5-1.3-8.3c-0.2-2.5-0.2-5-0.1-7.5c0-1.9,0.4-3.7,0.4-5.6c0.1-4.6-0.5-9.3,0.3-13.8
				c0.8-5.3-1-10.2-1-15.3c0-3.7-1.6-7.4,0.3-11.1c0.6-1.2,1.1-2.4,1.8-3.9c-1.6,0.3-2.9,0.6-4.2,0.7c-1.5,0.2-1.9,0.8-1.6,2.3
				c0.2,1,0.1,2.2-0.1,3.2c-0.7,3.3-1.7,6.5-2.3,9.8c-0.5,2.2-0.9,4.4-0.9,6.6c0,4.8,0.2,9.6,0.4,14.4c0.1,1.8,0.3,3.5,0.4,5.3
				c0,0.8-0.1,1.6-0.4,2.3c-1.1,2.5-0.8,5-0.2,7.6c0.7,3.1,1.2,6.4,1,9.6c-0.2,3.3,0.1,6.4,1.4,9.4
				C269.3,289.9,269.2,291.1,269.3,292.3"/>
			<path style="clip-path:url(#SVGID_00000091737177431486434230000009277975822486443152_);fill:#FFFFFF;" d="M303.9,225.4
				c-0.5,5.6-2.1,11-1.7,16.7c0.3,4.1,0,8.2,0.1,12.2c0,1.9-0.1,4,1.5,5.6c0.3,0.2,0,1.1-0.1,1.6c-0.2,1.3-0.5,2.7-0.5,4
				c0,2.8,0.7,5.7,0.2,8.4c-0.8,4.8,0.7,9.2,1.4,14c1.5-0.2,2.7-0.5,3.9-0.6c3.3-0.2,3.6-0.7,3-4c-0.6-3.1-0.9-6.3-1.1-9.4
				c-0.2-3.1-0.2-6.2-0.3-9.2c-0.3-5.1-0.8-10.1-0.9-15.2c-0.1-4,0-7.9,0.4-11.9c0.3-3.6,0-7.2,1.1-10.8c1.2-3.9,1.5-8.2,2.1-12.4
				c-1.6,0.2-3.1,0.4-4.7,0.7c-0.4,0.1-1,0.5-1,0.9C306.9,219.4,304.2,221.9,303.9,225.4"/>
			<path style="clip-path:url(#SVGID_00000091737177431486434230000009277975822486443152_);fill:#FFFFFF;" d="M290.3,252.3
				c0.2,3.4,0.4,6.8,0.5,10.2c0,2-0.2,3.9-0.2,5.9c0,1.8,0,3.6,0,5.4c0,2.2-0.1,4.5,0.3,6.7c0.3,1.9,1.1,3.8,1.8,5.9
				c2.8-0.1,1.3,2.4,1.9,3.8c1.5-0.4,3.1-0.6,4.5-1.2c0.6-0.2,1.4-1.3,1.3-1.8c-0.3-2.6-1.1-5.2-1.4-7.9c-0.6-4.1-1.2-8.2-1.4-12.3
				c-0.3-5.9-0.3-11.9-0.5-17.9c-0.1-3.3-0.3-6.5-0.4-9.7c-0.1-3.8-0.4-7.7,0.1-11.4c0.5-4.1,1.8-8.1,2.8-12.4
				c-0.8,0.1-1.5,0.3-2.2,0.4c-2.5,0.2-4.5,1.5-5.1,3.8c-1.1,4.6-2.3,9.2-2.6,13.9c-0.4,5.8,0.2,11.6,0.3,17.4
				C290,251.4,290.2,251.9,290.3,252.3"/>
			<path style="clip-path:url(#SVGID_00000091737177431486434230000009277975822486443152_);fill:#FFFFFF;" d="M316.2,266.4
				c0,4.5-0.3,9-0.4,13.6c0,1.6,0.3,3.3,0.5,4.9c0.1,0.5,0.4,1.4,0.7,1.5c1.8,0.5,3.6,0.8,5.4,1.2c-1.3-12.6-2.6-24.7-1-36.9
				c1.5-12.1,1.7-24.4,6.4-36c-1.7-0.2-2.7-0.4-3.8-0.4c-0.8,0.1-2.2,0.3-2.4,0.8c-1.4,3.4-2.8,6.8-3.6,10.3
				c-0.9,4.3-1.3,8.7-1.8,13.1c-0.4,3.4-0.7,6.8-0.9,10.1c-0.1,3.7-0.1,7.3,0,11C315.5,261.8,316.2,264.1,316.2,266.4"/>
			<path style="clip-path:url(#SVGID_00000091737177431486434230000009277975822486443152_);fill:#FFFFFF;" d="M278.2,274.5
				c0.1,2.4,0.2,4.8,0.5,7.2c0,0.4,0.6,0.9,0.9,1.3c2,2.3,4.3,4.3,5,7.3h4.6c-0.7-2-1.3-3.8-2.1-5.5c-2.1-4.2-3.3-8.7-3.2-13.4
				c0-1.9,0.2-3.7,0.2-5.6c0-2.3-0.1-4.6-0.2-6.9c0-1.9,0.4-4-0.1-5.7c-0.7-2.6-0.9-5-0.3-7.6c0.2-0.9,0.4-1.8,0.4-2.8
				c0.2-4.4,0.3-8.7,0.5-13.1c0.2-4,0.6-8.1,0.7-12.1c0-0.6-0.7-1.2-1-1.9c-0.6,0.6-1.7,1-1.9,1.7c-1,3.6-2,7.2-2.6,10.8
				c-0.4,2.8-0.4,5.7,0,8.5c0.3,2.3,0.3,4.3-0.3,6.5c-0.9,3.4-1.7,7-1.8,10.5c-0.1,4.7,0.5,9.4,0.7,14.1
				C278.2,270,278.1,272.2,278.2,274.5"/>
			<path style="clip-path:url(#SVGID_00000091737177431486434230000009277975822486443152_);fill:#FFFFFF;" d="M95.4,451
				c7.1,6.9,14.7,13.1,23.3,18c1.3,0.7,2.7,2.1,4.5,0.2c2.3,3.7,5.9,4.9,9.8,5.6c3.6,0.7,7-2.1,6.7-5.7c0-0.5-0.2-1,0-1.4
				c0.5-1.3-0.1-1.7-1.3-1.7c-2.3,0-4.5,0-6.8-0.1c-3-0.2-5.8-0.6-8.1-2.9c-0.4-0.4-0.9-0.7-1.4-0.9c-3.4-1.4-6.9-2.7-10.3-4.2
				c-3.7-1.6-7.3-3.3-10.1-6.4c-1.3-1.4-2.5-2.9-4.1-3.8c-2.6-1.5-5-3-6.8-5.5c-1.6-2.2-3.4-4.2-5.2-6.2c-0.4,0.3-0.8,0.5-1.1,0.8
				c1.1,2,1.8,4.3,3.2,6.1C90,445.7,92.7,448.4,95.4,451"/>
			<path style="clip-path:url(#SVGID_00000091737177431486434230000009277975822486443152_);fill:#FFFFFF;" d="M259.4,264
				c-1.7-7.2-1.8-14.4-0.2-21.6c0.8-3.5,1.3-7.1,2.9-10.5c1.1-2.5,0.8-5.7,1.1-9.2c-1.2,2.2-2.4,3.9-3,5.7
				c-1.2,3.8-2.2,7.7-3.2,11.5c-0.4,1.6-0.2,3.4-0.9,4.8c-1.2,2.4-2.1,4.7-1.7,7.4c0.1,0.9-0.6,2.2-0.2,2.6c2.5,2.7,1.1,6.2,1.9,9.2
				c0.8,3.3,0.4,6.9,0.6,10.4c0,0.5,0.2,1,0.4,1.4c1.4,3,3.1,6,4.2,9.1c0.9,2.4,2.8,3.3,4.9,4.8c-1.8-6.2-3.6-12-5.2-17.8
				C260.4,269.3,260.1,266.6,259.4,264"/>
			<path style="clip-path:url(#SVGID_00000091737177431486434230000009277975822486443152_);fill:#FFFFFF;" d="M417.7,229.5
				c0.9,0.3,1.8,0.5,2.6,0.9c1,0.5,2.1,0.9,2.8,1.7c2,1.9,3.7,4.2,5.9,5.8c3.2,2.2,7.1,0.4,7.4-3.4c0.5-5.6-1-10.9-3.1-16.1
				c-0.1-0.3-1.4-0.5-1.9-0.2c-2.9,1.5-5.9,2.9-8.5,4.8C420.9,224.5,418.6,226.3,417.7,229.5 M429,220.8c0.7,0.5,1.4,1,2.2,1.6
				c-0.7,0.5-1.4,0.9-2,1.5c-0.7,0.6-1.6,1.1-1.9,1.8c-0.2,0.5,0.4,1.4,0.8,2c0.2,0.3,0.7,0.4,0.8,0.7c0.2,0.6,0.6,1.4,0.3,1.8
				c-0.2,0.4-1.2,0.7-1.7,0.6c-1.4-0.2-3.4-3.3-3.3-4.9C424.1,223.7,426.6,221.2,429,220.8"/>
			<path style="clip-path:url(#SVGID_00000091737177431486434230000009277975822486443152_);fill:#FFFFFF;" d="M365.3,225.5
				c1.1,3.1,2.2,6.2,3.9,9c2.2,3.5,5,6.6,7.7,10.1c1.1-1.7,2.2-3.4,2.8-4.4c-3.8-10.2-12.1-17.5-14.6-28c-1.8,0.8-2.9,1.4-2.7,4
				C362.6,219.5,364.2,222.4,365.3,225.5"/>
			<path style="clip-path:url(#SVGID_00000091737177431486434230000009277975822486443152_);fill:#FFFFFF;" d="M393.9,217.4
				c-2-3.9-4-7.8-5.4-11.9c-1.2-3.3-1.7-6.9-2.5-10.3c-4.1,0-5,4.6-8.8,5.4c5.4,7.9,10.5,15.3,15.7,22.8
				C395.8,220.8,395.7,220.9,393.9,217.4"/>
			<path style="clip-path:url(#SVGID_00000091737177431486434230000009277975822486443152_);fill:#FFFFFF;" d="M389.6,227.1
				c-8.6-5.2-13.7-13.2-18.1-21.9c-1.4,1.2-2.5,2.3-3.7,3.3c5.9,8.1,11.6,15.8,17.4,23.6C386.6,230.5,388.1,228.9,389.6,227.1"/>
			<path style="clip-path:url(#SVGID_00000091737177431486434230000009277975822486443152_);fill:#FFFFFF;" d="M405,221.2
				c2.1,1.7,3.2,2.7,4.1,3.4c2.1-3,3.7-5.9,6-8.3c2.9-3.1,6.3-5.7,9.4-8.4c0.4-0.3,0.9-0.6,1.3-0.7c1.9-0.3,1.9-1.2,1-2.5
				c-0.5-0.7-1-1.3-1.3-1.7c-1.3,1.4-2.4,2.6-3.6,3.7c-2.2,1.9-4.6,3.7-6.8,5.6C411.8,215.2,408.6,218.1,405,221.2"/>
			<path style="clip-path:url(#SVGID_00000091737177431486434230000009277975822486443152_);fill:#FFFFFF;" d="M412.3,226.5
				c1,0.5,1.7,0.9,2.6,1.4c1.7-3.9,4.9-6,7.9-8.4c2.8-2.3,5.4-4.8,8-7.1C423,214.9,416.6,219.3,412.3,226.5"/>
			<path style="clip-path:url(#SVGID_00000091737177431486434230000009277975822486443152_);fill:#FFFFFF;" d="M348.9,340.3
				c-0.6,1.4-0.3,2,1.3,2.2c1.9,0.1,3.8,0.3,5.8,0.5c-0.3-2.8-0.6-5.1-0.8-7.5c-2,0.5-3.7,1-5.5,1.5
				C349.4,338.1,349.4,339.3,348.9,340.3"/>
			<path style="clip-path:url(#SVGID_00000091737177431486434230000009277975822486443152_);fill:#FFFFFF;" d="M97.7,466.3
				c0.2-0.1,0.5-0.2,0.7-0.4l-9.4-6.3c-0.2,0.2-0.3,0.3-0.5,0.5c2.4,3.7,4,7.9,8.3,10C97.2,468.8,97.5,467.6,97.7,466.3"/>
			<path style="clip-path:url(#SVGID_00000091737177431486434230000009277975822486443152_);fill:#FFFFFF;" d="M332.6,304.7h-5.9
				v4.4C330.7,309.5,333.9,307.5,332.6,304.7"/>
			<path style="clip-path:url(#SVGID_00000091737177431486434230000009277975822486443152_);fill:#FFFFFF;" d="M297,300.8v3.4
				c5,0.2,5.8,0.8,5.9-3.9C301,300.5,299,300.7,297,300.8"/>
			<path style="clip-path:url(#SVGID_00000091737177431486434230000009277975822486443152_);fill:#FFFFFF;" d="M329.2,339.2h2.9
				c-0.3-2.3-0.5-4.5-0.7-6.6c-1.3,0.4-2.5,0.7-3.6,1C328.2,335.5,328.7,337.2,329.2,339.2"/>
			<path style="clip-path:url(#SVGID_00000091737177431486434230000009277975822486443152_);fill:#FFFFFF;" d="M272.1,321.7
				c-0.2,4.9,0,5.3,3.7,6.6C276.3,323.1,276.1,322.8,272.1,321.7"/>
			<path style="clip-path:url(#SVGID_00000091737177431486434230000009277975822486443152_);fill:#FFFFFF;" d="M333.5,295.7
				c-1,0.3-2,0.6-3,0.8c-3,0.6-3,0.6-2.7,3.8C332.9,299.4,334.1,299.3,333.5,295.7"/>
			<path style="clip-path:url(#SVGID_00000091737177431486434230000009277975822486443152_);fill:#FFFFFF;" d="M350.2,320.6v5.5
				c3.9-1.4,3.9-1.4,3-6.1C352.1,320.2,351,320.4,350.2,320.6"/>
			<path style="clip-path:url(#SVGID_00000091737177431486434230000009277975822486443152_);fill:#FFFFFF;" d="M276.7,304.4
				c-1.3-0.3-2.7-0.7-4.2-1.1c0.1,1.4,0.5,2.4,0.2,3.2c-0.7,1.8,0.6,2,1.7,2.2c1.4,0.3,2-0.3,2-1.8
				C276.3,306.2,276.5,305.4,276.7,304.4"/>
			<path style="clip-path:url(#SVGID_00000091737177431486434230000009277975822486443152_);fill:#FFFFFF;" d="M297.3,317.2
				c-0.1,0.5,0.6,1.7,1.2,1.9c1.6,0.6,3.2-0.8,3.2-2.6c0-0.6,0-1.3,0-2c-1,0.2-1.9,0.8-2.5,0.6C296.7,314.2,297.4,316.4,297.3,317.2
				"/>
			<path style="clip-path:url(#SVGID_00000091737177431486434230000009277975822486443152_);fill:#FFFFFF;" d="M303.8,293.5
				c-2,0.3-3.7,0.7-5.5,0.8c-1.9,0.1-1.8,0.9-1.2,2.1C302.6,296.7,303.4,296.4,303.8,293.5"/>
			<path style="clip-path:url(#SVGID_00000091737177431486434230000009277975822486443152_);fill:#FFFFFF;" d="M275.5,317.3v-3.5
				c-1.5-0.4-2.8-0.8-4.3-1.2C272,316.8,272.8,317.6,275.5,317.3"/>
			<path style="clip-path:url(#SVGID_00000091737177431486434230000009277975822486443152_);fill:#FFFFFF;" d="M354,294.7
				c-1,0.2-1.9,0.4-3.1,0.6c-0.2,1.3-0.3,2.4-0.5,3.7C354.3,298.9,354.9,298.1,354,294.7"/>
			<path style="clip-path:url(#SVGID_00000091737177431486434230000009277975822486443152_);fill:#FFFFFF;" d="M297.1,309.1
				c0.3,0.9,0.6,2.5,0.8,2.5c1.2,0,2.6-0.3,3.6-1c0.6-0.4,0.6-1.7,0.9-2.8C300.5,308.3,299,308.6,297.1,309.1"/>
			<path style="clip-path:url(#SVGID_00000091737177431486434230000009277975822486443152_);fill:#FFFFFF;" d="M275.9,336.7v-3.6
				c-1.1-0.5-2.2-0.9-3.3-1.4C272.6,335.8,272.8,336.1,275.9,336.7"/>
			<path style="clip-path:url(#SVGID_00000091737177431486434230000009277975822486443152_);fill:#FFFFFF;" d="M350.3,333.1
				c1.4-0.6,2.9-1.1,4.3-1.7c-0.4-1.1-0.6-1.9-0.9-2.6C352.1,329.7,349.3,329.5,350.3,333.1"/>
			<path style="clip-path:url(#SVGID_00000091737177431486434230000009277975822486443152_);fill:#FFFFFF;" d="M328.2,313.4
				c-0.4,0.1-0.9,1-0.9,1.5c-0.1,0.4,0.5,1.1,0.8,1.2c2.2,0.3,3.6-0.8,4-3.3C330.7,313,329.4,313,328.2,313.4"/>
			<path style="clip-path:url(#SVGID_00000091737177431486434230000009277975822486443152_);fill:#FFFFFF;" d="M329.4,320.6
				c-0.5,0.3-1.2,0.4-1.7,0.6v2.8c3.7-1.1,4-1.5,3.2-4.5C330.3,320,329.9,320.4,329.4,320.6"/>
			<path style="clip-path:url(#SVGID_00000091737177431486434230000009277975822486443152_);fill:#FFFFFF;" d="M350.6,316.1
				c2.7-0.7,2.7-0.7,2.3-4.7C350.2,312.5,349.6,313.7,350.6,316.1"/>
			<path style="clip-path:url(#SVGID_00000091737177431486434230000009277975822486443152_);fill:#FFFFFF;" d="M327.9,329.9
				c1.3-0.3,2.5-0.5,3.8-0.8c-0.1-1.3-0.2-2.3-0.3-3.3C328,327.5,328,327.5,327.9,329.9"/>
			<path style="clip-path:url(#SVGID_00000091737177431486434230000009277975822486443152_);fill:#FFFFFF;" d="M301.6,322h-4.2
				c0.4,1,0.7,1.9,1,2.7C300.8,325.1,301.6,324.5,301.6,322"/>
			<path style="clip-path:url(#SVGID_00000091737177431486434230000009277975822486443152_);fill:#FFFFFF;" d="M301.9,336.3
				c-0.3-1.6-0.5-2.5-0.8-3.7c-1.1,0.3-2.1,0.4-3,0.9c-0.2,0.1-0.1,1.5,0.2,1.7C299.3,335.6,300.4,335.8,301.9,336.3"/>
			<path style="clip-path:url(#SVGID_00000091737177431486434230000009277975822486443152_);fill:#FFFFFF;" d="M351,304.5
				c-0.2,1.1-0.4,2-0.7,3c1.1-0.1,2-0.2,3.1-0.4c0.2-0.7,0.3-1.6,0.6-2.6H351z"/>
			<path style="clip-path:url(#SVGID_00000091737177431486434230000009277975822486443152_);fill:#FFFFFF;" d="M301,327.7
				c-1,0.1-1.9,0.1-2.7,0.4c-0.4,0.1-0.6,0.8-0.8,1.2c0.7,0.3,1.5,0.9,2.2,0.8C300.7,329.9,302,329.4,301,327.7"/>
			<path style="clip-path:url(#SVGID_00000091737177431486434230000009277975822486443152_);" d="M171.1,408.7
				c-1.4-3.9-3.9-4.6-7.6-2.3c-1.1,0.7-2.7,1.2-2.2,3c0.5,2,0.9,4.2,3.4,4.7c0.2,0,0.5,0.1,0.7,0.1c0.7,0,1.5-0.2,2.2-0.3
				c1.7,0,3.3-1.6,3.6-3.4c0-0.1,0-0.3,0.1-0.4c0-0.1,0-0.3,0-0.4C171.3,409.3,171.2,409,171.1,408.7"/>
			<path style="clip-path:url(#SVGID_00000091737177431486434230000009277975822486443152_);" d="M167.7,413.9
				c-0.7,0.1-1.5,0.3-2.2,0.3C166.2,414.2,166.9,414,167.7,413.9c1.7,0,3.3-1.6,3.6-3.4C170.9,412.3,169.4,414,167.7,413.9"/>
			<path style="clip-path:url(#SVGID_00000091737177431486434230000009277975822486443152_);" d="M171.3,410.1c0,0.1,0,0.3-0.1,0.4
				C171.3,410.4,171.3,410.2,171.3,410.1"/>
			<path style="clip-path:url(#SVGID_00000091737177431486434230000009277975822486443152_);" d="M183.1,405.1c-1.9,0-4,1.9-4.3,3.9
				c-0.3,1.7,0.9,3,3,3.6c0.4,0.1,0.8,0.3,1.2,0.6c1.9,1.1,4.7,0,5.4-2C189.3,408.5,186.3,405.1,183.1,405.1"/>
			<path style="clip-path:url(#SVGID_00000091737177431486434230000009277975822486443152_);" d="M312.2,144.4
				c2.2,0.7,4.6,1,6.9,1.5c1.9,0.4,3.8,1.4,5.6,1.2c4.8-0.4,9.5,1.1,14.3,0c1.1-0.3,2.1-0.2,2.1-1.4c0-1.4-1.2-1.5-2.4-1.6
				c-4-0.1-8,0.6-11.7-1.7c-0.2-0.1-0.6,0-0.9,0c-2.9,0-5.7,0-8.6-0.1c-0.6,0-1.2-0.4-1.7-0.8c-2.6-2.1-5.2-4.2-7.9-6.3
				c-1.2-0.9-2.3-1.9-3.5-2.8c-2-1.5-4.4-2.6-5.8-4.5c-1.7-2.3-2.9-5.2-3.8-8c-1.3-3.7,0.4-7.2,1.8-10.5c0.1-0.3,0.6-0.7,1-0.7
				c1.5-0.1,3.1-1.2,4.5,0.2c0.2,0.2,0.7,0.3,1,0.2c2.3-0.8-0.2-3.5,1.7-4.5c-0.5-0.5-0.9-1.3-1.6-1.5c-0.8-0.3-1.8-0.3-2.7-0.4
				c-0.1-0.1-0.1-0.2-0.2-0.4c-2.3,0.8-5,1.2-6.7,2.7c-2.4,2-4,4.9-5.8,7.5c-0.5,0.7-0.7,1.9-0.4,2.6c1,2.6,2.2,5.1,3.4,7.6
				c1,1.9,2,3.8,3.3,5.6c1.5,2.1,3.1,4.2,5.1,5.9c3.2,2.8,6.6,5.2,9.9,7.8C310.2,142.8,311,144,312.2,144.4"/>
			<path style="clip-path:url(#SVGID_00000091737177431486434230000009277975822486443152_);" d="M272.3,81.1
				c-1.2,0-2.9,1.7-2.9,2.7c0,1.3,2.1,3.5,3.2,3.4c1.6-0.1,3.8-2,3.7-3.2C276.2,82.3,274.6,81.1,272.3,81.1"/>
			<path style="clip-path:url(#SVGID_00000091737177431486434230000009277975822486443152_);" d="M406.1,201.5
				c1.6,0,4.3-2.3,4.4-3.9c0.1-1.1-1.8-3.1-2.9-3.1c-2.3-0.1-5.1,2-5.1,3.8C402.5,200,404.1,201.4,406.1,201.5"/>
			<path style="clip-path:url(#SVGID_00000091737177431486434230000009277975822486443152_);" d="M276.7,49.6
				c-0.1-0.4-0.9-0.8-1.3-0.8c-0.4,0-1.1,0.5-1.2,1c-1,3-3.2,3.5-5.9,3.3c-1.3-0.1-3.3-0.6-3.4,1.5c0,0.7,2,1.4,3,2.1
				c0.1-0.2,0.2-0.4,0.3-0.6c3.7,0.9,5.8-2.1,8.3-3.8C276.9,51.9,276.8,50.5,276.7,49.6"/>
			<path style="clip-path:url(#SVGID_00000091737177431486434230000009277975822486443152_);" d="M283.9,41.3
				c-0.8-1.7-2-2.1-3.3-1.2c-0.5,0.3-0.6,2.1-0.3,2.4C281.8,43.8,282.9,42.6,283.9,41.3"/>
			<path style="clip-path:url(#SVGID_00000091737177431486434230000009277975822486443152_);" d="M232.3,85.5
				c2.5,0.3,4.8-0.4,6.4-2.3c0.9-1.1,1.1-2.6,0.3-4c-0.2-0.3-1.1-0.7-1.2-0.6c-0.8,0.8-1.5,1.8-2.2,2.7c0,0.1,0,0.1-0.1,0.2
				c-0.4,1.1-0.9,1.8-2.4,1.1c-1.6-0.7-3.5-1-5.3-1.4c0,0.4-0.1,0.6,0,0.8C228.6,84.1,230.1,85.2,232.3,85.5"/>
			<path style="clip-path:url(#SVGID_00000091737177431486434230000009277975822486443152_);" d="M233.7,76.2c-1-2.2-3-2.4-5.7-1.9
				v4.6c1.7-0.1,3.4-0.1,5.1-0.5C233.5,78.4,234,76.8,233.7,76.2"/>
			<path style="clip-path:url(#SVGID_00000091737177431486434230000009277975822486443152_);" d="M427.4,230.8
				c0.6,0.1,1.5-0.2,1.7-0.6c0.2-0.4-0.1-1.2-0.3-1.8c-0.1-0.3-0.7-0.4-0.8-0.7c-0.3-0.6-1-1.5-0.8-2c0.3-0.7,1.2-1.3,1.9-1.8
				c0.6-0.5,1.4-1,2-1.5c-0.7-0.5-1.4-1-2.2-1.6c-2.3,0.4-4.8,2.9-4.9,5.1C424,227.5,426,230.6,427.4,230.8"/>
		</g>
	</g>
</g>
</svg>
