<?xml version="1.0" encoding="utf-8"?>
<!-- Generator: Adobe Illustrator 26.3.1, SVG Export Plug-In . SVG Version: 6.00 Build 0)  -->
<svg version="1.1" id="Layer_2" xmlns="http://www.w3.org/2000/svg" xmlns:xlink="http://www.w3.org/1999/xlink" x="0px" y="0px"
	 viewBox="0 0 500 500" style="enable-background:new 0 0 500 500;" xml:space="preserve">
<style type="text/css">
	.st0{fill:#FFDF4F;}
	.st1{fill:#BFD730;}
	.st2{fill:#8C8F90;}
	.st3{fill:#CE8B4E;}
	.st4{fill:#B5D5E5;}
	.st5{fill:#F0CC9E;}
	.st6{clip-path:url(#SVGID_00000045591199739662396490000012282537506290452927_);}
	.st7{filter:url(#Adobe_OpacityMaskFilter);}
	.st8{clip-path:url(#SVGID_00000041274597765772125770000011456627545363963823_);}
	
		.st9{clip-path:url(#SVGID_00000040562267445924793200000010089527658156990136_);fill:url(#SVGID_00000124867074530618002700000017424430114388896919_);}
	
		.st10{clip-path:url(#SVGID_00000041274597765772125770000011456627545363963823_);mask:url(#SVGID_00000108297521916812367090000015291138511429971870_);fill:url(#SVGID_00000049911660798227677380000013392698202317531285_);}
	.st11{clip-path:url(#SVGID_00000127040993371060285180000008554182281049196424_);}
	.st12{filter:url(#Adobe_OpacityMaskFilter_00000011753987033456817210000008608653473554046132_);}
	.st13{clip-path:url(#SVGID_00000030451093728997668640000018049774200317638824_);}
	
		.st14{clip-path:url(#SVGID_00000132069135047058573340000010794557397639464346_);fill:url(#SVGID_00000111885752214126150070000004379800632409088694_);}
	
		.st15{clip-path:url(#SVGID_00000030451093728997668640000018049774200317638824_);mask:url(#SVGID_00000150782370975101825630000011847399381610692240_);fill:url(#SVGID_00000100341064687881187400000002854199019099087772_);}
	.st16{fill:#D3AC2E;}
	.st17{fill:#D1D3D4;}
	.st18{fill:#006DAD;}
	.st19{fill:#FFFFFF;}
</style>
<polygon class="st0" points="225,327.3 220.8,360.8 221.8,384.2 227.4,397.5 309.9,399.6 317.5,383 327.4,398.5 372.7,401.5 
	412.2,394.1 413.7,351.8 395.8,287.2 226.4,286.5 "/>
<g>
	<path class="st1" d="M282.6,288.9c2.6-0.3,36.5,2.1,36.5,2.1l-3,6.2l-8.4,2.4l-11.7,0.2l-9.4-2.4l-4-3L282.6,288.9z"/>
	<path class="st1" d="M326.4,291.9c1.5-0.3,21.9-0.7,21.9-0.7l5.8,3.8l6.2,3l2.1,3.7l-3,1.8l-9.2,2l-9.5-0.2l-8.4-2.3l-7.2-5.2
		L326.4,291.9z"/>
	<polygon class="st1" points="371.8,302.5 382.8,298.7 396.3,299.3 395.4,311.7 387,312.3 376.8,309.5 371,306.9 	"/>
	<path class="st1" d="M410.8,371.8c1.1-1.4-0.6-9.1-0.6-9.1l-8.1,2.8L410.8,371.8z"/>
	<polygon class="st1" points="388.5,394.8 381.2,391.7 373.6,388.3 369.6,388.6 369.4,380.6 375.2,382.2 390.2,379.1 400.7,384.1 
		407.2,386.7 409.7,393.3 399.4,396.1 	"/>
	<polygon class="st1" points="320.5,379.7 331.8,377 342.4,377.6 348.2,380.9 357.9,387.7 352,391.2 342.5,391.1 332.7,390.2 
		319.7,384.5 	"/>
	<path class="st1" d="M348.6,358.7c1.5-0.7,8-1,9.1-0.9c1.1,0,25.1,3,25.1,3l6.1,4.5l-0.8,4l-5.5,2.5l-11.3,0.9l-10.2-1.6l-8.3-4.2
		l-4.7-3.7L348.6,358.7z"/>
	<path class="st1" d="M318.7,334.4c1.1,0,15.7-2.3,15.7-2.3l10.6,2l-1,15.7l-9.8-1.6l-8.3-3.8l-7.6-6.3L318.7,334.4z"/>
	<polygon class="st1" points="239.6,307.1 242.6,301.7 283,311.5 277,317.3 267.1,318.2 256.2,318 248.2,315.3 242.8,311.9 	"/>
	<polygon class="st1" points="307.9,306.1 315.9,305.9 323.5,308.2 331.9,312 330.2,321.5 317.1,323.1 300.7,317.7 293.9,314.3 	"/>
	<polygon class="st1" points="354.4,316.4 364.3,314.4 373,316.4 380.3,318.7 386.8,323.9 382,324.6 354,319.4 	"/>
	<path class="st1" d="M295.7,356.3c1.5-1.8,5.2-3.9,6.6-4.3c1.5-0.3,6.6,0.1,7.3-1.3c0.8-1.4,3.7-4.3,3.7-4.3l3.3,0.8l7.2,6.3
		l8.7,4.2l4,3.4l-1.9,4l-9.2,2.4l-11.3-0.2l-12.4-2l-5-5.2L295.7,356.3z"/>
	<polygon class="st1" points="225.9,317.5 237.2,321.3 246.2,326.6 245.8,330.6 241.3,333.4 234.7,335.2 224.5,335.3 	"/>
	<path class="st1" d="M222.4,369.6l12,4.6l8.7,5.6l-0.1,4.4c0,0-19.8,7.3-19.5,6.2C223.9,389.4,222.4,369.6,222.4,369.6"/>
	<polygon class="st1" points="235.7,361.1 245.5,364.6 256.8,368.4 264.5,367.8 272.9,364.7 281.4,359.3 271.6,353.3 262.6,349.2 
		259,345.4 255.4,344.3 252.1,345.7 249.1,349.3 241,352.4 236.2,354.2 229.7,351.1 231,358.8 	"/>
	<path class="st1" d="M264.3,377.7c1.1-0.3,12.1-4.2,12.1-4.2l8.8-0.9l8.3,4.9l8.6,8.2l-5.9,4.3l-6.6,2.1l-9.8-0.9l-12-4.2l-6.9-4.5
		L264.3,377.7z"/>
	<path class="st1" d="M264.4,330.2c0,0,10.6-3.5,12.1-3.4L290,327l8.3,4.5l7.9,5.2l-3,4.7l-7,2.8l-9.8-0.5l-11.6-2.4l-9.8-5.6
		l-2.9-3.7L264.4,330.2z"/>
	<path class="st2" d="M200.9,370.3L213,368l7.6,2l3.4,33.6l1.3,53l-9.6,8.2l-13.5,2l-9.2,6.4l-13.3-11.9c0,0-16-2.5-14.9-3.9
		c1.1-1.4,1.3-14.6,1.3-14.6l-15.2-7.9l32.9-42.9L200.9,370.3z"/>
	<path class="st3" d="M29.9,241.4l15.5,3.2c0,0,56.7,15.1,58.1,15.1c1.5,0,38.3,8.9,38.3,8.9s54.7,15.6,56.7,15.6
		c1.9,0,59.1,14.2,59.1,14.2l51.9,11.1l65,13.8l64,16.7l45,13.4l1.8,5.9l-6.4,1.8l-37.8-10.4l-59.1-19l-33.4-8.9l-32.5-7.9
		l-33.5-4.5l-31.5-6.9l-26.6-8.7l-59.1-15.1l-63-14.7l-39.2-10.4l-35.4-10.4L29.9,241.4z"/>
</g>
<polygon class="st4" points="13.3,326.8 14.9,347.3 23.9,359.1 31.4,350 33.6,334 30.9,318.8 24.2,314.3 "/>
<g>
	<path class="st5" d="M196,147.9c0,0-16-4.7-14.5-8.3c1.5-3.6,4.6-14.5,4.6-14.5l22.7-4l3.4-29.9l4.1-25.5l30.3-21.4l33.7-7.4
		l28.5-3.2l45.9,5.9l38.5,11.6L419.3,73l13.9,41.1l3.5,9.6l5.7,8.1l-3.1,8.7l-5.9,4.3l-7.1,28.4l-12.8,19.5l-25.8,11.2l7.2,6.7
		l15.9,8.3l14.2,20.7l-2.6,64.2l-2.7,29.2l-7.7,20.3l-8-3.1l-5.9,5.7l-15.9-8.3l8.4-22.5l6.2-18.9l-1.1-19l-107.3,1l-59.8-2.5
		l-4.9,28.4l-3.1,50.3l-17.6,7c0,0-6.3-14-7-17.6c-0.7-3.7,8.8-44.4,8.8-44.4l1.6-51.8l15.1-28.2l28.8-21.4l-26.8-10l-20.1-17.9
		L196,147.9z"/>
	<polygon class="st5" points="376.8,447.5 373.2,400.7 359.3,401.2 361.4,448 368.6,454 	"/>
	<polygon class="st5" points="254.6,401.6 271.4,400.4 271.5,422.8 270.5,453 258,456.4 249.2,448.9 	"/>
</g>
<g>
	<g>
		<g>
			<defs>
				<rect id="SVGID_1_" x="347.5" y="147.8" width="43.8" height="42.9"/>
			</defs>
			<clipPath id="SVGID_00000142861224322025335070000004417969652154996875_">
				<use xlink:href="#SVGID_1_"  style="overflow:visible;"/>
			</clipPath>
			<g style="clip-path:url(#SVGID_00000142861224322025335070000004417969652154996875_);">
				<defs>
					<path id="SVGID_00000034084983757074423760000012117197428018320529_" d="M347.9,168.7l0,0.2l0,0.2c-0.1,11.5,9.3,20.9,21,21.2
						l0.2,0l0.2,0c11.8,0.1,21.5-9.1,21.7-20.7l0,0v0c0.2-11.6-9.2-21.1-21-21.4l-0.2,0l-0.2,0c-0.1,0-0.1,0-0.2,0
						C357.7,148.1,348.2,157.2,347.9,168.7"/>
				</defs>
				<clipPath id="SVGID_00000113328965924608553160000013616038137885135541_">
					<use xlink:href="#SVGID_00000034084983757074423760000012117197428018320529_"  style="overflow:visible;"/>
				</clipPath>
				<defs>
					<filter id="Adobe_OpacityMaskFilter" filterUnits="userSpaceOnUse" x="347.1" y="147.4" width="44.8" height="43.8">
						<feColorMatrix  type="matrix" values="1 0 0 0 0  0 1 0 0 0  0 0 1 0 0  0 0 0 1 0"/>
					</filter>
				</defs>
				
					<mask maskUnits="userSpaceOnUse" x="347.1" y="147.4" width="44.8" height="43.8" id="SVGID_00000023996271429417653440000002302013705178438062_">
					<g class="st7">
						<g>
							<defs>
								
									<rect id="SVGID_00000049186891254457848970000003341197697544731310_" x="348.3" y="147.7" transform="matrix(1.744862e-02 -0.9998 0.9998 1.744862e-02 193.773 535.615)" width="42.2" height="43.1"/>
							</defs>
							
								<clipPath id="SVGID_00000105402190785570910010000003699329105183610753_" style="clip-path:url(#SVGID_00000113328965924608553160000013616038137885135541_);">
								<use xlink:href="#SVGID_00000049186891254457848970000003341197697544731310_"  style="overflow:visible;"/>
							</clipPath>
							
								<radialGradient id="SVGID_00000157274336021451949440000009245376232558176431_" cx="-1082.1497" cy="1754.1698" r="1.4879" gradientTransform="matrix(14.3179 0.2499 0.2499 -14.3179 15425.1465 25555.7441)" gradientUnits="userSpaceOnUse">
								<stop  offset="0" style="stop-color:#FFFFFF"/>
								<stop  offset="9.119124e-02" style="stop-color:#F1F1F1"/>
								<stop  offset="0.2626" style="stop-color:#CDCDCD"/>
								<stop  offset="0.4959" style="stop-color:#939393"/>
								<stop  offset="0.7788" style="stop-color:#434343"/>
								<stop  offset="1" style="stop-color:#000000"/>
							</radialGradient>
							
								<polygon style="clip-path:url(#SVGID_00000105402190785570910010000003699329105183610753_);fill:url(#SVGID_00000157274336021451949440000009245376232558176431_);" points="
								347.5,147 392.1,147.8 391.3,191.4 346.8,190.7 							"/>
						</g>
					</g>
				</mask>
				
					<radialGradient id="SVGID_00000042710466870026268310000001922516049207416752_" cx="-1082.1497" cy="1754.1698" r="1.4879" gradientTransform="matrix(14.3179 0.2499 0.2499 -14.3179 15425.1494 25555.7461)" gradientUnits="userSpaceOnUse">
					<stop  offset="0" style="stop-color:#F16682"/>
					<stop  offset="0.1153" style="stop-color:#F27289"/>
					<stop  offset="0.332" style="stop-color:#F48E9C"/>
					<stop  offset="0.6267" style="stop-color:#F9BABF"/>
					<stop  offset="0.985" style="stop-color:#FFFAFA"/>
					<stop  offset="1" style="stop-color:#FFFFFF"/>
				</radialGradient>
				
					<polygon style="clip-path:url(#SVGID_00000113328965924608553160000013616038137885135541_);mask:url(#SVGID_00000023996271429417653440000002302013705178438062_);fill:url(#SVGID_00000042710466870026268310000001922516049207416752_);" points="
					347.8,147.4 391.9,148.1 391.1,191.1 347.1,190.4 				"/>
			</g>
		</g>
	</g>
	<g>
		<g>
			<defs>
				<rect id="SVGID_00000059278823297915950870000005569368336663484837_" x="217.6" y="147.4" width="43.8" height="42.9"/>
			</defs>
			<clipPath id="SVGID_00000167355251967207960480000009140263582426267569_">
				<use xlink:href="#SVGID_00000059278823297915950870000005569368336663484837_"  style="overflow:visible;"/>
			</clipPath>
			<g style="clip-path:url(#SVGID_00000167355251967207960480000009140263582426267569_);">
				<defs>
					<path id="SVGID_00000169534461982398286180000006115259310713969806_" d="M217.9,168.3l0,0.2l0,0.2c-0.1,11.5,9.3,21,21.2,21.2
						c11.9,0.2,21.7-9.1,21.9-20.7c0.2-11.6-9.3-21.2-21.2-21.4c-0.1,0-0.3,0-0.4,0C227.8,147.7,218.2,156.8,217.9,168.3"/>
				</defs>
				<clipPath id="SVGID_00000093147553606304638450000009961525775780101266_">
					<use xlink:href="#SVGID_00000169534461982398286180000006115259310713969806_"  style="overflow:visible;"/>
				</clipPath>
				<defs>
					
						<filter id="Adobe_OpacityMaskFilter_00000164506595780783385960000005963498874478527410_" filterUnits="userSpaceOnUse" x="217.1" y="147" width="44.8" height="43.9">
						<feColorMatrix  type="matrix" values="1 0 0 0 0  0 1 0 0 0  0 0 1 0 0  0 0 0 1 0"/>
					</filter>
				</defs>
				
					<mask maskUnits="userSpaceOnUse" x="217.1" y="147" width="44.8" height="43.9" id="SVGID_00000171683392979767168590000007075431234725916547_">
					<g style="filter:url(#Adobe_OpacityMaskFilter_00000164506595780783385960000005963498874478527410_);">
						<g>
							<defs>
								
									<rect id="SVGID_00000166653930088658311890000012102574509088670872_" x="218.4" y="147.3" transform="matrix(1.744696e-02 -0.9998 0.9998 1.744696e-02 66.4859 405.2828)" width="42.2" height="43.1"/>
							</defs>
							
								<clipPath id="SVGID_00000093855559138850707520000001215999029063781307_" style="clip-path:url(#SVGID_00000093147553606304638450000009961525775780101266_);">
								<use xlink:href="#SVGID_00000166653930088658311890000012102574509088670872_"  style="overflow:visible;"/>
							</clipPath>
							
								<radialGradient id="SVGID_00000041280167270670563960000005449658634525155460_" cx="-1085.1254" cy="1754.1271" r="1.4879" gradientTransform="matrix(14.3179 0.2499 0.2499 -14.3179 15337.8057 25555.4727)" gradientUnits="userSpaceOnUse">
								<stop  offset="0" style="stop-color:#FFFFFF"/>
								<stop  offset="9.119124e-02" style="stop-color:#F1F1F1"/>
								<stop  offset="0.2626" style="stop-color:#CDCDCD"/>
								<stop  offset="0.4959" style="stop-color:#939393"/>
								<stop  offset="0.7788" style="stop-color:#434343"/>
								<stop  offset="1" style="stop-color:#000000"/>
							</radialGradient>
							
								<polygon style="clip-path:url(#SVGID_00000093855559138850707520000001215999029063781307_);fill:url(#SVGID_00000041280167270670563960000005449658634525155460_);" points="
								217.6,146.6 262.1,147.4 261.3,191 216.8,190.3 							"/>
						</g>
					</g>
				</mask>
				
					<radialGradient id="SVGID_00000160868968009796209690000003767399163683967892_" cx="-1085.1254" cy="1754.1271" r="1.4879" gradientTransform="matrix(14.3179 0.2499 0.2499 -14.3179 15337.8086 25555.4766)" gradientUnits="userSpaceOnUse">
					<stop  offset="0" style="stop-color:#F16682"/>
					<stop  offset="0.1153" style="stop-color:#F27289"/>
					<stop  offset="0.332" style="stop-color:#F48E9C"/>
					<stop  offset="0.6267" style="stop-color:#F9BABF"/>
					<stop  offset="0.985" style="stop-color:#FFFAFA"/>
					<stop  offset="1" style="stop-color:#FFFFFF"/>
				</radialGradient>
				
					<polygon style="clip-path:url(#SVGID_00000093147553606304638450000009961525775780101266_);mask:url(#SVGID_00000171683392979767168590000007075431234725916547_);fill:url(#SVGID_00000160868968009796209690000003767399163683967892_);" points="
					217.8,147 261.9,147.7 261.2,190.9 217.1,190.1 				"/>
			</g>
		</g>
	</g>
	<path class="st16" d="M195,123.1c0,0,11.7,0.2,13.9-1.9c2.2-2.2,2.5-18.9,2.5-18.9l2.7-29.2l-12.7,15.8L195,123.1z"/>
	<polygon class="st16" points="280.5,37 317.7,34 358.5,42 355.4,50.7 349.4,60.1 339.8,67.2 325.1,71.3 301.8,69.5 288.8,61.9 
		282.4,50.9 	"/>
	<polygon class="st16" points="414.2,70.7 431.3,97.3 432.3,120.7 416.2,124 411.9,118.1 414.5,93.3 	"/>
</g>
<polygon class="st17" points="347.9,329 345.3,334.5 344.4,346.2 350.6,353.6 365.1,359.9 379.2,359.2 384.2,352.7 383.8,347.4 
	386.2,335 380.9,331.5 350.8,327.6 "/>
<g>
	<path class="st18" d="M230.5,445.5c1.3-0.2,5.2-2.1,5.9-1.5c1.1,1.1,0.9,3.3,0.1,4c-0.9,0.7-8,3.1-8,3.1l-0.3-4.6L230.5,445.5z"/>
	<path d="M316.5,393.2c0,1.8-0.1,2.7,0,3.6c0.4,3.2-1.1,4.8-4.4,5c-1,0.1-2,0.5-3,0.8c-1,0.3-2.2,1-3.1,0.8
		c-4.1-1.2-7.7,0.6-11.6,1.5c-1.9,0.5-4,0-6,0c-5.9-0.1-6.9-0.1-13-0.2c-0.7,3.4-1.8,6.5-2,9.7c-0.2,3,0.6,6,0.9,9
		c0.2,2.8,0.4,5.6,0.4,8.3c-0.1,3-0.5,5.9-0.7,8.9c0,1.1,0.5,2.3,0.6,3.4c0.3,3.3,1,6.7,0.8,10c-0.2,3.3-3.2,3.5-5.8,4
		c-1.4,0.3-2.8,0.7-4.2,1c-0.9,0.2-6.9,0.4-7.9,0.3c-5.1-0.7-10.5-7-10.3-12.1c0.2-5.7,0.1-11.4,1-17c1.2-7.4,0.4-14.7-0.3-22
		c-0.1-1.4,0-2.7,0.1-4.2c-7.1-0.7-14.1-1.3-21.3-2c-1.7,7.1,0.3,14.2,1,21.5c0.7,7.4,0.5,5.9,1,13.9c0.4,3.7,0.5,2.1,0.5,6.3
		c0.3,1.8,0.3,3.3,0.4,4.4c0.1,1,0.1,1.5,0.3,2.7c0.2,1,0,1.2-0.2,2.9c-0.1,0.8,0.2,1.8-0.2,2.6c-0.6,1.4-1.6,2.6-2.3,4
		c-3,5.6-7.8,8-14,8.2c-2.6,0.1-5.2,0-7.8,0.5c-1.4,0.3-3,1.3-3.9,2.4c-4.7,5.6-12.9,5.2-17-0.9c-1.3-2-2.3-4.5-4.2-5.7
		c-2.4-1.6-5.5-2.3-8.4-3c-2.7-0.7-5.7-0.8-8.4-1.5c-2-0.5-2.5-2.3-2-4.3c0.7-2.2,1.5-4.4,2.2-6.7c1.1-3.3-1.3-6.9-4.9-7
		c-5.6-0.2-9.9-2.5-12.6-6.4c5.2-6.9,10.2-13.5,15.2-20.1c2-2.6,3.9-5.6,6.4-7.7c10-8.4,15.1-20.3,22.4-30.6
		c2.1-2.9,4.8-5.4,7.1-8.2c0.4-0.5,0.6-1.5,0.4-2.1c-1.3-3.8-2.7-7.5-4-11.3c-0.3-0.9-0.1-2,0-3c0.4-4,1.1-8,1.4-12
		c0.2-2.9,0-5.9,0.1-8.8c0.1-2.6,0-5.4,1-7.6c3.2-7.3,4.2-14.9,4.4-22.7c0.1-1.7,0.3-3.5,0.4-5.2c-8.7-3.1-17.3-6.2-26.1-9.3
		c-0.2,0.3-0.6,0.6-0.7,1.1c-1,4.3-4.9,3.6-7.1,0.9c-0.9-1.1-2.7-2.2-4-2.1c-8.3,0.6-15.8-2.3-23.4-4.9c-7.4-2.5-14.6-5.6-22-8.3
		c-3-1.1-6.1-2.2-8.4-3.1c-1.8,1.4-3.4,2.5-5,3.7c-1.2-1.6-2.4-3.2-3.8-5.2c-3.8-0.6-8.4-1.6-13-2.2c-13-1.7-25.6-5.2-38.1-9.3
		c-5.4-1.7-10.2-5.3-15.2-8.2c-2.1-1.2-4.2-2.3-5.8,0.2c-0.9,1.4-0.9,3.4-1.1,5.2c-0.1,1.5,0.2,2.9,0.2,4.4c0.4,9.5,0.9,19,1.2,28.4
		c0.1,1.8-0.5,3.7-0.6,5.6c-0.3,5.1-0.6,10.1-0.9,15.2c-0.1,1.5,0.2,2.6,1.6,3.7c4.2,3.4,5.2,8.6,6.4,13.4c0.8,3.5,1.4,7.3,0.9,10.9
		c-0.8,7.4-1.5,15-7.3,20.6c-1.1,1.1-2.6,1.7-4.4,2.9c0.2,1.4,0.2,3.4,0.7,5.4c0.4,1.8,1.1,4,3.6,3.4c2.5-0.6,2.7-2.7,2.5-4.9
		c0-0.3,0-0.6,0.5-1.5c0.6,0.5,1.7,1.2,1.6,1.5c-0.7,2.2-1.1,4.9-2.7,6.2c-1.1,0.9-3.9-0.5-5.9-0.7c-1.3-0.1-2.6-0.4-3.8,0
		c-3,0.8-6.3-0.5-7.3-3.3c-0.3-0.8,0-1.9,0-2.8c0.3,0,0.5-0.1,0.8-0.1c0.3,0.5,0.9,1,0.9,1.6c0.3,2.5,2.2,3.9,4,3.1
		c1.3-0.6,2.3-3,2.6-4.8c0.6-3.4-2.1-5.6-4-7.9c-4-5-6.6-10.4-6.3-17c0.1-2.6-1.2-5.4-0.7-7.9c0.6-3.4,1.7-7,3.7-9.7
		c2.6-3.5,6.5-6.2,9.6-9.4c0.8-0.8,1.1-2.3,1.2-3.4c0.5-6.4,1.3-12.8,1.3-19.2c0-6.7-0.8-13.4-1-20.1c-0.2-5,0.1-10,0.1-15
		c0-1.2-0.5-2.5-1.1-3.6c-1.8-3.4,0.3-9.5,4.1-10.2c1.9-0.4,4.1,0.9,6.6,1.6c-1,1.7-1.6,2.7-2.3,3.9c9.6,2.5,19.1,5,28.6,7.5
		c0.1-0.3,0.2-0.6,0.2-0.9c-8.8-2.6-17.6-5.2-26.9-8c2.1-2.4,4-1.9,5.7-1.5c8.3,2,16.6,4.1,24.8,6.2c5.7,1.5,11.4,3.1,17.1,4.4
		c8.7,2.1,17.4,3.8,26.1,5.9c11.7,2.8,23.3,6.3,35.1,8.8c17.7,3.7,35.2,7.8,52.4,13.5c1.9,0.6,4,0.6,6.5,0.9
		c-0.7-3.8,0.3-7.4-0.2-11.2c-0.5-3.7,1-7.6,1.4-11.4c0.3-2.6,0.2-5.2,0.4-7.9c0.2-3,1.5-5.5,3.3-8c2.4-3.5,3.9-7.5,6.9-10.8
		c1.5-1.6,0.9-5,2.2-6.9c1.6-2.3,4.3-3.8,6.6-5.6c0.7-0.6,2.1-0.7,2.5-1.4c2.4-4.3,6.9-5.2,10.9-6.9c1.2-0.5,2.4-1.2,3.3-1.7
		c-0.8-1-1.4-1.6-2-2.3c-0.3-0.3-0.4-0.8-0.8-0.9c-3.8-1-5.9-5.2-10.3-5.1c-3.4,0.1-6.2-0.3-8.7-3.9c-2.5-3.8-7.1-6.2-10.2-9.6
		c-3.8-4.1-8.5-8.2-10.1-13.2c-2.6-7.8-5.6-15.6-6.2-24.1c-0.2-2.8-2.2-4.8-4.8-6.1c-1.1-0.5-2.2-0.9-3.2-1.5
		c-3.4-1.8-4.6-5.7-4.5-9.5c0.2-7.8,5.2-11.5,11.2-14.9c1.6-0.9,2.5-4,2.5-6.1c0.1-5.1,2.7-9.2,4.3-13.7c0.5-1.6,0.4-3.9-0.4-5.2
		c-1-1.7-0.9-2.6,0-4.4c3-5.7,5.4-11.7,8.5-17.3c2.5-4.6,5.9-8.4,10.5-11.3c3.1-1.9,5.9-4.4,8.4-7.4c7.7-9.4,18.8-13.2,30-16.4
		c5.7-1.6,11.4-4,17.2-4.9c7.3-1.2,14.8-1.3,22.2-1.9c4.1-0.3,8.2-0.9,12.4-0.8c5,0,10,0.5,15,0.9c1.5,0.1,2.9,0.5,4.4,0.8
		c5.6,0.8,11.3,1.7,16.9,2.5c4.8,0.7,9.6,1.3,14.3,2.3c3.3,0.7,6.6,1.9,9.8,2.8c0.5,0.1,0.9,0.5,1.4,0.5c6.8,0,11,1,18,4.1
		c3.8,1.7,8.2,2.4,10.8,6.2c0.3,0.4,1,0.8,1.5,0.8c4.7-0.2,6.7,3.3,9.4,6.1c3.4,3.5,7.2,6.6,10.9,9.9c0.5,0.4,0.8,1.1,1.1,1.7
		c0.8,1.8,1.1,3.9,4,3.9c1.7,0,3.2,3.9,2.8,6c-0.1,0.5-0.5,1.4-0.3,1.6c4,3.3,4.5,8.5,6.4,12.8c2.6,5.7,4.8,11.7,3.8,18.4
		c-0.3,2.3,0.3,4.9,0.9,7.2c0.3,1,1.7,1.6,2.7,2.5c-2.3,3,1.2,3.9,2.5,5.4c1.4,1.6,2.8,2.8,1.8,5.2c-0.3,0.7-0.2,1.6-0.2,2.4
		c0.4,4.8-2.1,8-5.7,10.8c-1.3,1-2.4,2.7-2.8,4.2c-1,3.7-0.8,7.7-2.2,11.1c-3.5,8.6-3.9,18.4-9.9,26c-2.1,2.6-3.8,5.6-6.2,7.9
		c-2,1.9-4.6,3.2-7,4.6c-4.8,2.8-9.7,5.4-14.7,8.1c0.1,3.2,2.9,2.4,4.5,2.9c2.4,0.8,5.1,0.7,7.4,1.6c1.7,0.6,3.2,2,4.6,3.3
		c4.6,4.2,8.5,9,11.1,14.6c1.8,3.9,2.8,8.1,3.9,12.3c0.6,2.4,1,5,1,7.5c0,4-0.7,8-0.8,12c-0.2,5.6-0.4,11.3-0.1,16.9
		c0.3,6,1.2,11.9-0.8,18c-1.3,4-1.2,8.4-1.7,12.6c-0.9,7.8-1.3,15.6,0.3,23.3c0.2,1,1.9,2.1,3,2.5c10.3,3.1,20.6,5.9,30.9,9
		c7.6,2.3,15.3,4.4,22.6,7.3c2.5,1,4.4,4,6,6.6c0.6,1-0.6,3.1-0.9,4.6c-0.6,2.4-2.3,1.7-4,1.8c-6.1,0.3-11.5-2.6-17.2-3.9
		c-7.7-1.7-15.5-3.4-23.2-5.3c-8.2-2-16.4-4.2-25.3-6.5c-0.4,0.9-1.2,2.3-1.4,3.7c-0.4,4.2-0.9,8.4-0.8,12.5
		c0.2,6.4,0.9,12.7,1.3,19.1c0.2,3.4,0.4,6.9,0.5,10.3c0,0.4-0.2,1-0.5,1.3c-2.8,2.5-5.6,4.8-9.9,4.4c-2.5-0.2-5.1,0.9-7.7,1.4
		c-4.1,0.7-8.3,1.3-12.4,2c-2.6,0.4-5.1,0.9-7.6,1.4c1.5,4.9,1.2,10,0.1,14.9c-1,4.3-0.8,8.4,0.1,12.7c0.8,3.6,0.6,3.4,1.1,6.8
		c0.5,1.7,0.9,2.3,1,3.6c0.3,0.4,0.3,1.9,0.6,3.8c0.2,1,0.6,2.2,0,3.3c-0.6,1.6-0.5,1.6-1.3,2.5c-1,3.4-6.6,5.2-11.1,3.9
		c-5.8-1.7-13.4-6.7-13.6-13.8c-0.2-7.4-0.6-14.8-1.1-22.2c-0.2-2.5-1-5-1.4-7.5c-0.2-1.4-0.3-2.8,0-4.1c0.7-3.4,0.7-3.7-2.8-4
		c-2.5-0.2-1.7,0.1-4.2-0.1c-3.3-0.3-6.6-0.8-9.9-1c-2.3-0.1-4.7,0.2-7,0.2c-2.4,0-4.2-0.9-5.8-2.8
		C321.7,397.7,319.4,395.9,316.5,393.2 M200.9,354.8c1.2-0.1,2.3-0.4,3.5-0.4c3,0,4.1,1.3,3.8,4.3c-0.5,4.9,0.2,5.9,5.2,7.6
		c-0.7-1.7-1.4-3.3-1.9-5c-0.5-1.7-0.7-3.6-1.1-5.2c8.3-2.8,4.9,4.6,7.2,7.4c0.2-2,0.3-3.7,0.4-5.5c0.3-5.1,0.2-10.3,1.1-15.3
		c0.9-5.5,3.1-10.7,2.3-16.4c-0.3-2-0.5-4.1-0.5-6.2c0-4.6,0.2-9.1,0.2-13.7c0-5.1-0.1-5.2-4.6-6.1c-3.1-0.7-6.3-1-9.6-1.6
		c0.2,5.4,0.4,10.3,0.6,15.1c0,1,0.2,2.3-0.4,3c-4,5.6-2.6,12.4-4.4,18.4c-0.9,3.1-1.2,6.3-1.7,9.5c-0.6,3.4-1.6,6.7,0,10.1
		c-0.4,0.3-1.1,0.8-1.1,1c0.8,3.3,1.6,6.6,2.8,9.8c0.5,1.2,2.3,1.9,3.4,2.9c0.3-0.2,0.5-0.5,0.8-0.7
		C204,363.9,201.1,359.9,200.9,354.8 M431.7,124.4c-1.9,0.2-3.6,0.7-4,0.2c-1.4-1.4-2.6-0.7-4-0.4c-1.7,0.5-3.4,1-5.1,1.3
		c-4.2,0.8-7.5-1.1-8-5.1c-0.5-3.8-0.5-7.6-0.2-11.4c0.3-3.1,1.9-5.8,1.2-9.4c-0.8-4,0-8.3,0-12.4c0-1.6,0.3-3.1-1.4-4.5
		c-0.9-0.7-1.1-3.6-0.5-4.8c1.7-3.4,0.2-9.5-3.2-11.3c-1.8-1-3.5-2.2-5-3.5c-2.5-2.1-4.7-4.6-7.5-6.3c-2.5-1.6-5.5-2.3-8.3-3.3
		c-4.3-1.5-8.6-3.3-13.1-4.4c-4.8-1.1-9.8-1.5-14.7-2.1c0.8,3.1,0.3,4.5-2.2,7.7c-0.4,0.5-0.3,1.7-0.1,2.4c0.2,0.6,1,1,1.3,1.6
		c0.5,1,0.7,2,1.1,3.1c-1.2,0-2.3,0-3.5,0.1c-1.7,0.1-3.5-0.1-4.9,0.6c-2.1,1-4.1,2.4-5.6,4.1c-4.8,5.7-12,4.7-18.1,6.7
		c-2.2,0.7-4.7,0.7-7.1,0.5c-4.4-0.3-8.8-1-13.2-1.3c-9-0.6-21.1-9.5-23.9-18c-1.4-4.3-2.3-8.9-3.5-13.3c-1.1-0.1-2.6-0.4-4.1-0.3
		c-3.3,0.3-6.9,0.2-9.9,1.3c-4.3,1.6-8.1,4.3-12.3,6.2c-3.4,1.5-7,2.5-10.5,3.7c-1.2,0.6-2.2,1.8-2.9,3.2c-3.1,6-8.5,8.9-14.7,10.6
		c-0.9,0.2-2,0.8-2.4,1.5c-1.3,2.3-2.6,4.6-3.4,7.1c-0.8,2.6-0.8,5.4-1.6,8c-2.8,10.1-3.1,14.6-1.6,24.3c0,0.2-0.1,0.4-0.1,0.6
		c-0.4,3.1-0.5,6.3-1.2,9.3c-0.7,2.8-1.9,5.5-3,8.6c-2.8-2.8-4.9-1.1-7.1-0.5c-0.9,0.2-1.8,0.6-2.6,0.6c-3.3-0.1-6.6-1.1-9.8,1.2
		c-2.5,1.8-2.4,4.4-3,6.7c-1.9,6.4,1.3,10.5,7.8,10.4c1,0,1.9-0.2,3.4-0.3c0.6,3.4,1.6,6.8,1.6,10.3c-0.2,7.5,2.9,14.1,5.2,20.9
		c2,5.9,7.7,9.3,12.1,13.5c3.2,3.1,6.7,5.8,10.2,8.5c1,0.8,2.4,1.5,3.6,1.7c7.7,1.1,15.2,2.5,22.2,6.2c3.9,2.1,8.8,2.6,13.3,3.4
		c5.7,1,11.5,1.6,17.3,2.1c3.2,0.2,6.5-0.5,9.7-0.5c2.4,0,4.8,0.4,7.2,1c0.8,0.2,1.3,1.4,2.1,1.7c3.3,1.2,6.6,2.2,10,3.2
		c2.1,0.6,5.3-1.1,6.7-2.7c2.6-3.2,4.8-6.9,10.4-5.6c3.3,0.8,7-0.5,10.6-0.9c4.5-0.5,9-0.9,13.5-1.5c3.1-0.4,6.3-1,9.4-1.4
		c1.2-0.2,2.7-0.9,3.7-0.5c2.9,1.1,5.4,0.3,8.2-0.3c2.7-0.6,5.5-3.4,8.4-0.3c0.2,0.2,1.1-0.2,1.6-0.5c0.9-0.4,1.8-0.9,2.7-1.1
		c8.8-1.9,15.6-7.7,22.7-12.5c3.3-2.2,6-5.5,8.3-8.7c3.9-5.4,6.2-11.5,7.2-18.1c1-6.4,2.1-12.7,3.2-19c6.5-0.5,9.6-6.5,6.3-11.8
		C435.3,127.8,433.2,126,431.7,124.4 M224,287.3c-0.2-1.4-0.5-2.4-0.4-3.3c0.2-2.4,0.8-4.7,1-7.1c0.6-10.3,1.1-20.6,1.8-30.9
		c0.3-3.3,1.3-6.5,2.3-9.7c0.3-0.8,2.2-1.9,2.8-1.6c1.2,0.5,2.6,1.7,3,2.9c0.5,1.7,0.1,3.6,0.2,5.4c0.1,1.4,0.6,2.8,0.3,4.1
		c-1.3,5.7-3.2,11.3-4,17.1c-0.7,5.3-5.4,10.7-0.1,16.1c0.1,0.1-0.1,0.4,0,0.6c0.4,0.6,0.8,1.7,1.3,1.8c2.8,0.4,5.7,0.6,8.5,0.9
		c3.7,0.3,7.5,0.1,11,1c5.3,1.4,10.6,1.7,15.9,1.5c7.1-0.3,14.3-0.8,21.4-0.9c5.3,0,10.6,0.7,15.9,0.8c6,0.1,12-0.3,18-0.2
		c3.9,0,7.8,0.8,11.7,0.7c8.2-0.1,16.4-0.7,24.7-0.7c5.9,0.1,11.9,0.9,17.8,1.5c0.7,0.1,1.3,0.5,1.9,0.3c5-1,10.1-2.1,15.5-3.2
		c0.3-3.4,0.7-6.7,0.9-10c0.1-1.9-0.5-3.8-0.3-5.6c0.8-8.3-0.7-16.3-2.2-24.4c-0.1-0.8,0.3-2,0.9-2.4c0.9-0.5,2.3-0.9,3.1-0.6
		c3.4,1.4,4.3,3.2,4.1,6.9c-0.2,3.4-1,7,0,10.1c2.5,7.5,0.3,14.7-0.2,22c-0.1,2.4-0.8,4.8-1.2,7.2c-0.1,0.7-0.1,1.4-0.5,1.9
		c-1.8,2.4-1.2,5.2-1.1,7.7c0.2,2.7,1.9,5.3,1.7,7.9c-0.5,7.5-3.2,14.5-7.2,20.9c-1.2,2-2.4,4.1-3.2,6.2c-0.7,1.7-0.7,3.7-1.1,5.5
		c-0.8,3.3-1.7,6.6-2.5,9.8c0.3,0.1,0.6,0.2,0.9,0.3c0.5-0.3,1.1-0.6,1.4-1c1.5-2.5,3.1-5,4.2-7.7c1.4-3.3,3.2-4,6.2-2.1
		c2.9,1.9,1.5,4.4,1,6.5c-0.8,3.1-2.2,6.2-3.4,9.3c1.9,1.4,3,0.4,3.7-1.4c1-2.6,1.9-5.2,2.8-7.7c0.7-2,2.3-2.7,4.1-2.4
		c1.6,0.3,1.8,1.5,1.3,3.2c-0.4,1.6,0.3,3.4,0.6,5.2c2.5-4,4.7-7.9,6.1-12.1c1.3-3.8,1.7-7.8,2.3-11.8c0.8-4.8,1.5-9.7,2.1-14.6
		c0.6-4.6,1.2-9.3,1.3-13.9c0.2-7.3,1.4-14.4,0.2-21.8c-0.9-5.3-0.1-10.9,0.1-16.4c0.1-2.7,0.7-5.3,0.7-8c-0.1-3.9-1.3-7.9-2.2-11.5
		c-1.3-5.2-3.4-10.9-8.8-14.1c-0.7-0.4-1-1.4-1.5-2.1c-3.3-4.1-6.2-8.6-12.1-9.9c-3-0.7-5.6-3-8.4-4.4c-1-0.5-2.2-1.3-3.2-1.2
		c-3.2,0.3-6.3,1.4-9.5,1.5c-4.3,0.2-8.6-0.6-12.8,1.5c-1.8,0.9-4.2,0.8-6.4,1c-6.2,0.6-12.4,1.8-18.5,1.4c-4.4-0.3-8-0.4-11.4,2.9
		c-1.3,1.3-3.2,1.9-4.8,3c-4.7,3.1-12.4,5.9-17.8,1.7c-2.9-2.2-6.8-3.1-10.3-4.6c-1.4-0.6-2.9-1.6-4.3-1.5
		c-3.6,0.2-7.3,0.8-10.9,1.4c-7.2,1.2-14.1-1.2-21.1-1.9c-1.3-0.1-2.6-0.9-3.8-1.4c-2.5-1-3,2-4.1,2.2c-3.5,0.7-5.8,2.9-8.5,4.6
		c-2.9,1.8-7,0.3-9.3,3.8c-0.6,0.9-2.1,1.2-2.9,2.1c-1.3,1.5-2.9,3.1-3.3,4.9c-0.8,3.3-1.1,6.5-4.3,9c-2.2,1.7-3,5-4.8,7.3
		c-3.4,4.3-6.2,8.8-5.4,14.6c0.1,0.7-0.2,1.4-0.2,2c-0.1,2.3,0.1,4.4,1.8,5.5c-0.8,2.7-1.9,5.3-2.2,8c-0.4,3.7,3.1,4.1,5.6,5.6
		c-1.6,0.1-3.1,0.3-4.7,0.4c-0.1,0.3-0.1,0.6-0.2,0.9C215.3,284.9,219.6,286.1,224,287.3 M326.9,393.2c1.7,0.3,4.1,0.9,6.5,1.3
		c2.2,0.4,4.5,0.5,6.8,0.8c2.8,0.4,5.6,1.1,8.5,1.1c4.5,0.1,9.3-1,13.6,0c7,1.6,13.7,0,20.5,0c1.1,0,2.1-0.6,3.6-1.1
		c-3.1-1.4-5.8-2.6-8.5-3.8c-1.6-0.7-3.2-1.6-4.8-1.6c-3.3-0.1-5-1.4-4.8-4.7c0.1-2,0.1-4.1,0.1-6.9c6.3,4.5,12.5,0.9,18.9-0.5
		c0.1-2.1,1-3.9,3.4-3.1c1.9,0.7,4.3,1.9,4.9,3.5c1.1,3.1,3.6,3.5,5.9,4.4c1,0.4,2.2,0.6,3,1.2c1.7,1.5,4.7,2,3.9,5.8
		c-1.4-1.1-2.3-2.3-3.6-2.8c-4.8-1.9-9.7-3.8-14.6-5.4c-5-1.6-9.6-0.7-14,2.3c-2,1.4-1.9,2.4-0.2,3.5c3,2,6.1,4,9.3,5.6
		c1.6,0.8,3.6,1.2,5.3,1.2c4.6-0.2,9.1-0.9,13.7-1.4c2.2-0.2,5.3-2.9,5.4-4.6c0.2-3.9,0.7-7.8,1-11.8c0.1-0.7,0.1-1.8-0.4-2.1
		c-2.5-1.8-5-3.4-7.6-5.1c-0.6-1.4-1.3-2.2-3.4-1.2c-0.4,0.2-1.3-0.7-2-1.1c0.5-0.6,1-1.4,1.6-1.6c0.8-0.3,1.8-0.1,2.7-0.1
		c-0.9-0.9-1.9-1.2-2.8-1.7c-0.8-0.4-1.5-1-2.2-1.6c0.2-0.3,0.4-0.7,0.5-1c4.2,1.2,8.3,3.7,12.9,0.9c-0.2-1.2-0.5-2.6-0.7-4
		c-0.2,0.2-0.4,0.4-0.5,0.7c-1.1-0.5-2.2-0.9-3.3-1.4c-2-0.9-3.9-2-5.6,0.6c-0.4,0.6-2,0.9-2.9,0.7c-1.8-0.5-3.6-1.5-5.3-2.4
		c-1-0.6-1.7-1.5-2.5-2.3c-0.3-0.4-0.6-0.9-0.9-1.3c-2,2.3-4,4.7-5.6,6.5c2.2,1.8,4.1,3.3,5.8,5c2.5,2.5,2.3,5.5-0.8,7.1
		c-2.6,1.3-5.4,2.2-8.3,2.8c-9.2,2-18,0.2-25.7-5c-2.5-1.7-4.6-3.8-8-3.1c-0.1-0.2-0.1-0.5-0.2-0.7c0.7-0.8,1.3-1.5,1.9-2.2
		c-3.9-1.5-1.1,3.6-4.2,3.9c0.3-3.1,0.6-6.2,0.9-9.5l8.5,0.1c-0.3,0.2-0.5,0.4-0.8,0.5c-2-2-4-3.9-6-5.9c-2-0.7-4.9-0.9-7.7-1.4
		c-5.6-1.1-10.7-3.3-15-7.1c-2.1-1.9-3.9-3.8-7-3c-0.7,0.2-1.5-0.3-2.3-0.5c0.6-0.6,1.2-1.3,1.9-1.8c0.3-0.2,0.9-0.1,1.3-0.2
		c-0.1-0.3-0.1-0.6-0.2-0.9c-1.5,0.3-3,0.6-4.8,1c-0.2-2.6-0.4-4.9-0.6-7.7c1.2,0.3,1.6,0.5,2.1,0.6c3.7,0.8,7.1,2.9,11.1,1.7
		c6.7-2,13.4-2,20,0.3c0.8-1.7,1.7-3.3,2.3-4.6c-3-0.9-6-1.8-9-2.5c-0.9-0.2-2.3-0.4-2.9,0.1c-1.9,1.6-3.3,0.6-5.1-0.1
		c-1.4-0.6-3-0.8-4.6-0.8c-3.5,0-7.3,1-10.5,0.1c-5.9-1.6-11.5-4.3-17.2-6.4c-1.2-0.5-2.6-1.1-3.8-1c-2.6,0.2-2.6,0.3-3.8-1.9
		c0-0.1-0.2-0.1-0.2-0.2c-0.8-0.2-1.5-0.4-2.3-0.5c-0.7,2.5-4.7,4.9-6.6,3.6c-1.8-1.3-3-0.8-4.6-0.1c-1,0.4-2.1,0.7-3.1,0.7
		c-5.2,0.2-10.6,1-15.7,0.2c-6.1-0.9-12.3-2.6-16.4-8.1c-0.4-0.6-1.9-0.7-2.8-0.7c-1.8,0.1-3.5,0.5-5.3,0.8
		c-0.1-0.4-0.3-0.9-0.4-1.3c1.9-0.7,3.8-1.4,5.6-2.1c-2-0.3-3.7-0.2-5.4-0.3c-0.4,0-0.8-0.6-1.2-0.9c0.3-0.3,0.6-0.7,1-0.8
		c0.5-0.2,1.1-0.1,1.5-0.1c0.2-1.2,0.4-2.2,0.8-3.9c-1.9,1.8-2.6,4.7-5.6,2.6c-0.9,3-1.9,5.7-2.5,8.4c-0.4,2.2,0.1,4.5,2.8,4.8
		c6.5,0.8,11.7,4.3,16.8,7.9c1.6,1.2,2.5,3.1,1.3,4.7c-1.4,1.8-3.2,3.8-5.2,4.3c-4.3,1.1-8.9,1.3-13.3,1.7c-2,0.2-4.1,2-4,3.8
		c0.1,2.8,0.2,5.7-0.1,8.6c-0.4,3.8,1.4,7.5,0.1,11.4c-0.7,2.2,0.1,4.9-0.6,7.2c-0.6,2.2,0,2.6,1.9,3.2c5.4,1.8,11.2,2.8,15.7,6.8
		c1.9,1.7,3.2,3.8,2.3,6.3c-0.4,1-1.7,2-2.9,2.4c-5.1,1.9-10.2,3.6-15.6,5.4c0.3,0.7,0.6,1.9,1.1,2.1c2.2,0.7,4.4,1.4,6.7,1.6
		c8.5,0.8,16.9,1.5,25.4,2.2c2.7,0.2,5.4,0.2,8.1,0.3c2.3,0,4.7,0,7,0c1.2,0,2.5-0.1,3.7-0.1c5.3-0.2,10.7-0.1,16-0.8
		c2.8-0.4,5.4-1.2,8.3-0.6c1.6,0.3,4.7-0.5,5.1-1.6c2.2-6,3.8-12.3,5.8-18.5c0.2-0.7,1.6-1.1,2.4-1.6c0.8,2.8,3.5,1.9,5.2,2.9
		c1.5,1,2.6,0.8,4,0.3c1.6-0.5,3.2-1,4.8-1.3c2.5-0.4,5-0.5,7.5-0.8c0-2.9,1.6-4.7,3.7-3.6c2.1,1.1,3.8,3,5.5,4.7
		c1.1,1.1,1.9,2.6,3.1,3.6c1.8,1.4,3.9,2.4,5.6,3.8c1.4,1.2,2.6,2.7,3.9,4c-1.6,1.2-3.2,2.5-4.8,3.7c-0.5,0.3-1.1,0.5-1.7,0.6
		c-7.8,0.9-15.4,1-22.8-2.2c-2-0.9-3.9-1.9-6.1-2.9C324.9,389.2,325.7,390.9,326.9,393.2 M221.7,452.1c-0.2-16.9-0.5-34.3-0.7-51.7
		c-2.2,1.4-3.3,3.1-4.8,4.2c-2.5,1.9-5,3.8-7.8,5.2c-1.4,0.7-3.5,0.7-5.2,0.4c-1.3-0.3-2.5-1.4-3.7-2.3c-3.1-2.5-6.5-4.8-7.4-9.3
		c-0.3,0.4-0.7,0.7-0.7,1.1c-1.1,3.7-2,7.4-3.2,11c-0.8,2.2-2.2,4.2-3.1,6.4c-1.5,3.7-2.6,7.6-4.2,11.2c-2,4.5-4.4,8.7-6.4,13.2
		c-1.2,2.8-2.1,5.7-3.2,8.7c1.9,0.5,3.8,0.6,5.5,1.4c4.9,2.4,9.7,5,14.6,7.5c1,0.5,2.3,1,3.2,0.7c5.1-1.7,10.1-3.8,15.2-5.3
		C213.5,453.4,217.6,452.9,221.7,452.1 M353.8,292.9c0,0.2,0,0.3,0,0.5c2.3,1.2,4.8,2.1,6.8,3.6c1.3,0.9,2.4,2.7,2.6,4.2
		c0.1,0.9-1.3,2.6-2.5,3.1c-1.9,0.8-4.2,0.6-6.1,1.4c-4.6,1.9-9.3,2-13.9,0.7c-4.3-1.2-8.7-2.7-12.6-4.9c-1.7-0.9-2.6-2.6-4.7-1
		c-0.2,0.2-1.2-0.2-1.4-0.5c-0.5-1.2-0.8-2.5-1.2-4c0.4-0.6,0.9-1.4,1.4-2.2c-0.2-0.2-0.4-0.5-0.6-0.7c-1.1,0.5-3.2,0.9-3.3,1.6
		c-0.6,4.6-4.6,5.1-7.6,5.7c-4.9,0.9-10,0.9-14.9,0.4c-5.3-0.5-10.7-1.3-14-5.5c-0.6,0.8-1.4,2.3-1.8,2.2c-1.9-0.3-3.6-1.1-5.4-1.9
		c-1.7-0.7-3.6-2.5-5-2.1c-5.1,1.5-10.1-0.3-15.1,0c-1.8,0.1-3.7-0.8-5.6-1.2c-2.2-0.4-4.4-0.8-6.8-1.2c-0.2,0.2-0.6,0.9-1,1.4
		c1.2,0.4,2.5,0.8,3.8,1.1c6.6,1.7,13.1,3.4,19.7,4.9c5.1,1.2,10.2,2.1,15.3,3.2c0.5,0.1,1,0.2,1.4,0.2c3.6,0.6,7.1,1.1,10.7,1.7
		c3.6,0.5,7,1.9,11,1.3c3.9-0.6,8-2,12.2-0.3c5.2,2,11,3,15.9,5.5c3.2,1.6,6.3,3.2,9.9,4c6.1,1.3,12.1,2.3,18.2-0.1
		c1-0.4,2.2-0.6,3.2-0.5c3.7,0.5,7.5,1,11.2,2c4.2,1.1,8.5,1.9,11.7,5.4c1.4,1.5,3.1,1.4,3.9-0.7c0.8-2,1.4-4,2-6
		c-2.4-0.3-4.6-0.4-6.6-0.9c-3.7-1-7.7-1.6-10.7-3.8c-2.4-1.7-3.9-2.4-6.4-0.4c-0.1-1.2-0.1-2.1-0.2-2.8c-0.6,0.6-1.1,1.3-1.7,1.9
		c-0.2-0.9-0.6-1.7-0.6-2.6c0-0.8,0.3-1.7,0.5-2.4c-0.7-0.4-1.2-0.6-2-1.1c1-0.4,1.6-0.7,2.1-0.9c-0.5-1.8-1.3-3.5,1.2-3.1
		c0.7,1.4,1.2,2.3,1.7,3.2c0.1-0.1,0.3-0.2,0.4-0.3c-0.2-0.7-0.4-1.4-0.6-2.1c0.8-0.1,1.6-0.4,2.3-0.3c1.4,0.1,3.1,1,4.3,0.6
		c6.1-2,12.3-2.5,18.5-1.5c0.1-1.3,0.2-2.6,0.3-4l-20.2-0.4L353.8,292.9z M346.4,47.9c-0.2,0.2-0.4,0.4-0.6,0.6
		c-0.8-1-1.5-2.1-2.4-2.9c-3.2-3-7.1-3.9-11.3-4c-1.4,0-2.8-0.2-4.1-0.5c-2.9-0.8-5.7-2.3-8.6-2.5c-5.3-0.4-10.3,2.5-15.8,2
		c-4.3-0.5-8.7-0.4-13.1-0.5c-1.5,0-3.6-0.1-4.3,0.8c-0.8,0.9-0.5,3-0.2,4.4c0.6,2.4,1.8,4.7,2.4,7.2c1.6,7,5.8,11.6,13.1,13.9
		c-0.6-0.8-0.9-1.2-1.2-1.5c-5.1-4.8-8.6-10.6-10.8-17.2c-1.3-3.9-0.3-5.5,3.6-4.8c1.3,0.2,3,1.8,3.4,3.1c2,6.7,5.2,12.5,9.6,17.9
		c0.9,1.1,1.2,2.7,2.1,4.9c6.3,0.6,13.6,1.6,21-0.3c-0.2-0.4-0.3-0.6-0.4-0.7c-0.3-0.3-0.6-0.5-0.9-0.8
		c-5.4-5.2-11.3-10.1-13.6-17.8c-0.5-1.8,0.1-2.1,1.5-2.3c2.8-0.4,4.1,1.2,5.9,4.3c2.6,4.4,5.6,8.8,9.2,12.5
		c3.7,3.7,7.7,3.1,10.8-0.4c-4-2.5-8.2-4.9-11.9-7.8c-0.9-0.7-0.4-3.2-0.5-4.9c1.1,0.3,2.2,0.4,3.2,0.8c4.5,2.2,7.6,7.3,14.2,6.3
		c-1.3,1.6-2.1,2.5-2.8,3.5c0.3,0.2,0.6,0.4,0.8,0.6c1.2-1.7,2.7-3.4,3.3-5.3c0.2-0.6-2.1-2.1-3.4-3c-1.7-1.3-3.6-2.4-5.3-3.7
		c-0.4-0.3-0.5-1.6-0.2-2c0.4-0.5,1.5-0.8,2-0.5c3.7,1.7,7.4,3.6,11.2,5.4c0.3-0.7,1.1-2,1.5-3.3c0.3-0.8,0.3-2-0.1-2.7
		c-1.2-2.2-7.4-4.4-10.1-3.7c0,0.3-0.1,0.7,0,0.9C344.6,45.2,345.5,46.5,346.4,47.9 M208.7,370.6c-0.6,1-1.1,1.8-1.7,2.5
		c-2,1.9-3.6,3.8-4.3,6.8c-0.6,2.7-2.9,4.9-2.5,8c0.1,0.6-0.4,1.4-0.9,1.8c-2.3,2.1-1.9,4.9-1.8,7.5c0,1.4,0.8,2.8,1,4.2
		c0.3,2.9,5,5.9,7.5,4.3c3.3-2.1,6.6-4.5,9.3-7.3c3.9-4.1,2.6-9.9,3.7-14.9c0.8-3.6-0.7-7.7-1.3-12.2c-2.2,0.7-4,1.2-5.8,1.7
		c0,0.3-0.1,0.6-0.1,1C210.7,372.9,209.7,371.8,208.7,370.6 M383.5,339.1c-0.3-0.1-0.5-0.3-0.8-0.4c0-4.2-0.6-4.9-4.9-5.9
		c-0.3-0.1-0.5-0.3-0.8-0.4c-4.7-0.7-9.7-3.4-13.7,1.5c-1.9,2.2-4.2,4.4-5,7.1c-1.8,5.7,2.2,9.6,6.8,12c4.8,2.5,10.5,0.3,13-4.5
		c0.2-0.4,0.5-0.8,0.8-1.2C380.4,344.5,382,341.8,383.5,339.1 M227.4,294c1,0.8,1.8,1.8,2.9,2.1c6.5,2,13,4.1,19.7,5.8
		c7,1.8,14.1,3.2,21.2,4.6c4.8,1,9.6,1.8,14.4,2.7c1.1,0.2,2.2-0.1,3.3,0.1c11,1.8,21.9,3.4,32.8,5.4c8.8,1.7,17.5,4.1,26.3,6
		c12.8,2.8,24.8,8.9,38.4,9c0.3-1.6,0.1-2.4-2.1-2.7c-5.2-0.8-10.4-2.1-15.6-3.2c-10.7-2.2-21.4-4.4-32.1-6.7
		c-8.7-1.9-17.4-3.9-26.1-5.7c-11.6-2.5-23.3-4.9-34.9-7.3c-7.3-1.5-14.6-2.8-21.9-4.5c-7-1.7-14-3.9-20.9-5.8
		C231,293.2,229.1,292.1,227.4,294 M255.8,404.3c-0.1,3.1-0.1,6.6-0.2,10.1c0,0.5-0.4,1-0.6,1.6c-0.4,1.2-0.9,2.4-1,3.6
		c-0.4,5.4,0.1,11.1-1.2,16.3c-1,3.8,1.1,6.7,2.3,10.1c0.6,1.7,0,3.7,0,6.1c1,1.9,3.5,2.2,5.6,1.3c1.8-0.8,8-2.4,7.5-5.2
		c-0.9-4.3-1.1-8.8-1.1-13.2c0-6.6,0.6-13.2,0.9-19.8c0.2-4,0.2-8.1,0.2-11.8C266.7,403.6,258.2,403.9,255.8,404.3 M29.7,342.2
		c-0.8-0.5-1.9-1.2-3.5-2.1c4-1.3,4.8-3.1,4.4-7.1c-1.7-1-3.1-1.9-4.5-2.8c1.3-0.4,2.6-0.8,4.5-1.4c-0.9-3.4-1.9-7.1-3-11.1
		c-1.5,0.6-3.1,1.1-4.6,1.7c-2.3,0.8-3.2,2.6-3.8,4.8c-0.5,1.8-2,3.5-2.1,5.3c-0.2,4.8-0.3,9.7,0.6,14.3c0.8,4.1,0.9,9,5.6,11.6
		c1.7-1.1,3.4-1.6,3.2-4.9C26.4,347.8,28.6,345,29.7,342.2 M360.2,403.7c0.3,9.9,0.5,19.5,1,29c0.3,5.1,1.9,7.8,2.6,12.9
		c0.2,1.3,4.4,5.8,6.8,4.9c1.8-0.7,3.7-1.4,3.6-4c-0.3-4.5-0.5-9.1-0.9-13.6c-0.4-5.7-1-11.3-1.4-17c-0.2-3.7-0.3-7.4-0.4-11.3
		C369.6,404.4,362.4,404,360.2,403.7 M350.5,361.3c2,2.2,3.2,4.4,5.1,5.7c8.7,6,18.4,5.7,28.2,3.4c1.6-0.4,4-1.1,3.8-3.8
		c-0.2-2.5-1.7-3.9-4-4.5c-1-0.3-2-0.5-3.4-0.8c-0.4,2.2-1.4,3.5-4.1,2.4c0.4,1.5,1,2.7,1.5,4c0.3,0.6,0.2,1.4,0.3,2.1
		c-0.7-0.2-1.7-0.2-2.2-0.6c-2.2-2.1-2.3-4.7-0.8-7.4l-9-0.2c0,0.6,0.3,1.2,0.1,1.7c-0.3,0.6-0.9,1-1.4,1.5
		c-0.5-0.6-1.5-1.4-1.3-1.6c1.1-2.1-0.5-2.3-1.7-2.4c-3-0.1-6.3-3.6-9.1,0.5C352.4,361.3,351.7,361.2,350.5,361.3 M327.2,297
		c1.4,1.1,2.7,2.2,4,3.2c0.8,0.6,1.5,1.3,2.2,2c2.7,2.8,6.5,1.6,9.8,2.4c2.4,0.6,5,0.3,7.6,0.1c1.4-0.1,2.8-0.7,4.2-1.1
		c2.2-0.5,4.3-1.1,7.1-1.8c-3.3-4.7-7.4-6.1-11.6-7.4c-0.5,0.9-0.9,1.7-1.5,2.8c-0.5-1.1-0.8-1.7-1.1-2.4c-4.3,1.9-4.4,3.3-0.8,6.4
		c0.5,0.4,0.7,1.3,1,2c-0.3,0.2-0.5,0.5-0.8,0.7c-1.5-1.3-4.1-2.4-4.3-3.9c-0.3-2.3,1-4.9,1.6-7.3c-2.5,0-5.8-0.4-8.9-0.1
		c-2.6,0.3-5.1,1.2-7.5,2.3C327.5,295.3,327.3,296.8,327.2,297 M427.8,117.5c0.5-9.3-9.8-39.6-12.9-41.7c2.7,5.2,0.9,11.2,3.9,16.1
		c0.2,0.4,0.2,1,0.2,1.5c-0.3,3.8-0.7,7.7-1,11.5c-0.2,3.2-0.3,6.5-0.6,9.7c-0.2,2.5-0.8,4.9-1.2,7.8
		C420.4,120.6,424,119.1,427.8,117.5 M170.1,433.5c8-17.2,15.9-34.3,23.6-50.9c-10.2,15.2-20.7,30.8-31,46.2
		C165.1,430.2,167.4,431.7,170.1,433.5 M222.1,454.9c-1.3,0-2.3-0.3-3.3,0c-6,1.6-11.9,3.2-17.8,5.1c-5.2,1.7-9.9,2.9-14.6-1.6
		c-4.2-4.1-9.9-4.7-15.6-4.4c-0.3,2.8-0.3,2.8,1.5,3.3c2.5,0.7,5,1.7,7.5,2c3.3,0.4,5.2,2.3,7.1,4.8c1.9,2.4,4.3,4.5,6.7,7
		c1.5-1.6,2.5-2.6,3.5-3.7c4.1-4.3,9.7-6.1,15.2-6.6C216.7,460.4,219.7,459.2,222.1,454.9 M166.9,282.5c-18.4-4.4-36.7-8.8-55-13.2
		c1.4,1,3,1.4,4.5,2c6.3,2.5,12.4,5.5,18.8,7.6c8.1,2.6,16.4,4.4,24.7,6.5c1.3,0.3,2.9-0.4,4.3-0.1
		C166.5,285.8,167.1,284.9,166.9,282.5 M372.3,304.8c1.9,1.4,3.4,3.1,5.4,3.9c2.9,1.2,6.1,2.1,9.2,2.6c3.9,0.7,6.5-0.6,6.5-3.2
		c0.1-8.7,3.2-8.5-7.4-8.7c-0.2,0-0.4,0-0.6,0C380.9,300.2,375.9,300.1,372.3,304.8 M39.6,249.9c9.2,8,20.1,8.7,30.3,11.6
		c10.3,3,20.7,4.6,31.4,5c-4.1-1.6-8.3-2.8-12.5-4c-4.8-1.3-9.6-2.7-14.4-3.8c-9.4-2.2-18.9-4.3-28.3-6.5
		C44.2,251.8,42.3,250.9,39.6,249.9 M343.1,379.9c-5.8-4.1-12.1-2.1-18.2,0.2c-0.5,0.2-0.9,2.4-0.4,2.9c3.6,4.2,12.2,8.2,18.7,6
		c-1.2-0.9-2.2-1.7-3.1-2.5C341.1,384.3,342,382.2,343.1,379.9 M228.1,333.6c5.6,3.2,15.4-0.1,17.4-5.9c-2.5-2.5-5.2-4.1-9.1-3.2
		c-2,0.4-3.1,1-2.4,3c0.2,0.5,0.9,1,0.9,1.5c0,0.8-0.3,1.6-0.5,2.4c-0.6-0.5-1.6-0.8-1.7-1.4c-0.4-1.6-1-3.4-0.5-4.8
		c0.5-1.5,2.2-2.6,3.3-3.7c-2.1-0.7-4.6-1.5-7.6-2.5c0.4,3.2,0.9,5.5,1,7.7C228.8,329,228.4,331.3,228.1,333.6 M337.5,344
		c-3.9,0.6-2.1-2.1-2.7-3.3c-0.7-1.4-1.8-2.6-2.7-3.9c-0.4,0.4-1.1,1.3-2.3,2.5c-0.2-1.7-0.4-2.6-0.5-3.6c-1,0-1.9,0.1-2.8,0.1
		c-0.3,1.4-0.6,2.7-0.9,4c-3.3-0.6-1-2.9-1.4-4.5c-1.4,0.6-2.5,1.2-4,1.9c6.4,7.7,14.3,11.3,23.6,11.4c0-2.4,0.2-4.7,0.1-6.9
		c0-0.9-0.4-2.3-1-2.5c-2.3-0.7-4.7-1-6.9-1.5C336.4,339.8,336.9,341.8,337.5,344 M361.3,330.9c-5.1,0.2-9,3.1-10.1,7.5
		c-0.3,1.3-0.6,2.7-0.7,4.1c-0.5,4.7-0.3,9.4,5.7,11.3c1.1,0.3,2.1,1,3.1,1.6c5.5,3,11.3,3.2,17.2,2c5.5-1.2,6.9-3.8,4.4-8.7
		c-0.8,1.1-1.6,1.9-2.2,2.9c-1.9,3-8.7,5.9-12.1,5.1c-4.9-1.2-8.8-3.7-11.4-8.1c-3-5.1-2.4-10.3,2-14.2
		C358.4,333,359.8,332,361.3,330.9 M285.2,293.2c-0.3,0.3-0.5,0.6-0.8,1c0.5,0.6,0.9,1.5,1.6,1.8c3.2,1.1,6.5,2.4,9.8,2.9
		c6,1,12,0.3,17.7-1.8c1.1-0.4,1.8-1.7,2.7-2.6c-1.2-0.3-2.3-0.9-3.5-0.9c-4.1-0.2-8.3-0.3-12.4-0.1c-2,0.1-3.9,1-6,1.5
		C291.6,294.3,288.4,293.8,285.2,293.2 M225.5,380.9c0,1.7,0.3,3.4,0.1,4.9c-0.3,2.3,0.6,2.9,2.6,2.3c3.9-1.3,7.9-2.6,11.8-4
		c2.9-1,3.4-2.8,1-4.7c-2.4-1.9-5.2-3.4-6.7-4.3c-1.6,0.8-2.5,1.4-3.4,1.8c-3.2,1.5-3.4,3.5-0.7,5.8c0.7,0.6,1,1.5,1.5,2.3
		c-0.3,0.3-0.7,0.6-1,0.9C229.1,384.3,227.4,382.7,225.5,380.9 M201.1,120c1.1-0.2,2-0.5,2.9-0.6c2.7-0.3,3.3-1.3,2.7-4.1
		c-0.7-3.1-0.4-6.4,1.2-9.5c0.8-1.5,1.7-4,1-5.1c-1.6-2.7,0.1-4.7,0.4-7c0.4-3.3,1-6.6,1.5-9.9c-0.5-0.1-0.9-0.2-1.4-0.3
		c-0.8,3-1.9,6-2.5,9c-0.6,2.9,0.1,6.3-1.3,8.6c-3.2,5.5-2.6,11.7-4.6,17.4C200.9,118.8,201,119.4,201.1,120 M255.1,309.9
		c-2.6-1.4-3.1,0.7-3.3,2.8c-4.2-0.2,0.1-5.9-4.3-5.8c-0.1,0.9-0.3,1.8-0.4,2.7c-0.3,0.1-0.6,0.2-0.9,0.3c-0.7-1.5-1.4-3.1-2.2-5
		c-0.8,1.6-1.4,2.6-2,3.7c6.8,8.2,16,9.1,25.7,8.9c-1.6-4.4-2.9-5.1-6.3-3.5c-0.5-0.8-1.1-1.5-1.4-2c-1.2,0.5-2.6,1.4-3.2,1.1
		C255.8,312.7,255.6,311.2,255.1,309.9 M357.2,317.6c4.3,0.9,8.7,1.8,13,2.8c4.4,0.9,8.7,1.9,13,2.9c0.1-0.3,0.2-0.6,0.2-0.9
		c-1.4-1.1-2.6-2.5-4.1-3.1c-3.5-1.2-7.4-1.6-10.8-3.1C364.3,314.1,360.9,316.4,357.2,317.6 M442.9,345.3c-0.2,0.2-0.4,0.5-0.5,0.7
		c0.4,0.4,0.7,1,1.1,1.2c1.4,0.6,3,1,4.4,1.5c6.7,2.3,13.5,4.7,20.3,6.8c2,0.6,4.7,2.5,6.5-1.7c-4-1.1-7.9-2.1-11.8-3.4
		C456.3,348.4,448.8,349.9,442.9,345.3 M357.1,387.5c-1.7-0.8-3-1.2-4.2-1.9c-1.2-0.8-2.2-2-3.4-2.8c-3.7-2.4-5.8-1.4-6.9,3
		C349.5,391.3,352,391.2,357.1,387.5 M298.6,314.4c3.3,4.4,26.9,8.6,29.6,5.1C318.2,317.8,308.6,316.1,298.6,314.4 M89.2,258.2
		c-0.1,0.3-0.1,0.7-0.2,1c16.5,4,32.9,8,49.4,12.1c-1.1-0.8-2.5-1-3.5-1.7c-5.8-4.1-12.6-4.6-19.3-5.3c-5.3-0.6-10.6-1.1-15.6-3.5
		C96.7,259.2,92.9,259,89.2,258.2 M420.2,342.5c5.2,1.3,10.4,2.7,15.5,3.9c0.5,0.1,1.3-0.9,1.9-1.4c-0.4-0.5-0.7-1.3-1.3-1.5
		c-4-1.4-8.1-2.7-12.1-4C422,338.7,420.9,340,420.2,342.5 M201.4,294.7l0.1-3c-7.7-2-15.2-4-22.8-6c-0.1,0.3-0.2,0.5-0.2,0.8
		C186,289.2,193.5,291.9,201.4,294.7 M156.5,434.4c3.7,1.9,7.2,3.7,10.9,5.7c0.3-0.5,1.1-1.6,2.1-3.1c-3.8-1.8-7.3-3.4-10.8-5
		C158.1,432.6,157.3,433.5,156.5,434.4 M207.9,294.3c-0.3,0.2-0.6,0.3-0.8,0.4c0.6,0.6,1,1.4,1.7,1.6c3.8,1,7.7,1.7,11.6,2.6
		c0.7-2.1,0.3-2.9-1.8-3C214.9,295.6,211.4,294.9,207.9,294.3 M330,311.7c-6.5-1.7-12.2-7.3-19.6-4.4
		C316.9,308.8,323.5,310.3,330,311.7 M350.1,331.3c0.2,0.1,0.4,0.2,0.6,0.3c-0.4-0.7-0.8-1.4-1.4-2.6c-2.3,5.8-4.7,11.1-3.3,16.8
		C347.3,341.2,348.7,336.2,350.1,331.3 M266.6,311.9c0.6-1,1.1-1.6,1.5-2.2c-5.4-1.2-10.7-2.4-15.9-3.6c4,1.1,7.3,4.8,11.3,4.1
		C264.6,310.8,265.5,311.3,266.6,311.9 M155.5,274.7c-0.1,0.4-0.2,0.7-0.3,1.1c5.6,1.3,11.2,2.6,16.9,3.9c0.1-0.4,0.2-0.8,0.3-1.2
		C166.7,277.2,161.1,276,155.5,274.7 M230.1,373.6c-1.9-0.3-3.6-0.6-5.9-1.1c0.8,2.6,1.4,4.7,2,6.9
		C227.6,377.5,228.7,375.7,230.1,373.6 M408.9,364.5c-1.1,0.4-2.5,0.9-4.6,1.6c2.1,1.6,3.5,2.8,5.2,4.1
		C409.2,368,409,366.4,408.9,364.5 M350.5,325c-4.4-1.1-8.5-2-12.7-3C341.6,324.6,345.6,326.1,350.5,325 M477.7,355
		c-0.3,2.6,1.1,3.1,3,3.1c0.5,0,1.1-0.2,1.6-0.4c-0.3-0.6-0.5-1.4-1-1.6C480.2,355.5,479,355.3,477.7,355 M276.6,315.7
		c-2.9-0.5-5.3-0.8-7.6-1.2C270.5,317.2,272.1,317.6,276.6,315.7 M371.5,388c0.4-0.1,0.7-0.1,1.1-0.2c-0.1-1.7-0.1-3.3-0.2-5
		c0-0.4-0.6-0.7-0.9-1.1c-0.3,0.3-0.8,0.7-0.8,1C370.9,384.5,371.2,386.2,371.5,388 M344.9,335.3c-2.2-0.8-3.8-1.4-5.7-2.1
		C340.3,336.7,341.5,337.2,344.9,335.3 M331.9,333.4c0,0.2-0.1,0.4-0.1,0.6c1.9,0.4,3.7,0.8,5.6,1.1c0.1,0,0.4-1,0.6-1.7
		L331.9,333.4z"/>
	<path class="st18" d="M388,430.6c6.5-0.8,12.2,1.6,16.3,6.2c2.4,2.8,3.8,6.9,4.5,10.6c1,5-4.8,12.3-10.5,14.5
		c-0.2-1.4-0.4-2.9-0.5-4c2.3-2.4,4.7-4.7,6.7-7.2c2.9-3.7,1.8-8.1-1.9-11.2c-3-2.5-6.3-3.3-10-3.3C388,436.1,387.2,435,388,430.6"
		/>
	<path class="st18" d="M279.3,468.7c-2.6,4.5-5.9,7.3-11.4,6.7c-4.3-0.5-8.7-0.5-13-0.9c-6.5-0.6-11.6-4.7-12.7-11.1
		c2.4,1.6,4.1,3,6,4s3.9,2,6,2.2c8.2,1,16.5,2.8,24.5-1.2C278.8,468.3,279,468.5,279.3,468.7"/>
	<path class="st18" d="M349,454.3c-2.8,2.7-5.6,1.5-7.3,0.4c-2.3-1.5-4.2-4.1-5.6-6.6c-1.8-3.3,0.2-6.4,1.6-9.4
		c1.9-3.9,5.2-6.1,9.2-7.1c1.1-0.3,2.4,0.5,3.6,0.8c-0.6,1-1,2.3-1.9,2.9c-3.4,2.2-7.4,3.6-9.1,7.8c-1.2,2.9,0.2,6.7,3.1,7.9
		C344.6,452,346.6,453.1,349,454.3"/>
	<path class="st18" d="M418.9,455.7c-1.1-1.8-0.9-3,0.7-4.4c2-1.8,3.8-3.8,5.6-5.9c2.1-2.5,1.2-5.7-1.7-7c-1.8-0.8-3.6-1.7-5.4-2.3
		c-2.7-0.9-3.3-1.7-3.1-5c8.4-0.4,13.2,5.5,14.3,12.9C429.9,447.9,423.6,454.9,418.9,455.7"/>
	<path class="st18" d="M373.7,473.4c-1.4-3.4-4.5-2.6-6.8-3c-3.6-0.5-6-2.5-6.7-6.7c2.8,0.7,5.5,1.7,8.2,1.8c3.3,0.2,6.7,0.1,10-0.4
		c2.5-0.4,3.4,0.7,4,2.9c-2.1,0.8-4.2,2-6.4,2.4C374.1,470.8,372.9,471,373.7,473.4"/>
	<path class="st18" d="M228.9,477.1c0.6,0,1-0.2,1.1-0.1c4.5,3.2,9.8,3.7,14.8,5.3c2.1,0.6,5,1.4,4.7,5.6c-3-0.6-5.8-1-8.5-1.7
		c-2.5-0.7-4.9-1.6-7.3-2.5C230.6,482.7,230.1,479.8,228.9,477.1"/>
	<path class="st18" d="M291.3,463.9c-2.4-2.3-1.9-4.9-1.3-7.3c1.2-4.2,0.2-6.8-4-8.3c-2.7-1-3.7-2.9-4.6-5.3
		c4.1-0.9,7.9,1.3,10.7,6.1C295.2,454.2,295.4,458.6,291.3,463.9"/>
	<path class="st18" d="M325.8,455.2c-3.9,0.3-5.8-0.7-6.8-3.5c-1.5-4.3-0.2-10.1,3.5-12.9c0.7-0.6,2.9-0.7,3.1-0.3
		c0.7,1.2,2.1,2.7,0.1,4.3c-2,1.6-4.5,3-4.1,6c0.2,1.4,1.3,2.8,2.1,4.1C324.2,453.5,324.8,454,325.8,455.2"/>
	<path class="st18" d="M292,478.5c0.9,2.7-0.2,4.2-2,5.7c-3.4,3-7.3,3.9-11.7,3.9c-1.3,0-2.5,0.5-3.8,0.4c-0.7,0-1.4-0.7-2.1-1
		c0.5-0.4,1-1.1,1.6-1.3c3.5-0.8,7.3-0.5,10.4-2.8c2-1.5,4-2.9,6-4.4C290.8,478.8,291.4,478.7,292,478.5"/>
	<path class="st18" d="M400.1,475.1c4.3-1.6,7-7.2,12.9-4.8C413,473.3,405.7,476.4,400.1,475.1"/>
	<path class="st18" d="M305.1,459.7c-0.4-4.3-0.9-8.7-1.4-13.1c2.7-0.1,3.3,2.2,3.6,3.7c0.5,3.2,1.2,6.6-1.2,9.4
		C305.8,459.7,305.5,459.7,305.1,459.7"/>
	<path class="st19" d="M25.6,334.6c-0.6-0.4-1.3-1.3-2.1-1.3c-3.4,0-1.9,3.7-3.6,4.9C21.5,337.2,23.2,336.2,25.6,334.6 M23,346
		c0,0.5,0,1,0,1.6c1.2,0.1,2.4,0.2,3.6,0.3l0-2C25.3,345.9,24.1,345.9,23,346"/>
	<path d="M319.7,167.6c-0.6,1.8-1,3.8-1.9,5.4c-3.8,6.4-10.3,8.4-17,9.2c-3.3,0.4-6.1-2.2-7.8-5.1c-1.3-2.2-2-4.9-2.8-7.4
		c-0.2-0.7,0.6-2.3,0.8-2.3c1.2,0.1,3,0.3,3.5,1.1c1.4,2.2,2.1,4.8,3.2,7.2c1.4,2.9,3.3,3.3,6.1,1.6c0.9-0.5,2.4,0.1,3.2-0.4
		c2.1-1.4,4.2-3,6-4.7c1.8-1.7,3.5-3.6,5.2-5.4C318.8,167.1,319.3,167.4,319.7,167.6"/>
	<path d="M316.8,139.7c-0.2,5.5-5.7,13.1-10.2,14.5c-1.9,0.6-6-1.8-6.7-4.4c-0.9-3-2-6-2-9.1c0-2.7,1.1-5.5,2-8.1
		c0.5-1.5,1.1-1.6,2.4-0.2c1.8,1.9,2.1,3.4,0.7,5.6c-0.7,1-0.5,2.6-0.5,4c0,1.8,0.1,3.6,0.6,5.2c0.3,1,1.1,2.1,2,2.6
		c0.5,0.3,1.9-0.3,2.4-1c2.4-3.1,4.6-6.3,6.9-9.5c0.4-0.5,1.1-0.8,1.6-1.2C316.2,138.9,316.6,139.5,316.8,139.7"/>
	<path d="M235.6,119.6c-3,0.1-6.2-3-6.4-6.3c-0.1-2.6,3.1-6.8,5.1-6.9c2.2-0.1,7.3,3.7,7.4,5.5C242,115.4,238.8,119.5,235.6,119.6"
		/>
	<path d="M383.8,125.9c-1.8-1.3-3.7-2.5-5.4-3.9c-1.8-1.4-2-3.9-0.6-5.8c2.7-3.5,9.1-3.2,11.5,0.6c1,1.6-0.2,5.4-2.1,6.9
		C386.2,124.4,385.2,125,383.8,125.9"/>
	<path d="M378.4,245.9c-0.1,1-0.2,2.1-0.4,3.1c-0.2,1.4-0.4,3.9-0.7,3.9c-1.8,0.1-3.9,0-5.5-0.7c-1.4-0.6-1.8-2.2-0.7-3.8
		C372.1,247,376.5,245.4,378.4,245.9"/>
	<path d="M255.7,257c-0.4-4.4,2.2-7.2,6.1-6.8C262.5,255.1,260.7,257.1,255.7,257"/>
	<path d="M257.3,383.3c-0.5,0.5-0.8,0.9-1.2,1.3c-0.4-0.5-1.1-1.1-1-1.5c0.6-2.7,1.2-5.4,2.1-8c0.2-0.6,1.7-1.1,2.6-1
		c1.4,0.2,2.7,1.1,4.1,1.4c0.7,0.2,1.9,0.3,2.2-0.1c2.9-3.5,7.5-2.9,11.1-4.8c1.2-0.6,2.3-1.4,3.6-1.8c0.9-0.3,2.3-0.6,3-0.1
		c2.3,1.3,4.4,3,6.6,4.6c1.9,1.4,3.9,2.6,5.7,4.1c2.2,1.9,4.3,4,6.2,6.2c1.5,1.7,0.2,3.2-1.1,4.3c-5,4.3-10.7,6-17.2,4.8
		c-7.1-1.3-13.9-3.3-20.1-7.1c-0.5-0.3-1.5,0-2.2,0.3C259.2,387,257.8,386.3,257.3,383.3 M289.3,387c-0.2,0.2-0.4,0.4-0.7,0.6
		c-2.7-0.5-4.9-1.9-5.4-4.7c-0.5-2.4,2-5.6,5.5-7.2c-3.3-0.7-6.3-2-9.2-1.8c-3.4,0.2-6.8,1.7-10.1,2.7c-0.3,0.1-0.6,0.5-0.8,0.8
		c-0.8,1.4-1.2,3.5-2.4,4.1c-2.8,1.4-0.6,2.2,0.3,2.5c3.5,1.6,6.9,3.4,10.6,4.2c6.3,1.4,12.7,4.6,19.3,0.7c1.6-1,3-2.1,4.8-3.4
		c-1.3-0.7-2.4-1-2.6-1.5c-1.4-5-5.8-4.9-9.6-5.4c-1-0.1-2.5,0.6-3.1,1.4c-1.6,2.3,0.1,3.8,1.8,5.2
		C288.2,385.8,288.7,386.4,289.3,387"/>
	<path d="M228.5,348.8c2.8,1.1,4.9,2,6.9,2.8c2.6,0.9,5,0.5,7.4-0.9c1.6-1,3.6-1.3,5.4-2.1c0.7-0.3,1.3-1,1.7-1.6
		c3.5-5.2,8.2-4.3,12.4-1.2c1.1,0.8,2,1.9,2.7,3c4.2,2.2,8.5,4.4,12.7,6.6c0.6,0.3,1.3,0.6,1.8,0.9c1,0.6,2.6,1.3,2.6,2.1
		c0.1,1-0.8,2.6-1.8,3.1c-7.6,4.5-15.6,8.9-24.8,7.4c-5.5-0.9-10.7-3.5-16-5.6c-2-0.8-3.6-1.4-5.9-0.7c-3.6,1-3.9,0.3-3.6-3.4
		c0.2-2.2-0.8-4.5-1.3-6.8C228.7,351.5,228.7,350.6,228.5,348.8 M263.7,366.6c-1.4-1.8-3-3.7-4.3-5.7c-1.2-1.7-0.9-3.3,0.3-5.1
		c1.7-2.4,3.9-3.3,6.7-2.7c1,0.2,2.8,1.1,2.8,1.5c-0.1,1.8-1.1,3.1-3.4,2.4c0.5-0.7,0.9-1.3,1.4-1.9c-3.2-1-5.3,0.1-6.4,2.9
		c-0.6,1.6,2.7,5.4,5.4,6.4c-0.1,0.6-0.1,1.2-0.3,2.4c5.1-2.6,9.7-5,14.7-7.6c-2.5-1.4-4.5-2.5-6.4-3.7c-7.7-4.9-16.1-6.9-25-5.1
		c-3.2,0.7-6.3,2.3-8.9,4.2c-1.3,1-1.5,3.5-2.3,5.6C246.6,363.3,254.3,368.9,263.7,366.6 M252.2,347.8c2.7-0.1,5.5-0.3,8.4-0.4
		C257.5,344.4,253.9,344.7,252.2,347.8 M232.1,352.3c-0.3,0.1-0.6,0.3-0.9,0.4c-0.5,4.6,0.8,5.5,6.1,3.9c-1-0.3-2-0.4-3-0.4
		c-1.6,0-2.8-0.1-1.6-2.2C232.9,353.6,232.3,352.9,232.1,352.3"/>
	<path d="M264.6,335c-1.4,1.2-2.1,1.9-2.8,2.5c-0.1-0.1-0.3-0.2-0.4-0.2c0.1-0.4,0.3-0.9,0.6-1.7c-1.1,0.4-2,0.7-3.3,1.2
		c-3.3-2.7-1.9-6.3-1.3-9.9c2.7-1,5.3-1.2,7.6,1.2c0.3,0.3,0.9,0.5,1.3,0.4c4.1-1.1,8.2-2.2,12.3-3.4c0.4-0.1,0.8-0.7,1-1.2
		c1.6-3.1,4.9-4.1,7.4-1.7c3.8,3.6,8.3,5.8,12.8,8.2c2.1,1.1,3.9,2.6,5.9,4c2.2,1.5,2.5,3.7,0.7,5.7c-3.1,3.5-7.4,5.3-11.8,5.2
		c-9-0.3-18.1-1-26-6.4C267.1,337.9,264.4,338.6,264.6,335 M294.9,342.3c-0.4,0.4-0.8,0.7-1.2,1.1c-2-1.9-4-3.8-5.9-5.7
		c-0.2-0.2-0.2-0.9,0-1.1c1.8-2.4,3.6-4.7,5.4-6.9c-1-0.1-2.4-0.2-3.8-0.5c-2.5-0.5-5-1.5-7.4-1.4c-3.2,0.1-6.3,1.3-9.5,1.5
		c-3.1,0.2-5,1.8-7.1,3.9c1,0.7,1.7,1.2,2.5,1.8c2.9,1.9,5.6,4.5,8.8,5.6c4.1,1.4,8.7,1.5,13,2.5c5.5,1.3,10.2-0.5,14.7-3.5
		c0.6-0.4,1.2-2.2,1-2.4c-2.4-1.9-4.8-3.8-7.5-5.1c-0.9-0.4-2.8,0.7-4.1,1.5c-3.8,2.2-3.8,4.2-0.3,6.9
		C294,340.8,294.4,341.6,294.9,342.3"/>
	<path d="M297.9,361.8c-1.9,0.5-3.7,0.9-6,1.5c0-2.7-0.1-5,0.2-7.3c0.4-3.6,1.9-4.1,6.1-2.4c4.2-3.4,4.4-3.4,10.8-3.4
		c2.5-5.1,6.9-6.1,10.7-1.9c4,4.4,9.2,6.5,14.2,9c2.3,1.1,3.5,2.9,3.4,5c-0.1,1.4-1.6,3.4-2.9,3.9c-3.4,1.2-7,2.2-10.5,2.2
		c-7.7,0.1-15.6,0.7-22.9-3.1C299.2,364.3,297.5,363.9,297.9,361.8 M322.9,353.5c-2.6-0.6-4.3-1.2-6-1.3c-3.4-0.2-6.8-0.2-10.2,0
		c-2,0.2-4.1,0.7-5.8,1.7c-3.1,1.6-2.9,6.6,0,8.5c5.7,3.9,12.3,3.2,19.6,4.4C314.4,361.1,318.4,357.7,322.9,353.5 M325.5,358.8
		c-0.7-1.2-1.2-2-1.7-3c-0.8,0.7-1.5,1.3-2.2,1.9c-3.5,2.8-2.9,5,0.9,7.2c3.1,1.8,6,0.7,8.8,0.4c1.5-0.2,4.1-1,3.7-3.8
		c-0.1-1-6.9-5.6-7.9-5.5c-0.1,0-0.2,0.1-0.4,0.3C326.4,356.9,326.1,357.6,325.5,358.8 M312.1,349.6c1.2,0.1,2.4,0.1,3.5,0.3
		c1,0.1,1.9,0.2,2.9,0.4C314.6,347.3,314.1,347.3,312.1,349.6"/>
	<path d="M396.2,392.8c-0.8-0.7-2.1-1.2-2.4-2c-0.4-1.4-0.6-3.2,0-4.3c0.5-1.1,2.2-1.7,3.5-2.3c0.2-0.1,0.9,0.8,1.4,1.2
		c-0.4,0.4-0.7,0.8-1.1,1.1c-0.9,0.6-1.8,1.2-2.8,1.7c0.5,0.7,1,1.4,1.4,2.2c0.3,0.5,0.5,1.1,0.8,1.7
		C396.7,392.3,396.4,392.6,396.2,392.8"/>
	<path d="M380.1,388.7c-3.1-2-3-3.4,0.4-5.5C380.3,385.1,380.2,386.7,380.1,388.7"/>
	<path d="M306.3,45.9c0.4,0.4,1.9,1.2,2.3,2.4c2.1,5.7,5.1,10.9,8.5,15.9c0.5,0.7,0.4,2.2,0,2.7c-0.5,0.5-2.2,0.7-2.7,0.3
		c-2.9-2.9-5.8-5.9-8.3-9.1c-1.7-2.2-2.8-4.9-4.2-7.4C300.4,47.9,301.8,45.9,306.3,45.9"/>
	<path d="M373.1,341.4c-0.6,2.4-2.1,3.5-4.4,2.7c-1.1-0.4-2.3-1.4-2.7-2.4c-0.3-0.8,0.2-2.9,0.7-3
		C369.4,338.1,371.5,339.2,373.1,341.4"/>
	<path d="M25.6,334.6c-2.4,1.6-4.1,2.6-5.7,3.7c1.7-1.2,0.2-4.9,3.6-4.9C24.2,333.3,24.9,334.2,25.6,334.6"/>
	<path d="M23,346c1.2-0.1,2.4-0.1,3.6-0.2c0,0.7,0,1.4,0,2c-1.2-0.1-2.4-0.2-3.6-0.3C22.9,347,22.9,346.5,23,346"/>
	<path d="M390.8,305.2c-0.7,1.1-1.5,2.2-2.2,3.2c-0.4-0.6-1.1-1.3-1-1.7c0.4-1,1.3-1.7,1.9-2.6C389.9,304.5,390.4,304.9,390.8,305.2
		"/>
	<path d="M338,344.2c0.5-1.9,0.9-3.2,1.2-4.6c0.5,0.3,1.4,0.6,1.4,0.8C340.7,341.8,341.5,343.7,338,344.2"/>
	<path d="M292.3,382.3c1.1,1,2,1.8,3.4,3.1c-2.2,0.1-3.6,0.1-5.7,0.2C290.8,384.4,291.5,383.5,292.3,382.3"/>
	<path d="M264.8,360.9c1-3.2,2.7-2,4-1.6c0.3,0.1,0.3,1.1,0.4,1.7L264.8,360.9z"/>
	<path d="M273.5,335.6c0.3-1.7,0.5-3.5,0.8-5.2c0-0.2,1-0.5,1.2-0.4c0.4,0.3,0.9,1,0.8,1.4c-0.3,1.5-0.9,2.9-1.4,4.4
		C274.4,335.8,273.9,335.7,273.5,335.6"/>
	<path d="M286.4,330.2c1.5,1,1.8,3.8,0.6,4.3c-0.3,0.2-1.6-0.7-1.6-1.1C285.5,332.3,286,331.3,286.4,330.2"/>
	<path d="M271,330.4c0.1,1.5,0.2,3,0.4,5.1c-1-0.6-2.2-0.9-2.2-1.3c0-1.3,0.4-2.6,0.6-3.9C270.3,330.3,270.7,330.4,271,330.4"/>
	<path d="M281.6,335.9c-0.3,1.4-0.7,2.7-1,4.1c-0.3,0-0.6,0-0.9,0.1c-0.1-1.2-0.5-2.4-0.3-3.5c0.1-0.5,1.1-0.9,1.6-1.3L281.6,335.9z
		"/>
	<path d="M308.3,353.5c-0.3,1.5-0.7,2.9-1,4.5C304.3,356.6,304.5,355.7,308.3,353.5"/>
	<path d="M303.8,354.9c-0.5,1.4-1,2.8-1.4,4.1l-0.8,0.1c-0.1-1.1-0.5-2.3-0.2-3.4c0.2-0.6,1.3-1,2-1.5
		C303.5,354.5,303.7,354.7,303.8,354.9"/>
</g>
</svg>
