<?xml version="1.0" encoding="utf-8"?>
<!-- Generator: Adobe Illustrator 26.3.1, SVG Export Plug-In . SVG Version: 6.00 Build 0)  -->
<svg version="1.1" id="Layer_2" xmlns="http://www.w3.org/2000/svg" xmlns:xlink="http://www.w3.org/1999/xlink" x="0px" y="0px"
	 viewBox="0 0 500 500" style="enable-background:new 0 0 500 500;" xml:space="preserve">
<style type="text/css">
	.st0{clip-path:url(#SVGID_00000132058341538986579890000018148670224942988425_);fill:#D2C66D;}
	.st1{clip-path:url(#SVGID_00000132058341538986579890000018148670224942988425_);fill:#79763A;}
	.st2{clip-path:url(#SVGID_00000132058341538986579890000018148670224942988425_);}
</style>
<g>
	<g>
		<defs>
			<rect id="SVGID_1_" x="7.3" y="80.5" width="485.3" height="338.9"/>
		</defs>
		<clipPath id="SVGID_00000013186097233677756820000016094764183160998030_">
			<use xlink:href="#SVGID_1_"  style="overflow:visible;"/>
		</clipPath>
		<path style="clip-path:url(#SVGID_00000013186097233677756820000016094764183160998030_);fill:#D2C66D;" d="M155,180.3l22.1-15
			c0,0,20.9-6.6,22.7-6.6c1.8,0,14.4,3,14.4,3l13.8-10.2c0,0,22.1,8.4,26.9,7.8c4.8-0.6,29.3-2.4,29.3-2.4l42.5,22.1l16.7,13.2
			l9-20.9l-9-25.1l-13.2,2.4L296.8,133l-20.9-23.3l40.1,5.4l-8.4-15.6l24.5,5.4l15.6,11.4l7.8,17.9l12,16.8l-1.8,26.3l-12,31.1
			l3,7.8l16.2-18.5l20.9-66.4l-6.6-38.3l20.3,22.1l-7.8,40.7l-16.8,49.1l-15,16.8l-19.7,16.2l-18.5,40.1l10.8,1.8l20.9-31.1
			l16.2-16.7l41.9-19.7l32.3,9.6l23.3,20.3l-12,4.8l-34.7-18.5l-41.3,13.2l-10.2,18.5c0,0,58,6,60.4,6.6c2.4,0.6,29.9,18,29.9,18
			l7.2,13.8l-4.8,6l-20.9-17.4l-17.4-9.6l-40.1-4.8l-18.5,19.1L347,316.1l47.3,3l13.2,14.4l15.6,43.1l-5.4,12.6l-23.3,22.1
			c0,0,6-21.5,6.6-23.3c0.6-1.8,4.2-7.8,4.2-7.8L384.7,334l-38.3,8.4L314.1,331l-16.2-7.8l-13.2,15l-30.5,12.6l-31.1-1.8l-28.7-10.8
			l-40.1,17.4l-47.3-3.6l-17.9,44.9l8.4,1.8l26.3-2.4l-9,12.6l-28.7,1.8l-9.6-23.3l16.2-47.9l75.4-10.2l-47.3-22.7l-19.1-15l-42.5,9
			l-36.5,25.1l20.9,37.1l-4.2,3l-19.1-18.5l-1.8-24.5l26.9-37.1l69.4-13.2l-12-12L67,249.7l-13.2-3l-25.7,17.9l-12.6-4.8l10.2-12
			l38.9-16.7l44.9,16.2l-14.4-26.9l-17.4-16.8l-15.6-29.9l7.2-37.1l4.8,5.4l2.4,32.3l23.9,35.9l20.9,12v-29.9l-12-13.8l7.2-25.1
			l-1.8-25.7l8.4-18.5l14.4-11.4l-0.6,18.5l23.3-25.1l1.2,24.5l-7.8,17.9l-15.6,20.9l9,13.2l0.6,14.4L155,180.3z"/>
		<path style="clip-path:url(#SVGID_00000013186097233677756820000016094764183160998030_);fill:#79763A;" d="M218.1,307.7
			c0,4.5-3.6,8.1-8.1,8.1s-8.1-3.6-8.1-8.1c0-4.5,3.6-8.1,8.1-8.1S218.1,303.2,218.1,307.7"/>
		<path style="clip-path:url(#SVGID_00000013186097233677756820000016094764183160998030_);fill:#79763A;" d="M265.7,317.3
			c0,6.3-5.1,11.4-11.4,11.4c-6.3,0-11.4-5.1-11.4-11.4c0-6.3,5.1-11.4,11.4-11.4C260.6,305.9,265.7,311,265.7,317.3"/>
		<path style="clip-path:url(#SVGID_00000013186097233677756820000016094764183160998030_);fill:#79763A;" d="M290.2,281.1
			c0,4.5-3.6,8.1-8.1,8.1s-8.1-3.6-8.1-8.1c0-4.5,3.6-8.1,8.1-8.1S290.2,276.6,290.2,281.1"/>
		<path style="clip-path:url(#SVGID_00000013186097233677756820000016094764183160998030_);fill:#79763A;" d="M242.6,288.6
			c0,3.5-2.8,6.3-6.3,6.3c-3.5,0-6.3-2.8-6.3-6.3c0-3.5,2.8-6.3,6.3-6.3C239.8,282.3,242.6,285.1,242.6,288.6"/>
		<path style="clip-path:url(#SVGID_00000013186097233677756820000016094764183160998030_);fill:#79763A;" d="M296.2,324.5
			c0,5-4,9-9,9c-5,0-9-4-9-9c0-5,4-9,9-9C292.2,315.5,296.2,319.5,296.2,324.5"/>
		<path style="clip-path:url(#SVGID_00000013186097233677756820000016094764183160998030_);fill:#79763A;" d="M214.2,338.8
			c0-5.3,4.3-9.6,9.6-9.6c5.3,0,9.6,4.3,9.6,9.6c0,5.3-4.3,9.6-9.6,9.6C218.5,348.4,214.2,344.1,214.2,338.8"/>
		<path style="clip-path:url(#SVGID_00000013186097233677756820000016094764183160998030_);fill:#79763A;" d="M193.9,267.9
			c0,2.8-2.3,5.1-5.1,5.1c-2.8,0-5.1-2.3-5.1-5.1c0-2.8,2.3-5.1,5.1-5.1C191.6,262.8,193.9,265.1,193.9,267.9"/>
		<path style="clip-path:url(#SVGID_00000013186097233677756820000016094764183160998030_);fill:#79763A;" d="M171.7,286.5
			c0,2.1,1.7,3.9,3.9,3.9s3.9-1.7,3.9-3.9c0-2.1-1.7-3.9-3.9-3.9S171.7,284.3,171.7,286.5"/>
		<path style="clip-path:url(#SVGID_00000013186097233677756820000016094764183160998030_);fill:#79763A;" d="M259.7,261.6
			c0,1.3-1.1,2.4-2.4,2.4c-1.3,0-2.4-1.1-2.4-2.4c0-1.3,1.1-2.4,2.4-2.4C258.6,259.2,259.7,260.3,259.7,261.6"/>
		<path style="clip-path:url(#SVGID_00000013186097233677756820000016094764183160998030_);fill:#79763A;" d="M278.8,299.9
			c0,1.3-1.1,2.4-2.4,2.4c-1.3,0-2.4-1.1-2.4-2.4c0-1.3,1.1-2.4,2.4-2.4C277.8,297.5,278.8,298.6,278.8,299.9"/>
		<path style="clip-path:url(#SVGID_00000013186097233677756820000016094764183160998030_);fill:#79763A;" d="M298.6,298.1
			c0,1.3-1.1,2.4-2.4,2.4c-1.3,0-2.4-1.1-2.4-2.4c0-1.3,1.1-2.4,2.4-2.4C297.5,295.7,298.6,296.8,298.6,298.1"/>
		<path style="clip-path:url(#SVGID_00000013186097233677756820000016094764183160998030_);fill:#79763A;" d="M314.9,315.3
			c0,1.3-1.1,2.4-2.4,2.4c-1.3,0-2.4-1.1-2.4-2.4c0-1.3,1.1-2.4,2.4-2.4C313.9,312.9,314.9,314,314.9,315.3"/>
		<path style="clip-path:url(#SVGID_00000013186097233677756820000016094764183160998030_);fill:#79763A;" d="M323.7,306.1
			c0,1.3-1.1,2.4-2.4,2.4c-1.3,0-2.4-1.1-2.4-2.4c0-1.3,1.1-2.4,2.4-2.4C322.6,303.7,323.7,304.8,323.7,306.1"/>
		<path style="clip-path:url(#SVGID_00000013186097233677756820000016094764183160998030_);fill:#79763A;" d="M334.1,309.3
			c0,1.3-1.1,2.4-2.4,2.4c-1.3,0-2.4-1.1-2.4-2.4c0-1.3,1.1-2.4,2.4-2.4C333,306.9,334.1,308,334.1,309.3"/>
		<path style="clip-path:url(#SVGID_00000013186097233677756820000016094764183160998030_);fill:#79763A;" d="M337.7,329.2
			c0,1.3-1.1,2.4-2.4,2.4c-1.3,0-2.4-1.1-2.4-2.4c0-1.3,1.1-2.4,2.4-2.4C336.6,326.8,337.7,327.9,337.7,329.2"/>
		<path style="clip-path:url(#SVGID_00000013186097233677756820000016094764183160998030_);fill:#79763A;" d="M273.4,329.8
			c0,1.3-1.1,2.4-2.4,2.4c-1.3,0-2.4-1.1-2.4-2.4c0-1.3,1.1-2.4,2.4-2.4C272.4,327.4,273.4,328.5,273.4,329.8"/>
		<path style="clip-path:url(#SVGID_00000013186097233677756820000016094764183160998030_);fill:#79763A;" d="M254.9,337
			c0,1.3-1.1,2.4-2.4,2.4c-1.3,0-2.4-1.1-2.4-2.4c0-1.3,1.1-2.4,2.4-2.4C253.8,334.6,254.9,335.7,254.9,337"/>
		<path style="clip-path:url(#SVGID_00000013186097233677756820000016094764183160998030_);fill:#79763A;" d="M232.8,317.9
			c0,1.3-1.1,2.4-2.4,2.4c-1.3,0-2.4-1.1-2.4-2.4c0-1.3,1.1-2.4,2.4-2.4C231.7,315.5,232.8,316.6,232.8,317.9"/>
		<path style="clip-path:url(#SVGID_00000013186097233677756820000016094764183160998030_);fill:#79763A;" d="M213,325.1
			c0,1.3-1.1,2.4-2.4,2.4c-1.3,0-2.4-1.1-2.4-2.4c0-1.3,1.1-2.4,2.4-2.4C212,322.7,213,323.7,213,325.1"/>
		<path style="clip-path:url(#SVGID_00000013186097233677756820000016094764183160998030_);fill:#79763A;" d="M232.2,302.9
			c0,1.3-1.1,2.4-2.4,2.4c-1.3,0-2.4-1.1-2.4-2.4c0-1.3,1.1-2.4,2.4-2.4C231.1,300.5,232.2,301.6,232.2,302.9"/>
		<path style="clip-path:url(#SVGID_00000013186097233677756820000016094764183160998030_);fill:#79763A;" d="M222.8,285.4
			c0,1.3-1.1,2.4-2.4,2.4c-1.3,0-2.4-1.1-2.4-2.4c0-1.3,1.1-2.4,2.4-2.4C221.7,283,222.8,284.1,222.8,285.4"/>
		<path style="clip-path:url(#SVGID_00000013186097233677756820000016094764183160998030_);fill:#79763A;" d="M205.6,287.4
			c0,1.3-1.1,2.4-2.4,2.4c-1.3,0-2.4-1.1-2.4-2.4c0-1.3,1.1-2.4,2.4-2.4C204.6,285,205.6,286,205.6,287.4"/>
		<path style="clip-path:url(#SVGID_00000013186097233677756820000016094764183160998030_);fill:#79763A;" d="M198.1,303.3
			c0,1.3-1.1,2.4-2.4,2.4c-1.3,0-2.4-1.1-2.4-2.4c0-1.3,1.1-2.4,2.4-2.4C197,300.9,198.1,302,198.1,303.3"/>
		<path style="clip-path:url(#SVGID_00000013186097233677756820000016094764183160998030_);fill:#79763A;" d="M198.1,318.9
			c0,1.3-1.1,2.4-2.4,2.4c-1.3,0-2.4-1.1-2.4-2.4c0-1.3,1.1-2.4,2.4-2.4C197,316.5,198.1,317.6,198.1,318.9"/>
		<path style="clip-path:url(#SVGID_00000013186097233677756820000016094764183160998030_);fill:#79763A;" d="M172.9,337.6
			c0,1.3-1.1,2.4-2.4,2.4c-1.3,0-2.4-1.1-2.4-2.4c0-1.3,1.1-2.4,2.4-2.4C171.9,335.2,172.9,336.3,172.9,337.6"/>
		<path style="clip-path:url(#SVGID_00000013186097233677756820000016094764183160998030_);fill:#79763A;" d="M144.6,306.5
			c0,1.3-1.1,2.4-2.4,2.4c-1.3,0-2.4-1.1-2.4-2.4c0-1.3,1.1-2.4,2.4-2.4C143.5,304.1,144.6,305.2,144.6,306.5"/>
		<path style="clip-path:url(#SVGID_00000013186097233677756820000016094764183160998030_);fill:#79763A;" d="M159.8,310.1
			c0,1.3-1.1,2.4-2.4,2.4c-1.3,0-2.4-1.1-2.4-2.4c0-1.3,1.1-2.4,2.4-2.4C158.7,307.7,159.8,308.8,159.8,310.1"/>
		<path style="clip-path:url(#SVGID_00000013186097233677756820000016094764183160998030_);" d="M381.6,256.6
			c8.5,0.6,17.5,1,26.4,1.8c7.9,0.8,15.7,1.7,23.5,3.1c6.9,1.3,13.8,2.9,19.7,7.6c5.3,4.2,11.6,7.2,16.2,12c4.9,5,9.3,11,12.2,17.3
			c3.9,8.7,6,18.2,9.4,27.2c1.2,3.2,1.5,6.5,2.3,9.6c1.4,6-1.9,4.5-3.9,3.6c-4.8-6.1-9.8-12.1-14.4-18.4c-3.1-4.3-7.1-8.5-8.4-13.4
			c-3.5-13.4-15.5-15.4-25.3-20.2c-6.2-3.1-12.9-5.1-19.4-7.6c-1.3-0.5-2.7-0.9-4.1-1c-5.9-0.8-11.8-1-17.6-2.3
			c-4-0.9-5.7-0.1-5.3,3.9c0.5,5.2-2.3,7.4-6.7,9.3c-11.9,5-21.3,13-28.9,24.2c5.7-0.9,10.9-1.9,16-2.6c1.5-0.2,3.1,0.5,4.7,0.7
			c5.4,0.7,11,0.8,16.2,2.2c3.4,0.9,7.1,3.2,9.3,5.9c6.2,7.9,9.2,17.3,12.3,26.8c2.7,7.9,7.1,15.1,10.2,22.9c3.1,7.8,1,21-8.1,26.7
			c-8.2,5.1-15.6,11.2-21.5,18.9c-2.6,3.4-6.1,2.5-8.6,1.1c-1.3-0.7-2-4.9-1.2-6.7c4-8.8,8.6-17.2,13-25.8c0.6-1.1,1.3-2.2,2-3.4
			c-4.2-8.2-8.4-16.5-12.7-24.8c-2-4-3.7-8.2-6.2-11.9c-0.8-1.2-3.8-1.7-5.6-1.4c-8.4,1.3-16.7,3.4-25.1,4.5c-4.3,0.5-9,0.4-13.1-1
			c-8.1-2.8-15.8-6.7-23.7-10.1c-4.4-1.9-8.8-3.9-13.2-5.9c-2.1,2.5-3.9,5.4-6.4,7.2c-3.3,2.4-7.3,3.8-10.8,5.9
			c-3.7,2.2-7.1,4.2-11.8,4.5c-3.4,0.3-6.4,4.3-9.9,5.9c-2.4,1.1-5.4,1.2-8.2,1.4c-5.3,0.4-10.7,0-16,0.7
			c-11.7,1.7-21.9-1.7-31.7-7.9c-1.4-0.9-3.7-0.4-5.6-0.3c-2.2,0.1-4.5,0.3-6.7,0.7c-5.1,1.1-10.5,1.7-15.3,3.7
			c-13.6,5.5-27.5,9.5-42.2,8.9c-7.5-0.3-14.9-2.3-22.4-3.1c-1.5-0.2-4,1.1-4.6,2.4c-4.5,9.4-8.7,19-13,28.5
			c-0.7,1.6-1.3,3.3-2.2,5.7c1.6,0.3,3.3,1.1,4.8,0.9c8.6-1.3,17.1-2.5,25.6-4.2c7.6-1.5,14.5-1.8,17.2,7.9
			c-2.8,1.2-6.4,2.7-10.1,4.2c-3.9,1.6-8.5,1.8-10.6,6.8c-0.7,1.7-3.8,2.7-6.1,3.4c-3.3,1-7.6,0.3-10.1,2.2
			c-5.9,4.4-12.3,0.1-18.4,1.7c-1.5,0.4-4.7-4.8-7-7.5c-0.4-0.5,0-1.9-0.4-2.3c-8-8-7.3-18-5.4-27.7c2.3-11.3,5.4-22.4,8.8-33.4
			c1.4-4.5,4.5-8.5,7.1-12.5c0.7-1.1,2.3-2.1,3.5-2.1c6-0.2,12,0,18-0.2c9.8-0.2,19.5-0.4,29.3-1c4.6-0.3,9.1-1.5,13.6-2.3
			c0-0.5,0-0.9,0.1-1.4c-7.3-2.5-14.7-4.7-21.7-7.8c-6.2-2.7-11.9-6.3-17.8-9.6c-4.2-2.3-8.5-4.7-12.6-7.1c-0.8-0.5-1.6-1.1-2-1.8
			c-1-1.7-1.7-4.7-2.8-4.9c-2.5-0.4-5.5,0.2-8,1.1c-8.1,2.8-15.9,7.6-24.2,8.6c-11.1,1.2-15.9,10.9-24.6,15.1c-3.6,1.7-7,4-10,6.6
			c-1.3,1.1-2.4,4.3-1.7,5.5c4.9,8.8,10.2,17.4,15.4,26c1.3,2.2,3.9,4.1,4.1,6.4c0.3,3-0.5,6.6-2.2,9c-0.7,1-5.5,0.5-7.2-0.9
			c-4.8-3.9-9.4-8.3-13.4-13.1c-4.2-5-8.1-10.3-11.4-16c-2.9-4.9-4.6-10.5-7.1-16.2c8.6-1.3,9.1-9.6,12.6-15.1
			c6.6-10.3,13.2-20.6,22.3-28.7c3.8-3.4,9.6-5.1,14.8-6.1c13.2-2.7,26.6-4.8,39.9-6.9c3.2-0.5,6.5-0.1,9.7-0.1
			c0.2-0.5,0.4-1,0.7-1.5c-3.7-1.8-7.2-3.9-11-5.3c-7-2.5-14.6-3.9-21.2-7.2c-7.5-3.7-15.1-3.8-22.8-3.5c-2.1,0.1-4.5,1.9-6,3.6
			c-4.1,4.6-11.4,6.1-12.8,13.4c-0.1,0.6-2.1,1.5-2.7,1.2c-2.9-1.4-3.7-0.6-5.2,2.4c-2.2,4.3-3.7,8.6-4.8,13.3
			c-1.2,5.1-4.8,9.6-8.3,14.1c-5.9-14.4-5-28.9-0.8-43.5c-0.5,0-0.9,0-1.4,0c3.2-3.2,6.1-7.1,9.8-9.5c7.5-5,15.5-9.1,23.3-13.7
			c3-1.8,5.9-3.8,8.6-6c4.5-3.8,9.3-3.2,14.2-1.4c10.9,4.1,21.8,8.4,32.6,12.6c0.4-0.5,0.8-1,1.2-1.5c-4.5-4.5-8.6-9.6-13.6-13.4
			c-7.1-5.4-10.5-13.2-15.4-20.1c-3.5-5-6.9-10-7.7-16.3c-0.1-0.7-0.4-1.6-0.9-2c-5.1-4.4-4.9-10-3.9-15.8
			c1.3-7.2,2.8-14.5,3.7-21.8c0.4-3.3-1.1-6.8-0.8-10.1c0.9-10.2,7.6-17.3,14.3-24.2c1.3-1.3,2.2-2.9,3.3-4.4
			c1.4-1.9,2.9-3.8,4.9-6.4c1.5,4.1,2.8,7.7,1.8,11.7c-2.2,9-4.2,18.1-6.7,27c-2.5,8.8-1,17.6-0.7,26.4c0.1,2.1,1.8,4.4,3.1,6.3
			c2,3,4.3,5.9,6.7,8.5c7.9,8.6,11.5,20.8,22.9,26.3c2,1,3.5,2.9,5.5,4.6c0-5,0.7-10.2-0.3-15c-0.5-2.7-3.5-5.2-6-7.1
			c-6.6-5-8.4-9.2-6.1-17.1c1-3.5,2.1-7.1,3.7-10.4c2.6-5.5,3.7-10.7,0.1-16.2c-0.4-0.6-0.3-1.6-0.2-2.4c0.6-5.6,1.4-11.3,1.7-16.9
			c0.6-11.4,8.3-18.5,15-26.3c3-3.5,6.6-6.4,10.3-9.2c3.4-2.6,7.2-3.3,10.3,0.3c-1.2,3.5-2.4,7-3.5,10.5c0.4,0.2,0.9,0.4,1.3,0.6
			c4.3-6.7,8.4-13.6,13.1-20.1c1.3-1.8,4.3-2.8,6.6-3.1c1.1-0.1,2.9,2.3,3.5,3.8c0.6,1.7,0.2,3.8,0.1,5.7c-0.1,2.4-0.9,4.9-0.5,7.2
			c2.4,13.8-2.1,25.9-9.1,37.2c-3.5,5.7-8.3,10.5-12.5,15.7c-1.8,2.2-2.1,3.6,0.5,5.9c5.5,4.9,7.7,11.6,7.5,19.8
			c1.4-1.1,2.4-1.5,3-2.3c6.6-8.9,13.9-16.3,26.2-16.9c5.6-0.3,11-2.5,16.5-3.7c1.2-0.3,2.9-0.6,3.9,0c7.4,4.2,12.5-0.9,17.7-4.5
			c6.2-4.3,12.4-1.9,17.9,0.3c8.8,3.6,17.6,5,26.9,3.6c4-0.6,8.1-1.2,12.1-1.4c9-0.5,16.9,1.9,24.2,7.8c4.9,3.9,11.1,6.1,17,8.7
			c8.2,3.7,15.9,7.7,20.1,16.3c0.7,1.4,2.7,2.2,3.8,3c2.2-4.8,4.4-9.5,6.6-14.2c-8.5-4.6-7.1-14.6-10.1-22.7
			c-12.7,2.2-23.6-3.3-34.2-9.6c-6-3.5-11.7-7.4-17.4-11.4c-3.6-2.5-7.2-4.7-8-10.3c-0.6-3.8-5.1-7.1-7.9-10.5
			c-1.1-1.3-2.5-2.2-3.7-3.4c2.1-1.4,4.4-4.2,6.3-4c4.7,0.6,9.1,2.9,13.7,4.1c6.7,1.6,13.5,2.8,20.3,4.2c0.3-0.5,0.6-1,0.9-1.5
			c-4.2-2.6-8.3-5.3-12.5-7.8c-2.2-1.3-4.8-1.9-7-3.3c-1.3-0.9-2.1-2.6-3.1-3.9c1.6-1.1,3.2-3.3,4.6-3.1c6.2,0.7,12.3,2.3,18.6,3
			c10.6,1.3,19.9,6,29.3,10.5c8.1,3.9,13,11,17,18.6c2.4,4.5,3.3,9.7,5.4,14.3c0.8,1.9,2.9,3.3,4.5,4.9c1.4,1.5,3.6,2.7,4.1,4.4
			c3.2,11,3.8,22.3,1.8,33.6c-0.3,1.6-1.4,3.2-2.3,4.7c-0.4,0.7-1.5,1.4-1.4,1.8c2,6.3-3.4,6.5-7,8.9c4,5-3.6,8.5-3.1,13.5
			c0.6,0.3,1.3,0.5,1.9,0.8c1.4-2.7,2.8-5.4,4.2-8c0.3-0.6,0.5-1.2,0.9-1.8c8.8-11.9,10.6-26.7,16.7-39.8c2-4.2,3.1-8.8,4.8-13.2
			c1.5-3.8,2.7-7.3,1.4-11.7c-0.8-2.9,0.6-6.3,0.7-9.5c0.3-10.8-2.6-20.9-6.6-30.8c-0.3-0.7-0.3-1.8-0.8-2.3
			c-4.1-4-5.3-8.2-0.6-12.5c8.3,2,12.1,9.1,16.7,15.6c2.7,3.8,6.1,7.2,9.8,10.1c3.4,2.7,4.3,5.9,5.3,9.8c1.3,5.2,2,9.9-2.1,14.1
			c0.7,16.2-7.2,30.3-10.9,45.4c-1.3,5.4-3.8,10.5-5.7,15.8c-0.6,1.6-0.5,3.5-1.2,5.1c-1.6,3.7-3.2,7.5-5.3,10.9
			c-1.9,3-4.3,5.7-6.8,8.2c-6.3,6.4-12.8,12.7-19.3,18.9c-0.4,0.4-1.2,0.8-1.8,0.7c-7.7-0.1-7.9,6.1-8.9,11.1
			c-1.7,9.2-7,16.4-12.1,23.8c-1.1,1.7-2.2,3.4-3.3,5.1c0.5,0.3,0.9,0.7,1.4,1c2.4-3.2,5-6.2,7-9.6c2.9-4.8,5.3-9.6,10.7-12.7
			c2.7-1.6,3.7-6,6.1-8.6c4.9-5.2,9.5-11,15.4-14.9c8.5-5.6,18.1-9.5,27.1-14.3c4.7-2.6,9.2-5.7,13.8-8.5c1-0.6,2.5-1.2,3.5-1
			c17.8,3.2,34.2,9.8,49.1,19.9c2.6,1.7,4.4,4.6,6.5,7c0.4,0.5,0.5,1.4,0.9,1.6c7.7,3.1,5.8,9.6,6,15.7c0.2,5.3,1.6,10.6,2.3,16
			c0.4,3.2,0.9,6.4,0.7,9.6c-0.1,1.5-1.2,3.8-2.5,4.3c-1.1,0.5-3.7-0.4-4.5-1.5c-2.8-3.8-5.1-7.8-7.5-11.9
			c-3.1-5.2-5.4-11.1-9.4-15.6c-2.8-3.2-7.6-4.7-11.6-6.8c-6.7-3.5-13.5-6.9-20.2-10.2c-0.8-0.4-1.9-0.8-2.7-0.6
			c-3.9,0.8-7.9,1.6-11.6,2.8c-7.5,2.5-14.8,5.2-22.2,7.9c-0.3,0.1-0.8-0.1-1,0.1C388.1,248.9,384.7,253,381.6,256.6 M136.5,226.4
			c1.7,3.6,3.8,8.1,6.1,12.6c1.5,2.9,3.3,5.6,4.8,8.4c5.7,10.5,10.1,21.6,19.3,30.1c8.8,8.2,12.9,19.3,17.2,30.4
			c3.6,9.4,8.4,17.9,18.9,21.3c0.5,0.2,1.3,0.5,1.5,0.9c6.5,12.2,17.8,14.6,30.1,14.7c6.3,0.1,12.6-0.5,18.9-0.9
			c1.2-0.1,2.5-0.6,3.7-0.8c3.4-0.7,6.8-1.6,10.3-2c7.8-0.9,15.3-4.3,19.8-9.8c8.4-10.2,15.1-21.9,22.1-33.1
			c4.4-7.1,7.6-14.8,12.1-21.9c8.5-13.4,14.3-28,20.4-42.5c1.2-2.9,2.6-5.9,4.6-8.3c4.8-5.7,5.2-13.6,0.7-19.6
			c-0.8-1.1-0.8-2.7-1.2-4.1c-0.4-1.4-0.2-3.2-1.1-4.1c-7.8-7.2-16.6-13-26.1-17.7c-5.7-2.8-11.9-5-17-8.7c-7.2-5.2-14.2-9.2-23.4-7
			c-0.6,0.1-1.5,0-1.8-0.4c-3.4-4.1-7.2-2-11.1-1.1c-4,0.9-8.5,2.7-12,1.7c-7.4-2.2-14.3-6.1-21.5-9.1c-1.2-0.5-3.2-0.2-4.2,0.5
			c-4,2.9-7.6,6.2-11.6,9.1c-1,0.8-3.1,1.3-4,0.8c-4.8-2.7-9.7-2.9-14.9-1.4c-5.5,1.5-11.3,2.3-16.5,4.6c-4.9,2.1-9,6.1-13.9,8.6
			c-6.8,3.5-9.6,9.8-12.1,16.1c-2,5.1-1.3,11-5.4,15.7C144.6,214.3,141.1,220,136.5,226.4 M308.2,310c-0.3,2.7-0.5,5.1-0.9,7.6
			c-0.7,4.6,0.3,5.6,4.9,4.2c5.3-1.6,10.6-3.3,15.7-5.4c4.8-2,10.2-3.6,14-6.9c11.3-9.6,22.8-18.8,34.9-27.3
			c2.4-1.7,3.8-6.4,3.7-9.6c-0.1-4.5-5.2-5.7-8.7-2.8c-3.9,3.3-7.9,6.5-12.1,9.4c-11.2,8-22.5,16-34,23.7
			C320.6,306.5,315.7,311.6,308.2,310 M127.6,126.2c1.3-3.8,2.6-7.3,3.7-10.8c1-3.4,1.7-6.8,2.9-11.3
			c-15.7,13.4-15.9,29.9-13.8,46.7c3.6,0,7.2,0.1,10.8,0c1.8-0.1,4.1,0.1,5.1-0.9c3.4-3.4,6.7-7.1,9.4-11.1c3-4.5,5-9.7,7.8-14.4
			c4.8-7.8,2.2-16.4,3.4-24.6c-5.9,7.5-11.5,15-16.3,22.9C136.4,129.6,135.4,130.3,127.6,126.2 M116,280.8c-1.2,0.9-2.5,2.1-3.9,2.9
			c-3.4,2-4.4,9.1-1.3,11c6.9,4.4,13.7,9.3,21.1,12.6c10.4,4.6,21.2,8.2,32,11.8c4,1.3,8,5,12.5,1c-0.2-4.2-3.9-3.2-6.2-4.3
			c-6.3-3-12.5-6.3-18.6-9.7c-3.4-1.9-6.8-4.2-9.8-6.8c-3-2.6-5.2-6.3-8.5-8.5C127.9,287.1,121.8,284.1,116,280.8 M284.8,115.3
			c3.1,3.1,5.9,7.1,9.7,9.6c11.5,7.7,22.8,16.1,36.9,19c5.4,1.1,10.1,0,15-1.2C329.5,124.9,309.2,115.5,284.8,115.3 M111.8,343.6
			c1.1,4,4.6,4.6,7.7,5.1c4.8,0.7,9.7,0.6,14.4,1.6c8.5,1.9,16.4,1.4,23.9-3.4c3.1-1.9,7-2.5,10.4-3.9c6.6-2.6,13.1-5.3,20-8.1
			c-2.8-3.6-4.8-6.3-9-3.8c-1.6,0.9-3.3,1.8-5.1,2.1c-3.7,0.6-7.5,0.4-11,1.2c-7.2,1.6-14.1,4.3-21.3,5.6
			C132.3,341.5,122.4,342.3,111.8,343.6 M155.1,280.1c0.4-0.3,0.7-0.5,1.1-0.7c-1.9-3.5-3-7.8-5.8-10.2c-6-5.3-12.1-10.2-15.7-17.8
			c-2.1-4.5-5.5-8.5-8.4-12.7c-1-1.4-2.3-2.6-3.6-3.8c-5.4-5.3-10.8-10.6-16.3-15.8c-1.1-1-2.6-1.6-3.9-2.3
			c-0.6,1.8-1.6,3.6-1.7,5.4c-0.1,1.4,0.8,3,1.6,4.4c1.7,3.1,3,6.6,5.3,8.9c7.9,7.9,17.3,14.6,24.2,23.4
			C138.6,267.3,148,272.3,155.1,280.1 M142.5,180.1c0-2.4,0-5,0-7.6c-0.1-7.3-4.2-12-11.6-12.9c-0.8-0.1-1.6-0.1-2.4-0.2
			c-1.9-0.4-4.4-1.8-5.7-1.1c-1.9,1.1-3.6,3.4-4.3,5.6c-1.1,3.5-1.2,7.3-1.9,10.9c-0.8,3.9,2.6,10.7,6.4,11.8
			c0.8,0.3,1.9,0.2,2.7-0.2C131.3,184.4,136.6,182.3,142.5,180.1 M321.1,329.3c20.6,10.2,41,3.6,61.5,1.1c-0.8-3.6-1.4-6.2-1.9-8.8
			c-7.1,0.6-14.1,0.9-21,1.7c-6.4,0.7-12.7,2.4-18.9-0.9c-0.8-0.4-2.2,0.2-3.2,0.5C332.2,325,326.9,327.1,321.1,329.3 M391.2,323.4
			c-0.7,3.4-2.4,6.5-1.6,8.7c2.7,7.6,6.3,15,9.5,22.4c0.5,1.1,1.1,2.3,1.5,3.4c1.9,4.9,3.3,10.1,5.8,14.7c1.1,2.1,4.4,3.3,6.9,4.2
			c0.6,0.2,2.9-2.5,3.3-4.1c0.4-1.8-0.3-4.1-1.1-5.9c-4.2-9.7-8.2-19.5-12.9-29C399.9,332.5,397.4,326.5,391.2,323.4 M170.9,304.7
			c-1.8-3.1-2.7-5.9-4.6-7.6c-2.1-1.9-5.7-2.1-7.5-4.1c-5.1-5.4-12.4-9.2-14.5-17.2c-0.2-0.7-1.5-1.1-2.3-1.7
			c-5.2-3.9-10.4-7.8-15.5-11.8c-2.5-2-4.5-4.5-6.9-6.4c-0.9-0.7-2.6-1-3.8-0.8c-1.6,0.4-3.1,1.5-5,2.5c1,1.7,1.6,3.8,3,4.8
			c10.6,7.8,16.9,20.9,30.6,24.9c0.7,0.2,1.2,1.1,1.8,1.7c3.7,3.3,7,7.1,11.1,9.8C160.9,301.2,165.4,302.4,170.9,304.7 M104.5,277.1
			c-17,3.9-33.1,7.6-49.2,11.4c0.7,4.8,0.7,5,4.1,5.3c4.6,0.3,9.3,0.7,13.8,0c8.5-1.3,17-3.2,25.4-5c0.9-0.2,2-1.1,2.4-2
			C102.3,283.8,103.2,280.8,104.5,277.1 M60.3,241.1c8.5,3.6,16.5,7.2,24.6,10.5c4.3,1.8,8.6,3.4,13.1,4.6c1.6,0.4,4.5-0.4,5.3-1.7
			c1.8-2.8-0.2-4.6-3-5.6c-1.5-0.5-2.9-1.3-4.4-2c-8.2-3.6-16.4-7.2-24.5-10.8C66.7,233.9,63.6,235.9,60.3,241.1 M100.4,344
			c-1.3,2.7-2,5.8-3.9,7.9c-6.1,7-9.9,15.2-12.1,24c-1.3,5.2-0.7,10.9-1,16.4c0.6,0.1,1.2,0.2,1.8,0.3
			C92.4,377.1,102.4,362.6,100.4,344 M380,236.4c-7.1,3.4-14.7,12.9-30.6,39c4-2.5,8.2-4.8,11.4-8.1c5-5.2,8.6-12,14.2-16.4
			C380.1,246.6,380.2,242,380,236.4 M358.7,175.5c0.5-0.3,1.1-0.6,1.6-0.9c0.8-5.6,1.3-11.2,2.5-16.7c1-4.7-1-8.1-4.4-10.3
			c-1.7-1.1-4.9-0.4-7.2,0.3c-0.9,0.2-1.8,2.9-1.5,4.1c1.6,5.9,3.6,11.7,5.7,17.5C356.1,171.6,357.6,173.5,358.7,175.5 M377.5,198.2
			c9-14.9,22.1-55.7,19.6-62.4C388.9,156.8,381.4,176.9,377.5,198.2 M130.3,213.4c3.1-7.7,13.3-9.6,11.6-19.2
			c-0.1-0.4,0.6-0.8,0.7-1.2c0.5-1.7,0.9-3.5,1.4-5.2c-2.3,0-4.8-0.7-6.7,0.1c-6.8,2.8-11.8,12.3-10.3,19.3
			C127.4,209,128.8,210.6,130.3,213.4 M312.7,103.9c1.2,0.7,2.5,1.4,3.6,2.1c2.2,1.4,6.2,2.9,6.1,4.2c-0.2,4.9,3.8,4.7,6.1,6.4
			c2.5,2,5.3,3.7,7.9,5.5c4.5,3.2,8.9,6.4,14.3,10.2C343.2,116.6,335.3,109.2,312.7,103.9 M422.7,217.8c-4.9,1.2-10.1,1.8-14.8,3.7
			c-5.5,2.3-13.3,2.4-13.5,12c2.9-0.9,5.7-1.5,8.2-2.6c4.2-2,8.3-3.5,13.2-3.6C423.5,227.2,424.5,225.4,422.7,217.8 M468.2,240.4
			c-9.6-9.1-20.1-12.9-30.5-16.6c-1.4-0.5-3.2,0.2-4.8,0.3c0.7,2,1.3,2.7,2.1,3.1c8.8,4.8,17.6,9.6,26.6,14.1
			C463,241.9,465.3,240.8,468.2,240.4 M467.2,297.5c0.6-0.5,1.1-1,1.7-1.5c-0.8-2.1-0.9-5.1-2.4-6.2c-7.1-5.1-14.6-9.7-22.1-14.3
			c-1.1-0.6-3.1,0.3-4.6,0.5c-0.1,0.6-0.2,1.3-0.4,1.9C448.7,284.5,457.9,291,467.2,297.5 M30.1,316.1c4.1-2.7,8.4-5.3,12.4-8.1
			c2.4-1.7,4.7-3.6,6.6-5.7c4.3-4.6,4.4-8.1,0.3-13.1C40.7,296.5,36.5,307.2,30.1,316.1 M398.4,269.1c0,0.8,0,1.6,0,2.4
			c3,0,6.1-0.6,8.9,0.1c6.1,1.5,12,4.4,18.5,2.9c1.8-0.4,3.5-1.6,5.3-2.4c-1.7-1.3-3.3-3.3-5.2-3.6c-3.3-0.6-6.8-0.4-10.2-0.3
			C409.9,268.4,404.1,268.8,398.4,269.1 M353.6,197.7c1.2-1.8,2.7-3.4,3.3-5.2c0.6-2,0.5-4.3,0.6-6.5c0.1-2.1,0-4.2,0-6.3
			c-2.2,0.4-4.7,0.4-6.6,1.5c-3.3,1.8-4.9,9.8-2.8,11.6C349.7,194.2,351.4,195.7,353.6,197.7 M93,213.6
			c-5.4-10.1-10.9-20.3-16.3-30.4C73.3,187,80.3,200.8,93,213.6 M375.6,205.1c-8.8,3-12.1,11-16.8,17.7
			C366.7,219.1,371.8,212.7,375.6,205.1 M415.3,384.6c-4.1-1.7-6.6-0.3-8.4,3.4c-1.6,3.3-3.7,6.4-5.5,9.6c-0.4,0.8-0.5,1.7-1.1,3.8
			C406.4,395.6,413.7,392.7,415.3,384.6 M117.8,400.5c-0.4,0-0.8-0.2-1.2-0.1c-6.9,0.8-13.8,2-20.7,2.1c-3.2,0-4.8,0.4-5.5,4.2
			c2,0,4,0.3,5.8-0.1c3.5-0.7,7.3-3,10.5-2.4C111.7,405.3,114.3,402.4,117.8,400.5 M394.3,104.3c-0.6,0.2-1.2,0.5-1.8,0.7
			c2,7.2,4,14.5,6.1,21.8c4.4-1.9,3.9-4.8,1.9-8.6C398.2,113.8,396.4,109,394.3,104.3 M23.5,255.7c0.3,0.6,0.6,1.1,0.9,1.7
			c10.5-1.2,17.4-8.8,25.8-13.7c-0.2-0.4-0.4-0.8-0.6-1.1C40.8,247,32.2,251.4,23.5,255.7 M22.6,337.1c2.3,9.9,7.5,18,16.1,23.7
			C33.3,352.9,28,345,22.6,337.1 M70.9,154.4c-0.5,0-1-0.1-1.5-0.1c-0.4,5.7-0.8,11.5-1.3,17.2C74.6,166.2,70.3,160.2,70.9,154.4"/>
		<path style="clip-path:url(#SVGID_00000013186097233677756820000016094764183160998030_);" d="M274.3,169.4
			c5.3-0.3,9.7,2.7,10.1,6.8c0.5,5.5-4.1,10.1-10.7,10.6c-4.2,0.4-11.2-5.7-11.4-9.6C262.1,172.8,266.9,169.8,274.3,169.4"/>
		<path style="clip-path:url(#SVGID_00000013186097233677756820000016094764183160998030_);" d="M195,171.2c4.1-0.1,8.2,0.1,9.3,5
			c1.1,4.6-2.4,10.9-6.3,12.2c-4.4,1.6-9-0.4-11.4-4.8C181.4,173.6,182.8,171.5,195,171.2"/>
	</g>
</g>
</svg>
