<?xml version="1.0" encoding="utf-8"?>
<!-- Generator: Adobe Illustrator 26.3.1, SVG Export Plug-In . SVG Version: 6.00 Build 0)  -->
<svg version="1.1" id="Layer_2" xmlns="http://www.w3.org/2000/svg" xmlns:xlink="http://www.w3.org/1999/xlink" x="0px" y="0px"
	 viewBox="0 0 500 500" style="enable-background:new 0 0 500 500;" xml:space="preserve">
<style type="text/css">
	.st0{clip-path:url(#SVGID_00000129922378076338276150000018335809554553573787_);}
	.st1{fill:#D4AE29;}
	.st2{fill:#929191;}
	.st3{fill:#6C6B69;}
	.st4{fill:#F3D1A4;}
	.st5{fill:#444442;}
	.st6{fill:#FFFFFF;}
	.st7{fill:#1D1D1B;}
</style>
<g>
	<defs>
		<rect id="SVGID_1_" width="500" height="500"/>
	</defs>
	<clipPath id="SVGID_00000144301869990833084860000007444974374323126670_">
		<use xlink:href="#SVGID_1_"  style="overflow:visible;"/>
	</clipPath>
	<g style="clip-path:url(#SVGID_00000144301869990833084860000007444974374323126670_);">
		<polygon class="st1" points="157.9,323.4 166.9,304.7 177.1,295.7 200.3,283.8 225.2,286.7 269.9,287.8 298.1,284.4 322.5,275.9 
			334.9,274.8 346.8,282.7 362,291.2 379,314.9 389.7,367 389.2,406 384.7,432.5 364.9,430.3 353.6,435.4 355.2,467 355.2,500.4 
			311.7,502.1 310,472.7 300.4,463.1 272.1,460.3 245,464.2 238.8,500.4 207.7,503.8 189.6,501 184.5,473.8 185.6,441 155.6,438.8 
			150,433.1 143.8,387.3 147.2,354.5 		"/>
		<g>
			<path class="st2" d="M183.9,295.7l18.1-12.4l-23.7-12.4l-23.2-18.7l-13-13.6c0,0-22.6,4.5-22.1,2.3c0.6-2.3-10.7-19.2-10.7-19.2
				l4-43l26-5.1l7.9-40.1l35.6-30l38.5-15.8l5.7-11.9l30.5-11.9l38.5-0.6l33.4,8.5l27.7,17.5l18.7,20.9l17.5,30l1.1,22.1l21.5,1.1
				L418,199l-6.2,28.8l-24.9,1.7l-13.6,20.9c0,0-37.9,23.2-36.2,23.2c1.7,0,11.9,9,11.9,9L327,309.3l-24.9,30l-30.5,14.1l-19.2-1.1
				l-28.8-11.9l-24.9-22.6L183.9,295.7z"/>
			<path class="st2" d="M310,503.8c0,0,30-1.1,32.8-1.7c2.8-0.6,19.2,0.6,19.2,0.6l5.1,15.3l1.7,41.3l7.4,57.1l-19.8,1.7l-15.3-2.3
				l-33.4,1.1l1.1-30l-14.1-21.5L280,553.6l31.7-9L310,503.8z"/>
			<polygon class="st2" points="187.9,501.5 242.7,502.7 244.4,526.4 245.5,558.6 243.9,572.2 235.9,588.6 234.2,615.2 168.6,616.3 
				171.5,597.1 166.9,571.6 151.1,551.3 165.8,547.9 178.8,548.5 			"/>
		</g>
		<polygon class="st3" points="169.8,384.5 209.9,386.7 209.4,417.8 201.4,439.9 181.6,441.6 170.3,436.5 166.4,407.1 		"/>
		<polygon class="st3" points="226.9,387.9 254.6,386.7 252.3,411.6 254,440.5 226.9,442.7 215,436.5 218.4,403.1 		"/>
		<polygon class="st3" points="268.7,386.7 299.3,383.3 309.4,387.9 320.8,381.1 350.2,374.9 363.2,383.9 366,407.7 363.2,429.7 
			353,435.4 320.2,435.9 316.8,421.2 313.4,396.9 308.9,401.4 307.2,435.4 286.3,442.7 268.7,441.6 264.2,428.6 		"/>
		<g>
			<path class="st3" d="M283.4,553l17,20.9l10.7,26l-0.6,18.1c0,0,19.2-1.1,22.1-1.7c2.8-0.6,13,0.6,15.3,0
				c2.3-0.6,24.3,5.1,24.3,5.1l-2.3,5.7h-41.8l-40.1,5.1l-48.6-1.7l-66.7-1.7l-75.2,0.6l4.5-16.4l6.8-32.2l26-21.5H159l7.3,13
				l5.7,21.5l-3.4,21.5l27.7,0.6l37.9,1.1v-30l13-18.7l22.1-14.7L283.4,553z"/>
			<polygon class="st3" points="222.2,306.7 233.4,305.9 230.7,317.6 221.9,317.6 217.9,311.2 			"/>
			<polygon class="st3" points="260,321.6 269.1,319.7 269.6,329.1 265.4,333.1 257.9,330.4 255.2,326.1 			"/>
			<polygon class="st3" points="292.8,300 298.4,295 303.5,300 299,306.7 293.1,305.1 			"/>
			<polygon class="st3" points="43.8,-431.5 45.9,-411.1 46.4,-364.1 50.2,-326.7 48.1,-285.6 47.6,-222 50.6,-181.3 45.9,-152 
				46.8,-111.7 48.5,-27.7 49.8,15.9 45.9,61.7 49.8,72.3 48.5,143.2 46.4,156.3 47.6,182.2 45.1,228.8 48.5,258.1 57.8,280.2 
				67.6,298 90,316.2 121.9,327.2 150.7,325.5 161.3,316.6 163.8,305.2 148.6,310.3 125.2,313.2 100.6,306.4 81.6,296.7 69.7,275.1 
				58.2,245 58.7,198.3 60.8,157.2 58.7,149.1 60.8,71.9 59.1,65.1 61.6,39.7 61.2,-42.6 59.5,-51.9 59.9,-114.3 59.9,-144.8 
				57.8,-155 59.9,-181.7 59.5,-231.3 60.4,-263.5 60.8,-298.7 59.1,-318.7 59.1,-367.9 60.4,-394.6 57,-424.7 56.1,-448 			"/>
			<polygon class="st3" points="89.6,-443.8 102.8,-450.1 103.2,-410.7 103.6,-383.1 101.9,-356.4 103.6,-311 102.3,-263.5 
				101.9,-231.7 101.1,-197 98.1,-172.8 98.9,-142.7 99.4,-113 98.1,-65.1 97.3,-27.3 95.6,-13.7 98.1,65.1 96.4,97.4 94.7,134.3 
				93,184.7 92.6,220.8 91.7,228.4 104.9,254.3 119.7,268.7 141.8,275.1 176.1,271.2 184.6,279.3 175.7,283.5 154.5,289.9 
				136.7,291.2 106.2,274.2 89.2,255.1 80.7,235.2 79,184.7 82.4,110.9 85,41 83.7,-23.5 86.2,-67.6 85,-82.5 86.7,-115.1 
				86.2,-186.4 89.2,-211.8 90,-275 90.9,-303 91.7,-333.9 91.3,-377.2 92.2,-411.6 			"/>
		</g>
		<polygon class="st4" points="155.8,440.9 167.7,437.9 186.7,443.9 187.2,465.9 175.7,465.5 168.5,469.7 160.9,462.1 154.5,449.8 
					"/>
		<polygon class="st4" points="352.6,436.2 365.3,430.7 383.5,433.7 380.6,444.7 374.6,452.3 356.8,461.7 		"/>
		<polygon class="st5" points="236,167.5 259.1,157.9 289.3,157.4 299.3,179.1 297.3,202.7 287.8,218.2 257.1,228.3 237,226.8 
			225,213.7 222.4,189.6 		"/>
		<g>
			<path class="st5" d="M263.5,109.2c0,0,22.1-6.4,23.7-7.2c1.7-0.9,14.4-16.1,14.4-16.1l-5.5-10.6l-18.7-0.8l-25.9,3l-15.3,5.1
				l-3.8,9.3l6.8,13.1l9.8,4.7L263.5,109.2z"/>
		</g>
		<polygon class="st6" points="237.3,178 247.1,178.4 243.3,188.6 235.6,189.4 		"/>
		<polygon class="st6" points="247.1,189.9 250.9,180.1 256,179.3 256,189.4 		"/>
		<g>
			<path class="st6" d="M234.8,194.1c1.3-0.4,7.6-1.7,7.6-1.7l-1.7,11l-8.1-1.3L234.8,194.1z"/>
			<polygon class="st6" points="246.7,194.5 253.5,193.7 251.3,204.3 245.8,204.7 			"/>
		</g>
		<g>
			<path class="st7" d="M539.1,638.4c-1.7-0.1-3.5,0.6-5.1,0.3c-5.9-1.3-11.2-5.2-17.7-4.1c-0.8,0.1-2-0.2-2.5-0.7
				c-3.1-3.4-7.7-3.5-11.3-3c-7.4,1.1-14.5-0.4-20.9-2.8c-10.5-3.9-20.6-1.5-30.8-0.7c-4.5,0.4-8.9,3-13.3,2.8
				c-6.3-0.3-12.8-1.3-18.6-3.5c-6.3-2.4-12.7-0.9-19-2.8c-5-1.5-10.6-0.7-15.9-1.1c-0.7-0.1-1.6-1.3-2-2.1c-0.4-0.9-0.4-2-0.6-3
				c-0.6-2.2-1.7-4.4-2-6.7c-0.4-4.1-0.1-8.2-0.5-12.3c-0.5-5.5-1.6-10.9-2.2-16.4c-0.2-2.1,0.6-4.4,0.2-6.5
				c-1.1-6.3-2.6-12.5-3.9-18.7c-0.3-1.2-1-2.6-0.6-3.6c2.1-6.6,1.5-13,0-19.8c-1.7-7.9-1.7-16.2-2.4-24.4c0-0.5,0.1-0.9,0-1.4
				c-0.5-2.8-0.7-5.4-3.9-7c-3.1-1.6-6.7-3.5-6.8-7.9c-0.1-2.8,0-5.6,0.1-8.5c0-4.5,0.6-9-0.1-13.4c-0.5-3.2-0.1-5.5,2.3-7.2
				c4.5-3.3,9.3-6,13.6-9.5c2.7-2.2,5.1-5,6.9-8c1.9-3.2,2.2-7.5,4.5-10.2c3.9-4.6,2.8-10.2,4.5-15.2c1.3-3.8,1.4-7.9,2-11.9
				c0.3-1.9,0.5-3.9,0.5-5.9c0-2.4-0.3-4.7-0.2-7.1c0.2-3.6,0.9-7.2,1-10.8c0.1-3.2-0.4-6.4-0.7-9.5c-0.4-4.7-0.8-9.3-1.2-14
				c-0.1-1.6-0.2-3.3-0.4-4.9c-0.6-4.4-1.1-8.7-1.9-13.1c-0.7-4-1.9-7.9-2.8-11.8c-1.1-4.8-1.8-9.7-3.1-14.5c-0.6-2.3-2.2-4.3-3-6.6
				c-2.2-6.2-5.3-11.8-10.8-15.7c-2.5-1.8-5.7-3.8-6.5-6.3c-1.2-3.5-3.5-4.4-6.3-5.6c-1.3-0.5-3.4-1-3.7-2c-1.4-4.1-5.5-4.8-8.5-7.3
				c0.7-0.6,1.2-1.3,1.9-1.7c3.7-2,7.4-4.2,11.3-5.9c4-1.7,7.2-3.9,8.5-8.3c0.3-1,1.5-2.4,2.4-2.5c6.3-0.5,10.5-4.3,14.2-8.7
				c0.8-1,0.3-3,0.6-4.5c0.1-1,0.2-2,0.7-2.8c0.7-1,2-1.7,2.5-2.7c1.6-3,3.3-5.3,7.3-3.7c0.9,0.4,2.4,0.1,3.4-0.3
				c4.5-2.1,8.9-2.2,13.5-0.4c1,0.4,2.7-0.2,3.8-0.8c4.5-2.6,5-7.3,5.7-11.8c0.4-2.9,0.9-5.9,1.1-8.8c0.3-4.4,0.8-8.9,0.6-13.4
				c-0.1-3.5-1.9-7.1-1.5-10.5c0.8-6.1,0.9-12.1,0.5-18.2c-0.2-3-0.6-5.5-3.4-7.5c-3-2.1-6.3-3-9.7-3.3c-3.9-0.3-7.8-0.1-11.6-0.1
				c-0.4-4.8-0.3-9.5-1.3-13.9c-2.5-10.3-4.5-20.7-11.4-29.5c-4-5.1-7.2-10.6-12.5-14.6c-4.8-3.7-9.2-7.8-13.7-11.9
				c-4.1-3.6-7.9-7.4-12-11c-9-8-20.3-10.9-31.5-13.8c-2.9-0.7-6-1.7-9.2,0c-0.9,0.5-2.5-0.1-3.7-0.6c-4.3-1.7-7.5-5.5-13.2-4.5
				c-6.1,1.1-12.6,0.3-18.9,0.3c-7.4,0-14.8,0.4-21.9,2.8c-4.5,1.5-9.1,2.9-13.3,5c-2.7,1.3-4.6,4.1-7.1,5.9
				c-3.5,2.5-5.4,5.9-6.6,9.9c-0.2,0.8-1,1.8-1.7,2.1c-5.4,1.8-11,2.8-16.1,5.1c-7.2,3.2-15.2,4.5-21.6,9.5
				c-1.9,1.5-3.8,2.9-5.8,4.3c-5.7,3.9-11.3,7.8-17.1,11.5c-2.6,1.6-3.2,4.5-5,6.3c-3.2,3.2-7.1,5.6-8.8,10.3
				c-1.2,3.4-3,6.6-4.4,9.9c-3.1,7.7-5.8,15.5-5.7,23.9c0,2.7-0.2,4.5-3.7,4.2c-1-0.1-2.1,1.1-3.3,1.6c-0.7,0.3-1.5,0.6-2.3,0.6
				c-4.4-0.3-8.5,0.6-12.4,2.9c-5.7,3.4-5.4,9.3-6.1,14.7c-0.8,6.7-1.2,13.4-1.5,20.1c-0.2,3.7-0.3,7.4,0.4,11
				c1.1,5.5,3.2,10.8,4.3,16.4c1.4,6.8,6.6,9.6,12,12c1.2,0.5,3.1-0.9,4.8-1.3c0.4-0.1,0.9,0.2,1.3,0.1c2.7-0.3,5.6-0.3,8.2-1
				c5.2-1.4,8.6-2,11.3,1.3c5.4,6.6,10.8,13.1,16.6,20.2c-0.5,0.4-1.2,1.5-2.1,1.9c-2.7,0.9-5.4,2.1-8.2,2.2
				c-4.5,0.3-9.1,0.3-13.5-0.3c-3.1-0.4-6-1.9-9.1-2.9c-2.7-0.9-5.5-1.5-8-2.7c-2.6-1.3-5-3.1-7.4-4.7c-1.3-0.9-2.9-1.6-3.7-2.9
				c-1.9-3.2-4.9-5.6-6.5-9.3c-3.3-7.5-7.7-14.7-11.6-22c-0.3-0.5-0.1-1.3,0-2c0.2-5.2,1.1-10.5,0.5-15.7
				c-1.1-10.9,2.1-21.6,0.3-32.4c-0.5-3.4,0-6.9,0.1-10.3c0.3-7.2,0.2-14.4,1.3-21.5c0.5-3.2,0.1-6.2,0.2-9.3c0.1-4,1-8-0.2-12.1
				c-0.4-1.4,0.3-3.1,0.4-4.7c0.2-2.6,0.4-5.2,0.5-7.8c0-0.8-0.2-1.6-0.1-2.4c0.6-4.5,1.3-8.9,1.8-13.4c0.3-2.6,0.1-5.3,0-8
				c0-1.8-1.1-4.4-0.2-5.3c3.3-3.6,1-7.2,0.9-10.8c-0.1-2.4-0.6-4.8-0.6-7.2c0.1-5.6,0.6-11.3,0.6-16.9c-0.1-11.3-0.4-22.5-0.6-33.8
				c-0.1-3.3-0.1-6.7-0.2-10c-0.1-4.8-0.4-9.5-0.5-14.3c-0.1-2.4,0.2-4.7,0-7.1c-0.2-2.8-1.8-5.6,1.1-8c0.4-0.3,0.2-1.3,0.2-2
				c0-4.2-0.1-8.4,0-12.6c0.2-3.7,0.8-7.5,1-11.2c0.4-5.2,1-10.4,0.9-15.6c-0.2-5.9-1.5-11.7-1.8-17.6c-0.2-4.9,0.4-9.8,0.6-14.7
				c0-0.3,0.2-0.7,0.2-1c1.1-5.7,2.1-11.5,1.3-17.3c-0.6-4.8-1.3-9.5-1.5-14.3c-0.2-3.5,0.6-7.1,0.6-10.7c0-3.8-0.4-7.6-0.6-11.4
				c-0.3-5.2-0.5-10.3-0.7-15.5c0-0.8,0-1.6,0.1-2.4c0.6-3.7,1.6-7.3,1.8-11c0.8-11.2,1.5-22.4,2.1-33.6c0.3-5.1-0.1-10.3,0.1-15.4
				c0.2-3.6,1.3-7.2,1.3-10.9c0-6.3-0.7-12.7-0.8-19c-0.1-5.9,0.2-11.9,0.2-17.8c-0.1-6.3-0.7-12.6-0.6-18.9
				c0.1-5.2,0.9-10.4,1.3-15.6c0.3-3.7,0.8-7.3,0.6-11c-0.4-7.5-1.3-15-1.7-22.6c-0.2-4.5,0.1-9,0.2-13.6c0-0.6-0.1-1.5,0.3-1.8
				c2.3-1.9,1.8-3.9,0.8-6.2c-0.6-1.5-0.9-3.4-0.8-5c0.2-4,1.1-8,1.1-11.9c0.1-3.8-0.9-7.6-0.8-11.3c0.3-7.6,1.2-15.1,0.3-22.8
				c-0.9-8-0.1-16.3-0.1-24.4c0-1.9-0.1-4.1-1-5.7c-0.5-1-2.7-2-3.8-1.8c-0.9,0.2-1.9,2.4-1.9,3.6c0.1,3.4,1,6.8,1.1,10.2
				c0.2,8-0.6,16,0.5,23.8c1.1,7.4-1.6,14.7,0.9,22c0.4,1.1-0.1,2.5-0.2,3.8c-0.2,2.5-0.2,5-0.6,7.5c-0.7,4.3,1.8,9-1.9,12.8
				c-0.5,0.5-0.5,1.9-0.2,2.6c2.5,5.2,0.5,10.7,0.8,16c0.2,2.9-0.4,5.9-0.3,8.9c0,2.6,0.5,5.1,0.7,7.7c0.1,1,0,2,0.1,3
				c0.2,6.8,0.8,13.6,0.6,20.4c-0.3,9.7-1.1,19.5-1.6,29.2c-0.1,2.8,0.7,5.6,0.3,8.3c-0.5,3.3,2.2,6.9-0.8,10c0,0,0.1,0.2,0.1,0.3
				c2.3,2.5,2.1,5.3,1.7,8.4c-0.5,4.2-0.6,8.5-0.8,12.8c-0.2,4.1-0.3,8.2-1,12.4c-0.9,4.8,1.6,10-0.5,14.9c-0.1,0.3,0,0.7,0.1,1
				c1.5,4.2,1.3,8.3-0.4,12.4c-0.5,1.2-0.2,2.7-0.3,4.1c-0.2,3.6-0.1,7.2-0.5,10.8c-0.3,3.1-1.3,6-1.6,9.1
				c-0.3,3.8-0.1,7.7-0.1,11.6c0.1,4.7,0.2,9.5,0.3,14.2c0.1,3.9,0.2,7.7,0.3,11.6c0.1,2.8,0.2,5.6,0.4,8.4c0.2,2.7,0.3,5.4,0.6,8.2
				c0.1,1.3,0.6,2.7,0.5,4c-0.5,6.4-2.5,12.8-0.8,19.3c0.1,0.5,0.1,1.3-0.2,1.7c-2,2.1-1.5,4.4-1.3,7c0.5,6.9,0.6,13.8,0.5,20.7
				c-0.1,4.9-1.9,10.1-0.8,14.6c1.7,6.9-1.2,13.2-0.8,19.9c0.3,4.7,0,9.8-0.3,14.6c-0.7,9.6-1,19.2,0,28.8c0.2,1.7,0.6,3.4,0.6,5.1
				c0.1,4.2,0,8.3,0.1,12.5c0.2,5.4,0.6,10.8,0.7,16.2c0.1,3.5-0.4,6.9-0.4,10.4c0,4.6,0.3,9.2,0.1,13.8C94.8,72.2,92.2,78.1,95,84
				c0.4,0.8,0.2,2.3-0.4,3c-2.7,3.6-0.2,7.7-1.6,11.7c-1.8,5.2,0.8,11.5-1.8,17.1c-0.2,0.5,0.1,1.3,0.2,2c0.3,3.1,0.5,6.3,0.7,9.4
				c0,0.7-0.1,1.3-0.1,2c-0.1,3.3-0.2,6.6-0.2,9.9c0,1.7-0.1,3.3-0.2,5c0,0.9-0.2,1.8-0.3,2.6c-0.5,4.6-1.4,9.3-1.5,13.9
				c-0.1,8.6,0.3,17.3,0.5,25.9c0.1,3.3,0.1,6.6,0,9.9c-0.4,6.8,0.2,13.8-1.7,20.2c-1.9,6.5,0.5,11.7,2.2,17.2
				c1.4,4.4,3.8,8.6,6,12.8c3.4,6.5,6.5,13.3,13.5,17c2,1.1,3.1,3.6,4.9,5.1c5.6,4.8,12.7,5.7,19.5,7.5c2.7,0.7,5.4,1.9,8.1,2
				c4.9,0.1,9.9-0.8,14.5,1.6c0.5,0.2,1.2,0.5,1.6,0.4c3.9-1.4,7.8-2.8,11.6-4.4c4.3-1.8,5-1.7,8.1,3.4c-4.2,1.5-8.2,3.2-12.4,4.3
				c-3.1,0.9-6.3,1.3-9.4,1.7c-2.4,0.3-4.7,0.4-7.1,0.5c-1.6,0.1-3.2,0-4.7,0.4c-3.8,0.9-7.6,1.6-11.3-0.3c-3-1.5-6-3.1-8.9-4.8
				c-1.3-0.7-2.5-1.5-3.8-2.4c-3-2.1-5.8-4.9-9.1-6.3c-5.4-2.4-9.8-6.1-13.3-10.4c-4.5-5.5-7.7-12-11-18.3
				c-3.8-7.4-5.3-15.4-4.9-23.8c0.1-2.6-0.1-5.3-0.2-7.9c-0.1-4.3-0.4-8.7-0.2-13c0.2-6.5,1.6-13,0.9-19.3c-0.8-7.5-0.1-15-0.3-22.5
				c-0.2-8.5,1.4-17,1-25.6c-0.4-8.1,0.8-16.2,1.5-24.3c0.3-3.4,0.3-6.8,0.9-10.3c1-6,0-12.3,0-18.4c0-4.7-0.1-9.4,0.2-14.1
				c0.5-9.3,1.4-18.6,1.9-28c0.1-1.7-1.9-3.5-2-5.3c-0.4-6.7-0.7-13.4-0.6-20.1c0.1-5.9,1-11.9,1.2-17.8c0.2-7.9-0.2-15.8,0.1-23.7
				c0.4-10.5,1.4-21,1.9-31.6c0.1-2-0.7-4.1-0.6-6.1c0.3-4.3,1-8.5,1.5-12.7c0.3-2.5-0.5-4.3-3.5-4.2c0.1-1.5,0.2-2.9,0.4-4.3
				c0.7-4.6,1.9-9.2,2.1-13.8c0.4-9.8,0-19.6,0.3-29.4c0.3-7-2.1-14.1,0.3-21.1c0.5-1.5-0.2-3.4-0.4-5.1c-0.2-1.2-0.8-2.5-0.8-3.7
				c0.1-7.7,0.4-15.4,0.6-23.1c0-1.3,0-2.6,0.2-3.8c0.8-6.9,2.6-13.8,2.4-20.7c-0.2-5.7-0.4-11.3,0.1-17c0.5-6.4,1.5-13,0.2-19.1
				c-1-5,0.8-9.3,0.5-14c-0.2-2.4-0.3-5,0.3-7.3c1.1-3.9,1.6-7.6,0-11.5c-0.3-0.8,0-1.8-0.2-2.8c-1.3-7.8,2.6-15.5,0.1-23.2
				c-0.1-0.3,0.2-0.7,0.2-1c0.6-7.9,1.5-15.8,1.7-23.7c0.2-6.2-0.6-12.5-0.6-18.7c0-5.9,0.6-11.9,0.5-17.8
				c-0.2-10.1-2.4-20.2-0.7-30.5c1-5.9,0.5-12.1,0.4-18.2c0-2.2-0.7-4.5-0.8-6.7c-0.2-5.3-0.1-10.5-0.2-15.8c0-1.3-0.3-2.7-0.5-4
				c-0.2-1.3-0.3-3-1.1-3.9c-0.6-0.7-3.1-1.1-3.3-0.8c-0.8,1.3-1.4,2.9-1.3,4.4c0.2,3.3,1,6.7,1.2,10c0.2,2.6-0.3,5.3-0.2,8
				c0.2,4.2,2.3,8.3,0,12.5c-0.2,0.3,0,0.9,0,1.3c0.3,2.7,0.8,5.4,0.8,8.1c0,3.5-0.5,6.9-0.5,10.4c0,5.6,1.2,11.4,0.3,16.9
				c-1.1,6.7,0.9,13.2,0.3,19.8c-0.3,3.6,0.2,7.2,0.2,10.9c0.2,8.1,0.3,16.1,0.4,24.2c0,1.8-0.2,3.7-0.4,5.5c-0.3,2.5-0.8,5-0.9,7.5
				c-0.3,4.3-0.5,8.6-0.7,12.9c-0.2,4-0.6,8.1-0.6,12.1c0,3.7,0.4,7.5,0.5,11.2c0.1,2.1,0,4.3-0.1,6.4c-0.1,2.8-0.5,5.6-0.5,8.5
				c-0.1,8.9,0.1,17.8,0,26.6c-0.1,5.8-0.3,11.5-0.6,17.3c-0.4,6.7-0.9,13.4-1.4,20c-0.4,4.7-0.9,9.3-1.1,14
				c-0.2,5.1,0,10.2-0.1,15.3c0,0.9-0.4,1.8-0.5,2.7c-0.3,2.5-0.9,5.1-0.7,7.6c0.2,2.8,1.5,5.5,1.6,8.3c0.2,3.5-0.5,6.9-0.6,10.4
				c-0.1,8.1,1.6,16.2-0.6,24.4c-0.8,3-0.1,6.4-0.2,9.6c-0.1,2.3-0.4,4.6-0.6,6.8c-0.2,3.3-0.5,6.7-0.5,10c0,2.6,0.1,5.1,0.4,7.6
				c0.2,1.8,1.5,3.7,1.3,5.4c-0.4,4.4,2,8.9-0.5,13.2C82.6-55.8,83-55,83-54.5c-0.1,3-0.1,6-0.3,9c-0.3,3.4-1,6.8-1.1,10.2
				c-0.1,3.3,0.5,6.7,0.3,10c-0.2,4.3-1,8.6-1.2,13c-0.2,4.1,0,8.1-0.1,12.2c0,1.6-1.3,3.6-0.7,4.8c3.1,6.5,0.3,13.1,0.8,19.6
				c0.3,4.8-0.1,9.6-0.1,14.4c0,0.5,0.5,1.1,0.5,1.6c0.2,2.4,0.4,4.8,0.4,7.2c0,2.2-0.7,4.3-0.6,6.5c0.1,4,0.7,7.9,0.7,11.9
				c0,6-0.4,12-0.6,18c-0.2,8-0.3,16.1-0.7,24.1c-0.1,3-1.1,6-1.3,9.1c-0.2,3.4,0.3,6.8,0.2,10.2c-0.3,9.1-0.9,18.2-1.2,27.3
				c-0.1,2.3,0.2,4.6,0,6.9c-0.3,5.1-2.2,10.5-0.9,15.2c1.7,6.3-1,12.1,0.1,18.3c0.9,4.6-0.5,9.7-0.6,14.5c0,4.4,0.6,8.9,0.8,13.3
				c0.2,4.1,0.8,8.3,0.2,12.4c-0.4,3-0.1,5.5,1.5,7.8c1.9,2.7,4.9,4.9,5.8,7.9c1.4,4.9,4.5,8.3,7.5,12c1.2,1.5,1.7,3.5,2.9,5
				c2.8,3.2,6.2,5.7,9.7,8.1c5.3,3.7,9.7,8.7,16.6,9.7c0.5,0.1,1,0.6,1.4,1c7,5.9,15.2,7.2,24,6c1.8-0.3,3.6-0.9,5.3-0.5
				c4.2,0.8,8,0.4,11.6-1.7c0.7-0.4,1.5-0.5,2.3-0.7c4-1.1,8.1-2.1,12.1-3.2c2-0.6,4.5-0.8,5.6-2.2c2.9-3.4,5.6-1.5,8.4-0.4
				c-1.9,0.9-4.2,0.9-5.8,2c-4.5,3-8.8,6.4-13.2,9.6c-1.1,0.8-2.1,2-3.3,2.4c-4.4,1.6-8.9,2.8-13.2,4.4c-2.3,0.9-4.7,2-6.7,3.4
				c-5.5,3.7-11.2,5.2-17.7,2.9c-1.2-0.4-2.8-0.1-4.2,0c-2.7,0.2-5.5,1.2-8,0.5c-5.8-1.6-10.7-6.3-17.4-4.8c-0.2,0-0.4-0.1-0.6-0.2
				c-2-1.3-3.9-2.7-6-3.9c-1.4-0.8-3.1-2.1-4.5-2c-4.4,0.4-6.6-2.7-8.6-5.3c-2.5-3.3-3.9-7.5-5.9-11.3c-1.7-3.2-3.3-6.5-5.1-9.6
				c-0.8-1.4-2.9-2.3-3-3.6c-0.6-7.5-6.7-13.4-6.1-21.2c0-0.5-0.9-1.1-1.1-1.7c-0.5-1.5-1.1-3.1-1.3-4.6c-0.2-1.6,0.4-3.2,0.3-4.8
				c-0.2-2.6-1.2-5.1-1.2-7.7c0-5.8,0.4-11.6,0.6-17.4c0.1-3-0.2-6,0.2-9c0.9-5.9,2.7-11.8,0.5-17.8c-0.1-0.3-0.1-0.7,0-1
				c0.2-3.5,0.5-7,0.7-10.5c0-1-0.4-2-0.4-3c-0.1-1.6-0.3-3.3,0-4.8c1.3-5,1.9-9.9-0.8-14.6c-0.3-0.6,0-1.6,0.1-2.3
				c0.5-2.6,1.4-5.3,1.7-7.9c0.3-2.8-0.2-5.7,0.1-8.4c0.9-7.4-2.4-14.5-0.9-22c0.8-3.9,0.3-8,0.4-12c0.3-7.7,0.8-15.3,1-23
				c0-2-0.8-4-1.3-6c-0.5-2.3-1.5-4.6-1.3-6.8c0.4-4.1,1.7-8.1,2.2-12.1c0.5-4.3,3.2-8.7,0.1-13.2c-0.7-1-0.2-2.9,0-4.4
				c0.3-2,0.9-3.9,1.1-5.9c0.2-1.6,0.1-3.2,0.1-4.9c-0.2-6.3-0.5-12.6-0.7-18.9c-0.1-1.9-0.1-3.8-0.1-5.7c0-6.1,0-12.1,0.1-18.2
				c0.1-6.1,0.3-12.1,0.8-18.1c0.2-2.5,0.6-4.7-1.6-6.6c-0.5-0.4-0.4-1.7-0.4-2.6c0.1-3.3,0.5-6.5,0.6-9.8c0.1-8.1,0-16.3-0.1-24.5
				c0-1.1-0.3-2.3-0.4-3.4c-0.2-4.1-0.6-8.2-0.6-12.3c0.1-5.6,0.5-11.1,0.9-16.6c0.1-1.2,1-2.7,0.6-3.5c-1.7-2.9-0.4-5.7-0.6-8.5
				c-0.5-7.2,3.3-14.7-1.1-21.7c-0.4-0.6-0.2-1.6-0.1-2.4c0.4-7.2,1.1-14.5,1.3-21.7c0.1-5.8-0.4-11.6-0.6-17.4
				c-0.1-4.4,0.1-8.9,0.1-13.3c-0.1-8.4-0.5-16.8-0.4-25.2c0-5.8,0.7-11.5,0.9-17.3c0.1-2.7-0.4-5.4-0.3-8.1
				c0.1-2.7,0.8-5.4,0.8-8.1c0-5.2-0.2-10.4-0.3-15.5c-0.1-5.5-0.2-11.1-0.3-16.6c0-1.3,0.2-2.6,0-3.9c-0.8-6-1.6-11.9-0.2-17.9
				c0.2-1-0.6-2.2-0.8-3.3c-0.2-1-0.5-2-0.5-3.1c0-6.2-0.2-12.3,0.3-18.5c0.6-7.4-2.4-14.9,1.1-22.1c0.1-0.2,0.1-0.5,0-0.7
				c-0.2-5.1-0.5-10.2-0.5-15.2c0-4.5,0.6-9.1,0.6-13.6c0-3.4-0.7-6.9-1.1-10.3c-0.5-4.6-1.4-9.2-1.5-13.8c-0.1-3.8,1-7.7,0.8-11.5
				c-0.2-5.6-1.2-11.2-1.6-16.7c-0.2-2-0.4-4.2-2.7-4c-2,0.2-2.9,2.1-2.7,4.4c0.5,6.4,0.9,12.8,0.8,19.1c-0.2,8-0.8,15.9,2.4,23.5
				c0.2,0.5,0,1.2,0.1,1.7c0.5,5.2-1.3,10.6,0.9,15.8c0.2,0.5,0,1.1,0,1.7c0,3.1,0.3,6.3,0,9.4c-0.2,2.2-0.6,4.7-1.8,6.4
				c-2,2.8-1.1,5.4-0.7,8.1c0.3,1.7,0.4,3.5,0.5,5.2c0,2.4-0.8,5.2,0,7.2c1,2.4,0.9,4.4,0.7,6.9c-0.4,6.4-0.2,12.9-0.2,19.4
				c0,1.7,0.5,3.4,0.3,5c-1,6.1,1.9,12.1-0.1,18.2c-0.1,0.2,0,0.5,0.1,0.7c2.4,8.9,1.7,18,1.4,27.1c-0.1,3.3-1.6,6.6-1.5,10
				c0,5.1,0.9,10.2,1.3,15.3c0.1,1.3-0.6,2.6-0.8,3.9c-0.2,1.6-0.3,3.3-0.4,5c0,0.5,0.5,1.1,0.5,1.6c-0.2,3.8-0.4,7.6-0.7,11.3
				c-0.1,1.3-0.9,2.7-0.7,3.9c1.1,8.1,1.6,16.1,0.5,24.3c-0.4,2.5,0.4,5.1,0.6,7.6c0.3,3.8,0.9,7.5,0.8,11.3
				c-0.1,4.2-0.8,8.4-1,12.6c-0.2,6.2-0.2,12.4-0.2,18.5c0,1.7,0.6,3.3,0.8,5c0.2,2.3,0.3,4.6,0.3,6.9c0,2.2-0.4,4.4-0.4,6.6
				c0,3.1,0.4,6.1,0.4,9.2c0,2-0.9,4-0.9,6c0.1,3.6,1.8,7.2-0.6,10.6c-0.2,0.3,0,0.9,0,1.3c0.6,4.5,1.2,9,1.8,13.5
				c0.1,0.5,0,0.9,0,1.4c-0.2,4.5-0.7,9.1-0.6,13.6c0.1,3,1.4,6,1.2,8.9c-0.3,6-1.2,12.1-1.9,18.1c-0.3,2.6-0.5,5.2,2.5,6.1
				c-0.4,2.2-1.1,4.2-1.1,6.3c0,4.9,0.3,9.7,0.3,14.6c0,3.5-0.4,7.1-0.5,10.6c-0.1,7.9,3.1,15.5,1.3,23.5c-0.6,2.5-0.4,5.2-0.5,7.8
				c-0.2,5.1-1.3,10.5-0.3,15.3c1.2,5.3-1.4,9.9-1.1,15c0.3,5-1.3,10-1.4,15c-0.1,2.1,1.9,4.3,1.8,6.5c-0.2,7.8-0.9,15.5-1.3,23.3
				c-0.2,3.7-0.5,7.5-0.4,11.2c0.1,3.2,0.9,6.3,1.1,9.5c0.2,4.3,0,8.6,0.1,12.9c0,1.9,0.2,3.8,0.1,5.7c-0.1,2.4-0.5,4.7-0.7,7
				c-0.1,0.9,0,1.7,0,2.6c-0.1,2.5-2,5.2,1,7.3c0.3,0.2,0,1.3-0.1,1.9c-0.2,2.1-0.5,4.2-0.8,6.3c-0.2,1.6-0.6,3.2-0.9,4.9
				c-0.2,1.2-0.5,2.4-0.5,3.5c0.1,4.7,0.3,9.3,0.6,14c0,0.7,0.3,1.3,0.4,2c0.1,2.2,0.5,4.5,0.3,6.7c-0.3,3.1-1.1,6.2-1.3,9.3
				c-0.1,2.1,0.6,4.3,0.5,6.4c0,3.3-1.3,6.8-0.4,9.7c1.8,6.3-1.8,12.6,0.9,19c1.5,3.5-1,8.3,2.2,11.8c0.4,0.4,0,1.4,0.1,2
				c0.3,1.3,0.5,2.7,1.1,3.9c2.3,4.9,5.2,9.5,6.3,14.9c0.5,2.5,1.7,5,2.8,7.3c1,2.2,2.2,4.2,3.5,6.2c1.9,2.9,3.6,6.1,6.1,8.4
				c3.4,3.3,7.4,6.1,11.3,8.9c1.6,1.1,3.5,1.8,5.3,2.5c1.5,0.6,3.1,0.7,4.6,1.3c4.9,1.9,9.7,4.1,14.6,6c0.9,0.4,2,0.4,3,0.4
				c2.5,0.2,4.9,0.2,7.4,0.4c3.6,0.3,7.2,1.1,10.8,1.1c3.4,0,6.7-0.9,10.1-1.4c0.9-0.1,2,0.1,2.7-0.3c3.2-1.6,6.3-3.4,9.6-5.2
				c-1.1,2.7-1.3,5.8-5,7c-3.4,1.1-6.5,3.3-10,4.4c-3.2,1-4.9,4.7-8.9,4.2c-3.6-0.5-7.4,0.3-11-0.1c-3.1-0.4-6-1.7-9.1-2.6
				c-3.8-1.1-7.9-1.5-10.2-5.6c-0.3-0.6-1.7-0.9-2.6-0.9c-3.1,0-5.9-0.5-8.5-2.6c-3-2.5-6.5-4.5-9.8-6.6c-1.3-0.9-3-1.4-3.9-2.5
				c-3.5-4.8-6.3-10.1-12.4-12.5c-1.3-0.5-1.8-3-2.5-4.7c-0.8-2.1-0.9-4.7-2.2-6.4c-4.5-5.9-3.8-14.1-9.1-19.5
				c-0.2-0.2-0.4-0.4-0.4-0.6c-0.2-4.7-1.9-9.1-2.7-13.6c-1.6-9.3-1.8-19-1.6-28.5c0.2-11.7,1.2-23.4,2-35c0.2-2.5,0.7-5,0.6-7.5
				c-0.2-6.6-0.8-13.2-0.9-19.8c-0.1-3.7,0.6-7.4,0.8-11.2c0.2-5.2,0.3-10.5,0.5-15.8c0.1-3.7,0.3-7.4,0.3-11.1
				c-0.2-9.4-0.6-18.8-0.7-28.2c0-1.8,0.8-3.6,0.9-5.4c0.3-7.5,0.6-15.1,0.6-22.6c0-1.7-1.1-3.5-1.7-5.2c-0.5-1.2-1.6-2.5-1.5-3.7
				c0.8-10.7,1.8-21.4,2.7-32.1c0.4-4.8,0.5-9.6,0.6-14.5c0.1-3.7,0-7.5-0.2-11.2c-0.4-8.5-0.9-17.1-1.3-25.6
				c-0.3-7-0.4-14-0.5-20.9c-0.1-6.8,0-13.7-0.1-20.5c-0.1-3.5-0.5-7-0.7-10.5c-0.1-2.5-0.2-4.9-0.2-7.4c0-1.7,0-3.4,0.1-5
				c0.2-3.1,1.4-6.5,0.5-9.2c-1.7-5.2-0.4-10.4-0.2-15.4c0.3-8,0.4-16-0.1-24c-0.2-2.8-2.5-6.1,0.6-8.5c2.1-1.6,1.6-3.1,1.4-5.1
				c-0.4-2.9-0.6-5.8-0.4-8.6c0.4-5.7,1.5-11.4,1.7-17.1c0.2-4.9-0.3-9.9-0.6-14.8c-0.2-3-0.9-5.9-1.1-8.9
				c-0.2-3.9-0.2-7.8-0.2-11.7c0-2.5,0.3-5,0.1-7.4c-0.4-5.8-1.4-11.6-1.4-17.4c0.1-10.4,0.8-20.8,1.2-31.2
				c0.2-7.2-0.8-14.5,2.4-21.4c0.6-1.2,0.4-3-0.1-4.4c-1.5-4.4-2.1-8.9-1.6-13.6c0.2-2,0.6-4.1,0.5-6.2c-0.1-6.5-0.3-13.1-0.6-19.6
				c-0.1-1.8-0.5-3.5-0.7-5.3c-0.5-4.8-1-9.6-1.3-14.5c-0.3-5.2-0.4-10.4-0.6-15.6c-0.2-4-0.8-7.9-0.8-11.9c0-3.6,0.6-7.1,0.6-10.7
				c-0.1-6.8-0.1-13.6-0.7-20.4c-0.5-5.2-1.7-10.3-2.8-15.4c-0.2-0.8-1.3-1.4-1.9-2c-0.7,0.9-2.1,1.8-2.1,2.7c0,2.9-0.3,6.2,0.8,8.7
				c1.5,3.3,1.4,6.3,1.2,9.6c-0.2,4.4-0.1,8.9-0.1,13.4c0,2.1,0.4,4.2,0.4,6.2c-0.1,6.1-0.4,12.3-0.3,18.4c0,5,0.5,10,0.7,15
				c0.1,2-0.3,4.1,0.1,6.1c1.3,6,0.9,12.2,2.3,18.4c1.4,6.4,1.1,13.4-0.3,20.2c-0.2,1,0.1,2.1,0.1,3.1c0.1,2.4,0.5,4.9,0.4,7.3
				c-0.3,6.7-1,13.4-1.2,20.1c-0.2,5.3,0.1,10.6,0.1,16c0,3.3,0,6.6-0.2,9.8c-0.1,3.6-0.5,7.2-0.5,10.7c-0.1,4.1,0,8.2,0.2,12.3
				c0.3,6.7,0.7,13.4,0.9,20.1c0,1.4-0.9,2.8-0.8,4.1c0.4,5,1,10.1,1.6,15.1c0.2,1.7,0.6,3.4,0.6,5.1c-0.1,7.8-0.2,15.5-0.7,23.3
				c-0.2,3.1-1.4,6.1-2,9.2c-0.5,2.5-1.2,5-1.1,7.5c0.1,5.4,0.6,10.8,0.9,16.2c0.1,2.6-0.2,5.4,0.4,7.9c0.6,2.5,0.8,4.6-0.7,6.9
				c-0.6,0.9-0.5,2.4-0.4,3.6c0.1,7.2,0.2,14.4,0.4,21.6c0.1,4.3,0.2,8.7,0.4,13c0.3,5.8,0.7,11.5,1,17.3c0.1,1.6-0.7,3.2-0.6,4.8
				c0.1,5.2,0.3,10.4,0.6,15.5c0.1,2.4,0.8,5,0.3,7.3C44.5-34.7,44.5-31,45-27c0.8,6.9,0.7,13.8,0.9,20.7C46-3.7,45.5-1.1,46,1.4
				c1.5,6.9,0.3,13.6-0.6,20.4c-0.7,5.3-1.3,10.7-1.6,16.1c-0.3,5,0,10-0.1,15.1c-0.1,3.5-0.1,7-0.9,10.4c-0.4,1.9,0.2,2.6,1.3,3.7
				c0.9,0.9,2.1,2.2,2.1,3.3c-0.2,6.1-0.9,12.3-1,18.4c-0.2,7,0,14,0.2,21c0.1,3.6,0.5,7.2,0.4,10.8c-0.1,4.7-0.5,9.3-0.6,14
				c-0.1,5,1,10.3-0.3,15c-2.1,7.6-0.4,14.9-0.6,22.3c-0.1,3.4,0.1,6.8,0,10.2c-0.3,7-0.8,14-1.1,20.9c-0.1,3,0,6-0.1,9
				c-0.1,6.2-0.4,12.4-0.5,18.6c0,3.6,0.2,7.2,0.5,10.8c0.2,2.2,1.3,4.3,1.3,6.5c0.1,5.4,0.4,10.6,2.8,15.7c1.3,2.6,0.9,6.4,2.8,8.3
				c4.9,5.1,5.8,11.7,8.6,17.6c1.6,3.4,3.5,6.9,6.1,9.5c2.7,2.7,4.6,6.6,9,7.3c0.3,0,0.5,0.4,0.8,0.6c2,2.1,3.8,4.7,6.2,6.2
				c5.8,3.6,11.9,6.7,18,9.8c8.7,4.3,18.2,6.1,27.6,7.7c4.7,0.8,9.9-0.6,14.8-1.2c3.2-0.4,6.4-1.4,10.3-2.2
				c-1.5,3.6-3.7,6.9-4.3,10.4c-2.6,16.3-7.2,32.3-6.4,49c0.1,1.7-0.2,3.4-0.1,5c0.3,4.2,0.3,8.3,2,12.4c1.5,3.6,0.9,7.9,1.7,11.9
				c1.2,6.4,2.4,12.8,4.1,19.1c1.8,6.5,4.7,12.6,6.1,19.1c1.1,5.1,3.9,8.4,7.6,11.5c0.9,0.8,2.4,1.3,2.7,2.3c1,2.6,3.2,2.8,5.1,2.4
				c2.4-0.5,4.6-1.8,6.9-2.8c1.7,0.2,3.6,0.3,5.6,0.5c0,4.2-0.1,8.4,0,12.6c0.1,2.4-0.4,5.5,0.9,7c2.2,2.7,1.3,5.5,1.7,8.2
				c0.3,2-0.3,3.8-2.3,5.2c-1.3,1-2.1,3.2-2.4,4.9c-0.9,4.4-1.8,8.8-2,13.2c-0.3,5.9-3.1,11.5-2,17.7c0.4,2.3-0.5,5.1-1.7,7.2
				c-0.6,0.9-3.4,0.5-5.2,0.7c-0.6,0.1-1.1,0.3-1.7,0.3c-6.1,0.2-12.3,0.3-18.4,0.8c-5.2,0.4-11.1-0.7-14.1,5.5
				c-0.2,0.4-0.7,0.8-1.1,1c-5.2,2.6-10.8,4.6-15.4,8c-6.6,4.8-11.8,11-15.1,18.7c-2.8,6.5-3.8,13.1-4,20c-0.1,3.9,0.3,8-0.9,11.6
				c-1,2.8-0.8,5-0.3,7.5c0.9,4.1-0.9,6.7-4.9,7.5c-1.2,0.2-2.4,1-3.6,0.9c-2.2-0.1-4.3-0.7-6.5-1.1c-0.9-0.2-1.7-0.6-2.6-0.7
				c-2.5-0.3-5-0.7-7.5-0.7c-2.3,0-5.2-1.5-6.7,2c-0.2,0.5-1.4,0.7-2.1,0.7c-5.6,0-11.1,0.4-16.5-2.2c-1.9-0.9-5.7-0.8-7,0.5
				c-3.5,3.5-5,1-7.2-1.2c-0.7-0.7-2.5-1-3.4-0.6c-1.7,0.9-4.1,2.3-4.2,3.7c-0.3,4.8,4.3,7.3,8.4,4.8c2.2-1.3,3.9-1.1,5.9-0.1
				c0.7,0.4,1.4,0.7,2.2,0.7c3.9,0.2,7.8,0.3,11.8,0.5c0.3,0,0.6,0.3,0.9,0.5c3.7,2.1,7.7,3.5,11.7,2.1c4.2-1.5,8.1-2,12.5-1
				c2.9,0.6,6-0.1,8.9,0.2c5.1,0.5,10.2,1.2,15.3,1.8c0.4,0,0.9,0,1.3-0.1c7.5-3.4,15.6-1.3,23.4-2.2c4.3-0.5,8.9,0.9,13.3,1.1
				c4.2,0.1,8.5-0.3,12.7-0.4c4.9-0.2,9.7-0.4,14.6-0.6c2.7-0.1,5.3-0.4,8-0.2c4.2,0.3,8.4,0.9,12.6,1.4c6.7,0.8,13.3-2.1,20.2-0.3
				c4.5,1.2,9.7-0.2,14.6-0.4c1.5-0.1,3.2-0.3,4.6,0.2c4.7,1.7,9.2,1.9,13.7-0.6c0.8-0.4,2,0,3,0c4,0.3,8,0.7,12,0.9
				c3.6,0.1,7.2-0.3,9.9,3.1c0.6,0.7,2.4,0.7,3.6,0.6c2.4-0.2,4.7-1.2,7-1.2c4.5,0,9.1,0.6,13.6,0.5c3.1-0.1,6.2-0.7,9.2-1.3
				c1.9-0.4,3.6-1.4,5.5-2.1c1.6-0.6,3.1-1.7,4.7-1.9c3.1-0.4,6.2-0.3,9.3-0.6c5.1-0.5,10.3-1.4,15.4-1.5c4.5-0.1,9.1,0.8,13.7,0.9
				c5,0.1,9.9-0.3,14.9-0.2c1.4,0,2.9,0.9,4.1,1.7c1.8,1.1,4,2.6,5.5,0.8c2.7-3.1,6.2-2.6,9.2-2.4c5.1,0.3,10.2,1.7,15.3,2.6
				c1.5,0.3,2.9,0.7,4.3,1c1.5,0.3,3,0.9,4.5,0.9c3.8,0,7.7-1,11,1.9c0.4,0.3,1.1,0.5,1.6,0.4c3.3-0.6,6.2-0.5,8.8,2.3
				c0.6,0.7,2.4,0.4,3.6,0.4c0.8,0,1.6-0.7,2.3-0.6c7.3,1.2,14.1-0.2,20.9-2.9c2-0.8,4.3-0.6,6.5-0.8c2.2-0.2,5,0.5,6.6-0.6
				c2.4-1.8,3.8-2.2,5.5,0.5c0.4,0.6,1.4,0.9,2.2,0.9c6.6,0.1,12.6,3,18.8,4.5c2.6,0.6,5.3,0.3,8,0.5c3.2,0.2,6.7-0.4,9.5,0.8
				c2.1,0.8,3.7,1.7,6,1.4c1.5-0.2,3.1,0.4,4.7,0.5c1.3,0.1,2.9,0.5,4-0.1c2.9-1.6,5.7-0.4,7.8,0.7c2.6,1.3,3.7,0.9,4.7-1.4
				c1.3,0.6,2.3,1.5,3.3,1.5c1.2-0.1,2.3-1,3.4-1.5c-1.1-1.7-1.9-3.6-3.3-4.9C542.3,638.4,540.5,638.4,539.1,638.4 M404.8,217.1
				c0.9-5.4,2.2-10.7,2.6-16.1c0.3-4.8-0.4-9.7-0.5-14.6c0-2.2,0.5-4.3,0.6-6.5c0.3-4,0.4-7.9,0.8-11.9c0.1-0.9,1-1.7,1.5-2.5
				c0.6,0.2,1.1,0.3,1.7,0.5c-0.3,5-0.9,10-0.8,15c0,3.2,1.2,6.4,1.6,9.6c0.8,5.7,2,11.3,0.1,17.2c-1.7,5.3-1.8,11-2.8,17.2
				c-1.9-0.4-3.6-0.7-5.7-1.2C404.2,221.6,404.4,219.3,404.8,217.1 M396.4,206.8c1.4-2.6,1-6.2,1.4-9.4c0.5-4,1.3-7.9,1.6-11.9
				c0.2-2.4-0.2-4.9-0.5-7.3c-0.3-2.4-1-4.7-1.1-7.1c-0.1-4.8,0.2-4.9,4.8-4.4V178c0,3.5,0.2,7,0,10.5c-0.4,7.5-0.9,15.1-1.5,22.6
				c-0.1,1.7-0.7,3.3-1.2,4.9c-0.7,2.3-2.2,4.5-2.2,6.7c0,3.5-1.5,3-3.6,2.1c-0.4-0.2-0.9-0.2-1.3-0.3
				C393.2,218.5,393.2,212.5,396.4,206.8 M119.6,230.5c-0.7-0.1-0.9-0.2-0.9-0.2c0-4.1-2.1-7.2-4.7-10.2c-0.4-0.5,0-1.7,0-2.6
				c0-4.8,0-9.6,0.1-14.3c0-0.5,0.5-1,0.5-1.6c0.3-3.2,0.6-6.5,0.9-9.7c0.1-1.6-1.3-3.8,2.3-3.6c0.8,0.1,1.8-2,3.2-3.5
				C120.5,200.4,120.1,215.4,119.6,230.5 M128.7,235.3c-2.7-0.1-2.4-1.6-1.9-3.6c0.4-1.8,0.1-3.7,0.1-5.5c0.1-2.6-0.1-5.2,0.3-7.8
				c0.5-3.2,1.1-6.1-0.4-9.3c-1-2.2-0.6-5.1-0.4-7.7c0.6-6.6,1.5-13.2,2.3-19.8c4-1.7,5.3-0.6,5.3,3.6c-0.1,8.3,0.3,16.5,0.2,24.8
				c-0.1,3.2,1.3,6.4-1,9.8c-1.2,1.8,0.1,5.5,0.7,8.3c0.4,2.2,1.4,4.3,2.4,7.2C133.6,235.3,131.2,235.4,128.7,235.3 M378.3,439.2
				c-0.6,6.1-4.1,10.3-9.2,13.2c-2.9,1.7-6,3.1-9,4.7c-0.2-0.2-0.5-0.5-0.7-0.7c0.5-0.7,1-1.7,1.6-1.9c3.5-0.9,5.2-3.5,6.2-6.6
				c0.9-2.8-0.3-4.3-3.4-4.5c-1.4-0.1-2.7-0.3-4-0.5c0,0,0,0,0,0.1c0,0,0,0,0,0c1.6,2.5-0.4,4.1-1.7,6.6c-0.1-0.5-0.2-0.9-0.3-1.3
				c-0.6-2.5-0.5-4.3,2.1-5.3c0,0,0-0.1,0-0.1c0,0,0,0,0,0c-0.3-0.7-0.7-1.4-0.9-2.1c-0.1-0.2-0.1-0.5-0.1-0.7
				c-0.1-1.3,0-3.6,0.6-3.8c2.3-0.9,4.1-3.1,7.1-2.1c3.1,1,6.5,1.1,9.7,1.5C378.5,435.9,378.5,437.4,378.3,439.2 M321.9,421.8
				c-0.1-1.3-1.2-2.5-1.4-3.8c-0.8-5.1-2-10.2-1.8-15.2c0.2-4.9,0.6-9.7,0.2-14.6c-0.3-4,1.1-5.5,7.3-6.4c5-0.7,10.2-0.4,15.2-1.2
				c3.5-0.6,6.9-1.4,10.5-0.5c4.4,1,6.5,3.8,7,8.2c0.6,5.6,1.8,11.1,2.6,16.6c0.1,0.9,0.2,1.8,0.1,2.6c-0.6,6-1.3,12-1.7,18.1
				c-0.2,3.6-2.7,5.2-6.2,4.7c-4.9-0.6-9.8-0.5-14.7-0.2c-5.7,0.3-11.4,1.2-17,1.9C321.9,428.6,322.1,425.2,321.9,421.8 M227,83
				c1-1.8,2.1-3.5,3.1-5c3.4-1.4,6.6-3,10.1-4c9.6-2.8,19-6.7,29.4-6.3c1.1,0,2.2-0.6,3.3-0.8c1.4-0.2,2.9-0.2,4.3-0.2
				c2.3,0.1,4.7,0.4,7,0.3c3.5-0.1,7-0.9,10.4-0.5c2.3,0.3,4.4,2.1,6.7,3.1c2.9,1.2,2.7,3.6,2.7,6.1c0,0.7,0.5,1.5,0.6,2.2
				c0.5,2.7,1.7,5.5,1.2,8c-1.1,5.5-1.5,11.3-5.2,16.2c-2.1,2.8-4,5.5-7.4,6.9c-12.2,5-24.8,8.3-37.9,8.7
				c-7.3,0.3-14.3-2.7-20.8-6.4c-0.6-0.3-1.2-0.9-1.5-1.5c-2.6-5.2-5.6-10.2-7.6-15.6C224.2,90.7,225,86.6,227,83 M183.7,269
				c-4-2.5-7.8-5.2-12-7.3c-6.1-3.1-11-7.5-14.9-13c-2.9-4.1-5.7-8.3-8-12.8c-1.1-2.2-1.5-5.1-1.3-7.6c0.3-3.4-3.5-6-1.6-9.6
				c0.1-0.2-0.1-0.8-0.4-0.9c-4.2-2.9-2.5-7.4-2.9-11.3c-0.4-4-0.5-8-0.7-11.9c-0.1-2.7-0.3-5.2,2.2-7.2c2.2-1.8,0.8-4-0.2-6
				c-0.4-0.7-1.3-1.4-1.2-2c2.4-11.6,1.2-24,7.1-34.9c2.7-5,5.5-10,8.6-14.8c0.7-1.1,2.5-1.4,3.8-2c0.3-0.1,0.8,0.2,1,0
				c4.1-3.4,8.1-6.8,12.1-10.4c1.3-1.2,2-3,3.4-4c3.2-2.2,6.7-4.1,10.1-6.2c0.5-0.3,1.2-0.6,1.3-1.1c1-3.9,4.6-3.3,7.2-4.5
				c5.8-2.6,11.6-5.4,17.4-8.2c0.1,0,0.2-0.1,0.3-0.1c3.7-3.4,4.9-3.4,6,1.8c1.4,6.4,5.3,11.1,8.9,16c2.7,3.7,6.4,7.3,11.7,8.2
				c3.1,0.6,6,2.2,8.9,3.6c6.8,3.1,13.6,2.4,20.5,0.7c4-1,8.1-1.3,12.1-2.5c3-0.9,5.7-3,8.7-4c8.8-2.8,13.3-9.5,17.7-17.1
				c3.5-6.2,4.5-12.6,5.4-19.3c0.1-0.9-0.2-2-0.5-2.9c-1.3-3.1-0.9-4.9,3.1-4.8c2.7,0.6,5.4,0.9,8,1.8c3.7,1.2,7.4,2.6,10.9,4.4
				c2.5,1.3,4.7,3.2,6.9,4.9c6.2,4.7,12.6,9.2,18.3,14.4c6,5.4,10.9,11.7,14.2,19.3c1.5,3.3,4,6.2,5.5,9.5
				c2.8,5.9,5.9,11.7,7.6,17.9c1,3.7-0.7,8.1-0.6,12.2c0.1,5.6,1.2,11.2,1.1,16.8c-0.1,6.8,1.2,13.7-0.7,20.5
				c-1.8,6.5-2.4,13.3-4,19.8c-1.7,6.8-3.4,13.8-6.4,20.2c-2.1,4.6-6.2,8.3-9.4,12.3c-0.1,0.1-0.1,0.2-0.2,0.3
				c-6.9,3.1-11.7,9.2-18.2,12.9c-5.1,2.8-10,6.1-14.9,9.1c-0.5,0.3-1.2,0.7-1.5,0.6c-5.8-2.2-10.1,1.6-14.9,3.4
				c-2.5,0.9-5.1,1.5-7.7,2.2c-0.4,0.1-0.9,0.2-1.3,0.4c-5.5,3.9-11.9,3.5-18.1,4.4c-3.3,0.5-6.6,1.4-10,1.8
				c-4.5,0.5-8.9,1-13.4,1.2c-10.8,0.5-21.6,1.1-32.5,1c-4,0-7.9-2.2-12-2.6c-7.3-0.8-14-4.9-21.8-3.3c-2.1,0.4-4.8-1.3-6.9-2.5
				C191.4,273.9,187.6,271.4,183.7,269 M198.2,289.5c5.8-2.5,11.2-0.8,16.7,0.1c5.4,0.9,10.7,2.5,16,3.6c4.3,0.9,8.7,2.4,13,2.3
				c7.7-0.2,15.3-1.5,22.9-2.3c4.3-0.4,8.6-0.7,12.9-1c0.6,0,1.1-0.2,1.6-0.4c6.5-1.4,13-2.8,19.5-4.1c3.1-0.6,6.4-0.7,9.4-1.6
				c1.9-0.6,3.5-2.2,5.9-3.9c3.3,1.5,7.1,0,10.3-2.2c2.6-1.8,4.6-1.4,7-0.3c2.3,1.1,4.7,2.2,7.8,3.5c-1.9,1.7-4,3.2-5.6,5.1
				c-3.2,4.2-6.3,8.6-9.2,13.1c-4.9,7.6-11.4,13.7-17.5,20.1c-3.9,4.2-7.6,8.7-10.7,13.5c-2.9,4.5-7.6,5.3-11.8,7
				c-7.8,3-15.8,6-24.4,6.4c-7.8,0.4-15.5-1-22.2-4.4c-7.9-4-14.9-9.7-22.1-14.9c-3.6-2.7-6.9-5.9-10-9.2
				c-5.3-5.7-10.4-11.5-15.4-17.5C188.7,298,191.6,292.4,198.2,289.5 M152.6,430.3c0.8-0.5,1.7-1.1,2.6-1.6c1.8-1,2.7-2.3,1.5-4.4
				c-0.6-1.2-1.4-2.5-1.4-3.8c0.3-5.1-3.2-8.8-4.6-13.2c-1.4-4.5-2.5-8.8-0.6-13.7c2-5.1,4-10.6,4-16c-0.1-5.8,0.9-12-1.7-17.8
				c-2.3-5.1-1-10.1,2.2-14.4c3-4,3.5-8.8,5.5-13.1c1.8-3.9,4.1-7.6,6-11.5c0.6-1.2,0.8-2.8,0.7-4.2c0-2.3-0.7-4.7,2.1-5.9
				c0.2-0.1,0.4-0.3,0.5-0.5c2.2-4.1,4.3-8.2,6.4-12.3c4.2,0.1,4.6,3.7,6.3,5.8c1.9,2.3,3.7,4.7,5.7,7c2.8,3.4,5.6,6.9,8.7,10
				c3.7,3.7,7.7,7.1,11.7,10.4c6.2,5,12.5,9.9,18.9,14.7c7.2,5.4,15.5,8.4,24,11.4c7.1,2.5,13.7,1,20.6,0.6c4.5-0.2,7.7-2.4,11.4-4
				c3.1-1.3,6.5-2.1,9.6-3.4c3.7-1.5,7.5-2.9,10.7-5.2c2.8-2,4.9-5.1,7.3-7.7c0.5-0.6,1-1.3,1.5-1.9c2.2-2.7,5.6-5,6.3-8
				c1-4.2,4.2-6.2,6.2-9.3c1.6-2.4,4-4.3,6.1-6.5c1.2-1.3,2.4-2.5,3.9-4.1h3.3c-1.2-1.3-1.9-2.2-2.7-3c2.4-7,7.7-11.6,13.5-15.6
				c0.9-0.6,2.7-0.9,3.6-0.4c3.2,1.9,6.4,3.9,9.3,6.2c4.3,3.5,6,8.5,7.4,13.6c0.2,0.9,1,1.7,1.8,2.3c3.2,2.4,4.3,5.6,3,9.5
				c-0.2,0.6,0,1.5,0.3,2.1c1.4,2.5,3.2,4.9,4.4,7.6c1,2.2,1.2,4.8,1.8,7.2c0.8,3.3,1.6,6.7,2.2,10c0.8,4.9,1.7,9.9,2,14.9
				c0.5,10.2,0.6,20.4,0.8,30.5c0.1,4.4,0.1,8.8,0,13.2c0,1.4-0.1,2.9-0.8,4c-1.4,2.7-1.2,5.1-0.3,7.9c1.7,5.1-1,9-6.3,9.9
				c-1.4,0.2-2.7,0.7-4.1,0.6c-5.2-0.4-7.3-3.9-6.6-9.2c1.1-8.2,2.1-16.6,2-24.8c-0.1-5.1-2.3-10.2-3.7-15.2c-1.1-3.8-4.7-4.6-7.7-6
				c-2.7-1.4-4-4.7-3.5-7.7c0.2-1.2,0.1-3-0.7-3.7c-3-2.6-1.7-5.3-0.8-8.1c0.1-0.4,0.9-0.7,0.9-1c-0.1-7.2,2.5-14.6-2-21.3
				c-1.3-2-4.9-2.3-7.3-0.5c-1.9,1.4-2.6,3.1-1.5,5.7c1.2,2.9,1.8,6.2,2.2,9.3c0.8,5.1,1.3,10.3,1.8,15.4c0.2,2.4,0.1,4.9-0.2,7.3
				c-0.1,0.8-1,2-1.7,2.1c-6,1.3-12.1,2.1-17.9,3.8c-5.5,1.6-11.4,3-13.8,8.4c-5.2-1.5-10-3.6-15.1-4.3c-4.6-0.6-9.3,0.2-14,0.7
				c-4.5,0.5-9.1,1.1-13.6,2c-2.3,0.5-4.6,1.7-6.7,2.9c-0.5,0.3-0.7,1.5-0.7,2.3c-0.1,2.5,0.1,5-0.1,7.5
				c-0.7,11.1-1.8,22.2-2.2,33.4c-0.1,3.8,0.4,8.2,2.4,11.3c1.8,2.9,5.6,5.6,8.9,6.2c8.6,1.7,17.4-0.2,25.8-2
				c3.7-0.8,7.1-3.2,10.6-5.1c1.3-0.7,2.5-1.5,3.8-2.2c-1-1-2-1.9-3.3-3.2c0.7-3.8,1.9-8.3,2.4-12.9c0.4-4.6,0.1-9.2,0.9-13.8
				c0,5.7,0,11.3,0,17c0,3.2-0.3,6.4-0.1,9.5c0.2,3.3,5.8,7,9.2,6.7c2.6-0.2,5.7-1,7.8,0.1c2.8,1.4,5,0.6,7.5-0.1
				c1.5-0.4,3-1.2,4.5-1.2c5.6-0.1,6.5,0.7,7,6.4c0.3,3.4,2.2,6.6,1,10.4c-0.5,1.6,1.5,3.8,1.7,5.8c0.7,6.5,1.2,13.1,1.5,19.6
				c0.1,2.5-0.4,5-0.7,7.5c-0.4,3.1-0.9,6.2-1.3,9.3c-10.6-0.4-21.8-0.8-33.4-1.3c-1.5-4.5-4.4-9.5-0.8-15c0.3-0.4-0.1-1.3-0.3-1.9
				c-0.5-2.6-1.5-5.2-1.6-7.9c-0.1-3.7-1.8-5.5-5-6.8c-2.7-1.1-5-3.3-7.7-4c-3.5-0.9-7.3-0.9-11-1.2c-2.7-0.2-5.4-0.1-8-0.6
				c-9.7-1.8-19.4-2.4-29.2-0.5c-3.6,0.7-7.7,0.2-10.4,3.5c-1.9,2.2-4.1,4.4-5.1,7c-2.6,6.6-3.4,13.7-3.7,20.8
				c-0.1,2.4-0.6,4.9-1.5,7c-0.5,1.1-2.3,2.1-3.6,2.2c-2.7,0.2-5.6,0.3-8.3-0.4c-6-1.4-12.2-0.1-18.3-1.4c-1-0.2-2.1-0.2-3.1-0.1
				c-6.2,0.8-6.4,0.5-6.9-5.7c-0.2-2.1-1.6-4.2-1.9-6.3c-0.7-4.6-4.6-8.6-1.5-14c1.7-2.9,1.6-6.9,2-10.4c0.6-5.1,0.9-10.3,1.4-15.4
				c3.1,0,6.1,0,9,0c2.8,0,6.5,2.1,7.5-3c0-0.2,1.7-0.4,2.4-0.1c4.1,1.6,8.9,1.1,12.2,4.7c0.4,0.4,1.3,0.7,1.9,0.7
				c7.3,0.1,14.6,0.3,21.8-0.1c2.7-0.1,6-1,7.9-2.7c1.6-1.5,2.8-5.3,2-7.2c-2.4-5.6-0.9-10.6,1-15.6c1.4-3.7,0.8-7-0.7-10.4
				c-0.3-0.7-0.4-1.6-0.4-2.3c0.2-5.1,0.3-10.2,0.8-15.3c0.1-1.6,1.1-3.2,1.5-4.8c1.1-3.9-0.2-5.1-4.2-4.9
				c-4.3,0.2-8.6-0.5-12.9-0.5c-7.1,0.1-14.1,0.5-20.2,0.8c-1,4.1-1.8,7.2-2.5,10.3c-0.4,0-0.8,0.1-1.2,0.1c-0.6-2.5-1.5-5-1.6-7.5
				c-0.1-4.2-3.2-7.3-6.7-5.5c-2.9,1.4-5.4,0.5-7.9,0.3c-4-0.2-7.9-1.5-11.8-1.9c-3.4-0.3-3.6-2.2-3.1-4.8c0.9-4.3,2.1-8.6,2.6-13
				c0.4-3.3-0.1-6.7-0.5-10c-0.4-3.5-1.1-7.1-2.1-10.4c-0.3-1-2.2-1.8-3.5-2c-0.9-0.1-2.5-0.2-2.3,2.2c0.2,2.9-0.6,5.9-1.4,8.8
				c-1.6,5.7,1,11.1,0.6,16.7c-0.2,3.8,0,7.7-0.3,11.6c0,0.8-1.1,2.1-1.8,2.2c-2.9,0.2-5.8-0.2-8.6-0.1c-1.7,0-3.9-0.1-5.1,0.8
				c-1.1,0.8-1.5,2.9-1.5,4.5c-0.2,7.7-0.1,15.5-0.2,23.2c0,4.3-0.1,8.7,0,13c0,0.8,0.8,1.6,1.2,2.4c0.3,0.8,0.9,1.7,0.8,2.4
				c-0.3,2.7-0.8,5.4-1.4,8c-0.1,0.6-0.9,1.3-1.5,1.5C160.8,436.7,153.5,432.4,152.6,430.3 M296,437.3c-5.2,0.2-10.4,0.4-15.6,0.5
				c-2.5,0.1-5.1,0-7.6-0.1c-1.9,0-2.8-0.6-3-2.8c-0.4-4.6-2.1-9.2-1.8-13.7c0.4-9.5,1.7-18.9,2.7-28.3c0.4-3.8,3.6-4.1,6.4-4.4
				c5.1-0.6,10.3-1.1,15.4-1.3c3-0.1,6.1,0.3,9.1,0.7c0.6,0.1,1.4,0.9,1.6,1.5c2.2,7.8,1.4,15.8,1.3,23.7c-0.1,5.2,0,10.4,0,15.5
				c0,1.2-0.5,2.4-0.7,3.6c-1-0.1-1.9-0.2-3.1-0.3C301.2,435.6,299.3,437.2,296,437.3 M301.2,503.1c0.8,5.2,1.8,10.4,2.2,15.7
				c0.6,6.7,0.4,13.4,1.3,20.1c0.5,3.7-1.3,4.3-3.9,4.6c-5.2,0.7-10.5,1.2-15.6,2.2c-4.9,0.9-9.7,2.4-14.6,3.6
				c-0.5,0.1-1.1,0.2-1.6,0.1c-5-0.7-8.6,3.4-13.3,4.1c-0.4,0.1-0.5,2-0.8,3.5c-1.8,1.3-4.1,2.9-6.4,4.4c-0.3-0.2-0.5-0.3-0.8-0.5
				c0.5-1.4,1.4-2.7,1.6-4.2c0.2-2-0.3-4-0.3-6c0.1-2.6,0.7-5.2,0.5-7.8c-0.3-4.4,0.1-9.2-1.6-13c-2.5-5.6-0.6-10.3,0.5-15.4
				c0.8-3.4,1.3-7,1.3-10.4c0-1.5-1.8-3-2.4-4.6c-0.6-1.3-0.8-2.8-1-4.2c0-0.3,0.3-0.6,0.5-0.9c2.3-4.8,3.9-9.5,3-15.1
				c-0.5-3.2,0.3-6.6,0.6-9.9c0.2-2,4.3-3.5,7.6-3.4c7.6,0.2,15.2,0.3,22.9,0.3c1,0,2.1-0.3,2.9-0.9c2.4-1.6,4.6-1.6,7.1-0.2
				c1.2,0.6,2.8,0.4,4.2,0.6c1.9,0.4,4,0.7,5.7,1.5c3.4,1.6,2.2,4.8,2.5,7.6c0.2,2,0.9,4,1.5,6.1c0.4,0,0.8,0.1,1.2,0.1
				c-0.9,2.8-1.8,5.5-2.7,8.3c0.3-0.1,0.5-0.1,0.8-0.2c0.7,2.1,1.4,4.1,1.9,6.2c0.4,1.7,0,3.1-2.2,3.5
				C301.5,499.4,300.9,500.9,301.2,503.1 M213.4,419.5c1.7,4.5,0.1,12.5-3,14.7C210.3,429.1,208.1,423.6,213.4,419.5 M226.3,395.3
				c-0.4-2,0-3.2,1.9-3.7c3.3-0.7,6.7-1.4,10-1.8c3.5-0.4,7-0.5,10.7-0.7c-1.8,5.6-1.9,10.7,0.5,16c0.7,1.5-0.4,3.8-0.7,5.7
				c-0.1,0.8-0.6,1.9-0.2,2.2c3.8,3.5,1,8.1,2.1,12.2c0.6,2.2-1.9,5.3-3.1,8c-0.6,1.4-1.3,2.8-2.2,4.8c-5.9,0-12.4,0.2-18.8-0.1
				c-4-0.2-5.8-3.6-5.2-7.6c0.9-5.1,1.4-10.2,1.9-15.3c0.4-4.6,0.7-9,2.9-13.3C226.9,399.9,226.7,397.4,226.3,395.3 M181.6,464
				c-2.3-1.3-5.2-2.3-7-4.3c-1.6-1.9-2.1-4.8-2.8-7.3c-0.3-1.1-0.1-2.5-0.1-4.6c-3.1,0.8-5.9,1.6-9.1,2.4c1.7,3.5,2.7,6.9,4.7,9.5
				c1.3,1.7,3.9,2.3,6.7,3.7c-1.4,1.5-2.9,3-4.5,4.6c-0.8-1.6-1.1-3-1.7-3.2c-5.4-1.9-6.1-6.7-7.4-11.3c-0.5-1.7-1.7-3.2-2.5-4.8
				c-1.6-3.1-1.2-3.7,2.2-3.7c2.4,0,4.9,0.4,5.7-3c4.3,0.9,8.6,1.6,12.6,2.8c0.9,0.3,2,2.3,1.9,3.5c-0.3,3.3-1.4,6.5-1.6,9.8
				c-0.1,1,1.8,2.2,3.1,3.7C181.9,462.3,181.7,463.5,181.6,464 M181.1,435.6c-1,0-2-0.2-3.9-0.4c3-3,1.7-4.6,0.3-6.9
				c-1.6-2.6-2.2-5.9-2.9-8.9c-0.6-2.4-0.7-5-1-7.5c0-0.3,0.1-0.9-0.1-1c-6-5.1-0.3-10.5-0.4-15.8c0-0.6,0.4-1.3,0.6-2
				c1.4-5.5,1.4-5.4,6.7-4.8c6.2,0.6,12.5,1.1,18.7,1.5c4,0.3,6.2,0.5,6.7,6.2c0.8,10.7,0.4,21.1-2.9,31.4c-0.8,2.5-0.2,5.7-3.6,6.8
				c-1.8,0.6-3.6,1.2-5.4,1.3C189.6,435.8,185.3,435.7,181.1,435.6 M166.4,623.4c-5.1,0.2-10.3,0.4-15.5,0.7
				c-6.6,0.4-13.3,0.7-19.8,1.4c-2.6,0.3-4.9,0-7.4-0.3c-6.2-0.9-12.6-0.6-18.9-0.1c-3.8,0.3-4,0.7-3.2-3c0.2-0.9,0-1.9,0.1-2.8
				c0.3-2,2.7-3,3.7-1.4c3,4.8,7.1,4.3,11.8,3.6c6.4-0.9,13-0.9,19.4-1.6c3.6-0.4,7.2-1.8,10.8-2c4.4-0.2,8.9,0.5,13.4,0.9
				c0.8,0.1,1.6,0.2,2.3,0.1C167,618.2,167.4,618.7,166.4,623.4 M168,599.9c-1.1,3.7-2.2,7.4-3.3,11c-0.2,0.6-0.9,1.3-1.3,1.3
				c-4.8,0.2-9.4,2.1-14.5,0.5c-3.9-1.2-8.4-0.4-12.7-0.3c-2.3,0-4.6,0.5-6.8,0.7c-5.4,0.5-10.7,0.9-16.1,1.4
				c-4.6,0.5-5-0.2-4.3-4.6c0.8-4.9,0.7-10,1.7-14.8c1.6-7.6,4.9-14.4,10-20.4c3.6-4.2,8.1-7,13.4-8.7c1.9-0.6,3.6-2,5.5-2.9
				c0.8-0.4,1.8-1,2.5-0.8c3.4,1.1,6.6,2.4,10,3.6c1,0.3,2.4-0.2,3.2,0.4c3.3,2.3,6.7,4.5,7.7,8.9c1.7,7.7,3.5,15.4,5.4,23.8
				C168.2,598.8,168.2,599.4,168,599.9 M215.3,626.1c-4.6-2.3-9.7-3.2-15.2-2.8c-4.6,0.3-9.2-0.9-13.8-1.1c-2.7-0.1-5.3,0.6-8,0.9
				c-0.7,0.1-1.3,0.1-2,0.2c-0.2-0.3-0.4-0.6-0.6-0.8c0.7-0.6,1.4-1.5,2.2-1.7c1.4-0.3,3,0,4.5-0.1c4.5-0.3,9,0.7,13.5-1.2
				c3.9-1.7,8-0.7,12,0.6c1.4,0.5,3.1,0.3,4.7,0.3c5-0.1,10.1-0.4,15.1-0.5c0.6,0,1.4,0.7,1.6,1.3c0.6,1.2,0.9,2.6,1.5,4.3
				C225.7,627.2,220.9,629,215.3,626.1 M232.9,582.3c-2.1,2.6-3.5,5-2.9,8.7c0.9,5.5,1.1,11,1.5,16.6c0.2,2.1-0.4,3.4-3,3.5
				c-4.7,0.2-9.3,1.1-14,1.3c-11.6,0.4-23.2,0.6-34.9,0.9c-0.5,0-0.9,0.1-1.4,0.1c-5,0.1-5.2-1-4.9-6.1c0.2-3.8-0.1-7.4,1.7-11
				c0.7-1.5-1.1-4-1.4-6.1c-0.9-5.8-1.3-11.8-2.7-17.5c-0.9-3.7-3.1-7.2-5-10.6c-1.9-3.3-4.3-6.3-6.4-9.4c1.5-1.5,5.9-2.1,10.1-0.9
				c3.2,0.9,6.6,0.7,10,1c0.3,0,0.7-0.1,1-0.1c4.3,0.7,5.3-0.8,3.7-5.8c4.4-1.5,3.5-5.4,3.8-8.6c0.7-8.4,1.2-16.9,1.7-25.4
				c0.1-1.3-0.5-2.7-0.6-4c-0.1-1.1-0.3-2.4,0.2-3.2c0.3-0.5,2.1-0.6,2.8-0.3c7.2,3.7,15.1,1.5,22.6,2.9c2.8,0.5,5.9-0.9,8.9-1.3
				c2.8-0.4,5.7-0.7,8.6-0.8c3.5,0,6.3,1,6.7,5.3c0.5,5.2,2.1,10.4,2.1,15.6c0.1,5.9-1.2,11.8-1.5,17.7c-0.1,3.3,0.7,6.5,0.9,9.8
				c0.2,2.1,0,4.2,0.1,6.2c0.1,2,0.6,4,0.5,6c-0.1,1.2-0.8,2.5-1.4,3.6c-1,2.1-2.1,4.2-3.2,6.3C235.3,578.7,234.3,580.6,232.9,582.3
				 M300.5,624.9c-12.6,0.9-25.1,2.5-37.6,3.1c-6,0.3-12.1-0.9-18.1-1.5c-1.8-0.2-3.5-0.5-5.6-0.9c0.3-0.5,0.5-1.4,0.8-1.4
				c6.4-0.5,12.9-1.2,19.3-1.2c6.1,0,12.1,0.4,18.1-1c2.8-0.7,5.8-0.4,8.7-0.6c2.5-0.2,4.9-0.5,7.3-0.7c3.6-0.3,7.2-0.4,11.2-0.6
				C304.5,623.1,303.7,624.7,300.5,624.9 M304.8,612.7c-10.9,2.9-22.1,2.5-33.2,2.3c-7.6-0.1-15.2-0.8-22.7-1.1
				c-1.9-0.1-3.9,0-5.9,0.3c-3.5,0.6-4.4,0.1-4.7-3.4c-0.3-3.9-0.5-7.8-0.4-11.8c0-1.7,0.8-3.4,1.4-5.1c0.6-1.8,1.4-3.6,1.8-5.5
				c1.5-6.1,3.8-11.7,8.8-15.8c4.9-4,9.5-8.2,15.1-11.2c4.4-2.4,8.6-2.6,13.2-2.6c6.7,0.1,9.1,5,12.1,9.7c3.1,4.8,6.5,9.5,9.9,14.1
				c4.7,6.4,5.8,13.9,6,21.5C306.2,606.8,305.3,609.6,304.8,612.7 M365.2,623.2c-16.9-2.3-33.8-1.6-50.6,0.7
				c-0.8-2.7,0.5-3.1,2.4-3.2c3.3-0.2,6.6-0.4,9.9-0.8c5.2-0.6,10.2-2.5,15.5-1.9c0.7,0.1,1.7-0.3,2,0.1c3.8,4.1,8.9,2.1,13.4,3.2
				c2.4,0.6,5,0.7,7.5,1.1C365.2,622.6,365.2,622.9,365.2,623.2 M368.4,613c-8.4,0.3-16.7,2.6-25.3,0.9c-4.3-0.8-8.9,0.2-13.4,0.3
				c-4.1,0.1-8.3,0.3-12.4,0.2c-2.3-0.1-4.5-5-3.2-7.9c1.9-4.5,0.8-8.7-0.6-13.1c-1.2-3.7-2-7.5-3.3-11.2c-0.8-2.3-2.1-4.5-3.3-6.6
				c-1.4-2.6-2.6-5.4-4.5-7.6c-3.2-3.7-6.9-7-10.5-10.3c-1.9-1.7-1.9-3,0.4-3.6c6-1.6,12-2.9,18.1-4.4c2.1-0.5,4.3-0.8,6.1-1.9
				c1.1-0.7,2.3-2.7,2.1-3.9c-1-6.2-2.4-12.3-3.7-18.5c-0.1-0.3-0.4-0.6-0.4-1c0-4.6-0.3-9.2,0.1-13.8c0.3-2.4,1.6-4.4,5.2-3.6
				c3.7,0.8,7.7,0.2,11.5,0.3c5.6,0.1,11.2,0.5,16.8,0.4c3.2-0.1,6.4-0.7,9.6-1.4c2.2-0.5,4.2,0.4,4.3,2.7
				c0.5,9.1,0.5,18.3,1.3,27.4c0.5,6-0.8,11.7-1.3,17.5c-0.4,4.5,1.4,9.2,2.1,13.8c0.6,3.8,1.1,7.7,1.7,11.6
				c0.1,0.6-0.1,1.2,0.1,1.7c3.6,8.6,2.2,17.9,3.3,26.8c0.2,1.5,0.3,2.9,0.5,4.5C369.2,612.6,368.8,612.9,368.4,613"/>
			<path class="st7" d="M359.8,442.9L359.8,442.9C359.8,442.8,359.8,442.9,359.8,442.9C359.8,442.9,359.8,442.9,359.8,442.9
				C359.8,442.9,359.8,442.9,359.8,442.9C359.8,442.9,359.9,442.9,359.8,442.9C359.9,442.9,359.8,442.9,359.8,442.9
				C359.8,442.9,359.8,442.9,359.8,442.9C359.8,442.9,359.8,442.9,359.8,442.9"/>
			<path class="st6" d="M359.8,442.9C359.8,442.8,359.8,442.8,359.8,442.9L359.8,442.9C359.8,442.9,359.8,442.9,359.8,442.9"/>
			<path class="st6" d="M359.8,442.9C359.8,442.9,359.8,442.9,359.8,442.9c-0.3-0.7-0.7-1.4-0.9-2.1
				C359.1,441.5,359.5,442.2,359.8,442.9"/>
			<path class="st6" d="M358.9,440.8c-0.1-0.2-0.1-0.5-0.1-0.7C358.8,440.3,358.8,440.5,358.9,440.8"/>
			<path class="st6" d="M358.1,449.6c-0.1-0.5-0.2-0.9-0.3-1.3C357.9,448.7,358,449.1,358.1,449.6"/>
			<path class="st6" d="M359.8,442.8C359.8,442.9,359.8,442.9,359.8,442.8C359.8,442.9,359.8,442.9,359.8,442.8
				C359.8,442.9,359.8,442.8,359.8,442.8"/>
			<path class="st7" d="M208.6,215c2.7,4.1,3.8,9,8.1,12.2c4,2.9,7.2,6.9,10.5,10.5c5,5.4,11.7,6.7,18.4,7.9
				c7.7,1.4,15.3,1.6,23-0.6c2.9-0.8,6.4-0.1,9.2-1.2c11-4.2,20.9-9.8,26.2-21.2c0.2-0.4,0.8-0.5,1-0.8c3.8-4.8,8.8-9.2,10.9-14.6
				c3.8-9.8,5.3-20.3,1.1-30.8c-1.2-3-1.6-6.4-2.1-9.7c-0.9-5-1.1-10.2-4.4-14.6c-3.4-4.4-5.8-9.6-12-11c-0.6-0.1-1-1.3-1.3-1.7
				c-2.3,0.9-4.4,2.4-6.7,2.6c-2.3,0.2-4.8-0.6-6.9-1.4c-8-3.3-16.4-1.5-24.4-0.9c-7.6,0.5-15,3.9-22.3,6.3
				c-2.1,0.7-4.5,1.9-5.7,3.6c-3.1,4.2-7.6,6.1-11.9,8.5c-2.5,1.4-4.5,2.9-5.2,6c-0.6,2.6-1.5,5.6-3.3,7.3c-4,3.9-5.2,8.6-5.6,13.6
				c-0.2,3.2,0.6,6.6,0.2,9.8C204.5,201.9,204.5,208.6,208.6,215 M292.6,219.7c-0.1-1.6-0.5-2.6-0.2-3c1.2-1.3,2.6-2.3,4-3.4
				c0.3,0.4,0.5,0.7,0.8,1.1C295.9,215.9,294.6,217.5,292.6,219.7 M253.2,150.5c3.6,0,7.2-1.5,10.9-1.6c6.3-0.2,12.6-0.1,18.9,0.7
				c2.8,0.4,5.2,2.1,8.5,2c4.8-0.2,8.5,3.5,11.6,6.9c4.2,4.6,5.2,10.1,3.9,16.3c-0.6,2.7,0.6,5.9,1.3,8.7c2,8.1,0.3,15.6-3,23.2
				c-2-0.6-3.7-1.1-5.1-1.5c1-4.4,2-8.7,3.1-13c1.1-4.5-0.3-8.8-1.5-13c-1.8-6.2-3.7-12.4-5.4-18.7c-0.7-2.6-2-4.3-4.8-4.5
				c-0.3,0-0.7-0.1-0.9-0.3c-3.5-3.6-7.8-2.5-12.1-2.4c-4.3,0.1-8.6-0.2-12.9,0.1c-7.7,0.5-15.1,2.5-22,6.2
				c-1.7,0.9-3.9,0.6-6.1,0.5C241.8,155.3,245.9,150.6,253.2,150.5 M231.8,178.8c1.1-2.4,3.6-4.1,5.5-6.1c0.4-0.5,0.9-0.9,1.3-1.3
				c2.3-2,4.3-4.8,7-5.7c6.7-2.4,13.7-3.9,21.7-6c4.7,0,10.3,0.1,16,0c2.6,0,7.7,3,8.5,5.6c2.3,7.5,5,15,4.4,23
				c-0.7,9.9-3.9,18.4-11.1,26c-6,6.3-13.5,6.6-20.5,8.9c-5.7,1.9-11.7,2.6-17.9,2.1c-4.2-0.3-6.6-3.1-9.8-4.6
				c-8.3-4-9.8-12.1-11.5-19.8c-0.5-2.4,0.7-5.4,1.5-8C228.2,188.1,229.7,183.3,231.8,178.8 M212.9,188.3c0.3-3.1,1.7-6.1,2.7-9.1
				c0.4-1.2,0.8-2.4,1.4-3.4c0.6-1.1,1.4-2,2.1-3c0.9-1.3,1.8-2.5,2.9-3.9c1.9,1.3,3.6,2.5,5.2,3.5c-1.9,3.9-4.6,7.6-5.5,11.7
				c-1.2,4.9-1.1,10.1-1.2,15.1c-0.1,3.4,0.2,6.9,0.3,10.4c0.1,5,2.7,8.9,6.1,12.3c2,2.1,4.2,4.5,6.8,5.5c4.3,1.6,9,2.7,13.6,3
				c6.1,0.4,12.3,0.4,18.2-0.7c5.9-1,11.6-3.2,17.3-5.3c3.5-1.3,3.4-1.6,6.5,1.4c-8.7,5.4-17.8,9.2-27.9,11.2
				c-14.1,2.8-26.2-0.3-37.5-8.7c-2.4-1.8-3.3-3.7-4.2-6.3c-0.7-2.2-2.7-4.2-4.6-5.8c-2.6-2.2-2.6-5.2-2.7-7.9
				C212.1,201.6,212.3,194.9,212.9,188.3"/>
			<path class="st7" d="M229.6,320.9c3.5-0.4,6.9-3.6,7.3-6.9c0.2-1.7,0.3-3.4,0.4-5.1c0.2-3.7-5-7.3-9.5-6.7
				c-2,0.3-4.2,0.8-6.1,0.4c-3-0.7-4,0.6-4.8,3.1C214.1,314,220.6,322,229.6,320.9 M224.6,310.1c1.2-0.2,2.3-1.4,3.4-2.1
				c0.3,0.3,0.6,0.6,0.9,1c-0.9,1.9-1.8,3.8-3.2,6.7c-1.1-0.8-3-1.4-3.6-2.6C221.2,311.2,222.7,310.5,224.6,310.1"/>
			<path class="st7" d="M265.5,335.2c6.4-0.6,7.2-1.4,8.7-8.2c1.4-6.2,0-8.5-5.9-10c-1.2-0.3-2.5-0.3-4.2-0.5
				c-1.2,0.2-2.9,0.4-4.3,0.9c-5,1.8-8,7-6.2,10.8C255.1,331.9,261.5,335.6,265.5,335.2 M266,321.7c0.1,2.4,0.4,4.8,0.2,7.2
				c-0.1,0.7-1.8,1.6-2.8,1.6c-3.4,0.1-3.6-2.9-5-6C261.1,323.5,263.5,322.6,266,321.7"/>
			<path class="st7" d="M299.1,309.1c1.6-1,4.5-2.3,6.5-4.4c0.8-0.8-0.3-3.4-0.3-5.2c0-3.1-2.5-4.1-4.3-5.7
				c-2.7-2.4-4.5-0.4-6.5,1.2c-0.5,0.4-1.4,0.2-1.9,0.5c-1.1,0.9-2.5,1.7-3.1,2.9C287.1,302.9,292,309.2,299.1,309.1 M298.6,297.7
				c1.3,2.4,2.3,4.7-0.3,6.3c-0.7,0.5-3.1-0.1-3.3-0.7C293.8,300.3,296.3,299.2,298.6,297.7"/>
			<path class="st7" d="M239.7,108.5c5.6,2.2,11.5,3.6,17.3,5.3c0.1-0.2,0.2-0.5,0.2-0.7c1.6-0.1,3.3,0.1,4.8-0.3
				c6.5-1.9,13-4,19.5-6c11.4-3.4,18.6-11.1,22.9-21.9c1-2.6-1.6-9.3-4-10.3c-2.2-0.8-4.6-1.8-6.9-1.9c-10.2-0.2-20.5-0.4-30.7,0.1
				c-4.8,0.2-9.7,1.7-14.5,2.6c-2.7,0.5-5.4,0.9-8,1.9c-1.5,0.6-2.5,2.6-4.1,3.3c-4,1.6-5.4,5.4-5.8,8.7c-0.6,5,2,9.7,4.6,14
				C236.2,105.2,237.8,107.7,239.7,108.5 M290.1,94.8c-0.3,0.5-0.7,0.9-1.2,1.2c-1.2,0.8-3.2,2.4-3.7,2c-1.2-0.9-2.4-2.6-2.5-4.1
				c0-1.3,1.1-3.4,2.3-3.9c2.7-1.3,5.7-1.8,8.5-2.6c0.3,0.2,0.6,0.4,1,0.5C293.1,90.2,291.6,92.5,290.1,94.8 M282.8,80.8
				c0.4-1,0.6-2.2,1.2-4.2c2.1,0,5.3-0.9,7.2,0.3c1.9,1.2,2.6,4.5,4.1,7.7c-3.9,0.8-7.3,1.7-10.9,2.1
				C282.3,86.9,281.6,83.8,282.8,80.8 M245.5,105.9c-2.4-3.4-4.1-5.9-5.9-8.4c4.9-2.1,5.8-1.6,5.9,3.1
				C245.5,102.1,245.5,103.5,245.5,105.9 M265.6,87.1c0.9-2.9,2.1-5.7,3.2-8.6c2.1-0.4,4-0.6,5.9-1c3-0.6,4.9,0.5,5.5,3.5
				c0.3,1.6,0.5,3.2,0.4,4.8c-0.1,0.7-0.9,2-1.6,2c-4.1,0.6-8.3,0.9-12.5,1.2C266.2,89,265.4,87.6,265.6,87.1 M267.2,93.5
				c3-1.1,6.2-1.7,9.3-2c1.9-0.1,3.6,1,3.8,3.4c0.1,1.6,0.6,3.1,1.1,5.2c-4.2,1.4-8.6,2.8-13.2,4.3c-1.1-2.4-2.5-4.8-3.1-7.3
				C264.9,96.1,266.2,93.9,267.2,93.5 M251.4,81.6c3.1-1.1,6.2-2.2,10.1-3.6v11.8c-4.3,0.4-8.2,0.7-12.8,1.1
				C249.7,87.5,250.6,84.5,251.4,81.6 M252,95.1c1.2-0.4,2.5-0.2,3.8-0.4c6-0.9,6-0.9,6.4,5c0.1,1.6,0.9,3.2,1.6,5.2
				c-4.7,0.5-9.2,1-13.7,1.5c-0.5-2.5-0.4-4.6-1.3-6.2C247,96.4,249.8,95.9,252,95.1 M240.1,84.9c0.4-0.5,2.1,0.1,3.1,0.3
				c0.7,0.1,1.3,0.1,2.2,0.2c0.3,7.5-2.2,6.9-6.7,6.8c-0.7,0-2.2-1.5-2.1-1.7C237.6,88.6,238.7,86.6,240.1,84.9"/>
		</g>
	</g>
</g>
</svg>
