<?xml version="1.0" encoding="utf-8"?>
<!-- Generator: Adobe Illustrator 26.3.1, SVG Export Plug-In . SVG Version: 6.00 Build 0)  -->
<svg version="1.1" id="Layer_2" xmlns="http://www.w3.org/2000/svg" xmlns:xlink="http://www.w3.org/1999/xlink" x="0px" y="0px"
	 viewBox="0 0 500 500" style="enable-background:new 0 0 500 500;" xml:space="preserve">
<style type="text/css">
	.st0{fill:#D4AE29;}
	.st1{fill:#929191;}
	.st2{fill:#6C6B69;}
	.st3{fill:#F3D1A4;}
	.st4{fill:#444442;}
	.st5{fill:#FFFFFF;}
	
		.st6{clip-path:url(#SVGID_00000178163846971490098680000002210010280025856689_);fill:url(#SVGID_00000057131411331239212990000008920687998700123563_);}
	.st7{fill:#1D1D1B;}
	.st8{fill:#9E8730;}
	.st9{fill:#FFE064;}
	.st10{clip-path:url(#SVGID_00000018948397396118407110000015676731535927282318_);fill:#FFE064;}
	.st11{fill:#EEEEB1;}
	.st12{clip-path:url(#SVGID_00000008850094709066741730000011535557202815078283_);fill:#C2C830;}
	.st13{clip-path:url(#SVGID_00000008850094709066741730000011535557202815078283_);fill:#1D1D1B;}
	.st14{fill:none;}
</style>
<g>
	<polygon class="st0" points="60.4,350.3 64.3,342.3 68.7,338.4 78.6,333.3 89.3,334.5 108.6,335 120.7,333.5 131.2,329.9 
		136.5,329.4 141.6,332.8 148.2,336.4 155.5,346.6 160.1,369 159.9,385.8 157.9,397.2 149.4,396.3 144.6,398.4 145.3,412.1 
		145.3,426.4 126.6,427.1 125.8,414.5 121.7,410.4 109.5,409.1 97.9,410.8 95.2,426.4 81.8,427.9 74,426.7 71.8,415 72.3,400.9 
		59.4,399.9 57,397.5 54.3,377.8 55.8,363.7 	"/>
	<g>
		<path class="st1" d="M71.6,338.4l7.8-5.4l-10.2-5.4l-10-8l-5.6-5.8c0,0-9.7,1.9-9.5,1c0.2-1-4.6-8.3-4.6-8.3l1.7-18.5l11.2-2.2
			l3.4-17.3l15.3-12.9l16.5-6.8l2.4-5.1l13.1-5.1l16.5-0.2l14.3,3.6l11.9,7.5l8,9l7.5,12.9l0.5,9.5l9.2,0.5l1,15.3l-2.7,12.4
			l-10.7,0.7l-5.8,9c0,0-16.3,10-15.6,10c0.7,0,5.1,3.9,5.1,3.9l-9.5,11.4l-10.7,12.9l-13.1,6.1l-8.3-0.5l-12.4-5.1l-10.7-9.7
			L71.6,338.4z"/>
		<path class="st1" d="M125.8,427.9c0,0,12.9-0.5,14.1-0.7c1.2-0.2,8.3,0.2,8.3,0.2l2.2,6.6l0.7,17.8l3.2,24.6l-8.5,0.7l-6.6-1
			l-14.4,0.5l0.5-12.9l-6.1-9.2l-6.3-5.1l13.6-3.9L125.8,427.9z"/>
		<polygon class="st1" points="73.3,426.9 96.9,427.4 97.6,437.6 98.1,451.5 97.4,457.3 94,464.4 93.2,475.8 65,476.3 66.2,468 
			64.3,457.1 57.5,448.3 63.8,446.8 69.4,447.1 		"/>
	</g>
	<polygon class="st2" points="65.5,376.6 82.8,377.5 82.5,390.9 79.1,400.4 70.6,401.1 65.7,398.9 64,386.3 	"/>
	<polygon class="st2" points="90.1,378 102,377.5 101,388.2 101.7,400.6 90.1,401.6 85,398.9 86.4,384.6 	"/>
	<polygon class="st2" points="108.1,377.5 121.2,376.1 125.6,378 130.4,375.1 143.1,372.4 148.7,376.3 149.9,386.5 148.7,396 
		144.3,398.4 130.2,398.7 128.7,392.4 127.3,381.9 125.3,383.8 124.6,398.4 115.6,401.6 108.1,401.1 106.1,395.5 	"/>
	<g>
		<path class="st2" d="M114.4,449l7.3,9l4.6,11.2l-0.2,7.8c0,0,8.3-0.5,9.5-0.7c1.2-0.2,5.6,0.2,6.6,0c1-0.2,10.5,2.2,10.5,2.2
			l-1,2.4h-18l-17.3,2.2l-20.9-0.7l-28.7-0.7l-32.3,0.2l1.9-7.1l2.9-13.9l11.2-9.2h10.5l3.2,5.6l2.4,9.2l-1.5,9.2l11.9,0.2l16.3,0.5
			v-12.9l5.6-8l9.5-6.3L114.4,449z"/>
		<polygon class="st2" points="88.1,343.1 92.9,342.7 91.7,347.8 87.9,347.8 86.2,345 		"/>
		<polygon class="st2" points="104.3,349.5 108.2,348.7 108.5,352.7 106.6,354.4 103.4,353.3 102.3,351.5 		"/>
		<polygon class="st2" points="118.4,340.2 120.8,338 123,340.2 121.1,343.1 118.5,342.4 		"/>
		<polygon class="st2" points="11.3,25.6 12.2,34.3 12.4,54.6 14.1,70.6 13.2,88.3 13,115.7 14.2,133.2 12.2,145.8 12.6,163.1 
			13.3,199.2 13.9,218 12.2,237.7 13.9,242.3 13.3,272.8 12.4,278.4 13,289.5 11.9,309.6 13.3,322.2 17.3,331.7 21.5,339.3 
			31.2,347.2 44.9,351.9 57.3,351.2 61.9,347.4 63,342.4 56.4,344.6 46.4,345.9 35.8,343 27.6,338.8 22.5,329.5 17.5,316.5 
			17.7,296.5 18.6,278.8 17.7,275.3 18.6,242.1 17.9,239.2 19,228.2 18.8,192.9 18.1,188.8 18.3,162 18.3,148.9 17.3,144.5 
			18.3,133 18.1,111.7 18.4,97.8 18.6,82.7 17.9,74.1 17.9,52.9 18.4,41.5 17,28.5 16.6,18.5 		"/>
		<polygon class="st2" points="31,20.3 36.7,17.6 36.9,34.5 37,46.4 36.3,57.9 37,77.4 36.5,97.8 36.3,111.5 36,126.5 34.7,136.9 
			35,149.8 35.2,162.6 34.7,183.2 34.3,199.4 33.6,205.3 34.7,239.2 33.9,253.1 33.2,268.9 32.5,290.6 32.3,306.1 31.9,309.4 
			37.6,320.5 44,326.8 53.5,329.5 68.2,327.8 71.9,331.3 68.1,333.1 58.9,335.9 51.3,336.4 38.1,329.1 30.8,320.9 27.2,312.3 
			26.5,290.6 27.9,258.9 29,228.8 28.5,201.1 29.6,182.1 29,175.7 29.8,161.7 29.6,131 30.8,120.1 31.2,92.9 31.6,80.9 31.9,67.5 
			31.8,48.9 32.1,34.2 		"/>
	</g>
	<polygon class="st3" points="59.5,400.8 64.6,399.5 72.8,402.1 73,411.6 68.1,411.4 65,413.2 61.7,409.9 58.9,404.6 	"/>
	<polygon class="st3" points="144.1,398.8 149.6,396.4 157.4,397.7 156.2,402.5 153.6,405.7 146,409.8 	"/>
	<polygon class="st4" points="94,283.2 103.9,279.1 116.9,278.9 121.2,288.2 120.4,298.3 116.3,305 103.1,309.4 94.4,308.7 
		89.2,303.1 88.2,292.7 	"/>
	<g>
		<path class="st4" d="M105.8,258.2c0,0,9.5-2.7,10.2-3.1c0.7-0.4,6.2-6.9,6.2-6.9l-2.4-4.6l-8-0.4l-11.1,1.3l-6.6,2.2l-1.6,4
			l2.9,5.7l4.2,2L105.8,258.2z"/>
	</g>
	<polygon class="st5" points="94.6,287.7 98.8,287.9 97.1,292.3 93.8,292.7 	"/>
	<polygon class="st5" points="98.8,292.8 100.4,288.6 102.6,288.3 102.6,292.7 	"/>
	<g>
		<path class="st5" d="M93.5,294.7c0.5-0.2,3.3-0.7,3.3-0.7l-0.7,4.7l-3.5-0.5L93.5,294.7z"/>
		<polygon class="st5" points="98.6,294.8 101.5,294.5 100.6,299 98.2,299.2 		"/>
	</g>
	<g>
		<defs>
			<path id="SVGID_1_" d="M216.3,277.4c0,0-3.9,5-5.6,6.2c-1.7,1.2-13.4,7.6-15.4,9.3l-3.6,4.7l3.1,3.6l9.6,3.6l12.7,2.2l5.6,6.5
				l10,0.2l4.9-4.2l-0.9-7.8l16-3.1l7.8-1.3c0,0,0.4-9.6-3.1-11.8c-1.8-1.1-4.3,0.6-6.9,2.4c-2.4,1.7-4.8,3.3-6.7,2.5
				c0,0-8.1-4.9-9.6-4.7c-1.5,0.2-0.4-6.5-0.4-6.5l-6.9-2.9L216.3,277.4z"/>
		</defs>
		<clipPath id="SVGID_00000154423511631036841010000018271854284530965632_">
			<use xlink:href="#SVGID_1_"  style="overflow:visible;"/>
		</clipPath>
		
			<linearGradient id="SVGID_00000013907225125522907600000000942602572255569057_" gradientUnits="userSpaceOnUse" x1="-4551.583" y1="2119.2334" x2="-4550.396" y2="2119.2334" gradientTransform="matrix(0.3286 -23.8237 -23.8237 -0.3286 52209.8359 -107423.4688)">
			<stop  offset="0" style="stop-color:#FFFFFF"/>
			<stop  offset="1" style="stop-color:#628393"/>
		</linearGradient>
		
			<polygon style="clip-path:url(#SVGID_00000154423511631036841010000018271854284530965632_);fill:url(#SVGID_00000013907225125522907600000000942602572255569057_);" points="
			191.3,313.7 191.9,275.4 261.6,276.3 261.1,314.7 		"/>
	</g>
	<g>
		<path class="st7" d="M224.4,485.8c-0.7,0-1.5,0.3-2.2,0.1c-2.5-0.6-4.8-2.3-7.6-1.8c-0.3,0.1-0.9-0.1-1.1-0.3
			c-1.4-1.5-3.3-1.5-4.8-1.3c-3.2,0.5-6.2-0.2-9-1.2c-4.5-1.7-8.9-0.7-13.3-0.3c-1.9,0.2-3.8,1.3-5.7,1.2c-2.7-0.1-5.5-0.6-8-1.5
			c-2.7-1-5.5-0.4-8.2-1.2c-2.1-0.6-4.6-0.3-6.8-0.5c-0.3,0-0.7-0.5-0.8-0.9c-0.2-0.4-0.2-0.9-0.3-1.3c-0.3-1-0.7-1.9-0.8-2.9
			c-0.2-1.7,0-3.5-0.2-5.3c-0.2-2.4-0.7-4.7-0.9-7c-0.1-0.9,0.3-1.9,0.1-2.8c-0.5-2.7-1.1-5.4-1.7-8.1c-0.1-0.5-0.4-1.1-0.3-1.6
			c0.9-2.9,0.7-5.6,0-8.5c-0.7-3.4-0.7-7-1-10.5c0-0.2,0-0.4,0-0.6c-0.2-1.2-0.3-2.3-1.7-3c-1.3-0.7-2.9-1.5-2.9-3.4
			c0-1.2,0-2.4,0-3.6c0-1.9,0.3-3.9,0-5.7c-0.2-1.4,0-2.3,1-3.1c1.9-1.4,4-2.6,5.8-4.1c1.2-0.9,2.2-2.2,2.9-3.4
			c0.8-1.4,0.9-3.2,1.9-4.4c1.7-2,1.2-4.4,2-6.5c0.6-1.6,0.6-3.4,0.9-5.1c0.1-0.8,0.2-1.7,0.2-2.5c0-1-0.1-2-0.1-3.1
			c0.1-1.6,0.4-3.1,0.4-4.6c0-1.4-0.2-2.7-0.3-4.1c-0.2-2-0.3-4-0.5-6c-0.1-0.7-0.1-1.4-0.2-2.1c-0.2-1.9-0.5-3.8-0.8-5.6
			c-0.3-1.7-0.8-3.4-1.2-5.1c-0.5-2.1-0.8-4.2-1.3-6.2c-0.3-1-1-1.9-1.3-2.8c-0.9-2.7-2.3-5.1-4.7-6.8c-1.1-0.8-2.4-1.6-2.8-2.7
			c-0.5-1.5-1.5-1.9-2.7-2.4c-0.6-0.2-1.5-0.4-1.6-0.9c-0.6-1.8-2.3-2.1-3.7-3.1c0.3-0.3,0.5-0.6,0.8-0.8c1.6-0.9,3.2-1.8,4.8-2.5
			c1.7-0.7,3.1-1.7,3.7-3.6c0.1-0.4,0.7-1,1-1.1c2.7-0.2,4.5-1.8,6.1-3.7c0.4-0.4,0.1-1.3,0.2-2c0.1-0.4,0.1-0.9,0.3-1.2
			c0.3-0.4,0.8-0.7,1.1-1.2c0.7-1.3,1.4-2.3,3.2-1.6c0.4,0.2,1,0.1,1.4-0.1c1.9-0.9,3.8-0.9,5.8-0.2c0.4,0.2,1.2-0.1,1.6-0.4
			c1.9-1.1,2.2-3.1,2.4-5.1c0.2-1.3,0.4-2.5,0.5-3.8c0.1-1.9,0.3-3.8,0.3-5.8c-0.1-1.5-0.8-3.1-0.6-4.5c0.3-2.6,0.4-5.2,0.2-7.8
			c-0.1-1.3-0.3-2.4-1.5-3.2c-1.3-0.9-2.7-1.3-4.2-1.4c-1.7-0.1-3.3,0-5,0c-0.2-2.1-0.1-4.1-0.6-6c-1.1-4.4-2-8.9-4.9-12.7
			c-1.7-2.2-3.1-4.6-5.4-6.3c-2.1-1.6-4-3.4-5.9-5.1c-1.7-1.6-3.4-3.2-5.2-4.7c-3.9-3.4-8.7-4.7-13.6-5.9c-1.2-0.3-2.6-0.7-3.9,0
			c-0.4,0.2-1.1-0.1-1.6-0.3c-1.9-0.7-3.2-2.4-5.7-1.9c-2.6,0.5-5.4,0.1-8.1,0.1c-3.2,0-6.4,0.2-9.4,1.2c-1.9,0.7-3.9,1.3-5.7,2.2
			c-1.2,0.6-2,1.8-3.1,2.5c-1.5,1.1-2.3,2.5-2.8,4.2c-0.1,0.3-0.4,0.8-0.7,0.9c-2.3,0.8-4.7,1.2-6.9,2.2c-3.1,1.4-6.5,1.9-9.3,4.1
			c-0.8,0.6-1.7,1.3-2.5,1.8c-2.4,1.7-4.8,3.4-7.3,4.9c-1.1,0.7-1.4,1.9-2.2,2.7c-1.4,1.4-3.1,2.4-3.8,4.4c-0.5,1.5-1.3,2.8-1.9,4.3
			c-1.3,3.3-2.5,6.7-2.5,10.3c0,1.1-0.1,1.9-1.6,1.8c-0.4,0-0.9,0.5-1.4,0.7c-0.3,0.1-0.7,0.3-1,0.2c-1.9-0.1-3.7,0.2-5.3,1.2
			c-2.4,1.5-2.3,4-2.6,6.3c-0.4,2.9-0.5,5.8-0.7,8.7c-0.1,1.6-0.1,3.2,0.2,4.7c0.5,2.4,1.4,4.7,1.9,7c0.6,2.9,2.8,4.1,5.1,5.2
			c0.5,0.2,1.3-0.4,2-0.6c0.2,0,0.4,0.1,0.6,0c1.2-0.1,2.4-0.1,3.5-0.4c2.2-0.6,3.7-0.9,4.9,0.6c2.3,2.8,4.6,5.7,7.2,8.7
			c-0.2,0.2-0.5,0.7-0.9,0.8c-1.1,0.4-2.3,0.9-3.5,1c-1.9,0.1-3.9,0.1-5.8-0.1c-1.3-0.2-2.6-0.8-3.9-1.3c-1.1-0.4-2.4-0.6-3.4-1.1
			c-1.1-0.5-2.1-1.3-3.2-2c-0.6-0.4-1.3-0.7-1.6-1.2c-0.8-1.4-2.1-2.4-2.8-4c-1.4-3.2-3.3-6.3-5-9.4c-0.1-0.2,0-0.6,0-0.9
			c0.1-2.3,0.5-4.5,0.2-6.7c-0.5-4.7,0.9-9.3,0.1-14c-0.2-1.4,0-3,0-4.4c0.1-3.1,0.1-6.2,0.6-9.2c0.2-1.4,0-2.7,0.1-4
			c0-1.7,0.4-3.4-0.1-5.2c-0.2-0.6,0.1-1.4,0.2-2c0.1-1.1,0.2-2.2,0.2-3.4c0-0.3-0.1-0.7-0.1-1c0.2-1.9,0.6-3.8,0.8-5.8
			c0.1-1.1,0-2.3,0-3.4c0-0.8-0.5-1.9-0.1-2.3c1.4-1.5,0.4-3.1,0.4-4.6c0-1-0.3-2.1-0.2-3.1c0-2.4,0.3-4.9,0.3-7.3
			c0-4.8-0.2-9.7-0.3-14.5c0-1.4,0-2.9-0.1-4.3c-0.1-2-0.2-4.1-0.2-6.1c0-1,0.1-2,0-3.1c-0.1-1.2-0.8-2.4,0.5-3.5
			c0.2-0.1,0.1-0.6,0.1-0.9c0-1.8-0.1-3.6,0-5.4c0.1-1.6,0.3-3.2,0.4-4.8c0.2-2.2,0.4-4.5,0.4-6.7c-0.1-2.5-0.7-5-0.8-7.6
			c-0.1-2.1,0.2-4.2,0.3-6.3c0-0.1,0.1-0.3,0.1-0.4c0.5-2.5,0.9-4.9,0.6-7.5c-0.3-2-0.5-4.1-0.6-6.2c-0.1-1.5,0.2-3.1,0.2-4.6
			c0-1.6-0.2-3.3-0.2-4.9c-0.1-2.2-0.2-4.4-0.3-6.7c0-0.3,0-0.7,0.1-1c0.3-1.6,0.7-3.1,0.8-4.7c0.4-4.8,0.7-9.6,0.9-14.5
			c0.1-2.2-0.1-4.4,0-6.6c0.1-1.6,0.5-3.1,0.5-4.7c0-2.7-0.3-5.4-0.4-8.2c-0.1-2.6,0.1-5.1,0.1-7.7c0-2.7-0.3-5.4-0.2-8.1
			c0-2.2,0.4-4.5,0.6-6.7c0.1-1.6,0.3-3.2,0.2-4.7c-0.2-3.2-0.6-6.5-0.7-9.7c-0.1-1.9,0-3.9,0.1-5.8c0-0.3,0-0.6,0.1-0.8
			c1-0.8,0.8-1.7,0.4-2.7c-0.3-0.7-0.4-1.5-0.3-2.2c0.1-1.7,0.5-3.4,0.5-5.1c0-1.6-0.4-3.2-0.3-4.9c0.1-3.3,0.5-6.5,0.1-9.8
			c-0.4-3.5,0-7-0.1-10.5c0-0.8-0.1-1.7-0.4-2.4c-0.2-0.4-1.2-0.9-1.6-0.8c-0.4,0.1-0.8,1-0.8,1.6c0,1.5,0.4,2.9,0.5,4.4
			c0.1,3.4-0.3,6.9,0.2,10.3c0.5,3.2-0.7,6.3,0.4,9.4c0.2,0.5,0,1.1-0.1,1.6C36,45,36,46.1,35.8,47.2C35.5,49,36.6,51,35,52.7
			c-0.2,0.2-0.2,0.8-0.1,1.1c1.1,2.3,0.2,4.6,0.3,6.9c0.1,1.3-0.2,2.6-0.1,3.8c0,1.1,0.2,2.2,0.3,3.3c0,0.4,0,0.9,0,1.3
			c0.1,2.9,0.3,5.9,0.3,8.8c-0.1,4.2-0.5,8.4-0.7,12.6c-0.1,1.2,0.3,2.4,0.1,3.6c-0.2,1.4,1,3-0.3,4.3c0,0,0,0.1,0.1,0.1
			c1,1.1,0.9,2.3,0.7,3.6c-0.2,1.8-0.3,3.7-0.4,5.5c-0.1,1.8-0.1,3.5-0.4,5.3c-0.4,2.1,0.7,4.3-0.2,6.4c0,0.1,0,0.3,0,0.4
			c0.7,1.8,0.5,3.6-0.2,5.3c-0.2,0.5-0.1,1.2-0.1,1.8c-0.1,1.5-0.1,3.1-0.2,4.6c-0.1,1.3-0.6,2.6-0.7,3.9c-0.1,1.7,0,3.3,0,5
			c0,2,0.1,4.1,0.1,6.1c0,1.7,0.1,3.3,0.1,5c0,1.2,0.1,2.4,0.2,3.6c0.1,1.2,0.1,2.3,0.2,3.5c0,0.6,0.3,1.2,0.2,1.7
			c-0.2,2.8-1.1,5.5-0.3,8.3c0.1,0.2,0.1,0.6-0.1,0.7c-0.9,0.9-0.6,1.9-0.6,3c0.2,3,0.3,5.9,0.2,8.9c0,2.1-0.8,4.3-0.3,6.3
			c0.7,3-0.5,5.7-0.3,8.6c0.1,2,0,4.2-0.1,6.3c-0.3,4.1-0.4,8.3,0,12.4c0.1,0.7,0.2,1.5,0.3,2.2c0,1.8,0,3.6,0,5.4
			c0.1,2.3,0.3,4.6,0.3,7c0,1.5-0.2,3-0.2,4.5c0,2,0.1,4,0.1,6c-0.1,2.5-1.1,5,0,7.6c0.2,0.3,0.1,1-0.2,1.3c-1.2,1.5-0.1,3.3-0.7,5
			c-0.8,2.2,0.4,5-0.8,7.4c-0.1,0.2,0.1,0.6,0.1,0.9c0.1,1.4,0.2,2.7,0.3,4.1c0,0.3,0,0.6-0.1,0.9c0,1.4-0.1,2.9-0.1,4.3
			c0,0.7,0,1.4-0.1,2.2c0,0.4-0.1,0.8-0.1,1.1c-0.2,2-0.6,4-0.6,6c0,3.7,0.1,7.4,0.2,11.1c0,1.4,0.1,2.8,0,4.3
			c-0.2,2.9,0.1,6-0.7,8.7c-0.8,2.8,0.2,5,0.9,7.4c0.6,1.9,1.6,3.7,2.6,5.5c1.5,2.8,2.8,5.7,5.8,7.3c0.9,0.5,1.3,1.5,2.1,2.2
			c2.4,2.1,5.5,2.5,8.4,3.2c1.2,0.3,2.3,0.8,3.5,0.8c2.1,0,4.2-0.3,6.2,0.7c0.2,0.1,0.5,0.2,0.7,0.2c1.7-0.6,3.4-1.2,5-1.9
			c1.9-0.8,2.1-0.7,3.5,1.5c-1.8,0.7-3.5,1.4-5.3,1.9c-1.3,0.4-2.7,0.5-4.1,0.7c-1,0.1-2,0.2-3.1,0.2c-0.7,0-1.4,0-2,0.2
			c-1.6,0.4-3.3,0.7-4.9-0.1c-1.3-0.7-2.6-1.4-3.8-2.1c-0.6-0.3-1.1-0.7-1.6-1c-1.3-0.9-2.5-2.1-3.9-2.7c-2.3-1-4.2-2.6-5.7-4.5
			c-1.9-2.3-3.3-5.2-4.7-7.9c-1.6-3.2-2.3-6.6-2.1-10.2c0.1-1.1-0.1-2.3-0.1-3.4c0-1.9-0.2-3.7-0.1-5.6c0.1-2.8,0.7-5.6,0.4-8.3
			c-0.3-3.2-0.1-6.4-0.1-9.7c-0.1-3.7,0.6-7.3,0.4-11c-0.2-3.5,0.4-7,0.6-10.4c0.1-1.5,0.1-2.9,0.4-4.4c0.4-2.6,0-5.3,0-7.9
			c0-2,0-4.1,0.1-6.1c0.2-4,0.6-8,0.8-12c0-0.7-0.8-1.5-0.9-2.3c-0.2-2.9-0.3-5.8-0.3-8.6c0-2.6,0.4-5.1,0.5-7.7
			c0.1-3.4-0.1-6.8,0.1-10.2c0.2-4.5,0.6-9.1,0.8-13.6c0-0.9-0.3-1.8-0.2-2.6c0.1-1.8,0.4-3.6,0.7-5.5c0.1-1.1-0.2-1.9-1.5-1.8
			c0.1-0.6,0.1-1.2,0.2-1.9c0.3-2,0.8-3.9,0.9-5.9c0.2-4.2,0-8.4,0.1-12.7c0.1-3-0.9-6.1,0.1-9.1c0.2-0.6-0.1-1.5-0.2-2.2
			c-0.1-0.5-0.4-1.1-0.3-1.6c0.1-3.3,0.2-6.6,0.3-9.9c0-0.5,0-1.1,0.1-1.6c0.4-3,1.1-5.9,1-8.9c-0.1-2.5-0.2-4.9,0-7.3
			c0.2-2.7,0.6-5.6,0.1-8.2c-0.4-2.1,0.3-4,0.2-6c-0.1-1-0.1-2.2,0.1-3.1c0.5-1.7,0.7-3.3,0-4.9c-0.1-0.3,0-0.8-0.1-1.2
			c-0.6-3.3,1.1-6.7,0.1-10c0-0.1,0.1-0.3,0.1-0.4c0.3-3.4,0.6-6.8,0.7-10.2c0.1-2.7-0.3-5.4-0.3-8c0-2.6,0.3-5.1,0.2-7.7
			c-0.1-4.4-1-8.7-0.3-13.1c0.4-2.6,0.2-5.2,0.2-7.8c0-1-0.3-1.9-0.3-2.9c-0.1-2.3-0.1-4.5-0.1-6.8c0-0.6-0.1-1.2-0.2-1.7
			c-0.1-0.6-0.1-1.3-0.5-1.7c-0.3-0.3-1.3-0.5-1.4-0.4c-0.3,0.6-0.6,1.3-0.5,1.9c0.1,1.4,0.4,2.9,0.5,4.3c0.1,1.1-0.1,2.3-0.1,3.4
			c0.1,1.8,1,3.6,0,5.4c-0.1,0.1,0,0.4,0,0.6c0.1,1.2,0.3,2.3,0.3,3.5c0,1.5-0.2,3-0.2,4.5c0,2.4,0.5,4.9,0.1,7.2
			c-0.5,2.9,0.4,5.7,0.1,8.5c-0.1,1.5,0.1,3.1,0.1,4.7c0.1,3.5,0.1,6.9,0.2,10.4c0,0.8-0.1,1.6-0.2,2.4c-0.1,1.1-0.3,2.1-0.4,3.2
			c-0.1,1.8-0.2,3.7-0.3,5.5c-0.1,1.7-0.3,3.5-0.3,5.2c0,1.6,0.2,3.2,0.2,4.8c0,0.9,0,1.8-0.1,2.8c-0.1,1.2-0.2,2.4-0.2,3.6
			c0,3.8,0,7.6,0,11.5c0,2.5-0.1,5-0.3,7.4c-0.2,2.9-0.4,5.7-0.6,8.6c-0.2,2-0.4,4-0.5,6c-0.1,2.2,0,4.4,0,6.6
			c0,0.4-0.2,0.8-0.2,1.2c-0.1,1.1-0.4,2.2-0.3,3.3c0.1,1.2,0.6,2.4,0.7,3.6c0.1,1.5-0.2,3-0.3,4.5c0,3.5,0.7,7-0.2,10.5
			c-0.3,1.3,0,2.7-0.1,4.1c0,1-0.2,2-0.3,2.9c-0.1,1.4-0.2,2.9-0.2,4.3c0,1.1,0.1,2.2,0.2,3.3c0.1,0.8,0.6,1.6,0.6,2.3
			c-0.2,1.9,0.8,3.8-0.2,5.7c-0.1,0.2,0.1,0.5,0.1,0.7c0,1.3,0,2.6-0.1,3.9c-0.1,1.5-0.4,2.9-0.5,4.4c-0.1,1.4,0.2,2.9,0.1,4.3
			c-0.1,1.9-0.4,3.7-0.5,5.6c-0.1,1.7,0,3.5,0,5.2c0,0.7-0.5,1.6-0.3,2.1c1.3,2.8,0.1,5.6,0.3,8.5c0.1,2,0,4.1-0.1,6.2
			c0,0.2,0.2,0.5,0.2,0.7c0.1,1,0.2,2.1,0.2,3.1c0,0.9-0.3,1.9-0.3,2.8c0,1.7,0.3,3.4,0.3,5.1c0,2.6-0.2,5.1-0.3,7.7
			c-0.1,3.5-0.1,6.9-0.3,10.4c-0.1,1.3-0.5,2.6-0.5,3.9c-0.1,1.5,0.1,2.9,0.1,4.4c-0.1,3.9-0.4,7.8-0.5,11.8c0,1,0.1,2,0,3
			c-0.1,2.2-0.9,4.5-0.4,6.5c0.7,2.7-0.4,5.2,0.1,7.9c0.4,2-0.2,4.2-0.2,6.2c0,1.9,0.2,3.8,0.3,5.7c0.1,1.8,0.3,3.6,0.1,5.3
			c-0.2,1.3,0,2.4,0.7,3.4c0.8,1.2,2.1,2.1,2.5,3.4c0.6,2.1,2,3.6,3.2,5.2c0.5,0.6,0.7,1.5,1.2,2.1c1.2,1.4,2.7,2.4,4.2,3.5
			c2.3,1.6,4.2,3.8,7.1,4.2c0.2,0,0.4,0.3,0.6,0.4c3,2.5,6.5,3.1,10.3,2.6c0.8-0.1,1.6-0.4,2.3-0.2c1.8,0.4,3.4,0.2,5-0.7
			c0.3-0.2,0.6-0.2,1-0.3c1.7-0.5,3.5-0.9,5.2-1.4c0.8-0.2,1.9-0.4,2.4-0.9c1.2-1.5,2.4-0.6,3.6-0.2c-0.8,0.4-1.8,0.4-2.5,0.8
			c-2,1.3-3.8,2.7-5.7,4.1c-0.5,0.4-0.9,0.8-1.4,1c-1.9,0.7-3.8,1.2-5.7,1.9c-1,0.4-2,0.9-2.9,1.5c-2.4,1.6-4.8,2.2-7.6,1.3
			c-0.5-0.2-1.2,0-1.8,0c-1.1,0.1-2.4,0.5-3.4,0.2c-2.5-0.7-4.6-2.7-7.5-2.1c-0.1,0-0.2,0-0.3-0.1c-0.9-0.6-1.7-1.1-2.6-1.7
			c-0.6-0.4-1.3-0.9-1.9-0.9c-1.9,0.2-2.8-1.2-3.7-2.3c-1.1-1.4-1.7-3.2-2.5-4.8c-0.7-1.4-1.4-2.8-2.2-4.1c-0.3-0.6-1.3-1-1.3-1.6
			c-0.3-3.2-2.9-5.8-2.6-9.1c0-0.2-0.4-0.5-0.5-0.7c-0.2-0.7-0.5-1.3-0.5-2c-0.1-0.7,0.2-1.4,0.1-2.1c-0.1-1.1-0.5-2.2-0.5-3.3
			c0-2.5,0.2-5,0.3-7.5c0-1.3-0.1-2.6,0.1-3.9c0.4-2.6,1.2-5.1,0.2-7.6c0-0.1,0-0.3,0-0.4c0.1-1.5,0.2-3,0.3-4.5
			c0-0.4-0.2-0.9-0.2-1.3c0-0.7-0.1-1.4,0-2.1c0.5-2.1,0.8-4.2-0.3-6.3c-0.1-0.2,0-0.7,0.1-1c0.2-1.1,0.6-2.3,0.7-3.4
			c0.1-1.2-0.1-2.4,0.1-3.6c0.4-3.2-1-6.2-0.4-9.4c0.3-1.7,0.1-3.5,0.2-5.2c0.1-3.3,0.3-6.6,0.4-9.9c0-0.9-0.4-1.7-0.6-2.6
			c-0.2-1-0.7-2-0.6-2.9c0.2-1.8,0.7-3.5,0.9-5.2c0.2-1.9,1.4-3.7,0.1-5.7c-0.3-0.4-0.1-1.3,0-1.9c0.1-0.8,0.4-1.7,0.5-2.5
			c0.1-0.7,0.1-1.4,0-2.1c-0.1-2.7-0.2-5.4-0.3-8.1c0-0.8-0.1-1.6,0-2.5c0-2.6,0-5.2,0-7.8c0.1-2.6,0.1-5.2,0.3-7.8
			c0.1-1.1,0.2-2-0.7-2.8c-0.2-0.2-0.2-0.7-0.2-1.1c0.1-1.4,0.2-2.8,0.2-4.2c0-3.5,0-7,0-10.5c0-0.5-0.1-1-0.2-1.5
			c-0.1-1.8-0.3-3.5-0.3-5.3c0-2.4,0.2-4.8,0.4-7.2c0-0.5,0.4-1.2,0.2-1.5c-0.7-1.2-0.2-2.5-0.3-3.7c-0.2-3.1,1.4-6.3-0.5-9.3
			c-0.2-0.3-0.1-0.7,0-1c0.2-3.1,0.5-6.2,0.5-9.3c0.1-2.5-0.2-5-0.2-7.5c0-1.9,0.1-3.8,0-5.7c0-3.6-0.2-7.2-0.2-10.8
			c0-2.5,0.3-4.9,0.4-7.4c0-1.2-0.2-2.3-0.1-3.5c0-1.2,0.3-2.3,0.4-3.5c0-2.2-0.1-4.5-0.1-6.7c0-2.4-0.1-4.8-0.1-7.1
			c0-0.6,0.1-1.1,0-1.7c-0.3-2.6-0.7-5.1-0.1-7.7c0.1-0.4-0.2-0.9-0.3-1.4c-0.1-0.4-0.2-0.9-0.2-1.3c0-2.6-0.1-5.3,0.1-7.9
			c0.3-3.2-1-6.4,0.5-9.5c0-0.1,0-0.2,0-0.3c-0.1-2.2-0.2-4.4-0.2-6.6c0-2,0.3-3.9,0.2-5.9c0-1.5-0.3-3-0.5-4.4
			c-0.2-2-0.6-4-0.7-5.9c-0.1-1.6,0.4-3.3,0.3-5c-0.1-2.4-0.5-4.8-0.7-7.2c-0.1-0.9-0.2-1.8-1.2-1.7c-0.9,0.1-1.2,0.9-1.2,1.9
			c0.2,2.7,0.4,5.5,0.3,8.2c-0.1,3.4-0.3,6.8,1,10.1c0.1,0.2,0,0.5,0,0.7c0.2,2.3-0.5,4.6,0.4,6.8c0.1,0.2,0,0.5,0,0.7
			c0,1.4,0.1,2.7,0,4c-0.1,0.9-0.2,2-0.8,2.8c-0.9,1.2-0.5,2.3-0.3,3.5c0.1,0.7,0.2,1.5,0.2,2.2c0,1-0.4,2.2,0,3.1
			c0.4,1,0.4,1.9,0.3,3c-0.2,2.8-0.1,5.6-0.1,8.3c0,0.7,0.2,1.5,0.1,2.2c-0.4,2.6,0.8,5.2-0.1,7.8c0,0.1,0,0.2,0,0.3
			c1,3.8,0.7,7.7,0.6,11.6c-0.1,1.4-0.7,2.9-0.7,4.3c0,2.2,0.4,4.4,0.5,6.6c0,0.5-0.3,1.1-0.4,1.7c-0.1,0.7-0.1,1.4-0.2,2.1
			c0,0.2,0.2,0.5,0.2,0.7c-0.1,1.6-0.2,3.2-0.3,4.9c0,0.6-0.4,1.2-0.3,1.7c0.5,3.5,0.7,6.9,0.2,10.4c-0.2,1.1,0.2,2.2,0.3,3.3
			c0.1,1.6,0.4,3.2,0.4,4.9c0,1.8-0.4,3.6-0.4,5.4c-0.1,2.7-0.1,5.3-0.1,8c0,0.7,0.3,1.4,0.3,2.2c0.1,1,0.1,2,0.1,3
			c0,0.9-0.2,1.9-0.2,2.8c0,1.3,0.2,2.6,0.2,3.9c0,0.9-0.4,1.7-0.4,2.6c0.1,1.5,0.8,3.1-0.3,4.6c-0.1,0.1,0,0.4,0,0.6
			c0.3,1.9,0.5,3.9,0.8,5.8c0,0.2,0,0.4,0,0.6c-0.1,1.9-0.3,3.9-0.3,5.8c0,1.3,0.6,2.6,0.5,3.8c-0.1,2.6-0.5,5.2-0.8,7.8
			c-0.1,1.1-0.2,2.2,1.1,2.6c-0.2,1-0.5,1.8-0.5,2.7c0,2.1,0.1,4.2,0.1,6.3c0,1.5-0.2,3-0.2,4.6c0,3.4,1.4,6.7,0.6,10.1
			c-0.2,1.1-0.2,2.2-0.2,3.4c-0.1,2.2-0.6,4.5-0.1,6.6c0.5,2.3-0.6,4.3-0.5,6.4c0.1,2.1-0.5,4.3-0.6,6.5c0,0.9,0.8,1.9,0.8,2.8
			c-0.1,3.3-0.4,6.7-0.6,10c-0.1,1.6-0.2,3.2-0.2,4.8c0,1.4,0.4,2.7,0.5,4.1c0.1,1.8,0,3.7,0,5.6c0,0.8,0.1,1.6,0.1,2.5
			c-0.1,1-0.2,2-0.3,3c0,0.4,0,0.7,0,1.1c0,1.1-0.8,2.2,0.4,3.1c0.1,0.1,0,0.5,0,0.8c-0.1,0.9-0.2,1.8-0.3,2.7
			c-0.1,0.7-0.3,1.4-0.4,2.1c-0.1,0.5-0.2,1-0.2,1.5c0,2,0.1,4,0.2,6c0,0.3,0.1,0.6,0.2,0.9c0.1,1,0.2,1.9,0.1,2.9
			c-0.1,1.3-0.5,2.7-0.6,4c-0.1,0.9,0.2,1.8,0.2,2.8c0,1.4-0.6,2.9-0.2,4.2c0.8,2.7-0.8,5.4,0.4,8.2c0.7,1.5-0.4,3.5,1,5.1
			c0.2,0.2,0,0.6,0.1,0.9c0.1,0.6,0.2,1.1,0.5,1.7c1,2.1,2.2,4.1,2.7,6.4c0.2,1.1,0.7,2.1,1.2,3.1c0.4,0.9,1,1.8,1.5,2.7
			c0.8,1.2,1.6,2.6,2.6,3.6c1.5,1.4,3.2,2.6,4.9,3.8c0.7,0.5,1.5,0.8,2.3,1.1c0.6,0.2,1.3,0.3,2,0.5c2.1,0.8,4.2,1.7,6.3,2.6
			c0.4,0.2,0.9,0.2,1.3,0.2c1.1,0.1,2.1,0.1,3.2,0.2c1.6,0.1,3.1,0.5,4.7,0.5c1.5,0,2.9-0.4,4.4-0.6c0.4-0.1,0.8,0,1.2-0.1
			c1.4-0.7,2.7-1.5,4.1-2.2c-0.5,1.2-0.6,2.5-2.1,3c-1.5,0.5-2.8,1.4-4.3,1.9c-1.4,0.4-2.1,2-3.8,1.8c-1.6-0.2-3.2,0.1-4.7,0
			c-1.3-0.2-2.6-0.7-3.9-1.1c-1.6-0.5-3.4-0.7-4.4-2.4c-0.1-0.3-0.7-0.4-1.1-0.4c-1.3,0-2.5-0.2-3.6-1.1c-1.3-1.1-2.8-1.9-4.2-2.9
			c-0.6-0.4-1.3-0.6-1.7-1.1c-1.5-2.1-2.7-4.3-5.3-5.4c-0.5-0.2-0.8-1.3-1.1-2c-0.4-0.9-0.4-2-0.9-2.8c-1.9-2.5-1.6-6.1-3.9-8.4
			c-0.1-0.1-0.2-0.2-0.2-0.2c-0.1-2-0.8-3.9-1.1-5.8c-0.7-4-0.8-8.2-0.7-12.3c0.1-5,0.5-10,0.8-15.1c0.1-1.1,0.3-2.1,0.2-3.2
			c-0.1-2.8-0.4-5.7-0.4-8.5c0-1.6,0.3-3.2,0.3-4.8c0.1-2.3,0.1-4.5,0.2-6.8c0-1.6,0.1-3.2,0.1-4.8c-0.1-4-0.2-8.1-0.3-12.1
			c0-0.8,0.3-1.5,0.4-2.3c0.1-3.2,0.3-6.5,0.3-9.7c0-0.7-0.5-1.5-0.7-2.2c-0.2-0.5-0.7-1.1-0.6-1.6c0.3-4.6,0.8-9.2,1.1-13.8
			c0.2-2.1,0.2-4.1,0.3-6.2c0-1.6,0-3.2-0.1-4.8c-0.2-3.7-0.4-7.3-0.5-11c-0.1-3-0.2-6-0.2-9c0-2.9,0-5.9-0.1-8.8
			c0-1.5-0.2-3-0.3-4.5c-0.1-1.1-0.1-2.1-0.1-3.2c0-0.7,0-1.4,0-2.2c0.1-1.3,0.6-2.8,0.2-4c-0.8-2.3-0.2-4.5-0.1-6.6
			c0.1-3.4,0.2-6.9,0-10.3c-0.1-1.2-1.1-2.6,0.2-3.6c0.9-0.7,0.7-1.3,0.6-2.2c-0.2-1.2-0.3-2.5-0.2-3.7c0.2-2.5,0.6-4.9,0.7-7.3
			c0.1-2.1-0.1-4.2-0.3-6.4c-0.1-1.3-0.4-2.5-0.5-3.8c-0.1-1.7-0.1-3.3-0.1-5c0-1.1,0.1-2.1,0-3.2c-0.2-2.5-0.6-5-0.6-7.5
			c0-4.5,0.4-9,0.5-13.4c0.1-3.1-0.3-6.2,1-9.2c0.2-0.5,0.2-1.3,0-1.9c-0.6-1.9-0.9-3.8-0.7-5.8c0.1-0.9,0.2-1.8,0.2-2.6
			c0-2.8-0.1-5.6-0.2-8.4c0-0.8-0.2-1.5-0.3-2.3c-0.2-2.1-0.4-4.1-0.5-6.2c-0.1-2.2-0.2-4.5-0.3-6.7c-0.1-1.7-0.3-3.4-0.4-5.1
			c0-1.5,0.3-3.1,0.3-4.6c0-2.9-0.1-5.9-0.3-8.8c-0.2-2.2-0.7-4.4-1.2-6.6c-0.1-0.3-0.5-0.6-0.8-0.9c-0.3,0.4-0.9,0.8-0.9,1.2
			c0,1.3-0.1,2.7,0.4,3.8c0.6,1.4,0.6,2.7,0.5,4.1c-0.1,1.9-0.1,3.8,0,5.7c0,0.9,0.2,1.8,0.2,2.7c0,2.6-0.2,5.3-0.1,7.9
			c0,2.1,0.2,4.3,0.3,6.4c0,0.9-0.1,1.8,0,2.6c0.5,2.6,0.4,5.3,1,7.9c0.6,2.7,0.5,5.8-0.1,8.7c-0.1,0.4,0,0.9,0.1,1.3
			c0.1,1,0.2,2.1,0.2,3.1c-0.1,2.9-0.4,5.8-0.5,8.6c-0.1,2.3,0,4.6,0.1,6.9c0,1.4,0,2.8-0.1,4.2c-0.1,1.5-0.2,3.1-0.2,4.6
			c0,1.8,0,3.5,0.1,5.3c0.1,2.9,0.3,5.8,0.4,8.6c0,0.6-0.4,1.2-0.4,1.8c0.2,2.2,0.4,4.3,0.7,6.5c0.1,0.7,0.3,1.5,0.3,2.2
			c-0.1,3.3-0.1,6.7-0.3,10c-0.1,1.3-0.6,2.6-0.9,4c-0.2,1.1-0.5,2.2-0.5,3.2c0,2.3,0.3,4.7,0.4,7c0.1,1.1-0.1,2.3,0.2,3.4
			c0.2,1.1,0.3,2-0.3,3c-0.3,0.4-0.2,1-0.2,1.5c0,3.1,0.1,6.2,0.2,9.3c0,1.9,0.1,3.7,0.2,5.6c0.1,2.5,0.3,5,0.4,7.4
			c0,0.7-0.3,1.4-0.3,2.1c0,2.2,0.1,4.5,0.2,6.7c0,1.1,0.4,2.2,0.1,3.1c-0.4,1.7-0.4,3.3-0.2,5c0.3,2.9,0.3,5.9,0.4,8.9
			c0,1.1-0.2,2.2,0,3.3c0.6,3,0.1,5.9-0.2,8.8c-0.3,2.3-0.6,4.6-0.7,6.9c-0.1,2.2,0,4.3,0,6.5c0,1.5,0,3-0.4,4.5
			c-0.2,0.8,0.1,1.1,0.6,1.6c0.4,0.4,0.9,1,0.9,1.4c-0.1,2.6-0.4,5.3-0.4,7.9c-0.1,3,0,6,0.1,9c0,1.5,0.2,3.1,0.2,4.6
			c0,2-0.2,4-0.3,6c-0.1,2.2,0.4,4.4-0.1,6.5c-0.9,3.2-0.2,6.4-0.3,9.6c0,1.5,0,2.9,0,4.4c-0.1,3-0.3,6-0.5,9c-0.1,1.3,0,2.6,0,3.9
			c-0.1,2.7-0.2,5.3-0.2,8c0,1.5,0.1,3.1,0.2,4.6c0.1,0.9,0.6,1.9,0.6,2.8c0,2.3,0.2,4.6,1.2,6.7c0.5,1.1,0.4,2.8,1.2,3.6
			c2.1,2.2,2.5,5,3.7,7.6c0.7,1.5,1.5,3,2.6,4.1c1.1,1.2,2,2.8,3.9,3.1c0.1,0,0.2,0.2,0.3,0.3c0.9,0.9,1.6,2,2.7,2.7
			c2.5,1.5,5.1,2.9,7.8,4.2c3.7,1.9,7.8,2.6,11.9,3.3c2,0.4,4.2-0.2,6.4-0.5c1.4-0.2,2.8-0.6,4.4-1c-0.7,1.6-1.6,3-1.8,4.5
			c-1.1,7-3.1,13.9-2.8,21.1c0,0.7-0.1,1.4-0.1,2.2c0.1,1.8,0.1,3.6,0.9,5.4c0.6,1.5,0.4,3.4,0.7,5.1c0.5,2.8,1,5.5,1.8,8.2
			c0.8,2.8,2,5.4,2.6,8.2c0.5,2.2,1.7,3.6,3.3,4.9c0.4,0.3,1,0.6,1.2,1c0.4,1.1,1.4,1.2,2.2,1c1-0.2,2-0.8,3-1.2
			c0.7,0.1,1.5,0.1,2.4,0.2c0,1.8,0,3.6,0,5.4c0,1-0.2,2.3,0.4,3c0.9,1.2,0.6,2.4,0.8,3.5c0.1,0.9-0.1,1.6-1,2.3
			c-0.6,0.4-0.9,1.4-1,2.1c-0.4,1.9-0.8,3.8-0.9,5.7c-0.1,2.5-1.3,4.9-0.9,7.6c0.2,1-0.2,2.2-0.7,3.1c-0.2,0.4-1.5,0.2-2.2,0.3
			c-0.2,0-0.5,0.1-0.7,0.1c-2.6,0.1-5.3,0.1-7.9,0.3c-2.2,0.2-4.8-0.3-6.1,2.4c-0.1,0.2-0.3,0.3-0.5,0.4c-2.2,1.1-4.6,2-6.6,3.4
			c-2.8,2-5.1,4.7-6.5,8c-1.2,2.8-1.7,5.6-1.7,8.6c0,1.7,0.1,3.5-0.4,5c-0.4,1.2-0.4,2.1-0.1,3.2c0.4,1.8-0.4,2.9-2.1,3.2
			c-0.5,0.1-1.1,0.4-1.6,0.4c-0.9-0.1-1.9-0.3-2.8-0.5c-0.4-0.1-0.7-0.3-1.1-0.3c-1.1-0.1-2.1-0.3-3.2-0.3c-1,0-2.3-0.6-2.9,0.8
			c-0.1,0.2-0.6,0.3-0.9,0.3c-2.4,0-4.8,0.2-7.1-1c-0.8-0.4-2.4-0.3-3,0.2c-1.5,1.5-2.2,0.4-3.1-0.5c-0.3-0.3-1.1-0.4-1.4-0.3
			c-0.7,0.4-1.8,1-1.8,1.6c-0.1,2.1,1.9,3.2,3.6,2.1c0.9-0.6,1.7-0.5,2.5,0c0.3,0.2,0.6,0.3,0.9,0.3c1.7,0.1,3.4,0.1,5.1,0.2
			c0.1,0,0.3,0.1,0.4,0.2c1.6,0.9,3.3,1.5,5,0.9c1.8-0.6,3.5-0.8,5.4-0.4c1.2,0.3,2.6,0,3.8,0.1c2.2,0.2,4.4,0.5,6.6,0.8
			c0.2,0,0.4,0,0.6-0.1c3.2-1.5,6.7-0.6,10.1-0.9c1.9-0.2,3.8,0.4,5.7,0.5c1.8,0.1,3.6-0.1,5.5-0.2c2.1-0.1,4.2-0.2,6.3-0.3
			c1.1,0,2.3-0.2,3.4-0.1c1.8,0.1,3.6,0.4,5.4,0.6c2.9,0.3,5.7-0.9,8.7-0.1c1.9,0.5,4.2-0.1,6.3-0.2c0.7,0,1.4-0.1,2,0.1
			c2,0.8,3.9,0.8,5.9-0.2c0.3-0.2,0.9,0,1.3,0c1.7,0.1,3.5,0.3,5.2,0.4c1.5,0.1,3.1-0.1,4.3,1.3c0.2,0.3,1,0.3,1.5,0.2
			c1-0.1,2-0.5,3-0.5c2,0,3.9,0.2,5.9,0.2c1.3,0,2.7-0.3,4-0.6c0.8-0.2,1.6-0.6,2.3-0.9c0.7-0.3,1.3-0.7,2-0.8
			c1.3-0.2,2.7-0.1,4-0.2c2.2-0.2,4.4-0.6,6.6-0.6c2,0,3.9,0.3,5.9,0.4c2.1,0,4.3-0.1,6.4-0.1c0.6,0,1.2,0.4,1.8,0.7
			c0.8,0.5,1.7,1.1,2.4,0.4c1.2-1.4,2.7-1.1,4-1c2.2,0.1,4.4,0.7,6.6,1.1c0.6,0.1,1.2,0.3,1.9,0.4c0.6,0.1,1.3,0.4,1.9,0.4
			c1.6,0,3.3-0.4,4.7,0.8c0.2,0.1,0.5,0.2,0.7,0.2c1.4-0.3,2.7-0.2,3.8,1c0.3,0.3,1,0.2,1.5,0.2c0.3,0,0.7-0.3,1-0.2
			c3.1,0.5,6.1-0.1,9-1.3c0.8-0.3,1.9-0.3,2.8-0.4c1-0.1,2.2,0.2,2.8-0.3c1-0.8,1.6-1,2.4,0.2c0.2,0.2,0.6,0.4,0.9,0.4
			c2.9,0.1,5.4,1.3,8.1,2c1.1,0.3,2.3,0.1,3.5,0.2c1.4,0.1,2.9-0.2,4.1,0.3c0.9,0.4,1.6,0.7,2.6,0.6c0.7-0.1,1.4,0.2,2,0.2
			c0.6,0,1.3,0.2,1.7,0c1.2-0.7,2.5-0.2,3.4,0.3c1.1,0.6,1.6,0.4,2-0.6c0.5,0.3,1,0.6,1.4,0.6c0.5,0,1-0.4,1.5-0.7
			c-0.5-0.7-0.8-1.6-1.4-2.1C225.7,485.8,225,485.8,224.4,485.8 M166.6,304.6c0.4-2.3,0.9-4.6,1.1-6.9c0.1-2.1-0.2-4.2-0.2-6.3
			c0-0.9,0.2-1.9,0.3-2.8c0.1-1.7,0.2-3.4,0.3-5.1c0-0.4,0.4-0.7,0.6-1.1c0.2,0.1,0.5,0.1,0.7,0.2c-0.1,2.2-0.4,4.3-0.3,6.5
			c0,1.4,0.5,2.7,0.7,4.1c0.3,2.5,0.9,4.9,0,7.4c-0.7,2.3-0.8,4.7-1.2,7.4c-0.8-0.2-1.6-0.3-2.5-0.5
			C166.3,306.5,166.4,305.5,166.6,304.6 M163,300.1c0.6-1.1,0.4-2.7,0.6-4c0.2-1.7,0.6-3.4,0.7-5.1c0.1-1-0.1-2.1-0.2-3.1
			c-0.1-1-0.4-2-0.5-3c-0.1-2.1,0.1-2.1,2.1-1.9v4.9c0,1.5,0.1,3,0,4.5c-0.2,3.2-0.4,6.5-0.7,9.7c-0.1,0.7-0.3,1.4-0.5,2.1
			c-0.3,1-1,1.9-1,2.9c0,1.5-0.6,1.3-1.6,0.9c-0.2-0.1-0.4-0.1-0.5-0.1C161.6,305.1,161.6,302.6,163,300.1 M43.9,310.3
			c-0.3-0.1-0.4-0.1-0.4-0.1c0-1.8-0.9-3.1-2-4.4c-0.2-0.2,0-0.7,0-1.1c0-2.1,0-4.1,0-6.2c0-0.2,0.2-0.4,0.2-0.7
			c0.1-1.4,0.3-2.8,0.4-4.2c0.1-0.7-0.5-1.6,1-1.5c0.4,0,0.8-0.9,1.4-1.5C44.3,297.4,44.1,303.8,43.9,310.3 M47.9,312.4
			c-1.1,0-1-0.7-0.8-1.5c0.2-0.8,0-1.6,0.1-2.4c0-1.1-0.1-2.3,0.1-3.4c0.2-1.4,0.5-2.6-0.2-4c-0.4-0.9-0.3-2.2-0.2-3.3
			c0.3-2.8,0.6-5.7,1-8.5c1.7-0.7,2.3-0.3,2.3,1.5c0,3.6,0.1,7.1,0.1,10.7c0,1.4,0.6,2.7-0.4,4.2c-0.5,0.8,0,2.4,0.3,3.6
			c0.2,1,0.6,1.9,1.1,3.1C50,312.4,48.9,312.4,47.9,312.4 M155.2,400.1c-0.3,2.6-1.8,4.4-4,5.7c-1.3,0.7-2.6,1.3-3.9,2
			c-0.1-0.1-0.2-0.2-0.3-0.3c0.2-0.3,0.4-0.7,0.7-0.8c1.5-0.4,2.2-1.5,2.7-2.8c0.4-1.2-0.1-1.8-1.4-1.9c-0.6,0-1.2-0.1-1.7-0.2
			c0,0,0,0,0,0c0,0,0,0,0,0c0.7,1.1-0.2,1.8-0.7,2.8c-0.1-0.2-0.1-0.4-0.1-0.6c-0.3-1.1-0.2-1.8,0.9-2.3c0,0,0,0,0,0c0,0,0,0,0,0
			c-0.1-0.3-0.3-0.6-0.4-0.9c0-0.1,0-0.2-0.1-0.3c0-0.6,0-1.5,0.2-1.6c1-0.4,1.7-1.3,3.1-0.9c1.3,0.4,2.8,0.5,4.2,0.6
			C155.3,398.7,155.3,399.3,155.2,400.1 M130.9,392.6c0-0.6-0.5-1.1-0.6-1.6c-0.3-2.2-0.8-4.4-0.8-6.5c0.1-2.1,0.2-4.2,0.1-6.3
			c-0.1-1.7,0.5-2.4,3.1-2.8c2.2-0.3,4.4-0.2,6.6-0.5c1.5-0.2,3-0.6,4.5-0.2c1.9,0.4,2.8,1.6,3,3.5c0.2,2.4,0.8,4.8,1.1,7.2
			c0.1,0.4,0.1,0.8,0,1.1c-0.2,2.6-0.6,5.2-0.7,7.8c-0.1,1.5-1.1,2.2-2.7,2c-2.1-0.2-4.2-0.2-6.3-0.1c-2.4,0.1-4.9,0.5-7.3,0.8
			C131,395.5,131,394.1,130.9,392.6 M90.1,246.9c0.4-0.8,0.9-1.5,1.3-2.2c1.4-0.6,2.9-1.3,4.4-1.7c4.1-1.2,8.2-2.9,12.6-2.7
			c0.5,0,0.9-0.3,1.4-0.3c0.6-0.1,1.2-0.1,1.8-0.1c1,0,2,0.2,3,0.1c1.5,0,3-0.4,4.5-0.2c1,0.1,1.9,0.9,2.9,1.3
			c1.3,0.5,1.2,1.6,1.2,2.6c0,0.3,0.2,0.6,0.3,0.9c0.2,1.2,0.7,2.4,0.5,3.4c-0.5,2.4-0.6,4.8-2.2,7c-0.9,1.2-1.7,2.4-3.2,3
			c-5.2,2.2-10.7,3.6-16.3,3.8c-3.2,0.1-6.2-1.1-8.9-2.7c-0.2-0.1-0.5-0.4-0.6-0.6c-1.1-2.2-2.4-4.4-3.3-6.7
			C88.9,250.2,89.3,248.4,90.1,246.9 M71.5,326.9c-1.7-1.1-3.4-2.2-5.2-3.2c-2.6-1.4-4.7-3.2-6.4-5.6c-1.2-1.8-2.5-3.6-3.5-5.5
			c-0.5-0.9-0.7-2.2-0.6-3.3c0.1-1.5-1.5-2.6-0.7-4.1c0-0.1-0.1-0.3-0.2-0.4c-1.8-1.3-1.1-3.2-1.3-4.8c-0.2-1.7-0.2-3.4-0.3-5.1
			c-0.1-1.1-0.1-2.2,1-3.1c1-0.8,0.3-1.7-0.1-2.6c-0.2-0.3-0.6-0.6-0.5-0.8c1-5,0.5-10.3,3-15c1.2-2.2,2.4-4.3,3.7-6.4
			c0.3-0.5,1.1-0.6,1.6-0.9c0.1-0.1,0.3,0.1,0.4,0c1.7-1.5,3.5-2.9,5.2-4.5c0.6-0.5,0.9-1.3,1.5-1.7c1.4-1,2.9-1.8,4.4-2.7
			c0.2-0.1,0.5-0.3,0.6-0.5c0.4-1.7,2-1.4,3.1-1.9c2.5-1.1,5-2.3,7.5-3.5c0,0,0.1,0,0.1-0.1c1.6-1.5,2.1-1.5,2.6,0.8
			c0.6,2.7,2.3,4.8,3.8,6.9c1.2,1.6,2.7,3.1,5,3.5c1.3,0.2,2.6,1,3.8,1.5c2.9,1.3,5.8,1,8.8,0.3c1.7-0.4,3.5-0.6,5.2-1.1
			c1.3-0.4,2.5-1.3,3.8-1.7c3.8-1.2,5.7-4.1,7.6-7.4c1.5-2.7,1.9-5.4,2.3-8.3c0.1-0.4-0.1-0.9-0.2-1.3c-0.5-1.3-0.4-2.1,1.3-2.1
			c1.1,0.2,2.3,0.4,3.4,0.8c1.6,0.5,3.2,1.1,4.7,1.9c1.1,0.5,2,1.4,3,2.1c2.6,2,5.4,4,7.9,6.2c2.6,2.3,4.7,5.1,6.1,8.3
			c0.6,1.4,1.7,2.7,2.4,4.1c1.2,2.5,2.5,5,3.3,7.7c0.4,1.6-0.3,3.5-0.3,5.2c0.1,2.4,0.5,4.8,0.5,7.2c-0.1,2.9,0.5,5.9-0.3,8.8
			c-0.8,2.8-1,5.7-1.7,8.5c-0.7,2.9-1.5,5.9-2.7,8.7c-0.9,2-2.7,3.5-4,5.3c0,0,0,0.1-0.1,0.1c-3,1.3-5,4-7.8,5.5
			c-2.2,1.2-4.3,2.6-6.4,3.9c-0.2,0.1-0.5,0.3-0.7,0.3c-2.5-1-4.3,0.7-6.4,1.5c-1.1,0.4-2.2,0.6-3.3,0.9c-0.2,0.1-0.4,0.1-0.5,0.2
			c-2.3,1.7-5.1,1.5-7.8,1.9c-1.4,0.2-2.8,0.6-4.3,0.8c-1.9,0.2-3.8,0.4-5.8,0.5c-4.7,0.2-9.3,0.5-14,0.4c-1.7,0-3.4-0.9-5.2-1.1
			c-3.1-0.3-6-2.1-9.4-1.4c-0.9,0.2-2-0.6-3-1.1C74.8,329,73.2,327.9,71.5,326.9 M77.8,335.7c2.5-1.1,4.8-0.4,7.2,0.1
			c2.3,0.4,4.6,1.1,6.9,1.6c1.9,0.4,3.7,1,5.6,1c3.3-0.1,6.6-0.7,9.9-1c1.9-0.2,3.7-0.3,5.6-0.4c0.2,0,0.5-0.1,0.7-0.2
			c2.8-0.6,5.6-1.2,8.4-1.8c1.3-0.3,2.7-0.3,4-0.7c0.8-0.2,1.5-1,2.5-1.7c1.4,0.7,3.1,0,4.4-1c1.1-0.8,2-0.6,3-0.1
			c1,0.5,2,0.9,3.3,1.5c-0.8,0.7-1.7,1.4-2.4,2.2c-1.4,1.8-2.7,3.7-3.9,5.6c-2.1,3.3-4.9,5.9-7.5,8.7c-1.7,1.8-3.3,3.7-4.6,5.8
			c-1.3,1.9-3.3,2.3-5.1,3c-3.4,1.3-6.8,2.6-10.5,2.8c-3.3,0.2-6.7-0.4-9.6-1.9c-3.4-1.7-6.4-4.2-9.5-6.4c-1.6-1.2-3-2.5-4.3-4
			c-2.3-2.4-4.5-5-6.6-7.5C73.6,339.4,74.9,337,77.8,335.7 M58.1,396.3c0.4-0.2,0.7-0.5,1.1-0.7c0.8-0.4,1.1-1,0.7-1.9
			c-0.3-0.5-0.6-1.1-0.6-1.6c0.1-2.2-1.4-3.8-2-5.7c-0.6-1.9-1.1-3.8-0.3-5.9c0.9-2.2,1.7-4.6,1.7-6.9c0-2.5,0.4-5.2-0.7-7.6
			c-1-2.2-0.4-4.4,0.9-6.2c1.3-1.7,1.5-3.8,2.4-5.6c0.8-1.7,1.8-3.3,2.6-4.9c0.3-0.5,0.3-1.2,0.3-1.8c0-1-0.3-2,0.9-2.6
			c0.1,0,0.2-0.1,0.2-0.2c0.9-1.8,1.9-3.5,2.8-5.3c1.8,0.1,2,1.6,2.7,2.5c0.8,1,1.6,2,2.4,3c1.2,1.5,2.4,3,3.7,4.3
			c1.6,1.6,3.3,3.1,5,4.5c2.7,2.2,5.4,4.3,8.1,6.3c3.1,2.3,6.7,3.6,10.3,4.9c3.1,1.1,5.9,0.4,8.9,0.3c1.9-0.1,3.3-1,4.9-1.7
			c1.3-0.6,2.8-0.9,4.1-1.5c1.6-0.7,3.2-1.3,4.6-2.2c1.2-0.9,2.1-2.2,3.1-3.3c0.2-0.3,0.4-0.5,0.6-0.8c0.9-1.1,2.4-2.2,2.7-3.4
			c0.4-1.8,1.8-2.7,2.7-4c0.7-1,1.7-1.9,2.6-2.8c0.5-0.5,1-1.1,1.7-1.8h1.4c-0.5-0.6-0.8-0.9-1.2-1.3c1-3,3.3-5,5.8-6.7
			c0.4-0.3,1.2-0.4,1.6-0.2c1.4,0.8,2.7,1.7,4,2.7c1.9,1.5,2.6,3.6,3.2,5.9c0.1,0.4,0.4,0.7,0.8,1c1.4,1,1.8,2.4,1.3,4.1
			c-0.1,0.3,0,0.7,0.1,0.9c0.6,1.1,1.4,2.1,1.9,3.3c0.4,1,0.5,2.1,0.8,3.1c0.3,1.4,0.7,2.9,0.9,4.3c0.4,2.1,0.8,4.3,0.9,6.4
			c0.2,4.4,0.2,8.8,0.3,13.1c0,1.9,0,3.8,0,5.7c0,0.6-0.1,1.2-0.3,1.7c-0.6,1.1-0.5,2.2-0.1,3.4c0.7,2.2-0.4,3.9-2.7,4.2
			c-0.6,0.1-1.2,0.3-1.7,0.2c-2.2-0.2-3.1-1.7-2.8-3.9c0.5-3.5,0.9-7.1,0.9-10.7c0-2.2-1-4.4-1.6-6.5c-0.5-1.6-2-2-3.3-2.6
			c-1.2-0.6-1.7-2-1.5-3.3c0.1-0.5,0-1.3-0.3-1.6c-1.3-1.1-0.7-2.3-0.4-3.5c0.1-0.2,0.4-0.3,0.4-0.4c0-3.1,1.1-6.3-0.9-9.2
			c-0.6-0.8-2.1-1-3.2-0.2c-0.8,0.6-1.1,1.3-0.7,2.5c0.5,1.3,0.8,2.7,1,4c0.3,2.2,0.6,4.4,0.8,6.6c0.1,1,0,2.1-0.1,3.1
			c0,0.3-0.4,0.9-0.7,0.9c-2.6,0.6-5.2,0.9-7.7,1.6c-2.4,0.7-4.9,1.3-6,3.6c-2.2-0.7-4.3-1.6-6.5-1.8c-2-0.3-4,0.1-6,0.3
			c-2,0.2-3.9,0.5-5.8,0.9c-1,0.2-2,0.7-2.9,1.2c-0.2,0.1-0.3,0.6-0.3,1c0,1.1,0,2.1,0,3.2c-0.3,4.8-0.8,9.6-1,14.3
			c-0.1,1.6,0.2,3.5,1,4.9c0.8,1.2,2.4,2.4,3.8,2.7c3.7,0.7,7.5-0.1,11.1-0.9c1.6-0.3,3-1.4,4.6-2.2c0.5-0.3,1.1-0.6,1.6-0.9
			c-0.4-0.4-0.8-0.8-1.4-1.4c0.3-1.6,0.8-3.6,1-5.6c0.2-2,0-4,0.4-5.9c0,2.4,0,4.9,0,7.3c0,1.4-0.1,2.7,0,4.1c0.1,1.4,2.5,3,4,2.9
			c1.1-0.1,2.5-0.4,3.4,0c1.2,0.6,2.2,0.3,3.2,0c0.6-0.2,1.3-0.5,1.9-0.5c2.4-0.1,2.8,0.3,3,2.7c0.1,1.5,0.9,2.8,0.4,4.5
			c-0.2,0.7,0.7,1.6,0.7,2.5c0.3,2.8,0.5,5.6,0.6,8.4c0,1.1-0.2,2.2-0.3,3.2c-0.2,1.3-0.4,2.7-0.6,4c-4.6-0.2-9.4-0.4-14.4-0.6
			c-0.6-1.9-1.9-4.1-0.4-6.5c0.1-0.2-0.1-0.5-0.1-0.8c-0.2-1.1-0.6-2.3-0.7-3.4c0-1.6-0.8-2.4-2.2-2.9c-1.2-0.5-2.1-1.4-3.3-1.7
			c-1.5-0.4-3.1-0.4-4.7-0.5c-1.2-0.1-2.3,0-3.5-0.2c-4.2-0.8-8.3-1-12.5-0.2c-1.6,0.3-3.3,0.1-4.5,1.5c-0.8,0.9-1.8,1.9-2.2,3
			c-1.1,2.9-1.4,5.9-1.6,8.9c0,1-0.3,2.1-0.7,3c-0.2,0.5-1,0.9-1.6,0.9c-1.2,0.1-2.4,0.1-3.6-0.2c-2.6-0.6-5.3-0.1-7.9-0.6
			c-0.4-0.1-0.9-0.1-1.3,0c-2.7,0.4-2.7,0.2-3-2.5c-0.1-0.9-0.7-1.8-0.8-2.7c-0.3-2-2-3.7-0.6-6c0.7-1.2,0.7-3,0.9-4.5
			c0.3-2.2,0.4-4.4,0.6-6.6c1.4,0,2.6,0,3.9,0c1.2,0,2.8,0.9,3.2-1.3c0-0.1,0.7-0.2,1,0c1.7,0.7,3.8,0.5,5.3,2
			c0.2,0.2,0.5,0.3,0.8,0.3c3.1,0,6.3,0.1,9.4,0c1.2-0.1,2.6-0.4,3.4-1.2c0.7-0.6,1.2-2.3,0.9-3.1c-1-2.4-0.4-4.6,0.4-6.7
			c0.6-1.6,0.3-3-0.3-4.5c-0.1-0.3-0.2-0.7-0.2-1c0.1-2.2,0.1-4.4,0.3-6.6c0.1-0.7,0.5-1.4,0.7-2.1c0.5-1.7-0.1-2.2-1.8-2.1
			c-1.8,0.1-3.7-0.2-5.5-0.2c-3,0-6.1,0.2-8.7,0.3c-0.4,1.8-0.8,3.1-1.1,4.4c-0.2,0-0.3,0-0.5,0.1c-0.2-1.1-0.7-2.2-0.7-3.2
			c-0.1-1.8-1.4-3.2-2.9-2.4c-1.2,0.6-2.3,0.2-3.4,0.1c-1.7-0.1-3.4-0.6-5.1-0.8c-1.5-0.1-1.5-1-1.3-2.1c0.4-1.9,0.9-3.7,1.1-5.6
			c0.2-1.4,0-2.9-0.2-4.3c-0.2-1.5-0.5-3-0.9-4.5c-0.1-0.4-0.9-0.8-1.5-0.9c-0.4-0.1-1.1-0.1-1,1c0.1,1.2-0.3,2.5-0.6,3.8
			c-0.7,2.4,0.4,4.8,0.3,7.2c-0.1,1.7,0,3.3-0.1,5c0,0.3-0.5,0.9-0.8,0.9c-1.2,0.1-2.5-0.1-3.7-0.1c-0.8,0-1.7,0-2.2,0.4
			c-0.5,0.3-0.6,1.3-0.7,1.9c-0.1,3.3-0.1,6.7-0.1,10c0,1.9,0,3.7,0,5.6c0,0.3,0.4,0.7,0.5,1c0.1,0.3,0.4,0.7,0.3,1
			c-0.1,1.2-0.4,2.3-0.6,3.5c-0.1,0.3-0.4,0.6-0.6,0.6C61.6,399,58.5,397.2,58.1,396.3 M119.8,399.3c-2.2,0.1-4.5,0.2-6.7,0.2
			c-1.1,0-2.2,0-3.3,0c-0.8,0-1.2-0.2-1.3-1.2c-0.2-2-0.9-4-0.8-5.9c0.2-4.1,0.7-8.1,1.2-12.2c0.2-1.6,1.5-1.8,2.8-1.9
			c2.2-0.3,4.4-0.5,6.6-0.6c1.3-0.1,2.6,0.1,3.9,0.3c0.3,0,0.6,0.4,0.7,0.7c0.9,3.4,0.6,6.8,0.6,10.2c0,2.2,0,4.5,0,6.7
			c0,0.5-0.2,1-0.3,1.6c-0.4,0-0.8-0.1-1.3-0.1C122,398.5,121.2,399.2,119.8,399.3 M122.1,427.6c0.4,2.2,0.8,4.5,1,6.7
			c0.3,2.9,0.2,5.8,0.5,8.6c0.2,1.6-0.5,1.8-1.7,2c-2.2,0.3-4.5,0.5-6.7,0.9c-2.1,0.4-4.2,1-6.3,1.6c-0.2,0.1-0.5,0.1-0.7,0.1
			c-2.2-0.3-3.7,1.5-5.7,1.8c-0.2,0-0.2,0.9-0.4,1.5c-0.8,0.6-1.8,1.2-2.7,1.9c-0.1-0.1-0.2-0.1-0.3-0.2c0.2-0.6,0.6-1.2,0.7-1.8
			c0.1-0.9-0.1-1.7-0.1-2.6c0-1.1,0.3-2.2,0.2-3.3c-0.1-1.9,0-4-0.7-5.6c-1.1-2.4-0.3-4.4,0.2-6.6c0.3-1.5,0.6-3,0.6-4.5
			c0-0.7-0.8-1.3-1.1-2c-0.2-0.6-0.3-1.2-0.4-1.8c0-0.1,0.1-0.3,0.2-0.4c1-2.1,1.7-4.1,1.3-6.5c-0.2-1.4,0.1-2.9,0.3-4.3
			c0.1-0.8,1.9-1.5,3.3-1.5c3.3,0.1,6.6,0.1,9.8,0.1c0.4,0,0.9-0.1,1.2-0.4c1-0.7,2-0.7,3.1-0.1c0.5,0.3,1.2,0.2,1.8,0.3
			c0.8,0.2,1.7,0.3,2.5,0.7c1.4,0.7,1,2.1,1.1,3.3c0.1,0.9,0.4,1.7,0.6,2.6c0.2,0,0.3,0,0.5,0c-0.4,1.2-0.8,2.4-1.2,3.6
			c0.1,0,0.2,0,0.3-0.1c0.3,0.9,0.6,1.8,0.8,2.7c0.2,0.7,0,1.3-0.9,1.5C122.2,426,121.9,426.6,122.1,427.6 M84.3,391.6
			c0.7,2,0,5.4-1.3,6.3C82.9,395.7,82,393.4,84.3,391.6 M89.8,381.2c-0.2-0.9,0-1.4,0.8-1.6c1.4-0.3,2.9-0.6,4.3-0.8
			c1.5-0.2,3-0.2,4.6-0.3c-0.8,2.4-0.8,4.6,0.2,6.9c0.3,0.6-0.2,1.6-0.3,2.5c0,0.3-0.2,0.8-0.1,1c1.6,1.5,0.4,3.5,0.9,5.2
			c0.2,1-0.8,2.3-1.3,3.4c-0.3,0.6-0.6,1.2-1,2.1c-2.5,0-5.3,0.1-8.1,0c-1.7-0.1-2.5-1.6-2.2-3.3c0.4-2.2,0.6-4.4,0.8-6.6
			c0.2-2,0.3-3.9,1.2-5.7C90.1,383.2,90,382.1,89.8,381.2 M70.6,410.8c-1-0.6-2.3-1-3-1.8c-0.7-0.8-0.9-2.1-1.2-3.2
			c-0.1-0.5,0-1.1,0-2c-1.3,0.3-2.5,0.7-3.9,1c0.7,1.5,1.2,3,2,4.1c0.5,0.7,1.7,1,2.9,1.6c-0.6,0.6-1.2,1.3-1.9,2
			c-0.4-0.7-0.5-1.3-0.8-1.4c-2.3-0.8-2.6-2.9-3.2-4.9c-0.2-0.7-0.7-1.4-1.1-2.1c-0.7-1.3-0.5-1.6,1-1.6c1,0,2.1,0.2,2.5-1.3
			c1.9,0.4,3.7,0.7,5.4,1.2c0.4,0.1,0.9,1,0.8,1.5c-0.1,1.4-0.6,2.8-0.7,4.2c0,0.4,0.8,0.9,1.3,1.6C70.7,410,70.6,410.5,70.6,410.8
			 M70.4,398.6c-0.4,0-0.8-0.1-1.7-0.2c1.3-1.3,0.7-2,0.1-3c-0.7-1.1-0.9-2.5-1.3-3.8c-0.2-1-0.3-2.1-0.4-3.2c0-0.1,0-0.4,0-0.4
			c-2.6-2.2-0.1-4.5-0.2-6.8c0-0.3,0.2-0.6,0.3-0.8c0.6-2.4,0.6-2.3,2.9-2.1c2.7,0.3,5.4,0.5,8.1,0.7c1.7,0.1,2.7,0.2,2.9,2.7
			c0.4,4.6,0.2,9.1-1.3,13.5c-0.4,1.1-0.1,2.5-1.5,2.9c-0.8,0.3-1.5,0.5-2.3,0.6C74,398.6,72.2,398.6,70.4,398.6 M64.1,479.3
			c-2.2,0.1-4.4,0.2-6.7,0.3c-2.8,0.2-5.7,0.3-8.5,0.6c-1.1,0.1-2.1,0-3.2-0.1c-2.7-0.4-5.4-0.3-8.1-0.1c-1.6,0.1-1.7,0.3-1.4-1.3
			c0.1-0.4,0-0.8,0-1.2c0.1-0.9,1.2-1.3,1.6-0.6c1.3,2.1,3.1,1.8,5.1,1.5c2.8-0.4,5.6-0.4,8.4-0.7c1.6-0.2,3.1-0.8,4.6-0.8
			c1.9-0.1,3.8,0.2,5.7,0.4c0.3,0,0.7,0.1,1,0C64.3,477.1,64.5,477.3,64.1,479.3 M64.8,469.2c-0.5,1.6-0.9,3.2-1.4,4.7
			c-0.1,0.2-0.4,0.6-0.6,0.6c-2.1,0.1-4,0.9-6.3,0.2c-1.7-0.5-3.6-0.2-5.5-0.1c-1,0-2,0.2-2.9,0.3c-2.3,0.2-4.6,0.4-6.9,0.6
			c-2,0.2-2.2-0.1-1.8-2c0.3-2.1,0.3-4.3,0.8-6.4c0.7-3.3,2.1-6.2,4.3-8.8c1.6-1.8,3.5-3,5.7-3.7c0.8-0.3,1.6-0.8,2.3-1.2
			c0.3-0.2,0.8-0.4,1.1-0.3c1.4,0.5,2.8,1,4.3,1.5c0.4,0.1,1-0.1,1.4,0.2c1.4,1,2.9,1.9,3.3,3.8c0.7,3.3,1.5,6.6,2.3,10.2
			C64.8,468.7,64.8,469,64.8,469.2 M85.1,480.5c-2-1-4.2-1.4-6.5-1.2c-2,0.1-4-0.4-5.9-0.5c-1.1,0-2.3,0.2-3.5,0.4
			c-0.3,0-0.6,0.1-0.8,0.1c-0.1-0.1-0.2-0.2-0.3-0.4c0.3-0.3,0.6-0.7,1-0.7c0.6-0.1,1.3,0,1.9,0c1.9-0.1,3.9,0.3,5.8-0.5
			c1.7-0.7,3.5-0.3,5.2,0.2c0.6,0.2,1.3,0.1,2,0.1c2.2-0.1,4.3-0.2,6.5-0.2c0.2,0,0.6,0.3,0.7,0.6c0.2,0.5,0.4,1.1,0.6,1.9
			C89.5,480.9,87.5,481.7,85.1,480.5 M92.7,461.6c-0.9,1.1-1.5,2.1-1.2,3.7c0.4,2.3,0.5,4.8,0.6,7.1c0.1,0.9-0.2,1.5-1.3,1.5
			c-2,0.1-4,0.5-6,0.5c-5,0.2-10,0.3-15,0.4c-0.2,0-0.4,0-0.6,0c-2.2,0.1-2.3-0.4-2.1-2.6c0.1-1.6,0-3.2,0.7-4.7
			c0.3-0.6-0.5-1.7-0.6-2.6c-0.4-2.5-0.6-5.1-1.2-7.5c-0.4-1.6-1.3-3.1-2.2-4.6c-0.8-1.4-1.8-2.7-2.8-4c0.6-0.7,2.5-0.9,4.3-0.4
			c1.4,0.4,2.9,0.3,4.3,0.4c0.1,0,0.3-0.1,0.4,0c1.8,0.3,2.3-0.3,1.6-2.5c1.9-0.7,1.5-2.3,1.6-3.7c0.3-3.6,0.5-7.3,0.7-10.9
			c0-0.6-0.2-1.1-0.2-1.7c0-0.5-0.1-1,0.1-1.4c0.1-0.2,0.9-0.3,1.2-0.1c3.1,1.6,6.5,0.6,9.7,1.3c1.2,0.2,2.5-0.4,3.8-0.6
			c1.2-0.2,2.5-0.3,3.7-0.3c1.5,0,2.7,0.4,2.9,2.3c0.2,2.2,0.9,4.5,0.9,6.7c0,2.5-0.5,5.1-0.6,7.6c-0.1,1.4,0.3,2.8,0.4,4.2
			c0.1,0.9,0,1.8,0.1,2.7c0,0.9,0.2,1.7,0.2,2.6c0,0.5-0.4,1.1-0.6,1.6c-0.4,0.9-0.9,1.8-1.4,2.7C93.7,460.1,93.3,460.9,92.7,461.6
			 M121.7,480c-5.4,0.4-10.8,1.1-16.2,1.3c-2.6,0.1-5.2-0.4-7.8-0.6c-0.8-0.1-1.5-0.2-2.4-0.4c0.1-0.2,0.2-0.6,0.3-0.6
			c2.8-0.2,5.5-0.5,8.3-0.5c2.6,0,5.2,0.2,7.8-0.4c1.2-0.3,2.5-0.2,3.7-0.3c1.1-0.1,2.1-0.2,3.2-0.3c1.5-0.1,3.1-0.2,4.8-0.3
			C123.5,479.2,123.1,479.9,121.7,480 M123.6,474.7c-4.7,1.3-9.5,1.1-14.3,1c-3.3-0.1-6.5-0.3-9.8-0.5c-0.8,0-1.7,0-2.5,0.1
			c-1.5,0.3-1.9,0.1-2-1.4c-0.1-1.7-0.2-3.4-0.2-5.1c0-0.7,0.4-1.5,0.6-2.2c0.2-0.8,0.6-1.6,0.8-2.4c0.6-2.6,1.6-5,3.8-6.8
			c2.1-1.7,4.1-3.5,6.5-4.8c1.9-1,3.7-1.1,5.7-1.1c2.9,0,3.9,2.2,5.2,4.2c1.3,2.1,2.8,4.1,4.2,6c2,2.8,2.5,6,2.6,9.3
			C124.2,472.2,123.8,473.4,123.6,474.7 M149.6,479.2c-7.3-1-14.5-0.7-21.8,0.3c-0.3-1.2,0.2-1.3,1-1.4c1.4-0.1,2.8-0.2,4.2-0.4
			c2.2-0.3,4.4-1.1,6.7-0.8c0.3,0,0.7-0.1,0.9,0c1.6,1.7,3.8,0.9,5.8,1.4c1,0.3,2.1,0.3,3.2,0.5C149.6,479,149.6,479.1,149.6,479.2
			 M150.9,474.8c-3.6,0.1-7.2,1.1-10.9,0.4c-1.9-0.3-3.8,0.1-5.8,0.1c-1.8,0-3.6,0.1-5.3,0.1c-1,0-1.9-2.1-1.4-3.4
			c0.8-1.9,0.3-3.8-0.2-5.6c-0.5-1.6-0.9-3.2-1.4-4.8c-0.3-1-0.9-1.9-1.4-2.9c-0.6-1.1-1.1-2.3-1.9-3.3c-1.4-1.6-3-3-4.5-4.4
			c-0.8-0.7-0.8-1.3,0.2-1.6c2.6-0.7,5.2-1.3,7.8-1.9c0.9-0.2,1.9-0.4,2.6-0.8c0.5-0.3,1-1.2,0.9-1.7c-0.4-2.7-1-5.3-1.6-7.9
			c0-0.1-0.2-0.3-0.2-0.4c0-2-0.1-4,0.1-5.9c0.1-1.1,0.7-1.9,2.3-1.6c1.6,0.3,3.3,0.1,4.9,0.1c2.4,0,4.8,0.2,7.2,0.2
			c1.4,0,2.8-0.3,4.1-0.6c0.9-0.2,1.8,0.2,1.9,1.2c0.2,3.9,0.2,7.9,0.6,11.8c0.2,2.6-0.3,5-0.6,7.5c-0.2,1.9,0.6,4,0.9,5.9
			c0.3,1.7,0.5,3.3,0.7,5c0,0.2,0,0.5,0.1,0.7c1.6,3.7,0.9,7.7,1.4,11.5c0.1,0.6,0.1,1.3,0.2,1.9
			C151.3,474.7,151.1,474.8,150.9,474.8"/>
		<path class="st7" d="M147.3,401.7L147.3,401.7C147.2,401.7,147.3,401.7,147.3,401.7C147.3,401.7,147.3,401.7,147.3,401.7
			C147.3,401.7,147.3,401.7,147.3,401.7C147.3,401.7,147.3,401.7,147.3,401.7C147.3,401.7,147.3,401.7,147.3,401.7
			C147.3,401.7,147.3,401.7,147.3,401.7C147.3,401.7,147.3,401.7,147.3,401.7"/>
		<path class="st7" d="M259.5,296.8c-0.8,0.1-1.6,0.3-2.4,0.4c0.3-0.4,0.6-0.5,0.9-0.6c0.4-0.2,0.8-0.5,1.2-0.8
			c-0.5-0.1-1.1-0.6-1.4-0.4c-1.2,0.8-2.5,0.5-3.8,0.6c-0.4,0-0.7,0.3-1.1,0.5c-1.3,0.6-2.7,0.9-4.2,0.2c1.8-0.8,3.6-1.4,5.5-1.8
			c0.9-0.2,2,0.1,3,0c0.4,0,0.7-0.6,1-1c-0.1-0.1-0.1-0.3-0.2-0.4c-1.8,0.2-3.6,0.4-5.5,0.7c-0.1,0-0.3,0.2-0.4,0.2
			c-0.5,0.1-1,0.2-1.4,0.4c-0.9,0.3-1.9,0.6-2.7,1c-1.5,0.8-2.9,1.8-4.5,2.4c-2.1,0.8-4.4,1.2-6.6,2c-1.6,0.5-3.3,1-4.5,2
			c-1.1,1-2.1,1-3.4,0.9c-0.4,0-0.8,0-1.1,0.1c-2.2,0.5-4.5,1.4-6.7,1.4c-5.1-0.1-10.3-0.6-15.4-1c-3.2-0.2-6.2-1.1-8.7-3.1
			c-0.3-0.3-0.6-0.6-1-1.1c2.2-0.3,3.4,1.9,5.3,1c-1.1-0.7-2.3-1.2-3.5-1.8c-1.2-0.5-2.4-1.1-4.1-1.8c2.3-2.1,4-4.2,6.2-5.5
			c2.9-1.9,6.2-3.3,9.4-4.7c1.1-0.5,2.5-0.8,3.7-0.9c2.2-0.1,4.3,0,6.5-0.1c1,0,2-0.4,3-0.3c1.7,0.1,3.3,1.4,5.1,0.3
			c0.1,0,0.2,0,0.3,0c2.4,0.8,5,1.4,7.3,2.4c2.3,1,4.9,1.4,6.9,3.3c0.9,0.8,2.5,1.5,3.9,0.5c0.2-0.1,0.7,0.2,1.5,0.4
			c-0.5,0.3-0.8,0.3-0.9,0.5c-0.2,0.3-0.3,0.7-0.5,1.1c0.4-0.1,0.8-0.2,1.1-0.4c1-0.6,1.9-1.4,3-1.8c2.5-0.9,5-1.7,8-2.7
			c-0.8-0.3-1.4-0.6-1.8-0.6c-0.8,0.1-1.6,0.4-2.4,0.7c-2.1,0.8-4.2,1.7-6.2,2.5c3.5-2.7,7.1-4.7,11.7-4.1c0.1-1.9-1-3.6-2.1-3.5
			c-1,0.1-2,0.2-2.9,0.5c-2.9,0.9-5.8,1.9-8.7,3c-0.3,0.1-0.7,0.4-0.9,0.7c-0.5,0.6-0.9,0.7-1.7,0.4c-1.6-0.9-3.3-1.7-5-2.4
			c-1-0.4-2-0.7-3.1-1.1c0.3-1.1,0.7-1.9,0.8-2.8c0.4-2.5-1.5-3.9-2.9-5.3c-2.1-2.1-5.1-2.5-8-2.2c-1.9,0.2-3.8,0.5-5.7,0.6
			c-4.8,0.3-7.5,3.2-9.2,7.3c-1.1,0.3-2.2,0.4-3.1,0.9c-2.7,1.4-5.3,2.9-7.9,4.3c-3.4,1.9-6,4.5-7.7,8c-0.2,0.5-0.4,1.1-0.7,1.6
			c-0.7,1.3-0.4,2,1,2.5c0.5,0.2,1.1,0.4,1.3,0.8c0.9,2.3,3.3,2.8,5,3.9c1.7,1,4,1.2,6.1,1.7c3.1,0.7,6.2,1.7,9.4,1.9
			c2.3,0.2,3.7,1.7,5,3c1.5,1.5,2.8,3.2,4.9,3.8c2.6,0.8,5.2,1.2,8,0.2c2.6-0.9,4.6-2.6,6.8-4.1c1.9-1.3,2.7-4.9,0.7-6.9
			c0.4-0.5,0.8-1,1.2-1.5c0.2-0.2,0.5-0.4,0.8-0.5c1.3-0.2,2.7-0.4,4-0.6c1.6-0.3,3.2-0.6,4.7-0.8c1.2-0.2,2.5-0.2,3.8-0.3
			c0.6,0,1.3,0.2,1.9,0.2c1.1,0,2.2,0.1,3.2-0.3c0.9-0.3,1.7-1,2.4-1.7c0.4-0.4,0.5-1.1,0.8-1.7
			C260.8,296.9,260.2,296.8,259.5,296.8 M232.5,280.5c-1.4,1.7-3,2.6-5.1,2.3C228.4,280.5,230.1,279.2,232.5,280.5 M228.6,279
			c-0.7,2.6-3.2,4.2-5.1,3.2C225.1,280.8,225.9,278.5,228.6,279 M226,278.4c-1.5,1.6-3,3.1-4.5,4.6l-0.4-0.4
			C221.7,279.5,223.7,277.7,226,278.4 M221.4,278.9c-0.4,1.2-0.6,2.3-1.1,3.3c-0.6,1.1-1.7,0.6-3,0.5
			C218.7,281.1,219.4,279.3,221.4,278.9 M214.7,281.5c0.9-0.9,1.8-1.8,2.7-2.5c0.3-0.2,0.9,0,1.3,0c0.1,0.1,0.1,0.3,0.2,0.4
			c-1.7,0.6-1.7,3.5-4.4,3.1C214.6,282,214.6,281.6,214.7,281.5 M224.8,312.8c-0.9-1.1-1.9-2.2-3-3.4c2-0.4,2.7,0.3,3.4,3.1
			C225,312.6,224.9,312.7,224.8,312.8 M224.8,309.3c1.4-0.5,2.2-0.2,2.7,1.1c0.3,0.7,0.8,1.4,1.2,2.1
			C227.6,312.9,227.6,312.9,224.8,309.3 M228.7,310.4c0-0.6-1.6-1.2-0.2-1.8c1.3-0.5,1,0.9,1.5,1.5c0.4,0.5,0.6,1.3,1,2.1
			C229.8,312,228.8,311.6,228.7,310.4 M230.6,308.8c-0.1-0.3,0.3-0.8,0.6-1.5c0.8,1.5,1.4,2.6,2,3.7
			C230.9,311.6,230.9,310,230.6,308.8 M234.1,310.2c-1.9-2.9-1.9-2.9,0.2-3.7c0.2,1.1,0.4,2.1,0.7,3.2
			C234.9,309.8,234.5,310,234.1,310.2"/>
		<path class="st7" d="M195.4,261.5c1.3-0.4,3-0.3,3.6-2.1c0.2-0.6,1-1.2,1.7-1.5c0.4-0.2,1.1,0.2,1.5,0.5c0.3,0.2,0.5,0.9,0.4,1.1
			c-0.4,0.8-0.9,1.6-1.6,2.3c-1.3,1.3-2.8,2.4-4.2,3.7c-0.3,0.3-0.5,0.7-0.7,1c0.4,0.2,0.9,0.6,1.3,0.5c0.6-0.1,1.2-0.4,1.6-0.8
			c0.8-0.6,1.4-1.7,2.2-2c2.1-0.9,3.9-1.8,3.7-4.8c-0.5-0.7-0.8-1.7-1.5-2.1c-1.6-1.1-3.5-1.1-5.2-0.5c-1.4,0.6-2.7,1.6-3.7,2.7
			C193.8,260.3,194.5,261.8,195.4,261.5"/>
		<path class="st7" d="M211.7,298.1c-0.4,0.9-1,1.7-1.1,2.6c-0.1,1,1.2,1.6,2.8,1.4c0.7-2.5,1.2-5,2.1-7.4c1-2.6-0.7-5.8-2.9-6.9
			c-0.6-0.3-1.7,0.3-2.6,0.4c0.4,0.6,0.7,1.2,1.1,1.7c0.2,0.2,0.6,0.1,0.8,0.3c0.3,0.3,0.8,0.6,0.8,0.9c-0.1,2.1-0.2,4.1-0.4,6.1
			C212.3,297.6,211.9,297.8,211.7,298.1"/>
		<path class="st7" d="M202.9,294.1c0.3,0.8,1.8,1.4,2.5,0.9c0.7-0.6,1.6-1.3,1.7-2.1c0.1-0.7-0.7-1.6-1.1-2.5
			C202.9,291.6,202.2,292.4,202.9,294.1"/>
		<path class="st7" d="M195,269.5c-0.2,0.6,0,1.2,0.1,1.9c0.2,1.8,2,0.3,2.6,1.3c1.5-1.8,1.9-3.2,1.2-3.8
			C198.3,268.4,195.2,268.8,195,269.5"/>
		<path class="st7" d="M252.2,292.1c-1.9,0.7-3.6,1.6-5.4,2.5c-0.2,0.1-0.2,0.5-0.2,0.7c0,0.1,0.3,0.2,0.4,0.3
			c0.2-0.1,0.3-0.2,0.4-0.2c2-1.7,4.5-2.3,7-2.8c0.9-0.2,1.7-0.3,2.6-0.6c0.3-0.1,0.5-0.6,0.7-0.9c-0.4-0.1-0.8-0.2-1.2-0.1
			C255.1,291.3,253.6,291.6,252.2,292.1"/>
		<path class="st7" d="M216.9,287.5c0.5,1.3,1,2.4,1.5,3.5C219.4,289.4,218.7,287.8,216.9,287.5"/>
		<path class="st7" d="M217.6,294.2c-0.1,0.3-0.1,0.6-0.1,0.8c0,0.4,0,0.8,0,1.1c0.3-0.3,0.7-0.5,1-0.9c0.2-0.3,0.1-0.7,0.2-1.3
			c-0.2-0.2-0.5-0.6-0.8-1C217.8,293.4,217.7,293.8,217.6,294.2"/>
		<path class="st7" d="M223,298.9c0.1-0.2-0.2-0.5-0.3-0.7c-0.1-0.1-0.5,0.1-0.6,0.2c-0.3,0.8-0.6,1.7-0.8,2.5l0.6,0.3
			C222.3,300.4,222.7,299.7,223,298.9"/>
		<path class="st7" d="M227.6,297.6c-0.1,0.7-0.2,1.4-0.3,2.4c0.4-0.1,0.9-0.2,1-0.4c0.2-0.7,0.2-1.4,0.3-2.1c0-0.1-0.4-0.2-0.6-0.2
			C227.9,297.2,227.6,297.4,227.6,297.6"/>
		<path class="st7" d="M231.6,298.6c1.6-1.2,1.7-2.2,0.5-3.1C232,296.5,231.8,297.4,231.6,298.6"/>
		<path class="st7" d="M221.2,292.8c-0.1,0.1-0.2,0.2-0.3,0.3c0.1,0.7,0.1,1.4,0.2,2.1c0.2,0.1,0.4,0.2,0.6,0.2
			c0.2-0.5,0.5-1,0.5-1.5C222,293.5,221.5,293.2,221.2,292.8"/>
		<path class="st7" d="M224.1,291.6c0.2-0.1,0.3-0.1,0.5-0.2c-0.3-0.7-0.6-1.3-0.8-2c-0.1,0-0.1,0.1-0.2,0.1
			c-0.2,0.1-0.4,0.2-0.5,0.3C222.2,291.3,223.9,290.9,224.1,291.6"/>
		<path class="st7" d="M224.6,291.4c-0.3-0.7-0.6-1.3-0.8-2c-0.1,0-0.1,0.1-0.2,0.1c0.1,0,0.1-0.1,0.2-0.1
			C224,290.1,224.3,290.7,224.6,291.4"/>
		<path class="st7" d="M224.6,295.2c0.1,0.4,0.4,0.8,0.6,1.1c0.2-0.3,0.6-0.6,0.7-1c0.1-0.3-0.3-0.7-0.6-1.4
			C224.9,294.6,224.6,294.9,224.6,295.2"/>
		<path class="st5" d="M147.3,401.7C147.2,401.7,147.2,401.7,147.3,401.7L147.3,401.7C147.3,401.7,147.3,401.7,147.3,401.7"/>
		<path class="st5" d="M147.3,401.7C147.3,401.7,147.3,401.7,147.3,401.7c-0.1-0.3-0.3-0.6-0.4-0.9
			C147,401.1,147.1,401.4,147.3,401.7"/>
		<path class="st5" d="M146.9,400.8c0-0.1-0.1-0.2-0.1-0.3C146.8,400.6,146.8,400.7,146.9,400.8"/>
		<path class="st5" d="M146.5,404.5c-0.1-0.2-0.1-0.4-0.1-0.6C146.4,404.2,146.5,404.3,146.5,404.5"/>
		<path class="st5" d="M147.2,401.7C147.2,401.7,147.2,401.7,147.2,401.7C147.3,401.7,147.3,401.7,147.2,401.7
			C147.3,401.7,147.2,401.7,147.2,401.7"/>
		<path class="st7" d="M82.2,303.7c1.1,1.8,1.6,3.9,3.5,5.3c1.7,1.3,3.1,3,4.5,4.5c2.1,2.3,5,2.9,7.9,3.4c3.3,0.6,6.6,0.7,9.9-0.3
			c1.3-0.4,2.7-0.1,3.9-0.5c4.7-1.8,9-4.2,11.3-9.1c0.1-0.2,0.3-0.2,0.4-0.4c1.6-2.1,3.8-3.9,4.7-6.3c1.6-4.2,2.3-8.7,0.5-13.2
			c-0.5-1.3-0.7-2.8-0.9-4.2c-0.4-2.2-0.5-4.4-1.9-6.3c-1.4-1.9-2.5-4.1-5.2-4.7c-0.3-0.1-0.4-0.6-0.6-0.7c-1,0.4-1.9,1-2.9,1.1
			c-1,0.1-2.1-0.2-3-0.6c-3.5-1.4-7.1-0.6-10.5-0.4c-3.3,0.2-6.4,1.7-9.6,2.7c-0.9,0.3-1.9,0.8-2.5,1.5c-1.3,1.8-3.3,2.6-5.1,3.6
			c-1.1,0.6-1.9,1.3-2.3,2.6c-0.3,1.1-0.6,2.4-1.4,3.1c-1.7,1.7-2.3,3.7-2.4,5.9c-0.1,1.4,0.3,2.8,0.1,4.2
			C80.4,298,80.4,300.9,82.2,303.7 M118.3,305.7c0-0.7-0.2-1.1-0.1-1.3c0.5-0.5,1.1-1,1.7-1.4c0.1,0.2,0.2,0.3,0.3,0.5
			C119.7,304.1,119.2,304.7,118.3,305.7 M101.4,275.9c1.6,0,3.1-0.7,4.7-0.7c2.7-0.1,5.4-0.1,8.1,0.3c1.2,0.2,2.2,0.9,3.7,0.9
			c2.1-0.1,3.7,1.5,5,3c1.8,2,2.2,4.3,1.7,7c-0.2,1.2,0.3,2.5,0.6,3.8c0.8,3.5,0.1,6.7-1.3,10c-0.9-0.3-1.6-0.5-2.2-0.7
			c0.4-1.9,0.9-3.7,1.3-5.6c0.5-2-0.1-3.8-0.7-5.6c-0.8-2.7-1.6-5.3-2.3-8c-0.3-1.1-0.8-1.9-2.1-1.9c-0.1,0-0.3,0-0.4-0.1
			c-1.5-1.5-3.4-1.1-5.2-1c-1.9,0.1-3.7-0.1-5.6,0.1c-3.3,0.2-6.5,1.1-9.4,2.7c-0.7,0.4-1.7,0.3-2.6,0.2
			C96.5,278,98.3,275.9,101.4,275.9 M92.2,288.1c0.5-1,1.5-1.8,2.4-2.6c0.2-0.2,0.4-0.4,0.6-0.6c1-0.9,1.9-2.1,3-2.5
			c2.9-1,5.9-1.7,9.4-2.6c2,0,4.4,0,6.9,0c1.1,0,3.3,1.3,3.6,2.4c1,3.2,2.1,6.5,1.9,9.9c-0.3,4.2-1.7,7.9-4.8,11.2
			c-2.6,2.7-5.8,2.8-8.8,3.8c-2.5,0.8-5,1.1-7.7,0.9c-1.8-0.1-2.8-1.3-4.2-2c-3.6-1.7-4.2-5.2-4.9-8.5c-0.2-1,0.3-2.3,0.6-3.4
			C90.7,292.1,91.3,290,92.2,288.1 M84.1,292.2c0.1-1.3,0.8-2.6,1.2-3.9c0.2-0.5,0.3-1,0.6-1.5c0.2-0.5,0.6-0.9,0.9-1.3
			c0.4-0.5,0.8-1.1,1.2-1.7c0.8,0.6,1.6,1.1,2.2,1.5c-0.8,1.7-2,3.3-2.4,5c-0.5,2.1-0.5,4.3-0.5,6.5c-0.1,1.5,0.1,3,0.1,4.5
			c0.1,2.2,1.2,3.8,2.6,5.3c0.9,0.9,1.8,1.9,2.9,2.3c1.9,0.7,3.9,1.2,5.8,1.3c2.6,0.2,5.3,0.2,7.8-0.3c2.5-0.4,5-1.4,7.4-2.3
			c1.5-0.5,1.4-0.7,2.8,0.6c-3.7,2.3-7.6,4-12,4.8c-6.1,1.2-11.3-0.1-16.2-3.8c-1-0.8-1.4-1.6-1.8-2.7c-0.3-0.9-1.2-1.8-2-2.5
			c-1.1-0.9-1.1-2.3-1.2-3.4C83.7,297.9,83.8,295,84.1,292.2"/>
		<path class="st7" d="M91.2,349.2c1.5-0.2,3-1.5,3.1-3c0.1-0.7,0.1-1.5,0.2-2.2c0.1-1.6-2.2-3.1-4.1-2.9c-0.9,0.1-1.8,0.4-2.6,0.2
			c-1.3-0.3-1.7,0.3-2.1,1.3C84.6,346.3,87.4,349.7,91.2,349.2 M89.1,344.6c0.5-0.1,1-0.6,1.5-0.9c0.1,0.1,0.3,0.3,0.4,0.4
			c-0.4,0.8-0.8,1.6-1.4,2.9c-0.5-0.3-1.3-0.6-1.6-1.1C87.6,345,88.3,344.7,89.1,344.6"/>
		<path class="st7" d="M106.7,355.3c2.7-0.3,3.1-0.6,3.7-3.5c0.6-2.6,0-3.6-2.6-4.3c-0.5-0.1-1.1-0.1-1.8-0.2
			c-0.5,0.1-1.2,0.2-1.9,0.4c-2.2,0.8-3.4,3-2.7,4.7C102.2,353.9,105,355.5,106.7,355.3 M106.9,349.5c0,1,0.2,2.1,0.1,3.1
			c0,0.3-0.8,0.7-1.2,0.7c-1.4,0-1.6-1.2-2.1-2.6C104.8,350.3,105.8,349.9,106.9,349.5"/>
		<path class="st7" d="M121.1,344.1c0.7-0.4,1.9-1,2.8-1.9c0.4-0.4-0.1-1.5-0.1-2.3c0-1.3-1.1-1.8-1.9-2.5c-1.2-1-1.9-0.2-2.8,0.5
			c-0.2,0.2-0.6,0.1-0.8,0.2c-0.5,0.4-1.1,0.7-1.4,1.3C116,341.5,118.1,344.2,121.1,344.1 M120.9,339.2c0.5,1.1,1,2-0.1,2.7
			c-0.3,0.2-1.3,0-1.4-0.3C118.8,340.3,119.9,339.9,120.9,339.2"/>
		<path class="st7" d="M95.6,257.8c2.4,0.9,4.9,1.5,7.4,2.3c0-0.1,0.1-0.2,0.1-0.3c0.7,0,1.4,0,2.1-0.1c2.8-0.8,5.6-1.7,8.4-2.6
			c4.9-1.5,8-4.8,9.8-9.4c0.4-1.1-0.7-4-1.7-4.4c-1-0.4-2-0.8-3-0.8c-4.4-0.1-8.8-0.2-13.2,0c-2.1,0.1-4.2,0.7-6.2,1.1
			c-1.2,0.2-2.3,0.4-3.4,0.8c-0.7,0.3-1.1,1.1-1.8,1.4c-1.7,0.7-2.3,2.3-2.5,3.7c-0.3,2.2,0.8,4.2,2,6
			C94.1,256.4,94.7,257.5,95.6,257.8 M117.3,251.9c-0.1,0.2-0.3,0.4-0.5,0.5c-0.5,0.3-1.4,1-1.6,0.9c-0.5-0.4-1-1.1-1.1-1.8
			c0-0.6,0.5-1.4,1-1.7c1.1-0.5,2.4-0.8,3.7-1.1c0.1,0.1,0.3,0.2,0.4,0.2C118.5,250,117.9,251,117.3,251.9 M114.1,245.9
			c0.2-0.5,0.3-0.9,0.5-1.8c0.9,0,2.3-0.4,3.1,0.1c0.8,0.5,1.1,2,1.8,3.3c-1.7,0.3-3.2,0.7-4.7,0.9
			C113.9,248.6,113.6,247.2,114.1,245.9 M98.1,256.7c-1-1.5-1.8-2.5-2.5-3.6c2.1-0.9,2.5-0.7,2.5,1.3
			C98.1,255.1,98.1,255.7,98.1,256.7 M106.7,248.6c0.4-1.3,0.9-2.5,1.4-3.7c0.9-0.2,1.7-0.3,2.5-0.4c1.3-0.3,2.1,0.2,2.4,1.5
			c0.1,0.7,0.2,1.4,0.2,2.1c0,0.3-0.4,0.8-0.7,0.9c-1.8,0.2-3.6,0.4-5.4,0.5C107,249.5,106.6,248.9,106.7,248.6 M107.4,251.4
			c1.3-0.5,2.6-0.7,4-0.8c0.8-0.1,1.5,0.4,1.6,1.5c0.1,0.7,0.3,1.3,0.5,2.3c-1.8,0.6-3.7,1.2-5.7,1.8c-0.5-1-1.1-2-1.3-3.1
			C106.4,252.5,107,251.6,107.4,251.4 M100.6,246.3c1.3-0.5,2.7-0.9,4.3-1.5v5.1c-1.8,0.2-3.5,0.3-5.5,0.5
			C99.9,248.8,100.3,247.5,100.6,246.3 M100.9,252.1c0.5-0.2,1.1-0.1,1.6-0.2c2.6-0.4,2.6-0.4,2.8,2.2c0.1,0.7,0.4,1.4,0.7,2.2
			c-2,0.2-4,0.4-5.9,0.6c-0.2-1.1-0.2-2-0.5-2.7C98.7,252.6,99.9,252.4,100.9,252.1 M95.8,247.7c0.2-0.2,0.9,0.1,1.4,0.1
			c0.3,0,0.6,0.1,1,0.1c0.1,3.2-0.9,3-2.9,2.9c-0.3,0-0.9-0.6-0.9-0.7C94.7,249.3,95.1,248.4,95.8,247.7"/>
	</g>
	<polygon class="st8" points="328.3,431.8 341.4,419.3 354.2,416.1 389.5,417.3 428.9,424.7 442,434.1 447.9,442.7 445.9,465.1 
		444.5,485.1 422.3,484.1 403.8,488.1 369,487.8 345.3,482.4 325.6,480.4 324.1,456.5 322.4,443.7 	"/>
	<polygon class="st9" points="376.6,441.2 378.1,438 383.3,433.8 390.7,435.5 396.9,439.5 390.4,447.1 386.7,449.9 379.8,445.9 	"/>
	<g>
		<defs>
			<rect id="SVGID_00000085248030944871385130000017822166051930607509_" x="221.4" y="363.8" width="275" height="126.6"/>
		</defs>
		<clipPath id="SVGID_00000001638041813602408060000008237583527497466247_">
			<use xlink:href="#SVGID_00000085248030944871385130000017822166051930607509_"  style="overflow:visible;"/>
		</clipPath>
		<path style="clip-path:url(#SVGID_00000001638041813602408060000008237583527497466247_);fill:#FFE064;" d="M373.7,487.8
			c0,0,6.4-5.7,6.9-6.4c0.5-0.7,6.2-4.2,6.2-4.2l8.4,9.6l-10.9,1.2L373.7,487.8z"/>
		<polygon style="clip-path:url(#SVGID_00000001638041813602408060000008237583527497466247_);fill:#FFE064;" points="324.8,467.6 
			323.8,449.4 334.7,455.5 332.7,461.4 		"/>
		<polygon style="clip-path:url(#SVGID_00000001638041813602408060000008237583527497466247_);fill:#FFE064;" points="441.3,434.6 
			437.8,441.2 447.2,452.1 447.9,442.5 		"/>
		<polygon style="clip-path:url(#SVGID_00000001638041813602408060000008237583527497466247_);fill:#FFE064;" points="433.9,483.7 
			444.7,473.3 444.7,484.9 		"/>
	</g>
	<polygon class="st11" points="266.9,367 269.6,366.2 272.3,368.4 272,374.9 268.1,374.1 265.6,370.4 	"/>
	<polygon class="st11" points="292.5,370.4 295,368.2 297.4,370.4 297.2,377.8 293.2,377.1 292,373.4 	"/>
	<polygon class="st11" points="251.8,395.5 256.5,396.9 257.1,392.2 252.3,389 249.5,391 249.6,394.3 	"/>
	<polygon class="st11" points="312.1,387.4 314,390.8 317.4,388.4 317.7,382.4 313.5,383.3 	"/>
	<polygon class="st11" points="310.9,406.2 312.8,409 316.8,407.3 318.1,403.4 313.4,404.2 	"/>
	<polygon class="st11" points="308.4,421.9 310.7,424.9 315.1,423.6 315.7,420 311.3,419 	"/>
	<polygon class="st11" points="267.7,420.3 271.1,421.6 272.2,418.2 267.7,413.3 265.8,417.4 	"/>
	<polygon class="st11" points="236.1,434.4 241.5,432.1 242.3,436.2 236.2,436.9 235.7,434.2 	"/>
	<polygon class="st11" points="305.8,437.2 305.3,441.1 308.2,442.7 313.1,439.8 310.7,436.7 	"/>
	<polygon class="st11" points="303,451.7 306.3,449.8 308.5,454.4 304.4,457.1 300.9,455.3 	"/>
	<g>
		<defs>
			<rect id="SVGID_00000167367161829516200130000010407010328589386164_" x="221.4" y="363.8" width="275" height="126.6"/>
		</defs>
		<clipPath id="SVGID_00000040564130385661341320000010220119565173404800_">
			<use xlink:href="#SVGID_00000167367161829516200130000010407010328589386164_"  style="overflow:visible;"/>
		</clipPath>
		<path style="clip-path:url(#SVGID_00000040564130385661341320000010220119565173404800_);fill:#C2C830;" d="M276.7,483.5
			c0.6,0,6.1,2.6,6.5,1.8c0.4-0.7,1.7-11.8,1.7-11.8l3.5-6.5l8-7.2l-8.7,1.9l3-10.2l5.7-8.5l9.1-3.5l0.2-2.2l-10.4,1.8l3.5-8.5
			l3-2.4l9.1-3l-1.9-3.5l-8.9,3.9l-4.4,2.2l0.6-6.3l5.9-6.5l10.4-6.1l-1.3-2.8l-10.5,4.6l-1.5-2.6l4.6-7l10.9-9.8l-3-3l-4.3,3.7
			l-8.9,8.5l-0.9-13.5l0.2-6.1l-1.1-3.9l-3.7-0.2l1.5,14.4l-0.6,16.1l-1.7,9.8l-7.2-10.5l-8.3-15l-4.1-17.8l-4.3,0.2l2.8,9.3
			l3.7,13.9l-7.8-3l-5.4-2l-4.8,0.2l-0.2,4.1l6.5-0.2l11.3,4.6l8,8.1l4.6,7.6l2.2,9.3l-1.3,11.8l-2.6,8.7l-5.2-4.4l-3.1-4.6l-6.5-15
			l-3-1.1l0.7,5l3.3,11.5H268l-13.9-6.7l-8.7,0.2l-3.1,2l1.3,2.4l5.7-0.7l5.6,1.1l11.5,4.8l9.4,4.8l7.6,7.4l-0.4,7.6L276.7,483.5z"
			/>
		<path style="clip-path:url(#SVGID_00000040564130385661341320000010220119565173404800_);fill:#1D1D1B;" d="M496.2,488
			c-0.3-0.9-0.9-1.4-2.1-1.4c-1.1,0.1-2.2-0.2-3.3-0.3c-1.4-0.2-2.8-0.6-4.1-0.4c-3,0.5-5.8,0.4-8.6-0.5c-0.9-0.3-1.8-0.3-2.6-0.5
			c-1.4-0.4-2.7-0.9-4-1.2c-0.6-0.1-1.3,0.1-1.9,0.3c-0.7,0.1-1.4,0.6-2,0.4c-1.8-0.4-3.7-0.8-5.3-1.6c-2.3-1.1-4.7-0.8-7-0.7
			c-2.6,0.1-5.2,0.8-7.7,1.2c-0.3-0.5-0.3-0.6-0.3-0.7c0-0.1,0.2-0.3,0.1-0.4c-1.1-2.4-0.3-4.8,0-7.3c0.2-1.4,1.7-3,0.1-4.1
			c0.3-1,0.7-1.9,0.6-2.7c-0.1-1.4-0.4-2.9-0.6-4.3c0-0.1,0.1-0.3,0.1-0.4c0.6-1,1.2-2.1,1.8-3.1c-0.4-0.8-0.5-1.7-0.4-2.5
			c0.1-1.4,0.3-2.7,0.4-4c0.1-0.7,0.3-1.4,0.4-2.1c0.1-0.7,0.1-1.4,0.1-2c0.1-1.5,0.2-3,0.4-4.6c0.2-1.4-1.2-1.9-1.5-2.8
			c-0.6-2-1.5-3.7-2.8-5.3c-1.6-2.1-3.1-4.2-4.8-6.1c-1-1.1-2.3-2.1-3.5-3c-2.9-2.2-5.8-4.3-9.4-5.2c-1.5-0.4-3.1-0.4-4.7-0.6
			c-3.9-0.6-7.8-1.2-11.8-1.8c-2.1-0.3-4.2-0.5-6.3-0.9c-2.2-0.4-4.4-1.1-6.6-1.6c-4.9-1-9.9-2.1-14.8-3c-1.9-0.4-4.1-1-5.8-0.5
			c-2.1,0.7-4.1,0.2-6.1,0.1c-3.8-0.2-7.5-1.2-11.2,0.3c-0.1,0.1-0.3,0-0.4,0c-2.5-0.3-5-0.6-7.5-0.8c-0.8-0.1-1.7,0-2.5,0.2
			c-2.3,0.5-4.3,2.2-6.8,1.6c-0.2,0-0.6,0.1-0.6,0.3c-0.4,1.3-1.6,1.4-2.6,2c-3.3,2.1-6.6,4.2-9.3,7c-2.2,2.3-3.6,5.4-5.3,8.2
			c-0.8,1.3-1.9,2.6-2.2,4.1c-0.4,1.9-1,3.5-2.1,5.1c-0.2,0.2-0.2,0.6-0.3,0.9c-0.4,2.2-1,4.4-1.2,6.6c-0.2,1.4-0.3,2.9,0.1,4.1
			c0.5,1.3,1.6,2.3,2.5,3.5c-0.3,0.1-0.7,0.1-1,0.2c-0.1,1-0.4,1.9-0.3,2.8c0.6,3.3,1.1,6.7,2.2,9.9c1,3,0.1,6,0.5,8.9
			c-2.6,0.2-5.1,0.4-7.6,0.7c-2.4,0.3-4.9,0.7-7.3,1c-1.7,0.2-3.4,0.2-5.1,0.3c-0.8,0-1.6,0-2.3,0c-1,0.1-2.1,0-3.1,0.3
			c-1.5,0.4-2.9,1-4.3,1.5c-1.2,0.4-2.4,1-3.7,1.1c-2,0.1-4-0.2-5.7-0.3c0.2-2.6,0.4-5.1,0.7-7.5c0.1-1,0.4-2,0.9-2.9
			c0.8-1.5,1.8-2.8,2.6-4.2c0.2-0.3,0.2-0.7,0.3-1c0.2-0.4,0.3-0.9,0.6-1.2c3.2-2.2,6.4-4.6,9.8-6.6c2.2-1.3,4.7-2.3,7.1-3.3
			c1.8-0.8,2.7-2.3,3.5-4c0.7-1.5-1-3.6-3-4.2c-2.4-0.7-6.3,1.5-7,4c-0.5,2-2.1,2.8-3.7,3.6c-1.4,0.7-2.8,1.2-4.1,2
			c-0.8,0.4-1.4,1-2.1,1.6c-0.2-0.1-0.4-0.2-0.6-0.4c0.3-1.6,0.4-3.3,1-4.9c0.6-1.8,1.7-3.5,2.4-5.2c1.1-2.8,3.3-4.8,5.4-6.6
			c1.2-1,2.8-1.6,4.3-2.1c0.5-0.2,1.5,0.2,1.9,0.6c1.4,1.6,4.2,2.2,6,1.1c1.2-0.7,2.5-1.4,3.4-2c0-0.9,0-1.7,0-2.4
			c0-0.3,0-0.9-0.1-1c-1.9-0.7-3.8-1.8-5.6-1.8c-2.7,0.1-5.5,0.9-8.1,1.7c-2.6,0.7-2.8,0.8-2.2-1.8c0.6-2.7,2-5.1,4.6-6.5
			c1.9-1,3.9-1.8,5.9-2.5c1.1-0.4,2.5-1,3.5-0.7c0.9,0.2,1.4,0.1,2-0.2c0.8-0.4,1.6-1,2.4-1.5c1.6-1,2.1-1.9,1.3-3.6
			c-0.3-0.6-1.1-1.1-1.8-1.4c-1.2-0.6-2.5-1.7-4-1c-1.3,0.6-2.4,1.4-3.6,2.1c-3.5,2-7,4-10.7,6.1c-0.1-0.3-0.4-0.8-0.5-1.3
			c-0.6-3.3,1.4-5.4,3.4-7.3c2.4-2.4,5.3-4.3,8.4-5.6c1.9-0.8,3.4-2.3,5.6-2.6c1.4-0.2,2.7-1.2,3.9-2c0.7-0.5,1.5-1.5,1.6-2.2
			c0.1-1.3-0.9-2.2-2.3-2.6c-1.9-0.6-3.5,0.5-5.1,1.2c-4.2,2-8.4,4.2-12.6,6.4c-0.1,0.2-0.2,0.4-0.3,0.7c0.9,0.7,1.7,0.5,2.5-0.3
			c0.5-0.5,1.6-0.3,2-0.8c1.3-1.8,3.4-1.7,5.2-2.4c0.9-0.3,1.4-0.3,1.8,0.8c-1.5,0.6-3,1.3-4.4,2c-3.9,1.9-7.6,4.1-9.8,7.9
			c-1.2,2.2-1.7,4.9-2.2,7.4c-0.4,1.8-0.1,3.7-1.4,5.3c-0.7,0.8-0.4,1.6,0.4,2.5c0.2-0.3,0.5-0.6,0.5-0.8c-0.4-1.4,0.6-2.1,1.4-2.9
			c3.2-3.1,7.3-4.6,11.4-6c0.4-0.1,0.7-0.3,1.1-0.4c0.4,0.6,0.9,1.2,1.3,1.8c-1.8,0.5-3.6,1-5.4,1.4c-3.9,1-6.5,3.3-8,7
			c-0.6,1.6-1.2,3.3-2,4.8c-0.7,1.3-1.7,2.5-2.6,3.9c0.9,1.2,2.3,0.9,3.9-0.5c2.4-2.2,5.3-3.6,8.8-3c0.1,0,0.1,0.2,0.3,0.5
			c-1,0.4-1.9,0.8-2.9,1.1c-6.4,1.5-10.5,5.3-12.4,11.6c-0.9,2.9-1.7,5.7-2.5,8.6c-0.1,0.4-0.3,1-0.6,1.2c-1.2,0.7-0.5,2.1-1.3,2.9
			c-0.1,0.1,0.1,0.6,0.2,0.6c0.6,0,1.2,0,1.7-0.2c0.5-0.2,0.8-0.7,1.3-1c1.6-1,3.2-1.9,5-2.8c-7.1,5.6-11.5,12.6-11.3,22.1
			c-1.1-0.4-2.1-0.8-3.3-1.2c1.6-6.5,3.1-12.9,4.7-19.4c0.3,0.3,0.6,0.5,1.1,1c0.1-1.9,0.2-3.5,0.2-5.1c0-1.2-0.1-2.5,0-3.7
			c0.2-1.8-0.5-2.7-2-3.7c-1.5-1-2.6-2.5-3.9-3.7c-1.3-1.1-2.5-2.3-4-3.1c-3.4-1.9-6.8-3.6-10.3-5.2c-2.9-1.4-6-2.5-9-3.6
			c-2-0.7-4-1.4-6.1-1.7c-1.7-0.2-3.6,0.1-5.5,0.2c0.4-0.3,0.8-0.6,1.2-0.8c2.9-1.2,5.9-1,8.8-0.7c1.5,0.2,2.9,1.2,4.3,1.8
			c3.6,1.7,7.1,3.3,10.7,5c0.8,0.4,1.7,0.7,2.5,0.8c0.8,0.1,1.9-1.9,1.4-2.5c-2.4-3.2-2.7-7.1-3.9-10.7c-0.3-1-0.3-2.2-0.1-3.6
			c0.5,0.4,1.1,0.7,1.4,1.2c0.5,0.9,0.8,2,1.3,3c1.7,3.9,3.3,7.8,5.1,11.7c0.5,1.1,1.6,1.9,2.4,2.9c1.3,1.8,2.5,3.7,3.8,5.5
			c0.2,0.3,0.6,0.6,1,0.8c0.7,0.3,1.5,0.5,2.3,0.9c0.5-1.3,1.1-2.7,1.4-4.2c0.6-2.7,1.3-5.5,1.6-8.2c0.6-5.5,1.3-11.1-0.2-16.7
			c-1.1-4.2-3.3-7.7-5.6-11.2c-1.3-1.9-3-3.5-4.3-5.4c-0.6-1-1.5-1.5-2.3-2.2c-1-0.8-2-1.6-3.1-2c-2.9-1.2-6-2.1-8.9-3.2
			c-0.8-0.3-1.5-0.9-2.3-1.1c-1.2-0.3-2.5-0.2-3.8-0.4c-0.4,0-0.7-0.3-1.1-0.5c0.3-0.2,0.6-0.6,1-0.7c2.8-0.2,5.5,0,8,1.4
			c0.8,0.4,1.8,0.5,2.7,0.8c1.7,0.7,3.4,1.6,5.1,2.3c0.6,0.2,1.4-0.1,1.8-0.1c-1-2.7-2-5-2.7-7.4c-1.4-5.1-2.5-10.2-3.8-15.3
			c0.1-0.1,0.2-0.2,0.3-0.3c0.3,0.2,0.7,0.4,0.9,0.7c0.2,0.4,0.2,1,0.5,1.3c1.8,2.1,1.7,4.8,2.5,7.3c0.2,0.8,0.3,1.6,0.5,2.4
			c0.3,1.2,0.7,2.4,1.1,3.5c0,0.1,0.1,0.4,0,0.4c-1.4,1.4-0.1,2.4,0.6,3.5c3.1,5.1,6.2,10.2,9.3,15.3c1.2,2,2.5,4,3.8,6
			c0.1,0.2,0.3,0.4,0.3,0.7c0.4,1.6,1.2,2.4,2.5,2.4c1.6,0,1.9-1.4,2.1-2.3c0.4-1.7,0.5-3.6,0.6-5.4c0.2-4.3,0.6-8.5,0.6-12.8
			c0-3.7-0.5-7.4-0.8-11.1c-0.1-1.1,0-2.2-0.1-3.3c-0.1-1.5-0.4-3.1-0.6-4.6c0-0.3,0-0.6,0-0.9c0.7,0.1,1.3,0.1,1.7,0.1
			c0.6,1.4,1.2,2.6,1.5,3.8c0.2,1-0.1,2.1-0.1,3.1c0,3.6,0.1,7.2,0.1,10.8c0,2.5,0,5,0,7.5c2.4,0.6,2.2,0.6,2.7-1.8
			c0.2-1,0.8-1.9,1.5-2.6c1.7-1.8,3.6-3.4,5.3-5.1c0.1-0.1,0.3-0.3,0.4-0.4c1.7-1,3.4-2.1,5.2-3.2c0,0,0.2,0.4,0.7,1.2
			c-2.1,2-4.5,4.2-7,6.4c-3,2.7-6.2,5.2-7.4,9.3c-0.5,1.7-0.2,2.6,1.3,2.9c0.4-1.1,0.8-2.3,1.3-3.4c0.3-0.7,0.4-1.5,0.9-2
			c2.3-2.6,4.7-5.1,7.4-7.3c1.5-1.2,3.3-2.2,4.5-3.7c2.1-2.6,3.9-5.4,5.8-8.1c0.2-0.2,0.2-0.7,0.1-1c-0.3-0.9-0.5-1.9-1-2.6
			c-0.3-0.5-1.2-0.6-1.8-0.8c-0.3-0.1-0.7,0.3-1.1,0.4c-2.9,0.1-4.3,2.2-4.7,4.4c-0.4,2.4-2,3.5-3.4,4.9c-2.4,2.4-5,4.6-7.6,6.9
			c-0.3,0.2-0.6,0.4-1,0.6c-0.1-1.3,0-2.4-0.2-3.5c-0.7-3.4-0.9-6.7-0.5-10.1c0.2-1.6-0.1-3.3-0.1-4.9c-0.1-1.6-0.6-3.3-0.3-4.8
			c0.4-1.9,0-3.6-0.5-5.3c-0.5-1.5-2.1-2.4-3.3-2.1c-1.9,0.4-3.1,2-3,4.1c0.1,2,0.7,3.9,1.1,5.8c0.7,2.9,0.7,6,1,9
			c0.1,1.2,0.2,2.4,0.2,3.6c-0.1,2.3-0.3,4.6-0.5,6.9c-0.1,1.6,0.1,3-0.7,4.6c-0.7,1.3-0.1,3.3-0.1,5c-0.1,2.8-0.2,5.6-0.4,8.7
			c-0.5-0.6-0.7-0.9-0.8-1.2c-0.9-1.6-1.8-3.3-2.8-4.8c-1.9-2.8-3.9-5.5-5.7-8.4c-0.9-1.4-1.4-3-2-4.5c-1.2-2.7-2.5-5.4-3.4-8.3
			c-1-2.9-1.6-5.9-2.2-8.9c-0.5-2.3-0.8-4.7-1.3-7c-0.4-1.8-0.5-3.7-1.8-5.1c-0.3-0.4-0.7-0.8-0.9-1.3c-0.9-1.6-3.6-2.2-4.8-1
			c-1.7,1.7-1.8,5.5-0.1,7.3c1.9,1.8,2.6,4.1,3.2,6.5c1,4.3,2.1,8.6,3.2,13c0.3,1.1,0.6,2.3,0.9,3.4c-1.8-0.3-3.2-0.5-4.7-0.8
			c-0.2,0-0.5-0.1-0.6-0.3c-1.2-1.7-3.3-1.5-5-2c-1.3-0.4-2.6-0.6-3.9-0.9c-0.6-0.1-1.2-0.3-1.8-0.4c-0.1,0.1-0.1,0.3-0.2,0.4
			c-0.6-0.5-1.2-1.1-1.8-1.6c-2.3-2.1-6.3-1.8-6.6,1.7c-0.1,1.3,0,2.7,0.1,4c0,0.3,0.4,0.6,0.7,0.7c2.4,0.7,4.8,1.5,7.2,1.9
			c1.9,0.3,3.9,0,5.8,0.1c0.7,0,1.3,0.3,2,0.5c1,0.4,2,0.9,3,1.3c2.7,1.1,5.8,1.4,7.9,3.8c1.7,1.9,3.6,3.7,5.3,5.6
			c3.2,3.5,4.5,8.1,6,12.3c1.6,4.3,0.4,8.9-0.1,13.4c-0.2,1.8-0.4,3.6-0.8,5.4c-0.3,1.5-0.9,3-1.4,4.5c-0.7-0.9-1.3-1.7-1.9-2.3
			c-3.1-3.2-5.6-6.8-7.2-10.9c-0.4-0.9-0.5-1.9-1-2.7c-1.2-2.1-2.1-4.3-1.9-6.7c0.2-1.4,0.7-2.7,0.2-4.1c-0.4-1.1-0.7-2.2-1.2-3.2
			c-0.3-0.7-0.7-1.4-1.2-1.8c-0.8-0.6-1.9-1.5-2.6-1.3c-1.1,0.2-2.7,0.6-2.5,2.5c0,0.4-0.2,0.8-0.2,1.2c-0.3,2.3-0.3,4.5,1,6.5
			c0.5,0.7,0.8,1.5,1,2.3c1.2,4.2,2.3,8.4,3.5,12.9c-0.6,0-1.4,0.2-2,0c-1.2-0.4-2.2-1.2-3.3-1.7c-2-1-4.1-2.1-6.1-3.1
			c-1.1-0.6-2.2-1.2-3.3-1.6c-0.8-0.3-1.6-0.3-2.5-0.4c-0.5-0.1-1,0-1.5,0c-2.9,0-5.8-0.7-8.5,1c-0.3,0.2-0.9,0.3-1.3,0.2
			c-3.4-1.2-5.4,0.9-7.2,3.1c-0.3,0.4-0.5,1.2-0.3,1.8c0.5,2,3.6,3.1,5.7,2c0.9-0.5,1.8-0.9,2.9-0.6c0.7,0.2,1.7,0.1,2.3-0.4
			c2.2-1.6,4.7-1.2,7-0.6c3.2,0.8,6.3,2,9.4,3.2c1.3,0.5,2.6,1.2,3.6,2.1c1.4,1.5,3.2,2.1,4.9,2.6c4.3,1.3,7.6,3.8,10.3,7.3
			c1.4,1.8,1.7,3.7,1.3,5.8c-0.4,2.3-1,4.5-1.5,6.7c-0.7,3.2-1.4,6.4-2.2,9.5c-0.4,1.7-0.9,3.4-1.4,5c-0.3,0.9-0.8,1.7-1.2,2.6
			c-2.6,0.2-5.3,0.6-8.1,0.6c-2.2,0-4.4-0.4-6.5-0.4c-1.9,0-4.1-0.2-5.8,0.6c-3.4,1.7-7.1,2.1-10.6,3.2c-0.6,0.2-1.3,0.1-2,0
			c-3.2-0.4-6.3-1-9.5-1.4c-4.4-0.5-8.6,0.1-11.8,3.7c0.3,0.2,0.8,0.2,0.8,0.4c0.6,2,1.4,0.9,2.6,0.4c1.5-0.7,3.5-1.3,5-1.1
			c2.2,0.4,4.3,0.4,6.5,0.3c2.7-0.1,5.5,0.5,8.2,0.9c0.3,0,0.7,0.1,1,0c1-0.2,2-0.5,3-0.8c1.7-0.7,3.4-1.5,5.2-2.2
			c1.3-0.5,2.6-1,3.9-1.3c1-0.2,2-0.1,3-0.1c1.5,0,3-0.2,4.5-0.1c1.9,0.1,3.8,0.5,5.7,0.6c2.9,0.3,5.8,0,8.5,1.5
			c0.6,0.3,1.5,0.1,2.3,0.1c1.5,0.1,3,0.2,4.5,0.3c1.4,0.1,2.8,0.4,4.3,0.6c0.9,0.1,1.7,0.1,2.6,0.1c0.7,0,1.3-0.2,2-0.4
			c1.5-0.5,3-1.7,4.6-0.3c0.2,0.2,0.9-0.2,1.3-0.3c1.4-0.4,2.8-0.9,4.2-1.1c1.6-0.2,3.2,0.3,4.8,0.1c2-0.2,4-0.7,6-1.2
			c0.5-0.1,1-0.8,1.5-0.8c4.6-0.7,9.2-0.8,13.8-0.4c1.5,0.2,3.1,0.3,4.6,0.5c3.6,0.5,7.2,1.1,10.8,1.6c2.8,0.4,5.7,0.5,8.5,1
			c4,0.8,7.9,1.9,11.9,2.9c2.4,0.6,4.8,1.3,7.4,1c1.7-0.2,3.4-0.4,5.1-0.6c0.6,0,1.4-0.1,1.7,0.2c0.8,0.7,1.5,0.4,2.3,0.2
			c1.1-0.3,2.3-0.6,3.5-0.6c2,0.1,4,0.6,6,0.8c0.5,0.1,1.2-0.2,1.7-0.5c1.9-1.1,4.2-1,5.9,0.5c0.2,0.2,0.5,0.3,0.8,0.3
			c1.3-0.1,2.6-0.2,3.9-0.3c2.6-0.3,5.2-1.1,7.7-0.9c2.4,0.2,4.5-1,6.8-0.9c0.7,0,1.5-0.2,2.2-0.5c3.3-1.4,6.7-1.1,10.2-0.8
			c2.1,0.2,4.2,0.7,6.3,0.9c1.4,0.1,2.8,0,4.2-0.1c2.2-0.1,4.4-0.2,6.5-0.4c0.5,0,1-0.2,1.5-0.3c1.9-0.1,3.8,0,5.6-0.2
			c3.2-0.5,6.2-0.2,9.3,0.9c1.5,0.6,3.1,0.8,4.6,1.1c0.2,0,0.7-0.1,0.8-0.2c0.8-1.6,2.1-1.3,3.4-1c0.7,0.2,1.6-0.1,2.4-0.2
			c0.6,0,1.3-0.3,1.7-0.1c3.3,1.7,6.7,2.2,10.4,1.1c0.3-0.1,0.6,0,0.9,0c1.9,0.5,3.7,1,5.6,1.4c0.4,0.1,1.2,0.1,1.3-0.1
			C496.4,489.1,496.3,488.4,496.2,488 M305.6,451.5c0.3,0.6,0.7,1.2,1.2,2.1c-1,2.2-2.5,2.8-4.2,1.3
			C303.6,453.7,303.5,451.8,305.6,451.5 M316.8,404.1c0.4,2.5-2.4,4.1-4.7,3.1C313.8,406,315.3,405,316.8,404.1 M312,419.7
			c1.5,0,2.9,1.1,2.6,2.1c-0.2,0.6-1.3,0.9-2,1.3c-0.6,0.3-1.2,0.5-1.9,0.7C309.5,421.8,313,421.6,312,419.7 M306.9,438.8
			c1.1-0.6,2.3-0.9,3.4-1.3c0.9,2.4,0.1,3.6-2.2,3.9c-1,0.1-1.3-0.3-1.4-1.1C306.6,439.9,306.6,438.9,306.9,438.8 M314.7,384
			c0.4-0.4,1.1-0.5,1.7-0.8c0.5,3.8-0.5,5.9-2.4,5.6c-0.2-0.8-0.2-1.3-0.4-1.9C313.3,385.7,313.8,384.8,314.7,384 M293.3,374.8
			c0.1-0.1,0.3-0.2,0.4-0.3c-0.1-1-0.2-2.1-0.1-3.1c0.1-0.6,0.6-1.1,1-1.7c0.6,0.5,1.7,0.9,1.8,1.5c0.3,1.3,0.3,2.6,0.1,3.9
			c-0.1,0.6-0.9,1.1-1.4,1.6C294.5,376,293.9,375.4,293.3,374.8 M268.9,373c-0.6-0.9-1.1-1.9-1.6-2.9c0.3-0.4,0.5-0.8,0.8-1.2
			c0.7-0.9,2.5-0.8,2.8,0.2c0.3,1.3,0.4,2.7,0.1,4C270.9,374,269.5,373.9,268.9,373 M255.6,395.3c-0.2,0-0.4,0.1-0.5,0.1
			c-1.6-1-3.2-1.9-4.7-2.9c0.2-1.1,0.8-1.5,1.9-1.5c1.6,0,2.9,0.5,3.4,2.1C255.8,393.8,255.6,394.6,255.6,395.3 M267.5,416.7
			c0.1-0.5,0.4-0.9,0.6-1.4c0.4,0.3,0.8,0.5,1.1,0.9c0.4,0.5,0.5,1.1,0.8,1.6c0.7,1,0.5,1.8-0.5,2.3c-0.7-0.4-1.4-0.8-2.1-1.2
			C267.5,418.2,267.4,417.5,267.5,416.7 M237.3,435.3c1.2-0.6,2.1-1.2,3.1-1.7c0.1,0.2,0.1,0.4,0.2,0.6
			C239.6,434.7,239.2,436.3,237.3,435.3 M445.7,445.3c-0.1,1,0,2,0,3.5c-1.4-1.3-2.4-2.3-3.4-3.3c-0.5-0.5-1-1.1-1.5-1.6
			c0.1-0.1,0.2-0.2,0.4-0.4c1-0.1,1.9-0.2,2.9-0.2C445.5,443.3,445.8,443.7,445.7,445.3 M441.8,437.3c1,0.4,1.8,1.4,2.6,2.2
			c-0.1,0.2-0.2,0.3-0.3,0.5c-1.3-0.1-2.6-0.3-4.4-0.4C440.6,438.6,441.6,437.2,441.8,437.3 M376.6,418.4c0.5,0,1.1,0.4,1.5,0.8
			c0.7,0.6,1.2,0.9,2.1,0.2c0.3-0.3,1.1,0.1,1.6,0c2.4-0.8,4.5,0.7,6.8,0.9c2.6,0.2,5.1,0.9,7.9,0.3c1.8-0.4,4-0.7,5.7,1.1
			c0.6,0.6,1.6,0.8,2.5,1c3.6,0.8,7.2,1.7,10.8,2.4c1,0.2,2.2-0.3,3.2-0.1c0.9,0.1,1.9,0.5,2.4,1.2c1,1.2,2.1,1.4,3.4,0.7
			c1-0.5,1.7-0.5,2.6,0.1c0.7,0.4,1.8,0.2,2.5,0.7c1.7,1.1,3.5,2.2,4.7,3.7c1.3,1.7,2.9,3,4.6,4.2c0.7,0.5,0.8,0.8,0.5,1.6
			c-1,2.3-1.7,2.7-4.5,2.4c-1.6-0.2-3.2-0.2-4.8-0.3c-2.1-0.1-4.2-0.3-6.3-0.3c-1.1,0-2.3,0.3-3.4,0.3c-1.9,0-3.8-0.2-5.7-0.3
			c-2.8,0-5.6,0-8.4,0c-2.5,0-5,0.1-7.5-0.1c-0.8,0-1.7-0.6-2.5-0.9c-2-0.9-4-1.8-6-2.6c-1.8-0.7-3.8-1.2-5.6-1.9
			c-0.6-0.2-1.3-0.6-1.6-1.1c-2.6-5.2-7.4-8.4-11.1-12.5c-0.1-0.1-0.2-0.2-0.3-0.3C373.4,418.9,374.9,418.6,376.6,418.4
			 M383.7,438.3c-0.4,0.2-0.9,0.6-1.4,0.7c-1.2,0.2-2.4,0.3-3.5,0.5c-0.1-0.1-0.2-0.2-0.2-0.3c0.8-0.9,1.6-1.9,2.4-2.7
			c0.2-0.2,1-0.3,1.2-0.1C382.8,437,383.2,437.7,383.7,438.3 M324.8,447.1c0.3-1.3,0.6-2.6,0.8-4c0.2-1.1,0-2.3,0.4-3.3
			c0.5-1,1.5-1.8,2.2-2.7c0.7-0.9,1.1-1.9,1.8-2.9c0.8-1.2,1.7-2.4,2.5-3.5c0.4-0.6,1.1-1.1,1.4-1.7c0.8-2.4,2.8-3.5,4.6-4.8
			c2.8-1.9,5.7-3.6,8.8-5.4c0.4,1.3,0.9,1.4,1.9,0.7c0.6-0.4,1.6-0.6,2.4-0.5c1.6,0.2,3-0.3,4.3-1c2-1,3.9-0.7,5.8,0.2
			c1.5,0.7,3.1,1.4,4.2,2.9c0.3,0.5,1.1,0.8,1.6,0.9c3.2,0.4,5,2.8,7,5c0.9,0.9,2,1.6,2.8,2.5c1,1.1,1.8,2.4,2.6,3.6
			c0.2,0.4,0.4,0.8,0.6,1.3c-1.5,1.9-3,3.8-4.4,5.5c-2.9,1-5.8,2-8.7,3c-3.3,1.2-6.7,2.1-9.9,3.5c-3.4,1.4-7,1.9-10.5,2.8
			c-1.9,0.5-3.7,1.5-5.6,2.2c-1.7,0.7-3.4,1.6-5.2,2c-0.9,0.2-2-0.3-2.9-0.6c-0.7-0.2-1.3-0.9-2-1.1c-1.3-0.4-2.7-0.7-3.6-1.9
			c-0.3-0.4-0.9-0.5-1.3-0.7c-0.8-0.5-1.6-1-2.3-1.5C324.4,447.4,324.6,447.2,324.8,447.1 M325,452.6c0.2-0.1,0.4-0.2,0.6-0.3
			c1.6,0.8,3.2,1.6,4.8,2.3c0,0.2-0.1,0.3-0.1,0.5c-1.2,0.4-2.3,0.7-3.5,1.1c-0.2,0-0.5-0.1-0.5-0.2
			C325.8,454.9,325.4,453.8,325,452.6 M326.7,460.2c0.2-0.5,1.2-0.7,1.8-0.9c1.2-0.4,2.4-0.7,3.7-1c0.1,0.2,0.1,0.3,0.2,0.5
			c-1.8,2.1-3.5,4.2-5.2,6.2C325.1,463.3,326.2,461.7,326.7,460.2 M384.3,485.3c-2.5,0.5-5.1,1-7.6,1.5c-0.1-0.1-0.1-0.3-0.2-0.4
			c2.7-2.1,5.4-4.2,8.4-6.5C384.7,481.8,384.5,483.5,384.3,485.3 M385,463.7c-0.1,2.6-0.1,5.2-0.1,7.9c0,1.6-0.2,3.2-0.3,4.7
			c-0.8,0.8-1.6,1.6-2.4,2.3c-2.3,2-4.7,3.9-7.1,5.8c0,0-0.1,0-0.1,0.1c-1.8,2.9-4.2,1.2-6.4,0.9c-2.1-0.3-4.2-1-6.2-1.6
			c-2.1-0.6-4.3-1.3-6.4-1.8c-1.5-0.3-3-0.3-4.5-0.5c-3.5-0.4-7.1-0.9-10.6-1.1c-2.6-0.2-5.2,0-7.8-0.1c-1.5-0.1-2.9-0.3-4.4-0.6
			c-0.2,0-0.3-0.8-0.4-1.2c-0.1-0.5,0.1-1.2-0.2-1.5c-1.6-2.2-1.5-4.8-2-7.3c-0.1-0.3,0.3-0.7,0.6-1c2.4-2.5,4.9-4.9,7.2-7.4
			c1-1,1.6-2.5,2.7-3.3c1.3-1,3-1.5,4.5-2.2c2.5-1,5-2.1,7.5-3c1.6-0.6,3.2-1.1,4.8-1.5c2.5-0.6,5-1,7.5-1.6
			c0.5-0.1,0.9-0.6,1.5-0.8c2-0.8,4-1.6,6.1-2.2c2.8-0.8,5.6-1.4,8.2-2c0.7,0.5,1.3,0.9,2,1.4c1.1,0.7,2.2,1.4,3.2,2.1
			c1,0.7,2.1,1.4,3,2.2c0.5,0.5,0.9,1.4,0.9,2C385.6,456.1,385.2,459.9,385,463.7 M380.2,443.5c1.4-0.6,2.7-1.2,4.1-1.6
			c0.4-0.1,1.3,0.5,1.4,0.9c0.3,1.5,0.4,3,0.6,5C383.7,446.6,381.3,446.1,380.2,443.5 M386.7,435.1c2.1,0.9,4.2,1.7,6.4,2.6
			c0,0.2-0.1,0.3-0.1,0.5c-1.2-0.1-2.6,0.1-3.7-0.4C388.2,437.4,387.5,436.3,386.7,435.1 M388.4,442.6c0.9-1.8,1.1-2.1,3.2-1.7
			c0.7,0.2,1.5,0.2,2.2,0.3c0.1,0.1,0.2,0.3,0.3,0.4c-1.9,1.9-3.9,3.7-5.8,5.6C388,445.8,387.6,444.3,388.4,442.6 M388.1,485.6
			c0.4-1.1,0.9-2.1,1.4-3.2c1.1,1.3,2.2,2.7,3,3.6C391.4,485.4,389.4,487.2,388.1,485.6 M442.2,481.6c0,0.3-0.6,0.8-0.9,0.8
			c-1.2,0.1-2.5,0-3.8,0c-0.1-0.2-0.3-0.5-0.4-0.7c1.7-1.6,3.5-3.2,5.4-5C442.4,478.6,442.4,480.1,442.2,481.6 M446,453.4
			c-0.4,3.8-0.8,7.7-1.3,11.5c-0.3,2.3-1,4.6-1.5,7c-0.1,0.4-0.1,0.7-0.1,0.7c-1,1-1.8,1.6-2.5,2.4c-2.1,2.3-4.2,4.6-6.3,6.9
			c-0.3,0.3-0.9,0.5-1.3,0.5c-1.3,0-2.5-0.1-3.8-0.2c-5.4-0.5-10.5,0.8-15.7,2.1c-0.1,0-0.3,0.1-0.4,0.2c-1.6,0.2-3.2,0.4-4.9,0.6
			c-3.3,0.5-6.6,1.1-9.9,1.4c-0.7,0.1-1.5-0.6-2.2-1c-0.5-0.3-1-0.9-1.5-1.1c-2.5-1.2-3.2-4-4.7-6c-0.8-1.1-0.8-3-0.7-4.6
			c0.1-3.9,0.5-7.7-0.5-11.5c-0.1-0.3,0-0.7,0-1c0.1-1.8,0.4-3.6,0.4-5.4c0-1.1-0.2-2.2-0.3-3.3c-0.2-1.8,1.1-3.7,2.5-4.8
			c1.6-1.3,2.9-2.9,4.3-4.5c0.5-0.6,2.8-1.9,3.7-1.9c0.8,0,1.7-0.2,2.5-0.3c0.7,0,1.5,0,2.2,0.1c0.2,0,0.4,0.3,0.5,0.2
			c1.8-1,3.4,0.3,5.1,0.3c2,0,4,0.3,6,0.4c1.8,0,3.6-0.1,5.4-0.2c0.7,0,1.4,0,2.1,0c2,0.2,3.9,0.6,5.9,0.7c2,0.1,4,0,6,0.1
			c1,0,2,0.2,3,0.3c0.2,0,0.5,0.1,0.7,0.3c1.8,2.2,3.6,4.3,5.4,6.5c0.6,0.8,1.2,1.7,1.7,2.6C445.9,452.7,446,453.1,446,453.4"/>
		<path style="clip-path:url(#SVGID_00000040564130385661341320000010220119565173404800_);fill:#1D1D1B;" d="M421.8,448.8
			c-0.5-0.9-3.6-1.7-4.6-1.2c-1.1,0.5-1.5,2.3-1,3.8c0.3,0.7,0.4,1.5,0.2,2.2c-0.4,1.7-0.9,3.3-1.5,5c1.2-0.2,2.3-0.4,3.4-0.5
			c0.7-0.1,1.4,0.1,2.1,0.1c1.2-0.1,1.4-0.6,0.8-1.7c-0.6-1.1-1.1-2.3-1.6-3.4C421.2,452.2,422.4,449.7,421.8,448.8"/>
	</g>
</g>
<rect class="st14" width="500" height="500"/>
</svg>
