<?xml version="1.0" encoding="utf-8"?>
<!-- Generator: Adobe Illustrator 26.3.1, SVG Export Plug-In . SVG Version: 6.00 Build 0)  -->
<svg version="1.1" id="Layer_2" xmlns="http://www.w3.org/2000/svg" xmlns:xlink="http://www.w3.org/1999/xlink" x="0px" y="0px"
	 viewBox="0 0 500 500" style="enable-background:new 0 0 500 500;" xml:space="preserve">
<style type="text/css">
	.st0{clip-path:url(#SVGID_00000039118779323946958620000012932659930156457856_);fill:#FFD400;}
	.st1{clip-path:url(#SVGID_00000039118779323946958620000012932659930156457856_);fill:#C69616;}
	.st2{clip-path:url(#SVGID_00000039118779323946958620000012932659930156457856_);fill:#FFFAC2;}
	.st3{clip-path:url(#SVGID_00000039118779323946958620000012932659930156457856_);}
	.st4{clip-path:url(#SVGID_00000067929179186384049980000004037342191382515366_);fill:#ED1941;}
	.st5{clip-path:url(#SVGID_00000039118779323946958620000012932659930156457856_);fill:#A5A216;}
	.st6{clip-path:url(#SVGID_00000039118779323946958620000012932659930156457856_);fill:#FFCE7B;}
	.st7{clip-path:url(#SVGID_00000039118779323946958620000012932659930156457856_);fill:#8C8F8B;}
	.st8{clip-path:url(#SVGID_00000039118779323946958620000012932659930156457856_);fill:#F5A4C7;}
	.st9{clip-path:url(#SVGID_00000092435753606370330230000016283473387199022487_);fill:#00A4E0;}
	.st10{clip-path:url(#SVGID_00000039118779323946958620000012932659930156457856_);fill:#F0CC9E;}
	.st11{clip-path:url(#SVGID_00000057129456599662569400000003437569194789201076_);}
	.st12{clip-path:url(#SVGID_00000115483326890454041850000012819164296872325281_);}
	.st13{filter:url(#Adobe_OpacityMaskFilter);}
	
		.st14{clip-path:url(#SVGID_00000142894112596489674200000004942982580569789610_);fill:url(#SVGID_00000055688975428849849910000013616209376569890723_);}
	
		.st15{clip-path:url(#SVGID_00000142894112596489674200000004942982580569789610_);mask:url(#SVGID_00000137110311652920381990000015898908471225711013_);fill:url(#SVGID_00000067230557186832097320000014688408010806047136_);}
	.st16{clip-path:url(#SVGID_00000181803000805545002260000001904010423746290316_);}
	.st17{filter:url(#Adobe_OpacityMaskFilter_00000039829082062426651730000017819888078386897317_);}
	
		.st18{clip-path:url(#SVGID_00000049906510948401751420000006692117007416043650_);fill:url(#SVGID_00000025404954547795847170000014205657892374903471_);}
	
		.st19{clip-path:url(#SVGID_00000049906510948401751420000006692117007416043650_);mask:url(#SVGID_00000009563092503229215240000005898790772566845372_);fill:url(#SVGID_00000070802878731949014570000015140061101369593785_);}
	.st20{clip-path:url(#SVGID_00000039118779323946958620000012932659930156457856_);fill:#CED8DD;}
	.st21{clip-path:url(#SVGID_00000023985923104035159250000001961531904081207197_);fill:#FFFFFF;}
	.st22{clip-path:url(#SVGID_00000023985923104035159250000001961531904081207197_);}
	.st23{clip-path:url(#SVGID_00000023985923104035159250000001961531904081207197_);fill:#ED1941;}
</style>
<g>
	<defs>
		<rect id="SVGID_1_" width="500" height="500"/>
	</defs>
	<clipPath id="SVGID_00000072993780295353935250000006570154186148674490_">
		<use xlink:href="#SVGID_1_"  style="overflow:visible;"/>
	</clipPath>
	<polygon style="clip-path:url(#SVGID_00000072993780295353935250000006570154186148674490_);fill:#FFD400;" points="185.1,242.8 
		191.4,232.5 202.1,228.2 216.3,229.7 225,234.1 234.4,227.4 245.5,225.8 265.2,229.3 275.1,238 279,253 281,266 277.8,288.1 
		272.3,292.5 245.9,295.6 215.1,296.4 198.9,293.2 185.9,290.5 182,284.6 187.5,266.4 192.2,261.3 186.7,253 	"/>
	<polygon style="clip-path:url(#SVGID_00000072993780295353935250000006570154186148674490_);fill:#C69616;" points="168.6,184.1 
		169.8,163.2 175.3,149 187.9,139.5 202.9,134 210.4,133.2 220.6,139.2 226.2,139.5 231.7,134 241.1,133.2 248.6,129.7 257.7,131.3 
		266,134.4 277.4,139.5 284.5,149.8 287.7,160.8 287.3,178.2 296,181 305.8,177.4 311.7,171.5 305,153.3 297.9,149.4 290.1,134.4 
		278.2,126.5 262,120.6 239.6,115.5 222.6,117.5 208.8,119.8 187.5,122.2 172.1,130.9 160.7,143.9 152.8,162 145.7,171.1 
		145.3,180.6 151.2,191.6 162.7,193.2 167.8,188.8 	"/>
	<polygon style="clip-path:url(#SVGID_00000072993780295353935250000006570154186148674490_);fill:#FFFAC2;" points="294.4,247.5 
		312.5,247.1 325.5,247.1 346.5,251.4 366.6,257 383.1,264.8 396.9,274.3 404.8,290.5 405.2,298.4 402.9,316.9 390.2,328.3 
		374.5,338.2 351.6,345.3 348.8,353.2 340.5,367.4 325.9,378 311.7,383.2 288.5,387.5 264,389.5 245.9,391.1 226.6,389.1 208,388.3 
		192.2,387.1 171.7,384.4 152,382 133.1,377.3 116.1,369 106.3,357.1 99.9,346.5 83.8,341.4 72.3,336.6 57.7,326.4 48.3,314.1 
		46.7,298 49.9,281.8 57.4,270 70,259.7 87.7,253 105.5,249.1 116.9,246.7 137.4,248.3 135.8,259.3 135.4,271.9 126,272.3 
		115.7,273.9 101.9,277.9 88.5,286.5 85,293.6 89.7,307.4 100.7,317.7 111.8,324.4 132.3,330.7 149.6,335.1 171.3,339.4 
		184.4,338.2 207.2,341.4 229.3,342.1 247.5,342.1 270.3,340.2 290.4,339.4 312.5,334.7 332.3,328.3 349.2,320.9 360.6,309.8 
		366.6,298 364.2,283.4 349.2,280.6 325.2,276.3 307.8,274.3 292.8,273.5 293.6,262.5 	"/>
	<g style="clip-path:url(#SVGID_00000072993780295353935250000006570154186148674490_);">
		<defs>
			<rect id="SVGID_00000165931904428076131290000000628508582707270541_" y="106.8" width="500" height="322.4"/>
		</defs>
		<clipPath id="SVGID_00000132775277251872080120000008984634015981183621_">
			<use xlink:href="#SVGID_00000165931904428076131290000000628508582707270541_"  style="overflow:visible;"/>
		</clipPath>
		<path style="clip-path:url(#SVGID_00000132775277251872080120000008984634015981183621_);fill:#ED1941;" d="M305,251.1
			c4.8-0.1,9.6-0.1,14.4-0.2c0.1,0,0.3,0,0.4,0c4.2,2,8.8,1.2,13.1,2.1c2.7,0.5,5.6,0.4,8.2,1.1c4,1,8.1,1.3,11.9,3.2
			c2.6,1.3,5.6,1.7,8.3,2.7c4,1.5,8,3.1,11.8,5.1c3.7,1.9,7.4,4,10.7,6.7c3.6,2.9,7,6.3,10,9.9c2.6,3.1,3.8,7.1,4.1,11
			c0.2,2.9-0.7,6-1.2,8.9c-0.9,5.2-3.5,9.8-6.2,14.2c-1.4,2.3-3.5,4.3-5.5,6.3c-4.4,4.3-9.7,7-15.5,9.1c-4.7,1.7-9.1,4.1-13.7,6
			c-2.7,1.1-5.6,1.6-8.4,2.5c-1.1,0.3-2.2,0.7-3.3,1c-2.7,0.7-5.3,1.5-8,2.2c-2.5,0.6-5,1.2-7.5,1.8c-4.1,0.9-8.3,1.7-12.4,2.6
			c-2.9,0.6-5.8,1.4-8.7,2c-0.6,0.1-1.2,0.3-1.9,0.3c-4.8,0.3-9.6,0.5-14.4,0.8c-5.6,0.4-11.2,1-16.8,1.5c-4,0.3-8,0.4-12,0.7
			c-5.6,0.3-11.1,0.7-16.7,0.9c-1.6,0.1-3.3-0.4-4.9-0.4c-2.5,0-5,0.1-7.6,0.2c-2.6,0.1-5.1,0.4-7.7,0.3c-7.5-0.3-14.9-0.7-22.4-1
			c-5.5-0.2-11-0.1-16.5-0.3c-2-0.1-4-0.8-6.1-1.1c-1.2-0.2-2.4-0.4-3.6-0.5c-5.5-0.4-11.1-0.5-16.6-1.1c-2.5-0.3-4.9-1.4-7.4-2
			c-1.7-0.4-3.5-0.4-5.2-0.7c-5-0.8-9.9-1.7-14.9-2.4c-3.3-0.4-6.6-0.4-9.9-0.8c-3-0.3-6-0.7-9-1.1c-0.8-0.1-1.5-0.9-2.3-1.1
			c-1.9-0.5-3.8-0.7-5.6-1.2c-4.1-1.1-8.2-2.1-12.2-3.4c-3.1-1-6-2.5-9-3.8c-2-0.9-4-1.7-5.9-2.6c-2.6-1.3-5.5-2.3-7.7-4.1
			c-3.5-3-7.4-5.8-8.8-10.6c-0.1-0.3-0.3-0.5-0.4-0.8c-1.5-3.4-3-6.9-4.4-10.3c-0.7-1.6-1.2-3.3-1.6-5c-0.8-3.9,0.3-7.6,1.4-11.3
			c2.7-8.5,8-14.9,14.5-20.9c3.7-3.4,7.8-5.6,12.2-7.1c6.6-2.3,13.6-3.5,20.4-5.1c2.2-0.5,4.4-1.3,6.7-1.6c4-0.6,8.1-1,12.2-1.4
			c3.5-0.3,7-0.4,10.5-0.6c1.3-0.1,2.6,0.3,2.4,1.8c-0.1,0.7-1.5,1.6-2.3,1.7c-5.4,0.5-10.9,0.6-16.4,1.1c-3.2,0.3-6.3,1-9.4,1.8
			c-5.8,1.4-11.6,2.9-17.4,4.5c-4,1.1-8.1,2.3-11.5,4.8c-3.9,2.9-7.6,5.9-10.7,9.8c-3.2,4-5.9,8.2-7.2,13c-1.3,4.8-2.5,9.7,0.7,14.6
			c1.8,2.7,3.2,5.9,3.9,9.4c0.5,2.6,2.9,5.1,5,7.1c4.5,4.4,9.9,7.1,16,8.8c6.6,1.8,13,4.6,19.7,5.9c5.7,1.1,10.9,3.8,17.1,3.8
			c6.4,0,12.9,1.6,19.3,2.4c5.5,0.7,11,1.4,16.5,2.2c3.3,0.5,6.6,1.2,9.9,1.7c1,0.2,2.1-0.2,3.2-0.1c3.9,0.6,7.7,1.3,11.6,1.9
			c2.3,0.3,4.6,0.6,6.9,0.7c5,0.2,10,0.2,15,0.4c11.3,0.3,22.5,0.6,33.8,0.7c3.1,0,6.2-0.5,9.3-0.7c0.9-0.1,1.9-0.2,2.8-0.3
			c4.1-0.3,8.2-0.6,12.3-0.9c1.7-0.1,3.4,0.1,5,0c2.9-0.3,5.7-0.9,8.5-1c4-0.2,8-0.3,12-0.2c5.5,0.1,11-0.7,16.4-1.6
			c4.1-0.7,8.3-1.3,12.4-2.2c4.8-1,9.6-2.3,14.3-3.6c3.6-0.9,7.1-2,10.7-3c0.5-0.1,1.1-0.1,1.7-0.3c1.9-0.4,3.9-0.6,5.7-1.4
			c7.1-2.9,14.2-5.8,21.2-8.9c1.9-0.8,3.5-2.2,5.2-3.4c1.7-1.1,3.7-2.1,5-3.5c1.8-1.9,3.5-4.2,4.8-6.5c1.7-3,3.2-6.1,4.5-9.2
			c1.7-4.3,3-8.9,1.2-13.5c-1.9-4.8-4.6-9.2-8.9-12.4c-5.2-3.9-10.6-7.6-16.6-10c-4-1.7-8.1-3.1-12.2-4.6c-2.6-0.9-5.3-1.8-8-2.4
			c-4.4-1-8.8-1.8-13.2-2.5c-4.9-0.7-9.8-1.5-14.7-1.8c-4.9-0.3-9.8,0-14.7,0.1c-2.2,0-4.4,0.3-6.6,0.4c-1.4,0-1.5-0.8-0.9-1.9
			C299.1,251,299.1,251,305,251.1"/>
		<path style="clip-path:url(#SVGID_00000132775277251872080120000008984634015981183621_);fill:#ED1941;" d="M235.1,244.7
			c1-0.4,2-0.9,3-1.2c2-0.6,3,0.3,3,2.4c0,0.6,0.2,1.4,0.7,1.7c1.5,1.1,1.9,2.3,0.9,3.8c-0.4,0.5-0.8,1-1.2,1.5
			c-0.4,0.5-0.9,1-1.3,1.6c1.1,0.3,2.2,0.8,3.4,1c0.3,0.1,0.8-0.5,1.1-0.5c1,0,2.3-0.1,3,0.5c0.5,0.4,0.4,1.8,0.4,2.7
			c0,0.7-0.2,1.4-0.1,2.1c0.6,2.9,0.2,4.5-2.4,5.7c-1.3,0.6-3.3-0.2-5-0.3c0-0.2,0-0.4,0-0.6c-0.3,0.3-0.6,0.6-1,0.8
			c-0.9,0.4-1.8,0.8-2.7,1.2c-0.4-1.2-1.3-2.6-1-3.5c1-2.1,0.9-4.2,1.1-6.4c0.1-1.2,0.8-2.4,1.4-3.7c-0.2-0.2-0.7-0.6-1-0.8
			c-0.8,0.6-1.5,1.3-2.3,1.7c-0.8,0.3-1.9,0.6-2.5,0.3c-0.5-0.4-1-1.8-0.7-2.4c0.7-1.3,0.2-1.9-0.6-2.9c-0.9-1.2-1.6-2.9-1.7-4.4
			c0-0.7,1.5-1.9,2.5-2.1c0.9-0.2,2,0.8,3,1.2C235.1,244.3,235.1,244.5,235.1,244.7"/>
		<path style="clip-path:url(#SVGID_00000132775277251872080120000008984634015981183621_);fill:#ED1941;" d="M216.3,259.9
			c-0.4,0.3-0.9,0.6-1.3,0.8c-1.5,0.9-3.1,1.4-4.5-0.1c-1.5-1.8-1.5-4.1-0.1-5.6c0.4-0.4,0.8-1,1.3-1.1c2.4-0.8,2.4-2.5,1.9-4.5
			c-0.4-1.6-0.4-3.1,1.6-3.5c1.7-0.4,3.4-0.4,4.4,1.4c0.3,0.6,0.7,1.2,1,1.8c4.1-2.5,4.1-2.5,7-1.7c-0.3,1.1-0.6,2.3-1.1,3.4
			c-0.6,1.4-0.6,2.5,0.5,3.7c1.3,1.4,1.3,2.9,0.1,4.3c-0.5,0.5-1.3,0.8-2,0.9c-1.3,0.1-2.7-0.5-2.9,1.8c-0.1,1.4-3,1.4-4.4,0.1
			C217.2,261,216.8,260.5,216.3,259.9"/>
		<path style="clip-path:url(#SVGID_00000132775277251872080120000008984634015981183621_);fill:#ED1941;" d="M229,278.6
			c-1.6,1.2-3.1,2.4-4.7,3.3c-0.7,0.4-2,0.5-2.7,0.1c-0.6-0.4-1-1.6-0.9-2.4c0.1-1.2,0.3-1.7-1.3-1.7c-1.4,0-1.8-2.4-0.6-4.1
			c0.3-0.4,0.7-0.7,1.1-1c-1.9-2.4-2.2-4.3-0.8-5.6c1.9-1.7,3.4-0.7,4.5,0.8c1.7-1.4,3.2-2.8,4.8-4c0.6-0.4,2-0.8,2.2-0.6
			c0.6,0.8,1.4,2.2,1.1,2.8c-2,3.1,0.4,5.2,1.5,7.6c1.1,2.4,0.1,4.8-2.3,5.4C230.3,279.5,229.5,278.9,229,278.6"/>
		<path style="clip-path:url(#SVGID_00000132775277251872080120000008984634015981183621_);fill:#ED1941;" d="M247.2,227
			c2.1,1.4,2.7,3.1,1.4,5.3c0.8,0.4,1.4,0.7,2,1.1c2.1,1.6,2.3,3.1,0.1,4.5c-1.7,1.1-3,2-3.4,4.2c-0.2,1.4-2.8,2-4.1,0.8
			c-1.7-1.4-3.1-1.4-4.9-0.4c-0.7,0.4-2.3,0.2-2.6-0.2c-0.5-0.9-0.6-2.3-0.3-3.2c0.5-1.3,1.7-2.4,2.5-3.6c-0.3-1.4-0.7-2.9-0.8-4.4
			c-0.1-2,0.9-2.6,2.7-1.8c1.5,0.6,2.4,0.6,3.7-0.8C244.2,227.6,245.9,227.5,247.2,227"/>
		<path style="clip-path:url(#SVGID_00000132775277251872080120000008984634015981183621_);fill:#ED1941;" d="M249.7,273.1
			c0.2,0.1,0.4,0.2,0.5,0.2c1.5,0.1,3.2-0.1,3.7,1.8c0.5,1.9-0.9,3-2.1,4.2c-1,1-1.8,2.3-2.4,3.6c-0.7,1.5-2.8,2-4.1,0.8
			c-0.5-0.5-0.8-1.2-1.4-1.6c-0.5-0.3-1.5-0.6-1.7-0.4c-1.3,1.4-2.8,1.2-3.7-0.1c-0.6-0.9-0.9-2.5-0.5-3.5c0.5-1.4,0.8-2.4-0.2-3.9
			c-0.6-0.9,0-2.9,0.5-4.2c0.2-0.4,2.2,0.1,3.3,0.1c0.9,0,1.9,0.2,2.7-0.1c1.4-0.4,2.9-1.7,4.1-1.4c1.5,0.4,1.4,2.4,1.2,3.9
			C249.6,272.7,249.6,272.8,249.7,273.1"/>
		<path style="clip-path:url(#SVGID_00000132775277251872080120000008984634015981183621_);fill:#ED1941;" d="M268.8,274.1
			c2-1,3.9-2,5.8-3c0,0.3,0,0.7,0,1c0.9,0.6,1.8,1.3,2.7,1.8c1,0.6,1.7,1.3,0.9,2.5c-0.9,1.4-0.6,2.7,0.2,4c1.5,2.5,0.6,4.2-2.3,4.3
			c-0.7,0-1.5,0.1-1.9,0.5c-2.1,1.9-3.1,1.8-4.4-0.8c-0.9,0.7-1.8,1.4-2.7,2.1c-1.8-1.1-2.8-2.3-1.6-4.3c1-1.7-0.4-2.5-1.1-3.5
			c-1.4-2-1.4-3.7-0.1-5.3c1.5-1.7,2.3-1.7,4,0C268.6,273.8,268.8,274.1,268.8,274.1"/>
		<path style="clip-path:url(#SVGID_00000132775277251872080120000008984634015981183621_);fill:#ED1941;" d="M198.2,268.8
			c0.5-1.6,0.4-3.8,1.5-4.8c1.8-1.6,3.1,0.6,4.6,1.7c2-1.6,4.3-3.9,6.7-1.2c0.7,0.8-0.2,3.1-0.4,5.2c1.8,2.5,1.8,5-0.4,6.7
			c-1.7,1.3-2.9,0.2-4.2-0.8c-1.5,1.6-3.1,2.8-5.5,2.5c-1-0.1-1.8-0.4-1.4-1.8c0.1-0.4-0.3-1-0.7-1.5c-0.3-0.4-0.7-0.7-1.1-1
			c-2.1-1.8-1.9-2.9,0.5-4.3c0.3-0.2,0.6-0.3,0.9-0.5C198.7,268.9,198.4,268.8,198.2,268.8"/>
		<path style="clip-path:url(#SVGID_00000132775277251872080120000008984634015981183621_);fill:#ED1941;" d="M258.4,260.6
			c1-0.5,1.7-0.9,2.5-1.3c0.6-0.2,1.2-0.5,1.8-0.5c2.9,0.1,4.7,2.4,7,3.8c1.1,0.7,0,3.4-1.6,4.1c-0.3,0.2-0.6,0.4-1,0.4
			c-2.2,0.4-3.4,1.5-3.6,3.9c-0.1,0.7-1.3,1.9-1.9,1.9c-0.8,0-1.7-1-2.4-1.7c-0.3-0.3-0.4-0.7-0.6-1.1c-1.5,0.2-2.9,0.3-4.4,0.5
			c-1.8-2.2-1.7-2.5,0.8-5.1c-1.7-2.3-3-5-0.5-7.2C255.9,257.2,257.8,258.4,258.4,260.6"/>
		<path style="clip-path:url(#SVGID_00000132775277251872080120000008984634015981183621_);fill:#ED1941;" d="M269.8,247.4
			c0.8-0.8,1.5-1.6,2.2-2.3c1.8-1.6,3.8-1.2,4.2,1.1c0.3,1.6,0.5,2.6,2.2,3.6c1.3,0.8,2.1,2.9,0.8,4.6c-1.6,2.1-3.2,4.2-5,6.1
			c-1.6,1.7-2.2,1.5-3-0.7c-0.7-1.8-1.4-3.2-3.9-2.6c-1,0.3-2.2-1-1.5-2.3c0.8-1.4,0.4-2.5-0.2-3.8c-1.4-2.8-0.4-4.4,2.7-4.1
			C268.7,247.2,269.2,247.3,269.8,247.4"/>
		<path style="clip-path:url(#SVGID_00000132775277251872080120000008984634015981183621_);fill:#ED1941;" d="M267.7,240.3
			c-0.2,0.4-0.3,1-0.6,1.4c-0.6,0.7-1.4,1.8-2,1.7c-1-0.1-2.5-0.8-2.9-1.7c-0.6-1.4-1.3-1.3-2.3-0.9c-1.4,0.5-3,0.8-4-0.6
			c-1-1.4-0.1-2.7,0.7-4.1c0.7-1.1,0.5-2.7,1-3.9c0.5-1.2,1.2-3.3,2-3.4c1.7-0.2,3.6,0.4,4,2.8c2.1-1,3.4-1,5.1,1
			c1.2,1.4,2.7,2.6,3,4.4c0.2,1.2-0.2,2.6-0.8,3.7C270.8,241.1,269.1,240.5,267.7,240.3"/>
		<path style="clip-path:url(#SVGID_00000132775277251872080120000008984634015981183621_);fill:#ED1941;" d="M198.2,251.2
			c-1.4,1.5-2.5,3.3-4.9,1.9c-1.4-0.8-1.8-2.1-1.5-3.4c0.3-1.5,0.9-2.8-0.4-4.3c-0.4-0.5,0.7-2.3,1.2-3.5c0.2-0.4,0.7-0.6,0.9-1
			c0.8-1.6,1.9-3.1,3.8-2.2c1,0.5,1.6,1.9,2.7,3.2c-0.1,0,0.5,0,1-0.2c1.8-0.9,3.1-0.1,4,1.4c1.2,2,0.8,3.5-0.9,4.8
			c-0.4,0.3-0.8,0.8-1,1.4c-0.4,1-0.4,2.7-1.1,3c-0.8,0.4-2.2-0.4-3.3-0.7C198.6,251.5,198.5,251.3,198.2,251.2"/>
		<path style="clip-path:url(#SVGID_00000132775277251872080120000008984634015981183621_);fill:#ED1941;" d="M216.9,293.4
			c-1.3-0.8-2.3-1.5-3.4-2.1c-1.1,2.5-2.5,3.4-4.8,3.1c-0.2-1.1-0.5-2.2-0.8-3.4c-0.5,0-0.9,0-1.3,0.1c-1.4,0.4-2.6,0.4-3.4-1.1
			c-0.9-1.8,0.3-3,1.5-3.8c1.1-0.6,1.2-1.2,1.4-2.3c0.2-1.2,0.6-2.9,1.5-3.2c0.8-0.4,2.2,0.6,3.8,1.2c2.8-1.8,4.4-1.3,4.8,1.6
			c1.3,1,2.4,1.8,3.5,2.7c-0.2,0.1-0.4,0.1-0.7,0.2c-0.1,1.3-0.1,2.6-0.5,3.9C218.2,291.4,217.5,292.4,216.9,293.4"/>
		<path style="clip-path:url(#SVGID_00000132775277251872080120000008984634015981183621_);fill:#ED1941;" d="M236,284.5
			c1.2,0,2.3-0.1,3.3,0.1c1.1,0.3,3.2,5.1,2.8,6.2c-0.8,2.1-3.9,3.6-5.8,3.5c-2.2-0.1-4.4,0.1-6.6-0.2c-1-0.1-2.3-0.8-2.8-1.7
			c-0.8-1.4-1.3-3-1.6-4.6c-0.3-1.5,0.9-2.2,2.4-1.7c0.7,0.2,1.3,0.7,2,1c0.8-1.2,1.4-2.5,2.3-3.7C233.3,281.8,235,281.5,236,284.5"
			/>
		<path style="clip-path:url(#SVGID_00000132775277251872080120000008984634015981183621_);fill:#ED1941;" d="M254.3,286
			c0.5-3.4,2.1-5.6,4.1-5.4c3.1,0.3,1.2,3,2,4.4c3.9,0.7,4,0.8,3.5,2.8c0.8,1.5,2,2.8,1.7,3.3c-0.7,1.3-2,3.1-3.2,3.2
			c-2.5,0.2-5-0.6-7.5-1c-0.9-0.1-2.3,0-2.6-0.6c-0.9-1.6-1.6-3.4-2-5.2c-0.1-0.4,1-1.2,1.8-1.5C252.6,285.8,253.4,286,254.3,286"/>
		<path style="clip-path:url(#SVGID_00000132775277251872080120000008984634015981183621_);fill:#ED1941;" d="M253.1,246
			c1-0.8,1.8-1.6,2.8-2.2c0.8-0.4,2.6-0.9,2.7-0.7c0.6,1,1.2,2.5,0.9,3.5c-0.6,1.7-1.3,2.9-0.2,4.8c1.5,2.7-0.4,5-3.4,5
			c-0.8,0-1.8,0.4-2.5,0.8c-1.5,0.9-2.2,0.2-2.8-1.1c-0.4-1-1.3-2-1.3-3c0-2.1-1.3-3.4-2-5c-0.5-1.4-0.5-3.1,1.3-4.1
			c1.7-1,2.3,0.8,3.6,1C252.5,245.1,252.7,245.6,253.1,246"/>
		<path style="clip-path:url(#SVGID_00000132775277251872080120000008984634015981183621_);fill:#ED1941;" d="M214.3,243.3
			c-2.7-1.3-2.1-3.6-2.4-5.7c-1.4-0.5-3.5,0.4-4.2-2c-0.6-2-0.5-3.2,1.6-3.9c2.1-0.7,4.4-1.1,6.6-1.6c0.2,0,0.5-0.1,0.6,0
			c1.9,1.7,4.9,2.3,5.5,5.4c0.3,1.6-0.1,3.3-1.3,3.5C217.8,239.7,216,241.4,214.3,243.3"/>
		<path style="clip-path:url(#SVGID_00000132775277251872080120000008984634015981183621_);fill:#ED1941;" d="M190.1,282.2
			c1.6,1.8,3.5,1.7,5.5,0.8c0.3-0.1,1,0.2,1.3,0.5c0.8,0.8,1.8,1.6,2.3,2.6c0.5,1,0.9,2.6,0.4,3.3c-0.7,0.9-1,2.6-3.4,2.2
			c-1.7-0.3-3.4-0.3-4.9-1.4c-0.3-0.2-1.1,0.3-1.6,0.4C187.5,287.8,187.6,285,190.1,282.2"/>
		<path style="clip-path:url(#SVGID_00000132775277251872080120000008984634015981183621_);fill:#ED1941;" d="M203.1,257.8
			c0.4,0.3,1,0.6,1.1,0.9c0.2,1,0.5,2,0.3,3c-0.3,1.2-1.3,1-2.3,0.5c-1.1-0.6-2.3-1.1-3.5-1.6c-0.4-0.2-1.3-0.3-1.4-0.2
			c-1,2.4-1.8,0.8-2.6-0.2c-0.2,0.5-0.4,0.9-0.6,1.2c-0.9-2.1-2.1-3.8-0.4-5.4c0.5-0.5,1.5-1.1,1.8-0.9c2,1.3,3.3-0.2,4.5-1.2
			c1.5-1.2,2.9-1.2,3.9,0.2c0.5,0.7-0.1,2.1-0.1,3.2C203.6,257.5,203.3,257.6,203.1,257.8"/>
		<path style="clip-path:url(#SVGID_00000132775277251872080120000008984634015981183621_);fill:#ED1941;" d="M206.3,229.1
			c1.5,2.4,1.5,2.8-0.9,5.1c-1.5,1.4-3.2,0.8-4.8,0c-0.8,0.7-1.6,1.4-2.9,2.5c-0.7-1.3-1.4-2.3-1.7-3.4c-0.3-1.4-0.2-2.7,1.9-2.8
			c2.3-0.1,4.6-0.4,6.8-0.6C205.2,229.8,205.7,229.4,206.3,229.1"/>
		<path style="clip-path:url(#SVGID_00000132775277251872080120000008984634015981183621_);fill:#ED1941;" d="M275.8,261.6
			c4.6,0.6,5.1,2.3,4,5.2c-0.5,1.3-0.3,3,0,4.3c0.3,1.4,0.2,2.1-1.2,2.3c-1.5,0.3-2-0.9-2.4-1.9c-0.2-0.4-0.1-0.9,0-1.3
			c0.2-1.6-0.1-2.9-1.5-4.1c-0.5-0.5-0.6-1.9-0.3-2.7C274.6,262.7,275.4,262,275.8,261.6"/>
		<path style="clip-path:url(#SVGID_00000132775277251872080120000008984634015981183621_);fill:#ED1941;" d="M233.3,229.2
			c0.5,1.8,1.1,3.4,1.4,5c0.2,1.5-1.6,2.9-3.5,2.5c-1.1-0.2-1.6-0.1-1.9,1c-0.4,1.6-1.4,1.6-2.8,0.9c-1.8-0.9-1.7-2.4-1.3-3.9
			c0.4-1.3,1.4-1.8,2.7-1c0.2,0.1,0.8-0.2,1.1-0.5C230.5,232.1,231.8,230.8,233.3,229.2"/>
		<path style="clip-path:url(#SVGID_00000132775277251872080120000008984634015981183621_);fill:#ED1941;" d="M192.9,272.1
			c-0.5,2.2-0.6,3.7-1.2,5.2c-0.2,0.4-1.4,0.8-2,0.7c-1.8-0.3-3.1-2.9-2.4-4.6c0.6-1.4,1.1-2.8,1.8-4.1c0.2-0.5,0.7-1.2,1-1.2
			c0.6,0.1,1.6,0.4,1.8,0.9C192.4,270,192.7,271.4,192.9,272.1"/>
	</g>
	<polygon style="clip-path:url(#SVGID_00000072993780295353935250000006570154186148674490_);fill:#A5A216;" points="294.4,274.3 
		309.8,274.7 336.2,277.1 358.7,283.8 366.2,287.7 365.8,298.4 363,307.4 350,320.1 328.7,330.7 304.2,337 275.1,340.2 240.4,342.5 
		207.2,341 175.3,338.6 161.1,338.2 132.7,330.3 112.2,324.4 93.6,313.4 85,297.6 85.4,290.5 95.6,280.6 113.8,273.9 137,272.3 
		143.3,285 168.2,288.5 183.2,287.7 199.7,294.4 219.8,295.6 254.6,294.8 274.7,291.7 279.4,285 288.5,285.7 	"/>
	<polygon style="clip-path:url(#SVGID_00000072993780295353935250000006570154186148674490_);fill:#FFCE7B;" points="335.4,111 
		366.6,109.8 402.5,110.6 431.6,111 456.5,112.2 474.2,115.8 473.8,143.8 470.7,174.1 469.1,201.3 467.5,214.8 468.3,228.6 
		464.8,263.3 462,288.5 462,308.6 457.3,319.3 429.3,318.5 415.9,320.1 400.5,318.5 404.8,309 404.8,294.8 398.1,276.3 386.3,265.6 
		365.8,257.4 343.7,250.6 331.1,247.1 331.1,224.2 334.2,205.7 333.8,176.1 334.6,146.5 	"/>
	<polygon style="clip-path:url(#SVGID_00000072993780295353935250000006570154186148674490_);fill:#8C8F8B;" points="116.1,368.6 
		139,378.4 169.8,384.7 195,387.1 209.2,388.7 233.3,389.1 249.8,390.7 270.3,389.1 292,387.1 315.7,382 331.9,374.5 352.8,379.6 
		356.3,384 351.2,393.8 330.7,399.3 311.7,400.5 290.1,402.5 269.1,403.3 241.9,402.5 228.1,404.5 212.7,405.3 187.1,404.5 
		172.5,402.5 157.9,402.1 137.4,398.9 122.4,396.2 115.3,392.6 97.2,390.7 88.1,385.9 86.9,379.2 97.2,372.5 	"/>
	<polygon style="clip-path:url(#SVGID_00000072993780295353935250000006570154186148674490_);fill:#F5A4C7;" points="115.8,223 
		129.1,218.9 145.1,218.9 155.2,224.8 159,237.8 164,247 177.3,248.5 185,247.6 192.1,261.2 186.5,268.3 182.1,287.5 167.6,289 
		150.4,286.9 141.3,282.2 135.3,269.2 135.6,259.7 137.4,248.2 113.5,246.4 110.2,241.4 108.1,233.4 	"/>
	<g style="clip-path:url(#SVGID_00000072993780295353935250000006570154186148674490_);">
		<defs>
			<rect id="SVGID_00000154390039766290241670000008875499274323235496_" y="106.8" width="500" height="322.4"/>
		</defs>
		<clipPath id="SVGID_00000084527055562536642980000008812275314142185653_">
			<use xlink:href="#SVGID_00000154390039766290241670000008875499274323235496_"  style="overflow:visible;"/>
		</clipPath>
		<path style="clip-path:url(#SVGID_00000084527055562536642980000008812275314142185653_);fill:#00A4E0;" d="M169,264.6
			c0.2,2.8-4.5,5.4-6.8,4.1c-1.4-0.8-2.2-1.7-2.3-3.2c-0.1-1.5,0.3-3,1.7-3.7c1.2-0.7,2.6-1.2,3.9-1.3
			C167.1,260.3,169.1,262.8,169,264.6"/>
		<path style="clip-path:url(#SVGID_00000084527055562536642980000008812275314142185653_);fill:#00A4E0;" d="M154.1,267.8
			c3.2-0.3,4.3,1.5,4.4,4.1c0.1,2.1-2.3,4-4.6,4c-2.7,0-4.1-1.4-4.1-3.9C149.9,269,151.1,267.8,154.1,267.8"/>
		<path style="clip-path:url(#SVGID_00000084527055562536642980000008812275314142185653_);fill:#00A4E0;" d="M154.3,261.4
			c-2.4-0.1-3-0.5-3.7-2.3c-0.6-1.6,0.3-3.7,1.9-4.4c0.3-0.1,0.7-0.2,1-0.4c1.7-1.2,3-0.9,4.6,0.3c1.1,0.9,1.8,1.9,1.7,3
			c-0.1,1.4-1.2,2.6-2.6,3.2C156.3,261.1,155.3,261.2,154.3,261.4"/>
		<path style="clip-path:url(#SVGID_00000084527055562536642980000008812275314142185653_);fill:#00A4E0;" d="M180.4,259.8
			c0.5,2-1.4,3.6-3.1,4c-1.9,0.5-3.8-0.5-4.8-2.3c-0.3-0.7-1.1-1.3-0.6-2.1c0.6-1,0.9-2.3,2.2-2.8c0.4-0.1,0.8-0.4,1.2-0.5
			c1-0.3,1.8-1.3,3-0.5c1.3,0.9,2.3,2,2.1,3.8C180.3,259.5,180.4,259.6,180.4,259.8"/>
		<path style="clip-path:url(#SVGID_00000084527055562536642980000008812275314142185653_);fill:#00A4E0;" d="M179,270.7
			c0.1,2.9-3.8,5.8-6.2,4.9c-2.2-0.8-2.8-3.1-1.8-5.3c1-2.1,3.1-2.4,4.9-3.1c0.7-0.3,1.9,0.1,2.3,1.1
			C178.6,269.1,178.8,270,179,270.7"/>
		<path style="clip-path:url(#SVGID_00000084527055562536642980000008812275314142185653_);fill:#00A4E0;" d="M160.3,277.9
			c0-2,1.4-3.2,3.5-3.2c0.9,0,2.6,1.6,2.6,2.3c0.1,1.3-2,3.6-3.1,3.7C161.8,280.9,160.3,279.3,160.3,277.9"/>
		<path style="clip-path:url(#SVGID_00000084527055562536642980000008812275314142185653_);fill:#00A4E0;" d="M163.5,252.3
			c0-2,1.4-3.2,3.5-3.2c0.9,0,2.6,1.6,2.6,2.3c0.1,1.3-2,3.6-3.1,3.7C165,255.3,163.5,253.8,163.5,252.3"/>
	</g>
	<polygon style="clip-path:url(#SVGID_00000072993780295353935250000006570154186148674490_);fill:#F0CC9E;" points="222.6,139 
		231.3,132.7 239.6,131.1 247.8,128 256.1,129.6 262.4,132.7 269.9,134.7 281,143 285.7,153.6 287.7,175.7 286.9,182 280.2,194.2 
		268.8,202.1 247.1,206.5 251.4,214.4 263.6,214.4 274.3,217.9 282.6,223 289.7,234.5 294,250.6 294,266.4 290.1,283.8 287.3,286.5 
		279,284.6 280.6,265.6 277.8,245.1 270.3,232.5 261.7,228.6 245.1,225.4 230.5,228.6 225.8,233.3 214.7,229 203.7,228.6 
		193.4,229.7 185.9,237.6 185.1,247.9 173.7,249.1 163.8,247.5 165.4,237.6 172.9,229 186.3,221.1 200.1,217.1 213.9,215.2 
		213.9,210 202.1,210 187.5,204.5 175.7,195.8 168.2,186 168.6,165.9 171.7,154.8 180.8,142.6 192.2,136.3 210.8,131.5 217.1,137.1 
			"/>
	<g style="clip-path:url(#SVGID_00000072993780295353935250000006570154186148674490_);">
		<defs>
			<rect id="SVGID_00000006675553715141569200000006873286486434573747_" y="106.8" width="500" height="322.4"/>
		</defs>
		<clipPath id="SVGID_00000105422400104203678150000012046374889122819475_">
			<use xlink:href="#SVGID_00000006675553715141569200000006873286486434573747_"  style="overflow:visible;"/>
		</clipPath>
		<g style="clip-path:url(#SVGID_00000105422400104203678150000012046374889122819475_);">
			<g>
				<defs>
					<rect id="SVGID_00000102525674698858307140000013117180501288735392_" x="175" y="162.2" width="30.7" height="30.1"/>
				</defs>
				<clipPath id="SVGID_00000092427783555252237950000003012250543971445137_">
					<use xlink:href="#SVGID_00000102525674698858307140000013117180501288735392_"  style="overflow:visible;"/>
				</clipPath>
				<g style="clip-path:url(#SVGID_00000092427783555252237950000003012250543971445137_);">
					<defs>
						<path id="SVGID_00000039115715702038592860000000093017421830633401_" d="M175,177.2c0,8.3,6.9,15,15.4,15s15.4-6.7,15.4-15
							c0-8.3-6.9-15-15.4-15S175,168.9,175,177.2"/>
					</defs>
					<clipPath id="SVGID_00000076599550787192169660000007208222837463686551_">
						<use xlink:href="#SVGID_00000039115715702038592860000000093017421830633401_"  style="overflow:visible;"/>
					</clipPath>
					<defs>
						<filter id="Adobe_OpacityMaskFilter" filterUnits="userSpaceOnUse" x="175" y="162.2" width="30.7" height="30.1">
							<feColorMatrix  type="matrix" values="1 0 0 0 0  0 1 0 0 0  0 0 1 0 0  0 0 0 1 0"/>
						</filter>
					</defs>
					
						<mask maskUnits="userSpaceOnUse" x="175" y="162.2" width="30.7" height="30.1" id="SVGID_00000083086757983984547900000015724777911578624181_">
						<g class="st13">
							
								<radialGradient id="SVGID_00000066500669827722780080000000926076281605244335_" cx="-1281.722" cy="2445.0723" r="1.1068" gradientTransform="matrix(13.741 0 0 -13.741 17802.4609 33774.9219)" gradientUnits="userSpaceOnUse">
								<stop  offset="0" style="stop-color:#FFFFFF"/>
								<stop  offset="9.119124e-02" style="stop-color:#F1F1F1"/>
								<stop  offset="0.2626" style="stop-color:#CDCDCD"/>
								<stop  offset="0.4959" style="stop-color:#939393"/>
								<stop  offset="0.7788" style="stop-color:#434343"/>
								<stop  offset="1" style="stop-color:#000000"/>
							</radialGradient>
							
								<rect x="175" y="162.2" style="clip-path:url(#SVGID_00000076599550787192169660000007208222837463686551_);fill:url(#SVGID_00000066500669827722780080000000926076281605244335_);" width="30.7" height="30.1"/>
						</g>
					</mask>
					
						<radialGradient id="SVGID_00000109004694469550957040000004747300851968398522_" cx="-1281.722" cy="2445.0723" r="1.1068" gradientTransform="matrix(13.741 0 0 -13.741 17802.4629 33774.9258)" gradientUnits="userSpaceOnUse">
						<stop  offset="0" style="stop-color:#F16682"/>
						<stop  offset="0.1153" style="stop-color:#F27289"/>
						<stop  offset="0.332" style="stop-color:#F48E9C"/>
						<stop  offset="0.6267" style="stop-color:#F9BABF"/>
						<stop  offset="0.985" style="stop-color:#FFFAFA"/>
						<stop  offset="1" style="stop-color:#FFFFFF"/>
					</radialGradient>
					
						<rect x="175" y="162.2" style="clip-path:url(#SVGID_00000076599550787192169660000007208222837463686551_);mask:url(#SVGID_00000083086757983984547900000015724777911578624181_);fill:url(#SVGID_00000109004694469550957040000004747300851968398522_);" width="30.7" height="30.1"/>
				</g>
			</g>
		</g>
		<g style="clip-path:url(#SVGID_00000105422400104203678150000012046374889122819475_);">
			<g>
				<defs>
					<rect id="SVGID_00000056429592396998199750000004786428248360662950_" x="244.3" y="164.2" width="30.7" height="30.1"/>
				</defs>
				<clipPath id="SVGID_00000090252736628789049190000012723924308989464461_">
					<use xlink:href="#SVGID_00000056429592396998199750000004786428248360662950_"  style="overflow:visible;"/>
				</clipPath>
				<g style="clip-path:url(#SVGID_00000090252736628789049190000012723924308989464461_);">
					<defs>
						<path id="SVGID_00000013183372321390066280000012502979577323406244_" d="M244.3,179.2c0,8.3,6.9,15,15.4,15
							c8.5,0,15.4-6.7,15.4-15c0-8.3-6.9-15-15.4-15C251.2,164.2,244.3,170.9,244.3,179.2"/>
					</defs>
					<clipPath id="SVGID_00000109007471659318424890000007600311211137772694_">
						<use xlink:href="#SVGID_00000013183372321390066280000012502979577323406244_"  style="overflow:visible;"/>
					</clipPath>
					<defs>
						
							<filter id="Adobe_OpacityMaskFilter_00000058558132989409417990000008804377065090398139_" filterUnits="userSpaceOnUse" x="244.3" y="164.2" width="30.7" height="30.1">
							<feColorMatrix  type="matrix" values="1 0 0 0 0  0 1 0 0 0  0 0 1 0 0  0 0 0 1 0"/>
						</filter>
					</defs>
					
						<mask maskUnits="userSpaceOnUse" x="244.3" y="164.2" width="30.7" height="30.1" id="SVGID_00000158023770194268221500000016033368953052818865_">
						<g style="filter:url(#Adobe_OpacityMaskFilter_00000058558132989409417990000008804377065090398139_);">
							
								<radialGradient id="SVGID_00000101811480375985514540000014704846774057788062_" cx="-1281.2351" cy="2445.0581" r="1.1068" gradientTransform="matrix(13.741 0 0 -13.741 17865.1055 33776.7266)" gradientUnits="userSpaceOnUse">
								<stop  offset="0" style="stop-color:#FFFFFF"/>
								<stop  offset="9.119124e-02" style="stop-color:#F1F1F1"/>
								<stop  offset="0.2626" style="stop-color:#CDCDCD"/>
								<stop  offset="0.4959" style="stop-color:#939393"/>
								<stop  offset="0.7788" style="stop-color:#434343"/>
								<stop  offset="1" style="stop-color:#000000"/>
							</radialGradient>
							
								<rect x="244.3" y="164.2" style="clip-path:url(#SVGID_00000109007471659318424890000007600311211137772694_);fill:url(#SVGID_00000101811480375985514540000014704846774057788062_);" width="30.7" height="30.1"/>
						</g>
					</mask>
					
						<radialGradient id="SVGID_00000151533848982948672770000004974050450639471280_" cx="-1281.2351" cy="2445.0581" r="1.1068" gradientTransform="matrix(13.741 0 0 -13.741 17865.1074 33776.7266)" gradientUnits="userSpaceOnUse">
						<stop  offset="0" style="stop-color:#F16682"/>
						<stop  offset="0.1153" style="stop-color:#F27289"/>
						<stop  offset="0.332" style="stop-color:#F48E9C"/>
						<stop  offset="0.6267" style="stop-color:#F9BABF"/>
						<stop  offset="0.985" style="stop-color:#FFFAFA"/>
						<stop  offset="1" style="stop-color:#FFFFFF"/>
					</radialGradient>
					
						<rect x="244.3" y="164.2" style="clip-path:url(#SVGID_00000109007471659318424890000007600311211137772694_);mask:url(#SVGID_00000158023770194268221500000016033368953052818865_);fill:url(#SVGID_00000151533848982948672770000004974050450639471280_);" width="30.7" height="30.1"/>
				</g>
			</g>
		</g>
		<path style="clip-path:url(#SVGID_00000105422400104203678150000012046374889122819475_);" d="M385.6,123.1
			c1.8-1.1,3.4-0.8,3.9,0.6c0.3-0.3,0.5-0.5,0.8-0.8c0.8-0.6,2.6-0.2,3.1,0.6c0.3,0.5,0.4,1.2,0.3,1.7c-0.1,2-0.3,3.9-0.4,5.9
			c-0.1,0.7-0.1,1.5-0.1,2.2c0,0.1,0.2,0.3,0.3,0.4c0.5,0.5,0.5,0.8-0.1,1.2c-0.8,0.5-1.7,0-2.1-0.9c-0.2-0.7-0.3-1.3-0.1-2
			c0.1-0.9,0.1-1.8,0.1-2.7c0-1.1,0-2.2,0-3.2c0-0.4,0-0.8-0.1-1.1c-0.1-0.2-0.3-0.6-0.4-0.6c-0.3,0-0.7,0.1-1,0.3
			c-0.6,0.5-0.6,1.3-0.7,2c-0.2,1.3-0.3,2.7-0.4,4.1c-0.1,0.9,0,1.9,0,2.8c0,0.6-0.6,1.1-1.2,0.9c-0.8-0.3-1-1-1-1.7
			c0-2.1-0.1-4.2,0.4-6.3c0.2-0.6,0.1-1.3,0-2c0-0.4-0.2-0.6-0.6-0.7c-0.4,0-0.6,0.1-0.8,0.4c-0.9,1.3-0.8,2.8-1.1,4.3
			c-0.3,1.4-0.4,2.8-0.6,4.2c-0.1,0.7-0.9,1.2-1.6,1.1c-0.4-0.1-0.6-0.4-0.5-0.9c0.2-1.7,0.4-3.4,0.5-5c0-0.2,0.2-0.5,0.2-0.7
			c0.2-0.9,0.3-1.8,0.5-2.7c0.1-0.8,0.2-1.6,0.4-2.3c0.1-0.8,1.3-1.1,1.9-0.6C385.7,122,386,122.4,385.6,123.1"/>
		<path style="clip-path:url(#SVGID_00000105422400104203678150000012046374889122819475_);" d="M402.2,134.7c0-0.4,0.1-0.8,0.1-1.2
			c0.2-1.2,0.4-2.4,0.6-3.6c0.2-0.9,0.4-1.9,0.5-2.8c0.1-0.4,0.1-0.9,0.1-1.3c0.1-0.9,0.3-1.8,0.4-2.7c0.1-0.4,0.5-1,0.8-1
			c0.9,0.1,1.2,0.3,1.2,1c0,0.3,0.2,0.6,0.2,0.9c0.7-0.1,1.4-0.2,2.1-0.2c0.8,0,1.5,0.7,1.6,1.6c0.1,1.8-0.3,3.6-0.5,5.4
			c-0.2,1.4-0.2,2.8-0.3,4.1c0,0.2,0,0.4-0.1,0.6c-0.2,0.3-0.5,0.7-0.7,0.6c-0.4-0.1-1-0.4-1.2-0.7c-0.3-0.5-0.5-1.2-0.4-1.7
			c0.1-1.5,0.4-3,0.7-4.5c0.2-1,0.3-2.1,0.4-3.1c0-0.4-0.6-0.9-1.1-1c-0.5-0.1-0.8,0.2-0.8,0.7c-0.3,1.9-0.7,3.7-1,5.6
			c-0.1,0.8-0.2,1.5-0.4,2.3C404.1,134.7,403.4,134.9,402.2,134.7"/>
		<path style="clip-path:url(#SVGID_00000105422400104203678150000012046374889122819475_);" d="M415.4,126.7c0-1.3-0.2-2.5,0.1-3.7
			c0.1-0.2,0-0.4,0-0.6c-0.1-0.5,0.3-0.9,0.8-0.8c0.5,0,1,0,1.3,0.6c0.1,0.3,0.3,0.6,0.3,0.9c0,2.2-0.1,4.5-0.6,6.6
			c-0.2,0.8-0.1,1.7-0.3,2.5c-0.2,1.3-2,3.6-3.6,3.4c-0.5,0-0.7-0.3-0.8-0.7c-0.1-0.4,0.2-0.4,0.4-0.6c0.5-0.4,1-0.8,1.3-1.2
			c0.3-0.3,0.4-0.8,0.5-1.2c0.1-0.9,0.3-1.9,0.2-2.8c0-0.4-0.4-0.9-0.7-1.2c-0.6-0.8-1.4-1.5-2-2.3c-0.6-0.7-1.1-1.5-1.5-2.3
			c-0.3-0.5-0.2-1.1,0.2-1.5c0.2-0.3,0.8-0.3,1.2-0.3c0.1,0,0.3,0.2,0.4,0.4c0.4,0.7,0.8,1.5,1.2,2.2c0.3,0.5,0.6,1,0.9,1.5
			C414.9,126.1,415.2,126.4,415.4,126.7"/>
		<path style="clip-path:url(#SVGID_00000105422400104203678150000012046374889122819475_);" d="M395.2,129.1
			c-0.1-1.8,0.3-3,0.8-4.1c0.2-0.4,0.7-0.7,1.1-1c0.1-0.1,0.3-0.3,0.4-0.4c0.7-0.7,1.6-0.9,2.4-1c1.6-0.2,2.1,0.8,1.6,2.1
			c-0.4,1-1.1,1.8-2,2.4c-0.4,0.3-0.9,0.4-1.3,0.7c-0.2,0.2-0.4,0.4-0.5,0.7c-0.3,0.9,0,1.7,0.3,2.5c0.1,0.3,0.5,0.6,0.8,0.7
			c0.5,0.2,1.1,0.2,1.6,0.3c0.3,0.1,0.7,0.3,0.8,0.5c0.1,0.2-0.1,0.6-0.3,0.8c-0.7,0.9-1.9,1-2.9,0.4c-0.3-0.2-0.7-0.4-1-0.7
			C395.5,131.9,395.4,130.2,395.2,129.1 M399.7,124.9c-0.3-0.4-0.6-0.5-1-0.3c-0.8,0.5-1,1-0.6,1.8
			C398.6,125.9,399.1,125.4,399.7,124.9"/>
		<path style="clip-path:url(#SVGID_00000105422400104203678150000012046374889122819475_);" d="M382.6,137.9
			c5.1,0,9.5-0.1,13.8-0.1c7.7-0.1,15,0.2,22.4,0.5c2,0.1,4.1,0.2,5.7,0.5c0.6,0.1,0.6,0.7,0,1c-0.5,0.3-2.2,0.6-3.3,0.6
			c-9.3,0-18.6-0.1-27.9-0.2c-3.8,0-7.7,0-11.6,0.1c-2.9,0.1-5.3-0.3-5.7-1c-0.1-0.2,0.6-0.5,1.2-0.6
			C379.1,138.3,381.1,138.1,382.6,137.9"/>
		<path style="clip-path:url(#SVGID_00000105422400104203678150000012046374889122819475_);" d="M381,167.3
			c-1.3,1.4-3.3,2.2-4.9,1.2c-1-0.6-1.8-1.9-2.1-3.1c-0.8-3.2-0.6-6.4,0.5-9.5c1.1-3.1,4.5-4.4,6.7-3.5c0.7,0.3,1.2,0.9,1.9,1.4
			c0.1-0.1,0.2-0.3,0.4-0.6c0.5-0.9,1.9-1.5,2.9-1.3c0.6,0.1,1,0.4,0.9,1.1c-0.3,1.6-0.6,3.3-1,4.9c-0.8,3.4-1.6,6.8-2.4,10.2
			c-0.6,2.8-1.5,5.5-3.5,7.7c-1.1,1.2-4.6,2-6.3,0.9c-0.4-0.3-0.8-1.7-0.6-2.3c0.5-1.4,1.6-1.9,2.9-1.8c2.3,0.2,3.2-1.2,3.9-2.9
			C380.5,168.9,380.7,168.1,381,167.3 M381.9,159.9c-0.1-1.6-0.5-3-1.7-4.2c-0.7-0.7-1.6-0.5-2.2,0.4c-1.3,2.2-1.3,4.6-1,7
			c0.1,0.8,0.5,1.8,1.4,1.7c1-0.2,2.2-0.7,2.6-1.4C381.7,162.5,381.7,161.1,381.9,159.9"/>
		<path style="clip-path:url(#SVGID_00000105422400104203678150000012046374889122819475_);" d="M417.8,154.4
			c1.6-1.1,3.4-1.6,5.2-0.5c0.8,0.5,1.3,1.6,1.8,2.5c1,1.9,1,3.8,0.7,5.9c-0.4,2.9-1.1,5.7-2.4,8.3c-0.8,1.6-1.9,2.9-4,2.8
			c-0.6,0-1.1-0.2-1.8-0.3c0.1,0.9,0.2,1.9,0.2,2.8c0,0.8-0.3,1.7-0.4,2.5c-0.1,0.9-0.7,1.2-1.5,1.2c-1.1,0-1.7,0-1.6-1.4
			c0.2-3.8,0.4-7.6,0.4-11.5c0-2-0.2-3.9-0.3-5.9c0-0.1,0-0.3,0-0.4c-0.1-2.3-0.1-4.7-0.2-7c0-0.7,1.4-2.3,2-2.4
			c0.7-0.1,1.4,0.1,1.6,0.9C417.6,152.6,417.6,153.5,417.8,154.4 M420,156.5c-1.7,0-2.9,1.1-2.9,2.8c0,0.6-0.2,1.3-0.2,1.9
			c0,1.1,0.1,2.2,0.2,3.3c0.1,1.4,0.1,2.8,0.3,4.2c0,0.4,0.4,0.9,0.7,1.2c0.2,0.2,0.9,0.2,1,0c0.6-0.9,1.2-1.9,1.5-2.9
			c0.4-1.3,0.5-2.7,0.6-4.1c0.2-1.5,0.4-3,0.4-4.5C421.6,157,421.1,156.5,420,156.5"/>
		<path style="clip-path:url(#SVGID_00000105422400104203678150000012046374889122819475_);" d="M430.9,155.3
			c1.6-1.1,3.4-1.6,5.2-0.5c0.8,0.5,1.3,1.6,1.8,2.5c1,1.9,1,3.8,0.7,5.9c-0.4,2.9-1.1,5.7-2.4,8.3c-0.8,1.6-1.9,2.9-4,2.8
			c-0.6,0-1.1-0.2-1.8-0.3c0.1,0.9,0.2,1.9,0.2,2.8c0,0.8-0.3,1.7-0.4,2.5c-0.1,0.9-0.7,1.2-1.5,1.2c-1.1,0-1.7,0-1.6-1.4
			c0.2-3.8,0.4-7.6,0.4-11.5c0-2-0.2-3.9-0.3-5.9c0-0.1,0-0.3,0-0.4c-0.1-2.3-0.1-4.7-0.2-7c0-0.7,1.4-2.3,2-2.4
			c0.7-0.1,1.4,0.1,1.6,0.9C430.7,153.6,430.8,154.4,430.9,155.3 M433.1,157.5c-1.7,0-2.9,1.1-2.9,2.8c0,0.6-0.2,1.3-0.2,1.9
			c0,1.1,0.1,2.2,0.2,3.3c0.1,1.4,0.1,2.8,0.3,4.2c0,0.4,0.4,0.9,0.7,1.2c0.2,0.2,0.9,0.2,1,0c0.6-0.9,1.2-1.9,1.5-2.9
			c0.4-1.3,0.5-2.7,0.6-4.1c0.2-1.5,0.4-3,0.4-4.5C434.8,157.9,434.3,157.5,433.1,157.5"/>
		<path style="clip-path:url(#SVGID_00000105422400104203678150000012046374889122819475_);" d="M403.1,151.4
			c0.4-0.2,0.9-0.4,1.3-0.6c1-0.5,1.9-0.2,2.8,0.4c0.5,0.4,0.6,1.5,0.1,1.8c-1.5,0.8-2.2,2.1-2.4,3.7c-0.2,1.7-0.7,3.3-0.7,5
			c-0.1,1.6,0.2,3.3,0.4,4.9c0.1,0.5,0.6,0.9,1.1,1.2c0.2,0.1,0.8-0.1,0.9-0.4c1-2.6,1-5.3,0.6-8.1c-0.2-1.6-0.1-3.2-0.1-4.8
			c0-0.2,0.2-0.4,0.3-0.5c0.5-0.2,2.3,0.5,2.6,0.9c1.1,1.8,1.4,3.8,1.6,5.7c0.2,2.5,0,5-0.2,7.4c-0.2,2.1-3.1,3.9-5.2,3.7
			c-2.7-0.3-4.3-2.1-5-4.3c-0.8-2.8-0.9-5.7-0.3-8.7c0.3-1.2,0.4-2.3,0.8-3.5c0.3-1,0.8-2,1.3-3C402.9,152.1,403,151.7,403.1,151.4"
			/>
		<path style="clip-path:url(#SVGID_00000105422400104203678150000012046374889122819475_);" d="M429.5,225.5
			c0.5-0.2,1.1-0.5,1.7-0.7c1.3-0.7,2.5-0.2,3.5,0.5c0.7,0.5,0.8,1.9,0.1,2.3c-2,1-2.9,2.6-3.1,4.8c-0.3,2.2-0.8,4.3-0.9,6.5
			c-0.1,2.1,0.2,4.2,0.5,6.3c0.1,0.6,0.8,1.2,1.4,1.5c0.2,0.1,1.1-0.2,1.2-0.5c1.3-3.4,1.3-6.8,0.8-10.4c-0.3-2-0.1-4.1-0.1-6.1
			c0-0.2,0.2-0.5,0.4-0.6c0.6-0.3,2.9,0.6,3.3,1.2c1.4,2.3,1.8,4.9,2,7.4c0.3,3.2,0,6.4-0.2,9.6c-0.2,2.7-4,5.1-6.8,4.8
			c-3.5-0.4-5.6-2.7-6.4-5.6c-1-3.6-1.2-7.4-0.4-11.2c0.3-1.5,0.6-3,1-4.5c0.4-1.3,1.1-2.6,1.6-3.8
			C429.3,226.4,429.4,226,429.5,225.5"/>
		<path style="clip-path:url(#SVGID_00000105422400104203678150000012046374889122819475_);" d="M358.5,168.2
			c-0.9,0.8-1.6,1.3-2.2,2c-1.5,1.5-3.2,1.7-4.9,0.7c-0.5-0.3-1.1-0.9-1.3-1.5c-0.8-2.8-0.4-5.2,2.3-7.3c1.6-1.2,3.2-2.5,4.7-3.8
			c0.8-0.7,0.3-1.4,0-2.2c-0.3-0.8-1-0.9-1.7-0.8c-1.2,0.1-2.4,0.2-3.6,0.3c-1,0-1.3-0.4-1-1.3c0.2-0.6,0.5-1.3,0.8-1.9
			c0.1-0.1,0.3-0.3,0.4-0.3c2.1,0,4.3-0.1,6.4,0.1c0.5,0,1,1.1,1.2,1.8c0.3,1,0.4,2.1,0.6,3.2c0.8,4.1,1.5,8.3,2.3,12.4
			c0.2,1-0.3,1.6-1.9,2c-1.7,0.5-2.2,0.1-2.2-1.7V168.2z M357.6,160.7c-0.1,0-0.3-0.1-0.4-0.1c-1.1,1.2-2.2,2.4-3.3,3.6
			c-0.7,0.8-0.5,1.7,0.3,2.4c0.6,0.6,1.5,0.5,2.2-0.2c0.5-0.5,1-1.1,1.5-1.7c0.2-0.3,0.6-0.6,0.6-0.8
			C358.3,162.9,357.9,161.8,357.6,160.7"/>
		<path style="clip-path:url(#SVGID_00000105422400104203678150000012046374889122819475_);" d="M419.3,209.8c-1.1,1-2,1.7-2.9,2.6
			c-1.9,2-4.1,2.2-6.4,0.9c-0.7-0.4-1.5-1.2-1.7-1.9c-1-3.6-0.5-6.7,3-9.4c2.1-1.6,4.1-3.2,6.1-4.9c1-0.8,0.4-1.9,0.1-2.8
			c-0.4-1-1.2-1.1-2.2-1.1c-1.5,0.1-3.1,0.3-4.6,0.3c-1.3,0.1-1.7-0.5-1.2-1.7c0.3-0.8,0.7-1.6,1-2.4c0.1-0.2,0.3-0.4,0.5-0.4
			c2.8,0,5.5-0.1,8.3,0.1c0.6,0.1,1.2,1.4,1.5,2.3c0.4,1.3,0.6,2.7,0.8,4.1c1,5.3,2,10.6,2.9,16c0.2,1.3-0.4,2-2.5,2.6
			c-2.2,0.6-2.8,0.1-2.8-2.1C419.3,211.3,419.3,210.7,419.3,209.8 M418.1,200.2c-0.2-0.1-0.4-0.1-0.5-0.2c-1.4,1.5-2.9,3-4.2,4.6
			c-0.9,1-0.6,2.2,0.3,3.1c0.8,0.7,1.9,0.7,2.9-0.2c0.7-0.7,1.3-1.4,1.9-2.2c0.3-0.3,0.8-0.7,0.7-1
			C418.9,203,418.5,201.6,418.1,200.2"/>
		<path style="clip-path:url(#SVGID_00000105422400104203678150000012046374889122819475_);" d="M383.9,208.8c-1.1,1-2,1.7-2.9,2.6
			c-1.9,2-4.1,2.2-6.4,0.9c-0.7-0.4-1.5-1.2-1.7-1.9c-1-3.6-0.5-6.7,3-9.4c2.1-1.6,4.1-3.2,6.1-4.9c1-0.8,0.4-1.9,0.1-2.8
			c-0.4-1-1.2-1.1-2.2-1.1c-1.5,0.1-3.1,0.3-4.6,0.3c-1.3,0.1-1.7-0.5-1.2-1.7c0.3-0.8,0.7-1.6,1-2.4c0.1-0.2,0.3-0.4,0.5-0.4
			c2.8,0,5.5-0.1,8.3,0.1c0.6,0.1,1.2,1.4,1.5,2.3c0.4,1.3,0.6,2.7,0.8,4.1c1,5.3,2,10.6,2.9,16c0.2,1.3-0.4,2-2.5,2.6
			c-2.2,0.6-2.8,0.1-2.8-2.1C383.9,210.3,383.9,209.7,383.9,208.8 M382.7,199.3c-0.2-0.1-0.4-0.1-0.5-0.2c-1.4,1.5-2.9,3-4.2,4.6
			c-0.9,1-0.6,2.2,0.3,3.1c0.8,0.7,1.9,0.7,2.9-0.2c0.7-0.7,1.3-1.4,1.9-2.2c0.3-0.3,0.8-0.7,0.7-1
			C383.6,202,383.1,200.7,382.7,199.3"/>
		<path style="clip-path:url(#SVGID_00000105422400104203678150000012046374889122819475_);" d="M398.5,243.9
			c-1.2,0.9-2.1,1.6-3,2.4c-2,1.8-4.2,1.9-6.4,0.6c-0.7-0.4-1.4-1.2-1.6-2c-0.8-3.7-0.1-6.7,3.5-9.2c2.2-1.5,4.3-3,6.3-4.6
			c1-0.8,0.5-1.8,0.2-2.8c-0.3-1-1.2-1.2-2.1-1.2c-1.5,0-3.1,0.1-4.6,0.1c-1.3,0-1.6-0.6-1.2-1.8c0.3-0.8,0.8-1.6,1.2-2.3
			c0.1-0.2,0.4-0.4,0.5-0.3c2.8,0.1,5.6,0.2,8.3,0.6c0.6,0.1,1.2,1.5,1.4,2.4c0.4,1.3,0.4,2.8,0.6,4.1c0.7,5.4,1.4,10.7,2,16.1
			c0.2,1.4-0.5,2-2.6,2.4c-2.2,0.5-2.8-0.1-2.7-2.3C398.4,245.4,398.5,244.8,398.5,243.9 M397.9,234.3c-0.2-0.1-0.4-0.1-0.5-0.2
			c-1.5,1.5-3.1,2.9-4.5,4.4c-0.9,0.9-0.8,2.2,0.2,3.1c0.8,0.8,1.9,0.8,2.9-0.1c0.7-0.6,1.4-1.4,2-2.1c0.3-0.3,0.8-0.7,0.8-1
			C398.6,237.1,398.2,235.7,397.9,234.3"/>
		<path style="clip-path:url(#SVGID_00000105422400104203678150000012046374889122819475_);" d="M448.3,172.8
			c-0.9,0.8-1.6,1.3-2.2,2c-1.5,1.5-3.2,1.7-4.9,0.7c-0.5-0.3-1.1-0.9-1.3-1.5c-0.8-2.8-0.4-5.2,2.3-7.3c1.6-1.2,3.2-2.5,4.7-3.8
			c0.8-0.7,0.3-1.4,0-2.2c-0.3-0.8-1-0.9-1.7-0.8c-1.2,0.1-2.4,0.2-3.6,0.3c-1,0-1.3-0.4-1-1.3c0.2-0.6,0.5-1.3,0.8-1.9
			c0.1-0.1,0.3-0.3,0.4-0.3c2.1,0,4.3-0.1,6.4,0.1c0.5,0,1,1.1,1.2,1.8c0.3,1,0.4,2.1,0.6,3.2c0.8,4.1,1.5,8.3,2.3,12.4
			c0.2,1-0.3,1.6-1.9,2c-1.7,0.5-2.2,0.1-2.2-1.7V172.8z M447.5,165.4c-0.1,0-0.3-0.1-0.4-0.1c-1.1,1.2-2.2,2.4-3.3,3.6
			c-0.7,0.8-0.5,1.7,0.3,2.4c0.6,0.6,1.5,0.5,2.2-0.2c0.5-0.5,1-1.1,1.5-1.7c0.2-0.3,0.6-0.6,0.6-0.8
			C448.1,167.6,447.7,166.5,447.5,165.4"/>
		<path style="clip-path:url(#SVGID_00000105422400104203678150000012046374889122819475_);" d="M397.8,155.5
			c-0.8-1-1.7-1.7-3.1-1.5c-1.1,0.2-1.8,1-1.3,2.1c0.6,1.4,1.4,2.8,1.8,4.3c0.7,2.2,1.2,4.5,1.5,6.8c0.2,1.8-1.1,3.2-2,4.7
			c-0.2,0.3-0.9,0.4-1.4,0.5c-3.3,0.4-4.3,0.3-6.2-2.2c-0.6-0.7-0.4-1.5,0.4-2.2c0.6-0.5,1.4-0.3,2,0.3c0.6,0.6,1.2,1.1,1.8,1.7
			c0.1-0.1,0.3-0.1,0.4-0.2c0.1-0.7,0.3-1.5,0.1-2.1c-0.2-1.2-0.8-2.4-1-3.6c-0.5-2.4-1-4.8-1.4-7.2c-0.1-0.6,0.1-1.3,0.4-1.8
			c1.1-1.9,2.7-3.1,4.8-3.8c1.4-0.5,3,0.1,3.9,1.3C399.4,153.6,399.2,154.3,397.8,155.5"/>
		<path style="clip-path:url(#SVGID_00000105422400104203678150000012046374889122819475_);" d="M370.1,144.9c0.6,0,1.1-0.1,1.8-0.1
			c0.5,0.8,1.4,1.8,0.7,3.2c-0.4,0.8-0.7,1.7-1,2.5c-1,2.3-1.6,4.6-2.2,7c-0.5,2.2-0.8,4.4-0.9,6.6c0,1.7,1.1,2.7,2.1,3.9
			c0.7,0.9,1.4,1.9,1.9,2.9c0.2,0.3-0.3,1-0.6,1.4c-0.4,0.5-0.8,0.6-1.4,0.1c-1.2-1-2.7-1.7-3.7-3.1c-1.5-2-2.1-4.2-1.8-6.6
			c0.4-2.3,0.9-4.7,1.5-6.9c0.6-2,1.5-3.8,2.1-5.8C369.2,148.4,369.6,146.6,370.1,144.9"/>
		<path style="clip-path:url(#SVGID_00000105422400104203678150000012046374889122819475_);" d="M404.2,181c0.8,0,1.4-0.1,2.3-0.1
			c0.7,1.1,1.8,2.3,0.9,4.1c-0.5,1.1-0.9,2.2-1.3,3.3c-1.2,2.9-2.1,6-2.9,9.1c-0.7,2.9-1.1,5.6-1.1,8.5c-0.1,2.2,1.4,3.5,2.7,5
			c1,1.1,1.8,2.4,2.5,3.8c0.2,0.4-0.4,1.3-0.7,1.8c-0.5,0.7-1.1,0.7-1.8,0.1c-1.6-1.3-3.5-2.2-4.8-4c-1.9-2.6-2.7-5.4-2.3-8.5
			c0.5-3,1.1-6,2-8.9c0.7-2.5,1.9-5,2.7-7.5C403,185.5,403.6,183.2,404.2,181"/>
		<path style="clip-path:url(#SVGID_00000105422400104203678150000012046374889122819475_);" d="M392.7,180.2c2.6,1.5,1,7.9-0.1,9.6
			c-0.7,1.1-2,1.1-3.2,0.2c-0.6-0.4,0.2-6.5,0.7-7.2c0.3-0.5,0.6-1.1,1-1.5C391.6,180.8,392.1,180.5,392.7,180.2"/>
		<path style="clip-path:url(#SVGID_00000105422400104203678150000012046374889122819475_);" d="M405.1,248.6
			c0.2-0.9,0.3-1.9,0.5-2.8c0.6-2.8,1.2-5.6,1.8-8.3c0.5-2.2,1.1-4.3,1.5-6.5c0.2-1,0.3-2,0.5-3c0.4-2.1,0.9-4.2,1.3-6.3
			c0.2-0.9,1.4-2.3,2.1-2.3c2.2,0.3,2.7,0.8,2.8,2.5c0,0.7,0.3,1.4,0.4,2c1.7-0.1,3.3-0.3,4.9-0.3c1.9,0,3.5,1.9,3.5,3.9
			c0,4.3-1.2,8.3-2,12.5c-0.6,3.2-0.8,6.4-1.2,9.6c-0.1,0.5,0,1-0.3,1.4c-0.4,0.6-1.3,1.5-1.6,1.3c-1-0.4-2.2-1-2.7-1.8
			c-0.6-1.2-1-2.8-0.8-4.1c0.5-3.5,1.4-7,2.1-10.4c0.5-2.4,1-4.8,1.4-7.2c0.2-0.9-1.2-2.2-2.5-2.4c-1.2-0.2-1.8,0.4-2.1,1.5
			c-1,4.3-2,8.6-3.1,12.8c-0.4,1.7-0.7,3.5-1.2,5.2C409.7,248.9,407.9,249.1,405.1,248.6"/>
		<path style="clip-path:url(#SVGID_00000105422400104203678150000012046374889122819475_);" d="M379.9,233.1c0.2-3-0.2-5.8,0.8-8.5
			c0.1-0.4,0-1,0-1.4c-0.2-1.2,0.9-2,2.1-1.8c1.2,0.2,2.4,0.1,3,1.5c0.3,0.7,0.7,1.4,0.6,2c-0.3,5.2-0.7,10.4-2.4,15.4
			c-0.6,1.9-0.5,3.9-1,5.8c-0.7,3.1-5.1,8.1-8.9,7.5c-1.1-0.2-1.5-0.8-1.8-1.7c-0.3-0.9,0.5-0.9,1-1.2c1.2-0.8,2.3-1.6,3.3-2.7
			c0.7-0.7,1.1-1.8,1.3-2.8c0.4-2.2,0.8-4.3,0.8-6.5c0-1-0.9-2-1.5-2.9c-1.4-1.9-3-3.6-4.3-5.5c-1.2-1.7-2.3-3.6-3.3-5.4
			c-0.7-1.2-0.2-2.6,0.5-3.4c0.5-0.6,1.8-0.5,2.8-0.6c0.3,0,0.7,0.6,0.9,1c0.9,1.8,1.6,3.5,2.5,5.3c0.6,1.2,1.2,2.4,1.9,3.6
			C378.7,231.5,379.3,232.3,379.9,233.1"/>
		<path style="clip-path:url(#SVGID_00000105422400104203678150000012046374889122819475_);" d="M354.7,235.4
			c0.5-2.4,0.8-4.9,1.5-7.3c0.6-2.1,1.3-4.2,2.1-6.3c0.1-0.4,0.7-0.8,1.1-0.9c1.6-0.4,3-0.6,4.5,0.7c1.7,1.4,3.2,2.7,4.4,4.6
			c0.8,1.1,0.6,2.2,0.4,3.4c0,0.3-0.4,0.8-0.7,0.9c-1.1,0.2-2.1,0.4-3.2,0.5c-0.7,0.1-1.1-0.4-1.1-1.2c0-0.8-0.1-1.7-0.3-2.5
			c-0.2-1.1-1.1-1.3-2-0.5c-1.8,1.6-2.5,3.7-2.7,5.9c-0.2,2.4-0.2,4.8-0.1,7.2c0,0.6,0.6,1.3,0.9,1.9c0.6-0.4,1.2-0.7,1.8-1.1
			c0.3-0.2,0.4-0.5,0.7-0.8c1.8-2.5,1.9-2.5,4.5-1c0.9,0.5,0.8,1.2,0.6,1.8c-0.8,2.4-1.6,4.8-3.5,6.5c-1.7,1.5-2.5,1.4-3.9,0.7
			c-3.3-1.6-4.6-4.2-4.7-7.6C355,238.6,354.8,237,354.7,235.4"/>
		<path style="clip-path:url(#SVGID_00000105422400104203678150000012046374889122819475_);" d="M44.1,300.7
			c-1.8,0.3-3.5,0.5-5.1-0.5c-0.2-0.1-0.4-0.1-0.6-0.1c-1.7,0.2-3.5,0.5-5.2,0.6c-2.4,0.1-4.7,0-7.1,0c-0.6,0-1.3-0.2-1.6,0
			c-1,0.8-2.1,0.5-3.1,0.6c-2.2,0.2-4.3-0.2-6.5,0.7c-1.2,0.5-2.6,0.2-4,0.2c-2.4,0-4.8,0-7.2,0c-2,0-2,0-3.7-1.8
			c0.7-1.7,2.3-2.3,3.9-2.5c1.9-0.3,3.9-0.3,5.8-0.5c0.2,0,0.5-0.1,0.6,0c1.9,1,3.8,0,5.7-0.1c1.3,0,2.6-0.3,3.8-0.4
			c2.8-0.1,5.6,0,8.5,0c1.3,0,2.6-0.4,3.9-0.4c2,0,4,0.1,6,0.4c1.7,0.3,3.2,0,4.8-0.6c0.5-0.2,1-0.3,1.5-0.4
			c0.2-0.7,0.6-1.5,0.6-2.2c-0.2-5.1,2.3-9.4,3.8-14c0.8-2.4,2.1-4.6,3.8-6.6c1.1-1.3,1.8-2.9,2.9-4.2c0.5-0.7,1.3-1.3,2-1.9
			c0.8-0.7,1.7-1.3,2.5-2c3.3-2.9,6.9-5.4,10.8-7.5c6.4-3.5,13.3-5.7,20.3-7.5c1.5-0.4,3-0.9,4.5-1.3c4.7-1.3,9.4-2.5,14.4-2.2
			c0.2,0,0.4,0,0.8-0.1c-0.2-0.5-0.4-0.9-0.6-1.3c-1.8-3.4-3.2-6.9-3.1-10.9c0-1,0.7-2,0.7-3.1c0.1-1-0.4-1.9-0.4-2.9
			c0-0.4,0.3-0.8,0.6-1.1c0.6-0.6,1.2-1,1.8-1.6c1.3-1.2,2.6-2.5,3.9-3.7c1-0.9,2.1-1.8,3.4-2.3c4.9-1.8,10-3.1,15.1-4
			c1.6-0.3,3.2-0.1,4.8,0c1.5,0.1,3,0.4,4.5,0.4c2.4-0.1,4.6,0.4,6.7,1.4c1.7,0.8,3.4,1.4,5.1,2.2c0.6,0.3,1.1,1.1,1.6,1.7
			c2.8,3.7,4.3,7.8,4.9,12.4c0.1,0.8,0.3,1.5,0.6,2.3c0.5,1.7,1.1,3.4,1.7,5.1c0.1,0.4,0.5,0.7,1,1.4c0.7-2.4,1.3-4.5,1.9-6.5
			c0.1-0.3,0.1-0.6,0.3-0.8c1.6-2.8,3.1-5.5,6-7.2c0.4-0.2,0.9-0.5,1.2-0.9c3.8-4.4,8.8-6.9,14.1-8.7c2.8-0.9,5.7-1.3,8.5-2
			c1.2-0.3,2.3-1,3.4-1.2c2.5-0.4,5.1-0.6,7.7-0.9c2.1-0.2,4.1-0.9,6.2-1.8c-2-1.3-3.8-0.2-5.4,0.2c-2,0.5-3.8,0.3-5.7-0.2
			c-0.5-0.1-0.9-0.6-1.4-0.9c-1.4-1-2.8-1.7-4.6-1.6c-0.8,0-1.6-0.4-2.4-0.6c-2.6-0.9-5-2.1-7.6-2.9c-2.9-1-5.7-2.3-7.7-4.8
			c-2.1-2.5-4.4-4.8-6.6-7.2c-0.7-0.8-1.2-1.8-1.7-2.7c-0.3-0.5-0.5-1.1-1.1-1.6c0.1,0.5,0.1,1,0.2,1.5c-1.4,2-3.8,2.2-5.7,3.1
			c-3.3-0.6-6.9,0.2-9.9-1.6c-2.2-1.3-4.5-2.8-5.7-5.4c-1-2.2-2.1-4.2-3.2-6.4c-0.3-0.7-0.5-1.5-0.7-2.2c-0.2-0.6-0.4-1.2-0.6-1.7
			c0.2-0.7,0.5-1.4,0.6-2.1c0.2-1.2,0.4-2.4,0.3-3.7c-0.1-2.2,0.8-4.2,1.5-6.2c0.5-1.4,1.7-2.7,2.9-3.6c1.1-0.8,2-1.7,2.8-2.9
			c0.4-0.6,0.8-1.2,1.2-1.8c0.3-0.5,0.8-1,0.8-1.5c0.2-2.7,2.2-4.5,3.3-6.7c0.1-0.2,0.2-0.4,0.2-0.6c0.3-2.1,1.8-3.7,2.1-5.7
			c0.4-2.4,1.8-4,3.5-5.4c1.3-1.1,2.4-2.5,3.5-3.8c1-1.2,2.3-2.2,3.4-3.2c1.8-1.6,3.7-3.2,5.6-4.7c1.4-1,3.1-1.8,4.6-2.7
			c1.2-0.6,2.5-1.1,3.7-1.7c2.8-1.4,5.9-1.8,8.9-2.6c0.2,0,0.4-0.1,0.7,0c3.4,0.6,6.6-0.3,9.9-0.9c1-0.2,2-0.3,3-0.4
			c1.5,0,2.9,0,4.2-0.7c0.2-0.1,0.6-0.2,0.8-0.2c2,0.1,3.9,0.2,5.9,0.2c1.1,0,2.3-0.1,3.4-0.4c2.1-0.6,4.2-1.4,6.3-2.1
			c1.4-0.5,2.9-1,4.3-1.2c0.9-0.1,1.8,0.3,2.7,0.4c1.7,0.1,3.3,0.1,5,0c3.7-0.2,7.1,0.8,10.5,2c1.9,0.7,4,1,6.1,1
			c1.4,0,2.8,0.2,4.2,0.4c2.7,0.5,5.3,1.4,7.8,2.5c3.6,1.5,7.2,2.7,10.9,3.8c1.7,0.5,3.3,1.7,4.8,2.8c1.3,1,2.5,2,4.1,2.7
			c1.5,0.7,2.6,1.6,3.4,3.1c0.7,1.1,2,1.9,3.1,2.8c0.3,0.2,0.7,0.4,0.8,0.7c1,2.7,3.5,4.4,4.3,7.1c0.4,1.2,1.2,2.3,1.9,3.4
			c0.6,1,1.3,2,1.8,3.1c0.4,1.1,1.1,1.4,2.2,1.4c0.6,0,1.2-0.1,1.7,0c1.3,0.3,2.4,0.8,2.4,2.4c0,1.1,0.9,1.6,1.8,2
			c0.8,0.4,1.1,0.9,1.3,1.7c0.5,2.3,1.3,4.5,2.1,6.7c0.8,2.4,0.7,4.9,0.4,7.3c-0.3,2.1-1.8,3.9-3.5,5.3c-3,2.5-6.3,4.6-9.9,6.1
			c-2.6,1-5.3,1.4-8,0.2c-1.9-0.8-1.9-0.7-4.1-0.3c-0.1,2-1.2,3.8-1.9,5.7c-1.1,2.7-2.5,5.2-3.9,7.8c-0.2,0.4-0.4,0.9-0.7,1.1
			c-2.2,1.5-3.7,3.7-5.9,5.2c-0.2,0.2-0.4,0.4-0.6,0.6c-2.5,2.6-5.8,3.7-9.2,4.2c-4.4,0.6-8.8,1.2-13.2,1.8
			c-0.6,0.1-1.2,0.4-1.9,0.6c0.1,0.7,0.1,1.5,0.4,2.2c0.7,1.4,1.7,2.5,3.4,2.4c2.3-0.1,4.6-0.2,6.9-0.5c2.8-0.3,5.5,0,8.2,1
			c2.3,0.9,4.5,1.8,6.6,3c2.6,1.5,5.3,2.8,7.5,5c1.4,1.4,2.8,2.8,4.2,4.3c0.5,0.5,0.9,1.2,1.2,1.8c1.7,3.7,3.6,7.3,5.1,11.1
			c0.8,1.8,1.1,3.8,1.8,6c0,0,0.4,0.2,0.7,0.1c1.6-0.3,3.1-0.2,4.6,0.2c0.1,0,0.3,0.1,0.4,0.1c1.9-1.3,3.9-0.1,5.9-0.2
			c1.9-0.1,3.8,0.6,5.7,0.7c1.9,0.1,3.8,1.1,5.7,0.1c0.4-0.2,1-0.1,1.5,0.1c1.4,0.5,2.6,0.4,4,0c0.8-0.2,1.8,0.1,2.7,0.3
			c1.1,0.2,2-0.4,1.6-1.3c-0.7-2.1,0.2-4.1,0.1-6.2c-0.2-4.5-0.3-9-0.1-13.5c0.1-2.2,0.4-4.4,1.6-6.4c0.4-0.6,0.6-1.5,0.6-2.2
			c-0.2-3.3-0.5-6.5-0.8-9.8c0-0.1-0.1-0.3,0-0.4c1-1.5,0.7-3.3,1.1-5c0.6-2.5,1.5-4.9,0.7-7.6c-0.2-0.7,0.2-1.7,0.3-2.5
			c0.5-2.2-0.1-4.4,0-6.6c0.1-2.2,0-4.5,0-6.7c0-0.3,0.1-0.7,0-0.9c-1.5-1.6-0.8-3.4-0.3-4.9c0.7-2.5,0.8-5,0.8-7.6
			c0-2.7,0-5.4,0-8.1c-0.1-5.9-0.4-11.7-0.4-17.6c0-3.5,0.4-6.9,0.4-10.4c0-3.1-0.4-6.2-0.4-9.3c0-2.4,0.3-4.8,0.4-7.2c0-1,0-2,0-3
			c0.8-0.6,1.4-1,2.4-0.6c0.6,0.2,1.5-0.2,2.3-0.2c3.4-0.2,6.8-0.4,10.2-0.5c1.1,0,2.1,0.2,3.2,0.4c0.3,0,0.6,0.2,0.9,0.1
			c2.4-0.9,4.9,0,7.3-0.3c2.3-0.3,4.8-0.1,7.2-0.1c0.9,0,1.8-0.2,2.8-0.3c0.3,0,0.6-0.1,0.9-0.1c2.5,0.2,5,0.5,7.5,0.7
			c0.3,0,0.6,0.2,0.8,0.1c2.4-1,4.9,0.1,7.3,0c3.2-0.1,6.5-0.4,9.7-0.4c1.7,0,3.4,0.4,5.1,0.6c1.2,0.1,2.4,0.1,3.6,0
			c4-0.4,7.9-1.2,12-0.3c0.3,0.1,0.8,0.1,1.1,0c2.7-1.1,5.2-0.1,7.8,0.2c0.2,0,0.4,0.2,0.6,0.2c3.3,0.3,6.6,0.6,9.9,0.9
			c1.3,0.1,2.6,0.4,3.8,0.4c1.4,0,2.7-0.2,4.1-0.4c0.6,0,1.2-0.1,1.7,0c2,0.1,4,0.2,6,0.4c2.6,0.2,5.3,0.6,7.9,0.8
			c0.6,0.1,1.2,0.1,1.7,0c3.6-0.2,7.1,0.6,10.6,1.5c1.4,0.4,3,1,4.6,0.4c1.2-0.4,2.2,0.7,2.1,2c-0.1,1.1-0.4,2.1-0.4,3.2
			c0,3.6-0.2,7.2-1.2,10.7c-0.2,0.6,0,1.3-0.1,1.9c-0.1,1.4-0.3,2.9-0.4,4.3c0,0.6,0.1,1.3,0.1,1.9c0,1.7,0,3.4,0,5.1
			c0,1.4-0.1,2.9-0.1,4.3c-0.1,2.6-0.1,5.1-0.7,7.7c-0.5,2.3-0.5,4.7-1.1,7c-0.3,1.5-0.5,3-0.9,4.4c-0.5,1.7-0.3,3.4-0.2,5.1
			c0.2,2.7,0.1,5.5,0,8.2c-0.2,2.8-0.7,5.5-1,8.3c-0.2,1.7-0.6,3.4-0.7,5.1c-0.2,2.3-0.1,4.6-0.2,6.9c-0.1,1.9-0.2,3.9-0.3,5.8
			c0,0.6-0.1,1.2,0,1.7c0.4,2.3,0.3,2.4-1.7,3.5c0,0.2-0.1,0.5,0,0.6c2.2,2.2,1.8,5.3,2.4,8c0.4,1.6-0.3,3.5-0.9,5.2
			c-0.5,1.4-0.6,2.6-0.5,4.1c0.3,4.8,0.3,9.7-0.1,14.5c-0.1,1.7-0.6,3.5-0.6,5.3c0,0.9-0.3,1.8-0.4,2.7c-0.5,4.3-0.8,8.6-1.4,12.8
			c-0.3,2.5-1,4.9-1.5,7.3c-0.3,1.8-0.5,3.5-0.7,5.3c-0.3,3.5-0.6,7-0.8,10.5c-0.1,1.8-0.4,3.5-0.8,5.3c-0.3,1.4,0.3,3.1,0.5,4.7
			c0.7,0.3,1.5,0.7,2.3,0.9c0.8,0.3,1.7,0.7,2.5,0.5c1.7-0.3,3.3,0,4.9,0c3.5,0,7,0.7,10.5,1.2c0.1,0,0.1,0,0.2,0c1,0,2.3-0.5,3.1,0
			c1,0.5,1.9,0.4,2.9,0.5c1.2,0.1,2.4,0.4,3.6,0.4c1.3,0,2.6-0.2,3.9-0.3c1.9-0.1,2.1,0.3,1.2,2.5c-1.7-0.6-3.4-1.1-5.3-1.8
			c-0.3,0.2-0.8,0.5-1,0.9c-0.4,0.7-1,0.8-1.6,0.8c-3-0.1-5.9-0.3-8.8-0.4c-1.1,0-2.3,0.3-3.4,0.5c-3.5,0.4-7,0.5-10.6,0
			c-1.3-0.2-2.7,0-4.4,0c0,1.5-0.4,3.1,0,4.5c0.6,2.3-0.3,4.4-0.6,6.5c-0.1,0.7-0.4,1.4-0.4,2.1c0,1.4,0,2.8-1.1,3.8
			c0,0-0.1,0.1-0.1,0.2c0.1,3.2-2.6,2.6-4.3,2.8c-2,0.2-4-0.4-6-0.3c-2.1,0.1-4.2-0.5-6.4-0.2c-2.9,0.4-5.9,0-8.7-1
			c-0.3-0.1-0.7-0.2-1-0.2c-1.7,0.3-3.5,1-5.2,1.1c-2.6,0.2-5.2,0-7.8,0c-0.9,0-1.9-0.4-2.8-0.1c-2.7,0.8-5.3-0.1-7.9-0.2
			c-3-0.2-6.1-0.1-9.1-0.1c-0.3,0-0.8,0.3-1,0.2c-1.8-1-2.8,0.4-3.5,1.5c-1.9,2.9-4.5,5.2-6.8,7.7c-0.6,0.7-1.4,1.2-2.2,1.7
			c-2.6,1.7-5.2,3.4-7.9,4.9c-3.1,1.7-6.2,3.2-9.4,4.7c-1.6,0.8-3.3,1.3-5.1,1.6c-1.4,0.2-2.8,0.6-4.1,1c-2.9,0.9-5.9,1.8-8.8,2.7
			c-0.2,0.1-0.3,0.3-0.2,0.2c-0.2,1.2-0.2,2.3-0.6,3.1c-0.8,1.7-1.4,3.5-2.7,5.1c-0.7,0.9-0.8,2.3-1.3,3.4c-0.4,0.8-0.9,1.6-1.5,2.3
			c-1.4,1.5-2.8,2.9-3.2,5c-0.1,0.4-0.3,0.9-0.7,1.1c-1.6,0.7-2.2,2.5-4.1,3c-0.9,0.2-1.5,1.6-2.5,2.7c1.6,0.2,3,0.3,4.4,0.6
			c0.9,0.2,1.8,0.6,2.6,0.9c2.1,0.6,4.3,1,6.4,1.6c2.8,0.7,4.2,2.6,5.7,4.6c0.3,0.4,0.5,0.9,0.7,1.3c1.6,2.5,1.6,4.6-0.4,6.7
			c-1,1-1.3,2-1.2,3.3c0.1,2.5-1.1,3.8-3.7,4.8c-1.4,0.5-2.7,1-4.2,0.9c-0.5,0-1.2,0.4-1.4,0.8c-0.8,1.4-2.2,1.8-3.6,2
			c-3,0.5-6.2,1.5-9.1,1.2c-3.3-0.4-6.2,0.8-9.4,0.7c-2.1-0.1-4.2-0.3-6.2-0.3c-1.3,0-2.7,0.1-4,0.5c-1,0.3-1.7,0.3-2.8,0
			c-1.8-0.6-3.7-0.2-5.2,1c-1,0.7-1.9,1.3-3.2,1.1c-0.3,0-0.7-0.1-0.8,0.1c-2.4,1.9-5,0.3-7.4,0.6c-2.5,0.4-4.9-0.9-7.4,0.1
			c-1.1,0.4-2.5,0.3-3.7,0c-2.5-0.5-5-0.6-7.5,0c-0.5,0.1-1,0-1.5,0.1c-2,0.1-4,0.1-6,0.5c-2.9,0.5-5.7,0.6-8.6,0
			c-0.8-0.2-1.7,0-2.6-0.1c-2.4-0.2-4.7-0.5-7.1-0.8c-0.2,0-0.4-0.1-0.6-0.1c-1.5,0.1-3.1,0.5-4.4,0.2c-1.4-0.4-2.8-0.6-4.2-0.6
			c-0.5,0-1,0-1.5-0.2c-1.2-0.3-2.2-0.5-3.3,0.4c-0.6,0.5-1.5,0.5-2.3,0.6c-0.9,0.1-1.9-0.2-2.4,1c-0.1,0.2-0.5,0.3-0.8,0.3
			c-2-0.4-3.6,0.4-5.3,1.4c-0.7,0.4-2,0.2-2.8-0.1c-0.7-0.2-1.3-0.5-2-0.2c-0.4,0.2-1,0.1-1.5,0.1c-1.6,0-3.3,0-4.9,0
			c-1.3,0-2.6-0.1-3.9-0.2c-0.2,0-0.4-0.1-0.6-0.1c-1.4,0.1-2.7,0.4-4.1,0.3c-1.2-0.1-2.3-0.9-3.7-0.9c-1.9,0.1-3.7-0.3-5.6-0.4
			c-1.9-0.1-3.8,0.1-5.7,0.1c-1.1,0-2.2,0-3.2-0.1c-0.8-0.1-1.5-0.3-2.3-0.5c-0.3-0.1-0.8-0.5-1-0.3c-1.4,0.6-2.5-0.2-3.7-0.4
			c-1.2-0.1-2-0.7-2.8-1.4c-2.6,0.6-5.1,1.2-7.6,1.7c-0.5,0.1-1-0.1-1.5-0.2c-1.7-0.5-3.4-0.8-5.1-0.6c-2.1,0.2-4.1-0.2-6.2-0.8
			c-2.8-0.8-5.7-1.5-8.6-2.1c-1-0.2-2-0.2-3-0.1c-2.8,0.5-5.7,0.4-8.5,0.5c-2.5,0.1-4.7-0.6-7.1-0.9c-0.8-0.1-1.8-0.4-2.4-1
			c-1.2-1.2-2.5-1.2-4-1.2c-1.3,0-2.6-0.2-3.8-0.5c-0.7-0.2-1.3-0.9-1.7-1.4c-1.7-2.1-3-2.5-5.6-1.8c-1.4,0.4-2.7-0.1-3.9-0.6
			c-1.5-0.6-2.8-1-4.5-0.6c-1.4,0.4-3,0.4-4.6-0.5c-1.1-0.6-2.6-0.6-4-0.6c-1.2,0-2.3-0.5-3.1-1.2c-1.4-1.2-2.8-2.4-4.2-3.7
			c-2.9-2.7-3.4-6.7-1.8-10.3c1-2.3,3-3.5,4.8-4.8c2-1.4,4.2-2.5,6.5-3.3c1.9-0.7,3.9-0.9,5.9-1.1c2.8-0.3,5.6-0.4,8.4-0.5
			c0,0,0.1-0.1,0.3-0.4c-1.1-1.1-2.2-2.3-3.4-3.4c-0.2-0.2-0.4-0.3-0.5-0.4c-3.3-4.5-7.2-8.7-9-14.1c-0.3-0.9-0.5-1.8-0.8-3
			c-2.2-0.3-4.6-0.5-6.9-0.8c-2.5-0.4-4.9-1.2-7.1-2.3c-1.1-0.5-2.2-1.1-3.4-1.4c-3.4-1.1-6.7-2.4-9.8-4.3c-2.5-1.5-5.2-2.8-7.7-4.4
			c-2.5-1.6-5.1-3-6.7-5.6c-0.9-1.3-2-2.4-3-3.7c-0.1-0.2-0.3-0.3-0.5-0.4c-2.6-0.9-3.9-3-4.9-5.4c-0.1-0.2-0.2-0.4-0.3-0.6
			c-2-1.7-1.8-4.1-2.1-6.4c-0.5-3.3-1-6.6-1.6-9.8C44.5,301.5,44.3,301.1,44.1,300.7 M334,246c4,1,7.5,2,11,2.8c1,0.2,2,0.1,3,0.3
			c3.2,0.8,6.4,1.5,9.5,2.5c3.1,1,6.2,2.2,9.3,3.4c1.8,0.7,3.6,1.5,5.2,2.5c2,1.2,3.7,2.9,6.5,2.7c1.1-0.1,2.2,1,3.3,1.3
			c1.6,0.4,3,1,4.5,1.8c4.3,2.4,8.7,4.7,11.8,8.6c0.8,0.9,1.4,2,2.1,3c0.3,0.4,0.7,0.8,1,1.2c0.2,0.3,0.6,0.5,0.7,0.8
			c1.2,2.5,2.2,5.1,3.5,7.6c1.3,2.5,1.5,5.4,2.5,8c0.8,2,1.4,4.4,0.6,6.7c-0.1,0.4,0,0.9-0.1,1.4c-0.1,0.8-0.2,1.6-0.4,2.3
			c-0.4,1.2-1,2.4-1.3,3.6c-0.3,1.4-0.2,2.8-0.4,4.2c-0.3,1.7-0.7,3.3-1,4.9c2.6,0.3,5.4,0.4,8.2,1.3c1.5,0.5,3.3,0.5,4.9,0.5
			c1.5,0,3-0.3,4.5-0.4c0.8-0.1,1.6,0,2.4-0.1c2.1-0.2,4.3-0.6,6.4-0.7c1.8-0.1,3.6,0.4,5.4,0.4c5.4-0.1,10.9,0.5,16.3-0.4
			c0.4-0.1,0.9,0,1.3,0c0.8,0,1.6,0.1,2.4,0.2c0.4-1.4,0.8-2.5,0.3-3.7c-0.1-0.4,0.1-1,0.4-1.4c0.5-0.7,1.1-1.3,1.4-1.6
			c0-1.4,0-2.4,0-3.5c0-1.6,0-3.3-0.2-4.9c-0.5-3-0.6-6.1,0.2-9c0.9-3.6,1.2-7.2,1.3-10.9c0.1-2.2-0.1-4.3,0-6.5
			c0.1-2.1,0.4-4.3,0.6-6.4c0.2-1.8,0.5-3.7,0.7-5.5c0.2-1.4,0.2-2.9,0.5-4.3c0.4-2.6,0.9-5.2,1.3-7.9c0.4-2.8,0.6-5.6,0.9-8.3
			c0.3-3.2,0.6-6.4,0.8-9.7c0.1-1.6,0-3.1,0.5-4.7c0.4-1.1,0.3-2.3,0.4-3.4c0.1-1.2-0.9-2.5,0.4-3.6c0.1-0.1,0-0.3,0-0.4
			c-0.7-2.8-0.4-5.6,0.1-8.5c0.2-1.1,1-2.3-0.3-3.4c-0.2-0.1-0.1-0.7,0.1-1c1.2-2.6,0.8-5.4,1.1-8.1c0.4-3.6,0.1-7.4,0.6-11
			c0.4-2.9,0.5-5.9,0.7-8.8c0.2-2.5,0-5,0.1-7.5c0-0.8,0.2-1.6,0.3-2.3c0.2-1.7,0.7-3.5,0.5-5.1c-0.3-1.8-0.2-3.4,0.1-5.1
			c0.1-0.7,0.4-1.4,0.4-2.1c0.2-4.1,0.3-8.1,0.5-12.2c0-0.8,0.3-1.5,0.4-2.3c0.5-2.3,0.8-4.6,0.3-7.1c-0.3-1.7-0.1-3.4-0.1-5.1
			c0-0.5,0.2-1,0.2-1.5c0.2-3.2,0.3-6.5,0.4-9.7c0-0.3,0-0.6,0.1-0.9c0.3-1.7,0.1-2.1-1.5-2.5c-2.2-0.5-4.5-1.1-6.7-1.2
			c-1.7,0-3.4-0.4-5.1-0.4c-2.2,0-4.3-0.4-6.5,0.2c-0.1,0-0.1,0-0.2,0c-1.6-0.4-3.2-0.8-5-1.2c-1,1.4-2.6,1.2-4.2,1.3
			c-5.4,0.4-10.5-1.5-15.8-2c-2.2-0.2-4.4-0.4-6.7-0.5c-1.1,0-2.3,0.3-3.4,0.3c-2.1,0-4.1,1.1-6.2,0.6c-0.1,0-0.1,0.1-0.2,0.1
			c-2,0.9-4.1,0.7-6.1,0.3c-2-0.4-4-0.8-5.9-0.8c-3.5,0-6.9,1.4-10.4-0.1c-0.3-0.1-0.7,0-1.1,0c-1.7,0-3.4,0-5.2,0
			c-4.2,0-8.4,0-12.5-0.8c-1.5-0.3-3.3-0.3-4.7,0.1c-2.9,0.8-5.8,1.1-8.7,1.1c-1.2,0-2.5-0.3-3.5,0.7c-0.3,0.2-0.9,0.3-1.2,0.1
			c-2.5-0.9-5.1-0.5-7.7-0.4c-2,0-4-0.1-6.1-0.1c0,2.3,0,4.6,0,6.9c0,3.9-0.1,7.9-0.2,11.8c0,1.8-0.2,3.6-0.2,5.5
			c0,0.4,0,0.7,0.1,1.1c0.5,2.2,0.5,4.4,0,6.6c-0.3,1.4,0,2.9,0.1,4.3c0,1.6,0.1,3.1,0.1,4.7c0,0.4-0.2,0.8-0.2,1.2
			c0.1,1.8,0.3,3.6,0.2,5.4c0,2.2-0.6,4.5-0.2,6.7c0.3,2.3,0.2,4.5,0.1,6.8c-0.1,1.2-1,2.1-0.8,2.9c0.5,2-0.7,3.1-1.6,4.1
			c0.4,0.6,1.2,1.2,1.2,1.8c0.1,1.7-0.2,3.4-0.3,5.2c-0.1,2.1-0.1,4.2,0,6.3c0.1,1.9,0.5,3.8,0.7,5.7c0,0.2-0.1,0.4-0.1,0.6
			c0,0.7,0,1.4,0,2c0,0.6,0.2,1.4,0,1.9c-1,3.1-0.3,6.4-1.5,9.5c-0.1,0.2,0.1,0.5,0.2,0.8c0.2,1.4,0.7,2.8,0.6,4.1
			c-0.3,3.1-0.9,6.2-1.3,9.3c-0.2,1.7-0.9,3.4-0.2,5.3c0.5,1.3,0.5,2.8,0.4,4.2C334.4,241,334.2,243.6,334,246 M296.2,260.7
			c4.2,0.2,8.5,1.2,12.9,0.2c0.1,0,0.3,0.1,0.4,0.1c2.1,0.5,4.1,0.4,6.2-0.1c1-0.2,2.1,0,3.2,0.1c3.4,0.3,6.4,2.5,9.9,2.6
			c1.4,0,2.7,0,4.1,0.2c3.7,0.4,7.3,1.2,10.6,3.1c1.5,0.8,2.9,1.8,4.5,2.2c2.4,0.6,4.5,1.8,6.6,3.1c0.4,0.2,0.8,0.5,1,0.8
			c0.8,2.1,2.8,2.6,4.4,3.4c1.1,0.5,1.9,1.1,2.6,2.1c1.2,1.6,2.9,2.8,3.7,4.7c0.3,0.8,0.9,1.4,1.3,2.2c0.9,2.1,1.8,4.2,1.4,6.6
			c0,0.3,0.2,0.5,0.2,0.8c0.6,2.3,0.9,4.5,0.1,6.8c-0.4,1.1-1,2.1-1.2,3.2c-0.4,2-1.5,3.7-2.8,5.2c-2.5,2.9-4.9,5.7-7.4,8.5
			c-1.4,1.5-2.8,3-4.3,4.5c-0.5,0.5-1.2,0.8-1.7,1.2c-2.2,1.6-4.2,3.7-7.2,4.1c-0.2,0-0.4,0.2-0.6,0.3c-2.6,1.4-5.1,2.9-7.9,3.9
			c-0.9,0.4-1.9,0.7-2.7,1.2c-2.3,1.5-4.8,1.8-7.4,2c-2,0.2-3.9,0.4-5.7,1.3c-2.2,1.1-4.3,2.5-6.9,2.7c-1.7,0.2-3.4,0.7-4.7,2
			c-0.4,0.4-1,0.8-1.5,0.8c-2.6,0-5.2,0.5-7.6-1.4c-1.2,1.3-2.7,1.7-4.4,2.1c-2.4,0.5-4.7,0.7-7.1,0.7c-0.4,0-0.9-0.1-1.3,0
			c-1.7,0.7-3.4,0-5.1,0.2c-1.8,0.2-3.5,0.7-5.3,0.6c-0.6,0-1.2,0.1-1.7-0.2c-0.8-0.3-1.4-0.2-2.1,0.1c-2.9,1.2-6,1.4-9.1,1.4
			c-4.3,0-8.6-0.4-12.9,0.3c-1.9,0.3-4-0.4-6-0.3c-2.2,0-4.3-0.4-6.5,0c-1.1,0.2-2.1,0.3-3.1,0.7c-0.7,0.3-1.5,0.1-2.3,0.1
			c-1,0-2.1-0.1-3.1-0.2c-0.6,0-1.2,0.1-1.8-0.1c-3.2-1-6.2-0.3-9,0.9c-0.7-0.2-1.3-0.4-1.9-0.5c-0.5-0.1-1.2,0.1-1.5-0.1
			c-1.8-1.4-3.9-0.7-5.8-1.1c-2.2-0.5-4.5-0.6-6.7-1c-1-0.2-1.9-0.5-2.9-0.1c-0.6,0.2-1.4-0.1-2-0.3c-1.3-0.6-2.7-1.3-3.9-0.8
			c-2.1,1-4.2-0.7-6.2,0.3c-0.1,0.1-0.4-0.1-0.6-0.3c-1.2-0.9-2.3-0.4-3.5,0.3c-0.7-0.5-1.6-1.3-2.4-0.3c-1,1.1-2.3,0.8-3.4,0.7
			c-1.3,0-2.5-0.2-3.8-0.4c-0.5-0.1-0.9-0.3-1.4-0.4c-0.7-0.1-1.5-0.3-2.3-0.3c-1.2-0.1-2.4,0-3.7-0.1c-1.9-0.2-3.6-1.2-5.6-1.1
			c-0.8,0.1-1.7,0-2.4-0.2c-1.4-0.4-2.9-0.6-4.1-1.7c-0.5-0.4-1.5-0.3-2.2-0.4c-1.4-0.2-2.8-0.5-4.1-0.7c-1.3-2.2-3.8-0.6-5.6-1.9
			c-0.8-0.6-2.5-0.2-3.7-0.1c-1.4,0.1-2.4-1.1-3.9-0.7c-0.7,0.2-1.6-0.7-2.4-1.1c-1.7-1.1-3.8-1.5-5.3-3c-0.2-0.2-0.4-0.3-0.7-0.4
			c-1.6-0.4-3.2-0.8-4.8-1.1c-1.1-0.2-2.2-0.1-3.2-0.4c-3-1-5.9-2.3-8.8-3.4c-0.6-0.2-1.1-0.8-1.7-0.7c-1.6,0.1-2.9-0.6-4.3-1.2
			c-3.1-1.3-5.6-3.5-8.2-5.5c-2.1-1.7-4.1-3.5-5.7-5.5c-2.1-2.6-3.8-5.6-5.6-8.4c-1.4-2.3-2.1-4.9-1.7-7.5c0.2-1.4,0.3-2.8,0.3-4.2
			c0-1.1,0-2.2,0.5-3.1c1.2-2.6,1.8-5.3,1.8-8.2c0-0.7,0.3-1.6,0.7-2.2c1-1.4,1.9-2.9,3.1-4.1c1.8-1.8,3.7-3.6,5.8-5
			c2-1.3,4.2-2.1,6.5-2.9c2.9-1,5.9-1.7,8.8-2.7c3-1.1,6.3-0.3,9.3-1.6c0.2-0.1,0.5,0.2,0.8,0.2c2.2,0.2,4.5,0.5,6.7,0.5
			c2,0,4-0.4,5.9-0.6c1.7-3.6,1.9-7.5,1.9-11.7c-2.1,0.2-4,0.3-6,0.4c-0.4,0-0.9,0-1.3,0c-2-0.2-4-0.4-6-0.7
			c-2.2-0.4-4.2,1.1-6.4,0.1c-0.1,0-0.3,0.1-0.4,0.1c-2.5,0.6-4.9,1.3-7.4,1.9c-1.2,0.3-2.5,0.7-3.8,0.9c-2.8,0.2-5.7,0.3-8.5,0.5
			c-0.4,0-1-0.1-1.3,0.1c-1.4,1.1-3.2,1.2-4.6,2c-2.6,1.6-5.6,2-8.2,3.4c-2.1,1.1-4.6,1.4-6.9,2.3c-1.8,0.7-3.9,0.7-5,2.7
			c-0.2,0.4-0.8,0.5-1.2,0.9c-0.4,0.4-0.8,0.8-1.2,1.2c-0.6,0.6-1.2,1.2-1.9,1.7c-0.8,0.6-1.6,1.2-2.4,1.7c-1,0.7-2.1,1.3-2.9,2.1
			c-1,1-1.7,2.2-2.7,3.3c-1.8,2.1-2.1,5.2-4.2,7.2c-0.1,0.1-0.1,0.3-0.2,0.4c-1,3.2-2,6.4-3,9.7c-0.3,1-0.4,2.1-0.5,3.2
			c-0.2,1.9-0.4,3.9-0.5,5.8c0,1.1,0.2,2.3,0.4,3.4c0.4,2.2,0.7,4.4,1.2,6.5c0.7,3.1,2.5,5.8,4.4,8.3c1.5,2.1,3.3,4.1,5.2,5.8
			c2.1,1.9,3.9,4.3,6.9,5.1c0.7,0.2,1.4,0.7,2.1,1.1c4.4,3.2,9.6,4.8,14.5,7c2.6,1.1,5.2,2,7.8,3.1c0.8,0.3,1.6,1,2.5,1.2
			c1.4,0.4,2.9,0.7,4.4,1c0.8,0.2,1.6,0.5,2.3,0.3c1-0.3,1.8-0.1,2.6,0.4c0.5,0.3,1.1,0.4,1.6,0.6c1.2,0.3,2.4,0.5,3.5,0.8
			c1.9,0.6,3.7,1,5.7,0.9c0.9,0,1.8,0.2,2.8,0.3c2.7,0.3,5.4,0.8,8.1,0.9c3.4,0.2,6.7,0,10.1,0.8c3,0.7,6.2,0.8,9.2,1.8
			c1.7,0.6,3.4,0.9,5.2,1.3c1.9,0.4,3.8,0.6,5.7,1c2.2,0.5,4.3,1.1,6.4,1.6c1.4,0.3,2.8,0.5,4.2,0.7c2.5,0.4,5,0.7,7.4,1
			c1.6,0.2,3.3,0.3,4.9,0.5c3.1,0.4,6.1,0.9,9.2,1.2c2.8,0.3,5.6,0.3,8.4,0.5c0.4,0,0.8,0.3,1.2,0.3c1.7-0.1,3.6,1.1,5-0.8
			c0.2-0.2,0.6-0.3,1-0.3c2.5-0.2,5-0.4,7.5-0.4c2.7,0,5.3,0.4,8,0.4c10.4-0.1,20.7-0.3,31.1-0.3c2.9,0,5.9,0.5,8.8,0.8
			c-0.2,1-0.3,1.9-0.5,2.9c-0.5,0.2-0.9,0.5-1.4,0.5c-3.1,0.3-6.2,0.6-9.3,0.9c-1.1,0.1-2.3,0-3.4-0.1c-2.1-0.1-4.2-0.3-6.2-0.4
			c-0.2,0-0.6,0.2-0.7,0.4c-0.5,0.7-1.2,0.6-1.9,0.7c-2.8,0.3-5.6-0.6-8.3,0c-0.1,0-0.3,0-0.4,0c-1,0-2.1-0.2-2.9,0.1
			c-2.1,0.8-4.2,0.8-6.4,0.8c-1.2,0-2.5-0.1-3.7,0.1c-2.5,0.5-5,0.5-7.5,0c-2.5-0.5-4.9-1-7.5-0.2c-0.7,0.2-1.7,0.3-2.4,0
			c-2.1-0.9-4.3-0.2-6.4-0.4c-0.7-0.1-1.5,0.1-2.2-0.1c-2.9-0.9-6-0.8-8.9-2c-1.9-0.8-4.2-0.7-6.3-1c-2.1-0.3-4.1-0.5-6.2-0.9
			c-2.4-0.4-4.7-1.2-7.1-1.5c-1.8-0.2-3.4-1.3-5.4-1.2c-2.7,0.2-5.5,0.1-8-1.2c-0.2-0.1-0.6-0.1-0.8-0.2c-1.7-0.2-3.3-0.4-5-0.6
			c-2.1-0.3-4.1-0.7-6.2-1c-1.1-0.1-2.1-0.4-3.1-0.6c-2.2-0.4-4.3-1-6.4-1.5c-2.1-0.5-4.3-0.4-6.4-0.5c-2.6-0.1-5.1-0.6-7.6-1.4
			c-1.6-0.5-3.2-1.4-5-1.1c0,0.3,0,0.6,0.1,0.7c1.6,2.6,3,5.2,5.2,7.4c0.9,0.9,2,1.7,2.4,2.7c1.3,3,4.4,4.4,5.8,7.2
			c0.2,0.3,0.7,0.5,1,0.7c0.8,0.5,1.5,1.1,2.3,1.6c1,0.6,2,1.6,3,1.6c2.1-0.1,3.5,1,5.1,1.9c1.2,0.7,2.3,1.4,3.6,1.9
			c2,0.8,4.1,1.4,6.2,2.1c2.4,0.8,4.9,1.7,7.3,2.5c0.3,0.1,0.8,0.2,1.1,0.1c1.2-0.4,2.2,0.1,3.3,0.4c1,0.3,2,0.7,3.1,0.9
			c3.3,0.9,6.9,0.5,10.1,1.7c0.2,0.1,0.4,0,0.6,0c3.6-0.9,7.2,0,10.7,0.2c1,0,2.1,0.1,2.9,0.6c0.9,0.6,1.7,0.7,2.7,0.6
			c1.7-0.1,3.3,0.1,4.8,1c0.4,0.2,1,0.3,1.4,0.3c2.8,0.2,5.6,0.1,8.4,0.5c2.2,0.3,4.4,0.6,6.4,1.6c1,0.5,2.5,0.7,3.5,0.4
			c2.4-0.8,4.9-0.6,7.3-0.6c4-0.1,8.1,0.3,12.1,0.4c2.6,0.1,5.2,0,7.8,0c1.9,0,3.7,0.1,5.3,1.3c0.3,0.3,0.8,0.4,1.2,0.4
			c2.9,0.2,5.9,0.4,8.8,0.4c3.6,0,7.2-0.2,10.9-0.4c0.5,0,1,0,1.5,0c3.4-0.3,6.7-0.6,10.1-0.8c0.4,0,0.7,0,1.1-0.1
			c4-0.9,7.9-1.3,12-1.2c0.6,0,1.2-0.1,1.7-0.1c2.8-0.4,5.5-0.8,8.3-1.2c2.3-0.3,4.6-0.6,6.8-1c3.1-0.7,5.9-2.1,9.1-2.3
			c2.5-0.1,4.6-1.3,6.9-2c2-0.6,4-1.2,5.8-2.2c5.8-3.1,10.9-7.3,15.7-11.7c2.8-2.6,5.5-5.3,7.4-8.7c1.3-2.3,2.4-4.7,3.8-7.4
			c-1.7,0.7-3.1,1.1-4.2,1.8c-2,1.4-4.1,2.3-6.6,2.2c-0.6,0-1.3,0.3-1.9,0.4c-0.7,0.1-1.4,0.4-2.1,0.4c-2.9,0.2-5.8,0.4-8.7,0.6
			c-1.8,0.2-3.7,0.5-5.5,0.8c-0.8,0.1-1.6,0.4-2.3,0.3c-2.4-0.3-4.7-0.9-7.2-0.1c-1.6,0.5-3.1,0.9-4.6,1.7c-0.3,0.2-0.7,0.3-1,0.3
			c-2.8,0.4-5.6,0.8-8.5,1.2c-0.9,0.1-1.7,0.2-2.6,0.3c-2.1,0.3-4.3,1.1-6.3,0.9c-3-0.3-6-0.3-9,0c-1.2,0.1-2.5,0-3.7,0
			c-1.8,0-3.6,0-5.3,0.1c-1.4,0.1-2.8,0.4-4.3,0.5c-0.6,0.1-1.2-0.2-1.8-0.1c-2.7,0.3-3.8-0.3-4.8-3.2c1.4,0,2.7,0.1,3.9-0.1
			c3.5-0.7,7-0.9,10.5-0.8c0.7,0,1.3,0.1,2,0c2.1-0.4,4.1-1,6.3-0.5c1,0.2,2.1,0.1,3.1,0c2.5-0.3,4.9-1.4,7.4-0.5
			c0.2,0.1,0.5-0.2,0.8-0.2c1.8-0.2,3.6-0.4,5.3-0.5c1.5-0.1,3.1,0.2,4.6-0.1c3.6-0.8,7.3-1.2,11-2c4.4-1,8.9-1.6,13.4-1.9
			c2-0.1,4-0.4,5.9-1c3.1-1.1,6-2.7,9.3-3.3c0.3,0,0.5-0.3,0.7-0.5c0.4-0.3,0.7-0.6,1.2-0.7c1.5-0.5,3-0.9,4.5-1.5
			c3-1,6-2.5,9.3-2.5c1.3,0,2.7-0.4,4-0.8c1.4-0.4,2.7-1.1,4.1-1.3c2.9-0.5,5.3-1.9,7.7-3.4c3.3-2,6.5-4.1,9.7-6.2
			c3.1-2,6.2-4.2,8.9-6.8c2.5-2.4,4.3-5.3,6.5-8c0.7-0.9,1.1-2.2,1.3-3.3c0.4-2,1.6-3.5,3-4.9c-1.8-1.4-1.3-3.2-1.1-5
			c0.2-1.8,0.3-3.6,0.1-5.4c-0.3-2.4-1.2-4.7-1.5-7.1c-0.7-4.9-3.4-8.8-6.5-12.3c-2.4-2.7-5.1-5.4-8.2-7.5
			c-3.8-2.6-7.6-5.1-12.4-5.7c-0.6-0.1-1.3-0.3-1.8-0.6c-1.5-0.8-2.9-1.9-4.4-2.6c-2.1-0.9-4-2.4-6.6-2.5c-1.7-0.1-3.5-0.6-4.9-1.5
			c-2.6-1.6-5.5-1.5-8.2-2.3c-3.1-0.9-6.4-0.6-9.4-1.9c-0.5-0.2-1.1-0.1-1.7-0.2c-1.6-0.2-3.3-0.4-4.9-0.7c-1-0.2-2-0.8-3.1-1
			c-1.7-0.3-3.4-0.3-4.8-1.6c-0.2-0.2-0.6-0.2-0.8-0.1c-1.7,0.4-3.3,0.9-5,1.3c-1.3,0.3-2.5,1-4.1,0.5c-1.8-0.6-3.8-0.8-5.7-0.9
			c-1.7-0.1-3.4-0.3-5.1-0.8c-2.5-0.7-5-0.4-7.6,0.5C296.2,253.1,294.4,256.9,296.2,260.7 M135,274.8c-1.2-0.1-2.3,0.1-3.3-0.2
			c-1-0.3-1.9-0.5-2.9,0c-0.3,0.1-0.7,0.1-1.1,0.1c-1.5-0.2-2.9-0.5-4.4-0.8c-0.3,0-0.6,0-0.8,0.1c-1.2,0.6-2.4,1.2-3.6,1.7
			c-0.3,0.1-0.8,0.3-1,0.2c-1.4-0.6-2.7,0.1-4,0c-1.1-0.1-1.9,0.3-2.8,0.8c-1.3,0.7-2.7,1.6-4.1,1.7c-2.6,0.2-4.9,1.3-7.2,2.4
			c-2.2,1.1-4.2,2.5-6.3,3.7c-2.5,1.5-3.9,3.7-4.1,6.6c-0.1,0.9-1,1.6-0.8,2.6c-1.7,0.5-1.3,2-1,3c0.9,3,2.2,5.9,4.3,8.3
			c0.4,0.5,1,1,1,1.6c0.1,1.5,1.1,2.2,2,2.9c1.1,1,2.3,1.9,3.5,2.8c1.5,1.1,3.1,2,4.6,3.1c1.8,1.3,3.4,2.9,5.5,3.8
			c0.8,0.4,1.7,0.9,1.6,2.1c0,0.3,0.5,0.9,0.9,1c2.2,0.7,4.4,1.2,6.6,1.8c0.6,0.2,1.1,0.3,1.6,0.5c1.8,0.7,3.6,1.5,5.4,2
			c3.3,0.9,6.7,1.5,10,2.3c1.7,0.4,3.5,0.8,5.2,1.2c1.2,0.3,2.3,0.6,3.5,1c2.7,0.8,5.6,1,8.3,2c1.2,0.5,2.6,0.7,3.9,1
			c0.8,0.2,1.7,0.3,2.5,0.4c1.4,0.3,2.8,0.7,4.2,0.9c3.1,0.5,6.3,0.9,9.4,1.3c0.7,0.1,1.5-0.3,2.2-0.5c0.4-0.1,0.9-0.4,1.2-0.3
			c1.5,0.5,3.1,0.3,4.5,0.5c2.4,0.4,4.7,0.4,7,0.4c3.1-0.1,6.2,0.2,9.3,0.4c1.6,0.1,3.3,0.2,4.9,0.5c4,0.7,8.1,1.3,12.2,1.2
			c0.7,0,1.5,0,2.2,0c2.8,0.3,5.6,0.6,8.4,0.8c3.4,0.2,6.8,0.3,10.2,0.4c0.6,0,1.3-0.1,1.9-0.1c2,0,4.1-0.3,6,0.1
			c2.9,0.7,5.1-1,7.6-1.5c0.1,0,0.1-0.3,0.3-0.3c0.4-0.2,0.7-0.6,1.1-0.7c1.3-0.3,2.6-0.6,4-0.7c1.5-0.1,3.2-0.5,4.5,0
			c1.6,0.6,3.2,0.7,4.8,0.7c6.5-0.1,13,0.3,19.5-0.4c2.6-0.3,5.2-0.3,7.8-0.5c1.6-0.1,3.2-0.1,4.7-0.6c2.8-0.9,5.6-1.1,8.5-1.1
			c0.5,0,1-0.1,1.5-0.2c1.4-0.5,2.8-1.1,4.3-1.4c2-0.5,4.1-0.8,6.1-1.3c1-0.2,1.8-0.7,2.8-1.1c1.6-0.6,3-1.5,4.8-1.6
			c1.6-0.1,3.2-0.5,4.6-1.6c3.2-2.4,7.2-3.4,10.9-5c3-1.3,6.1-2.2,8.7-4.5c3.4-3,7.4-5.4,10.5-8.9c2-2.3,4-4.5,4.1-7.7
			c0-0.3,0.2-0.5,0.3-0.8c0.8-2.7,1.3-5.4,1.5-8.2c0.1-2.6-1.4-3.8-3.1-5c-3.1-2.1-6.6-3.4-10-4.8c-3.8-1.7-7.9-1.9-11.8-3
			c-4-1-8-1.9-12.1-1.9c-0.8,0-1.6,0.1-2.3,0.1c-0.9,0-2,0.2-2.8-0.2c-1.5-0.7-2.9-0.6-4.4-0.6c-4-0.2-8.1,0.3-11.8-1.7
			c-0.1-0.1-0.3-0.1-0.4,0c-2,0.1-4,0.2-6,0.4c-1.4,0.1-2.8,0.2-4.4,0.4c-0.5,1.5-1.2,3.3-1.5,5.2c-0.5,2.7-2.7,4.4-5,5.8
			c-0.2,0.1-0.6,0.1-0.9,0.1c-1.5-0.1-3-0.3-4.5-0.4c-0.8-0.1-1.6-0.3-2.2-0.3c-0.7,1.5-0.9,3.1-1.9,4c-1.4,1.4-3.3,2.2-5,3.3
			c-3.1,1.9-6.6,2.1-10,2.1c-1.4,0-2.8-0.1-4.2,0.1c-0.7,0.1-1.4-0.1-2.1,0c-1.6,0.3-3.5,0.3-4.7,1.2c-2.1,1.4-4,1.6-6.3,1.1
			c-1.8-0.4-3.7-0.3-5.5,0c-2.5,0.4-5,1.1-7.5-0.3c-0.4-0.2-1-0.2-1.5-0.2c-3.2,0.3-6.3,0.9-9.6,0.8c-1.5-0.1-3.1,0.3-4.6,0.4
			c-3.1,0.1-6.1-0.3-9.2-0.5c-1.6-0.1-2.7-0.7-3.5-1.9c-0.4-0.5-0.8-1-1.3-1.7c-0.7,1.8-2.2,2.4-3.6,1.7c-1.2-0.7-2.3-0.6-3.5-0.7
			c-1.6-0.1-3.2-0.2-4.7-0.5c-3.4-0.8-6.7-1.9-9-4.9c-0.1-0.2-0.3-0.3-0.3-0.3c-4.5,0.2-8.8,0.3-13.1,0.5c-1.1,0-2.3,0.3-3.4,0.3
			c-0.9,0-1.9-0.1-2.7-0.4c-1.5-0.5-3-1.2-4.5-1.8c-1.8,1.8-3.8,1.5-5.9,1.2c-0.5-0.1-1-0.2-1.4-0.1c-2.1,0.7-3.8,0-5.4-1.3
			c-1.6-1.3-3-2.7-4.7-3.8c-2.3-1.6-4.1-3.6-5.3-6.2C136.6,277.5,135.8,276.2,135,274.8 M286.2,179.3c-0.1-0.2-0.3-0.4-0.4-0.5
			c-1.3-2.4-2.2-4.7-1.1-7.5c0.3-0.8,0.1-1.8,0.2-2.8c0-0.5-0.1-1.1,0-1.6c0.2-1.9,0.6-3.9,0.5-5.8c-0.2-3.3-1.1-6.5-2.6-9.5
			c-0.7-1.5-1.6-2.9-2.5-4.3c-1-1.6-2.2-3-3-4.7c-0.5-1.1-1.2-1.9-2.1-2.6c-2.7-2.1-6.2-2.6-8.7-5c-0.1-0.1-0.4-0.1-0.6-0.1
			c-1.7-0.2-3.4-0.2-5.1-0.5c-2-0.3-4.2-0.6-5.4-2.2c-1-1.3-1.9-1.5-3.1-1.1c-1.6,0.5-2.9,0.4-4.1-0.5c-2.3,1.5-4.6,3-7,4.6h-7.6
			c-0.8,0.9-1.5,1.9-2.4,2.8c-1.2,1.1-2.4,2.2-3.7,3.2c-0.6,0.4-1.4,1-2,0.8c-1.8-0.4-3.6-0.2-5.5-0.9c-1.9-0.8-3.7-1.4-5-3.1
			c-0.9-1.1-1.7-2.3-2.6-3.6c-0.9,0.2-2,0.2-2.9,0.5c-1.8,0.7-3.6,0.9-5.5,0.8c-2.5-0.2-4.9,0-7,1.7c-0.5,0.4-1.2,0.5-1.8,0.7
			c-1.7,0.6-3.5,1.1-5,2.4c-0.3,0.3-0.7,0.6-1.1,0.6c-2.1,0.3-3.4,1.9-5,3.2c-2.9,2.5-5.3,5.4-7.1,8.9c-0.1,0.2-0.2,0.4-0.3,0.6
			c-1.5,1.7-3,3.4-3.3,5.9c-0.3,2.4-1.6,4.6-1.2,7.1c0.1,0.9-0.1,1.9-0.4,2.7c-0.7,2-1.2,4-0.2,6.1c0.1,0.3-0.1,0.7,0,1.1
			c0.1,0.9,0.3,1.8,0.5,2.7c0.1,0.5,0.3,0.9,0.4,1.4c0.2,1.9,0.4,3.8,0.6,5.8c-0.3,0.2-0.7,0.5-1.2,0.9c0.8,0.8,1.6,1.6,2.3,2.4
			c0.6,0.6,1.2,1.1,1.7,1.7c1.9,2.9,4.4,5.3,7,7.6c2.2,1.8,4.7,2.7,7.1,3.8c2.2,1.1,4.8,1.5,7.1,2.6c2.4,1.1,5.2,0.6,7.3,2.2
			c0.1,0.1,0.3,0.1,0.4,0.1c2.2,0.2,4.3,0.3,6.5,0.4c1.7,0.1,3.4,0,5.2,0c0.4,0,0.8,0,1-0.2c1.6-1.2,3.2-0.3,4.7,0.1
			c1.8,0.5,3.5,1.3,5.5,1.6c2.2,0.4,4.2,0.2,5.7-1c2.1-1.7,4.5-2.5,7-3c3.7-0.8,7.4-1.5,11.1-2.2c2-0.4,4.1-0.8,6.2-0.9
			c4.8-0.2,8.9-2.1,12.8-4.6c2-1.3,3.7-2.9,5.7-4.2c1.6-1.1,3.3-2,4-4c0.2-0.5,0.6-1,1-1.4C283.9,186.1,285.2,182.8,286.2,179.3
			 M275.3,287.8c1.7-1.7,1.5-3.5,1.2-5.3c-0.4-2.1-0.2-4,0.3-6c1-3.9,1.6-7.9,0.7-12c-0.2-0.7,0.1-1.6,0.2-2.4
			c0.1-2.2,0.6-4.6,0-6.7c-0.8-2.8-1.4-5.7-1.9-8.5c-0.2-1.2-0.2-2.4-1.3-3.3c-0.1-2.8-2.2-4.4-3.9-6.2c-0.8-0.8-1.6-1.6-2.4-2.5
			c-1.8-2.2-3.7-4.3-7-3.8c-0.6,0.1-1.4-0.3-2-0.5c-0.4-0.1-0.8-0.3-1.2-0.3c-1.2-0.2-2.4-0.5-3.6-0.7c-2.6-0.5-5-1.6-7.6-2.1
			c-2.8-0.5-5.3,0-7.7,1.2c-2.8,1.4-5.6,3-7.9,5c-1.8,1.7-3.9,1.6-5.9,2.1c-1.1,0.3-2.2,0.1-3.2-0.9c-0.8-0.8-1.9-1.2-2.9-1.8
			c-1.1-0.6-2.2-1.3-3.5-1.6c-2.2-0.5-4.4-0.7-6.6-0.9c-1.2-0.1-2.4-0.3-3.6-0.2c-2.6,0.1-5.1,0.6-7.6,1.4c-3.8,1.3-7.2,2.9-8.4,7.1
			c-0.1,0.4-0.4,0.7-0.7,1.1c-1.5,1.8-1.5,3.9-1.5,6.2c0.1,2.8,1.8,4.9,2.1,7.5c0,0.3,0.6,0.6,0.9,0.9c0.7,0.6,1.4,1.1,1.6,2.2
			c0.4,1.6,1.9,2.2,3.7,1.9c0.8-0.2,1.7-0.2,2.6-0.2c1,0.1,2.2,1,2.3,1.8c0.1,0.8-0.6,2-1.6,2.6c-1.5,0.9-3.1,0.4-4.6,0.1
			c-0.6,1.6-0.6,1.6-2.3,2.1c-0.4,0.1-0.8,0.4-1,0.7c-2.6,4-4.5,8.3-4.5,13.2c0,1.6,0.1,3.3-0.5,4.7c-0.7,1.4-0.3,2.6-0.2,3.9
			c1.2,0.5,2.3,1.1,3.6,1.5c2.1,0.7,4.2,1.4,6.4,1.6c2.3,0.2,4.4,0.7,6.4,1.7c0.4,0.2,1,0.6,1.4,0.4c2-0.5,3.7,0.7,5.7,0.6
			c3.3,0,6.7,0.5,9.9,0.2c3.1-0.3,6.1-0.5,9.2,0.1c1.3,0.3,2.7,0.5,4.1,0.4c3.4-0.1,6.8-0.2,10.2-0.4c1.1-0.1,2.1-0.3,3.2-0.4
			c1.2-0.1,2.5,0,3.7,0c0.5,0,1.1,0.1,1.6,0c2.4-0.3,4.8-0.6,7.2-1c1.1-0.2,2.2-0.5,3.4-0.7c2.4-0.5,4.7-1.1,7.1-1.4
			c1.8-0.2,3.2-0.6,4.2-2.2C273.8,287.6,274.5,287,275.3,287.8 M317.3,383.7c-0.5,1-1.4,1.6-2.4,1.1c-1-0.5-1.8-0.1-2.7,0.2
			c-0.6,0.2-1.2,0.4-1.9,0.4c-2.3,0-4.3,0.7-6.3,1.9c-1.2,0.7-2.4,1.7-4,0.8c-0.2-0.1-0.7-0.1-0.8,0c-0.7,0.7-1.6,0.2-2.4,0.4
			c-1.9,0.5-3.8,0.7-5.8,0.5c-1.5-0.1-3.2,0.8-4.6,1.6c-3,1.7-6,1.1-9.1,0.7c-1.2-0.1-2.3-0.6-3.5-0.9c-0.5-0.1-1.1-0.2-1.6,0
			c-1.2,0.4-2.2,1.2-3.4,1.3c-2.9,0.3-5.7,0.6-8.6,0.5c-1.6-0.1-3.1-0.7-4.5,0.4c-0.3,0.2-0.9,0.1-1.3,0.1c-1.6-0.1-3.1-0.4-4.7-0.4
			c-2.1,0-4.2,0.3-6.3,0.4c-2.9,0.1-5.8-0.1-8.7-0.4c-1.9-0.2-3.9-0.1-5.7-0.9c-0.3-0.1-0.6-0.1-0.9,0c-2.5,0.5-5,0-7.5,0
			c-1.2,0-2.4-0.3-3.6-0.5c-1.6-0.2-3.2-0.9-4.6-0.6c-3.9,0.8-7.8,0.1-11.6-0.2c-2.8-0.3-5.5-0.8-8.3-0.8c-0.7,0-1.3,0-2,0
			c-4.2-0.4-8.4-0.9-12.6-1.2c-2-0.2-4-0.8-6.2-0.2c-0.8,0.2-1.9-0.6-2.8-0.9c-0.6-0.2-1.2-0.6-1.8-0.7c-2.4-0.2-4.9-0.3-7.3-0.5
			c-1.4-0.1-2.7-0.4-4.1-0.4c-1.8,0.1-3.5-1.1-5.3-0.2c-0.2,0.1-0.5-0.1-0.8-0.2c-1.2-0.4-2.5-0.7-3.7-1.1
			c-3.8-1.3-7.6-2.7-11.4-4.1c-1.1-0.4-2.2-1.1-3.3-1.6c-1.1-0.6-2-2-3.6-1.2c-0.1,0.1-0.4-0.1-0.6-0.2c-1.3-1.3-3.1-1.4-4.7-2.1
			c-1-0.5-2-1.1-3-1.7c-0.5-0.3-1-0.4-1.5-0.5c-1.5-0.5-2.8,0.3-4.2,0.2c-1.6-0.1-3.1,0.1-4.6,0.9c-0.5,0.3-1.1,0.3-1.6,0.4
			c-0.6,0.1-1.2-0.1-1.7,0.2c-1.5,0.8-3.1,0.6-4.7,0.7c-1.1,0.1-2.2,0.4-3.3,0.7c-1,0.3-1.9,0.8-2.8,1c-3,0.7-5.4,2.2-6.4,5.2
			c1.4,2.4,3.6,3.6,5.8,4.9c2.9,1.6,6.1,2,9.3,2.6c0.8,0.2,1.7,0.1,2.5,0.2c1.9,0.1,3.9,0.2,5.8,0.3c1.1,0.1,2.2,0.4,3.2,0.2
			c1.4-0.3,2.2,0.2,3.1,1.1c1.9,1.9,4.3,2.5,6.8,2.8c1.1,0.1,2.4,0.3,3.2,0.9c1.1,0.9,2.2,1.1,3.5,1.2c0.8,0.1,1.6,0.3,2.4,0.6
			c1.7,0.5,3.4,1.2,5.1,1.5c1.8,0.3,3.7,0.3,5.6,0.5c2.4,0.2,4.8,0.5,7.3,0.8c0.9,0.1,1.9,0.4,2.7,0.3c2.2-0.3,4.4,0.1,6.6,0.2
			c2.8,0.1,5.6,0.9,8.5,1.2c3.1,0.3,6.2,0.5,9.3,0.4c4-0.1,8,0.9,12,0.1c0.3-0.1,0.7,0.1,1.1,0.1c1.8,0.3,3.6,0.7,5.5,0.3
			c0.6-0.1,1.2-0.1,1.7,0c3.4,0.6,6.7,0.6,10.1,0c0.8-0.1,1.8-0.1,2.6,0.1c3.3,0.9,6.7,1,10,0.3c0.8-0.2,1.8-0.2,2.3,0.2
			c1.5,1.2,3.1,0.8,4.5,0.5c3-0.5,5.9-1.4,8.9-1.2c0.4,0,0.7-0.1,1.1-0.1c2.1-0.2,4.1-0.6,6.2-0.7c1.6-0.1,3.2,0.4,4.7,0.4
			c7.9-0.1,15.8-0.3,23.7-0.4c0.1,0,0.3,0,0.4,0c2.9-0.3,5.7-0.7,8.6-0.8c3.7,0,7.4,0.5,11,0.3c3.5-0.2,7.2,0.1,10.6-1.2
			c0.4-0.1,0.9,0,1.3-0.1c1.8-0.2,3.8,0.5,5.5-0.8c0.1-0.1,0.3-0.1,0.4-0.1c1,0.8,1.9,0,2.9-0.1c4.8-0.5,9.5-1.1,14.3-1.7
			c2.9-0.3,5.7-0.9,8.3-2.1c0.9-0.4,2-0.4,2.9-0.6c1.5-0.3,3-0.4,4.4-0.9c1.6-0.5,3-1.5,4.5-2c1.6-0.6,2.6-1.4,2.6-3.2
			c0-1,0.5-1.9,1.4-2.6c0.5-0.3,1-0.7,1.6-1.1c-0.8-0.8-1.2-1.5-1.7-1.8c-1.2-0.6-2.5-1.3-3.8-1.5c-2.5-0.5-5-0.5-7.4-1
			c-2.7-0.6-5.6-0.3-7.5-2.4c-1.7,0.9-3.3,1.6-4.7,2.6c-2.1,1.5-4.4,1.9-6.9,2c-0.6,0-1.4-0.1-1.9,0.3c-0.5,0.4-0.6,1.2-0.9,1.8
			C319,384.2,318.2,383.9,317.3,383.7 M291,176.4c2.8-0.1,5.3,0,7.8,0.8c0.6,0.2,1.3,0.1,1.9-0.2c2.3-1,4.6-2.1,6.3-4
			c1-1.2,1.6-2.4,1.5-3.9c-0.1-2.9-0.7-5.7-2.7-7.9c-0.2-0.3-0.4-0.6-0.5-1c-0.3-1.4-1.2-2-2.4-2.6c-1-0.5-1.9-1-2.8-1.6
			c-0.6-0.4-1.2-1.1-1.5-1.8c-0.9-1.9-1.5-4-2.5-5.9c-1.4-2.8-3.3-5.4-4.4-8.3c-0.8-2.3-2.8-3.5-3.9-5.5c-0.1-0.2-0.5-0.3-0.7-0.4
			c-2.3-0.6-4-2.1-5.5-3.6c-2.1-1.9-4.3-3.3-7-3.9c-0.6-0.1-1.3-0.3-1.9-0.5c-2.7-1.1-5.3-2.5-8.2-3.2c-3.8-0.9-7.6-2.3-11.6-1.9
			c-1.7,0.2-3.2-0.4-4.6-1.3c-1.2-0.8-2.6-1.8-4-2c-4.6-0.8-9.3-0.9-13.9,0.3c-1,0.2-2,0.3-2.9,0.8c-2,1.2-4.3,1.7-6.5,2.3
			c-1.1,0.3-2.2,0.3-3.4,0.4c-0.9,0-1.8-0.1-2.7-0.1c-0.3,0-0.8,0.1-1,0c-1-1.1-2.1-0.4-2.7,0.1c-0.8,0.7-1.5,0.7-2.3,0.4
			c-1.9-0.6-3.7-0.9-5.7-0.2c-1.1,0.4-2.3,0.4-3.4,0.5c-4.1,0-8.1,0.8-11.8,2.6c-2.9,1.3-5.9,2.3-8.5,4.2c-1.8,1.3-3.7,2.5-5.5,3.8
			c-0.8,0.6-1.8,1-2.5,1.7c-1.7,2-3.3,4.1-5,6.2c-0.5,0.6-0.9,1.3-1.5,1.8c-1.8,1.4-2.6,3.1-1.6,5.5c-1.5,0.4-1.8,1.6-2.2,2.7
			c-0.5,1.3-1.3,2.5-1.9,3.8c-0.8,1.7-1.8,3.3-2.4,5c-0.8,2.5-2,4.8-4.1,6.5c-2.2,1.7-3.6,3.8-4.7,6.3c-0.4,0.9-0.5,1.6,0,2.4
			c0.9,1.4,1,3,0.4,4.6c-0.5,1.2-0.5,2.2,0.2,3.2c0.4,0.6,0.7,1.3,0.9,1.9c0.8,3.2,2.8,5.2,6.1,5.8c0.1,0,0.1,0.1,0.2,0.1
			c2.3,0.4,4.6,0.8,6.5-1.3c1.2-1.3,2.6-2.3,4-3.5c0-0.6,0-1.3,0-2.1c0-2.2,0-4.5,0-6.7c0.1-2.1,0.3-4.2,0.3-6.2
			c0-1.7-0.3-3.3-0.1-5c0.5-4.2,2-8.1,3.9-11.9c1.2-2.4,3-4.6,4.2-7.1c0.9-1.9,2.9-2.6,3.8-4.3c2.9-1.4,5.6-3.2,8.2-5.1
			c3.1-2.2,6.8-3.7,10.6-4.6c1.8-0.4,3.6-0.8,5.5-0.9c1.5-0.1,3.1-0.6,4.5-1.2c1.1-0.5,2.1-1.5,3.1-2.2c2.3,1.1,4.1,2.4,4.9,4.9
			c0.2,0.6,0.9,1.2,1.5,1.5c1.1,0.6,2.3,1.2,3.5,1.6c1.5,0.5,3.2,0.8,4.6-0.2c2.3-1.7,4.5-3.7,6.7-5.6c2.3-0.2,4.9-0.1,7.3-0.6
			c2.6-0.6,5.3-1.1,7.2-3.4c0.4-0.4,1.3-0.5,2-0.4c2,0.2,4,0.4,5.9,0.9c2.1,0.5,4.4,0.5,5.8,2.6c0.4,0.6,1.1,1.1,1.7,1.2
			c1.8,0.4,3.7,0.6,5.5,1c0.7,0.1,1.4,0.3,2,0.6c1.8,0.9,3.6,1.9,5.4,2.9c2.2,1.3,4.6,2.3,6.2,4.3c1.1,1.3,1.9,2.8,2.9,4.2
			c0.6,0.9,1.4,1.9,1.8,2.9c0.5,1.3,1.1,2.6,1.9,3.8c1.1,1.7,2.5,3.5,2.3,5.7c-0.2,2.5-0.1,4.9,0.4,7.4c0.7,3,0.4,6.2,0.6,9.3
			C290.7,173.8,290.8,175.1,291,176.4 M153.1,227.9c-1.4-0.8-2.5-1.3-3.5-1.9c-0.6-0.4-1.2-0.8-1.8-1.2c-0.5-0.3-1.2-0.4-1.4-0.9
			c-0.2-0.5-0.1-1.2-0.1-2c-2.6-0.3-5.1-0.6-7.7-0.8c-2.3-0.2-4.7-0.2-7-0.4c-0.2,0-0.4,0-0.6,0.1c-3.1,0.7-6.2,1.3-9.2,2.1
			c-2.5,0.7-5.2,1.3-6.7,3.5c-1.7,2.5-3.6,4.8-4.4,7.9c-0.5,1.8-0.5,3.3,0.2,4.9c0.3,0.7,0.6,1.3,0.8,2c0.5,1.7,1.9,2.2,3.4,2.5
			c0.4,0.1,0.7,0,1.1,0.1c3.4,1.1,6.9,1.2,10.4,1.2c2.6,0,5.2,0.1,7.8-0.1c1.7-0.1,2.7,0.7,3.8,1.6c0.8,0.7,1.5,1.7,2.2,2.6
			c0.3,0.5,0.5,0.9,0.2,1.7c-0.4,1.1-0.6,2.4-0.2,3.8c0.5,1.6,0.3,3.7-0.7,5c-1.1,1.5-1.7,3.1-2.4,4.7c-0.5,1.1-0.3,1.9,0.2,2.9
			c0.4,0.7,0.7,1.5,0.9,2.3c0.6,2.2,1.2,4.4,2.5,6.3c0.7,1,1.2,2.1,1.8,3.1c0.8,1.3,1.6,2.5,3.1,3.3c1.5,0.8,3,1.2,4.6,1.6
			c2.7,0.6,5.3,1.4,8.1,1.8c2.8,0.5,5.5,0.5,8.2,0.6c1.1,0,2.3,0.4,3.4,0.4c1.2,0,2.4-0.4,3.6-0.4c1.1,0,2.1-0.3,3.1-0.8
			c1.1-0.6,2.3-1,3.5-1.5c0-0.4-0.3-1-0.1-1.4c1.2-2.4,1.1-5.1,2-7.6c1.1-3.1,1.6-6.5,3.4-9.4c1-1.6,1.3-3.9,3.8-4.2
			c-2.9-3.2-5.6-6.4-6.5-10.9c-1.4,0.2-2.7,0-3.7,0.5c-0.9,0.5-1.8,0.6-2.7,0.4c-2.7-0.7-5.3-0.2-7.9-0.3c-1.5-0.3-2.5-0.6-3.7-0.9
			c-3-0.6-1.4-0.4-3.2-1.2c-1-1-2.1-1.7-2.6-2.7c-2.2-3.9-2.6-8.5-4.3-12.6c-0.1-0.4,0-0.8,0-1.2c0-0.3,0.1-0.6,0-0.8
			C154.3,230.5,153.6,229,153.1,227.9 M216.7,212.1c-0.1,0.8-0.1,1.5-0.2,2.1c-0.1,2.4-0.9,3.3-3.3,3.5c-0.5,0.1-1,0.1-1.5,0.3
			c-0.7,0.2-1.5,0.5-2.2,0.6c-2,0.1-4.1,0.1-6.1,0c-1,0-1.8,0.1-2.7,0.7c-1.1,0.8-2.4,1.2-3.9,1.1c-0.6-0.1-1.2,0.3-1.8,0.5
			c-0.8,0.3-1.6,0.6-2.4,0.8c-1.5,0.4-3.1,0.6-4.5,1.2c-2.4,1.1-4.6,2.5-6.9,3.8c-1.7,0.9-2.8,2.4-3.7,4.1c-0.3,0.5-0.7,1.1-1.2,1.4
			c-2.2,1-3.5,2.8-5.1,4.4c-1.8,1.8-3.2,3.7-4.1,6.1c-0.7,2-0.8,2.5,1.1,3c2.1,0.5,4.4,0.7,6.6,0.9c0.4,0,0.9-0.4,1.3-0.6
			c0.5-0.2,1.2-0.7,1.6-0.6c1.7,0.8,2.8-0.5,4.3-0.7c0.1-1.2-0.1-2.4,0.2-3.5c0.3-1.2,1.1-2.2,1.5-3.3c1.3-3.7,3.9-6.1,7.4-7.7
			c0.4-0.2,0.8-0.4,1-0.7c1.4-2.4,4-2.1,6.1-2.6c2.4-0.6,5.1-0.2,7.7-0.2c4.1-0.1,8.2,0,12.1,1.7c1.7,0.8,3.4,1.6,5,2.5
			c1.1,0.6,1.4,0.7,2.3-0.3c0.6-0.7,1.4-1.3,2-1.9c1.3-1.3,3-1.5,4.7-2c3.2-0.9,6.4-2.1,9.7-2.6c3.8-0.5,7.6-0.1,11.4,0.5
			c2.5,0.4,4.5,2,7.1,2.3c2.4,0.2,4.6,1.5,7.1,1.5c1.7,0,3.3,0.7,4.5,2.2c1.3,1.6,2.6,3.3,4,4.8c1.5,1.5,2.5,3.3,3.1,5.3
			c0.4,1.4,0.8,2.9,1.4,4.3c0.6,1.5,0.8,3,0.7,4.7c0,0.7,0,1.5,0.2,2.1c1.1,2.9,1.5,6,1.5,9.1c0,3.2,0,6.5,0,9.7
			c0,1.7,0,3.3-0.7,4.9c-0.3,0.8-0.2,1.7-0.2,2.6c0.1,1.8,0.3,3.7,0.5,5.7c0.5,0.2,1.3,0.5,2.1,0.8c1.6,0.6,2.1,0.5,3-1
			c0.3-0.4,0.6-0.8,0.8-1.3c1-3.1,1.8-6.2,2.9-9.2c1-2.7,0.4-5.3,0.3-8c-0.1-2.6-0.1-5.1,0-7.7c0-2,0.7-4.2-0.4-6
			c-0.8-1.4-1-2.6-0.5-4c0.1-0.3,0.1-0.7,0-1c-0.6-2.4-1.1-4.9-2.2-7.1c-1.3-2.6-2.3-5.2-3.4-7.9c-0.1-0.3-0.2-0.6-0.4-0.7
			c-1.7-1-2.1-3-3.1-4.5c-2.1-3.1-5.2-4.9-8.7-6c-0.7-0.2-1.3-0.6-1.9-0.9c-0.6-0.3-1.1-0.7-1.7-0.9c-2.9-0.9-5.7-1.7-8.6-2.5
			c-0.3-0.1-0.7-0.1-1,0c-1.2,0.7-2.5,0.4-3.8,0.3c-1.5-0.1-3-0.3-4.5-0.1c-1.2,0.2-2.2-0.2-2.5-1.1c-0.7-1.7-2.3-3-2.3-5
			c0-0.2-0.3-0.3-0.4-0.5c-0.7,0.1-1.3,0.3-1.9,0.3c-2.9,0.3-5.6,1.3-7.8,3.2c-2,1.8-4.1,2-6.4,1.3c-3.2-1-6.6-1.4-9.9-1.8
			C219,211.9,217.9,212.1,216.7,212.1 M296.7,266.5c-0.3,2-0.6,3.8-0.9,5.7c2,0.2,3.8,0.2,5.6,0.4c2.7,0.3,5.3-0.1,7.9,0
			c0.7,0,1.4,0.2,2.1,0.3c2.7,0.2,5.3,0.7,7.9,0.5c1.7-0.2,3.2,0.1,4.9,0.2c1.2,0,2.4,0.3,3.6,0.4c1.5,0.2,3.1,0.1,4.5,0.5
			c3.9,1.1,7.9,1.5,11.8,2.2c2.3,0.4,4.7,0.9,6.9,2c1.9,1,3.9,1.6,5.9,2.3c0.1-0.1,0.2-0.3,0.3-0.4c-1.7-1.3-3.3-2.8-5.2-3.9
			c-2-1.2-4.3-1.9-6.3-3.1c-2.6-1.5-5.3-2.9-8.2-3.7c-1.4-0.4-2.8-0.6-4.2-0.9c-2.5-0.4-5.1-0.8-7.6-1.2c-2.2-0.4-4.4-0.7-6.5-1.1
			c-1.7-0.3-3.4-1-5-1c-3.7,0-7.5-0.5-11.2,0.6c-1,0.3-2.2,0.1-3.2,0.2C298.8,266.5,297.9,266.5,296.7,266.5 M132.6,266.6
			c-1.6,0-2.8,0-4.1,0c-2.2,0-4.4-0.4-6.5,0c-2,0.4-4.2-0.3-6.1,0.7c-0.7,0.4-1.7,0-2.6,0.2c-3.2,0.8-6.4,1.7-9.5,2.5
			c-0.4,0.1-0.8,0.2-1.2,0.4c-1.5,0.9-3,1.7-4.5,2.6c-0.8,0.5-1.6,1.2-2.3,1.8c-1.7,1.5-3.4,3-4.8,4.8c-1.2,1.5-2.8,2.5-4.4,3.9
			c0.6,0.6,0.3,1.8,1.3,2.1c1.8-1.8,3.4-3.7,5.3-5.2c2-1.6,4-3.5,6.8-4c2-0.4,3.9-1.2,5.8-2c1.5-0.7,3.1-1,4.7-1.3
			c1.5-0.3,3-0.9,4.5-1.4c1.3-0.4,2.5-1.1,3.9-0.5c0.7,0.3,1.7,0.2,2.6,0.1c1.8-0.2,3.5-0.5,5.3-0.9c1-0.2,1.9-0.4,2.9-0.1
			c1,0.3,2.2,0.1,3.5,0.1C133,268.9,132.8,267.8,132.6,266.6"/>
		<path style="clip-path:url(#SVGID_00000105422400104203678150000012046374889122819475_);" d="M195.7,300.2
			c0.9,0.2,1.7,0.7,2.4,0.6c2.3-0.5,4.1,1.3,6.3,1.2c1.3-0.1,2.7,0.5,4,0.6c2.3,0.2,4.6,0.4,6.9,0.5c2.2,0.1,4.4,0.3,6.6,0.1
			c1.3-0.1,2.5,0.3,3.8,0.4c0.9,0.1,1.9,0,2.8,0c1.9-0.1,3.7-0.4,5.6-0.4c5.2-0.1,10.3-0.1,15.5,0c4.2,0.1,8.3-0.5,12.4-1.2
			c2.6-0.4,5-1.1,7.5-1.9c0.9-0.3,1.9-0.3,2.9-0.5c0.4,2.3,0.1,2.8-1.8,3.6c-2.7,1.2-5.5,1.7-8.3,2.6c-1.7,0.5-3.4,1.1-5.1,1.5
			c-0.7,0.2-1.5,0.1-2.2,0.1c-3.3,0.2-6.6,0.5-9.9,0.5c-2,0-4.1-0.3-6.1-0.3c-1.6,0-3.1,0.3-4.7,0.3c-2.7,0-5.5,0.2-7.9-0.5
			c-2.5-0.7-4.8-1.2-7.4-1.2c-0.8,0-1.5-0.1-2.3,0c-0.9,0-1.7,0.2-2.6,0.1c-2.9-0.4-5.8-0.8-8.7-1.3c-1.4-0.3-2.8-1-4.2-1.5
			c-1.4-0.5-2.8-1.2-4.4-1.1C195.8,302.2,195.7,301.4,195.7,300.2"/>
		<path style="clip-path:url(#SVGID_00000105422400104203678150000012046374889122819475_);" d="M214.2,310.4
			c1.4,0.2,2.6,0.4,3.8,0.5c2.2,0.2,4.4,0.3,6.7,0.4c5.1,0.2,10.1,0.4,15.2,0.4c2.7,0,5.5-0.3,8.2-0.4c0.8,0,1.6,0.2,2.3,0.4
			c1.2,0.3,2,1.3,1.9,2.2c-0.1,0.8-1.6,2-2.5,1.6c-1.1-0.5-2,0.1-2.9,0.2c-2,0.1-4,0.1-5.9,0.5c-1.4,0.2-2.7,0.6-4.2,0.4
			c-2.9-0.5-5.7-0.8-8.6-1.2c-1.1-0.1-2.1,0.1-3.2,0c-1.9-0.1-3.7-0.4-5.6-0.6C216.6,314.6,214.8,313.2,214.2,310.4"/>
		<path style="clip-path:url(#SVGID_00000105422400104203678150000012046374889122819475_);" d="M139.6,288.7c1-0.5,1.7,0,2.2,0.6
			c2,2.3,5,3,7.5,4.5c1,0.5,2.2,0.6,3.2,1c0.7,0.2,1.2,0.7,1.9,0.9c2.3,0.5,4.7,1.2,7.1,1.3c1.5,0,2.9-0.1,4.4,0
			c2.4,0.2,4.9,0.5,7.3-0.3c2.9-1,3.3-0.8,4.3,2.4c-0.2,0.2-0.3,0.5-0.5,0.6c-1.5,0.2-3,0.4-4.5,0.6c-1.9,0.2-3.7,0.5-5.6,0.7
			c-1,0.1-2,0-2.9-0.3c-1.4-0.5-2.9-0.8-4.4-0.9c-2.1-0.2-4.2-0.8-6.3-1.3c-1.3-0.3-2.7-0.7-4-1c-2.8-0.6-5.2-2-7.5-3.9
			C140.3,292,140,290.4,139.6,288.7"/>
		<path style="clip-path:url(#SVGID_00000105422400104203678150000012046374889122819475_);" d="M149,303.4c0.8-1.8,1-2.1,2.4-1.5
			c0.9,0.4,1.3-1.1,2.2-0.2c0.6,0.6,1.7,0.6,2.6,0.9c0.9,0.2,1.9,0.7,2.7,0.5c1.8-0.3,3.2,0.6,4.7,1.2c1.3,0.5,1.4,1.1,0.4,2.1
			c-0.3,0.3-0.7,0.7-1,1c-0.7,0.6-1.6,1-2.6,0.7c-2-0.6-4.3-0.7-5.8-1.8C152.9,305.1,150.9,304.7,149,303.4"/>
		<path style="clip-path:url(#SVGID_00000105422400104203678150000012046374889122819475_);" d="M282.2,293.3
			c1.6-1.5,3.7-0.3,5.3-1.5c1.4-1.1,3.2-1.6,4.9-2.4c0.4,0.6,0.8,1.2,1.1,1.7c-0.3,1-0.6,1.7-0.8,2.5c-0.4,1-0.9,1.7-2.2,1.6
			c-1.6-0.1-3.2,0-4.8,0C284.4,295.1,283.1,294.9,282.2,293.3"/>
		<path style="clip-path:url(#SVGID_00000105422400104203678150000012046374889122819475_);" d="M224.3,162.1c0,0.7,0.1,1.3,0,1.8
			c-0.4,1.5-0.6,3.1-1.3,4.5c-0.7,1.5-1.7,2.9-2.6,4.4c-0.4,0.7-1,1.2-1.4,1.9c-0.8,1.4-0.8,1.5,0.6,3c2-1.4,4.7-1.9,6.3-4.2
			c0.6-0.9,1.7-0.8,2.9-0.1c-1.1,1.7-1.9,3.6-4.2,4.3c-1.4,0.4-2.3,1.6-3.9,1.8c-1.7,0.3-2.9-0.2-4-1.4c-1.1-1.2-0.8-2.6-0.3-3.9
			c0.5-1.3,1.5-2.4,2.2-3.6c1.3-2.1,2.7-4.2,3.2-6.7C222,162.2,222.2,162.1,224.3,162.1"/>
		<path style="clip-path:url(#SVGID_00000105422400104203678150000012046374889122819475_);" d="M210.7,193.8
			c3.6-4.6,8.2-6.7,13.8-6.1c2.5,0.3,4.8,2.8,5.5,5.2c0.1,0.4-0.1,0.8-0.1,1.3c-1.1-0.1-2-0.4-2.4-1.3c-0.5-1.1-1.1-2.2-2.4-2.6
			c-1.6-0.5-3.2-0.5-4.9-0.3c-2.8,0.3-4.2,2.6-6.2,4C212.8,194.8,212.4,194.9,210.7,193.8"/>
		<path style="clip-path:url(#SVGID_00000105422400104203678150000012046374889122819475_);" d="M260.9,151.2
			c0.2-1.3,0.3-2.4,0.5-3.5c0.2-1.8,2.5-2.8,4.2-1.9c0.6,0.4,1.2,0.8,1.8,1.3c0,1.4,0.6,3-1.1,4
			C264.4,152.2,262.7,152.3,260.9,151.2"/>
		<path style="clip-path:url(#SVGID_00000105422400104203678150000012046374889122819475_);" d="M191.1,148.9
			c1.3-0.1,2.2,0.4,2.7,1.3c0.5,0.9,0,1.8-0.6,2.6c-1,1.3-2.4,1.8-3.9,2.1c-0.4,0.1-1.1-0.1-1.2-0.3c-0.4-1.2-0.7-2.5-0.8-3.7
			c0-1,0.9-1.4,1.8-1.6C190,149.2,190.6,149.1,191.1,148.9"/>
		<path style="clip-path:url(#SVGID_00000105422400104203678150000012046374889122819475_);" d="M234,240.2c0.8,0.2,1.5,0.3,2.1,0.5
			c1.1,0.4,1.5,1.4,1,2.5c-0.8,2-1.8,4-1.3,6.2c0.5,2.3,1.1,4.5,1.8,6.7c0.2,0.5,0.8,1,1.3,1.4c0.3,0.3,0.8,0.4,1,0.7
			c1.3,1.5,2.8,2,4.8,2.2c2.5,0.3,4.7,0.4,7-0.6c0.4-0.2,0.8-0.3,1.2-0.2c1.3,0.2,2.7,1.2,2.8,2c0.1,1-0.8,2.2-2.1,2.8
			c-3,1.4-3,1.4-6.3,0.3c-0.8-0.3-1.7-0.4-2.5-0.4c-3.2,0.1-5.9-0.9-8-3.4c-0.6-0.7-1.4-1.3-2-2c-1.2-1.3-2.5-2.5-2.7-4.5
			c-0.1-0.7-0.3-1.4-0.6-2c-1.2-2.6-1.1-5.4-0.9-8.1c0.1-1.1,0.7-2.3,1.4-3.3C232.4,240.5,233.4,240.4,234,240.2"/>
		<path style="clip-path:url(#SVGID_00000105422400104203678150000012046374889122819475_);" d="M145,228.2
			c-0.2,1.3-0.3,2.6-0.6,3.8c-0.1,0.5-0.6,1.1-1.1,1.3c-1,0.4-2.2,0.7-3.3,0.9c-1.4,0.2-2.6-0.4-3.4-1.4c-0.8-1-1.5-2.3-1.9-3.6
			c-0.6-2,1-4.3,3-4.9c1.4-0.4,2.8-0.7,4.2-0.2C144,224.6,145,226.1,145,228.2 M143.3,227c-3.2-2.3-4.1-2-6.2,0.8
			c-0.3,0.4-0.4,1.1-0.3,1.6c0.4,1.5,2.1,2.7,3.4,2.4c0.9-0.3,1.9-0.7,2.6-1.4c0.4-0.3,0.1-1.3,0.2-2
			C143.2,227.9,143.2,227.4,143.3,227"/>
		<path style="clip-path:url(#SVGID_00000105422400104203678150000012046374889122819475_);" d="M138,228.5c0.6-1.4,1.5-1.8,2.5-1.5
			c0.5,0.1,1.2,0.6,1.4,1.1c0.2,0.4,0,1.1-0.3,1.5c-0.4,0.5-1.1,0.6-1.8,0.1C139.2,229.2,138.6,228.9,138,228.5"/>
	</g>
	<polygon style="clip-path:url(#SVGID_00000072993780295353935250000006570154186148674490_);fill:#CED8DD;" points="70.9,335.4 
		80.6,340.8 72.6,354.7 65.2,365.6 64.9,373.9 67.9,386.6 65.8,399.9 54.9,416.5 36.1,426.3 22.1,425.5 17.6,414.2 13.4,406 
		13.4,402.4 15.8,393.1 21.5,380.1 36.5,371.5 48.1,365.3 56.7,356.4 65.2,342.2 	"/>
	<g style="clip-path:url(#SVGID_00000072993780295353935250000006570154186148674490_);">
		<defs>
			<rect id="SVGID_00000026124986111689748680000008632172422584114617_" y="106.8" width="500" height="322.4"/>
		</defs>
		<clipPath id="SVGID_00000013876045275878372620000003328750099085020079_">
			<use xlink:href="#SVGID_00000026124986111689748680000008632172422584114617_"  style="overflow:visible;"/>
		</clipPath>
		<path style="clip-path:url(#SVGID_00000013876045275878372620000003328750099085020079_);fill:#FFFFFF;" d="M41.7,409.4
			c3.1-3.3,6.3-5.3,8-7.7c2.9-4.2,2.5-7.2,4.5-12.1c0.9-1,1.8-2.6,2.9-3.1c0.5-0.2,1.6,0.5,1.9,1.1c0.3,0.6,0.1,5.2-0.3,5.7
			c-2.1,6.1-4.6,14-13.7,19.6c-2.4,1.5-1.8,1.6-4.1,2.7c-2.6,1.3-4,2.3-5.3,1.3c-1.4-1-0.1-2.7,0.8-3.8
			C37.2,412,39.8,411.1,41.7,409.4"/>
		<path style="clip-path:url(#SVGID_00000013876045275878372620000003328750099085020079_);" d="M73.4,334.7c-1-0.4-1.8-0.7-2.7-1.3
			l-3.4,1c0,0-0.8,1.3-0.8,1.3c0,0.3,0,0.5-0.1,0.6c-1.5,2.6-3.5,5-4,8.1c0,0.3-0.3,0.5-0.4,0.7c-2.1,3.6-4.2,7.1-6.2,10.7
			c-1.6,2.9-4,4.9-6.9,6.5c-1.7,0.9-3.5,1.7-5,2.9c-2.1,1.5-4.4,2.7-6.8,3.6c-3.5,1.4-7,2.8-10,5c-2.4,1.8-5,3.5-6.7,6.1
			c-0.6,0.9-1.4,1.7-2,2.6c-0.8,1.3-1.7,2.7-2.2,4.2c-0.9,2.2-1.4,4.5-2.2,6.8c-0.4,1.3-0.6,2.5-0.4,3.8c0.2,1.5,0.6,3.2-0.9,4
			c0,1.3,0,2.3,0,3.2c0,1.9,0,3.7,1.3,5.3c0.6,0.8,1.1,2.2,0.8,3.2c-0.6,2.6,1.1,4.8,0.9,7.3c0,0.4,0.6,0.8,0.9,1.2
			c1.2,1.3,2.4,2.5,3.6,3.7c1.5,1.6,2.9,3.2,5.4,2.9c0.9-0.1,1.9,0.5,2.8,0.8c0.4,0.1,0.8,0.3,1.2,0.3c2.3-0.2,4.5-0.6,6.8-0.7
			c3.7-0.2,6.9-1.6,10.2-3.1c2.5-1.2,4.9-2.7,7.1-4.4c4.8-3.7,8.8-8.3,11.5-13.8c0.4-0.8,0.9-1.5,1.3-2.2c0.8-1.7,1.9-3.3,2.3-5.1
			c0.8-3.3,1-6.6,1-10c0-1.3-0.3-2.7,0.8-3.8c-0.3-0.5-0.5-1-0.8-1.5c-1-1.8-0.7-3.9-1.2-5.8c-0.3-1.1-0.1-2.4-0.2-3.6
			c-0.1-2.1-0.2-4.2-0.3-6.3c0-0.3,0.2-0.5,0.3-0.8c0.7-1.5,1.4-3.1,2.2-4.6c0.6-1.1,0.2-2.4,1.3-3.4c0.7-0.6,0.7-0.8,1.3-1.6
			c0.3-0.3,0.5-0.7,1-1.2c0.5-0.9,0.7-0.8,1-1.5c0.4-1.1,0.6-1.2,1.1-2.2c0.4-0.7,0.5-1,1.1-1.6c0.5-0.6,0.6-0.8,0.8-1.6
			c0.6-0.6,1.1-1.7,1.5-2.4c0.2-0.3,0.1-0.9,0.6-1.7c0.4-0.6,0.7-0.7,1.2-1.6c0.4-1.1,1-2,1.2-2.7c0.2,0.1,0.4-0.8,0.6-0.7l-0.3-2.1
			C79.5,337.9,76.8,336.2,73.4,334.7 M14.1,405.5h-0.3v-2c0.1,0,0.2,0,0.3,0V405.5z M75.5,344.8c-1.4,2.4-2.7,4.8-4.1,7.2
			c-1.8,3.1-3.6,6.2-5,9.5c-1,2.5-2.1,4.9-3.1,7.4c-0.8,1.9-0.8,3.8-0.6,5.8c0.1,1,0.2,2,1.1,2.7c0.3,0.3,0.6,0.9,0.6,1.3
			c0.2,2.1,0.3,4.2,0.4,6.2c0.1,1.8,0,3.7,0.4,5.4c0.5,2.1-0.3,3.8-0.9,5.7c-0.7,2.6-1.4,5.4-2.7,7.8c-1.2,2.4-3,4.6-4.8,6.7
			c-1.7,2-3.7,3.8-5.7,5.6c-1.1,1.1-2.4,2-3.6,3c-0.1,0-0.1,0.1-0.2,0.1c-2.9,0.9-5.2,2.9-8.4,3.2c-1.7,0.1-3.5,0.3-5,1
			c-2.7,1.3-4.9-0.1-7.2-0.8c-1.7-0.5-3.2-1.6-4.7-2.6c-2.5-1.6-3.3-4-2.6-6.7c0.2-0.6,0.3-1.4,0.1-1.9c-1.6-3.5-1.6-7.3-1.7-11
			c-0.1-2.6,0.5-5,1.1-7.5c0.4-1.5,0.8-2.9,1.2-4.4c0.5-2.1,1.9-3.7,3-5.4c1-1.5,2.3-2.8,3.5-4.1c0.7-0.7,1.7-1.3,2.6-1.8
			c1.4-0.8,2.9-1.6,4.3-2.3c0.7-0.4,1.5-0.8,2.2-0.8c2.1,0.2,3.7-1,5.5-1.8c1-0.4,2.1-0.6,3.1-0.9c1.4-0.5,3-0.7,3.7-2.3
			c0.1-0.3,0.5-0.6,0.8-0.7c2.9-1.1,4.6-3.6,6.5-5.9c0.8-1,1.6-2,2.6-3.2c-0.2-1.9,1.5-3.3,2.6-4.8c1.4-2,2.5-4,3.5-6.2
			c0.6-1.3,1.1-2.9,2.8-3.4c0.5-0.1,0.7-1,1.1-1.5c1.2-1.6,3-4.2,4.2-5.7c1.9,1,4.1,2.1,6.1,3.1C77.6,341.8,76.2,343.6,75.5,344.8"
			/>
		<path style="clip-path:url(#SVGID_00000013876045275878372620000003328750099085020079_);fill:#ED1941;" d="M217.9,185.6
			c1,0.2,2,0.6,3,0.6c0.7,0,1.3-0.5,2-0.5c0.8,0,2,0,2.3,0.4c0.3,0.5,0.1,2-0.3,2.3c-1.1,0.6-1,1.6-1.6,2.3
			c-0.6,0.9-1.8,1.7-2.8,1.8c-1.3,0.2-1.6-1-1.8-2.3c-0.1-1.4-0.9-2.6-1.4-4C217.5,186,217.7,185.8,217.9,185.6"/>
	</g>
</g>
</svg>
