<?xml version="1.0" encoding="utf-8"?>
<!-- Generator: Adobe Illustrator 26.3.1, SVG Export Plug-In . SVG Version: 6.00 Build 0)  -->
<svg version="1.1" id="Layer_2" xmlns="http://www.w3.org/2000/svg" xmlns:xlink="http://www.w3.org/1999/xlink" x="0px" y="0px"
	 viewBox="0 0 500 500" style="enable-background:new 0 0 500 500;" xml:space="preserve">
<style type="text/css">
	.st0{fill:none;}
	.st1{fill:#FFFFFF;}
	.st2{fill:#F15B4E;}
	.st3{fill:#FFCC4E;}
	.st4{fill:#C69930;}
	.st5{fill:#82CA9C;}
	.st6{fill:#DB82B5;}
	.st7{fill:#F15B67;}
	.st8{fill:#FFCB05;}
	.st9{fill:#F0CC9E;}
	.st10{clip-path:url(#SVGID_00000182516117095010649760000017469505948340920991_);}
	.st11{filter:url(#Adobe_OpacityMaskFilter);}
	
		.st12{clip-path:url(#SVGID_00000176038808568473421370000010119644877386251404_);fill:url(#SVGID_00000018209607011449928420000013755438803937521079_);}
	
		.st13{clip-path:url(#SVGID_00000176038808568473421370000010119644877386251404_);mask:url(#SVGID_00000183241646738364677290000010236256263468085925_);fill:url(#SVGID_00000106123257229634800660000008468742731932136606_);}
	.st14{clip-path:url(#SVGID_00000011716182851432387660000005519854966667437197_);}
	.st15{filter:url(#Adobe_OpacityMaskFilter_00000005253082648997321850000013273620382453440940_);}
	
		.st16{clip-path:url(#SVGID_00000072964838147008778370000001269951972196101525_);fill:url(#SVGID_00000160882073260654545030000008398851390718588043_);}
	
		.st17{clip-path:url(#SVGID_00000072964838147008778370000001269951972196101525_);mask:url(#SVGID_00000140712333899095771160000001447683517947948222_);fill:url(#SVGID_00000098181181659028760900000007006279091584101804_);}
	.st18{clip-path:url(#SVGID_00000015331238161715236660000007794180837768522120_);}
	.st19{filter:url(#Adobe_OpacityMaskFilter_00000137125256645773220420000009147123270927541673_);}
	
		.st20{clip-path:url(#SVGID_00000070114822019524558690000003427315184387703937_);fill:url(#SVGID_00000075858468476920206860000012879570588000401325_);}
	
		.st21{clip-path:url(#SVGID_00000070114822019524558690000003427315184387703937_);mask:url(#SVGID_00000002378535987293287490000002162846579246687903_);fill:url(#SVGID_00000114039179303991565980000001305816204989401268_);}
	.st22{clip-path:url(#SVGID_00000156587227187314098160000001384479707400873355_);}
	.st23{filter:url(#Adobe_OpacityMaskFilter_00000042010935576875275990000009536236025121182634_);}
	
		.st24{clip-path:url(#SVGID_00000023240921215867396550000009649256741861798330_);fill:url(#SVGID_00000137829913495240323660000000153789241689676720_);}
	
		.st25{clip-path:url(#SVGID_00000023240921215867396550000009649256741861798330_);mask:url(#SVGID_00000162335643492123242200000003448488127555444621_);fill:url(#SVGID_00000152262617869471041030000011400669221355892622_);}
	.st26{fill:#FFDD00;}
	.st27{fill:#F0CC9E;stroke:#000000;stroke-width:6.0602;stroke-miterlimit:10;}
</style>
<rect class="st0" width="500" height="500"/>
<polygon class="st1" points="150.4,24.5 171.9,24.5 233.1,26.5 294.3,28.1 337.8,28.1 366.3,28.1 369.6,31.2 370.6,64.8 
	366.3,134.8 364.3,150.5 364.3,170.3 363.3,176.8 346.9,177.6 313.2,176.6 298.7,175.1 275.8,175.1 202,172.9 144,172.7 144,163.1 
	143.2,96.5 145.8,76.2 145.8,50.5 "/>
<g>
	<polygon class="st2" points="279.3,46 287.5,54.6 289.3,62.2 300.6,51.8 308.9,49.1 316.5,51.5 322,58 316.5,77 305.4,88.7 
		294.1,99.4 283.4,91.1 272,81.4 265.5,70.8 263.4,56 268.2,49.1 	"/>
	<polygon class="st3" points="259.5,27.3 270.3,29.2 269.5,6.9 261.1,5.8 	"/>
	<polygon class="st3" points="263.4,176.6 258.4,243.8 254.5,304.8 248.8,304.8 251.5,223.4 257.6,174.7 	"/>
	<polygon class="st3" points="246.9,353.2 254.5,350.9 253.4,370.5 249.5,379.3 244.6,376.6 	"/>
	<polygon class="st4" points="306.4,291.8 321.7,289.5 321,267.2 327.1,244.2 339.4,232.7 356.3,226.9 373.9,226.5 386.6,223.4 
		408.1,228.1 421.1,225.7 435,234.6 443,244.9 445.7,258.4 443.4,276 428.4,301.8 442.6,302.1 456.5,294.8 466.8,276.8 460.7,259.1 
		459.2,244.9 449.6,226.9 437.3,213.5 418.1,206.2 397.7,203.1 390.1,206.2 375.8,205 354,210 345.1,209.2 325.6,215 317.1,230.7 
		305.2,245.3 295.6,255.3 293.3,271.4 	"/>
	<polygon class="st5" points="78.3,378.2 93.3,380.5 140.1,381.6 184.3,386.2 183.5,431.1 137.1,430 128.6,419.2 123.2,431.1 
		70.6,426.9 	"/>
	<polygon class="st6" points="92.5,380.7 90.8,391 90.5,402.1 90.6,409.1 89,426.1 99.5,428.5 103.7,426.5 105.2,413.1 106.3,393.4 
		107.2,385.1 106.7,380.3 	"/>
	<polygon class="st6" points="121.3,382.2 135.7,383.2 130.1,416.6 123.1,429.1 118.8,429.7 120.4,412.6 	"/>
	<polygon class="st6" points="151.4,385.4 162.2,388.2 158.4,427.4 144.2,425.5 	"/>
	<polygon class="st6" points="176,386.9 183.2,387.4 182.5,427.1 170.9,428.1 173.1,406.2 174.7,390.1 	"/>
	<polygon class="st7" points="326.7,348.2 343.6,332.5 362,330.2 372.4,331.3 381.6,345.1 402,330.2 417.7,328.2 428.8,335.5 
		429.2,383.9 428.8,402.3 425.4,406.9 324,406.6 	"/>
	<polygon class="st8" points="340.1,337.4 350.3,332.2 351.6,334.4 350.3,338.1 346.7,338.3 343.8,344.3 340.1,340.6 	"/>
	<polygon class="st8" points="365.9,331.1 361,335.4 358.7,339.9 359,341.7 365.7,340.6 366.4,345.3 368.6,347.5 371.3,343.9 
		379,345.2 374.6,332.7 	"/>
	<polygon class="st8" points="384.9,345.2 384.3,351.8 381,356.6 377.4,355.1 373.9,358.9 370.2,358.9 369.8,356.1 377.8,345.9 	"/>
	<g>
		<path class="st8" d="M346.9,357c0.4-0.3,6.5-4.3,6.5-4.3l2.6,0.9l0.4,1.7l-1.6,4.2l3.3,2l-0.6,2l-3.2,1.4l0.4,5.5l-1.6,2.2l-4.3-3
			l-3.7,0.7l-3.7,2.6l-2.2-1v-6.3l-3.2,1.2l-3-2l-1-2.9l3-2.3l5-2.6l1.7-6.8l2.4-0.7l1.9,2.2L346.9,357z"/>
		<polygon class="st8" points="375.4,371.4 380,366.3 381.1,368.5 381.4,372 385,372.3 387,373.1 386.5,377.1 381,380.6 
			379.1,385.6 377.5,386.6 374.1,384.2 373.2,382 367.3,385.5 364.9,383.5 365.3,379.9 369.6,374.3 368.7,369.9 369,367.4 
			371.8,366.2 		"/>
		<polygon class="st8" points="338.7,382.6 346.1,379.7 347.2,381.8 345.9,388.1 351.2,386.8 354.2,388.2 353.5,391.4 348.9,393.1 
			351.2,397.7 343.7,397.9 336.6,402.8 334.6,395.4 330.6,394.9 330.2,391.3 330.5,388.2 332,384.3 334.3,377.4 336.5,377.6 		"/>
		<polygon class="st8" points="374.2,398.5 380.3,395.3 380.7,399.7 384.1,404.4 363.4,405.8 362.7,403.6 362.1,396.6 365.3,395.9 
			367,397.3 372.1,390.8 375.2,391.4 		"/>
		<polygon class="st8" points="414.8,403.9 425.3,405.4 426.8,391.5 421,393.7 419.4,391.8 415.2,396.9 411.8,396 411.2,398.7 		"/>
		<polygon class="st8" points="426.3,384.9 423.6,381.9 423,379.2 427.1,375.3 		"/>
		<polygon class="st8" points="404.9,331.1 413.9,328.8 421.4,331.5 424.7,337.1 417.5,339 416.3,342.9 414.4,345.2 411.4,340.6 
			410.6,337.4 405.6,340.3 403.4,336.8 		"/>
		<polygon class="st8" points="398.7,353 402.9,348.8 405.6,348.9 404.2,356.8 409.3,356.7 409.9,358.9 407.2,362.6 400.7,363.3 
			398.4,368.8 396.8,367.6 394.5,362.3 389.6,364.8 387.7,363 389.3,359.1 393.2,356.3 393.4,350.7 395.7,348.9 398.1,350.4 		"/>
		<polygon class="st8" points="428.3,352 426.9,369.1 422.3,371.1 420.9,370.1 420.7,364.8 415.8,365.5 414.7,364 417.4,359.7 
			420,359.4 420.7,357.3 420.7,352.7 422.6,353 423.7,354.4 426.5,351.8 		"/>
		<polygon class="st8" points="401.1,380.3 405,377.9 407.3,376.9 409.9,383.5 413.1,385.5 413.8,388.1 410.8,390.4 404,388.5 
			403,392.3 400.7,393.7 397.8,389.4 393.9,390.7 392.5,390.1 392.5,386.4 397.1,383.9 397.7,378.4 		"/>
	</g>
	<polygon class="st9" points="74.1,397 67.6,400.8 64.1,400.4 58.7,388.1 59.9,361.6 68,335.5 83.7,323.6 100.6,316 79.1,303.3 
		66,288.3 58,270.7 52.2,263 54.9,257.2 61.8,252.2 64.5,233.8 74.9,216.1 91.8,204.6 122.9,198.9 148.2,202.7 173.9,211.5 
		188.9,225 198.1,244.6 198.1,261.4 203.5,271 201.9,276 195,280.3 175.8,309.4 213.1,311.7 230.7,314 249.9,307.1 259.1,314.4 
		255.3,322.1 261.1,324.4 304.8,321.3 340.9,312.1 325.6,291.8 320.2,284.5 323.6,256.1 329.4,241.9 342.1,231.1 357.8,226.9 
		372.4,226.9 383.5,223.8 405.4,227.3 416.5,225.7 428.1,228.4 442.6,243.8 446.1,254.5 443.8,273 435.7,291 428.1,303.3 
		415.8,309.8 414.2,314.8 430,314.8 445.7,323.3 450.7,339.8 449.2,356.3 444.9,368.6 429.6,379.7 430.7,360.1 429.6,337.8 
		421.5,329.8 409.6,328.2 394.7,333.2 382.4,344.8 372.4,331.3 358.2,329.4 347.8,331.3 336.7,337.1 323.6,350.5 321.7,332.9 
		314,331.7 263.4,342.1 253.8,350.5 247.6,350.5 241.9,343.6 245.7,335.9 238.8,328.6 217.3,325.2 186.6,329.4 185.4,350.9 
		187.4,369.3 185.1,384.7 170.8,386.6 139,382 113.6,380.1 77.9,377.4 	"/>
	<polygon class="st9" points="344.8,406.2 361.6,407.3 355.2,453.8 349.8,458.8 344,458.8 	"/>
	<polygon class="st9" points="402.7,407.7 415.4,408.1 414.9,451.7 409.1,457 399.9,458.6 	"/>
	<g>
		<g>
			<g>
				<defs>
					<rect id="SVGID_1_" x="145.2" y="284.3" width="22.3" height="21.8"/>
				</defs>
				<clipPath id="SVGID_00000021804274310813657370000002108888425408041617_">
					<use xlink:href="#SVGID_1_"  style="overflow:visible;"/>
				</clipPath>
				<g style="clip-path:url(#SVGID_00000021804274310813657370000002108888425408041617_);">
					<defs>
						<path id="SVGID_00000145750307048088560640000003941730516797664405_" d="M145.2,295.2c0,6,5,10.9,11.2,10.9
							c6.2,0,11.2-4.9,11.2-10.9c0-6-5-10.9-11.2-10.9C150.2,284.3,145.2,289.2,145.2,295.2"/>
					</defs>
					<clipPath id="SVGID_00000029009734523367098020000014610368795526424730_">
						<use xlink:href="#SVGID_00000145750307048088560640000003941730516797664405_"  style="overflow:visible;"/>
					</clipPath>
					<defs>
						<filter id="Adobe_OpacityMaskFilter" filterUnits="userSpaceOnUse" x="145.2" y="284.3" width="22.3" height="21.8">
							<feColorMatrix  type="matrix" values="1 0 0 0 0  0 1 0 0 0  0 0 1 0 0  0 0 0 1 0"/>
						</filter>
					</defs>
					
						<mask maskUnits="userSpaceOnUse" x="145.2" y="284.3" width="22.3" height="21.8" id="SVGID_00000173163162687454351960000007751983313060858542_">
						<g class="st11">
							
								<radialGradient id="SVGID_00000046322527453854161000000012606416502825226112_" cx="-314.0885" cy="565.8578" r="1.069" gradientTransform="matrix(10.3254 0 0 -10.3254 3399.457 6137.9604)" gradientUnits="userSpaceOnUse">
								<stop  offset="0" style="stop-color:#FFFFFF"/>
								<stop  offset="9.119124e-02" style="stop-color:#F1F1F1"/>
								<stop  offset="0.2626" style="stop-color:#CDCDCD"/>
								<stop  offset="0.4959" style="stop-color:#939393"/>
								<stop  offset="0.7788" style="stop-color:#434343"/>
								<stop  offset="1" style="stop-color:#000000"/>
							</radialGradient>
							
								<rect x="145.2" y="284.3" style="clip-path:url(#SVGID_00000029009734523367098020000014610368795526424730_);fill:url(#SVGID_00000046322527453854161000000012606416502825226112_);" width="22.3" height="21.8"/>
						</g>
					</mask>
					
						<radialGradient id="SVGID_00000058562623102817345820000009194804227375718326_" cx="-314.0885" cy="565.8578" r="1.069" gradientTransform="matrix(10.3254 0 0 -10.3254 3399.457 6137.9604)" gradientUnits="userSpaceOnUse">
						<stop  offset="0" style="stop-color:#F16682"/>
						<stop  offset="0.1153" style="stop-color:#F27289"/>
						<stop  offset="0.332" style="stop-color:#F48E9C"/>
						<stop  offset="0.6267" style="stop-color:#F9BABF"/>
						<stop  offset="0.985" style="stop-color:#FFFAFA"/>
						<stop  offset="1" style="stop-color:#FFFFFF"/>
					</radialGradient>
					
						<rect x="145.2" y="284.3" style="clip-path:url(#SVGID_00000029009734523367098020000014610368795526424730_);mask:url(#SVGID_00000173163162687454351960000007751983313060858542_);fill:url(#SVGID_00000058562623102817345820000009194804227375718326_);" width="22.3" height="21.8"/>
				</g>
			</g>
		</g>
		<g>
			<g>
				<defs>
					<rect id="SVGID_00000088125989538770621480000018203435781528135596_" x="80.3" y="282.5" width="22.3" height="21.8"/>
				</defs>
				<clipPath id="SVGID_00000079481026508008846120000003147074753076060801_">
					<use xlink:href="#SVGID_00000088125989538770621480000018203435781528135596_"  style="overflow:visible;"/>
				</clipPath>
				<g style="clip-path:url(#SVGID_00000079481026508008846120000003147074753076060801_);">
					<defs>
						<path id="SVGID_00000110455609102643600320000006170403990908633258_" d="M80.3,293.4c0,6,5,10.9,11.2,10.9
							c6.1,0,11.1-4.8,11.2-10.8v-0.3c-0.1-6-5-10.8-11.2-10.8C85.3,282.5,80.3,287.4,80.3,293.4"/>
					</defs>
					<clipPath id="SVGID_00000132766408492011116920000017486359756167211683_">
						<use xlink:href="#SVGID_00000110455609102643600320000006170403990908633258_"  style="overflow:visible;"/>
					</clipPath>
					<defs>
						
							<filter id="Adobe_OpacityMaskFilter_00000133522225949075964120000002000701772400312720_" filterUnits="userSpaceOnUse" x="80.3" y="282.5" width="22.3" height="21.8">
							<feColorMatrix  type="matrix" values="1 0 0 0 0  0 1 0 0 0  0 0 1 0 0  0 0 0 1 0"/>
						</filter>
					</defs>
					
						<mask maskUnits="userSpaceOnUse" x="80.3" y="282.5" width="22.3" height="21.8" id="SVGID_00000005225361159393024950000003803523387951364765_">
						<g style="filter:url(#Adobe_OpacityMaskFilter_00000133522225949075964120000002000701772400312720_);">
							
								<radialGradient id="SVGID_00000124139785588199879140000000173770236817832118_" cx="-314.4938" cy="565.8694" r="1.0689" gradientTransform="matrix(10.3254 0 0 -10.3254 3338.7637 6136.2544)" gradientUnits="userSpaceOnUse">
								<stop  offset="0" style="stop-color:#FFFFFF"/>
								<stop  offset="9.119124e-02" style="stop-color:#F1F1F1"/>
								<stop  offset="0.2626" style="stop-color:#CDCDCD"/>
								<stop  offset="0.4959" style="stop-color:#939393"/>
								<stop  offset="0.7788" style="stop-color:#434343"/>
								<stop  offset="1" style="stop-color:#000000"/>
							</radialGradient>
							
								<rect x="80.3" y="282.5" style="clip-path:url(#SVGID_00000132766408492011116920000017486359756167211683_);fill:url(#SVGID_00000124139785588199879140000000173770236817832118_);" width="22.3" height="21.8"/>
						</g>
					</mask>
					
						<radialGradient id="SVGID_00000079454557622597473150000007432190837183881371_" cx="-314.4938" cy="565.8694" r="1.0689" gradientTransform="matrix(10.3254 0 0 -10.3254 3338.7637 6136.2544)" gradientUnits="userSpaceOnUse">
						<stop  offset="0" style="stop-color:#F16682"/>
						<stop  offset="0.1153" style="stop-color:#F27289"/>
						<stop  offset="0.332" style="stop-color:#F48E9C"/>
						<stop  offset="0.6267" style="stop-color:#F9BABF"/>
						<stop  offset="0.985" style="stop-color:#FFFAFA"/>
						<stop  offset="1" style="stop-color:#FFFFFF"/>
					</radialGradient>
					
						<rect x="80.3" y="282.5" style="clip-path:url(#SVGID_00000132766408492011116920000017486359756167211683_);mask:url(#SVGID_00000005225361159393024950000003803523387951364765_);fill:url(#SVGID_00000079454557622597473150000007432190837183881371_);" width="22.3" height="21.8"/>
				</g>
			</g>
		</g>
		<g>
			<g>
				<defs>
					<rect id="SVGID_00000168093122939562164340000001424742312961695662_" x="332.1" y="281.3" width="22.3" height="21.8"/>
				</defs>
				<clipPath id="SVGID_00000138532162357284820890000003993931404955538107_">
					<use xlink:href="#SVGID_00000168093122939562164340000001424742312961695662_"  style="overflow:visible;"/>
				</clipPath>
				<g style="clip-path:url(#SVGID_00000138532162357284820890000003993931404955538107_);">
					<defs>
						<path id="SVGID_00000034083986572376343500000004367340284861524115_" d="M332.1,292.2c0,6,5,10.9,11.2,10.9
							c6.2,0,11.2-4.9,11.2-10.9c0-6-5-10.9-11.2-10.9C337.1,281.3,332.1,286.2,332.1,292.2"/>
					</defs>
					<clipPath id="SVGID_00000080177934238750135880000012618735701078120119_">
						<use xlink:href="#SVGID_00000034083986572376343500000004367340284861524115_"  style="overflow:visible;"/>
					</clipPath>
					<defs>
						
							<filter id="Adobe_OpacityMaskFilter_00000111898293179194640250000007348678206085242267_" filterUnits="userSpaceOnUse" x="332.1" y="281.3" width="22.3" height="21.8">
							<feColorMatrix  type="matrix" values="1 0 0 0 0  0 1 0 0 0  0 0 1 0 0  0 0 0 1 0"/>
						</filter>
					</defs>
					
						<mask maskUnits="userSpaceOnUse" x="332.1" y="281.3" width="22.3" height="21.8" id="SVGID_00000038408914806354104820000017847380762820263819_">
						<g style="filter:url(#Adobe_OpacityMaskFilter_00000111898293179194640250000007348678206085242267_);">
							
								<radialGradient id="SVGID_00000032650451809225716960000013866445881912341403_" cx="-312.9208" cy="565.8767" r="1.0689" gradientTransform="matrix(10.3254 0 0 -10.3254 3574.3115 6135.1592)" gradientUnits="userSpaceOnUse">
								<stop  offset="0" style="stop-color:#FFFFFF"/>
								<stop  offset="9.119124e-02" style="stop-color:#F1F1F1"/>
								<stop  offset="0.2626" style="stop-color:#CDCDCD"/>
								<stop  offset="0.4959" style="stop-color:#939393"/>
								<stop  offset="0.7788" style="stop-color:#434343"/>
								<stop  offset="1" style="stop-color:#000000"/>
							</radialGradient>
							
								<rect x="332.1" y="281.3" style="clip-path:url(#SVGID_00000080177934238750135880000012618735701078120119_);fill:url(#SVGID_00000032650451809225716960000013866445881912341403_);" width="22.3" height="21.8"/>
						</g>
					</mask>
					
						<radialGradient id="SVGID_00000155127308218079445110000000007873352669981619_" cx="-312.9208" cy="565.8767" r="1.0689" gradientTransform="matrix(10.3254 0 0 -10.3254 3574.3115 6135.1592)" gradientUnits="userSpaceOnUse">
						<stop  offset="0" style="stop-color:#F16682"/>
						<stop  offset="0.1153" style="stop-color:#F27289"/>
						<stop  offset="0.332" style="stop-color:#F48E9C"/>
						<stop  offset="0.6267" style="stop-color:#F9BABF"/>
						<stop  offset="0.985" style="stop-color:#FFFAFA"/>
						<stop  offset="1" style="stop-color:#FFFFFF"/>
					</radialGradient>
					
						<rect x="332.1" y="281.3" style="clip-path:url(#SVGID_00000080177934238750135880000012618735701078120119_);mask:url(#SVGID_00000038408914806354104820000017847380762820263819_);fill:url(#SVGID_00000155127308218079445110000000007873352669981619_);" width="22.3" height="21.8"/>
				</g>
			</g>
		</g>
		<g>
			<g>
				<defs>
					<rect id="SVGID_00000072249350148881686980000018331657134642880921_" x="399.1" y="282.1" width="22.3" height="21.8"/>
				</defs>
				<clipPath id="SVGID_00000177455421966894324720000004148655571628664246_">
					<use xlink:href="#SVGID_00000072249350148881686980000018331657134642880921_"  style="overflow:visible;"/>
				</clipPath>
				<g style="clip-path:url(#SVGID_00000177455421966894324720000004148655571628664246_);">
					<defs>
						<path id="SVGID_00000065035034428245482840000013177327476252311425_" d="M399.1,293c0,6,5,10.9,11.2,10.9
							c6.2,0,11.2-4.9,11.2-10.9c0-6-5-10.9-11.2-10.9C404.1,282.1,399.1,287,399.1,293"/>
					</defs>
					<clipPath id="SVGID_00000102509120658113295300000007390380232502416789_">
						<use xlink:href="#SVGID_00000065035034428245482840000013177327476252311425_"  style="overflow:visible;"/>
					</clipPath>
					<defs>
						
							<filter id="Adobe_OpacityMaskFilter_00000166641474275457542460000011468407699893749145_" filterUnits="userSpaceOnUse" x="399.1" y="282.1" width="22.3" height="21.8">
							<feColorMatrix  type="matrix" values="1 0 0 0 0  0 1 0 0 0  0 0 1 0 0  0 0 0 1 0"/>
						</filter>
					</defs>
					
						<mask maskUnits="userSpaceOnUse" x="399.1" y="282.1" width="22.3" height="21.8" id="SVGID_00000147907874052307822350000002621982057782829477_">
						<g style="filter:url(#Adobe_OpacityMaskFilter_00000166641474275457542460000011468407699893749145_);">
							
								<radialGradient id="SVGID_00000146478537954741423640000011729865998230380417_" cx="-312.5023" cy="565.8719" r="1.069" gradientTransform="matrix(10.3254 0 0 -10.3254 3636.9805 6135.8774)" gradientUnits="userSpaceOnUse">
								<stop  offset="0" style="stop-color:#FFFFFF"/>
								<stop  offset="9.119124e-02" style="stop-color:#F1F1F1"/>
								<stop  offset="0.2626" style="stop-color:#CDCDCD"/>
								<stop  offset="0.4959" style="stop-color:#939393"/>
								<stop  offset="0.7788" style="stop-color:#434343"/>
								<stop  offset="1" style="stop-color:#000000"/>
							</radialGradient>
							
								<rect x="399.1" y="282.1" style="clip-path:url(#SVGID_00000102509120658113295300000007390380232502416789_);fill:url(#SVGID_00000146478537954741423640000011729865998230380417_);" width="22.3" height="21.8"/>
						</g>
					</mask>
					
						<radialGradient id="SVGID_00000008865850895993498730000018090051606070034620_" cx="-312.5023" cy="565.8719" r="1.0689" gradientTransform="matrix(10.3254 0 0 -10.3254 3636.9802 6135.8774)" gradientUnits="userSpaceOnUse">
						<stop  offset="0" style="stop-color:#F16682"/>
						<stop  offset="0.1153" style="stop-color:#F27289"/>
						<stop  offset="0.332" style="stop-color:#F48E9C"/>
						<stop  offset="0.6267" style="stop-color:#F9BABF"/>
						<stop  offset="0.985" style="stop-color:#FFFAFA"/>
						<stop  offset="1" style="stop-color:#FFFFFF"/>
					</radialGradient>
					
						<rect x="399.1" y="282.1" style="clip-path:url(#SVGID_00000102509120658113295300000007390380232502416789_);mask:url(#SVGID_00000147907874052307822350000002621982057782829477_);fill:url(#SVGID_00000008865850895993498730000018090051606070034620_);" width="22.3" height="21.8"/>
				</g>
			</g>
		</g>
		<path class="st26" d="M107.3,210.9l-3.5,8.9l7.2,12.4c3.5,1.2,16.4-0.6,16.4-0.6c2.6,1.4,8.6-2,8.6-2c3.2,1.7,5.8-4,4.9-5.8
			c-0.9-1.7-5.2-4.9-5.2-4.9s-0.1-3.9,5.5-6.3c22.5-9.8,57,41.5,57,41.5l-7.5-28.8l-23.6-18.1l-46.9-9.8L84,204.8l-16.4,23.6
			l-5.2,20.7C81.1,216.9,107.3,210.9,107.3,210.9"/>
		<path class="st1" d="M347.7,368.3c0,1.7,1.6,3.2,5.9,5.7h0C349.3,371.5,347.7,370,347.7,368.3"/>
		<path d="M314.2,46.5c-1.1-1.2-3.5-2-5.1-1.6c-5,1.1-9.5,3.5-13.1,7.2c-1.6,1.6-2.8,3.6-4.4,5.7c-2-5.3-3.5-10.2-8.5-12.8
			c-2.4-1.3-4.6-3.1-7.6-1.7c-2.2,1-4.6,1.5-6.6,2.8c-7.5,4.8-9.8,9.4-8.1,18.1c0.6,3.2,1.5,6.4,2.7,9.4c0.9,2.2,2.5,4.2,4,6.2
			c1.4,1.8,3,3.3,4.6,4.9c1.2,1.3,2.4,2.8,3.7,4c2.5,2.3,5,4.5,7.6,6.8c1,0.9,1.9,2.3,3,2.6c1.9,0.5,2.6,1.8,3.6,3.1
			c0.6,0.7,2.1,1.3,3.1,1.1c3.4-0.5,5.8-2.8,8-5.3c1.7-1.9,3.4-4,5.4-5.6c5.3-4.1,9.5-9.1,12.8-14.8c3-5.1,3.8-11.2,4.2-17.1
			c0.1-1.3-0.5-2.8-0.9-4.1C321,51.3,317,49.4,314.2,46.5 M317.3,60.4c-1.5,4-3.5,8.1-3.6,12.2c-0.2,4.5-3.4,6.5-5.7,9
			c-4.5,4.9-9.6,9.3-14.7,14.2c-1.8-1.9-3.1-3.7-4.7-4.9c-1.5-1.1-3.5-1.4-5.1-2.3c-1.5-0.9-2.9-2.1-4.1-3.5
			c-4.4-5.1-8.8-10.4-11.5-16.6c-0.7-1.5-0.8-3.3-0.8-4.9c0.1-3.2-1.4-6.3,0.2-9.6c1.6-3.2,4.1-5.3,7.2-6.1c2.6-0.7,5,1.4,6.8,3.3
			c2.6,2.6,3.2,6.1,3.8,9.6c0.1,0.7,0,1.6,0.3,2.2c0.5,1.2,1.5,3.3,2,3.2c1.6-0.3,3.3-1.1,4.4-2.2c3.7-3.6,6.4-8.3,11.4-10.5
			c1.7-0.8,3.5-1.8,5.3-2c1.5-0.2,3.2,0.4,4.7,1c1,0.4,1.7,1.3,2.6,1.9C318.6,56.5,318.6,56.9,317.3,60.4"/>
		<path d="M104.9,210.7c-3.3,5.1-2.9,10.4-0.8,15.6c1.1,2.8,2.8,5.7,6.4,6.3c1.6,0.3,2.3-0.4,1.6-1.8c-0.7-1.6-1.7-3.1-2.6-4.6
			c-3.2-5.7-2.3-11.3,0.2-17.3C107.4,208,106.1,208.9,104.9,210.7"/>
		<path d="M120.3,229.9c1.7,1.4,3.9,2.1,5.9,2.8c0.6,0.2,1.6-0.5,2.4-0.8c-0.4-0.6-0.7-1.3-1.3-1.8c-1.5-1.3-3-3-4.8-3.8
			c-4.3-2-5.5-6.2-5.4-9.8c0.1-3.3-1.1-3.5-3.3-3.9c-1.7,3.7-3,7.3,0.1,10.8C116.1,225.6,118,228,120.3,229.9"/>
		<path d="M124.8,281.6c-1-3-1.9-5.3-2.7-7.7c-2.3,3.8-0.7,7.5-0.1,11.1c0.2,1,2.5,1.7,4,2.7c1.4-1.6,2.6-3,3.7-4.3
			c0.8-0.9,2-1.8,2.2-2.9c0.3-1.5-0.2-3.1-0.4-4.6c-1.1,0.6-2.3,1.1-3.2,1.9C127.1,278.8,126.2,280.1,124.8,281.6"/>
		<path d="M83.5,263.2c-0.2-0.2-0.4-0.3-0.6-0.5c-1.4,1.5-2.9,2.9-4,4.5c-1.6,2.4-0.5,4.9,2.3,5.6c2.3,0.6,5.8-1,7.4-3.5
			c1.5-2.2,1-4.4-1.4-5.3C86.1,263.5,84.8,263.5,83.5,263.2"/>
		<path d="M122.3,302.7c4.8,0.4,8.6-1.3,12.4-5.1c-2.3-1-4.2-1.8-6.1-2.6c-2.3,0.7-3,4.4-6.2,3.5c-2.3-0.6-4.4-1.6-6.5-2.4
			C115.7,299.5,118.5,302.4,122.3,302.7"/>
		<path d="M161.4,273.1c0,2.2,2.2,4,5,4.2c2.6,0.1,5.5-2.4,5.7-5c0.1-2.3-1.7-4.4-4-4.5C165,267.5,161.4,270.4,161.4,273.1"/>
		<path d="M138.1,229.2c-0.4-0.7-0.7-1.3-1-1.8c-0.2-0.3-0.5-0.6-0.8-0.7c-4.4-0.8-5.2-4-5.3-7.8c-0.1-1.8-0.3-4-3.1-3.5
			c-2.2,0.4-2.3,2.2-1.8,3.7c1,3.2,2.1,6.5,5,8.4C133,228.8,134.8,231.6,138.1,229.2"/>
		<path d="M141.1,224.6c0.5-0.5,0.4-1.9,0.1-2.7c-1.1-2.7-3.3-3.9-6.3-4.2c-0.1,0.3-0.5,0.7-0.5,0.9c1.3,2.1,2.5,4.3,4.1,6.3
			C138.8,225.3,140.6,225.1,141.1,224.6"/>
		<path d="M385.4,292.6c-1.4,1.7-3.3,3.5-5.3,4.3c-2.2,0.9-4.9,1.1-7.3,1c-0.9,0-1.5-2.1-2.6-2.8c-0.9-0.6-2.2-0.7-3.8-1.2
			c2.6,6.2,4.4,7.4,9.8,7.1c5.9-0.3,10.6-2.6,12.6-8.9C387.4,291,386.6,291.1,385.4,292.6"/>
		<path d="M375.5,284.1c0.4,0.2,1,0.1,1.5,0.1c3.5,0,4.8-2.8,6.3-5.2c0.7-1.1,2.7-2.2,0.7-3.6c-0.3-0.2-2.3,1.2-3,2.3
			c-1.3,1.9-2.3,4.1-5.3,4.4c-0.8-3.4-1.5-6.7-2.2-10.1c-0.3,0-0.7,0-1,0.1c-0.3,0.4-0.8,0.8-1,1.3
			C370.7,275.9,373.1,282.6,375.5,284.1"/>
		<path d="M418.8,261.5c-1.5,0-3.4,2.4-3.4,4.4c0,2.4,1.9,4.6,3.9,4.6c2.3,0,4.5-2.5,4.5-5C423.8,262.6,422.6,261.6,418.8,261.5"/>
		<path d="M338.6,261.1c-1.6,0.6-3.1,2.5-3.7,4.1c-0.7,1.8,2.3,4.6,4.3,4.7c1.4,0,3.5-2.4,3.6-4.1
			C342.8,263.7,340.3,260.5,338.6,261.1"/>
		<path d="M106.2,343.3c-1.2,0.6-2.2,1.5-3.6,2.6c1.1,1.5,1.9,3.3,2.6,3.2c2.4-0.2,2.2-2.6,2.6-4.3
			C107.9,344.4,106.4,343.2,106.2,343.3"/>
		<path d="M157,347.2c-0.1,0.2,1.3,1.6,1.6,1.5c1.2-0.4,2.3-1.2,4.1-2.3c-1.6-1.5-2.5-2.2-3.3-3C158.6,344.6,157.6,345.8,157,347.2"
			/>
		<path d="M356.4,357.3c1.4-1.9,1.4-3.8-0.5-5.1c-1.7-1.1-3.6-1-5.2,0.7c-0.9,1-2.1,1.7-3.5,2.9c0.2-1.1,0.5-1.7,0.3-2.1
			c-0.8-1.8-1.3-4-2.7-5c-1.9-1.4-3.5,0.4-4.2,2.2c-0.6,1.7-0.9,3.6-1.3,5.3c-1.7,0.8-3.6,1.7-5.4,2.7c-1.9,1-3.3,2.6-2.3,4.7
			c1.6,3.6,3.8,4.4,6.6,2.9c-0.1,5.3,0.4,7,2.9,7c1.6,0,3.2-1.6,4.6-2.8c0.3-0.3,0-1.4-0.1-2.2c-1.5,0.7-2.2,1.7-3.1,2.5
			c-0.5,0.4-1.3,0.8-1.9,0.7c-0.3,0-0.8-1.1-0.8-1.5c0.4-2,1-3.9,1.5-5.8c0.1-0.6,0.1-1.1,0.2-1.7c-0.7,0-1.4-0.1-1.9,0.2
			c-1.4,0.8-2.6,1.7-4,2.6c-0.9-1-1.8-2-3-3.4c2.9-1.7,4.9-4.5,8.6-3.2c0.9-8.8,0.9-8.8,3.9-7.6c0.3,2.4,0.5,4.8,0.9,8
			c2.5-1.9,4.4-3.5,6.4-4.8c0.7-0.5,1.8-0.4,2.8-0.6c0.1,0.3,0.2,0.7,0.3,1c-1,1.7-2.1,3.5-3.5,5.8c1,0.1,1.8,0,2.6,0.2
			c0.8,0.1,1.7,0.2,2.3,0.6c0.3,0.2-0.1,1.2-0.2,1.9c-1.6-0.4-2.9-0.7-4.4-1.1c-0.5,3.3,3.4,6,0.2,9.4c-1.5-1.5-3.1-3-4.6-4.5
			c-0.2,0.4-0.3,0.9-0.3,1.3c0,1.7,1.6,3.2,5.9,5.7c1.7-2,2.5-4.2,2.2-6.3c-0.1-0.7-0.3-1.4-0.6-2.1c1.5-1.2,3.8-2.2,3.7-3
			c-0.1-1.6-1.5-3.1-2.6-5.1C356.2,357.8,356.2,357.5,356.4,357.3"/>
		<path d="M353.6,374L353.6,374c1.7-2,2.5-4.2,2.2-6.3C356,369.7,355.3,371.9,353.6,374"/>
		<path d="M383.2,371c-0.3-0.1-0.6,0.1-1.1,0.2c0-1.2,0.2-2.2,0-3c-0.3-1-0.7-2.2-1.4-2.8c-0.3-0.3-1.7,0.6-2.5,1.2
			c-1.2,0.9-2.4,1.9-3,2.4c-1.6-1.6-3-3-4.3-4.4c-1.1,1.2-2.4,2.3-3.2,3.7c-0.8,1.5-0.3,3.1,1.9,4.4c-0.6-2.6-0.9-4.7,1.9-6
			c0.5,1.4,1.1,2.7,1.4,4c0.3,1.2,0.2,2.4,0.4,4.3c2.6-3,4.4-5.2,6.3-7.3c0.7,0.9,0.8,1.5,0.7,1.9c-0.8,3.5-0.2,4.2,3.3,3.4
			c1.9-0.5,2.9,0.4,2.5,2.3c-0.5,2.8-4.1,4.4-7.4,2.9c0.2,1.1,0.4,2,0.6,2.8c0.5,2.3-0.5,5.1-1.9,4.9c-2-0.3-2.4-2-2.6-3.8
			c-0.1-0.7-0.7-1.5-1.3-1.8c-0.4-0.2-1.3,0.5-1.9,0.8c-1.7,1.1-3.3,2.2-5.3,3.5c-1.9-5.9,2.8-7.5,5.1-10.8c-0.8-0.3-2-0.5-2.3-0.1
			c-1.8,2.4-3.8,4.8-5,7.5c-1,2.2,2.1,5.4,4,4.5c1.7-0.7,3.2-1.7,4.9-2.6c0.2,0.3,0.3,0.9,0.7,1.2c1.4,1.1,2.7,2.5,4.3,3
			c0.5,0.2,2.5-2,2.6-3.2c0.2-2.6,2-3.3,3.6-4.3c0.5-0.4,1.2-0.5,1.7-0.9c1.5-1.1,2.9-5.3,1.7-6.6
			C386.6,371.4,384.7,371.4,383.2,371"/>
		<path d="M394.3,363.6c1.3,2.5,2.4,4.6,3.5,6.8c0.3,0,0.6,0,0.9,0c1-2.1,2-4.2,3.1-6.3c0.6,0,1.2,0,1.9,0c3.2,0.3,5.6-1.4,6.7-4.5
			c0.9-2.5-0.3-4.3-3-4c-1.4,0.1-2.9,0.6-4.3,0.8c-0.1,0.4-0.1,0.8-0.2,1.1c1.1,0,2.1,0,3.2,0.1c0.9,0,1.9,0.1,2.8,0.1
			c-0.4,1-0.5,2.2-1.2,2.8c-0.7,0.7-1.9,1.1-3,1.1c-1.6,0.1-3.2-0.2-4.6-0.4c-0.6,2.1-1.2,4.1-1.8,6.1c-0.4-0.1-0.7-0.1-1.1-0.2
			v-6.9c-2.5,1-5.3,2-8.3,3.2c-0.5-4.9,3.8-4.8,6.1-6.5c-2.2-3.4-2-5.3,1.4-7.4c0.6,2.4,1.1,4.5,1.7,7c4.6-6.4,4.6-6.4,6.6-6.8
			c-0.4,1.9-0.8,3.7-1.2,5.6c0.4,0.1,0.7,0.2,1.1,0.3c0.7-1.7,2-3.3,2.1-5.1c0.3-2.9-2.1-4-4.5-2.4c-1.1,0.7-2,1.8-2.5,2.2
			c-2-0.8-3.6-2.1-5.1-2c-0.9,0.1-2.5,2.5-2.3,3.5c0.8,3.3-1.1,4.9-3.3,6.6c-0.5,0.4-0.9,0.9-1.3,1.4c-1,1.4-1.1,2.7,0.1,4
			c1.2,1.3,2.5,1.5,4,0.6C392.6,364.1,393.6,363.9,394.3,363.6"/>
		<path d="M400,392.4c0.2-1.7,0.3-3,0.4-4.3c0-0.5-0.2-0.9-0.3-1.4c-0.4,0.1-0.9,0.2-1.2,0.4c-1.6,0.9-3.2,1.9-5.5,3.2
			c0-1.7-0.4-3.4,0.1-3.8c1.4-0.9,3.2-1.3,4.8-1.9v-4.8c0.3-0.1,0.5-0.2,0.8-0.3c0.7,1.1,1.4,2.2,2.1,3.2c1.7-1.8,3.5-3.6,5.2-5.4
			c0.4,0.4,0.9,0.7,1.3,1.1c-0.6,1.5-1.2,3-1.6,3.9c2.3,1.3,4.5,2.5,6.6,3.7c0.3-0.2,0.6-0.5,0.9-0.7c-4-2.1-5.3-5-3.4-8.9
			c-0.6-0.3-1.3-0.9-1.7-0.7c-1.7,0.8-3.3,1.8-5,2.6c-0.7,0.3-1.7,0.7-2.4,0.5c-1.3-0.4-2.5-1.1-4.4-2c-0.2,2.6-0.3,4.3-0.4,6.1
			c-4.6,1.6-5.8,3.3-4.6,6.3c0.9,2.3,2.1,2.4,5.9,0.7c1.1,1.7,2.3,3.5,3.4,5.2c0.3-0.1,0.7-0.1,1-0.2c0.5-1.2,1-2.3,1.5-3.4
			c-0.2-0.1-0.5-0.2-0.7-0.3C402,391.6,401.2,391.9,400,392.4"/>
		<path d="M401.8,383.8c-0.2-0.4-0.5-0.7-0.7-1.1c0,0,0,0,0,0C401.4,383.1,401.6,383.4,401.8,383.8"/>
		<path d="M348.1,386.9c-0.3,0.2-0.9,0.1-1.5,0.1c0.4-1,0.7-1.8,1.1-2.6c1-2.1,0.8-4.5-0.9-5.4c-1.1-0.6-3.5,0.5-4.9,1.4
			c-2.5,1.6-2.9,1.5-3.7-1.3c-0.3-1.2-1.4-2.4-2.5-3c-0.4-0.3-2.3,0.9-2.6,1.8c-0.8,2.1-1.1,4.4-1.5,6.6c-0.1,0.5,0.3,1,0.5,1.5
			c2.4-7.4,2.4-7.4,4.3-7.7c0.4,2.3,0.8,4.6,1.2,6.9c0.3,0,0.5,0,0.8-0.1c0.3-0.8,0.5-1.6,0.6-1.7c1.5-0.6,2.6-0.9,3.6-1.3
			c1.1-0.5,2.2-1,3.7-1.8c0.4,3.6-3.1,6.6,0.2,9.4c2.2-0.9,4.3-2.8,7-1.1c-0.2,1.9-0.8,3-3.2,2.5c-1.6-0.4-3.1,0.4-2.4,2.2
			c0.7,1.8,2.1,3.4,3.2,5.1c0.5-1.1,0.6-2,0.3-2.8c-0.4-0.9-1.1-1.6-1.5-2c1.7-0.9,3.5-1.5,4.6-2.6c0.7-0.7,0.6-3.5,0.3-3.6
			C352.7,386.8,350.6,384.8,348.1,386.9"/>
		<path d="M405.2,386.5c-0.6,0.7-1.1,1.5-1.7,2.2c1.3,0.4,2.2,0.6,3.1,0.9c1.2,0.5,2.3,1.4,3.5,1.6c0.9,0.2,2.2-0.2,2.8-0.8
			c0.7-0.7,0.9-1.9,1.4-2.8C410.4,389.6,409.2,389.5,405.2,386.5"/>
		<path d="M186.2,123c1.3-0.6,2.7-1.1,3.9-1.9c2.6-1.7,5.4-1.1,8.1-0.5c0.7,0.2,1.5,1,1.9,1.7c2,4.4,3.2,8.9,2.2,13.8
			c-0.4,1.9,0.4,3.9,0.3,5.9c-0.2,3.4-0.5,6.9-0.9,10.3c-0.3,2.1-3.1,3.9-5.6,3.4c-0.6-0.1-1.4-1.3-1.4-2c-0.1-6,0-12.1-0.1-18.1
			c0-2,0.1-4.1-0.6-5.8c-0.5-1.2-2.2-2.3-3.7-3c-0.6-0.3-2.4,0.3-3,0.9c-1,1.2-2,2.6-2.2,4c-1,6.8-1.6,13.6-2.5,20.4
			c-0.3,2.6-3.2,2-5,2.5c-1,0.3-3.3-0.2-3.5-0.7c-0.5-1.7-0.8-3.7-0.4-5.4c1.4-5.9,2.9-11.7,3.2-17.8c0.2-3.5,1.3-6.9,1.8-10.4
			c0.5-3.1,0.6-6.3,1.5-9.4c0.6-2.1,2.1-4.1,3.5-6c0.6-0.8,1.9-1.3,3-1.6c1.5-0.4,2.8,0,2.5,1.7c-0.3,1.7-0.3,3.5-1.1,4.9
			C185.9,114.1,185,118.4,186.2,123"/>
		<path d="M228.7,149.1c-2,1.5-3.6,2.6-5.1,3.9c-3.4,3-7.2,3.4-11.3,1.4c-1.3-0.6-2.6-1.8-3-2.9c-1.7-5.6-0.9-10.4,5.3-14.4
			c3.7-2.4,7.3-5,10.8-7.6c1.8-1.3,0.8-2.9,0.1-4.3c-0.7-1.5-2.2-1.8-3.9-1.6c-2.7,0.2-5.5,0.4-8.2,0.5c-2.3,0.1-3-0.7-2.2-2.7
			c0.5-1.3,1.2-2.5,1.9-3.7c0.1-0.3,0.6-0.6,0.9-0.6c4.9,0,9.9-0.2,14.8,0.2c1,0.1,2.2,2.2,2.7,3.5c0.8,2,1,4.2,1.5,6.3
			c1.7,8.2,3.5,16.4,5.2,24.6c0.4,2.1-0.7,3.1-4.5,4c-3.9,0.9-5,0.1-5-3.3V149.1z M226.7,134.4c-0.3-0.1-0.7-0.2-1-0.2
			c-2.5,2.4-5.1,4.7-7.5,7.2c-1.5,1.5-1.2,3.4,0.6,4.8c1.4,1.1,3.4,1.1,5.1-0.3c1.2-1,2.3-2.2,3.4-3.3c0.5-0.5,1.4-1.1,1.3-1.6
			C228.1,138.7,227.3,136.6,226.7,134.4"/>
		<path d="M244.2,114.7c0.9,0.6,2.5,1,2.9,1.8c1.5,2.9,3,5.9,3.9,9c1.2,4.2,2,8.6,2.9,12.8c0.7,3.1,1.3,6.1,2.2,9.1
			c0.2,0.8,1.4,1.3,2.1,2c0.5-0.5,1.1-1,1.4-1.6c2-3.9,4.2-7.7,5.8-11.7c1.9-4.9,3.1-9.9,4.7-14.9c0.4-1.3,3.4-2.8,5-2.5
			c2.1,0.5,3.1,2.1,2.4,4.1c-1.5,4.1-3.1,8.3-4.7,12.4c-2.3,5.8-4.5,11.7-7.1,17.4c-1,2.3-3.5,4.4-6.5,4c-2.3-0.3-5.1-0.8-6.7-3.1
			c-4-5.7-4.9-12.3-7.1-18.5c-1.3-3.7-2.8-7.2-4.2-10.9c-0.8-1.9-1.9-3.7-2.4-5.7c-0.2-0.8,0.8-2.1,1.6-2.7
			C241.2,115.3,242.6,115.2,244.2,114.7"/>
		<path d="M280.6,138.2c-0.4-6.6,1.2-10.7,3.3-14.6c0.8-1.5,2.9-2.5,4.3-3.7c0.6-0.5,1.2-0.9,1.7-1.4c2.8-2.5,6.5-3.4,10.1-3.8
			c6.6-0.7,8.6,2.8,6.6,7.7c-1.6,3.7-4.6,6.6-8.5,8.6c-1.8,0.9-3.8,1.5-5.5,2.6c-1,0.6-1.8,1.6-2.2,2.6c-1.2,3.1,0.2,6.1,1.1,9.1
			c0.3,1.1,2,2.2,3.3,2.5c2.1,0.6,4.6,0.6,6.8,1.1c1.3,0.3,2.9,1,3.4,1.9c0.4,0.7-0.4,2.2-1.1,3c-2.8,3.2-8.1,3.7-12.2,1.3
			c-1.4-0.8-3-1.5-4.3-2.5C282,148.2,281.6,142,280.6,138.2 M299.1,123.1c-1.2-1.5-2.5-1.8-4-1c-3.2,1.8-4.1,3.7-2.7,6.5
			C294.7,126.7,296.8,124.9,299.1,123.1"/>
		<path d="M328.2,122.5c-0.3,5.5-1,10.9-0.9,16.2c0.1,4.2,1.2,8.3,1.7,12.4c0.3,2.1,1.8,3.1,3.6,4.1c1.5,0.8,3,1.8,4.1,2.9
			c0.5,0.6,0.6,1.9,0.2,2.6c-0.5,0.8-1.8,1.8-2.7,1.8c-2.6,0-5.3-0.3-7.8-1c-1.3-0.4-2.4-1.8-3.4-2.8c-2.5-2.6-4.2-5.5-4-9.1
			c0.2-3.6-0.1-7.3,0.1-10.9c0.2-3.7,0.6-7.5,0.8-11.2c0.1-1.3-0.1-2.7-0.2-4.2c-1.6,0.3-3.3,0.7-5,1.1c-2.4,0.5-3.4-0.3-2.7-2.3
			c1.1-3.4,3.1-4.9,7.3-4.8c2,0,2.6-0.6,2.7-2.2c0.2-3.9,2-4.8,6.2-3.6c2.8,0.8,1.7,2.6,1.6,4.4c1.7,0.1,3.3,0.2,5,0.4
			c1.5,0.1,2.4,0.7,2.4,2.2c0,1.5,0,3-2.1,3.4c-1.8,0.3-3.7,0.3-5.6,0.4C329.1,122.3,328.6,122.4,328.2,122.5"/>
		<path d="M191.1,50.3c0.9,0.6,2.5,1,2.9,1.9c1.5,3.1,3,6.2,3.9,9.5c1.2,4.5,2,9.1,2.9,13.6c0.7,3.2,1.3,6.5,2.2,9.7
			c0.2,0.8,1.4,1.4,2.1,2.1c0.5-0.6,1.1-1,1.4-1.7c2-4.1,4.2-8.1,5.8-12.3c1.9-5.2,3.1-10.5,4.7-15.8c0.4-1.4,3.4-3,5-2.6
			c2.1,0.5,3.1,2.3,2.4,4.3c-1.5,4.4-3.1,8.8-4.7,13.1c-2.3,6.2-4.5,12.4-7.1,18.4c-1,2.4-3.5,4.7-6.5,4.2c-2.3-0.3-5.1-0.9-6.7-3.3
			c-4-6.1-4.9-13-7.1-19.6c-1.3-3.9-2.8-7.7-4.2-11.5c-0.8-2-1.9-3.9-2.4-6c-0.2-0.8,0.8-2.2,1.6-2.8
			C188.1,50.9,189.4,50.8,191.1,50.3"/>
		<path d="M225.5,89c0.6-4.4,1.2-8.1,1.6-11.9c0.8-6.6,3-12.9,4.9-19.2c0.5-1.7,1.4-3.5,2.6-4.9c0.5-0.5,2.6-0.5,3.4,0
			c0.8,0.5,1.6,1.9,1.4,2.8c-1.4,8-3.1,16-4.6,23.9c-0.6,3.3-1.1,6.6-1.4,9.9c-0.2,2.5-1.8,4.6-4.3,4.9c-0.6,0.1-1.5-0.5-1.8-1
			C226.6,92,226,90.2,225.5,89"/>
		<path d="M243.2,39.1c3.4,3.7,0.9,7-1.8,9c-1.8,1.3-4,0.6-5.5-1.4c-0.7-1,0.2-4.1,1.5-5c0.9-0.6,1.7-1.3,2.6-1.8
			C241,39.4,242.1,39.3,243.2,39.1"/>
	</g>
</g>
<path class="st27" d="M109.7,431.4l1.5,52.4l-26.1,8.7c-2.1,0.7-2.9-5.8-1.2-7.2l14-10.5l-3-44.8"/>
<path class="st27" d="M148.6,431.4l-1.5,52.4l26.1,8.7c2.1,0.7,2.9-5.8,1.2-7.2l-14-10.5l3-44.8"/>
<path d="M468.8,272.9c-0.7-2.4-1.8-4.7-2.7-7.1c-0.4-1-0.8-2-1.1-3c-0.6-2.2-1.1-4.5-1.7-6.7c-0.3-1.1-1-2.2-1.1-3.3
	c-0.3-2.6,0.1-5.4-0.8-7.8c-1.9-5.5-4.1-10.9-6.7-16.1c-1.5-2.9-4.3-5.1-6.2-7.8c-5.6-8-13.9-11.7-22.7-14.7
	c-5.3-1.8-10.7-3.1-16.1-4.6c-3.5-0.9-6.9-2.3-10.4-2.5c-2.8-0.2-6.3-0.3-8,2.8c-1,1.8-2.3,1.5-3.8,1.2c-5.5-1-11-1.3-16.5,0
	c-5.4,1.2-10.8,2.7-16.3,3.6c-3.1,0.5-6.3-0.5-9.4-0.1c-4.4,0.6-8.7,1.7-13,2.9c-3,0.8-6,1.9-8.7,3.5c-1.6,0.9-2.1,3.5-3.7,4.6
	c-3.5,2.3-3.8,6.3-5.9,9.3c-0.2,0.2-0.2,0.8,0,1.1c1.1,1.7,0,2.5-1.4,2.9c-3.8,1.1-5.4,4.2-7.2,7.3c-2.1,3.5-4.2,7.3-7.2,9.7
	c-5.6,4.4-8.2,10.1-9.5,16.8c-1.2,6-0.9,11.5,5,15.2c1.5,1,3.2,2.3,3.8,3.9c1,2.6,1.4,5.5,1.8,8.3c0.2,1.7,1.1,2.2,2.6,2.1
	c6.2-0.2,12.5,0.7,18.4-3.1c4.3,7.1,7.3,14.9,14.1,20.2c-1.6,0.4-3,0.1-4.2,0.4c-8,1.7-15.9,3.4-23.8,5.3
	c-6.4,1.5-12.9,2.7-19.5,2.6c-3.7-0.1-7.4,0.7-11.2,1c-0.6,0.1-1.3-0.2-1.9-0.1c-3,0.6-6.7-1.2-8.9,2.5c-2.1-0.6-4.2-1.1-5.7-1.5
	c1.3-2.3,3.3-4.3,3.4-6.4c0.1-1.3-2.6-2.7-3.9-3.9c0.8-0.1,2-0.2,3.2-0.3c0-0.2,0.1-0.4,0.1-0.6c-1.1-0.7-2.3-1.4-3.2-2
	c-0.1-1.9-0.5-3.7-0.3-5.4c0.4-3.5,1.4-7,1.6-10.6c0.4-7.2,0.5-14.5,0.6-21.8c0-0.7-0.2-1.5-0.2-2.2c0-1.3,0-2.5,0-3.8
	c0.2-4.3,0.6-8.6,0.6-12.9c0-3.7-0.5-7.4-0.3-11c0.4-7.1,1.2-14.1,1.6-21.2c0.4-6.4,0.2-12.8,0.7-19.2c0.6-7.5,1.6-14.9,2.5-22.4
	c3.3,0,6.6,0,9.9,0c2.9,0,5.8,0.3,8.6,0.1c3.2-0.2,6.4-1.1,9.6-1.4c1.8-0.2,3.7,0.2,5.5,0.4c6.1,0.6,12.2,1.1,18.3,1.7
	c5.2,0.5,10.3,1.2,15.5,1.8c2.9,0.3,5.7,0.8,8.6,1c4.8,0.3,9.6,0.6,14.4,0.7c2.3,0,4.6-1,6.8-0.8c1.8,0.1,2.5-0.5,2.7-1.9
	c0.3-2.1,0.5-4.2,0.5-6.3c0-4.7-0.2-9.4-0.2-14c0-1.2,0.4-2.4,0.6-3.5c0.4-1.8,1.1-3.6,1.2-5.4c0.3-4,0.4-8,0.6-12
	c0.5-8.6,1.2-17.2,1.6-25.9c0.2-3.9-0.1-7.9,0.3-11.7c0.7-6.7,2-13.3,2.5-19.9c0.5-7.3,0.5-14.6,0.5-21.9c0-4.5-0.3-8.9-0.5-13.4
	c-0.1-1-0.7-1.9-0.7-2.9c0-2.2,0.3-4.4,0.1-6.5c-0.1-1.6-0.8-3.2-1.3-4.7l-1,0.2c-0.1,1.1-0.2,2.3-0.3,3.4c0,0.7,0,1.5-0.1,2.2
	c-0.4,2.4-0.8,4.7-1.2,7.1c-0.1,0.6-0.4,1.2-0.6,1.8c-0.4,1.1-1.1,2.2-1,3.3c0.2,3.1,0.9,6.1,1,9.2c0.1,3.1-0.3,6.1-0.5,9.2
	c-0.2,5.1-0.3,10.2-0.6,15.3c-0.5,8.2-1.1,16.4-1.6,24.6c-0.2,2.3-0.3,4.6-0.4,6.9c0,1.7,0.2,3.5,0.1,5.3c-0.4,6.7-1.7,13.4-1.1,20
	c0.5,5.3-1.2,10-1.3,15c-0.1,5.9-2.6,11.6-0.3,17.6c0.9,2.3-0.4,3.3-3,3.3c-2.2,0-4.5,0.4-6.8,0.4c-1.9,0-3.9-0.2-5.8-0.4
	c-3.8-0.5-7.6-1.4-11.5-1.5c-4.1-0.1-8.2,0.9-12.3,0.8c-3.1-0.1-6.2-1.3-9.3-1.9c-0.5-0.1-1.1,0.1-1.6,0.1c-0.5-0.4-1.1-1.5-1.7-1.5
	c-3.7-0.1-7.6-1.9-11.2,0.7c-0.2,0.1-0.5,0.1-0.7,0.1c-2.4,0.3-5,0-7.1,0.9c-3.1,1.4-5.6,1.4-8.1-0.9c-0.6-0.5-1.5-0.7-2.3-0.7
	c-5-0.3-10.1-0.3-15.1-0.7c-2.5-0.2-4.8,0.5-7.3,0.3c-5.4-0.4-10.9,0.3-16.4,0.7c-2.9,0.2-6.1,1.4-8.6,0.5c-2.7-1-5.5-0.5-8.1-1.4
	c-1.3-0.4-2.9-0.2-4.3-0.3c-0.9,0-1.8-0.1-2.6-0.1c-2.6,0-5.3,0-7.9,0.1c-3.4,0.1-6.7,0.7-10,0.5c-4.8-0.3-9.5-1.3-14.3-1.8
	c-3.4-0.4-6.7-0.4-10.1-0.7c-6-0.5-12,1.8-18.1,0.4c-2.6-0.6-5.3-0.7-8-0.8c-2.9,0-3-1.7-2.9-3.9c0.3-4.6,0.7-9.3,0.6-13.9
	c-0.3-9.7-1.3-19.5-1.5-29.2c-0.2-7.9,0.2-15.8,0.5-23.7c0.2-5.3,1-10.6,1.3-15.9c0.4-7.4,0.6-14.8,0.9-22.2
	c0.1-2.8-0.1-5.8,0.4-8.5c1.3-6.7,3.3-13.3,4.5-20.1c0.5-2.5,1.6-3,3.5-2.5c4.4,1.1,8.6,0,12.9-0.9c3-0.6,6.1-1.2,9.1-1
	c3.3,0.2,6.5,1.6,9.8,1.7c5.3,0.3,10.7,0,16,0c5.1,0.1,10.1,1.4,15.4,0c3.2-0.9,6.9,0,10.4-0.2c6.2-0.3,12.4,0.5,18.7,0.9
	c4.7,0.3,9.3,0.8,14,1.1c5.1,0.3,10.1,0.4,15.2,0.5c3.7,0,7.4-0.3,11.1-0.3c6.8,0.1,13.6,0.5,20.4,0.5c9.9-0.1,19.7-0.7,29.6-0.5
	c7.3,0.1,14.6,1.1,22,1.5c2.8,0.2,6,1.2,8.2-1.3c-0.3-1.4-0.6-2.6-0.9-3.8c-0.3-1.7-0.9-2.8-3.1-2.7c-7.6,0.3-15.1,0.3-22.7,0.6
	c-2.8,0.1-5.6,0.5-8.4,0.5c-4.4,0.1-8.8,0-13.2,0c-1.6,0-3.2-0.1-4.8,0c-3.8,0.3-7.5,0.6-11.3,0.9c-1.4,0.1-2.9,0.9-4.1,0.5
	c-3.5-1.2-7-1.1-10.6-1.1c-6.1,0-12.2-0.4-18.4-0.7c0.1-0.8,0.3-2.1,0.2-3.4c-0.1-4.7-0.5-9.5-0.5-14.2c0-2.9-1.6-3.5-3.8-3.6
	c-1.8-0.1-3.7,0.1-5.6,0c-2.2-0.1-3.1,1.3-3.6,2.9c-0.5,1.7-0.5,3.5-0.7,5.2c-0.5,4.2-1,8.4-1.5,13.3c-2.6-0.6-4.6-1.5-6.6-1.6
	c-3.6-0.1-7.2,0.3-10.8,0.5c-0.8,0-1.6,0.4-2.4,0.3c-2.8-0.3-5.5-0.8-8.3-0.9c-5.8-0.3-11.6,1-17.4-0.7c-0.9-0.3-1.8-0.3-2.8-0.2
	c-3.8,0.1-7.7,0.2-11.5,0.3c-2.7,0.1-5.5,0-8.2,0.2c-6.1,0.4-12.2,1.3-18-1.6c-0.5-0.2-1.1-0.3-1.6-0.2c-4.8,0.1-9.7-0.3-14.3,0.6
	c-3.9,0.8-9.4-2.2-11.4,4c0,0.2,0,0.3,0.1,0.9c3,0.4,3,2.8,2.7,5.2c-0.9,7.3-2.2,14.5-2.8,21.8c-0.5,6-0.4,12.1-0.4,18.1
	c0,4.5,1,8.7-0.3,13.6c-2.2,8.3-2.8,17.1-3.1,25.7c-0.4,10.1,0.3,20.2,0.5,30.3c0,0.6,0.2,1.1,0.2,1.7c0.1,5.2,0.3,10.4,0,15.7
	c-0.2,4.7-0.9,9.4-1.3,14.1c-0.1,1.6,3.2,4.5,4.9,4.3c3.7-0.3,7.4-0.8,11.1-1.1c1.2-0.1,2.4,0,3.6,0.3c3.3,1,6.6,1.3,10,0.8
	c5.6-0.7,11.3-1.8,16.8-1.5c7.7,0.4,15.4,0.4,23,0.3c6.7-0.1,13.4-0.4,20.1-0.2c5.4,0.1,10.7,0.9,16.1,1.4c3.1,0.3,6.3,0.5,9.5,0.7
	c-0.3,3.3-0.7,6.5-1,9.7c-0.3,3.7-0.4,7.4-0.8,11.1c-0.8,7.8-1.8,15.5-2.6,23.3c-0.3,3.5-0.4,7.1-0.5,10.6c-0.1,3.2,0.1,6.4,0,9.6
	c-0.1,4.3-0.4,8.5-0.5,12.8c-0.1,3.8,0.1,7.6-0.1,11.4c-0.3,4.5-0.9,9.1-1.3,13.6c-0.5,6.3-0.8,12.7-1.2,19
	c-0.1,0.8-0.2,1.7-0.5,2.5c-0.6,1.5-1.3,3-2,4.8c-2.6,0.9-5.7,1.9-8.8,3c-4.4,1.5-8.7,2.3-13.4,1.4c-8.6-1.6-17.4-2.4-26.2-2.5
	c-5.1-0.1-10.1-0.8-15.7-1.2c1.8-2.2,3.3-4,4.8-6c3.3-4.5,6.4-9.1,9.6-13.6c2.2-3.1,3.2-7.1,7.3-9.1c2.4-1.2,3.9-3.9,3.2-6.9
	c-0.3-1.1-1.4-1.9-2.1-2.8c-0.8,0.8-1.6,1.6-2.2,2.4c-0.2,0.3-0.1,0.9-0.2,1.4c-0.6,2.2-1.3,3.7-4.2,2.7c-1.3-0.5-4.4-1.7-3.7,2.2
	c0,0.2-0.5,0.4-0.7,0.7c-0.7,1-1.4,1.9-1.9,2.9c-2.4,4.4-4.5,8.9-7.1,13.1c-2,3.2-4.5,6-7.1,8.8c-1.2,1.2-2.7,2.7-4.9,1.6
	c-0.7-0.3-1.9,0-2.6,0.4c-2.2,1.2-4.2,2.8-6.5,3.8c-3.9,1.6-7.9,3.3-12,4.1c-5,1-10.2,1.1-15.3,1.7c-5.2,0.6-10.3,1.5-15.5-0.3
	c-0.9-0.3-2.2,0-3.2,0.4c-3.4,1.5-6.5,1.7-9.5-1.1c-1.5-1.5-3.3-3.3-5.2-3.8c-2.4-0.6-5-2.4-7.7-0.8c-4.2-2.9-8.4-5.7-12.5-8.7
	c-1.3-0.9-2.1-2.4-3.2-3.5c-1.2-1.1-2.9-1.6-3.7-2.8c-2.5-3.5-5.2-7-7-10.9c-1.7-3.8-2.2-8.1-3.4-12.7c0,0-1-0.6-0.9-1.1
	c0.2-2.1-0.9-2.4-2.7-2.6c-1.2-0.1-2.8-0.9-3.4-1.9c-1.8-3.4-1-5.4,2.4-7.2c3.6-1.9,5.3-5,6-8.9c0.7-3.8,1-7.8,2.4-11.3
	c2-4.9,4.5-9.7,7.3-14.1c3-4.6,7.2-8,12.3-10.5c1.8-0.9,5.3-0.5,4.6-4.6c4.1-0.9,7.9-1.7,11.8-2.6c2.9-0.7,5.8-1.5,8.8-2.3
	c1-0.2,2-0.5,3-0.5c3.5,0.1,7.1,0.2,10.6,0.4c3.1,0.2,6.1,0.3,9.2,0.8c3.7,0.6,7.4,1.5,11.1,2.1c3.7,0.6,7.7,0.4,11.2,1.5
	c8.4,2.5,16,6.8,22.5,12.5c4.2,3.7,7.2,8.8,10.2,13.6c1.5,2.3,1.4,5.6,2.8,8c3.2,5.6,4.4,11.1,2,17.3c-0.8,2.2-0.4,4.2,1.4,5.9
	c0.7,0.7,1.1,1.9,2,2.2c1.4,0.6,3,0.7,4.5,1c0.1-1.1,0.3-2.1,0.1-3.1c-0.1-0.6-0.9-1.1-1.2-1.8c-0.5-1.3-1.5-2.8-1.2-3.9
	c1.4-4.9,1.3-9.8,0.3-14.6c-1-4.9-2.6-9.8-4.3-14.6c-0.8-2.2-2.1-4.4-3.5-6.3c-2-2.7-4.5-5-6.4-7.7c-2.6-3.6-6.2-5.8-10-7.5
	c-4.4-1.9-9.6-2.3-13.5-4.8c-4.4-2.8-8.8-3.7-13.8-3.9c-3.8-0.1-7.5-1-11.2-1.7c-1.3-0.2-2.5-0.8-3.7-1.1c-2.9-0.7-6-2.2-8.8-2
	c-7.8,0.7-15.9-0.4-23.3,3.5c-1.7,0.9-3.9,0.9-5.9,1.4c-4.2,1.1-8.4,2.1-12.6,3.3c-0.7,0.2-1.3,0.8-1.7,1.4c-1.7,2.6-2.4,5.8-5.8,7
	c-0.3,0.1-0.3,0.6-0.5,0.9c-2,3-4.2,6-5.9,9.1c-2.9,5.4-7.1,10.1-8.9,16.3c-1.3,4.7-4.7,9-0.9,14c-4.4,2.6-7.5,6-9.8,10.3
	c-1.8,3.4,0,6.2,0.6,9.1c0.5,2.4,3,1.6,4.8,2c0.8,0.2,1.6,0.4,1.8,0.4c1.6,5.2,0.7,10.5,4.6,14.7c1.5,1.6,2.4,3.7,3.8,5.5
	c2.7,3.5,4.5,7.7,8.7,10c5.5,3,10.7,6.4,16.1,9.6c1.4,0.9,2.8,1.7,4.8,2.9c-7.2-0.2-12.3,3.5-17.8,6c-4.3,1.9-7,5.7-10.2,9
	c-4,4.2-6.3,9.4-6.5,14.6c-0.3,7.5-2.2,14.6-3.8,21.8c-0.5,2.3-1.8,4.6,0.8,6.6c0.2,0.1,0.2,0.5,0.2,0.7c-0.2,2.5-0.5,4.9-0.7,7.4
	c-0.1,0.9-0.2,1.9,0,2.8c0.9,4.1,1.6,8.2,2.9,12.2c0.6,1.7,2.4,3.1,3.9,4.2c2.1,1.5,4.5,2.2,7.1-0.2c-0.2,2.9-0.8,5.4-1,7.9
	c-0.3,2.8,0.1,5.7-0.5,8.5c-0.8,3.5-2.1,6.9-3.5,10.2c-0.8,2-0.6,3.3,1.2,4.5c1.9,1.3,3.7,1.2,4.8-0.6c1.1-1.7,2.5-1.9,4.1-1.6
	c2.7,0.4,5.3,1,7.9,1.5c2.1,0.1,7.4,0.3,13,0.4c7.4,0.1,15.5,1.2,15.5,1.2c2.9-1.7,5.8-0.4,8.6,0.1c4.6,0.9,8.7-2.7,7.9-7.2
	c-0.2-1.2-0.2-2.4-0.3-3.6c0.3,0,0.5-0.1,0.8-0.1c1.2,2.6,2.3,5.3,3.7,7.7c1,1.7,2,3.5,4.7,3.2c3.8-0.4,7.6-0.4,11.7-0.6l24.3,0.6
	l0,0c1.5-0.3,3-0.5,4.5-0.7c0.7-0.1,1.5,0.7,2.3,0.9c1.6,0.4,3.3,0.8,4.9,0.7c0.4,0,0.7-2.2,0.9-3.4c0.2-1.3,0.3-2.6,0.5-3.8
	c0.7-3.6,1.8-7.2,2.2-10.8c0.7-6.4-0.8-12.7-0.3-19.1c0.6-7.6,1-15.2,1.3-22.8c0.1-3,0-6-0.4-9c-1-7.3-1.9-14.5-0.9-21.8
	c0.2-1.6,0.9-3.3,0.7-4.8c-0.6-4.6,1.8-7.8,6.3-8c3.9-0.2,7.9-0.4,11.8-0.7c1.8-0.1,3.7-0.4,5.5-0.3c5.5,0.1,11.1,0.3,16.6,0.5
	c0.1,0,0.2,0,0.3-0.1c3.2-0.5,6.3-0.7,8.8,1.9c-0.5,1.7-0.9,3.4-1.3,5c2,0.4,3.7,0.7,5.5,1.1c-5.7,5.8-5.5,8.7,0.6,10.8
	c0.1,0.8,0.2,1.7,0.2,2.5c0.4,7.1,1.3,14.1-0.5,21.1c-0.4,1.5-0.5,3.3-0.1,4.7c0.5,1.3,1.8,3,3,3.2c1.8,0.3,4.2,1,5.6-1.2
	c1.8-2.9,4-5.4,3.9-9.4c-0.1-5.3,1.1-10.7,1.4-16.1c0.2-2.5,0.2-4.8,2.9-6c2.2-0.9,4.1-2.6,6.4-3c6.7-1.3,13.4-1.8,20.1-3.1
	c5.6-1.1,11-3.9,17-3.3c0.8,0.1,1.8-0.5,2.6-1c3.8-2.7,8-2.7,12.8-2.3c0.5,7.1,1.1,14.3,1.4,21.6c0.1,3.7-0.3,7.4-0.5,11.1
	c-0.1,1.2-0.5,2.4-0.4,3.6c0.2,3,0.8,5.9,1,8.8c0.4,5.8,0.8,11.7,1.1,17.5c0,0.9-0.5,1.9-0.8,2.8c-0.4,1.6-1.3,3.5-0.9,4.9
	c0.7,2.5,4.9,4.6,7.4,3.9c5.1-1.4,10,0,14.7,0.2c0.2,1.1,0.5,1.9,0.6,2.7c0.3,2.5,0.9,4.9,0.8,7.4c-0.3,7.6-3.9,31.4-1.4,39
	c0.4,1.1,1.5,2.7,2.4,2.8c6.2,1,14.4-4.8,14.4-11.8c0-1-0.1-2.1,0.1-3.1c0.7-4.9,2.4-26,3.3-30.9c0.3-1.6,1.3-3.9,2.6-4.3
	c2.4-0.8,5.1-0.8,7.7-0.7c2.9,0.1,5.7,0.9,8.5,0.8c4.7-0.2,9.3-0.9,14-1.5c2.9-0.4,3.9,0.4,3.7,3.2c-0.1,1.4-0.5,2.7-0.6,4.1
	c-0.3,3.5-1.7,26-1.9,29.4c-0.3,3.1-0.9,6.2-0.9,9.3c0,1.3,0.9,3.3,1.9,3.7c2.1,0.9,4.5,1.3,6.7,1.1c2.3-0.2,4.6-1.2,6.9-1.9
	c4.4-1.2,7.7-4.9,7.2-9.3c-0.7-6.1,1.6-31.1,1.6-37.2c0-2.4,1.3-3.1,3.5-3.1c1.9,0,5.1-0.2,5.3-0.9c0.7-2.4,3.1-1.6,4-3
	c0.4-0.7,0.4-1.6,0.4-2.4c0.1-1.8-0.3-3.7,0.3-5.4c1.8-5.2,2.1-10.5,1.2-15.9c-0.1-0.5,0-1.2,0.4-1.5c2.8-2.2,5.8-4.1,8.5-6.4
	c2.2-1.9,4.7-3.8,6.1-6.2c2.9-4.9,3.6-10.5,3.6-16.2c0-1.8-0.1-3.6,0.2-5.3c0.6-4.1,1-8.1-0.2-12.1c-0.3-0.9-0.1-2-0.3-3
	c-0.3-1.6-0.2-3.5-1.1-4.7c-1.5-2.2-3.5-4-5.4-5.9c-6.3-6.3-14.5-7.2-22.8-7.7c-1.5-0.1-3,0.4-4.6,0.6c-0.1-0.3-0.3-0.6-0.4-0.9
	c0.8-0.6,1.6-1.8,2.5-1.9c3.3-0.3,5.6-2.3,7.9-4.3c0.8-0.7,2.1-1.2,3.1-1.2c3.2,0,6.3,0.4,9.5,0.4c1.5,0,3.2,0,4.3-0.7
	c4.2-2.9,9.8-2.8,13.2-8c3.1-4.7,8.3-8.1,10.2-13.8c0.5-1.3,0.6-2.9,0.5-4.3C469.4,276.4,469.3,274.5,468.8,272.9z M267.4,12.8
	c-0.5,4.2-0.1,8.4-0.1,12.9c-2-0.3-2.9-0.5-3.5-0.6c-0.3-6-0.7-11.9-1-17.9C266.9,7.4,267.8,9.2,267.4,12.8z M252.9,286.5
	c0.1-1.4-0.3-2.9-0.2-4.4c0.3-6.5,0.9-13,1.1-19.5c0.2-7,0.1-14,0.1-21c0-5.6-0.1-11.1,0-16.7c0-1.6,0.9-3.2,1.1-4.9
	c1-7.1,2.1-14.2,2.8-21.3c0.6-5.3,0.7-10.7,1-16c0.1-1-0.2-2-0.4-3c-0.3-1.6,0.2-2.3,2.5-1.8c-1,13.9-2.7,27.7-2.8,41.6
	c-0.1,13.9-2.2,27.6-2.6,41.5c-0.4,13.8-1.6,27.6-3.1,41.4c-0.1-0.5-0.4-1.1-0.3-1.6C252.1,295.9,252.6,291.2,252.9,286.5z
	 M88.8,415.7c-0.3,2.9-0.6,5.8-0.9,9.4c-2.1-1-3.8-1.9-5.6-2.6c-1-0.4-2.2-0.4-3.3-0.5c-1.2-0.1-2.4,0-3.6,0
	c-0.1-0.2-0.3-0.4-0.4-0.5c2.2-1.9,2.6-3.5,1.6-6.5c-1-3.1-1-7,1.3-10.2c0.6-0.8,0.5-2.1,0.6-3.1c0.5-5.9,1.4-11.7,3.8-17.3
	c-0.2-1.5-3.3-2.2-2-3.8c2,0.2,3.3,0.4,4.6,0.5c1.2,0.1,2.4-0.1,3.6,0.1c2.1,0.2,2.6,1.5,2.3,3.6c-0.9,7.6-2.3,15.2-1.2,23
	C90.1,410.2,89.1,413,88.8,415.7z M120.3,389c-0.6,7.5-1.9,15-0.7,22.6c0.3,2.1-0.3,4.3-0.5,6.4c-0.3,3-0.5,5.9-0.8,8.8h-13.5
	c1-14.8,2.1-29.3,3.1-43.7c-0.3-0.1-0.7-0.2-1-0.2c-0.3,0.5-0.8,1.1-0.8,1.6c-0.5,8.2-0.9,16.4-1.4,24.5c-0.1,1.7-0.5,3.3-0.7,5
	c-0.3,3.2-0.8,6.4-0.8,9.6c0,3.4-2.6,3.3-4.6,3.3c-2.4-0.1-4.9-0.9-7.3-1.6c-0.6-0.2-1.4-1.1-1.3-1.7c0.2-3.1,0.7-6.1,1.1-9.2
	c0.2-2,0.4-3.9,0.4-5.9c0.1-3.6-0.1-7.2,0.1-10.7c0.1-4.1,0.5-8.3,0.7-12.4c0.1-2.5,1.6-3.3,3.9-3.3c5,0.1,10-0.1,15,0
	c1.7,0,3.4,0.2,5,0.5C119.5,383.3,120.5,385.5,120.3,389z M126.7,412.5c-1.3,4.9-2.5,9.4-3.8,14.3c-0.2,0.1-1,0.5-2.6,1.3
	c0.4-14.9,0.9-29.5,1.3-44.5c4.2,0.2,8.2,0.4,12.7,0.6c-1.6,10.5-3.1,20.5-4.7,30.7C128.7,414.1,127.9,413.5,126.7,412.5z
	 M143.7,423.7c-2.5,0-4.8,0-7.2,0c-0.5,0-1.1-0.2-1.5-0.6c-2.9-3.2-4.3-6.8-3.6-11.3c1.4-8.2,2.6-16.4,3.9-24.6c0.5-3,3.4-4,7.1-2.6
	c1.3,0.5,2.6,1.3,3.9,1.4c3.2,0.3,3.4,2.4,3,4.8c-1.9,9.4-3.9,18.8-5.7,28.3C143.5,420.5,143.7,422,143.7,423.7z M144.9,424.3
	c1.1-5.6,2-10.6,2.9-15.5c1.4-7.2,2.7-14.3,4.1-21.7c2.8,0.6,5.9,1.2,9.2,1.9c-1.2,12.2-2.3,24.5-3.5,37
	C153.4,425.4,149.6,424.9,144.9,424.3z M169.9,424.2c-0.4,2.6-2.7,3.9-5.3,3.2c-1.7-0.4-3.4-0.9-5.1-1.3c1.1-12.2,2.2-24.6,3.4-37.3
	c2.7,0,5-0.3,7.3,0.1c3.6,0.5,4.1,1.6,3.5,6.8c-0.7,5.3-1.4,10.7-2.1,16C171,415.9,170.5,420.1,169.9,424.2z M181.5,396.2
	c-1.4,6.1-0.6,12-0.1,18c0.1,1.5-0.2,3.1-0.3,4.7c-0.1,1.8-0.1,3.6-0.1,5.4c0.1,1.7-0.5,2.4-2.2,2.3c-2.4-0.1-4.8,0-7,0
	c1.1-11.6,2.2-22.3,3.1-33.2c0.2-2.9,1.5-4.3,4-5C182.4,390,182.1,393.4,181.5,396.2z M237.1,326.4c-1.6-0.6-3.1-1.4-4.7-1.8
	c-3.2-0.7-6.5-1.6-9.8-1.7c-6.1-0.2-12.2,0-18.3,0.1c-3.6,0.1-7.3,0.3-10.9,0.4c-1.1,0-2.3,0-3.3,0.3c-2.7,0.6-2.7,0.6-2.5,3.4
	c-0.8-0.7-1.6-1.4-2.4-2.1l-0.9,0.2c0,2.5,0.1,5-0.1,7.5c0,0.8-0.6,1.9-1.2,2.2c-1.5,0.7-1.7,1.4-1.5,3.2c0.7,5.5,0.8,11.2,1.2,16.7
	c0.3,4.2,1.2,8.3,1,12.5c-0.2,4.6-1.3,9.2-2,13.9c-2.7,1.3-3.9,1.8-4.7,1.7c-0.3,0-0.5-0.1-0.8-0.3c-0.3-0.2-0.7-0.6-1.1-1
	c-0.3,0.1-0.7,0.2-1,0.3c-0.7,0.2-1.3,0.3-2,0.4c-0.3,0.1-0.7,0.1-1,0.1c-1,0.1-2,0.1-3,0.1c-3-0.1-5.9-0.7-8.9-0.9
	c-5.2-0.4-10.5-0.9-15.7-1.5c-3.3-0.4-6.5-0.9-9.8-1.3c-2.5-0.3-5-0.7-7.4-0.9c-5.4-0.6-10.8-1.2-16.2-1.6c-3.6-0.2-7.2,0.2-10.8,0
	c-3.3-0.2-6.5-0.8-9.8-1.4c-1.3-0.2-2.4-1-3.7-1.3c-3.9-1-3.9-1-3.5-4.9c0.1-1.2,0.5-2.4,0.6-3.6c0.5-3.6,1.1-7.2,1.6-10.9
	c0.1-1,0-2.1,0.3-3c0.7-1.8,0-3.2-1.4-3.8c-1.5-0.6-3.3-0.6-5-0.7c-0.2,0-0.6,1.1-0.6,1.7c-0.5,6.5-0.8,13.1-1.3,19.6
	c-0.2,2.1-0.7,4.2-1,6.3c-0.6,3.4-1.3,6.8-1.8,10c-0.7-0.6-1.5-1.4-2.8-2.6c-1.2,5.2,4.2,10.2-1.5,14c0-1.9,0-4,0-6.1
	c0-3.1-2.2-4.8-4.9-3.6c-0.7,0.3-1.5,1.8-1.3,2.5c0.6,2.8,1.6,5.5,2.4,8.3c0.2,0.6-0.2,1.3-0.4,2c-0.6-0.4-1.7-0.7-1.8-1.3
	c-0.7-2.8-1.1-5.7-1.8-8.6c-0.4-1.4-0.7-2.4,0.7-3.4c0.3-0.2,0.5-1.3,0.2-1.7c-2.2-4.4-1.3-9-0.2-13.2c1.4-4.9,2.7-9.6,2.4-14.9
	c-0.2-3.6,0.9-7.8,2.7-10.9c3.1-5.2,7.3-9.9,11-14.7c0.3-0.4,1-0.6,1.5-0.6c3.7-0.2,6.1-3.1,9.2-4.5c2.6-1.2,5.6-1.8,8.4-2.7
	c0.3-0.1,0.7,0.1,0.8-0.1c1.8-2.3,4.3-0.4,6.3-1.2c3.7-1.6,7.2,0,10.8,0c0.7,0,1.4-0.7,2.2-0.8c1.7-0.3,3.3-0.3,5.2,0.1
	c2.5,0.5,5.3-0.2,8-0.5c1-0.1,2-0.5,3-0.5c3.5-0.1,7,1.1,10.4-0.4c0.8-0.3,2,0.2,2.9,0.2c1,0,1.9-0.3,2.9-0.5
	c1.7-0.4,3.5-0.9,5.2-1.1c1.7-0.1,3.4,0.4,4.2-1.9c0.2-0.5,1.4-1.1,2.1-0.9c2.2,0.4,3.3-1,4.7-2.2c2.5-2.2,4.5-2.1,7.1,0
	c0.5,0.4,1.4,0.6,2.1,0.6c6,0.3,12,0.4,17.9,0.7c3.6,0.2,7-0.5,10.6-1c2.2-0.3,4.7,0.2,7,0.9c5.3,1.6,10.6,2.7,16,2.9
	c1.5,0.1,2.9,0.3,4.4,0.6c3.1,0.6,4.7-0.6,4.8-3.5c5.6-2.4,11.3-4.3,17.6-2.4c-2.1,0.3-4.2,0.4-6.2,0.9c-1.3,0.3-2.6,0.8-3.6,1.6
	c-0.6,0.4-1,2-0.7,2.3c0.6,0.6,1.8,1.1,2.7,0.9c2.6-0.4,5.2-1.2,7.8-1.8c0.6-0.1,1.3,0.1,2,0.2c0,0.2,0.1,0.5,0.1,0.7
	c-1.8,0.5-3.6,1-5.4,1.5c-2.3,0.6-4.7,1.1-7,1.8c-1.8,0.6-2.4,2-0.5,2.9c2.5,1.2,5.3,1.9,8,2.6c2,0.5,4.1,0.4,6.1,0.6
	c0,0.3-0.1,0.7-0.1,1c-3.4,0.2-6.8,0.6-10.2,0.6C243.4,327.4,240.1,327,237.1,326.4z M250.5,372c-0.5,1.5,0.6,3.5-1,4.8
	c-0.4,0.3-0.9,0.5-2,1.2c0.2-4.4,0.4-8.3,0.6-12.1c0.2-3,0.6-6,0.5-8.9c-0.1-2.1,0.7-3.1,2.8-3.5C251.6,359.7,252.7,365.9,250.5,372
	z M356.8,413.3c-0.8,7-2.6,30.1-3.4,37.1c-0.2,2.2-0.8,4.1-3.5,4.7c-0.9,0.2-1.7,1.3-2.6,2.1c-1.1-1.1-1.5-1.7-0.9-3.8
	c0.8-2.6,0.1-5.7-0.2-8.6c-0.3-2.4,0.1-20.9,1.9-23c0.2-0.3,0.3-0.7,0.3-1.1c0-3.8,0-7.6,0-11.7h4.8
	C356.9,409.1,357.2,409.5,356.8,413.3z M410.6,447.8c-0.4,5.6-3.1,8-8.3,8.5c0.5-9.1,2.3-36.9,2.8-46c1,0,2.3,0.1,3.5-0.2
	c2.2-0.6,3.1,0.7,3.1,2.4C411.9,418,411,442.4,410.6,447.8z M424.5,403.9c-3.2-0.4-6-0.8-9.1-1.2c-0.6-1.7-3.8-2.6-3.2-6.1
	c3.7,3.1,3.7,3.1,5.3-0.9c0.3-0.8,0.9-1.5,1.4-2.3c0.6,1,1.1,1.7,1.5,2.4c1.7-1.2,3.1-2.3,4.8-3.5
	C425,396.6,424.7,400.2,424.5,403.9z M422.6,391.6c-0.5-0.7-1-1.4-1.8-2.6c-2.1,2.3-4.1,4.4-5.7,6c-1.4,0.1-3.3-0.3-3.8,0.4
	c-0.8,1-0.9,2.8-0.6,4.1c0.3,1.3,1.6,2.4,2.6,3.7h-29c-0.8-1.1-1.6-2.1-2.1-3.1c-0.4-0.8-0.4-1.7-0.5-2.6c-0.1-1,0.2-2.3-0.3-2.8
	c-0.8-0.8-2.1-0.8-3.1,0.4c-0.4,0.5-1.4,0.4-2.2,0.6c-0.1-0.7-0.6-1.6-0.3-2.2c0.8-1.8-0.3-2.8-1.5-3.4c-0.8-0.4-2.4-0.3-3.1,0.3
	c-1.7,1.4-3.1,3.2-4.6,4.9c-0.9-0.2-2.5-0.9-3.6-0.5c-2,0.7-2.2,2.8-1.8,4.7c0.3,1.5,0.9,3,1.4,4.5c0.3-0.1,0.6-0.1,0.9-0.2
	c-0.2-1.4-0.5-2.9-0.5-4.3c0-0.9,0.5-1.9,0.8-2.8c0.7,0.6,1.5,1.2,2.1,2c0.4,0.5,0.6,1.3,1.2,2.9c2.2-3.8,1.7-8.7,6.8-10.3
	c-0.6,3.3-1.1,6.1-1.6,9c2.6-1.4,4.8-2.6,7.8-4.1c-1.9,3.6,0.5,5,2.9,7c-1.6,0.1-2.3,0.1-3.1,0.2c-1.7,0.2-3.7-0.7-5.1,1.2
	c-0.2,0.3-1.1,0.2-1.6,0.2c-4.7-0.1-9.4,0.1-14.1-0.4c-4-0.4-8.1-1.2-12-2.4c-1.2-0.4-1.8-2.6-2.6-4.1c-0.3-0.6-0.5-1.4-1.2-2.2
	c-0.2,4.4-3.8,4-6.8,5.6c0.3-2.9,0.5-5.3,0.8-8.2c-0.9,0.3-1.6,0.5-2.3,0.7c-1.1,0.2-2.8,0.8-3.1,0.4c-0.7-0.9-1-2.4-0.7-3.4
	c0.6-2.6,0.7-2.6-1-3.7c-1.4,5.5-3,8,4.5,9.4c0.2,1.9,0.4,3.9,0.6,5.8c-2.2,0.6-4.4,1.3-7.4,2.2c-0.1-3.1-0.3-6.2-0.3-9.2
	c0-3.8,0-7.6,0-11.4c0-6.8,0.5-13.6-0.3-20.3c-0.6-5,0.7-9.3,2.9-13.2c2.2-4,5.4-7.4,8.1-11c2,2.1,3.4,3.7,5.4,5.8
	c1.4-2.4,2.5-4.3,3.7-6.2c3.5,0.8,6.1-2,4.9-6.6c3.5-0.3,6.9-0.6,10.3-0.9c-1.4,2-3,4.1-4.2,6.4c-1.3,2.5,0.3,5.5,2.6,5.1
	c1.1-0.2,2.2-1,3.5-1.7c0.4,1.5,0.5,2.9,1.2,4.1c0.7,1.1,2,2.5,3.1,2.7c0.8,0.1,1.8-1.7,2.9-2.9c0.1,0,0.7,0,1.5,0.1
	c-0.9-2.3-1.7-4.3-2.5-6.3c-0.2,0.1-0.4,0.2-0.6,0.2c-0.2,2.3-0.5,4.6-0.7,7.4c-2.9-2.1-3.2-3.7-1.7-9.6c-2.8,1.6-5.1,2.8-7.5,4.1
	l-0.8-0.7c0.7-1.5,1-3.3,2.1-4.4c1.9-2,3.8-4.5,7.2-3.7c1,0.2,2.1,0.8,2.8,1.5c2.8,3.1,4,7.1,5.1,11c0.1,0.4,0,1-0.3,1.3
	c-1.9,2.4-3.8,4.8-5.9,7.1c-2,2.2-2.3,4.4-0.5,6.1c1.3,1.3,4.5,0.8,5.8-1.3c1.2-2,2.4-2.1,4.3-1.2c0.4,0.2,1.3,0.3,1.5,0
	c1.3-1.7,2.5-3.6,3.9-5.7h-4.2c0.4,1,0.7,1.8,1.1,2.7c-1.7,1.5-3.3,1.7-4.9-0.6c-1,1.4-1.8,2.8-3,3.8c-0.8,0.6-2.1,0.7-3.2,0.8
	c-0.2,0-0.8-1.4-0.6-1.5c0.9-0.7,2-1.3,3-1.9c0.7-0.4,1.6-0.8,1.9-1.4c0.7-1.7,1.2-3.5,1.9-5.5c1,0.7,1.7,1.2,2.5,1.7
	c-0.1-0.2-0.1-0.4-0.2-0.7c2-0.6,3.9-1.2,5.9-1.8c1.5-1.4,3-2.8,4.6-4.3c1.6-1.4,3.4-2.6,4.7-4.3c2.2-2.9,5.1-3.7,8.9-4.2
	c-2.4,3.7-0.1,5.8,2.5,8.2c1.2-1.1,2.4-2.2,3.8-3.4c0.4,1.4,0.5,2.8,1.2,4c0.6,1.1,1.7,2,3.1,3.5c1.7-2.5,3.1-4.6,4.4-6.6
	c1.6-0.4,3.4-0.8,5.6-1.2c0.7,1.6,1.8,3.5,2.3,5.6c0.5,2.1,0.5,4.4,0.7,6.5c-1.4,0.8-2.7,1.5-3.5,2c-1.3-0.5-2.9-1.7-3.3-1.3
	c-2.3,1.9-1.3,4.4-0.6,6.9c-3.6,0.3-4.6,3.2-6,5.6c-0.2,0.4,0.2,1.6,0.6,1.9c0.8,0.5,1.8,0.9,2.7,0.9c0.7,0,1.4-0.6,2.2-1
	c0.4,2.1,0.3,4.2,1.2,5.6c1.5,2.1,3.3,0.8,4.6-0.7c0.7,2.3,1.4,4.1-1.4,5.9c-2.8,1.8-1.9,5.1,0.2,7.7c1.4,1.6,1.8,4.1,2.7,6.5
	C424.9,391,423.8,391.3,422.6,391.6z M346.1,336.1c-0.9,2.6-1.7,4.6-2.6,7C340.1,339,340.4,338.2,346.1,336.1z M347.3,336
	c0-0.4,0.1-0.9,0.1-1.3c1-0.1,2.1-0.2,3.1-0.3c-0.2,0.8-0.4,1.6-0.6,2.4C349.1,336.5,348.2,336.2,347.3,336z M404.8,336
	c1-3.8,3.9-5.4,7.6-5.4c4.2,0,8.3,0.4,10.5,6.2c-1.4,0-2.5,0.2-3.5-0.1c-1.1-0.3-2-1.1-2.8-1.5c-0.4,2.8-0.7,5.3-1.1,8.3
	c-4.1-1.7-3.4-4.9-3.5-8.4c-1.7,1.1-2.9,1.8-4.1,2.6c-0.8,0.5-1.6,0.8-2.5,1.2C405.1,338,404.6,336.9,404.8,336z M426.2,377.1v5.6
	C423.2,381.2,423.1,380.5,426.2,377.1z M426.3,367.1c-0.9,0.6-1.6,0.9-2.1,1.4c-0.6,0.5-1.1,1.2-1.6,1.8c-0.3-0.1-0.7-0.3-1-0.4
	c0.4-2.2,0.7-4.3,1.2-6.8c-0.4-0.3-0.4-0.3-7.2,1.4c1.1-1.6,1.1-4,4.2-4c0.5,0,1.4-1.9,1.5-3.1c0.2-1.1-0.3-2.3,0.1-3.7
	c0.6,1.2,1.3,2.4,2.1,3.8c1.2-1.7,2.2-3.1,3.2-4.6c0.2,0.1,0.5,0.2,0.7,0.2C427,357.9,426.6,362.7,426.3,367.1z M420.9,316.2
	c0.8-0.1,1.7-0.2,2.5,0c5.7,1.7,11.8,2.4,16.3,6.7c3.5,3.4,7.3,6.6,6.7,12.6c-0.8,8.1-0.8,16.2-1.3,24.3c-0.2,2.6-0.9,5.1-3.3,7
	c-1.6,1.3-2.5,3.4-4,5c-2.1,2.3-4.1,2.3-6.2,0.1c3.1-3.5,2.4-7.6,2.3-11.5c0-2.7-1-5.4-1-8.2c-0.1-3.7,0.6-7.5,0.4-11.2
	c-0.1-2.7-0.9-5.5-1.7-8.1c-0.3-0.9-1.6-2-2.4-2c-2.1,0.1-2.7-1.7-4-2.5c-2.3-1.4-5-2.8-7.7-3.1c-6.8-0.7-13.5-0.6-20,2.5
	c-5,2.3-9.2,5.5-12.4,10c-0.5,0.7-1,1.3-1.9,2.5c-1.4-3.8-5.1-5.6-5.7-9.6c-0.1-0.6-1.5-1.4-2.4-1.5c-4.6-0.7-9.2-1.5-13.8-1.8
	c-4.1-0.3-8.4-0.8-12.2,0.3c-5.1,1.4-10.3,3.3-14.5,7c-2.5,2.2-5.1,4.2-7.8,6.4c-0.2-2.1-0.2-4.8-0.7-7.3c-0.2-1.1-1.3-2.3-2.2-2.9
	c-3.3-2.3-7-2.2-10.9-1.5c-6.3,1.1-12.6,2.1-18.8,3.2c-4,0.7-7.9,1.7-12,2.4c-6,1-12.2,1.3-18,2.9c-2.8,0.8-5.1,3.8-7.5,6
	c-1.1,1-1.7,2.7-2.9,3.7c-0.6,0.5-1.8,0.4-3.5,0.7c0.6-1.3,0.9-1.6,1-2c0.1-0.8,0.5-1.9,0.2-2.2c-0.5-0.5-1.6-0.7-2.5-0.7
	c-1.6,0.1-3.2,0.4-5,0.7c0.3-2.3,1.4-2.9,3.3-3.1c3.2-0.4,6.4-0.9,9.5-1.9c0.7-0.2,1.2-2.4,1.1-3.6c-0.1-1.6-0.5-3.3-3.1-3
	c-2.9,0.3-5.8,0.1-8.7,0.1c-0.1-0.2-0.1-0.5-0.2-0.7c1.1-0.3,2.2-0.7,3.4-0.8c2.6-0.2,5.2,0.2,7.7-0.4c2-0.5,3.7-2.1,5.7-3
	c1.2-0.6,2.7-1.4,3.7-1.1c4.8,1.7,9.3,0,13.9-0.7c2.5-0.4,5.2-0.7,7.5-0.1c2.2,0.6,4.1,0.6,6.2,0.1c3.2-0.8,6.3-1.7,9.8-1.4
	c2.9,0.2,6-1.7,9-2.5c3.4-0.9,6.6-1.8,9.6-4.1c2.2-1.7,6-1.6,9-2.1c2.8-0.5,5.6-1,8.4-1.1c3.5-0.2,7-0.1,10.5,0
	c4,0.1,8.1,0.5,12.1,0.7c0.5,0,1.1-0.1,1.4-0.4c1.3-1.1,2.4-1.2,4.2-0.6c5.4,1.7,10.8,3.4,16.4,4.1c7.3,0.9,14.7,1.9,22-1.3
	c2.5-1.1,5.9-0.2,8.9-0.3C417.4,316.6,419.1,316.3,420.9,316.2z M430.3,293.1c-2.8,3.7-5.5,7.5-8.4,11.2c-1.5,1.8-3.4,2.4-5.8,1.3
	c-0.8-0.3-2-0.1-2.8,0.3c-6.2,2.7-12.6,4.3-19.3,4.8c-3.6,0.3-7.2,1-10.7,1.1c-2.9,0.1-5.9-0.3-8.8-0.3c-2.1,0-4.1,0.3-6.2,0.5
	c-4,0.5-7.1-1.5-10.5-3c-3.1-1.3-6.6-2.4-9.9-2.3c-6.8,0.2-9.5-4.8-13.2-8.9c-1-1.1-1.9-2.4-2.4-3.8c-1.6-4.5-5.9-6.1-8.4-8
	c-0.6-3.4-1-5.7-1.3-8c-0.1-0.5-0.3-1.1-0.2-1.6c0.7-5.1,1.4-10.2,2.2-15.2c1.1-6.9,3.5-13.3,8-18.8c2.4-2.9,4.6-6.5,7.8-8
	c4.9-2.4,10.6-3,15.8-4.9c5.5-2.1,10.9,0.4,16.3-0.5c2.5-0.4,5.2-0.9,7.5-2c3.2-1.5,6.2-0.9,9.3-0.2c3.8,0.7,7.6,0.9,11.4,1.4
	c0.6,0.1,1.2-0.1,1.7,0.1c4.5,1.6,8.9,1.3,13.4-0.3c0.9-0.3,2.2,0.4,3.3,0.7c0.4,0.1,0.8,0.5,1.3,0.5c7.1,0.6,11.7,5.4,16,10.1
	c5.6,6.1,7.1,13.6,6.6,22c-0.6,9.3-4.2,17.4-8.1,25.4C433.8,289.1,431.9,291,430.3,293.1z M461.5,275.3c-1.9,3.8-3.4,7.8-5.1,11.7
	c-0.3,0.7-1.2,1.1-1.7,1.7c-0.7,0.7-1.7,1.4-2,2.2c-1.1,3.6-3.9,5.1-7,6c-3.8,1.1-7.8,1.7-11.7,2.4c-0.2-0.2-0.3-0.5-0.5-0.7
	c1.1-1.5,2.1-3.1,3.2-4.6c5.4-6.7,8.4-14.4,9.7-22.7c0.7-4.4,2.3-8.9,2-13.3c-0.4-6.4-0.4-13.2-6-18.2c-4.6-4.1-8.6-8.8-12.9-13.2
	c-0.5-0.5-0.9-1.3-1.4-1.3c-5.4-0.1-10.3-4.5-16.2-1.5c-4.7,2.4-9.8,1.4-14.8,0.4c-3.5-0.7-7.1-1.4-10.5-2.6
	c-3.8-1.3-6.9,0.7-10.3,1.4c-2.7,0.5-5.4,1.6-8.1,1.8c-2.4,0.2-4.8-0.4-7.2-0.4c-7.3-0.2-14.2,0.8-20.4,5c-2.5,1.7-5.2,2.9-7.5,4.8
	c-1.8,1.5-3,3.8-4.5,5.7c-0.7,0.9-2,1.4-2.3,2.4c-1.8,5.6-3.6,11.2-5,16.9c-1.4,5.7-2.4,11.5-3.3,17.4c-0.4,2.6-0.1,5.4-0.4,8
	c-0.2,1.5-1.1,3-1.7,4.5c-1.5,0-2.7,0.2-3.8-0.1c-1.1-0.2-2.8-0.6-3.1-1.4c-1.2-2.8-1.9-5.8-2.9-8.7c-0.3-0.9-0.6-1.9-1.3-2.6
	c-1.5-1.6-3.3-3.1-4.9-4.6c-3.5-3.1-2.7-7.1-2-10.9c0.9-5.2,3.3-9.2,7.9-12.4c4.5-3.1,8.5-6.9,10.5-12.4c0.5-1.3,2-2.2,3-3.3
	c0.4-0.5,1.1-1,1.1-1.5c-0.2-4,3.1-6.3,4.6-9.5c2.5-5.3,6.9-7.2,12.7-6.9c1.7,0.1,3.5-1,5.2-1.8c2.3-1.1,4.3-1.7,7.1-0.8
	c2.6,0.9,6,0.7,8.6-0.3c9.3-3.5,18.8-5.7,28.7-3.8c2.7,0.5,4.7,1,6.6-1.2c4.1,1.2,8.7-1.7,12.7,1.4c3,2.3,6.7,1.8,10,2.4
	c6.7,1.1,13.3,2.4,19.1,6c4.6,2.8,8.9,6.1,10.9,11.7c1.3,3.5,3.6,6.6,5.3,10c0.7,1.3,0.9,2.8,1.3,4.2c0.1,0.4,0.1,1.2,0.3,1.3
	c3.4,1.5,3.3,5,4.4,7.7c0.3,0.7,0.3,1.8-0.1,2.4c-2.7,4.7,0,8.7,1.7,12.8c0.4,0.9,1.1,1.8,1.6,2.6
	C462.4,271.3,462.7,273,461.5,275.3z"/>
<path class="st27" d="M360.1,407.9l-4.3,68l-26.8,6.3c-2.2,0.5-2.3-6-0.5-7.3l15-9.2l1.4-59.5"/>
<path class="st27" d="M400.6,407.9l-3.1,68.1l29.3,9.1c2.4,0.8,3.3-5.7,1.4-7.2l-15.6-10.8l5.4-59.3"/>
</svg>
