<?xml version="1.0" encoding="utf-8"?>
<!-- Generator: Adobe Illustrator 26.3.1, SVG Export Plug-In . SVG Version: 6.00 Build 0)  -->
<svg version="1.1" id="Layer_2" xmlns="http://www.w3.org/2000/svg" xmlns:xlink="http://www.w3.org/1999/xlink" x="0px" y="0px"
	 viewBox="0 0 500 500" style="enable-background:new 0 0 500 500;" xml:space="preserve">
<style type="text/css">
	.st0{clip-path:url(#SVGID_00000178205071221915338540000018043970377763109559_);fill:#815B31;}
	.st1{clip-path:url(#SVGID_00000178205071221915338540000018043970377763109559_);}
	.st2{fill:#FFFFFF;}
	.st3{fill:#D51244;}
	.st4{fill:#FFCB05;}
	.st5{fill:#A86B17;}
	.st6{fill:#F0CC9E;}
	.st7{filter:url(#Adobe_OpacityMaskFilter);}
	
		.st8{clip-path:url(#SVGID_00000132778026235590470860000008343240481627566500_);fill:url(#SVGID_00000047022954350683614490000005325236498282298506_);}
	
		.st9{clip-path:url(#SVGID_00000132778026235590470860000008343240481627566500_);mask:url(#SVGID_00000070115667481871531830000009036427917642532257_);fill:url(#SVGID_00000101076797562128046560000011850576820413085874_);}
	.st10{filter:url(#Adobe_OpacityMaskFilter_00000142172705165553399020000005190195257409471673_);}
	
		.st11{clip-path:url(#SVGID_00000146478358343103552910000017029303144634885782_);fill:url(#SVGID_00000147901904929297776620000001162301463566815633_);}
	
		.st12{clip-path:url(#SVGID_00000146478358343103552910000017029303144634885782_);mask:url(#SVGID_00000086664424473490805400000009932250923451397527_);fill:url(#SVGID_00000050637689686258159410000001967840385374954647_);}
	.st13{filter:url(#Adobe_OpacityMaskFilter_00000058590624365280108410000001771364256111271062_);}
	.st14{clip-path:url(#SVGID_00000126310854161812034610000017924850635288125628_);}
	
		.st15{clip-path:url(#SVGID_00000030477419621533281040000000471770960150330043_);fill:url(#SVGID_00000098208603188080382140000009818921156512302777_);}
	
		.st16{clip-path:url(#SVGID_00000126310854161812034610000017924850635288125628_);mask:url(#SVGID_00000084519352697199610070000007940987907924508090_);fill:url(#SVGID_00000062168472723243230360000005750032920369287083_);}
	.st17{filter:url(#Adobe_OpacityMaskFilter_00000062159903004993197620000007894201290839019702_);}
	.st18{clip-path:url(#SVGID_00000001637144787497017680000016564244979756088495_);}
	
		.st19{clip-path:url(#SVGID_00000041982401642859843100000002450655264467880102_);fill:url(#SVGID_00000023967616997640672990000000562737237993604243_);}
	
		.st20{clip-path:url(#SVGID_00000001637144787497017680000016564244979756088495_);mask:url(#SVGID_00000108293641231261663620000003362499178714698670_);fill:url(#SVGID_00000109710938719118546580000002560534709344637612_);}
	.st21{filter:url(#Adobe_OpacityMaskFilter_00000080207712761602092760000000602059070807267736_);}
	.st22{clip-path:url(#SVGID_00000180358178341741153460000001547450644477804440_);}
	
		.st23{clip-path:url(#SVGID_00000008835484270659579430000000075971834443735487_);fill:url(#SVGID_00000094603394366069157670000002899263165593450890_);}
	
		.st24{clip-path:url(#SVGID_00000180358178341741153460000001547450644477804440_);mask:url(#SVGID_00000002368204964256844320000011307864753590899078_);fill:url(#SVGID_00000011750284580752325970000013631683758644307645_);}
	.st25{fill:#D1D3D4;}
	.st26{clip-path:url(#SVGID_00000076584905089032822310000014086732961731723937_);}
	.st27{filter:url(#Adobe_OpacityMaskFilter_00000174596433397431724070000000654690277171282056_);}
	
		.st28{clip-path:url(#SVGID_00000019664352720024682950000001687568374104593553_);fill:url(#SVGID_00000021084254792286570890000013672876043237985962_);}
	
		.st29{clip-path:url(#SVGID_00000019664352720024682950000001687568374104593553_);mask:url(#SVGID_00000007399548083775618460000000220698423642102150_);fill:url(#SVGID_00000093147606588722139580000008755715707579742907_);}
	.st30{clip-path:url(#SVGID_00000019657047475799967160000009158731414950365363_);}
	.st31{filter:url(#Adobe_OpacityMaskFilter_00000119840051070769355080000015964774243508895152_);}
	
		.st32{clip-path:url(#SVGID_00000181788532262242518880000005897323382352642215_);fill:url(#SVGID_00000147917680689662211950000003194269952426244498_);}
	
		.st33{clip-path:url(#SVGID_00000181788532262242518880000005897323382352642215_);mask:url(#SVGID_00000093863737023726107680000003497639705219591303_);fill:url(#SVGID_00000130608153591446946160000002574773725061643191_);}
	
		.st34{clip-path:url(#SVGID_00000021817464178995905790000014500832866891636869_);fill:url(#SVGID_00000106147529777879469640000009652309290432394137_);}
	.st35{fill:#EF4123;}
	.st36{fill:#005826;}
	
		.st37{clip-path:url(#SVGID_00000132770467408910835980000017373004647856234659_);fill:url(#SVGID_00000041982805773806376190000001927975777563911092_);}
	
		.st38{clip-path:url(#SVGID_00000008124379855359534100000015523555668676989617_);fill:url(#SVGID_00000057143614594161833850000011175954019287773827_);}
</style>
<g>
	<defs>
		<rect id="SVGID_1_" x="6.2" y="-15" width="487.7" height="494.7"/>
	</defs>
	<clipPath id="SVGID_00000000943057514587499240000009242708400832211845_">
		<use xlink:href="#SVGID_1_"  style="overflow:visible;"/>
	</clipPath>
	<path style="clip-path:url(#SVGID_00000000943057514587499240000009242708400832211845_);fill:#815B31;" d="M99.6,460.5
		c0.9-1.2,4-5.2,4-5.2l8.1-0.9l6.9,0.3l9,2.9l7.8,1.4l9.5,5.8l-3.5,9.5l-8.7-1.2l-7.5-0.3l-11-1.4l-1.7-4.9l-5.5,5.8l-8.7-1.2
		l-2.9-5.2L99.6,460.5z"/>
	<polygon style="clip-path:url(#SVGID_00000000943057514587499240000009242708400832211845_);fill:#815B31;" points="188.7,460.2 
		184.9,466.3 184.9,470 190.7,471.2 200.9,470.6 204.9,471.2 213.6,470.9 225.2,473.2 228.6,472.6 228.9,462.8 219.4,461.1 
		208.1,455.3 199.1,458.2 193.6,457.6 	"/>
	<path style="clip-path:url(#SVGID_00000000943057514587499240000009242708400832211845_);" d="M156.5,430.6c-2.7,0-5.1,1.7-7.7,1.5
		c-1.9-0.1-3.8,0.3-5.7-0.1c-2-0.4-4.1-0.3-6.1-0.3c-0.5,0-1,0.6-1.5,0.7c-0.7,0.2-1.5,0.6-2.1,0.1c-1.9-1.6-3.9-1.1-5.8-0.8
		c-1.8,0.3-3.6,0.1-5.4,0.1c-3.2,0.1-6.4-0.2-9.6-1.1c-1.9-0.5-3.7,0.1-5.5,0.7c-2.5,0.9-5,2-7.5,1.8c-1.3-0.1-2.7-0.1-4.1-0.2
		c-1.4,1.1-2.7-0.6-3.3-0.7c-1.7-0.4-1.9,0.1-1.9,0.1s-6-2-6.7-1.6c-0.7,0.4-13.4,0-20.6,0.4c-7.2,0.4-17.2,2.4-19.8,2
		c-1.2-0.2-3.7-1.1-6-2c-1.8,0.2-3.5,0.5-5.2,0.7c-2.8,0.4-5.7,0.9-8.5,1c-3.5,0.1-6.9-0.1-10.4-0.2c-0.9,0-1.9,0.4-2.7-0.8
		c-0.1-0.2-0.5-0.3-0.6-0.1c-0.7,0.8-1.3,0.3-2,0.2c-1.1-0.2-1.7,0.7-1.4,2.6c0.2,1.2,0.5,2.3,0.8,3.4c0.1-0.2,0.1-0.3,0.2-0.5
		c1.2,0.6,2.5,1.3,3.7,1.9c1.5,0.7,3,1.4,4.4,0.5c1.4-0.9,2.8-1.3,4.2-1.3c2.7,0.1,5.4,0.6,8,0.8c2.1,0.1,4.2,0,6.3,0.1
		c1.7,0.1,3.5-0.8,5.1,0.7c0.4,0.4,1,0.1,1.6,0c0.9-0.1,1.7-0.5,2.6-0.5c1.4,0,2.8,0.5,4.2,0.5c2.1,0,4.2-0.4,6.2-0.9
		c2.3-0.6,4.8-0.7,7.1-0.2c2.1,0.5,4.3,0.4,6.3,2.1c0.1,0.1,0.3,0,0.5,0c2.5-0.6,5.1-0.8,7.7-0.5c0.5,0.1,1-0.3,1.5-0.3
		c1.4,0.1,2.9,0.3,4.3,0.3c2.9-0.1,5.8-0.5,8.7-0.6c2-0.1,4,0.2,6.1,0.2c0.9,0,2,0.6,2.5-1.5c0.1-0.3,0.5-0.2,0.8-0.3
		c1-0.3,2-0.5,3.1-0.8c2.4-0.7,4.8-1.6,7.2-2.2c1.5-0.4,3-0.5,4.3,1.3c0.5,0.7,1.3,0.6,2,0.9c1.3,0.6,2.5,0.1,3.8,0
		c2.1-0.1,4.2,0.2,6.2,0.3c1.2,0.1,2.4,0,3.5,0.2c2.1,0.4,4.2,1.7,6.3,1.9c2.2,0.3,4.5-0.1,6.8-0.4c1.4-0.2,2.7-0.9,4.1-0.9
		c1.4,0,2.4-0.5,2.9-2.8c0.3,0,0.6,0.1,0.9,0c1.5-0.5,3-0.8,4.3,1c0.3,0.4,0.8,0.4,1.2,0.3c1-0.3,1.9-1.1,2.8-1
		c3.1,0.1,6.3,0.5,9.4,0.8c1.2,0.1,2.4,1,3.4,0.5c1.7-0.7,3.3-0.6,5-0.1c1.5,0.4,3,0.4,4.5,0.7c1.1,0.2,2-0.9,3.2-0.7
		c1.5,0.2,3-0.6,4.6-1.1c1.4-0.4,2.7-0.6,4,0.9c0.4,0.4,1,0.5,1.5,0.5c2.9,0.2,5.8-0.3,8.7,0.2c3.7,0.5,7.4,0.3,11.2,0.4
		c2.9,0.1,5.8-0.5,8.6,0.1c1,0.2,2.1-0.1,3.1-0.1c1,0,2,0,3,0c0.4,0,0.8-0.1,1.2-0.1c0.9,0.1,1.8,0.4,2.6,0.5
		c0.1-0.4,0.2-0.5,0.2-0.6c0.1-0.6,0.1-1.5,0.3-1.7c0.6-0.4,0.5,0.4,0.7,1.1c0.3,1,0.8,1.6,1.5,1.2c1.2-0.7,2.7,0.7,3.8-1.1
		c0.9,0.5,1.8,0.9,2.6,1.4c0.5,0.3,0.9,0.9,1.4,0.9c1.6,0,3.2-0.3,4.9-0.4c0.9-0.1,1.9,0.1,2.8,0.2c0.5,0,1,0.2,1.5,0.1
		c1.7-0.2,3.3-1.3,5,0.1c0.1,0.1,0.3,0,0.5,0c1.1-0.1,2.2-0.1,3.3-0.2c1.4-0.1,2.8-0.3,4.2-0.2c2.2,0.1,4.5,0.5,6.7,0.6
		c2,0.1,4-0.7,6-1c2.5-0.4,5.1,0.3,7.7,0.4c1.3,0.1,2.7,0,4,0c2.8-0.1,5.5-1.2,8.4-0.6c2.9,0.6,5.9-0.2,8.9-0.3
		c1.1,0,2.1,0.2,3.2,0.1c2,0,3.9,0.8,5.9-0.2c1.6-0.8,3.3-1.1,4.8,0.2c1.3,1.2,2.7,1.2,4.1,1.2c0.6,0,1.3,0.3,1.9,0.4
		c0.4,0.1,0.9,0.1,1.3,0c1.8-0.2,3.6-0.4,5.5-0.6c0.6,0,1.2,0.1,1.7,0.3c2.1,0.8,4.2,1.8,6.5,0.9c0.8-0.3,1.8-0.9,2.7,0.3
		c0.2,0.3,0.8-0.1,1.1-0.3c0.3-0.1,0.5-0.7,0.7-0.7c1.5,0.3,2.9-0.6,4.4-1.1c0.5-0.1,1-0.5,1.4-0.1c1.5,1.5,3.2,0.4,4.8,1
		c0.6,0.2,1.2,0.3,1.7,0c1.4-0.8,2.8-0.4,4.1,0.3c0.2,0.1,0.6,0.2,0.8,0.1c2-1.3,4-0.4,6,0c2.3,0.4,4.8,1.5,6.6-2.4
		c-0.1,0.6-0.2,1.3-0.3,2.3c0.6-0.5,0.9-0.8,1.3-1.1c0.1,1.5,0.7,2,1.6,1.9c0.9-0.1,1.8,0,2.6,0.1c1.1,0.1,2.1-0.1,2.6-2.2
		c0.2,0.7,0.4,1.2,0.5,1.7c0.6-0.2,1.1-0.4,1.6-0.6c0.9-0.4,1.8-0.4,2.6,0.3c1.9,1.7,3.9,2.7,6,2.7c1,0,2-0.6,3.1-0.8
		c3.1-0.6,6.1-1.2,9.2-1.7c0.3-0.1,0.6,0,0.9,0.1c3.2,1.3,6.5,1.8,9.8,1.3c1.5-0.2,3-0.5,4.5-0.7c1-0.1,2-0.1,3.1-0.1
		c2,0.1,4.1,0.8,6-0.8c1.3-1,2.8,0.2,4.1-0.8c0.1-0.1,0.2,0,0.3,0.1c1.8,1.2,3.6,1.2,5.2,0c0.7,0.4,1.2,0.9,1.7,1
		c1,0.2,2.1,0.2,3.1,0.1c0.4,0,1-0.3,1.3-0.7c1.2-1.9,2.8-1.2,4.1-1.4c0.7-0.1,1.4,0.1,2.1-0.5c0.3-0.3,0.8-0.3,1.2-0.3
		c1.5-0.1,3.1-0.2,4.6-0.2c0.3,0,0.7,0.3,1,0.5c1.5,1.1,3,2,4.6,2.1c0.6,0,1.2-0.1,1.7,0.2c1.3,0.7,2.2,0.3,2.7-1.5
		c1.2-0.2,2.3-0.6,3.4-0.5c1.1,0.1,2.2,0.6,3.2,1c0.6,0.2,1.1,0.2,1.7,0.4c1.6,0.5,3-1,4.6-1.3c1.7-0.4,3.2-1.5,5-0.9
		c1.3,0.5,2.7,0.1,4,1.6c0.6-0.8,1.2-1.5,1.7-2.3c0.2-0.4,0.4-1.3,0.3-1.8c-0.2-1.5-2.1-3-2.9-2.1c-1.6,1.6-3.4,1-5.1,0.9
		c-2.1-0.1-4.1-0.9-6.2-0.9c-1.4,0-2.9-0.1-4.3-0.6c-2.3-0.9-4.4-0.3-6.4,0.5c-0.8-0.3-19.4-1.7-20.1-1.7
		c-2.8,0.1-16.9-0.4-19.7,0.6c-1.4,0.5-16.2-0.4-17.6,0c-2.3,0.7-15.8-0.4-18.1-0.6c-1.6-0.1-16.5-0.9-18.1-0.6
		c-1.1,0.2-15.5-0.2-16.5-0.6c-5.3-1.7-11.5,1.6-12.8,1.2c-0.4-0.1-15,0-15.5,0c-14.9,1.7-30.9,0.6-32,0c-0.6-0.3-24.6-1.1-25.1-0.6
		c-1.2,1.2-25.9,1.2-27.2,1.2c-1.4,0-15.7-1.9-17.1-0.6c-0.3,0.3-14.9-0.6-21.9-0.6c-4.3,0-9.4,0.6-10.9,0.7c-0.6,0-1.3,0.2-1.9-0.1
		c-0.6-0.2-1.1-1.2-1.7-1.4c-0.6-0.2-1.2,0.2-1.8,0.2c-1.6-0.2-23.2,0.9-24.8,0.6"/>
</g>
<polygon class="st2" points="93,234.9 77.9,247.9 67.8,261.5 62.9,281.1 62.6,295.3 71.3,305.7 83.1,313 82.3,341.6 80.5,357.2 
	79.7,378 109.2,376 109.7,393.4 108.3,403.8 109.7,424 108.3,440.5 103.1,454.4 118.7,454.7 125.9,429.2 128.3,412.5 123.9,395.7 
	125.4,375.7 191,376.6 191.9,392.2 195.6,399.4 196.5,432.4 191.6,457 199.4,458.7 207.8,454.4 210.1,422.3 205.8,374.3 
	222.8,372.5 226.3,328.9 224,309.5 225.2,297.9 239.9,289.2 227.8,256.3 241.1,239.8 225.4,221.3 192.2,211.1 182.1,210 
	160.1,216.6 148.6,224.7 141.8,216.9 132.6,213.7 121.9,218.4 111.5,227.6 102.5,231.1 "/>
<polygon class="st3" points="187.5,261.5 193.9,261.5 193.6,253.7 195.4,244.1 192.8,242.4 187.8,247.6 "/>
<polygon class="st4" points="199.4,262.1 212.1,261.8 213.3,249.6 206.9,247.3 206.6,239.2 202.6,237.8 201.1,240.9 201.7,251.1 "/>
<g>
	<path class="st5" d="M47.6,122.1l8.7-21.7l-13.9-1.4l-6.1,3.2l0.6,6.1l-6.4,7.8l-1.2,3.2l0.6,3.8c0,0,5.2,2.6,5.8,4
		c0.6,1.4,3.2,5.8,3.2,5.8l5.8,0.6L47.6,122.1z"/>
	<polygon class="st5" points="249.2,92.3 246,98 249.7,112.2 250.6,121.5 256.4,123.5 262.8,120 265.6,111.4 263,100.4 257.8,88.8 
		252.6,88.5 	"/>
</g>
<polygon class="st6" points="90.3,75.4 74.5,86.7 61.6,95 52.5,108.9 44.2,137.1 35.1,138 26.9,140.6 27.3,149.2 30.8,154.9 
	37.7,152.7 40.8,170.5 47.7,182.7 64.2,198.3 78.3,209.2 87.6,210 102.8,212.2 130.1,215.2 142.3,216.5 146.6,223 152.7,223.4 
	161.4,216.5 182.2,210.4 202.2,208.3 220.8,202.6 239,188.3 249.4,159.7 251.6,139.3 258.6,135.4 263.8,129.7 260.3,123.6 
	252.1,122.3 249,112.8 249,106.7 244.7,95.4 235.6,85.5 218.2,74.6 201.3,64.2 186.7,62.1 167.4,57.7 154,57.3 137.5,59.7 
	111.9,65.1 "/>
<polygon class="st6" points="283.4,266.4 293.3,257.6 305,257 306.2,260.5 300.9,264.6 300.9,273.4 305,280.4 314.9,282.1 
	310.2,289.7 291.5,289.2 288,286.2 "/>
<polygon class="st2" points="130,128.1 124.2,131 121.3,135.4 123.6,141.7 128.3,143.5 132,142.6 139.2,136.2 140.4,131.9 
	136.1,128.1 "/>
<polygon class="st2" points="180,131 176.8,134.8 176.3,140 180,144 185.5,143.7 189.9,140 192.2,135.9 189.6,131 184.4,129.3 "/>
<g>
	<defs>
		<polygon id="SVGID_00000151520443816803553290000013393927570075967137_" points="108.9,377.5 109.5,392.5 108.3,403.5 110,419.7 
			108.3,439.4 101.9,456.1 118.7,455 123.3,433 129.1,414.5 124.5,397.1 123.3,375.1 		"/>
	</defs>
	<clipPath id="SVGID_00000086655606075456571010000005006561274447059384_">
		<use xlink:href="#SVGID_00000151520443816803553290000013393927570075967137_"  style="overflow:visible;"/>
	</clipPath>
	<defs>
		<filter id="Adobe_OpacityMaskFilter" filterUnits="userSpaceOnUse" x="101.9" y="375.1" width="27.2" height="81">
			<feColorMatrix  type="matrix" values="1 0 0 0 0  0 1 0 0 0  0 0 1 0 0  0 0 0 1 0"/>
		</filter>
	</defs>
	
		<mask maskUnits="userSpaceOnUse" x="101.9" y="375.1" width="27.2" height="81" id="SVGID_00000021828572649769468740000013203078006288815540_">
		<g class="st7">
			
				<linearGradient id="SVGID_00000145048423527271900210000009101557537193896878_" gradientUnits="userSpaceOnUse" x1="3011.0813" y1="2230.7158" x2="3012.3582" y2="2230.7158" gradientTransform="matrix(0 44.8571 44.8571 0 -99947.9297 -134700.1875)">
				<stop  offset="0" style="stop-color:#FFFFFF"/>
				<stop  offset="1.012730e-03" style="stop-color:#FFFFFF"/>
				<stop  offset="9.211162e-02" style="stop-color:#F1F1F1"/>
				<stop  offset="0.2633" style="stop-color:#CDCDCD"/>
				<stop  offset="0.4964" style="stop-color:#939393"/>
				<stop  offset="0.779" style="stop-color:#434343"/>
				<stop  offset="1" style="stop-color:#000000"/>
			</linearGradient>
			
				<rect x="101.9" y="375.1" style="clip-path:url(#SVGID_00000086655606075456571010000005006561274447059384_);fill:url(#SVGID_00000145048423527271900210000009101557537193896878_);" width="27.2" height="81"/>
		</g>
	</mask>
	
		<linearGradient id="SVGID_00000090992303849608573430000006094381324115745720_" gradientUnits="userSpaceOnUse" x1="3011.0813" y1="2230.7158" x2="3012.3582" y2="2230.7158" gradientTransform="matrix(0 44.8571 44.8571 0 -99947.9375 -134700.2031)">
		<stop  offset="0" style="stop-color:#0083CA"/>
		<stop  offset="1.012730e-03" style="stop-color:#0083CA"/>
		<stop  offset="9.211162e-02" style="stop-color:#0087CC"/>
		<stop  offset="0.2633" style="stop-color:#0093D2"/>
		<stop  offset="0.4964" style="stop-color:#65AADD"/>
		<stop  offset="0.779" style="stop-color:#B7D2EE"/>
		<stop  offset="1" style="stop-color:#FFFFFF"/>
	</linearGradient>
	
		<rect x="101.9" y="375.1" style="clip-path:url(#SVGID_00000086655606075456571010000005006561274447059384_);mask:url(#SVGID_00000021828572649769468740000013203078006288815540_);fill:url(#SVGID_00000090992303849608573430000006094381324115745720_);" width="27.2" height="81"/>
</g>
<g>
	<defs>
		<polygon id="SVGID_00000088843038588639938390000000619260358166879881_" points="188.7,374 192.8,391.9 193.9,404.7 198,434.2 
			190.4,457.3 200.3,457.9 208.4,455 209,430.1 209.5,411 206.1,390.2 206.6,374 		"/>
	</defs>
	<clipPath id="SVGID_00000132076932745063335670000011310867256520735668_">
		<use xlink:href="#SVGID_00000088843038588639938390000000619260358166879881_"  style="overflow:visible;"/>
	</clipPath>
	<defs>
		
			<filter id="Adobe_OpacityMaskFilter_00000183932077166012458100000012957750554459540869_" filterUnits="userSpaceOnUse" x="188.7" y="374" width="20.8" height="83.9">
			<feColorMatrix  type="matrix" values="1 0 0 0 0  0 1 0 0 0  0 0 1 0 0  0 0 0 1 0"/>
		</filter>
	</defs>
	
		<mask maskUnits="userSpaceOnUse" x="188.7" y="374" width="20.8" height="83.9" id="SVGID_00000153681523223439463720000003795976183173855145_">
		<g style="filter:url(#Adobe_OpacityMaskFilter_00000183932077166012458100000012957750554459540869_);">
			
				<linearGradient id="SVGID_00000084530560514823876400000013782856932081224369_" gradientUnits="userSpaceOnUse" x1="3011.0813" y1="2231.1196" x2="3012.3582" y2="2231.1196" gradientTransform="matrix(0 44.8571 44.8571 0 -99882.4531 -134700.1875)">
				<stop  offset="0" style="stop-color:#FFFFFF"/>
				<stop  offset="1.012730e-03" style="stop-color:#FFFFFF"/>
				<stop  offset="9.211162e-02" style="stop-color:#F1F1F1"/>
				<stop  offset="0.2633" style="stop-color:#CDCDCD"/>
				<stop  offset="0.4964" style="stop-color:#939393"/>
				<stop  offset="0.779" style="stop-color:#434343"/>
				<stop  offset="1" style="stop-color:#000000"/>
			</linearGradient>
			
				<rect x="188.7" y="374" style="clip-path:url(#SVGID_00000132076932745063335670000011310867256520735668_);fill:url(#SVGID_00000084530560514823876400000013782856932081224369_);" width="20.8" height="83.9"/>
		</g>
	</mask>
	
		<linearGradient id="SVGID_00000148660725842499397840000002995436679079824525_" gradientUnits="userSpaceOnUse" x1="3011.0813" y1="2231.1196" x2="3012.3582" y2="2231.1196" gradientTransform="matrix(0 44.8571 44.8571 0 -99882.4609 -134700.2031)">
		<stop  offset="0" style="stop-color:#0083CA"/>
		<stop  offset="1.012730e-03" style="stop-color:#0083CA"/>
		<stop  offset="9.211162e-02" style="stop-color:#0087CC"/>
		<stop  offset="0.2633" style="stop-color:#0093D2"/>
		<stop  offset="0.4964" style="stop-color:#65AADD"/>
		<stop  offset="0.779" style="stop-color:#B7D2EE"/>
		<stop  offset="1" style="stop-color:#FFFFFF"/>
	</linearGradient>
	
		<rect x="188.7" y="374" style="clip-path:url(#SVGID_00000132076932745063335670000011310867256520735668_);mask:url(#SVGID_00000153681523223439463720000003795976183173855145_);fill:url(#SVGID_00000148660725842499397840000002995436679079824525_);" width="20.8" height="83.9"/>
</g>
<g>
	<defs>
		<polygon id="SVGID_00000097487037327178701820000000134791476071899807_" points="85.8,239.3 68.3,260.5 62,287.5 67.8,302.9 
			81.6,313.5 86.3,287 104.9,230.3 		"/>
	</defs>
	<clipPath id="SVGID_00000160913224817024325380000002815553711011908279_">
		<use xlink:href="#SVGID_00000097487037327178701820000000134791476071899807_"  style="overflow:visible;"/>
	</clipPath>
	<defs>
		
			<filter id="Adobe_OpacityMaskFilter_00000056408813627372146290000007340956328632854673_" filterUnits="userSpaceOnUse" x="29.6" y="213.6" width="107.6" height="116.5">
			<feColorMatrix  type="matrix" values="1 0 0 0 0  0 1 0 0 0  0 0 1 0 0  0 0 0 1 0"/>
		</filter>
	</defs>
	
		<mask maskUnits="userSpaceOnUse" x="29.6" y="213.6" width="107.6" height="116.5" id="SVGID_00000042701740031651941750000002845616032483819673_">
		<g style="filter:url(#Adobe_OpacityMaskFilter_00000056408813627372146290000007340956328632854673_);">
			<g>
				<defs>
					
						<rect id="SVGID_00000011712274741297066110000006858800362167761821_" x="36.7" y="234.6" transform="matrix(0.4314 -0.9021 0.9021 0.4314 -197.8509 229.8521)" width="93.5" height="74.5"/>
				</defs>
				
					<clipPath id="SVGID_00000001625194949029232480000011874337376428356770_" style="clip-path:url(#SVGID_00000160913224817024325380000002815553711011908279_);">
					<use xlink:href="#SVGID_00000011712274741297066110000006858800362167761821_"  style="overflow:visible;"/>
				</clipPath>
				
					<linearGradient id="SVGID_00000018940877478810752080000006870025450861871023_" gradientUnits="userSpaceOnUse" x1="3052.1421" y1="2439.4873" x2="3053.4189" y2="2439.4873" gradientTransform="matrix(13.6835 -28.611 -28.611 -13.6835 28100.584 121008.9766)">
					<stop  offset="0" style="stop-color:#FFFFFF"/>
					<stop  offset="1.012730e-03" style="stop-color:#FFFFFF"/>
					<stop  offset="9.211162e-02" style="stop-color:#F1F1F1"/>
					<stop  offset="0.2633" style="stop-color:#CDCDCD"/>
					<stop  offset="0.4964" style="stop-color:#939393"/>
					<stop  offset="0.779" style="stop-color:#434343"/>
					<stop  offset="1" style="stop-color:#000000"/>
				</linearGradient>
				
					<polygon style="clip-path:url(#SVGID_00000001625194949029232480000011874337376428356770_);fill:url(#SVGID_00000018940877478810752080000006870025450861871023_);" points="
					-15.7,308.5 49.7,171.8 182.6,235.3 117.2,372 				"/>
			</g>
		</g>
	</mask>
	
		<linearGradient id="SVGID_00000150082030856432062920000006273276355051567011_" gradientUnits="userSpaceOnUse" x1="3052.1421" y1="2439.4873" x2="3053.4189" y2="2439.4873" gradientTransform="matrix(13.6835 -28.611 -28.611 -13.6835 28100.584 121009)">
		<stop  offset="0" style="stop-color:#0083CA"/>
		<stop  offset="1.012730e-03" style="stop-color:#0083CA"/>
		<stop  offset="9.211162e-02" style="stop-color:#0087CC"/>
		<stop  offset="0.2633" style="stop-color:#0093D2"/>
		<stop  offset="0.4964" style="stop-color:#65AADD"/>
		<stop  offset="0.779" style="stop-color:#B7D2EE"/>
		<stop  offset="1" style="stop-color:#FFFFFF"/>
	</linearGradient>
	
		<polygon style="clip-path:url(#SVGID_00000160913224817024325380000002815553711011908279_);mask:url(#SVGID_00000042701740031651941750000002845616032483819673_);fill:url(#SVGID_00000150082030856432062920000006273276355051567011_);" points="
		29.6,298 70,213.6 137.2,245.8 96.9,330.1 	"/>
</g>
<g>
	<defs>
		<polygon id="SVGID_00000047044417507448058630000004377797216268623496_" points="225.6,298.1 239.9,288.6 227.2,255.7 
			239.3,242.5 221.9,222.9 		"/>
	</defs>
	<clipPath id="SVGID_00000122689394335330835440000001048359796911173790_">
		<use xlink:href="#SVGID_00000047044417507448058630000004377797216268623496_"  style="overflow:visible;"/>
	</clipPath>
	<defs>
		
			<filter id="Adobe_OpacityMaskFilter_00000145776832226385464980000001219063082296727181_" filterUnits="userSpaceOnUse" x="209.5" y="220" width="42.8" height="81.1">
			<feColorMatrix  type="matrix" values="1 0 0 0 0  0 1 0 0 0  0 0 1 0 0  0 0 0 1 0"/>
		</filter>
	</defs>
	
		<mask maskUnits="userSpaceOnUse" x="209.5" y="220" width="42.8" height="81.1" id="SVGID_00000070818852892237384470000015064282351545356931_">
		<g style="filter:url(#Adobe_OpacityMaskFilter_00000145776832226385464980000001219063082296727181_);">
			<g>
				<defs>
					
						<rect id="SVGID_00000178177631041928980940000004187517731365886879_" x="215.7" y="221.9" transform="matrix(0.9859 -0.1671 0.1671 0.9859 -40.2879 42.2447)" width="30.3" height="77.1"/>
				</defs>
				
					<clipPath id="SVGID_00000023992682166820212310000002305538814379581321_" style="clip-path:url(#SVGID_00000122689394335330835440000001048359796911173790_);">
					<use xlink:href="#SVGID_00000178177631041928980940000004187517731365886879_"  style="overflow:visible;"/>
				</clipPath>
				
					<linearGradient id="SVGID_00000049936058015990793130000008570790335162033032_" gradientUnits="userSpaceOnUse" x1="3146.2146" y1="2442.7041" x2="3147.4915" y2="2442.7041" gradientTransform="matrix(-4.1465 -24.4645 -24.4645 4.1465 73042.0547 67136.4062)">
					<stop  offset="0" style="stop-color:#FFFFFF"/>
					<stop  offset="1.012730e-03" style="stop-color:#FFFFFF"/>
					<stop  offset="9.211162e-02" style="stop-color:#F1F1F1"/>
					<stop  offset="0.2633" style="stop-color:#CDCDCD"/>
					<stop  offset="0.4964" style="stop-color:#939393"/>
					<stop  offset="0.779" style="stop-color:#434343"/>
					<stop  offset="1" style="stop-color:#000000"/>
				</linearGradient>
				
					<polygon style="clip-path:url(#SVGID_00000023992682166820212310000002305538814379581321_);fill:url(#SVGID_00000049936058015990793130000008570790335162033032_);" points="
					210.7,308.1 196.1,222.2 251.1,212.9 265.6,298.8 				"/>
			</g>
		</g>
	</mask>
	
		<linearGradient id="SVGID_00000004535355089403345620000011207223879391732640_" gradientUnits="userSpaceOnUse" x1="3146.2146" y1="2442.7041" x2="3147.4915" y2="2442.7041" gradientTransform="matrix(-4.1465 -24.4645 -24.4645 4.1465 73042.0547 67136.4062)">
		<stop  offset="0" style="stop-color:#0083CA"/>
		<stop  offset="1.012730e-03" style="stop-color:#0083CA"/>
		<stop  offset="9.211162e-02" style="stop-color:#0087CC"/>
		<stop  offset="0.2633" style="stop-color:#0093D2"/>
		<stop  offset="0.4964" style="stop-color:#65AADD"/>
		<stop  offset="0.779" style="stop-color:#B7D2EE"/>
		<stop  offset="1" style="stop-color:#FFFFFF"/>
	</linearGradient>
	
		<polygon style="clip-path:url(#SVGID_00000122689394335330835440000001048359796911173790_);mask:url(#SVGID_00000070818852892237384470000015064282351545356931_);fill:url(#SVGID_00000004535355089403345620000011207223879391732640_);" points="
		222.4,301.1 209.5,225 239.4,220 252.3,296 	"/>
</g>
<g>
	<defs>
		<path id="SVGID_00000087400323772554770050000011554716652923090830_" d="M87.9,283.8l-1.6,8.5l-2.6,31.2l-3.2,30.2v24.9l0,0
			c0.2,0,92.9-0.7,93.4-2.3c0.5-1.6-49.8-125.9-49.8-125.9L87.9,283.8z"/>
	</defs>
	<clipPath id="SVGID_00000151512480771713260930000012839287839511744694_">
		<use xlink:href="#SVGID_00000087400323772554770050000011554716652923090830_"  style="overflow:visible;"/>
	</clipPath>
	<defs>
		
			<filter id="Adobe_OpacityMaskFilter_00000055667031841531729740000005644400009720824222_" filterUnits="userSpaceOnUse" x="27.9" y="211.8" width="199.1" height="205.3">
			<feColorMatrix  type="matrix" values="1 0 0 0 0  0 1 0 0 0  0 0 1 0 0  0 0 0 1 0"/>
		</filter>
	</defs>
	
		<mask maskUnits="userSpaceOnUse" x="27.9" y="211.8" width="199.1" height="205.3" id="SVGID_00000022527640235206360330000000805854737511796103_">
		<g style="filter:url(#Adobe_OpacityMaskFilter_00000055667031841531729740000005644400009720824222_);">
			<g>
				<defs>
					
						<rect id="SVGID_00000058575484857996639500000000096850322062123141_" x="56.2" y="235.9" transform="matrix(0.8867 -0.4623 0.4623 0.8867 -130.9416 94.5747)" width="142.6" height="157.1"/>
				</defs>
				
					<clipPath id="SVGID_00000052822992591446022570000009168053512504592813_" style="clip-path:url(#SVGID_00000151512480771713260930000012839287839511744694_);">
					<use xlink:href="#SVGID_00000058575484857996639500000000096850322062123141_"  style="overflow:visible;"/>
				</clipPath>
				
					<linearGradient id="SVGID_00000118399526502498418200000000047866792879811732_" gradientUnits="userSpaceOnUse" x1="3005.8938" y1="2372.5659" x2="3007.1704" y2="2372.5659" gradientTransform="matrix(47.5757 -24.8073 -24.8073 -47.5757 -84086.25 187792.1875)">
					<stop  offset="0" style="stop-color:#FFFFFF"/>
					<stop  offset="1.012730e-03" style="stop-color:#FFFFFF"/>
					<stop  offset="9.211162e-02" style="stop-color:#F1F1F1"/>
					<stop  offset="0.2633" style="stop-color:#CDCDCD"/>
					<stop  offset="0.4964" style="stop-color:#939393"/>
					<stop  offset="0.779" style="stop-color:#434343"/>
					<stop  offset="1" style="stop-color:#000000"/>
				</linearGradient>
				
					<polygon style="clip-path:url(#SVGID_00000052822992591446022570000009168053512504592813_);fill:url(#SVGID_00000118399526502498418200000000047866792879811732_);" points="
					-56.2,255.7 184.5,130.2 311.2,373.2 70.5,498.7 				"/>
			</g>
		</g>
	</mask>
	
		<linearGradient id="SVGID_00000005980742781664309960000015022297299343398308_" gradientUnits="userSpaceOnUse" x1="3005.8938" y1="2372.5659" x2="3007.1704" y2="2372.5659" gradientTransform="matrix(47.5757 -24.8073 -24.8073 -47.5757 -84086.2344 187792.1875)">
		<stop  offset="0" style="stop-color:#0083CA"/>
		<stop  offset="1.012730e-03" style="stop-color:#0083CA"/>
		<stop  offset="9.211162e-02" style="stop-color:#0087CC"/>
		<stop  offset="0.2633" style="stop-color:#0093D2"/>
		<stop  offset="0.4964" style="stop-color:#65AADD"/>
		<stop  offset="0.779" style="stop-color:#B7D2EE"/>
		<stop  offset="1" style="stop-color:#FFFFFF"/>
	</linearGradient>
	
		<polygon style="clip-path:url(#SVGID_00000151512480771713260930000012839287839511744694_);mask:url(#SVGID_00000022527640235206360330000000805854737511796103_);fill:url(#SVGID_00000005980742781664309960000015022297299343398308_);" points="
		27.9,277.7 154.4,211.8 227,351.2 100.6,417.1 	"/>
</g>
<g>
	<path d="M209.4,245.8c1.4-0.1,2.6-0.4,3.9-0.3c2.6,0.2,4.1,3.2,2.7,5.6c-0.4,0.7-0.5,1.6-0.7,2.4c-0.3,1.3-0.8,2.7-0.7,4
		c0.2,1.2,1.2,2.2,1.8,3.3c0.3,0.5,0.8,1.3,0.6,1.7c-0.3,0.7-1,1.4-1.8,1.7c-0.7,0.3-1.7,0.3-2.3,0c-1.6-0.9-2.8,0.2-4.2,0.5
		c-2,0.4-4.1,0.1-6.1,0c-0.5,0-1.1-0.4-1.6-0.4c-6.3,0-12.6,0-18.8,0c-1,0-2,0.5-3,0.6c-0.7,0.1-1.5-0.1-2.3-0.1
		c-0.7-0.1-1.5-0.2-2.6-0.3c-0.4-0.5-1.2-1.5-2.2-2.6c4.8-0.6,9.2-1.1,13.8-1.6c-0.2-0.6-0.4-1.1-0.6-1.6c0.1,0,0.3,0.1,0.4,0.1
		c0.3-1.1,0.6-2.1,0.7-3.2c0.3-2.5,0.4-5.1,0.7-7.6c0.3-2.5,4-6.4,6.5-6.4c1.1,0,2.4,0.8,3.4,1.5c1.2,0.8,1.2,1.8,0.5,3.2
		c-0.6,1.2-0.6,2.7-0.8,4c-0.2,1.4-0.5,2.6-1.6,3.7c-0.4,0.4-0.4,1.5-0.3,2.2c0.1,0.6,0.5,1.2,0.9,1.7c0.4,0.5,0.9,0.8,1.3,1.2
		c0.5-0.6,1.3-1.1,1.5-1.8c0.7-2.7,1.2-5.4,1.7-8.1c0.1-0.6-0.4-1.3-0.4-1.9c-0.1-2,0-3.9,0-5.9c0-0.3,0-0.5,0-0.8
		c0.1-0.7-1.2-1.1-0.2-2.1c1.3-1.2,2.6-2,4.3-1.8c1.3,0.1,2.8,0.5,3.9,1.2c0.8,0.5,1.4,1.7,1.5,2.7
		C209.6,242.3,209.4,244,209.4,245.8 M189.9,259.1c2.5-0.1,2.9-0.7,2.4-3.1c-0.1-0.5-0.1-1.1-0.1-1.6c0.2-2.1,0.4-4.2,0.6-6.3
		c0.1-0.7,0.4-1.4,0.5-2c0-0.6-0.2-1.2-0.2-1.8c-0.5,0.3-1.1,0.5-1.5,0.9c-1.6,1.4-1.1,3.5-1.9,5.2c-0.6,1.1-1,2.1-0.1,3.3
		c0.3,0.3-0.3,1.2-0.3,1.8c-0.1,0.8-0.1,1.5,0,2.3C189.2,258.1,189.6,258.6,189.9,259.1 M203,239.5c0.1,0.9,0.1,1.7,0.2,2.4
		c0.1,1.5,0.4,2.9,0.3,4.4c-0.1,1.3-0.8,2.4,0.1,3.7c0.1,0.2-0.1,0.6-0.2,1c-0.3,1.3-0.8,2.5-0.9,3.8c0,1.4,0.4,2.8,0.6,4.2
		c0,0.3,0.1,0.6,0.2,0.9c2.6-1,1.1-3.3,1.6-5c0.3-1.4-0.4-3-0.4-4.5c0-1.2,0.5-2.5,0.6-3.7c0.1-2.3,0-4.7,0-7.1H203z M208.8,250.2
		c0.3,3-2.3,5.7-0.3,8.8c0.5-0.4,1.2-0.7,1.5-1.3c0.5-1.1,0.8-2.3,1.3-3.5C211.8,252.9,210.4,250.5,208.8,250.2"/>
	<path d="M145.9,184.5c-1-0.8-2-1.6-2.9-2.3c0.1-0.2,0.1-0.4,0.2-0.4c1.6,0.3,2.5-1.7,4.3-1.2c1.2,0.3,2.8-0.7,3.9-0.3
		c2.2,1,4.5-0.2,6.7,0.7c2.2-1.5,4.8-1,7.3-1.3c1.5-0.2,2.9-0.2,4.8-0.3c-0.6,1-1,1.6-1.5,2.4c0.9,0.8,0.7,1.5-0.3,2.2
		c-1.8,1.3-3.5,2.6-5.2,4c-1,0.8-1.6,0.3-2.2-0.5c-1.4-1.7-1.5-1.7-3-1.6c-0.6,2.9-3.1,4-5.7,2.8c-0.2-0.1-0.4-0.2-0.5-0.4
		c-0.6-1.1-1.1-2.2-1.7-3.3c-0.6-1.3-1.6-1.3-2.7-1.1C146.8,184,146.3,184.3,145.9,184.5 M159.7,181.9l-0.2,0.5c1,0.7,1.5,2.4,3,1.8
		c0.8-0.3,1.2-1.3,2-2.2H159.7z"/>
	<path d="M160,163.5c-1.9,0.4-2.8-1-3.9-2.6c-1.5-2.1-3.3-4-5-6.1c-0.2-0.2-0.4-0.8-0.3-0.9c0.2-0.2,0.6-0.4,1-0.4
		c0.9,0.1,1.8,0.3,2.6,0.6c0.3,0.1,0.8,0.5,0.7,0.7c-0.3,2.4,1.8,3.4,2.9,4.9c0.3,0.5,1.3,1.1,1.5,0.9c0.8-0.5,1.8-1.3,1.9-2.1
		c0.1-1.5,0.7-2.6,1.4-3.8c1.4-2.5,0.7-4.8-0.4-7.3c-0.8-1.9-2.5-3.5-2.2-5.9c0.1-0.7-1.5-1.4-0.1-2c1.2-0.5,2.5-1,3.8-1
		c0.5,0,1.3,1.3,1.4,2c0.4,3.1,0.4,6.2,0.8,9.2c0.1,1.2,0.6,2.2-0.1,3.4c0,0.1,0,0.2,0,0.3c0.9,1.4,0,2.8,0,4.1
		C166,161.7,164.3,163.4,160,163.5"/>
	<path d="M216.6,117.6c-1.6-0.5-3.2-1-4.9-1.6c-0.1,0-0.3-0.2-0.3-0.3c-0.5-0.9,0.1-4.2,1-4.7c1.3-0.8,2.6-1.6,4-2.3
		c1.3-0.7,3.2-0.1,4.1,1.2c0.4,0.6,0.9,1.1,1.4,1.7c1,1.2,0,2.4-0.5,3C220.2,116,218.9,117.6,216.6,117.6"/>
	<path d="M100.8,125.2c-1.3-0.7-2.3-1.1-3.1-1.7c-0.7-0.5-1.7-1.1-1.8-1.9c-0.1-0.9,0.2-2.2,0.8-2.9c2.4-2.5,2.5-3.1,5.4-1.4
		c0.5,0.3,1.1,0.4,1.6,0.6c0.3,0.1,0.8,0.2,0.8,0.4c0.1,1.4,0.7,3,0.1,4C103.8,123.6,102.1,124.3,100.8,125.2"/>
	<path class="st2" d="M159.7,181.9h4.9c-0.8,0.9-1.3,2-2,2.2c-1.6,0.6-2.1-1.1-3-1.8L159.7,181.9z"/>
	<path d="M242.1,234.3c-0.2-0.2-0.4-0.3-0.7-0.4c-1.9-0.5-2.2-2.4-3.1-3.6c-2-2.7-3.4-6-5.6-8.6c-1.5-1.7-3.9-2.7-6.1-3.8
		c-1.9-1-3.9-1.8-5.8-2.5c-1-0.4-2.1-0.6-3.1-0.8c-2.8-0.5-5.5-0.8-8.3-1.4c-1.4-0.3-2.6-1.1-3.9-1.5c-1-0.3-2.1-0.5-3.4-0.8
		c2.9-0.6,5.7-0.6,8-1.7c2.4-1.2,4.9-1.4,7.2-2.4c1.8-0.7,3.5-1.6,5.2-2.5c1-0.6,1.6-1.6,2.6-2.2c1.6-1,3.4-1.6,5-2.6
		c1.9-1.2,3.8-2.4,5.5-3.8c1.9-1.6,3.5-3.5,5.2-5.2c0.2-0.2,0.4-0.3,0.6-0.5c1.5-2.4,3.4-4.7,4.3-7.4c1.1-3.2,4-5.4,4.2-9
		c0.1-2,1.6-3.9-0.1-5.9c-0.3-0.3-0.1-1,0-1.5c0.3-1.3,0.8-2.6,1.2-3.9c0.3-1.2,0.6-2.5,0.8-3.7c0.1-0.8,0.2-1.7,0.1-2.6
		c-0.2-1.3-1-2.8-0.7-4c0.5-1.8,1.7-3.4,2.6-5.2c0.2-0.5,0.2-1.3,0.1-1.9c-0.1-1.2-1.6-2.2-0.5-3.6c1.5-1.8,3.1-3.6,5.7-3.5
		c1.2,0.1,2-0.4,2.7-1.2c0.7-0.9,1.3-1.9,1.9-2.8c0.7-0.9,1.7-1.7,1.4-3.1c0-0.2,0.3-0.4,0.5-0.7c1.6-2.2,2.2-2.5-0.3-4.7
		c-0.9-0.8-1.8-1.5-2.7-2.3c0.8-0.9,1.7-1.8,2.5-2.8c0.7-0.8,1.6-1.7,1.9-2.7c0.5-1.7,0.5-3.6,1.9-5c0.2-0.3-0.1-1.2-0.3-1.7
		c-0.2-0.5-0.7-0.9-1-1.4c-0.6-0.9-1.8-1.5-0.7-2.9c0.4-0.5,0-1.9-0.4-2.5c-1.1-1.5-1.5-3.2-2.1-4.8c-0.7-1.9-1-3.7-0.5-5.9
		c0.3-1.5-0.2-3.7-2-4.9c-2.5-1.7-5-3.2-8-1.9c-1.7,0.7-3.3,1.6-5.1,2.2c-1.4,0.5-2.7,1.6-3.9,2.6c-0.7,0.6-1,0.5-1.5-0.2
		c-1-1.4-2.3-2.6-3.4-4c-1.3-1.6-2.6-3.3-3.9-5c-0.3-0.5-0.5-1-0.9-1.5c-1.4-2.1-3.6-3.2-5.8-4.3c-2.5-1.3-4.9-2.7-7.4-3.7
		c-4-1.5-7.4-3.8-10.7-6.4c-0.8-0.7-1.6-1.5-2.6-1.8c-4.2-1.6-8.3-3.7-13-3.9c-2-0.1-4.1-0.7-6.1-0.6c-3,0.2-5.7-0.2-8.2-1.8
		c-1.7-1.1-3.5-2.4-5.7-2.4c-2.2,0-4.4-0.1-6.3-1.6c-0.4-0.3-1.1-0.4-1.7-0.4c-2.4-0.1-4.8-0.2-7.1-0.4c-3.8-0.3-7.6,0.8-11.4-0.2
		c-0.2-0.1-0.4,0-0.6,0c-2.4,0.4-4.9,0.9-7.3,1.1c-2.9,0.1-5.7,0.5-8.5,1.6c-3.1,1.2-6.4,1.9-9.7,2.8c-3.3,1-6.6,2.3-9.9,2.8
		c-3,0.5-4.9,2.4-7.1,4.1c-0.7,0.5-1.2,1.2-2,1.6c-2.2,1-4.5,1.7-6.6,2.8c-3.9,2.1-7.6,4.4-11.4,6.5c-1.6,0.9-3.4,1.4-5,2.3
		c-2.1,1.1-4,2.4-6.1,3.6c-1.2,0.7-2.4,1.2-3.6,1.8c-0.6,0.3-1.2,0.8-1.8,1.1c-1.2,0.8-2.7,1.3-3.6,2.4c-1.2,1.5-2.7,2.3-4.3,3.2
		c-1.2,0.7-2.4,1.5-3.4,2.4c-1.2,1-2,2.3-3.2,3.3c-0.5,0.4-1.4,0.6-2.1,0.6c-2.8-0.1-5.6-0.4-8.4-0.5c-1.1,0-2.2,0.4-3.2,0.8
		c-1.1,0.4-2,1.2-3.1,1.7c-1.9,0.7-2.6,1.6-2.8,3.5c-0.1,1.7-0.4,3.3-0.6,5c0,0.2-0.2,0.3-0.3,0.5c-1.1,1.7-2.9,2.6-3.8,4.5
		c-0.5,1-1.8,1.8-2.1,2.8c-0.5,1.6-1.5,3.4-0.2,5.2c0.4,0.5,0.3,1.4,0.7,2c0.6,1.1,1.2,2.8,2.2,3.2c1.5,0.6,2,1.7,2.2,2.8
		c0.6,2.8,2.7,4.1,4.9,5c1.1,0.5,1.6,1,2.4,2.3c-2.2-0.1-4.1,0.2-5.8-0.4c-1.3-0.4-2.2-0.6-3.3,0.1c-0.9,0.6-1.7,1.5-2.8,1.9
		c-3.1,1.3-4.3,3.6-4.2,6.8c0.1,2.3,0.4,4.5,0.6,6.8c0,0.2,0,0.4,0.1,0.5c1.5,1.8,2.9,3.8,4.6,5.4c2.5,2.2,4.9,1.5,5.6-1.3
		c0,0,0.2-0.1,0.3-0.1c0.3,1.5,1.4,2.5,1.3,4.3c-0.1,3,0.5,6.1,0.8,9.2c0.4,3.2,1.4,6,3.7,8.4c1,1.1,2.1,2.3,2.6,3.7
		c0.8,2.7,2.6,4.8,4.3,6.9c1.5,1.7,3.5,3,5.1,4.7c1.9,2,3.8,3.9,6.4,5.1c1.3,0.6,2.6,1.5,3.3,2.7c1.5,2.2,3.7,3.3,6.1,4.3
		c1.5,0.6,2.9,1.5,4.1,2.5c2.5,2.2,5.5,3.6,8.7,4.5c1.2,0.3,2.4,0.5,3.6,0.8c1.2,0.3,2.4,1.2,3.4,1c3.1-0.5,5.8,1.1,8.6,1.7
		c2.2,0.5,4.3,0.1,6.5,0.6c0.2,0.1,0.5-0.2,0.8-0.2c1.6,0,3.4-0.5,4.8,0c1.4,0.5,2.2,0.1,3.4-0.2c1-0.3,2.1-0.4,3.1-0.2
		c1.3,0.2,2.5,0.8,4,1.3c-0.8,0.5-1.6,1-2.4,1.5c-1.4,0.9-3.5,0.8-4.3,2.6c-0.7,1.5-1.9,2.1-3.3,2.8c-1.9,0.9-3.8,1.9-5.5,3.2
		c-2.1,1.6-4.2,2.6-6.8,2.2c-0.4-0.1-1,0.3-1.4,0.6c-1.8,0.8-3.6,1.7-5.4,2.5c-0.5,0.2-1,0.4-1.4,0.7c-1.1,0.9-2.2,1.8-3.2,2.7
		c-0.6,0.6-1.2,1.3-1.7,1.9c-0.1,0.5-0.6,0.7-0.9,1c-1.7,1.3-3.4,2.7-5.2,3.9c-2.2,1.4-4.8,2.2-5.8,5c-0.1,0.2-0.3,0.3-0.5,0.4
		c-2,0.8-2.1,2.9-3.1,4.4c-1.2,1.9-2.6,3.7-3.8,5.5c-0.9,1.4-2,2.8-2.5,4.4c-0.7,2-0.9,4.1-1.3,6.2c-0.2,1.3-0.4,2.5-0.7,3.8
		c0,0.3-0.1,0.5-0.2,0.8c-0.8,1.8-0.3,4.1-1.7,5.7c0,0,0,0.1,0,0.2c-0.2,1.4-0.4,2.9-0.7,4.3c-0.4,1.8-1.1,3.6-1.2,5.5
		c-0.1,2.1-0.6,4.2,1.1,6.3c1.2,1.4,0.9,3.9,2.5,5.2c1.9,1.6,3.9,3,5.9,4.5c0.6,0.5,1.3,0.8,1.8,1.3c1.9,2.1,3.8,4.2,5.6,6.4
		c0.7,0.9,1.5,1.3,2.7,1.3c1.2,0,2.4,0.5,2.4,1.7c0,1.7-0.7,3.3-0.9,5c-0.2,1.6-0.7,3.3,0.7,4.7c0.7,0.8,0.7,1.3,0,2.1
		c-0.4,0.5-0.8,1.3-0.8,2c-0.1,6.4,0,12.8-0.1,19.2c0,0.5-0.3,1-0.4,1.5c-0.5,1.4-1.2,2.7-1.4,4.1c-0.2,1.9-0.2,3.9,0,5.9
		c0.1,1.9-1,3.7-0.1,5.7c0.3,0.7,0.3,2-0.1,2.6c-1,1.8-1.3,3.6-1.1,5.6c0.1,1,0.5,2.1,0.6,3.1c0.1,1.7,0.2,3.1,1.9,4.2
		c1.9,1.2,3.7,2.3,6.1,2.2c1.5-0.1,3-0.9,4.6-0.1c0.2,0.1,0.7-0.2,1-0.3c1.5-0.3,3-0.9,4.5-0.9c3.8-0.1,7.6,0,11.4-0.1
		c1.2,0,1.8,0.5,1.8,1.7c0,2.1-0.1,4.1,0,6.2c0,0.7-0.3,1.2-0.2,2c0.3,2.6-0.3,5.2,0.1,7.8c0.2,1.3-0.5,2.7-0.5,4.1
		c0,1.2,0.5,2.4,0.5,3.6c0.1,1.8,0.1,3.5,0,5.3c-0.1,2-0.2,4.1-0.7,6c-0.6,2-1,3.9,0,5.9c0.1,0.2-0.1,0.6-0.1,0.9
		c-0.1,0.5-0.5,0.9-0.4,1.4c0.1,0.9,0.6,1.8,0.5,2.7c-0.1,1.8-0.3,3.7-0.6,5.5c-0.2,1.1-0.6,2.2-1,3.3c-0.7,2.2-1.8,4.4-2.1,6.7
		c-0.3,2.3-1.4,4.1-2.3,6.1c-0.5,1.2-2.3,2.4-0.5,4c0.1,0.1-0.1,0.8-0.4,1.1c-1.2,1.7-2.6,3.4-3.6,5.2c-0.7,1.3-1.3,2.7-1.6,4.1
		c-0.4,2.2,1.1,4,2,5.8c0.3,0.6,0.9,1.2,1.5,1.4c1.8,0.4,3.6,0.4,5.4,0.7c0.9,0.1,1.8,0.3,2.5,0.8c1.8,1.3,2.1,1.4,3.5-0.2
		c0.9-1.1,1.5-2.4,2.4-3.6c0.2-0.3,0.7-0.3,1.1-0.5c0.6,2.6,1.8,3.7,3.9,3.5c1.1-0.1,2.3-0.1,3.4,0c3.1,0.4,6.1,0.9,9.2,1.2
		c1.4,0.2,2.9,0,4.3,0.2c1.9,0.3,3.8,0.8,5.8,1.1c2.3,0.4,4.3-0.4,5.8-1.3c0.4-1.6,0.7-3,1.2-4.2c0.5-1.1,1.3-2.1,2-3.1
		c0.1,0.1,0.3,0.1,0.4,0.2c0-0.7,0.2-1.7-0.2-2.2c-1.2-1.4-2.5-2.8-4-3.9c-1.6-1.1-3.6-1.7-5.1-2.9c-2.4-2-5.3-1.9-8.1-2.3
		c-1.9-0.3-3.8-0.4-5.6-0.7c-1.1-0.2-2.2-0.8-3.1-1.1c0.7-2.3,1.2-4.3,1.8-6.3c0.4-1.4,0.8-2.8,1.2-4.2c0.2-0.8,0.6-1.6,0.6-2.4
		c0.1-1.6,0-3.2,0.1-4.8c0.1-1.1,0.4-2.1,0.6-3.2c0.2-0.7,0.3-1.3,0.6-1.9c0.7-1.4,1.7-2.6,1.3-4.3c0-0.2,0.2-0.4,0.3-0.6
		c0.5-1.5,1.3-2.9,1.5-4.4c0.4-2.5,0.5-5.1,0.7-7.7c0.1-1.2,0.1-2.3,0-3.5c0-0.6-0.2-1.2-0.5-1.6c-1.4-1.6-0.9-4-2.6-5.4
		c-0.2-0.2-0.1-0.8,0-1.2c0.2-1.1,0.4-2.2,0.6-3.3c0.5-1.9,0.8-3.9,1.5-5.8c0.9-2.1,0.5-3.5-1.5-4.3c0-1.5,0.1-3,0-4.4
		c-0.1-1.4-0.5-2.7-0.8-4.4c1.1-0.1,2.4-0.4,3.6-0.5c3.5-0.3,7-0.4,10.5-0.7c2-0.1,4-0.4,6-0.6c0.8-0.1,1.7-0.2,2.4,0.1
		c2.1,0.8,4.1,1.8,6.2,2.7c0.6,0.2,1.3,0.1,2,0c1.9-0.1,3.8-1,5.4,0.8c0.2,0.2,0.9,0.3,1.1,0.1c1.2-1.1,2.6-1.1,4.1-1.1
		c0.4,0,0.8-0.3,1.3-0.4c1-0.2,2.3-0.9,3-0.6c2.9,1.4,6,0.8,9,0.9c0.2,0,0.4-0.2,0.6-0.2c1.4,0,2.8-0.1,4.2,0c0.7,0.1,1,0.7,1,1.5
		c-0.1,3.1,0.1,6.2-0.1,9.3c-0.1,2.2,0.6,3.9,2.1,5.5c0.6,0.7,1.1,1.9,1,2.9c-0.2,2.6-0.8,5.2-1.1,7.9c-0.1,1.2,0.5,2.4,0.5,3.6
		c0.2,4.5-0.4,9,1.2,13.5c0.9,2.6-0.5,5.6,0.8,8.3c-0.9,1.3-0.6,2.7,0,4c0.1,0.3,0,0.6,0,0.9c-0.4,2.5-0.8,5.1-1.2,7.6
		c-0.2,1.6-0.8,3.4-0.5,4.9c0.5,2.4-2,3.5-2.1,5.5c0,0.1-0.3,0.3-0.5,0.3c-1.1,0.3-2.1,0.6-2.9,0.8c-0.4,0.8-0.7,1.4-0.9,2
		c-1,2.5-2.4,4.9-2,7.8c0.1,0.7,0.1,1.4,0,2.1c-0.1,1.1,0.3,1.7,1.2,2.3c1.6,1,3.3,1.8,5.2,1.8c2.3,0.1,4.7-0.4,7,0.6
		c1.2,0.5,2.5,1.1,3.8,0c0.5-0.4,0.9-0.7,1.4-1.1c0.5-0.3,0.7-0.8,1.6-0.3c2.2,1.2,4.6,0.9,7.1,0.6c1.8-0.2,3.8-0.3,5.6,0
		c2.3,0.3,4.3,1.8,6.7,1.5c1.4-0.2,3,0,4.4,0.2c1,0.2,3.6-0.2,4.3-1c1.7-2,1.3-5.4-0.6-6.7c0.5-0.7,1.4-1.3,1.6-2.1
		c0.3-1.5-1.5-4.1-3.1-4.5c-1.7-0.5-3.4-0.9-5.1-1.3c-0.7-0.2-1.5-0.6-2.2-0.6c-3,0.3-5.3-1.1-7.4-3c-0.4-0.4-1.2-0.5-1.6-0.9
		c-0.4-0.4-0.8-1-0.8-1.4c0.1-1.7,0.4-3.3,0.6-5c0.1-0.4,0.1-0.8,0.2-1.2c0.7-1.8,1.5-3.5,0.8-5.4c-1-2.8,0.1-5.3,0.7-8
		c0.4-1.7,0.3-3.7-0.1-5.3c-0.4-1.5-1.2-2.8-1-4.4c0.2-1.7,0.9-3.6,0.5-5.2c-0.8-2.7-0.3-5.5-0.5-8.2c0-0.3,0.1-0.7-0.1-0.9
		c-1.2-1.6-0.7-3.4-0.3-5c0.3-1.4-0.2-2.3-0.9-3.2c-0.4-0.6-0.8-0.8-0.2-1.7c0.6-0.8,0.7-1.9,0.8-2.9c0.1-0.9,0.2-2.2-0.3-2.7
		c-0.9-0.8-0.8-1.7-1.1-2.6c-0.4-1.1-0.6-2,0-3.1c0.1-0.2-0.1-0.6-0.2-0.9c-0.5-0.9-1.4-1.6-0.5-2.7c0.1-0.2-0.3-0.9-0.5-1.3
		c-0.2-0.5-0.7-1.2-0.6-1.4c0.5-0.6,1.2-1.5,1.9-1.5c3.7-0.3,7.3-0.7,10.8-2c1.3-0.5,2.9-0.4,4.3-0.6c1.5-0.2,2.9-0.4,4.4-0.6
		c1.2-0.2,2.1-0.9,2.2-2.2c0-2.4,0.1-4.7-1.7-7c-1-1.3-1.7-1.7-3.1-1.7c-0.3,0-0.6,0-0.9-0.1c0-1.3-0.3-2.6,0.1-3.6
		c0.7-1.7,1.2-3.3,1.2-5.1c0-0.5,0.3-0.9,0.4-1.4c0.5-1.4,1.6-2.8,0.3-4.4c-0.1-0.2-0.1-0.5,0-0.8c0.2-1.2,0.4-2.4,0.6-3.6
		c0.3-2.9,0.4-5.8,0.7-8.7c0.3-2.6,0.9-5.2,1.2-7.8c0.2-1.3-0.8-2.7,0-4c0.1-0.2,0-0.6-0.1-0.9c-1-3.2-2.8-6.1-1.9-9.7
		c0.3-1.2-0.9-2.9,0.1-4.4c0.1-0.1-0.2-0.4-0.2-0.6c-0.1-0.5-0.3-1.1-0.4-1.6c-0.5-1.9-1-3.9-1.5-5.8c0-0.2-0.3-0.3-0.4-0.3
		c0.8-0.9,1.3-2,2.2-2.6c2-1.5,4.2-2.7,6.3-4.2C237.1,295.6,242.9,235.2,242.1,234.3 M250.4,96.4c0-0.5,0.5-1,0.8-1.5
		c0.5-0.7,1.4-1.2,1.6-1.9c0.4-1.9,1.5-2.1,3.1-1.8c1.2,4,2.6,7.8,4.8,11.2c0.3,0.4,0.7,1.1,0.6,1.5c-0.4,1.7,0.8,2.8,1.5,4.1
		c0.4,0.7,1.1,1.3,1.7,1.9c-1,1.5-2.1,2.9-2.9,4.4c-0.6,1.1-0.9,2.5-1.5,3.7c-1.4,2.4-2.4,2.8-4.9,2.2c-0.2,0-0.4-0.2-0.6-0.2
		c-2.5,0-2.6-0.1-1.6-2.3c0.4-0.8,0.5-1.8,0.7-2.8c0.2-1.9,0.5-3.9,0.4-5.9c0-1.1-0.6-2.3-1.3-3.1c-1.1-1.1-1.3-2.4-1.7-3.7
		C250.1,100.3,250.4,98.4,250.4,96.4 M53.6,116.9c0.4-1.7,1-3.3,1.8-4.9c0.9-1.8,2-3.5,2.9-5.3c0.8-1.5,1.3-3.1,2.3-4.4
		c2.2-3,4.6-5.7,8-7.4c0.9-0.4,1.9-0.7,2.8-1c1.2-0.5,2.1-1.3,2.7-2.6c0.5-1.1,1.7-1.9,2.6-2.9c1.4-1.4,2.7-2.8,4.2-4.1
		c0.5-0.5,1-0.9,1.6-1.2c2.7-1.4,5.4-2.6,8.1-4c0.7-0.4,1.2-1.2,1.8-1.7c0.8-0.6,1.5-1.4,2.4-1.7c3.3-1.2,6.8-2.2,10-3.6
		c2.4-1,4.5-2.6,6.7-3.8c1.4-0.8,3-1.4,4.5-1.9c2.8-0.8,5.7-1.5,8.5-2.2c1.5-0.4,3-0.7,4.6-1c3.3-0.6,6.5-1.2,9.8-1.7
		c0.9-0.1,1.8-0.2,2.7,0c3.2,0.7,6.4,0.7,9.6,0c1.4-0.3,2.9,0.1,4.4,0.3c0.5,0,1,0.2,1.5,0.2c2.7,0,5.3,0,8,0c2,0,4.1,0.1,6.1,0.4
		c0.6,0.1,1.2,0.8,1.8,1.1c1,0.5,2,1.3,3,1.4c3.8,0.3,7.4,1.3,11,2.3c2.4,0.6,4.9,0.9,7.4,1.2c2.1,0.2,4.1,0.1,6.2,0
		c2.8-0.1,5.1,0.9,7.2,2.6c1.5,1.3,3.4,2.1,5.1,3.1c1.1,0.7,2,1.5,3.1,2.2c2.5,1.4,5.1,2.6,7.5,4c1.5,0.9,2.8,2.1,4.2,3
		c2.9,1.9,4.5,5,7,7.2c1.6,1.4,2.6,3.3,4.1,4.7c1.8,1.7,3.5,3.3,4.3,5.8c1,3,2.6,5.8,2.6,9.2c0,2,1.1,4,1.6,6
		c0.4,1.6,0.7,3.1,1.1,4.8c-1.2,0.3-2,0.5-2.9,0.6c-3,0.6-6.3,0.6-9,1.8c-3.9,1.8-8.1,1.9-11.9,3.7c-1.9,0.9-4,1.7-6.1,2.2
		c-1.7,0.4-3.5,0.2-5.2,0.3c-0.7,0-1.5,0-2.1,0.3c-2.8,1.8-6,2.5-9.2,3.1c-2.2,0.3-4.4,0.8-6.6,1.1c-1.7,0.3-3.1,0-4.2-1.9
		c-1.7-3.1-6.8-4.5-10-3.3c-2,0.7-3.8,1.2-5,3.2c-0.9,1.5-2.7,0.9-4.1,0.6c-1.6-0.3-3.2-0.9-4.8-1.3c-0.8-0.2-1.6-0.1-2.3-0.2
		c-0.3,0-0.8,0.1-0.9,0c-1.3-1.2-2.9-0.7-4.4-0.8c-3.2,0-6.4,0-9.5,0.1c-0.7,0-1.3,0.4-2,0.5c-1.7,0.4-3.3,0.9-5,1.3
		c-0.5,0.1-0.9,0.3-1.4,0.5c-1.4-4.1-5.1-5.5-8.7-6.1c-5.3-1-9.1,1.8-11.5,6.5c-2.7-0.9-2.7-0.9-3.2,1.1c-2.8,0-5.6-0.2-8.3,0
		c-6,0.4-11.9,1-17.8,1.4c-2.2,0.2-4.3,0.3-6.5,0.4c-4,0.2-7.9,0.4-11.8,0.6c-1.2,0.1-2.4-0.1-3.5,0.2c-2.9,0.7-5.7,0-8.5-0.5
		c-3.9-0.7-7.7-1-11.6-0.7c-0.8,0.1-1.7-0.2-2.2-0.3c0.3-1.2,0.6-2.2,0.9-3.2c0.2-0.5,0.3-1.2,0.7-1.5c1.3-0.9,1.2-2.1,1.2-3.5
		c0-0.6,0.3-1.1,0.5-1.7c0.3-0.8,0.6-1.6,0.8-2.4C52.8,120.8,53,118.8,53.6,116.9 M182.2,131.7c1.5-1,2.9-0.8,4.3,0.5
		c0.3,0.2,0.9,0.5,1.1,0.3c1.4-1.1,2.2,0,2.6,0.9c0.9,2.3,0.4,4.9-2.4,6.1c-0.8,0.3-1.5,0.8-2.1,1.5c-1.6,1.7-3.4,1.9-5.3,0.5
		c-0.6-0.4-1.3-0.8-2-1.1c-1.7-0.9-0.7-2.3-0.8-3.3c0.9-0.7,1.5-1.3,2.2-1.8c0.8-0.6,1.5-1.3,2.3-1.9
		C182.9,132.9,182.7,132.3,182.2,131.7 M138.6,134.7c-1,1.4-2.1,2.8-3.4,4c-1.9,1.8-4,3.6-6.9,3.7c-3.7,0-3.9-1.4-5.2-4.3
		c-1.1-2.6,0.5-4.3,2.1-5.9c0.4-0.4,1.3-0.2,1.9-0.4c1.3-0.4,2.5-0.9,3.7-1.5c3.2-1.5,6.6-0.7,8.2,2.5
		C139.3,133.2,139,134.2,138.6,134.7 M39.5,128.3c-0.3-1.6-2.6-4-4.2-4.3c-2.3-0.4-3.4-1.1-5.3-2.9c0.4-0.9,0.7-1.8,1.2-2.5
		c0.2-0.3,0.7-0.4,1-0.5c1-0.4,2-0.8,2.9-1.2c1.5-0.7,1.5-1.6,0.5-2.8c-0.2-0.2-0.1-0.6-0.1-0.8c1.4-0.3,2.6-0.6,3.8-0.9
		c1.3-0.4,1.6-1.5,1-2.7c-0.5-1.1-0.9-2.2-1.4-3.6c-0.1,0-0.6,0-1-0.2c-0.2-0.1-0.3-0.5-0.5-0.8c0.3-0.1,0.7-0.4,0.8-0.3
		c1.3,1.1,2.4-0.3,3.5-0.1c0.2-0.9,0.2-1.8,0.5-2.5c0.5-1,1.4-1.3,2.7-1.4c1.9-0.1,3.7,0.1,5.5,0.7c0.4,0.1,0.6,0.5,0.9,0.7
		c-1,1.9-2.1,3.7-3.1,5.5c-1,1.8-2.1,3.5-3.1,5.3c-0.2,0.3-0.2,0.8-0.1,1.1c1.1,2.4-0.9,4.4-0.8,6.8c0.1,1.3-1.3,2.7-1.7,4.2
		c-0.5,1.5-0.7,3.1-1,4.8C40.4,130.1,39.8,129.7,39.5,128.3 M114.3,211.3c-5.1-0.1-10.2-0.7-15.3-1.3c-1.7-0.2-3.4-1-5.1-1.5
		c-2.2-0.6-4.5-0.9-6.7-1.7c-3.4-1.3-7.3-1.3-10.5-3.4c-3.4-2.3-7.4-3.9-10.4-6.7c-2.5-2.2-5.2-4.3-7.3-7.1c-1.6-2.1-3.9-3.7-6-5.4
		c-1.6-1.3-2.8-2.8-3.6-4.7c-0.8-1.7-2.1-3.2-3.5-4.6c-1.6-1.6-2.7-3.3-2.8-5.7c-0.1-2.6-0.4-5.3-0.7-7.9c0-0.3-0.4-0.6-0.5-0.8
		c1.7-1.4,2.1-3.9,1.4-5.8c-0.2-0.7,0.4-1.7,0.7-2.7c-1.8-1.8-4.4-2.7-7.2-2.5c-1.1,0.1-2.3,1.1-3.2,1.9c-1.7,1.3-3.8,1.4-4.8-0.2
		c-0.3-0.4-0.3-1-0.4-1.5c-0.1-0.5-0.3-1-0.5-1.6c-0.1-0.3-0.3-0.7-0.1-0.9c1.1-1.2,0.9-2.6,0.6-4.1c-0.1-0.5,0.4-1.1,0.7-1.6
		c0.8,0.5,1.4,1,2,1.1c0.5,0.1,1.4-0.1,1.5-0.3c0.4-1.7,2-1.6,3.1-2.3c2.1-1.2,4.3-1.9,6.7-1c0,0,0.1,0,0.2,0
		c2.8-1.4,5.9,0.6,8.7-0.7c0.7-0.3,1.6,0,2.5,0.1c3.7,0.3,7.4,0.8,11.1,1c2.6,0.2,5.2,0.2,7.8,0.2c1,0,2-0.7,3-0.8
		c5-0.2,10-0.3,15.1-0.5c1.2,0,2.4-0.1,3.6-0.2c1.9-0.1,3.8-0.1,5.7-0.4c1.8-0.3,3.6-0.8,5.5-1.2c0.3-0.1,0.6-0.1,0.9-0.1
		c3.9-0.2,7.9-0.4,11.9-0.7c0.4,0,0.7-0.3,1.3-0.6c0.4,1.1,1.1,2.3,1.3,3.5c0.4,3.1,2.3,5,5,5.9c1.2,0.4,2.8-0.2,4.1-0.5
		c1.2-0.3,2.4-0.9,3.5-1.5c0.4-0.2,0.8-0.7,0.8-1.1c0-1.4,1.2-1.6,2.1-1.8c1.9-0.4,3.8-1.8,4.3-3.6c0.2-0.6,0.5-1.1,0.9-1.8
		c0.8,2.8,3.3,2.7,5.3,1.6c0.5-0.3,1.1-0.5,1.6-0.7c2.3-0.8,4.6-1.5,6.8-2.3c0.1,0,0.3-0.2,0.4-0.2c2.8,0.1,5.5-0.1,8.2,0.3
		c3.1,0.5,6.2,1.4,9.3,2.3c0.7,0.2,1.2,1,1.8,1.5c-0.3,0.3-0.7,0.5-0.9,0.9c-0.2,0.6-0.5,1.4-0.2,1.9c0.8,1.4,1.9,2.6,2.9,3.9
		c1.1,1.5,2.4,2.2,4.3,1.7c0.3-0.1,0.6,0.1,0.9,0.2c2.6,1.8,4.4-0.2,6.3-1.3c1.9-1.1,3-2.9,3.5-5.1c0.3-1.5,1.9-1.7,3.2-1.8
		c1.4-0.1,2.8,0.1,4.1,0c2.9-0.3,5.9-0.5,8.7-1.3c3.8-1.1,7.4-2.7,11-4.1c1-0.4,2.1-0.4,3.1-0.8c2.3-0.8,4.6-1.9,6.9-2.6
		c2.3-0.8,4.7-1.4,7.1-2c3.3-0.8,6.6-1.6,9.7-2.9c2.1-0.9,3.1-0.8,3.5,0.7c1.2,0.7,2.1,1.4,3.1,1.8c0.7,0.3,1.6,0.7,2.4,0.7
		c1.5,0,2.9-0.3,4.3-0.4c1.3,2,0.3,3.4-0.8,4.7c-0.7,0.8-1.3,1.6-1.8,2.5c-0.9,1.7-2.5,1.9-4,2.5c-1,0.4-2.1,0.8-2.9,1.4
		c-1,0.7-2.1,1.3-1.1,3.2c0.6,1.1-0.2,2.9-0.3,4.4c0,0.2-0.1,0.4-0.1,0.6c-0.2,1-0.6,2.1-0.6,3.1c0,1.1,0.6,2.1,0.8,3.2
		c0.1,0.8,0.2,1.7,0,2.5c-0.6,1.9-1.4,3.7-2.1,5.5c-0.4,1.1-0.9,2.2-1.3,3.3c-0.5,1.5-1.1,3.1-1.2,4.7c-0.2,1.4-0.2,2.5-1.3,3.6
		c-1.1,1.3-1.6,3-2.2,4.6c-0.8,2.2-2.5,4-3.8,6c-1.1,1.7-2.3,3.3-3.4,5c-0.3,0.5-0.2,1.3-0.6,1.7c-1.2,1.4-2.5,2.7-3.8,3.9
		c-1.5,1.3-3.2,2.4-4.8,3.7c-2,1.7-3.9,3.6-6.1,5.1c-0.9,0.6-2.6,1.1-3.5,0.7c-3.1-1.2-5.5,0.1-8.1,1.5c-1.9,1-3.9,1.9-5.9,2.3
		c-2.1,0.4-4.4,0-6.5,0.2c-1.5,0.1-3,0.6-4.4,0.9c-2,0.5-3.8,1.5-6.1,1.3c-1.4-0.1-3.1,0.4-4.1,1.3c-2,1.7-4.5,1.6-6.7,2.2
		c-4.3,1-8.7,2.3-13.3,2c-1.2-0.1-1.9,0.1-2.3,1.6c-0.8,3-6.2,6-9.2,5.3c-0.5-0.1-1.2-0.6-1.4-1.1c-0.4-1-0.6-2-0.8-3.1
		c-0.3-1.7-1.8-1.6-2.9-2c-2-0.8-4-1.3-6-2.3c-2.1-1-4.8-1.1-7,0.2c-1.3,0.7-2.5,0.8-3.8,0.4C122.2,211.6,118.3,211.4,114.3,211.3
		 M166.6,219.5c-2.9,1.1-5.8,2.3-9.1,3.6c0.2-0.7,0.1-1.2,0.3-1.3c1.6-1,3.2-2,4.8-2.8c0.4-0.2,1,0,1.5,0c0.8,0,1.6,0,2.3,0
		C166.6,219.2,166.6,219.3,166.6,219.5 M146.4,225.5c0,0.2,0,0.4,0,0.6c-0.8,0-1.6,0-2.4,0c-0.4,0-1-0.2-1.2,0
		c-2.2,1.5-3.9-0.7-5.9-0.9c-0.8-0.1-1.7-1.5-2.1-2.6c-0.4-1-0.1-2.2-0.1-3.7c1.7-0.3,3.5-0.7,5.4-0.9c0.3,0,0.8,0.6,0.9,1
		c0.6,2.7,2,4.7,4.6,6C145.9,225.2,146.2,225.3,146.4,225.5 M128.9,218.4c-0.9,0.5-1.9,1.1-2.8,1.6c-0.1-0.3-0.3-0.6-0.4-0.8
		c0.9-0.5,1.7-1.1,2.6-1.5C128.3,217.7,128.7,218.2,128.9,218.4 M123.8,220.4c0,0.9,0.1,1.5,0,1.5c-1.3,0.4-2.6,0.7-4.3,1.1
		C120.4,220.4,122.6,222.1,123.8,220.4 M125.4,459.2c0.3,0.1,0.7,0.3,1,0.4c1.1,0.2,2.3,0.4,3.4,0.4c2.2-0.1,4.4-0.2,6.2,1.4
		c0.4,0.4,1.3,0.2,1.7,0.6c1.3,1,2.6,2,3.7,3.2c0.4,0.4,0.2,1.5,0,2.2c-0.3,1.3-0.8,2.6-1.3,3.9c-5.5,1.2-11.2,0.8-16.9,0.8
		c-0.5,0-1-0.4-1.5-0.5c-1.7-0.6-3.4-1.1-5.1-1.7c-0.1,0.2-0.3,0.3-0.4,0.5c-0.2-1.3-0.4-2.6-0.7-3.9c-0.3-1.2-0.6-2.6-2.1-2.5
		c-1.2,0-2.7,0.3-3,1.9c0,0.2-0.2,0.5-0.4,0.6c-1.5,1-2.2,2.7-3.4,3.9c-0.2,0.2-0.5,0.5-0.8,0.5c-2.7,0.2-5.2-0.1-7.1-2.5
		c-1-1.3-1.1-1.9,0-3.3c2-2.3,3.9-4.7,5.8-7c0.2-0.3,0.2-0.7,0.3-1c1-0.3,1.9-0.7,2.9-0.8c0.8-0.1,1.7,0.4,2.5,0.5
		c1.1,0.1,2.5,0.5,3.3,0c2-1.2,3.6,0,5.3,0.5C120.9,457.7,123.1,458.5,125.4,459.2 M123.2,410.1c0,1.8-0.1,3.6-0.1,5.4
		c0,0.6,0.5,1.1,0.5,1.7c-0.1,1.2-0.4,2.4-0.6,3.6c-0.1,0.6-0.4,1.2-0.4,1.8c0,2.2-0.4,4.2-1.7,6.1c-0.3,0.5-0.5,1.2-0.6,1.9
		c-0.1,2-1.8,3.5-1.7,5.6c0.1,2.5-0.4,5.1-0.6,7.6c-0.2,1.9-0.3,3.9-0.6,5.8c-0.1,0.7-0.5,1.3-0.8,2c-3.3,0.7-6.6,1.3-9.8,2
		c-0.1-0.1-0.2-0.2-0.3-0.3c1.1-1.7,2.3-3.3,3.2-5.1c0.5-1,0.4-2.2,0.8-3.3c0.7-2.4,1.5-4.8,2.2-7.1c0.2-0.5,0.3-1,0.3-1.5
		c0-3,0-6,0-8.9c0-0.5-0.3-1.1-0.4-1.6c-0.1-0.3-0.2-0.6-0.2-0.9c0.2-1.6,0.3-3.2,0.6-4.7c0.3-1.7,0.8-3.4,1.1-5.2
		c0.1-0.7,0.3-1.5,0-2c-0.8-1.3-0.3-2.4-0.1-3.6c0.2-1.7-0.1-3.5,0.2-5.2c0.1-0.4-0.8-1.2-1.4-1.4c-0.6-0.3-1.4-0.1-2.5-0.2
		c0.3-0.7,0.5-1.2,0.8-1.6c1.1-1.8,0.6-3.7,0.6-5.6c0-2.3,0-4.5,1.8-6.2c0.2-0.2,0.2-0.8,0.2-1.2c-0.1-2.1-0.2-4.1-0.3-6.2
		c1.6-0.2,3.3-0.4,5.1-0.5c0.3,0,0.9,0.7,0.9,1c-0.1,2.6,0.4,5,1.9,7.2c0.2,0.3,0.2,0.9,0,1.2c-0.9,2-1,3.9,0,5.9
		c0.1,0.3,0,0.7,0,1.1c-0.2,1.1-0.4,2.2-0.6,3.3c-0.3,2.5,0.6,4.5,2.4,6.2c0.5,0.5,1.2,1.1,0.3,1.9
		C123.1,409,123.2,409.6,123.2,410.1 M211.4,459.7c2.7,1.4,5.5,2.7,8.3,3.9c0.5,0.2,1.2,0,1.7,0.1c1.6,0.2,3.4,0.3,4.9,0.7
		c1.8,0.6,2.4,3.9,1.2,5.7c-0.4,0.6-0.7,1.2-1.2,1.9c-1.7-2-3.9-2.6-6.4-2.7c-1.8-0.1-3.5-0.7-5.3-1c-0.4-0.1-0.9-0.2-1.3-0.2
		c-1.9,0.3-3.8,0.8-5.7,1.1c-1.5,0.3-3,0.2-4.2-1c-1.7-1.8-3.9-1.6-5.9-1.3c-0.6,0.1-1,1.3-1.4,2c0.1,0.1,0.2,0.3,0.3,0.4h-9.2
		c0.3-1.7,0.7-3.3,0.9-4.4c1.4-1.3,2.6-2.2,3.7-3.3c2.3-2.2,3.8-2.4,6.6-0.8c0.9,0.5,3.6,0.4,4.2-0.4c0.9-1.3,2.5-1.2,3.7-1.9
		C208.5,457.4,209.8,458.9,211.4,459.7 M197.8,442.4c0-0.6-0.1-1.2,0-1.8c0.2-1.8,0.5-3.6,0.7-5.4c0.2-1.1,0.3-2.2,0.7-3.2
		c1.4-2.9,1.1-5.8,0.7-8.8c-0.4-2.6,0.1-5.4,0-8.1c-0.1-2.2-0.4-4.3-0.6-6.5c-0.1-1.1,0.3-2.1,0.3-3.2c0-0.7-0.2-1.4-0.2-2.2
		c-0.1-2.5-0.2-5.1-0.3-7.6c-0.1-2.6-1.2-4.1-3.6-4.9c-1.6-0.6-2.1-1.5-1.5-3.1c0.8-2.2,1.5-4.5,2.2-6.7c0.1-0.2,0-0.5-0.1-0.8
		c-0.6-1.4-1.2-2.7-1.8-4.3c1.9,1.5,3.5,2.8,5.2,4.1c0.1,0.1,0.1,0.2,0.2,0.2c2.4,0.3,1.9,2.8,2.9,4.1c0.2,0.3-0.1,1-0.1,1.5
		c0.1,1.5,0.3,2.9,0.5,4.4c0.1,0.5,0.3,0.9,0.2,1.4c-0.3,2.2,0.8,4.4-0.3,6.5c-0.1,0.2,0.2,0.6,0.3,0.9c0.5,1.5,1.2,3,1.5,4.5
		c0.3,1.5,0,3,0.1,4.5c0.1,1.3,0.5,2.6,0.6,3.8c0.1,0.8,0,1.7-0.3,2.5c-0.9,2.3-1.1,4.6-0.3,7c0.1,0.2,0,0.5,0,0.8
		c0.3,3.2-0.2,6.3,0.8,9.5c0.8,2.9-0.1,6.3-0.2,9.5c0,1.1-0.4,2.2-0.2,3.1c0.7,2.5-0.4,4.6-0.8,6.9c-0.2,0.8-0.2,1.6-0.5,2.3
		c-0.3,0.6-0.8,1.3-1.4,1.5c-1.4,0.6-2.8,1-4.3,1.3c-0.8,0.2-1.7,0-2.5-0.2c-0.7-0.2-1.3-0.6-2.2-0.9c0.6-1.4,1.1-2.8,1.7-4.2
		c0.8-2,1.6-4,2.3-6C197.9,443.9,197.8,443.1,197.8,442.4 M235.7,286c-1.7,1.8-3.5,3.6-5.2,5.4c-0.3,0.3-0.4,0.9-0.7,1.3
		c-0.2,0.4-0.5,0.6-0.9,1.1c0.5-3.8,1.1-7.1,0.6-10.6c0.4-0.8,1.8-1.4,0.4-2.7c-0.1-0.1-0.1-0.4,0-0.6c1-2.6-1-4.9-0.7-7.4
		c0-0.3-0.6-0.9-1.1-1.1c-1.9-1-7,0.8-8.1,2.8c-0.8,1.5,0.2,2.3,0.5,3.4c0.1,0.2,0.4,0.4,0.4,0.6c0.2,2.3,0.7,4.6,0.6,6.8
		c-0.1,2.5-0.9,4.9-1.1,7.3c-0.1,1.8,0.3,3.7,0.4,5.5c0,1.4,0.7,2.9-0.7,4c-0.3,0.2-0.4,0.7-0.6,1.1c0.1,0.1,0.2,0.2,0.3,0.3
		c0.5-0.1,1.1-0.3,1.6-0.4c0.3-0.1,0.6-0.1,1-0.1c0,0.3,0,0.6-0.1,0.9c-0.9,2.4-1.9,4.8-2.6,7.2c-0.6,2.3-0.9,4.7-1.4,7.1
		c-0.2,1.3-0.6,2.6-0.6,3.9c0.1,1.4,0.7,2.7,0.9,4.1c0.3,1.5,1.5,2.4,1.9,3.6c0.7,2.1,0.7,4.6,0.8,6.9c0,1.1-0.4,2.2-0.5,3.3
		c-0.3,3-0.2,6-0.7,8.9c-0.5,2.7-0.7,5.5-1.4,8.1c-0.5,1.8-0.9,3.7-1.6,5.5c-0.6,1.8-0.6,3.8-0.9,5.8c-4.3,1.6-8.8,0.4-13.2,0.8
		c-3.7,0.4-7.4,0.8-11.2,1.1c-1.1,0.1-2.2-0.3-3.2-0.5c-2.1-0.4-4.3-0.8-6.4-1.3c-1.5-0.3-2.9-0.8-4.4-1.1c-1.6-0.3-3.2-0.6-4.9-0.6
		c-2.5,0-5.1-0.7-7.5,0.5c-0.2,0.1-0.5,0.1-0.8,0c-3.9-0.2-7.8,0.5-11.6,1.3c-0.2,0-0.5,0-0.6,0.2c-1.9,2.7-4.6,1.4-7.1,1.4
		c-2.5,0-5.1,0-7.6,0.1c-0.9,0-1.8,0.2-2.7,0.2c-5.2,0-10.3-0.1-15.5,0.1c-2.6,0.1-5.2,0.7-7.8,1c-4.8,0.6-9.3,2.7-14.3,2.5
		c-3-0.1-6.1-0.4-9.1-0.4c-1.2,0-2.3,0.5-3.5,0.7c-1.5-6.4-0.9-12.5-0.9-18.7c0-1.4,0.8-2.8,1.1-4.2c0.1-0.3,0.1-0.6,0.1-0.9
		c0-1.6-0.2-3.3,1.2-4.7c0.3-0.2,0.1-0.9,0.1-1.4c0.2-1.6,0.4-3.2,0.6-4.8c0.1-1-0.3-2.1,0.1-3c0.9-2.5,0.9-5,0.5-7.5
		c-0.9-5.5,0-11-0.7-16.3c-0.5-3.4-0.1-6.8-0.5-10.2c-0.4-2.9,1-5.2,2.2-7.6c0.2-0.3,0.3-0.7,0.4-1.1c0.2-1.9,0.2-3.9,0.7-5.7
		c0.6-1.8,0.7-3.9,2.1-5.5c0.3-0.3,0.2-1.5-0.1-1.7c-1-0.6-2.1-1.2-3.2-1.3c-1-0.1-2.1,0.5-3.1,0.9c-1.2,0.5-1.9,1.3-1.2,2.9
		c0.3,0.7-0.2,1.8-0.4,2.8c-0.1,0.7-0.3,1.3-0.5,2c-0.6,2.4-1.2,4.9-1.8,7.3c-0.2,1-0.6,1.9-0.7,2.9c-0.2,2.6-0.4,5.2-0.5,7.8
		c-1.6,0.3-2-0.9-2.7-1.6c-0.8-0.9-1.4-1.9-2.2-2.7c-1-0.9-2.2-1.7-3.2-2.5c-1.3-1.1-2.5-2.3-3.8-3.5c-0.2-0.2-0.3-0.5-0.4-0.8
		c-0.2-1.1-0.4-2.1-0.6-3.2c0-0.1,0-0.1,0-0.2c1.2-1.7-0.9-3.8,0.5-5.6c0.4-0.5-0.2-1.8-0.3-2.8c-0.2-2.2-0.8-4.5,0.6-6.5
		c0.7-1.1,0.7-2,0.1-3.1c-0.2-0.3-0.2-0.7-0.1-1c0.2-1.1,0.5-2.1,0.5-3.2c0.1-2.5,1-4.3,3.4-5.4c1-0.5,1.6-1.7,2.3-2.7
		c0.3-0.4,0.4-1.1,0.7-1.5c1.9-2.4,3.7-4.8,5.8-7c1.5-1.7,3.3-3,4.7-4.7c1.3-1.5,2.4-3.2,3-5.2c0.6-1.9,1.4-4,3.9-4.7
		c2.1-0.6,3.3-2.4,4.9-3.6c1.6-1.3,3.4-1.9,5.6-1.6c0.6,0.1,1.3,0,1.8-0.3c0.9-0.5,1.7-0.5,2.4,0.1c0.3,0.3,11.8-6.8,11.8-6.8
		c-0.2-1.9,10.8-5.4,11.7-3.8c5.3,9.1,17.4,8.1,17.5,7c0.2-2.3,4.2-3.4,3.2-5.3c-0.3-0.6,1.2,2,7,4.1c5.6,1.9,14.3-8.5,18.4-9.4
		c3.5-0.8,15.5-3.5,15.3-3.8c-0.1-0.2,0.7-1,1-1c1.8,0.4,3.6,0.8,5.4,1.5c2.2,0.8,4.2,2,6.4,2.9c1.3,0.5,2.7,0.7,4.1,1.1
		c2.7,0.7,5.3,1.7,8.1,2.2c2.6,0.5,3.2,2.9,4.9,4.2c2.9,2.2,5.6,4.8,8.4,7.1c0.8,0.7,2,1,3.2,1.5c-0.1,0.2-0.2,0.5-0.3,0.9
		c-0.1,0.4-0.3,1-0.2,1c1.6,0.7,1.5,2.1,1.9,3.4c0.2,0.7,1.4,1.1,2.1,1.7c-1.2,1.2-1.5,14.1-0.2,16.6c0.5,1.1-2.3,5.9-1.9,7
		c0.4,1.3,0,6.5,0.4,7.8c0.8,2.8,0.1,10.3,0.5,11.3C236,284.9,236,285.7,235.7,286"/>
	<path class="st3" d="M89.2,227.8l3.5-3.5l15.2,4.7l11.4,6.7l13.2,7l6.7,8.2l7.3,13.7h2.6l5.6-11.7l11.4-11.7l18.7-8.2l23.7-8.5
		l1.8,5.8l-8.5,3.2l-15.2,5.3l-10.8,5.3l-9.4,6.4L155,263.4l-2.9,9.6l1.2,9.6l6.1,9.9l9.9,5.3l21.6,5.3l17.2,0.9l17.8-2.6l20.8-7
		c0,0,15.8-5.3,16.7-5.6c0.9-0.3,17.8-8.2,17.8-8.2l19.6-7l0.9,4.1l-11.4,6.7l-17.5,7l-12,5.3l-11.1,5.3l-19,5.3l-15.2,2.3
		l-19.9,0.6l-14.3-1.8l-17-4.7l-8.2-5.3l-7.6-9.9l-5.8-12.3l-6.7-14.6l-7.9-10.5L115.3,240L98,233.6L89.2,227.8z"/>
</g>
<polygon class="st25" points="24.1,153.8 31.4,151.8 33.7,148.5 32.2,145.6 23.5,147.4 17.6,151.2 17,158.5 21.1,175.4 27.9,193 
	34.6,204.4 44.8,212.3 57.4,220.5 88.4,230.4 91.6,224.3 70.2,217.2 52.7,209.3 41.3,199.4 33.7,187.7 26.1,172.2 23.2,159.6 "/>
<polygon class="st25" points="208.2,225.1 210.6,230.1 222.5,224.8 235.1,217.5 247.4,203.2 261.7,180.4 266.4,161.7 269.3,148.8 
	267,126.6 261.1,128.1 264.4,139.8 263.2,154.4 258.2,170.5 249.7,191.5 240.1,204.7 226.9,215.8 215.5,221.3 "/>
<g>
	<path class="st25" d="M300.6,265.5l6.1-4.1l6.7,12.6l2.3,7.6l-8.2,1.2c0,0-5.6-5-5.6-6.1c0-1.2-2-6.7-2-6.7L300.6,265.5z"/>
</g>
<polygon class="st2" points="233.4,239.7 238,243.3 243.6,250.9 242.1,268.7 239.2,269.3 234.8,262.6 228.1,247.3 "/>
<g>
	<path d="M318.1,275.4c-0.4-0.2-0.8-0.6-1-1c-0.7-1.5-1.3-3-2-4.5c-1.4-2.7-3.2-5.2-2.6-8.5c0.2-0.8,0.1-1.7,0.3-2.6
		c0.3-1.5-1.1-4.8-2.6-5c-4-0.7-8.1-1.3-12.2-1.7c-0.9-0.1-2.1,0.4-2.9,1c-3.9,3-7.7,6-11.3,8.8c-3.1-0.4-6-0.8-9-1.1
		c-5.2-0.4-10-1.5-12.8-6.7c-0.4-0.7-1.4-1.2-2.2-1.6c-1.3-0.7-3.1-0.9-3.9-1.9c-2.5-2.9-6-5.1-6.9-9.3c-0.1-0.4-0.7-0.8-1.1-1.2
		c-1.4-1.2-3-2.1-3.3-4.2c-0.1-0.5-0.8-1-1.3-1.5c-0.6-0.6-1.5-1-2-1.6c-1.7-2.3-3.1-4.7-4.8-6.9c-1.3-1.7-2.9-3.1-4.7-4.9
		c2.8-1,4.1-3,5.8-5c2.3-2.7,5.3-4.9,7.9-7.3c0.4-0.4,0.6-1.1,0.9-1.5c1.4-1.8,2.8-3.6,4.2-5.5c1.4-1.9,2.7-3.8,3.9-5.8
		c0.9-1.5,1.6-3.1,2.4-4.6c1-1.7,2.4-3.3,3.3-5.1c1.1-2.2,2.1-4.6,3-6.9c1.1-2.7,2.2-5.5,3-8.3c1.2-4.8,2.3-9.6,3-14.4
		c0.4-2.9,2.1-5.4,1.5-8.7c-0.6-3.7,0-7.5-0.1-11.2c-0.1-2.5-0.5-5.1-0.7-7.6c-0.1-1.1-0.4-2.2-0.4-3.3c0-1.5-0.6-2.4-2.1-2.5
		c-1.5-0.1-3,0.1-4.5,0.1c-2.2,0-4.5,0.1-6.7,0.1c-4.3,0-6.3,3.4-4.2,7.1c0.9,1.5,1.9,2.5,3.9,1.5c0.6-0.3,1.6,0.1,2.2,0.4
		c0.8,0.4,1.3,1.5,2.1,1.7c1.4,0.4,1.8,1.3,1.8,2.5c0.1,3.2,0.7,6.5,0.3,9.6c-0.5,3.2,0.1,6.6-1.8,9.8c-1.4,2.4-1.3,5.6-2,8.5
		c-0.1,0.4-0.4,0.8-0.6,1.2c-1.3,2.8-2.7,5.6-4,8.5c-0.1,0.1-0.1,0.3,0,0.5c0.6,3.7-1.4,6.8-2.8,9.7c-2.3,4.9-5.5,9.3-8.4,13.9
		c-0.3,0.6-1,1.3-1.5,1.3c-2.2,0.1-2.7,1.7-3.4,3.2c-0.3,0.6-0.5,1.3-1,1.8c-2.2,2.2-4.3,4.4-6.7,6.4c-2.3,1.8-4.7,3.5-7.3,4.9
		c-2.7,1.4-5.6,2.4-8.3,3.6c-3.5,1.6-7,3.4-10.5,5c-3.7,1.6-7.4,2.9-11.1,4.2c-1.8,0.7-3.5,1.3-5.3,1.9c-2.8,0.9-5.8,1.6-8.5,2.7
		c-2.5,1-4.9,2.4-7.2,3.7c-4.7,2.7-9.9,4.7-13.5,9c-2.5,3-4.9,6.1-7.1,9.4c-1.4,2.1-2.3,4.4-3.6,7c-2-3.3-3.7-6.3-5.5-9.3
		c-2-3.3-3.9-6.7-5.8-10c-0.3-0.5-0.7-1.1-1.2-1.4c-2.4-1.5-4.9-3-7.4-4.4c-3-1.7-6.1-3.2-9.1-5c-1.8-1.1-3.5-2.5-5.3-3.5
		c-2-1.1-4.1-2.1-6.3-2.7c-3.4-1-6.8-1.7-10.2-2.7c-3.8-1.1-7.4-2.5-11.2-3.7c-3.2-1-6.5-1.7-9.6-2.7c-3.2-1-6.2-2.3-9.3-3.5
		c-3.1-1.2-6.4-1.9-9.1-3.6c-3.7-2.3-7-5.3-10.4-8c-0.7-0.6-1-1.6-1.7-2c-3.2-1.8-5.2-4.7-7.1-7.6c-1.7-2.8-3.4-5.6-5-8.4
		c-0.4-0.6-0.7-1.3-1-2c-0.6-1.7-1.1-3.5-1.7-5.2c-1-2.6-2.4-5.1-3.2-7.7c-1-3.1-1.7-6.3-2.3-9.5c-0.2-1.3-0.3-3.2,0.4-3.8
		c1.6-1.3,3.7-2,5.7-2.7c1-0.4,2.6-0.1,3.2-0.8c0.8-0.8,1.1-2.3,1.3-3.5c0.3-2.5-2.4-5.8-4.1-5c-2.8,1.4-5.8,0.8-8.5,1.8
		c-1.2,0.4-2.4,0.9-3.5,1.5c-1,0.6-1.9,1.3-2.7,2.1c-0.5,0.6-0.6,1.6-1.1,2.2c-1.4,1.5-1.4,3.1-1,4.9c1.1,5.4,3.4,10.4,4,15.9
		c0.5,3.8,2,7.4,3.3,11c1.2,3.3,2.8,6.5,4.3,9.7c1.7,3.5,3.3,7.2,5.6,10.3c2.1,2.9,5,5.3,7.7,7.7c1.2,1.1,3.2,1.3,4.4,2.3
		c3.1,2.7,6.1,5.4,10.1,6.8c3.4,1.2,6.5,2.9,9.9,4.1c4.8,1.7,9.7,3.1,14.5,4.7c5.4,1.7,10.7,3.5,16,5.3c1.7,0.6,3.3,1.4,5,1.9
		c1.2,0.4,2.6,0.5,3.8,0.9c1.5,0.5,3.1,1,4.5,1.9c2.4,1.5,5.9,1.1,7.4,4.3c0.3,0.6,1.4,0.8,2.1,1.1c0.6,0.3,1.4,0.5,1.9,1
		c2.3,2.1,4.3,4.4,6.7,6.3c4.3,3.2,7.1,7.5,9.4,12.2c1.3,2.6,2.1,5.5,3.6,8c1.8,3.1,3.3,6.1,3.5,9.7c0.1,1.2,0.5,3.1,1.3,3.5
		c2.5,1.2,2.9,3.8,4.4,5.6c1.7,2.2,3.6,4.3,5.3,6.5c4.3,5.4,9.9,8.6,16.5,10.3c1.5,0.4,3,0.4,4.5,0.7c4.8,1.2,9.6,2.5,14.3,3.7
		c1,0.3,2.1,0.4,3.1,0.4c4-0.2,8.1-0.5,12.1-0.7c1.8,0,3.6,0.5,5.4,0.5c3.7-0.1,7.4-0.4,11.2-0.6c0.1,1.9,0.4,4.1,0.3,6.2
		c-0.2,3.3,0.1,3.7,3.6,3.2c-0.2,0.6-0.6,1.2-0.5,1.7c0.1,0.7,0.5,1.5,1,1.8c0.4,0.3,1.6,0.1,1.9-0.3c0.8-1.3,1.5-2.7,1.9-4.2
		c0.4-1.4,0.5-3,0.8-4.4c0.3-1.7,0.6-3.5,1.1-5.2c0.2-0.6,0.8-1.2,1.4-1.4c4.1-1.3,8.2-2.5,12.4-3.8c1.7-0.5,3.5-1,5.1-1.7
		c3.6-1.7,7.2-3.8,10.8-5.5c1.3-0.6,3.3-1.4,4.4-0.9c3.1,1.5,6.1,1.2,9.3,0.9c0.9-0.1,1.8-0.2,2.7-0.3c1.5-0.2,3-0.4,4.4-0.7
		c0.9-0.2,1.8-0.9,2.7-1.2c2.9-1,5.8-1.9,8.8-2.8c0.4-0.1,0.9-0.1,1.3,0c3.7,1.6,7.7,1.8,11.4,0.8c2.2-0.6,4.1-2.3,6-3.8
		c0.9-0.7,1.4-1.9,2-2.9c0.6-1,0.9-2,2.6-1.6c2,0.5,3.5-1.2,3.2-3.2c-0.1-0.3,0-0.7,0.2-1C321.1,278.9,320.6,276.8,318.1,275.4
		 M303.5,260.1c-0.7,0.6-1.2,1.2-1.8,1.5c-2.6,1.4-3.4,4-2.9,6.4c0.6,2.7-1.1,3.6-2.6,4.6c-1.7,1.1-3.7,2-5.7,2.6
		c-0.7,0.2-1.7-0.5-2.9-1c3.4-3.2-0.8-3.9-1.3-5.8C289.1,264.2,298.2,257.8,303.5,260.1 M236.8,242.4c2.3,3.1,5.3,5.6,7.9,8.3
		c0.7,0.7,1.6,1.1,2,1.9c2,3.9,6.3,5.1,9.2,7.9c1.8,1.7,4.5,2.5,6.8,3.7c0.6,0.3,1.3,0.6,1.7,1.1c1.5,1.5,2.5,3,5.5,1.9
		c2.3-0.9,5.5,0.1,8,1c1.9,0.7,2.1,3.3,2.3,5.3c0.2,1.8,0.5,3.6,0.8,5.9c-3.6,1.6-7.7,3.4-11.8,5.2c-1,0.4-1.9,0.8-2.9,1.2
		c-0.4,0.2-1,0.4-1.3,0.2c-3.2-2.2-7.1-2.7-10.5-4.5c-0.9-0.4-1.9-1.1-2.3-1.9c-1.4-2.8-4.2-3.5-6.6-4.9c-1-0.6-1.9-1.6-2.8-2.5
		c-2.7-2.5-6-4.3-7.4-8.1c-0.8-2.3-2.8-4.2-4.5-6.2c-1.1-1.3-3.3-1-4.3,0.6c-0.3,0.5-0.5,1.3-0.9,1.5c-3.6,2.2-2.8,5.4-2.2,8.6
		c0.1,0.4,0.3,0.8,0.1,1.1c-2.6,4.2-0.4,8.6-0.9,13c-0.4,3.4-0.6,6.8-0.7,10.3c-0.1,2.3,0,4.6,0,7.5c-3.8,0.4-7.5,0.9-11.1,1.2
		c-3.4,0.3-6.9,0.7-10.3,0.5c-4-0.2-8-0.8-12-1.4c-3.7-0.6-7.5-1.3-11.1-2.3c-3.2-0.8-6.2-2.7-9.3-2.9c-2.9-0.1-4.3-1.7-6.1-3.2
		c-1.1-0.9-2.1-2-2.9-3.2c-1.2-1.6-2.1-3.4-3.3-5c-1.8-2.4-1.2-5.2-1.8-7.8c-0.2-1-0.3-2.1-0.5-3.1c-0.2,0-0.5,0-0.7,0
		c1.2-3,2-6.3,3.7-9.1c1.6-2.6,4.1-4.6,6.2-6.9c1.7-1.8,3.3-3.5,5.1-5.2c0.6-0.6,1.4-1.1,2.1-1.7c1-0.9,2-1.9,3.1-2.7
		c0.9-0.7,1.8-1.6,2.8-1.7c1.9-0.2,3.2-1.1,4.7-2.1c1.9-1.2,3.6-3.5,6.7-3c1.4,0.2,3.1-1.3,4.7-2c1.7-0.7,3.4-1.4,5.1-2
		c2.4-0.9,4.8-1.9,7.2-2.8c2.6-0.9,5.2-1.7,7.8-2.7c0.6-0.2,1.1-0.7,1.6-1.2c2-2.2,5.1-2,7.5-3.4c0.2-0.1,0.6-0.3,0.9-0.2
		c2.9,1.4,5.8,2.8,8.6,4.4c0.7,0.4,1.1,1.5,1.5,2.3C233.6,236.4,234.8,239.7,236.8,242.4 M230.4,269.4c1.1,1.3,2.1,2.6,3.2,3.9
		c0.9,1.1,2.1,2.2,2.8,3.4c1.1,1.7,2,3.6,2.9,5.4c0.7,1.4,1.5,2.4,3.3,2.3c0.7,0,1.5,0.8,2.3,1.2c2.7,1.5,5.4,3.1,8.1,4.6
		c0.2,0.1,0.3,0.3,0.4,0.4c-4.5,1.7-8.8,3.5-13.3,4.9c-3,1-6.1,1.5-9.2,2.2c-0.5-3.9-1.2-7.3-1.2-10.7c0-1.8,1-3.6,1.5-5.4
		c0.1-0.3,0.3-0.6,0.3-0.9C231,277.2,230.4,273.5,230.4,269.4 M254.2,185.7c0.9-2.1,1.5-4.3,2.3-6.4c1-2.8,2.2-5.5,3.2-8.2
		c1-3,1.9-6,2.8-9.1c0.6-2,1.4-4.1,1.7-6.2c0.5-3.1,0.8-6.3,1.1-9.5c0.2-2.8,0.4-5.6,0.3-8.4c0-2-0.2-4.2-0.9-6
		c-0.5-1.3-1.9-2.3-3-3.3c-0.5-0.4-1.2-0.6-1.8-0.8c0-0.2,0.1-0.3,0.1-0.5c1-0.2,2.5-0.8,3-0.4c1.4,1.5,3.1,3.2,3.5,5.1
		c0.7,3.3,0.6,6.8,0.8,10.1c0.1,2.2,0.3,4.3,0.3,6.5c0,1.2-0.3,2.4-0.7,3.5c-1.6,4.1-0.8,8.8-3.2,12.8c-1,1.7-0.9,4-1.3,6.1
		c-0.4,2-0.8,4.1-1.4,6.1c-0.4,1.2-1.2,2.2-1.8,3.3c-1.5,2.4-1.7,5.6-4.6,7.3c-0.6,0.4-0.8,1.8-0.9,2.7c-0.3,2-1.5,3-3.6,3.8
		C251.5,191.2,252.9,188.5,254.2,185.7 M223.1,219.5c3-1.5,6.1-2.8,8.7-4.8c3.2-2.4,6-5.3,9-8c0.3-0.3,0.4-0.8,0.7-1.2
		c2.5-3.5,5-7,7.6-10.5c0.1-0.2,0.4-0.2,0.6-0.3c0.2,0.1,0.4,0.2,0.7,0.3c-0.8,1.5-1.3,3.2-2.3,4.5c-3,3.7-6.2,7.2-9.4,10.7
		c-1.7,1.9-3.6,3.8-5.4,5.6c-0.4,0.4-0.9,1-1.5,1.1c-3.5,0.5-5.3,3.5-8,5.1c-2.1,1.3-4.5,2-6.8,2.9c-0.8,0.3-1.5,0.7-2.1,1.2
		c-1.3,1-2.4,1.3-3.2-1.3C215.5,223.1,219.3,221.3,223.1,219.5 M85,227.5c-4.8-1.8-9.9-3.7-15-5.4c-2.3-0.8-4.7-1.1-7-1.9
		c-4.9-1.8-9.9-3.6-14-7c-1.4-1.2-2.7-2.5-4.2-3.5c-1.3-0.9-2.9-1.2-4.2-2.1c-1.8-1.4-3.7-2.8-4.9-4.7c-2.2-3.3-4.3-6.9-6-10.5
		c-2.6-5.4-5.5-10.6-6.9-16.4c-1.3-5.2-2.4-10.5-3.5-15.7c-0.2-0.8,0.2-1.7,0.2-2.5c0-0.9,0.1-2-0.3-2.8c-0.9-1.9,0.2-3.4,1.3-3.9
		c3.5-1.4,7.3-2.4,11.4-3.7c-0.6,2.9-2.5,3.9-4.6,3.8c-1.7-0.1-3.4,0.3-5,0.9c-1.6,0.6-1.8,1.9-1.3,3.6c0.6,2.5,0.7,5.1,1.2,7.6
		c1,5.3,2.6,10.3,5.2,15.1c0.8,1.5,1.4,3.2,1.8,4.8c0.7,2.7,2.5,4.6,3.9,6.8c1.2,1.8,2.7,3.6,3.5,5.6c1.7,4.4,5.6,6.8,8.7,9.8
		c2.1,2,4.3,4.1,6.7,5.7c2.4,1.6,5.2,2.8,7.9,3.9c4.2,1.8,8.3,3.6,12.6,5.1c3.7,1.3,7.5,2.1,11.3,3.2c1.3,0.3,2.5,0.7,4.1,1.2
		C87,225.6,86.1,226.4,85,227.5 M289.6,282.9c-4.7,2.4-9.7,4.2-14.6,6.2c-3.7,1.5-7.5,2.9-11.2,4.3c-1.9,0.7-3.9,1.3-5.7,2.1
		c-2.1,1-4.3,2-6.1,3.3c-3.1,2.2-6.8,2.5-10.3,3.5c-3.6,1-7.3,1.8-11,2.8c-2.6,0.7-5.1,1.8-7.7,2.4c-1.6,0.4-3.3,0.3-4.9,0.4
		c-6.1,0.1-12.1-0.2-18.2,0.3c-5.5,0.5-10.8,0.3-16-1.1c-6.6-1.9-13.1-3.8-19.5-6.2c-2.3-0.9-4.2-3.1-6.2-4.8
		c-1.3-1.1-2.4-2.3-3.5-3.6c-2-2.4-3.8-4.8-5.6-7.3c-0.4-0.6-0.2-1.5-0.5-2.2c-1.1-2.1-2.3-4.1-3.5-6.2c-0.2-0.3-0.4-0.5-0.5-0.8
		c-0.9-5.4-4.6-9.7-6.3-14.8c-1.3-3.9-4-7-7-9.9c-3.4-3.3-6.6-6.7-10-10c-0.9-0.8-1.9-1.6-3-2.1c-4.6-2-9.3-3.9-13.9-5.9
		c-2.2-1-4.2-2.2-6.9-2.1c-1.2,0.1-2.7-1.4-3.7-2.5c-0.5-0.5-0.2-1.7-0.2-2.1c3.8,1.1,7.2,2.1,10.6,3c0.3,0.1,0.7-0.1,0.9,0
		c3.2,1.6,6.4,3.1,9.6,4.8c3.4,1.8,6.9,3.4,10.2,5.4c2.8,1.7,5.5,3.8,8,6c4,3.6,6.6,8.3,9.2,12.9c1,1.7,1.4,3.7,2.4,5.4
		c0.6,1,1.9,2.4,2.7,2.3c1.5-0.2,3.6-0.1,4.1-2.5c1.6-7.1,6-12.3,11.7-16.6c3.8-2.9,7.7-5.6,11.6-8.3c0.5-0.4,1.2-0.6,1.9-0.9
		c4.6-1.8,9.1-3.6,13.8-5.3c3-1.1,6.2-1.8,9.2-2.9c2.5-0.9,4.8-2.2,7.3-3.3c1.4,3.8,1.4,3.7-2.3,4.5c-2.2,0.5-4.3,1.5-6.5,2.2
		c-2.3,0.8-4.6,1.4-6.9,2.1c-2,0.7-4.1,1.4-6,2.4c-2.7,1.4-5.1,3-7.8,4.5c-1.2,0.7-2.6,1.4-3.9,1.7c-4,0.9-6.3,4.4-9.4,6.5
		c-1.7,1.1-2.8,3-4.1,4.7c-2.4,3.1-4.9,6.3-7.1,9.6c-0.7,1-0.7,2.4-0.9,3.6c-0.1,0.7,0.1,1.4-0.1,2c-2.2,6.3-0.3,11.8,3,17.1
		c1.5,2.4,3.2,4.6,4.8,6.9c1.9,2.7,4.6,4.3,7.7,5.1c4.5,1,9.1,1.7,13.6,2.6c3.6,0.8,7,1.9,10.6,2.6c2.4,0.5,4.9,0.6,7.4,0.9
		c2,0.2,4.1,0.7,6.1,0.4c4.9-0.9,10-0.1,14.9-2c3.5-1.3,7.3-1.9,11-2.6c3.3-0.6,6.5-0.6,9.7-2.3c4.1-2.2,8.7-4.1,13.3-4.7
		c5.5-0.7,9.6-4,14.5-5.8c2.8-1.1,5.7-1.9,8.5-3c2.5-1,4.8-2.4,7.2-3.4c1.3-0.6,2.9-0.8,4.2-1.4c3.3-1.5,6.6-3.2,9.9-4.7
		c0.6-0.3,1.2-0.4,2-0.7c-0.1,0.5,0,0.8-0.1,0.9C296.4,278.7,293.2,281.2,289.6,282.9 M311,284.7c-4.5,1.4-8.8,4.5-14,2.2
		c-1.3-0.6-3.1-0.1-3.5-2.5c2.9-1.4,6-2.9,9.4-4.6c1.9,2,3.4,6.5,8.9,3.5C311.2,284.3,311.2,284.7,311,284.7 M311.4,280
		c-1.3,0.8-2.3,0.9-3.6-0.3c-1.7-1.7-3.8-3-3.7-6c0.1-1.3-0.9-2.7-1.5-4c-1-1.8-0.8-3.2,0.8-4.4c1.8-1.4,3.6-0.9,5.2,0.1
		c3,1.9,2.8,5,3.7,7.8c0.4,1.2,0.9,2.4,1.3,3.6C314.2,278.6,312.7,279.2,311.4,280"/>
	<path class="st2" d="M229.7,287.1c0.1,3.4,0.8,6.8,1.2,10.7c3.1-0.7,6.2-1.2,9.2-2.2c4.5-1.5,8.8-3.3,13.3-4.9
		c-0.1-0.1-0.2-0.3-0.4-0.4c-2.7-1.6-5.4-3.1-8.1-4.6c-0.8-0.4-1.5-1.3-2.3-1.2c-1.8,0.1-2.6-0.9-3.3-2.3c-0.9-1.9-1.8-3.7-2.9-5.4
		c-0.8-1.2-1.9-2.3-2.8-3.4c-1.1-1.3-2.1-2.6-3.2-3.9c0,4.1,0.6,7.8,1.1,11.5c0,0.3-0.2,0.6-0.3,0.9
		C230.7,283.5,229.6,285.3,229.7,287.1"/>
</g>
<g>
	<g>
		<g>
			<defs>
				<rect id="SVGID_00000087409693689372248840000017459367223033174656_" x="62" y="140.5" width="56.7" height="55.5"/>
			</defs>
			<clipPath id="SVGID_00000125571590186730732810000007011964829065928620_">
				<use xlink:href="#SVGID_00000087409693689372248840000017459367223033174656_"  style="overflow:visible;"/>
			</clipPath>
			<g style="clip-path:url(#SVGID_00000125571590186730732810000007011964829065928620_);">
				<defs>
					<path id="SVGID_00000005969948102130909910000002629337210427247766_" d="M62,168.2c0,15.3,12.7,27.7,28.3,27.7
						c15.6,0,28.3-12.4,28.3-27.7s-12.7-27.7-28.3-27.7C74.6,140.5,62,152.9,62,168.2"/>
				</defs>
				<clipPath id="SVGID_00000139289937656123481610000012351012418361875588_">
					<use xlink:href="#SVGID_00000005969948102130909910000002629337210427247766_"  style="overflow:visible;"/>
				</clipPath>
				<defs>
					
						<filter id="Adobe_OpacityMaskFilter_00000127043879102996284480000011554566149819990161_" filterUnits="userSpaceOnUse" x="62" y="140.5" width="56.7" height="55.5">
						<feColorMatrix  type="matrix" values="1 0 0 0 0  0 1 0 0 0  0 0 1 0 0  0 0 0 1 0"/>
					</filter>
				</defs>
				
					<mask maskUnits="userSpaceOnUse" x="62" y="140.5" width="56.7" height="55.5" id="SVGID_00000165194061698704270240000000921988622651484856_">
					<g style="filter:url(#Adobe_OpacityMaskFilter_00000127043879102996284480000011554566149819990161_);">
						
							<radialGradient id="SVGID_00000111177203679166498050000018114245553739105719_" cx="2885.1394" cy="2394.5483" r="1.2768" gradientTransform="matrix(21.9538 0 0 -21.9538 -63249.4336 52737.625)" gradientUnits="userSpaceOnUse">
							<stop  offset="0" style="stop-color:#FFFFFF"/>
							<stop  offset="9.119124e-02" style="stop-color:#F1F1F1"/>
							<stop  offset="0.2626" style="stop-color:#CDCDCD"/>
							<stop  offset="0.4959" style="stop-color:#939393"/>
							<stop  offset="0.7788" style="stop-color:#434343"/>
							<stop  offset="1" style="stop-color:#000000"/>
						</radialGradient>
						
							<rect x="62" y="140.5" style="clip-path:url(#SVGID_00000139289937656123481610000012351012418361875588_);fill:url(#SVGID_00000111177203679166498050000018114245553739105719_);" width="56.7" height="55.5"/>
					</g>
				</mask>
				
					<radialGradient id="SVGID_00000049926096379020954520000003394589008159756969_" cx="2885.1394" cy="2394.5483" r="1.2768" gradientTransform="matrix(21.9538 0 0 -21.9538 -63249.4414 52737.6289)" gradientUnits="userSpaceOnUse">
					<stop  offset="0" style="stop-color:#F16682"/>
					<stop  offset="0.1153" style="stop-color:#F27289"/>
					<stop  offset="0.332" style="stop-color:#F48E9C"/>
					<stop  offset="0.6267" style="stop-color:#F9BABF"/>
					<stop  offset="0.985" style="stop-color:#FFFAFA"/>
					<stop  offset="1" style="stop-color:#FFFFFF"/>
				</radialGradient>
				
					<rect x="62" y="140.5" style="clip-path:url(#SVGID_00000139289937656123481610000012351012418361875588_);mask:url(#SVGID_00000165194061698704270240000000921988622651484856_);fill:url(#SVGID_00000049926096379020954520000003394589008159756969_);" width="56.7" height="55.5"/>
			</g>
		</g>
	</g>
	<g>
		<g>
			<defs>
				<rect id="SVGID_00000163782849784827280720000004373832910350711461_" x="185.2" y="135.4" width="56.7" height="55.5"/>
			</defs>
			<clipPath id="SVGID_00000063602392155194282580000002770336898212711559_">
				<use xlink:href="#SVGID_00000163782849784827280720000004373832910350711461_"  style="overflow:visible;"/>
			</clipPath>
			<g style="clip-path:url(#SVGID_00000063602392155194282580000002770336898212711559_);">
				<defs>
					<path id="SVGID_00000097470915769411792900000016649531302305862059_" d="M185.2,163.2c0,15.3,12.7,27.7,28.3,27.7
						c15.6,0,28.3-12.4,28.3-27.7c0-15.3-12.7-27.7-28.3-27.7C197.9,135.4,185.2,147.8,185.2,163.2"/>
				</defs>
				<clipPath id="SVGID_00000064316065997097245490000011644945657710581663_">
					<use xlink:href="#SVGID_00000097470915769411792900000016649531302305862059_"  style="overflow:visible;"/>
				</clipPath>
				<defs>
					
						<filter id="Adobe_OpacityMaskFilter_00000013159611855172198850000010174654476515201695_" filterUnits="userSpaceOnUse" x="185.2" y="135.4" width="56.7" height="55.5">
						<feColorMatrix  type="matrix" values="1 0 0 0 0  0 1 0 0 0  0 0 1 0 0  0 0 0 1 0"/>
					</filter>
				</defs>
				
					<mask maskUnits="userSpaceOnUse" x="185.2" y="135.4" width="56.7" height="55.5" id="SVGID_00000120519703147836500860000014709429018647508898_">
					<g style="filter:url(#Adobe_OpacityMaskFilter_00000013159611855172198850000010174654476515201695_);">
						
							<radialGradient id="SVGID_00000033353919064578873600000006301532512623596965_" cx="2886.356" cy="2394.5984" r="1.2768" gradientTransform="matrix(21.9538 0 0 -21.9538 -63152.9258 52733.6406)" gradientUnits="userSpaceOnUse">
							<stop  offset="0" style="stop-color:#FFFFFF"/>
							<stop  offset="9.119124e-02" style="stop-color:#F1F1F1"/>
							<stop  offset="0.2626" style="stop-color:#CDCDCD"/>
							<stop  offset="0.4959" style="stop-color:#939393"/>
							<stop  offset="0.7788" style="stop-color:#434343"/>
							<stop  offset="1" style="stop-color:#000000"/>
						</radialGradient>
						
							<rect x="185.2" y="135.4" style="clip-path:url(#SVGID_00000064316065997097245490000011644945657710581663_);fill:url(#SVGID_00000033353919064578873600000006301532512623596965_);" width="56.7" height="55.5"/>
					</g>
				</mask>
				
					<radialGradient id="SVGID_00000067927741486228292210000004468473538402867131_" cx="2886.356" cy="2394.5984" r="1.2767" gradientTransform="matrix(21.9538 0 0 -21.9538 -63152.9297 52733.6445)" gradientUnits="userSpaceOnUse">
					<stop  offset="0" style="stop-color:#F16682"/>
					<stop  offset="0.1153" style="stop-color:#F27289"/>
					<stop  offset="0.332" style="stop-color:#F48E9C"/>
					<stop  offset="0.6267" style="stop-color:#F9BABF"/>
					<stop  offset="0.985" style="stop-color:#FFFAFA"/>
					<stop  offset="1" style="stop-color:#FFFFFF"/>
				</radialGradient>
				
					<rect x="185.2" y="135.4" style="clip-path:url(#SVGID_00000064316065997097245490000011644945657710581663_);mask:url(#SVGID_00000120519703147836500860000014709429018647508898_);fill:url(#SVGID_00000067927741486228292210000004468473538402867131_);" width="56.7" height="55.5"/>
			</g>
		</g>
	</g>
</g>
<g>
	<defs>
		<polygon id="SVGID_00000183945449321263024930000012411460424977206200_" points="339.9,65.2 326.8,80.3 315.8,114.1 307.2,144.3 
			303.6,155.8 300.1,204.4 300.8,233 308.7,263 321.4,293.6 333.8,317.4 341.6,331.5 353.8,346.5 353,373.3 352.2,400.4 
			357.5,424.5 365.9,431.2 373.8,429.4 383.2,421.8 384,411.9 381.5,392.5 383,379.9 400.7,349.5 410.2,332.4 417.5,316.8 
			425.7,300.2 434.9,286.1 438.7,263.1 443.8,227.9 440.8,192.7 430.8,161.9 421.5,138.8 406.6,124.4 393.9,110.7 388.4,96.4 
			382.3,88.8 372.2,81.7 362.1,67.5 350.8,59.4 		"/>
	</defs>
	<clipPath id="SVGID_00000096743289608135093040000012286364770072343453_">
		<use xlink:href="#SVGID_00000183945449321263024930000012411460424977206200_"  style="overflow:visible;"/>
	</clipPath>
	
		<linearGradient id="SVGID_00000181803615546246221030000012854749828251112604_" gradientUnits="userSpaceOnUse" x1="3076.1003" y1="2327.3076" x2="3077.377" y2="2327.3076" gradientTransform="matrix(-132.9552 11.0463 -11.0463 -132.9552 435170.8438 275684.6562)">
		<stop  offset="0" style="stop-color:#00652E"/>
		<stop  offset="0.2108" style="stop-color:#00652E"/>
		<stop  offset="1" style="stop-color:#FFFFFF"/>
	</linearGradient>
	
		<polygon style="clip-path:url(#SVGID_00000096743289608135093040000012286364770072343453_);fill:url(#SVGID_00000181803615546246221030000012854749828251112604_);" points="
		442.8,47.6 269.4,62 301.1,443 474.5,428.6 	"/>
</g>
<g>
	<path class="st35" d="M431.9,471.8L420.1,451L403,426.6l-18.6-21.5l-1.4,17.4l-10.1,7.4c0,0-13.5,0.3-13.6-1.4
		c-0.2-1.7-8.9-19.4-8.9-19.4l-8.1,3.8l-13.4,15.1l-22.3,39.3l4.3,9.4l52.4-20.9l17.6,4.1l25.7,11.4l20.4,5.2L431.9,471.8z"/>
	<polygon class="st35" points="332.4,316.5 321.2,290.9 313.1,292 302.9,304.8 296.6,324.3 314.2,338.8 326,345.5 328.4,327.7 
		329.3,319.8 	"/>
	<polygon class="st35" points="295.5,188.3 279.1,214.2 271.8,209.1 266.2,196.5 265.8,188.7 281,170.4 294,161.4 303,164.3 
		301.5,176.9 	"/>
	<polygon class="st35" points="304.9,144.8 293.4,148.6 290.1,145.2 289.3,137.5 302.4,132.2 311.2,132.8 	"/>
	<polygon class="st35" points="377.8,108.5 377.5,115.8 372.9,119.1 365.6,119.5 361.8,118.3 358.8,111.2 360.8,102 366.7,100.6 
		375.7,101.3 378.3,104.8 	"/>
	<polygon class="st36" points="420.6,309.8 416.1,309.5 404.1,307 396.1,301.6 407.8,300.2 424,300 	"/>
	<polygon class="st36" points="435.6,279.7 428.9,280.3 415.4,277.2 393.2,267.5 407.4,267.1 427.2,265.9 438.2,264.9 	"/>
	<polygon class="st36" points="439.9,240.1 413.7,237.8 389.6,233 365.3,222.5 374.6,220.3 400.2,220.5 416.6,218.3 442.2,218.2 	
		"/>
	<polygon class="st36" points="436.3,181 415,187.1 398.1,190.4 376.1,190.4 370,190.6 390.1,181.3 405.5,172.4 422,165.1 
		430.1,161.6 	"/>
	<path class="st36" d="M405.2,336.2c0.6-1.9,1.4-5.9,1.4-5.9l-3.2-0.9l-10.7,0.5l-10-0.5l7.2,3.7l6.4,2.9l5.1,1.2L405.2,336.2z"/>
	<path d="M443.2,204.9l-2.1-9.9c1.2,3.2-1.2,8.8-0.6,15.3c0.6,5.8-18,4.5-23.8,5c-2.5,0.2-5.1-0.1-7.6,0.3
		c-7.1,1.1-14.1,3.2-21.2,3.6c-6.6,0.3-13.3-0.8-19.9-2c-6.5-1.1-12.9-3.1-19.4-4.5c-1.2-0.3-2.6,0.1-3.9,0.2
		c0.4,1.2,0.5,3.1,1.4,3.6c3.3,2.1,6.7,4,10.4,5.4c13.6,5.4,27.1,11.6,41.1,15.4c11.3,3.1,23.4,3.2,35.1,4.8
		c1.5,0.2,3.7,0.6,4.2,1.5c0.6,1.4,3.2,2.7,3.8,4.2l3.4-0.6c-0.3-0.8,1.2-1.5,1-2.4c-1.2-4.2,1.3-10.3-0.3-14.3
		c-3.5-8.9,3-10.4-1.3-19C441.8,208.6,444.3,208.1,443.2,204.9 M436.8,234.9c-6.7,0.5-20.8-4.6-27.4-2.9c-7.6,2-8.6-1.8-16.5-1.6
		c0-0.4-7.3-0.8-7.3-1.2c0.6-0.4-15.2-6.3-14.6-6.5c0.8-0.2,18.4,1.2,19.2,1.1c6.2-0.4,15.4-2.3,21.5-3.1c3.2-0.4,20.7,0.2,23.8-0.6
		C441.3,218.7,437.2,227.5,436.8,234.9"/>
	<path d="M435.1,282.5c0.7,1.8-1.4,0.4-0.8,2.2l1.2-4.4c-2.8-8.2,5.8-9.9,4.6-18.4c-2.9,1.5,1.7-2.8-2-1.6c-0.3,1.8-6,2-6.1,3
		c-3.7,0.5-6.9,1-10.2,1.3c-4.2,0.4-8.5,1.4-12.6,0.8c-7.5-1.2-22.8-3.2-30.1-4.9c2.9,4.5,6.8,6.4,10.5,7.4c4.1,1,1.8,1.7,6.2,3
		c2.2,1.6,7.8,3.6,9.2,4.3C416.9,280.2,431.6,283.4,435.1,282.5 M425.1,278.2c-3.8-1.3-21.3-7.5-25.5-9.5c6.6-0.4,21,0.7,34.5-1.7
		c0.3,1.1-0.6,6.9-0.5,7.3c-1.4,1-0.9,3.1-2.1,3.6C430,278.6,426.5,278.7,425.1,278.2"/>
	<path d="M415.3,310.8c0.5,1.3,2.4,2.5,2.8,3.8l3.2-4.1c-2-6,5.4-6.6,4.4-12.8c-2.1,1.1-0.5-1-3.2-0.1c-0.2,1.3-3.2,0.4-6.5,0.6
		c-2.7,0.4-5.1-0.5-7.5-0.3c-3.1,0.3-6.2,1-9.2,0.6c-5.5-0.9-10.9-2.5-16.1-3.7c-1.5,3.3-0.8,4.8,1.9,5.5c3,0.7,5.9,1.7,9.1,2.6
		c-0.6,0.7-1,1.1-1.3,1.5C401.7,308,412.8,311.5,415.3,310.8 M411.1,307.8c-2.8-1-7.9-3.6-11-5c4.8-0.3,14-2.5,18.8-0.9
		c0.2,0.8-1.7,2.8-1.6,3.1c-1,0.7-1.7,1.5-2.6,1.8C413.6,307.3,412.1,308.1,411.1,307.8"/>
	<path d="M402.5,338c0.4,1,1.8,1.9,2.1,2.8l2.4-3.1c-1.5-4.5,4-4.9,3.3-9.6c-1.6,0.8-0.4-0.8-2.4-0.1c-0.1,1-2.4,0.3-4.8,0.5
		c-2,0.3-3.8-0.4-5.6-0.2c-2.3,0.2-4.6,0.8-6.9,0.4c-4.1-0.6-5.1,0.3-8.3-1.7c-2.2-0.5-6.3-1.2-2.3,3c1.6,1.7,1.9,1.4,4.3,2.1
		c-0.5,0.5,3.5,0.6,3.2,0.9C394,335.9,400.6,338.6,402.5,338 M399.6,334.9c-2.1-0.7-11.3-3.6-13.6-4.7c11.3,0.9,12.4-0.4,18.4,2
		c0.2,0.6-0.5,1.3-0.4,1.5c-0.8,0.6-1.2,0.6-1.9,0.9C401.3,335,400.4,335.2,399.6,334.9"/>
	<path d="M424.4,144.1l-0.7,11.1c2.9,3.3,0.6,2.8,3.3,6.2c0.4,0.5-6.7,1.6-6.7,2.9c-5.6,2.3-7.3,3.6-19.1,6.3
		c-0.4,0.1-0.6,0.6-0.9,0.9c-3.5,4.5-9.3,5.2-13.6,8.5c-1.8,1.4-4,2.4-6.1,3.2c-3.7,1.4-7.4,2.5-11.2,3.6c-1.1,0.3-2.5,0.2-3.5-0.3
		c-3.6-1.8-7.5-0.8-10.9,3.7c2.7,0.4,4.7,0.7,6.7,0.9c1.9,0.2,3.9,0.4,5.8,0.6c1.2,0.2,2.4,0.6,3.6,0.7c3.2,0.2,6.4,0.3,9.6,0.3
		c7,0,14.1,0.7,20.9-0.5c9.7-1.8,19-5,28.5-7.6c1.3-0.3,2.5-0.5,3.6-0.4c2.8-3.1,3.5,1.3,5.8-1.4c-2.1-2.3-1.9-12.4-4.3-14.3
		C426,161,431.5,152.9,424.4,144.1 M377.1,188.6c8.8-3.5,21.5-8.8,30.1-13c1.5-0.7,13.8-7.6,15.2-8.4c6.5-3.6,3.5-1.9,8.4,3.5
		c0.6,0.6,0.9,6.5,1.9,7.7c-15,5.3-33,11.3-48.8,10C383.7,188,377.2,189,377.1,188.6"/>
</g>
<g>
	<defs>
		<polygon id="SVGID_00000140712086927454015450000012908865319560773771_" points="435.5,285.1 426.1,299.9 413.7,327.2 
			405.6,342.4 421.3,344.1 434.5,335.8 456.9,306.4 471.6,285 471.1,280.6 456.2,270.5 436.8,264.7 		"/>
	</defs>
	<clipPath id="SVGID_00000099620053250159173640000017203054222073174675_">
		<use xlink:href="#SVGID_00000140712086927454015450000012908865319560773771_"  style="overflow:visible;"/>
	</clipPath>
	
		<linearGradient id="SVGID_00000090980296034574761510000018340381974276801173_" gradientUnits="userSpaceOnUse" x1="2872.6184" y1="2327.5444" x2="2873.895" y2="2327.5444" gradientTransform="matrix(18.9307 11.7786 -11.7786 18.9307 -26536.1523 -77598.8047)">
		<stop  offset="0" style="stop-color:#00652E"/>
		<stop  offset="9.105990e-02" style="stop-color:#00652E"/>
		<stop  offset="0.7492" style="stop-color:#FFFFFF"/>
		<stop  offset="1" style="stop-color:#FFFFFF"/>
	</linearGradient>
	
		<polygon style="clip-path:url(#SVGID_00000099620053250159173640000017203054222073174675_);fill:url(#SVGID_00000090980296034574761510000018340381974276801173_);" points="
		370,321.9 453.2,373.6 507.2,286.8 424,235.1 	"/>
</g>
<g>
	<defs>
		<path id="SVGID_00000018941500705789858750000013696106073537026959_" d="M422,140.2c0,0,4.8,13,5,14.6
			c0.1,1.6,11.4,29.8,11.4,29.8l5.2,24.3c0,0-0.9,37.5-1.6,40.2c-0.6,2.8,8.1,2.6,8.1,2.6l6.4-5.6l5.4-5l13.3-16.6l-2-2.1l3-4.3
			l6.5-2.9l1.7-6l4.2-2.9l-4.2-5.9l4.6-8.8l-6.2-6.4l3.4-6.6l-7.7-5.6l2.9-10l-1.1-4.2l-10-3.8l-4-6.2l-1.3-6.9l-21.7-3.3L422,140.2
			z"/>
	</defs>
	<clipPath id="SVGID_00000158731161751631497620000001077837828968480158_">
		<use xlink:href="#SVGID_00000018941500705789858750000013696106073537026959_"  style="overflow:visible;"/>
	</clipPath>
	
		<linearGradient id="SVGID_00000183961564568653588200000011672255507044880776_" gradientUnits="userSpaceOnUse" x1="2963.0974" y1="2293.3884" x2="2964.374" y2="2293.3884" gradientTransform="matrix(43.0895 11.774 -11.774 43.0895 -100243.0469 -133519.3281)">
		<stop  offset="0" style="stop-color:#00652E"/>
		<stop  offset="0.2191" style="stop-color:#00652E"/>
		<stop  offset="0.7722" style="stop-color:#FFFFFF"/>
		<stop  offset="1" style="stop-color:#FFFFFF"/>
	</linearGradient>
	
		<polygon style="clip-path:url(#SVGID_00000158731161751631497620000001077837828968480158_);fill:url(#SVGID_00000183961564568653588200000011672255507044880776_);" points="
		393.3,244 484.4,268.9 517.8,146.7 426.6,121.8 	"/>
</g>
<g>
	<path d="M482.5,218.1c-2,0-4.1,1.2-6.6,2.1c2.6,2.5,5.9,4.2,4.5,8c-2.7,0.7-5.4,1.4-8.7,2.2c2.7,2.2,3.9,4.1,2.5,6.7
		c-3-0.3-5.9-0.4-8.1,0.9c0.4,2.4,0.7,4.3,1,6.2c-2.4,1.6-5.7-1.4-7.2,0.9c0.2,2.3,0.4,3.8,0.5,5.5c-4.2-1.1-6.8,1.1-9.1,3
		c-2.2-0.5-4.2-1-6-1.4c-0.8,3-1.5,5.6-2.1,8.2c-0.9,3.3-0.4,3.6,2.9,4.5c4.4,1.2,8.9,2.5,12.8,4.7c4.9,2.7,9.3,6.4,13.8,9.7
		c2,1.5,2.6,4,1.8,6c-1.4,3.3-3.3,6.5-5.4,9.5c-2.6,3.6-5.7,6.8-8.3,10.4c-3.4,4.6-6.5,9.4-9.7,14.2c-1.3,2-2.3,4.3-3.8,6.1
		c-2.8,3.4-5.9,6.5-8.9,9.7c-1,1.1-2,2.4-3.2,3.3c-4.5,3.1-9,6.2-13.6,9.2c-0.1,0.1-0.3,0-0.5,0.1c-0.7-0.6-1.7-1.1-2.2-0.8
		c-3.3,2-4.7,1.9-7.2-0.8c-0.4-0.4-1.1-0.6-1.7-0.7c-2.9-0.3-4.2,1.5-5.4,3.9c-1.9,3.6-4.1,7.1-6.1,10.6c-1.5,2.5-3,5-4.4,7.5
		c-0.9,1.6-1.6,3.4-2.6,4.9c-1.2,1.8-3.2,3.3-3.9,5.2c-1.1,2.9-1.5,6.1-2.3,9.2c-0.2,0.8-0.8,1.6-1.2,2.3c0.1,0,0.6,0.2,1.2,0.3
		c-0.2,0.1-0.5,0.2-0.7,0.2c0.3,3.6,0.6,7.1,1.1,10.7c0.1,0.7,0.5,1.5,1,2c3.5,3.7,7.4,7,10.5,11c4.1,5.2,7.3,11.1,11.2,16.5
		c3.3,4.7,7,9.1,10.4,13.7c0.6,0.8,1,1.6,1.5,2.5c1,1.9,2,3.8,3.1,5.7c1.3,2.1,2.7,4.2,4.1,6.3c0.9,1.3,2.3,2.5,2.5,3.8
		c0.5,3.9,3.8,5.9,5.7,8.9c0.4,0.7,0.9,1.8,0.7,2.5c-0.5,1.8-1.4,3.5-2.3,5.2c-0.2,0.4-1.5,0.6-1.9,0.3c-2-1.4-3.6-0.4-5.4,0.3
		c-1.7,0.6-3.6,0.8-5.3,0.6c-6.7-1.1-12.1-6.2-19.3-6c-5.7,0.2-9.7-5.1-15.2-5.6c-0.2,0-0.3-0.4-0.5-0.5c-4.2-1.7-7.3-5.5-12.2-5.7
		c-2.3-0.1-4.5-0.3-6.7-0.8c-3.2-0.8-6.2-1-9.2,0.5c-1.3,0.7-2.5,1.3-3.9,1.8c-2.3,0.9-5,1.3-7,2.6c-5,3.3-10.5,4.4-16.1,5.7
		c-4.2,0.9-8.6,2.2-12.3,4.3c-3.1,1.7-6.2,2.5-9.6,2.7c-2.3,0.1-5.4-2-5.4-3.8c0-2,1-4.1-0.9-5.9c-0.3-0.3,0.6-1.9,1-2.8
		c0.5-1.2,1.1-2.3,1.6-3.5c0.7-1.5,1.2-3.1,1.9-4.7c0.7-1.5,1.8-3,2.1-4.5c0.9-5.3,4.1-9.5,6.9-13.8c1.7-2.7,3.7-5.2,5.6-7.8
		c3.3-4.5,6.6-9,10.1-13.3c1.7-2.1,4.1-3.6,6-5.5c2.3-2.2,4.3-4.9,6.8-6.9c1.7-1.3,2.4-2.9,3-4.7c0.4-1.2,0.8-2.5,1.1-3.7
		c0.5-2.6,2.4-4.6,1.1-8c-1.4-3.7-1-8-1.4-12c0-0.5-0.3-0.9-0.4-1.4c-0.3-1.2-1-2.5-0.9-3.7c0.5-6,1.4-11.9,1.7-17.9
		c0.2-3-0.4-6.1-1.1-9.1c-0.5-1.9-1.8-3.7-2.9-5.5c-0.5-0.9-1.1-1.9-1.9-2.3c-2.9-1.5-4-3.2-3.8-5.6c-2.9-3.4-5.4-6.3-8-9.2
		c-0.1,0.3-0.4,0.6-0.5,0.9c-0.7,4-1.7,7.9-2,11.9c-0.2,3.2,0.4,6.4-1,9.6c-0.5,1.2,0,2.4-1.8,2.2c-4.2-0.3-8-1.7-11.2-4.3
		c-3.4-2.7-6.4-5.9-9.9-8.5c-4.3-3.2-8.3-6.7-11.6-10.9c-1.6-2-1.6-3.6,0.2-5.3c0.9-0.9,1.3-2.2,1.9-3.4c0.4-0.9,0.7-1.8,1.1-2.6
		c0.3-0.8,0.9-1.5,0.9-2.2c0.1-4.8,2.2-8.9,5.8-11.6c3.1-2.3,5.3-5,7.6-7.9c1.3-1.7,3.1-3,5.8-1.5c-0.4-0.8-0.7-1.2-0.9-1.6
		c-1.8-4.5-3.7-9-5.5-13.5c-1.8-4.5-3.5-9.1-5.1-13.7c-1.1-3.2-2-6.5-3.1-9.7c-1.1-3.1-1.6-6.4-2.6-9.5c-1.5-4.7-1.7-9.8-2.2-14.7
		c-0.3-3.3,0-6.7,0.1-10c0.2-7.1-3.2-13.9-1.5-21.1c0.2-1.1,0.1-2.2,0.2-3.8c-2.8,4.7-6,8.4-8.2,12.9c-2.2,4.4-5.3,8.3-8.2,12.8
		c-2.2-1.4-4.6-2.6-6.5-4.3c-2.2-1.9-4-4.3-5.8-6.6c-1-1.3-2.1-2.8-2.5-4.4c-0.9-3.5-1.3-7-2.2-10.5c-0.7-3,0.6-5.2,2.5-7.2
		c1-1.1,1.8-2.5,2.8-3.7c2.2-2.7,4.2-5.4,6.6-7.9c1.7-1.7,4-2.8,5.8-4.4c4.9-4.6,9.9-9,17.3-8.5c0.7,0,1.4-0.4,1.8-0.6
		c0.5-3.3,1-6.4,1.6-9.7c-1.2,0.5-2.3,1-3.3,1.5c-2.3,1.3-5.9,0.5-7.8-1.3c-3.5-3.3-2.3-8.2-4.3-11.9c-0.1-0.2,0.1-0.7,0.3-0.9
		c0.9-1,1.8-2.2,2.9-2.9c1.4-0.7,3.3-0.7,4.6-1.5c3.9-2.3,7.9-2.1,12-1.4c1.9,0.3,2.6-0.4,2.7-2.3c0.1-2.6,0.4-5.3,0.9-7.9
		c0.3-1.8,1.5-3.4,1.6-5.2c0.3-6.1,3-11.5,5.8-16.7c2.4-4.4,4.3-8.7,5.1-13.6c0.3-2,1.2-4.2,2.5-5.8c4.4-5.3,8.9-10.5,13.7-15.5
		c1.6-1.6,4.1-2.4,6.2-3.5c0.5-0.3,1.2-0.3,1.5-0.6c3.3-3.1,6.8-2,9.7,0c6.8,4.9,13.3,10.2,17.7,17.6c1.7,2.8,3.8,5.7,6.4,7.5
		c5.2,3.6,9.9,7.6,13.2,12.9c2.4,3.8,4,8.1,5.9,12.2c0.2,0.4,0.4,1,0.3,1.4c-0.7,2.2,0.6,3.3,2.1,4.5c1.3,1.1,2.6,2.3,3.9,3.3
		c1.7,1.3,3.4,2.5,5.1,3.8c2.9,2.2,6.1,4.1,8.7,6.6c2.6,2.5,4.5,5.7,7,8.4c0.6,0.6,2.9,0.8,2.9,0.6c0.9-2.2,3.1-2,4.8-2.4
		c4.5-1.2,8.9-1.5,13.6-0.2c3.6,1,6.8,4.2,11,2.3c0.2-0.1,0.6,0.2,0.9,0.3c1.6,0.5,3.2,1.1,4.9,1.4c3,0.5,3.7,1.3,3.3,4.3
		c-0.5,3.6-0.2,6.8,3.4,8.6c2.5,1.3,5.1,2.4,7.7,3.6c1.4,0.6,2.9,1.2,2.3,3.3c-3.9-0.2-7.4-1.2-10.7-3.1c-2.6-1.5-5.1-3.5-7.9-4.5
		c-3.9-1.4-8.1-2.4-12.2-2.8c-6.1-0.5-12.2-0.3-18.3-0.4c-0.6,0-1.2,0.2-1.8,0.3c0.8,2.4,1.5,4.6,2,6.3c1.3-0.5,2.5-1.1,3.7-1.5
		c3.8-1.1,7.2,1,10.8,1.2c2.9,0.2,5.6,1.5,8.5,1.7c3,0.3,6.1-0.3,9.1-0.2c2.6,0.2,5.6,0.2,7.7,1.5c3.3,2,6.8,2.5,10.4,2.9
		c5,0.6,6.2,2.3,4.2,6.7c-2.7-0.8-3.6,1.8-5.8,3.5c0.9,0.9,1.9,1.4,3.1,1.9c1.1,0.4,2.3,0.7,3.4,1.1c2.1,0.6,3.6,2.1,3.6,4.1
		c0,1.6-1.5,2.5-3.3,2.7c-1.9,0.3-3.3,2.7-2.3,3.8c0.9,1,2.2,1.6,3.2,2.6c1.3,1.2,3.2,2.4,3.4,3.8c0.2,1-2,2.4-3.1,3.6
		c0,0.1-0.2,0-0.2,0.1c-1.8,1.2-1.8,4.5-0.2,5.9c2,1.7,3.8,3.6,5.6,5.5c-0.1,0.3-0.3,0.5-0.4,0.8c-1.7,0.4-3.4,0.7-5,1.3
		c-1.2,0.5-2.7,1.2-3.2,2.3c-0.3,0.7,0.9,2.4,1.8,3.1c3,2.2,3.1,2.4,1.8,5.8C486.5,219.4,484.5,218.1,482.5,218.1 M411.8,338.2
		c3.9,0.5,7.3,1,10.8,1.5c0-0.1,0-0.2,0.1-0.2c-1.9-0.9-3.9-1.8-5.8-2.7c-1.8-0.8-2.9-2-3.2-4c1.5-0.6,2.7-0.2,4.2,0.7
		c2,1.2,4.5,1.7,6.8,2.5c1.2,0.4,2.4,0.7,3.6,1.1c0.1-0.3,0.2-0.6,0.3-0.9c-4.3-2-8.6-3.9-13.5-6.2c-0.4,0.7-0.9,1.8-1.4,2.8
		C413.1,334.5,412.5,336.3,411.8,338.2 M332.4,431.8c0.7-1.9,1-3.9,1.3-6c-1.6,3.2-4.8,5.8-3.7,10.1c-1.1,2-2.1,4.2-3.4,6
		c-2.5,3.5-2.9,7.5-3.6,11.5c-0.7,4.3-1.4,8.6-2,13.1c1-0.1,1.8-0.2,2.8-0.3c-1.2-4.2-0.2-8,0.9-11.8c1.8-5.6,3.4-11.2,5.1-16.8
		c0.2-0.6,0.1-1.2,0.1-1.8C330.8,434.5,331.8,433.2,332.4,431.8 M355.9,391.4c0.4,1.1,1.3,2.2,1,3c-1.4,3.7,0.4,6.9,1.1,10.3
		c0.9,4.5,2,8.9,2.3,13.5c0.3,4.9,2.9,7.7,7.1,9.4c0.8,0.3,2,0.4,2.8,0.1c3-1.3,5.8-2.8,8.8-4.2c1.3-0.6,2-0.9,1.2-2.8
		c-0.6-1.3,0.5-3.3,0.4-5c-0.1-4.9-0.5-9.7-0.7-14.6c-0.1-2.6-0.1-5.1-0.3-7.7c0-0.6-0.3-1.2-0.6-1.7c-0.7-1.6-1.4-3.1,1.2-4.3
		c-2.8-0.1-2.7-1.5-2.3-3.3c0.9-3.8,1.6-7.6,2.6-11.3c0.5-1.9,1.1-4.1,3.9-4.2c0.6,0,1.1-1.3,1.6-1.9c1.9-2.5,3.9-5,5.8-7.5
		c1-1.4,1.8-2.9,2.6-4.3c2.8-5.2,5.7-10.4,8.4-15.8c0.6-1.2,0.6-2.8,0.4-4.1c-0.4-2.5,1.2-3.4,2.8-4.6c1.7-1.2,3.2-2.5,4.7-3.8
		c0.3-0.3,0.5-1.2,0.3-1.5c-1.4-2.5,0.3-4,1.6-5.8c0.8-1,1.1-2.4,1.7-3.5c1.2-2.6,2-5.4,3.7-7.6c2.8-3.7,5.5-7.3,6.9-11.7
		c0.1-0.5,0.5-0.9,0.7-1.3c1.7-2.5,3.4-5.1,5.2-7.6c0.2-0.3,0.4-0.6,0.6-0.8c3.2-1.4,2.3-4.1,1.9-6.5c-1-5.8,0-11.3,1.2-16.9
		c1.3-5.8,2.9-11.7,3.4-17.6c0.7-8.3,2.3-16.6,1.2-25c-0.2-2,0.1-4,0.2-6.1c0.2-2.9,0.7-5.9,0.7-8.8c0-1.3-0.9-2.6-1.2-3.9
		c-1.6-5.6-3.2-11.2-4.6-16.9c-1.3-5.4-2.2-10.9-3.7-16.2c-0.7-2.4-2.3-4.7-3.8-6.7c-3.1-4-3.9-8.7-5.4-13.3c-1-3-1.7-6.2-3-9.2
		c-0.7-1.5-2.3-2.6-3.5-3.9c-1.1-1.3-2.1-2.7-3.4-3.8c-2.1-2-4.4-3.7-6.5-5.7c-2.5-2.3-4.6-5.3-7.4-7.1c-3.3-2.2-4.6-5.4-6.1-8.6
		c-1.6-3.6-3.3-7.2-4.6-10.9c-1.8-4.9-4.7-9-9.2-11.8c-2.3-1.4-4.6-2.7-6.9-4.1c-0.4-0.2-0.8-0.6-0.9-1c-0.9-3.3-3-5.9-5.3-8.4
		c-2.3-2.5-4.7-5-6.5-7.8c-1.5-2.3-3.8-1.9-5.7-2.9c-0.5-0.3-1.4-0.1-1.9-0.4c-1.8-1.3-2.8-0.8-3.5,1.2c0,0.1-0.2,0.4-0.3,0.4
		c-3.4,0.9-2.4,3.6-2.7,5.9c-0.1,1.1-0.9,2.1-1.5,3c-2.5,4.4-5.1,8.9-7.6,13.3c-0.6,1-1.1,2.1-1.7,3.2c-1.6-0.5-2.2-1.4-1.6-3.1
		c0.8-2.5,1.6-4.8,3.6-6.8c1.5-1.5,2.2-3.9,3.2-5.9c0.8-1.7,1.6-3.4,2.3-5.2c-0.2-0.1-0.3-0.3-0.5-0.4c-3,3.6-6.1,7.1-9.1,10.7
		c-2.6,3.1-4.2,6.8-4.7,10.9c-0.1,1.1-1.3,2-1.7,3.1c-2.6,8-5.1,16.1-7.6,24.1c-0.3,1-0.7,1.9-1.2,2.8c-1.5,2.7-2.5,5.5-1.7,8.7
		c0.1,0.5,0.1,1.2-0.1,1.7c-1.5,3.7-3.2,7.4-4.6,11.2c-0.5,1.3-0.8,2.8-1.1,4.2c-0.5,2.3-1,4.6-1.2,6.9c-0.3,3.4-0.6,6.8-0.6,10.2
		c0,4.1,0.4,8.3,0.1,12.4c-0.1,2-1.5,3.9-1.9,6c-0.7,4.7-0.8,9.5-1.8,14.2c-1.1,5-0.4,9.8,0,14.7c0.4,4.1,0.9,8.1,1.1,12.2
		c0.1,2.2-0.5,4.4-0.3,6.5c0.4,4.5,0.5,9.2,1.9,13.5c2.5,7.7,3.6,15.9,8,23c2.1,3.5,3.4,7.5,5.1,11.3c2.9,6.5,5.6,13.1,8.6,19.6
		c2.6,5.8,5.4,11.5,8.2,17.2c2.1,4.4,4.2,8.8,6.5,13.1c0.9,1.6,2.4,3.1,4,4.1c6.4,4.3,10.1,10.6,12.7,17.6c1.4,3.7,0.5,7.7-0.1,11.6
		c-0.7,4.7-1.1,9.4-1.2,14.1c-0.2,5.4,0.1,10.7,0.2,16.2C356.9,391.1,356.4,391.3,355.9,391.4 M471.7,173.4c-4.9-1.6-10-2.5-15-3.6
		c-6.3-1.3-12.7-2.5-19.4-3.9c0.4-0.4,0.8-1.3,1.3-1.4c1.7-0.3,3.5-0.7,5.1-0.5c5.1,0.7,10.2,1.5,15.3,2.4c3.6,0.7,7.1,1.8,10.7,2.7
		c2.6,0.6,5.2,1.1,7.2,1.6c0.9-2.1,1.7-4,2.7-6.2c-2-0.5-4.6-1.3-7.1-1.8c-6-1.1-11.9-2.1-17.9-3.1c-5.8-0.9-11.5-2-17.5-1.2
		c-1.4,0.2-3-0.5-4.7-0.9c0,0.1-0.1,0.8,0.2,1.3c1,1.9,2.4,3.6,3.2,5.6c0.7,1.6,0.7,3.5,0.9,5.4c0.4,3.5,0.7,3.5,4.2,3.8
		c3.9,0.4,7.8,1.5,11.6,2.3c4.8,1,9.6,2,14.4,3.2c3.7,0.9,7.4,2.1,11.1,3.3c1.6,0.5,2.8,0.8,3.5-1.2c0.3-1,0.9-1.9,1.4-2.9
		C479.1,176.6,475.5,174.6,471.7,173.4 M476.7,198.7c-10.2-3.8-20.8-6.3-31.5-8.3c-0.4-0.1-0.8-0.1-1.9-0.2c0.8,3.4,1.4,6.5,2.5,9.5
		c0.3,0.8,2,1.1,3.1,1.5c2.1,0.6,4.2,0.6,6.2,2.1c1.5,1.2,4.2,0.7,6.3,1.2c2.4,0.6,4.7,1.5,6.9,2.3c2.2,0.8,4.2,1.9,6.4,2.8
		c1.9,0.8,3.9,1.3,5.9,2c1.6,0.6,1.8-0.1,2.2-1.5c0.6-2.1,1.7-4,2.8-6.7C483.1,202.2,480.1,200,476.7,198.7 M486.7,192
		c-2.8-3.9-7.3-5.6-11.6-7c-6.5-2-13.1-3.6-19.7-4.9c-5-1-10.2-1.4-15.8-2.2c0.9,2.7,1.3,5.6,2.7,7.7c1.8,2.8,5.2,3.2,8.4,3.4
		c1.7,0.1,3.5,0.3,5.2,0.6c4.1,0.7,8.1,1.4,12.1,2.4c4.5,1.1,9.3,1.7,13.3,4.5c0.8,0.5,1.7,0.8,2.3,1
		C484.7,195.6,485.7,193.8,486.7,192 M447.3,213.3c0.2,2,1.8,2.4,3.3,2.7c1.8,0.3,3.8,0.2,5.5,0.6c3.9,1,7.7,2.3,11.5,3.4
		c1.1,0.3,2.3,0.4,3.5,0.6c1.3,0.1,1.9-0.6,2.6-1.6c1-1.5,2.5-2.7,4-4.4c-10-4.6-20.1-8.9-31.4-10.5
		C446.8,207.2,447,210.2,447.3,213.3 M447.9,217.4c-0.2,3.4-0.4,6.3-0.6,8.8c1.2,0.3,2.1,0.5,2.9,0.9c2.3,1,4.5,2.1,7.2,1.8
		c1.6-0.2,3.3,0.5,5,0.7c1.9,0.3,3.8,0.6,5.8,0.6c0.5,0,1.2-0.8,1.6-1.3c0.9-1.1,1.6-2.4,2.6-3.9C464.3,222.5,456.2,220,447.9,217.4
		 M388.2,433.1c4.1,6.3,8.2,12.5,11.9,19c2.3,4,4,8.3,5.9,12.4c1.6,3.6,2.7,4.1,7.2,3c-1.4-2.1-2.8-4-4.1-6c-2.2-3.5-4-7.5-6.7-10.6
		c-2.9-3.5-3.3-8.2-6.3-11.5c-2.1-2.4-4-4.9-5.9-7.5c-1.3-1.8-2.5-3.8-3.8-5.6c-1.4-2.1-2.6-2.2-3.8-0.5
		C384.6,428.4,386.5,430.7,388.2,433.1 M455.8,147.6c2,0,4.1,0.9,6.1,1.3c2.2,0.4,3.3-0.7,2.8-2.8c-0.1-0.3-0.9-0.6-1.4-0.7
		c-0.5-0.1-1.4,0.2-1.6,0c-2.4-3-5.6-1.6-8.5-1.8c-0.8-0.1-1.6,0-2.4-0.2c-5.7-1.6-11.5-2.1-17.3-1.9c-2,0.1-4.1,0.2-6.4,0.3
		c0.3,1.3,0.7,2.7,1.1,4.2c1-0.1,1.9-0.1,2.8-0.3c5.1-1.1,10.2,0.1,15.2,0.7c1.7,0.2,3,0.7,3.9-1.6
		C451.2,148.2,453.4,147.6,455.8,147.6 M387.9,416c3,2.7,5.4,6,7.9,9.1c2.8,3.4,5.5,6.9,8.1,10.5c2,2.7,3.7,5.7,5.5,8.5
		c3.5,5.3,7.1,10.6,10.6,15.9c2.4,3.7,4.7,7.5,7.1,11.2c0.3,0.5,0.7,0.8,1.1,1.2c0.2-0.2,0.4-0.3,0.7-0.5c-1.5-2.6-3-5.2-4.5-7.8
		c-2.5-4.5-4.9-9.1-7.6-13.5c-2-3.1-4.5-5.9-6.7-8.9c-3-4.1-5.6-8.5-8.7-12.6c-3.2-4.3-6.7-8.5-10.2-12.6c-1.7-2-3.5-3.9-5.3-5.8
		C386.6,412.5,386.2,414.4,387.9,416 M417.1,463.5c-1.2-1.5-2.1-3.3-3.1-4.9c-2.5-4.2-5.1-8.4-7.6-12.6c-1.1-1.8-2.1-3.7-3.2-5.5
		c-1.4-2.2-2.8-4.4-4.3-6.5c-1.4-2-2.8-4-4.3-5.8c-2.2-2.8-4.6-5.4-6.9-8.1c-0.3,0-0.5,0.1-0.8,0.1c0.1,0.8-0.1,1.8,0.3,2.3
		c1.7,2.1,3.8,3.9,5.4,6c4.3,5.8,8.8,11.4,11.5,18.2c1.3,3.3,3.9,6.1,5.9,9.2c2.5,3.9,5.1,7.7,7.5,11.6c1.5,2.5,2.1,3.2,5.3,2.9
		C420.9,468.1,418.9,465.9,417.1,463.5 M332.5,463.8c1.9-1,3.7-2,5.7-3c-0.7-0.7-1.2-1.2-1.9-1.9c1.8-6.3,3.4-12.8,5.4-19.2
		c0.8-2.7,2.6-5.1,3.5-7.8c1-3,1.3-6.2,2.2-9.2c0.5-1.9,1.5-3.7,2.3-5.5c0.2-0.6,0.3-1.2,0.4-1.8C344.9,422,332.5,456.8,332.5,463.8
		 M390.9,450.5c2.2,3.8,3.5,8,5.7,11.7c1.1,1.7,3.4,2.7,5.2,4c0.3-0.2,0.5-0.4,0.8-0.6c-1.6-2.6-3.2-5.1-4.8-7.7
		c-0.6-1-1.4-2.1-1.6-3.2c-1-5.3-4-9.5-7.3-13.6c-2.7-3.4-4.9-7.2-7.3-10.9c-0.8-1.2-1.6-2.3-3.4-1.3
		C384,435.1,386.7,443.2,390.9,450.5 M308.2,329.6c1.2-3.9,2.1-7.5,3.4-10.9c1.2-3.4,2.7-6.7,4.1-10.1c1.2-2.9,2.5-5.7,3.9-8.6
		c0.3-0.7,0.9-1.2,1.6-1.9c-2.4-4.9-2.4-4.9-4.2-4.6c2.7,1.1,2.6,2.6,1.2,4.6c-1.6,2.2-3.2,4.4-4.4,6.7c-1.7,3.4-3.1,6.9-4.4,10.5
		c-1.5,4-2.6,8.2-4,12.6C306.2,328.3,307,328.8,308.2,329.6 M308.9,302.3c-0.8,0.8-1.3,1.8-1.8,2.9c-1.8,4.2-3.5,8.4-5.1,12.7
		c-0.6,1.5-0.7,3.1-1.1,4.6c-0.2,0.6-0.4,1.3-0.6,2.1c0.6,0.4,1.3,1,2.1,1.5c4.7-10.5,9.3-20.8,13.8-30.9
		C313.8,297.5,311.3,299.8,308.9,302.3 M446.9,236c5.4,1,10.4,1.9,15.4,2.8c0.4-1.5,0.7-2.8,1.2-4.6c-4.5-2.7-10.1-3.8-15.9-5
		C447.3,231.8,447.1,234.2,446.9,236 M270.9,202.5c2.8-3.6,7.3-6,8-10.7c0.9-5.6,5.3-8.5,8.2-12.5c3.4-4.6,8.3-7.4,12.5-11
		c0.2-0.1,0.3-0.4,0.4-0.6c0-0.1,0-0.2-0.2-0.7c-1.7,1.1-3.2,2.2-4.8,3.1c-4.6,2.7-8,6.6-11.2,10.8c-4,5.3-8.4,10.4-12.6,15.6
		c-0.6,0.7-1.4,1.3-2.1,2C269.7,199.7,270.3,201,270.9,202.5 M442.6,271.3c0.9,0.6,2,1.2,3.1,1.3c4.2,0.3,6.6,3.9,10.2,5.5
		c4,1.8,7.9,3.9,11.8,5.8c1.8-3.2,1.8-3.1-1.4-4.9c-3.1-1.7-6.2-3.5-9.3-5.2c-0.3-0.2-0.6-0.4-0.9-0.5c-4-1.1-8-2.2-12-3.4
		c-0.7-0.2-1.4-0.7-2.1-1c-0.2,0.1-0.4,0.2-0.6,0.3C441.8,269.9,442,270.9,442.6,271.3 M435.7,289.2c4.4,2.1,8.9,4.1,13.3,6.2
		c2,1,4,2.2,5.9,3.5c0.5,0.3,0.5,1.4,0.9,2.8c1.2-1.8,2-3.2,3.3-5.2c-7.5-3.8-14.5-7.4-21.6-11C436.8,286.8,436.3,287.9,435.7,289.2
		 M278.1,177.8c-0.1,0-0.3,0.2-0.4,0.3c-2.3,3-4.6,6.1-6.8,9.1c-0.8,1.2-1.8,2.5-2.1,3.8c-0.4,2-0.2,4.1,0.2,6.3
		c1.4-5,6.2-7.2,8.1-11.8c1.8-4.2,5.3-7.8,8-11.6C282.4,174.8,281.2,177.8,278.1,177.8 M329,465.3c0.5-3.4,0.8-6.4,1.3-9.5
		c0.6-3.2,1.2-6.5,2.3-9.6c1.6-4.6,3.7-9.1,5.6-13.7c0.3-0.7,0.6-1.5,0.9-2.2c1.8-4.5,3.6-8.9,5.5-13.5c-0.5,0-0.7-0.1-0.8,0
		c-1.6,3.3-3.1,6.7-4.7,10c-0.8,1.7-2,3.2-2.6,5c-1.4,3.6-2.6,7.2-3.9,10.9c-1.3,3.5-2.6,7.1-4.2,10.5c-1.8,4-2.1,8.1-2,12.4
		C327.6,465.4,328.7,465.3,329,465.3 M440.5,276.6c0.8,0.5,1.8,0.7,2.2,1.4c3.6,5.1,10,4.7,14.7,7.6c1.2,0.7,2.6,1,3.8,1.7
		c1,0.6,1.8,1.6,2.8,2.5c0.4-0.4,0.9-1,1.8-1.9c-4.1-2.7-7.8-5.5-11.8-7.7c-4-2.1-8.4-3.6-12.9-5.5
		C440.9,275.3,440.7,275.9,440.5,276.6 M340.5,459c2.9-1.1,5.4-1.9,5.4-5.8c0-4.6,1.2-9.3,2-13.9c0.5-2.7,1.3-5.4,1.9-8.2
		c0.2-0.9,0-1.9,0-2.9c-0.2,0-0.4,0-0.6,0C346.3,438.5,343.4,448.7,340.5,459 M319.1,305.5c-0.8,1.6-1.8,3.2-2.3,4.8
		c-1.7,5.6-3.2,11.2-4.8,16.7c-0.4,1.2-1,2.4-1.7,3.7c0.7,0.5,1.6,1.2,2.6,1.9c0.7-2.2,1.7-4.4,2-6.6c0.8-5.3,2-10.3,5.1-14.7
		c0.5-0.7,0.5-1.8,0.8-2.6c0.5-1.4,0.7-3.1,1.5-4.2c1.3-1.8,0.6-3-0.1-4.6C321.1,302,320.1,303.7,319.1,305.5 M378.8,439.4
		c0.8,6.4,4.9,11.3,7.3,17c0.6,1.4,3,1.9,4.9,3c-3.5-9.6-8.6-17.8-13.5-26c-0.3,0.1-0.6,0.2-0.8,0.3
		C377.3,435.6,378.5,437.4,378.8,439.4 M322.3,312.2c-1.7,4.9-3.4,9.8-4.9,14.7c-0.7,2.1-1,4.4-1.5,6.6c-0.4,2.3,1.1,3.5,2.9,5.2
		c0.3-4.2,0.3-7.9,0.9-11.6c0.4-2.5,1.3-5.1,2.8-7.1c2.2-2.9,1.6-6.1,2.1-9.3c0.2-1.1,0.3-2.3,0.5-3.4c-0.1-0.1-0.2-0.2-0.3-0.3
		C324,308.7,322.9,310.4,322.3,312.2 M288.9,181.7c-2.6,2.9-6.1,5.6-7.2,9.1c-1.6,5-4.9,8.3-7.8,12.2c-0.6,0.8-1.3,1.4-2.1,2.3
		c0.7,1,1.4,2,2.2,3.1c1.8-3.2,3.4-6.5,5.3-9.6c1.1-1.9,2.3-3.7,3.8-5.3c3.7-3.9,6.9-8.2,9-13.2c0.3-0.6,0.7-1.2,1.1-1.7l-0.3-0.3
		C291.5,179.4,290.1,180.4,288.9,181.7 M453.6,303.9c0.3-0.2,0.5-0.4,0.8-0.7c-5.8-3.8-11.4-7.4-18-9.3c-0.8-0.2-1.5-1.3-2.2-1.9
		c-1.7,2.9-1.8,4.2-0.1,5.1c1,0.5,2.1,0.8,3.1,1.2c3.9,1.5,7.8,3,11.7,4.6c1,0.4,1.8,1.4,3.1,2.4C452.3,305,453,304.4,453.6,303.9
		 M423.7,312.4c6.4,2.5,13.1,4.1,19.3,7.9c-0.1,0.2,0.1-0.3,0.3-0.7c0.3-0.6,0.6-1.3,0.9-1.8c-5.8-3.8-12.8-5.2-18.3-9.5
		C425.3,309.5,424.6,310.8,423.7,312.4 M429,302.5c-0.4,0.5-1.1,1.4-1.5,2.4c-0.2,0.4,0.2,1.5,0.6,1.7c4.5,2.2,9.1,4.2,13.6,6.4
		c1.2,0.6,2.2,1.6,3.4,2.5c0.2-0.4,0.8-1.3,1.5-2.4C440.7,309.5,434.9,306,429,302.5 M449.7,307.7c-5.6-4.1-12.8-5.4-18.3-9.8
		c0.1,1-2.7,2.1-0.5,3.8c1.3,1,2.7,1.9,4.2,2.3c4.6,1.5,9.4,2.5,13.5,5.8C449,309.1,449.4,308.4,449.7,307.7 M352.8,454.2
		c0.7-8.2,1.3-16.3,2-24.5c-4.1,7.8-4.4,16.2-4.3,24.8C351.1,454.4,351.8,454.3,352.8,454.2 M323.2,342.4c2.4-5,2.2-10.1,2.5-15.2
		c0.2-3.6,0.6-7.2,1.1-10.8c0.1-0.7,1-1.2,1.6-1.9c-0.2-0.6-0.5-1.3-1.1-2.7c-1.2,3.6-2.4,6.5-3.1,9.5c-0.8,3.9-1.4,7.8-1.8,11.7
		c-0.2,1.8,0.5,3.7,0.7,5.6c0,0.6-0.4,1.2-0.7,1.8c-0.2,0-0.5,0.1-0.7,0.1C322.2,341.1,322.6,341.6,323.2,342.4 M287.7,192.6
		c-1.8,2.4-3.9,4.6-5.6,7c-1.8,2.6-3.2,5.4-4.7,8.1c-0.2,0.4-0.5,0.8-0.6,1.3c-0.2,0.6-0.4,1.2-0.5,1.8c0.7-0.2,1.6-0.1,2-0.5
		c1.2-1.3,2.3-2.7,3.2-4.3c2-3.3,3.8-6.8,5.7-10.2c1.4-2.4,2.8-4.9,4.2-7.3c0.1-0.2,0.1-0.5,0.1-0.8c-0.2-0.1-0.3-0.2-0.5-0.2
		C289.8,189.1,288.9,191,287.7,192.6 M459.9,291.7c-4.6-2.8-9.3-5.6-14-8.4c-1.9-1.1-3.9-2.1-5.5-2.9c-1,0.9-1.8,1.6-2.4,2.1
		c7.2,4.9,16.3,5.3,22.5,11.7C462.3,292.8,460.8,292.3,459.9,291.7 M372.2,434.3c0.5,4.9,1.9,9.3,3.9,13.6c0.6,1.3,1.4,2.6,1.7,4
		c0.7,2.6,2.6,3.5,5.3,4.1C379.5,448.6,375.9,441.5,372.2,434.3 M361.9,434.1c-0.1,0-0.2,0-0.2,0c0,2,0,4.1,0.1,6.1
		c0.2,3.2,0.8,6.4,0.9,9.6c0.1,3.2,2.6,2.9,4.7,3.7C365.5,446.8,363.7,440.4,361.9,434.1 M299.1,136c-2.6,1.6-5.3,3-8.1,4.6
		c0.3,1.7,1.1,2.4,3,1.4c1-0.5,2.1-0.9,3.2-1.3c1.7-0.6,3.3-1,4.4-2.8c0.7-1.1,2.8-1.5,4.2-2.2c0.7-0.4,1.4-0.8,2.2-1.2
		c-0.1-0.3-0.2-0.5-0.3-0.8C304.7,133.9,301.8,134.4,299.1,136 M415.8,328.3c5.4,1.4,10.8,2.7,16.2,4l0.3-0.6
		c-4.5-2.6-9-5.2-13.6-7.9C417.7,325.3,417,326.6,415.8,328.3 M423.8,318.3c3.4,1.4,6.9,2.6,10.3,3.8c1.1,0.4,2,1,3.1,1.3
		c1,0.3,2,0.2,3,0.4c0.1-0.3,0.1-0.6,0.2-0.9c-5.8-2.7-11.5-5.3-17.6-8.1C422,315.9,421.7,317.4,423.8,318.3 M360.1,451.6
		c-0.2-1.2-0.4-2.4-0.4-3.6c-0.1-1.5,0.2-2.9,0.1-4.4c-0.3-4.1-0.8-8.2-1.1-12.3c-0.2,0-0.5,0-0.7,0c-0.3,6.9-0.7,13.8-1,20.6
		C357.7,451.8,358.9,451.7,360.1,451.6 M422.8,323.7c2.5,0.9,5,1.7,7.4,2.7c1.4,0.6,2.7,1.6,4.5,2.7c0.1-0.1,0.9-0.6,1.8-1.2
		c-4.9-3.3-10.5-5-14.9-8.9c-0.5,0.8-1.2,2-1.8,3.1C420.8,322.6,421.7,323.3,422.8,323.7 M446.4,243.1c1.7,0.5,3.4,0.8,4.9,1.4
		c2.8,1.1,4.1,0.6,5.3-2.8c-3.1-1.1-6.2-2.2-9.5-3.4C446.8,240.4,446.6,242,446.4,243.1 M317.3,467.9c0.3,0.2,0.7,0.5,1,0.7
		c0.3-0.7,0.6-1.4,0.8-2.1c1-5.4,2-10.8,3-16.2c0-0.1-0.1-0.3-0.4-1C318.8,455.5,317.9,461.7,317.3,467.9 M368.3,439
		c0.1,1.5,0.2,2.8,0.4,4c0.4,2.2,1.1,4.4,1.5,6.6c0.5,2.5,1.9,4,4.6,3.9C372.6,448.7,370.5,444,368.3,439 M313.9,461.3
		c-2.6,3-4.8,5.9-3.6,10.3C312.4,470.7,314.3,465.1,313.9,461.3 M305.5,138.9c-4.9,2.1-9.2,4-13.9,6c1.9,1.1,5.1,0.6,5.9-0.5
		c2.4-3.1,2.7-3.2,6.5-2C304.5,141.4,304.8,140.5,305.5,138.9 M447.7,246.2c-0.5-0.1-1.1,0.5-1.7,0.8c0.4,0.4,0.9,1.1,1.3,1
		c1.5-0.2,3.2,1.8,4.7-0.6C450.5,247,449.1,246.5,447.7,246.2 M294.9,165.7c-1.9-0.5-2.8-0.1-5.2,3.3
		C291.4,167.9,293.1,166.8,294.9,165.7 M409.9,339.7c1.7,0.3,3.2,0.6,4.8,0.9c0-0.1,0.1-0.3,0.1-0.4c-1.3-0.7-2.6-1.5-4.1-2.3
		C410.5,338.3,410.3,338.9,409.9,339.7"/>
	<path d="M329.2,130.3c-0.2,2.9,0.1,4.4,3,5.5c4.1,1.5,8.1,3.6,11.4,6.7c0.8,0.7,2.1,1.1,3.2,1.2c2.3,0.2,4.4,0.9,6.8,0.5
		c8.8-1.4,16.9-4.8,24.3-9.5c3.2-2,5.8-5.2,8.6-7.9c1.1-1.1,0.5-2.4-0.6-3c-0.6-0.3-1.8-0.1-2.3,0.4c-4.6,3.6-8.8,7.6-14.4,9.8
		c-3.2,1.2-6.2,3.3-9.4,4.2c-4.4,1.2-9,2.5-13.5-0.4c-2-1.3-4.4-1.9-6.6-2.9c-2.8-1.3-5.5-2.7-8.3-3.9
		C330.8,130.7,330.1,130.6,329.2,130.3"/>
	<path d="M374.4,120.2c-2,0.9-4.6,0.4-6.9,0.8c-3,0.6-7.5-2.2-9-5c-1.8-3.3-1.5-6.6-1.1-10.2c0.4-3.8,3-5.7,5.4-8
		c0.5-0.4,1.5-0.4,2.3-0.3c2.9,0.3,5.5,2.7,8.6,1c0.3-0.1,0.8,0.1,1.1,0.3c3.4,1.8,5.3,4.6,5.9,8.9
		C380.3,112.4,379.9,117.7,374.4,120.2 M372.5,103.5c-0.5-0.1-1-0.4-1.5-0.7c-2-1.2-4.7-1.1-6.4,0.4c-3.8,3.3-4.3,10.4-1.6,13.7
		c0.3,0.4,0.9,0.8,1.3,0.9c2.4,0,4.9,0,7.3-0.2c2.2-0.2,4.1-2.4,4.4-4.9c0.1-0.8,0.5-1.5,0.6-2.3c0.1-0.8-0.1-1.6-0.2-2.4
		C376.2,104,376.2,104,372.5,103.5"/>
	<path d="M367.7,104c-3.4,0.3-5.6,3.5-5.2,7.4c0.3,2.7,3.6,5.2,6.5,5c2.8-0.3,5.9-3.2,5.6-5.4C373.9,104.9,372.5,103.5,367.7,104"/>
</g>
</svg>
