<?xml version="1.0" encoding="utf-8"?>
<!-- Generator: Adobe Illustrator 26.3.1, SVG Export Plug-In . SVG Version: 6.00 Build 0)  -->
<svg version="1.1" id="Layer_1" xmlns="http://www.w3.org/2000/svg" xmlns:xlink="http://www.w3.org/1999/xlink" x="0px" y="0px"
	 viewBox="0 0 500 500" style="enable-background:new 0 0 500 500;" xml:space="preserve">
<style type="text/css">
	.st0{clip-path:url(#SVGID_00000030468517370360378640000008642444798312689828_);}
	.st1{fill:#BFD730;}
	.st2{fill:#FFFFFF;}
	.st3{fill:#F15B4E;}
	.st4{fill:#FFCC4E;}
	.st5{fill:#C69930;}
	.st6{fill:#82CA9C;}
	.st7{fill:#DB82B5;}
	.st8{fill:#F15B67;}
	.st9{fill:#FFCB05;}
	.st10{fill:#F0CC9E;}
	.st11{clip-path:url(#SVGID_00000124139359781118109860000001097041305528782241_);}
	.st12{filter:url(#Adobe_OpacityMaskFilter);}
	
		.st13{clip-path:url(#SVGID_00000104675433418768928650000005165345547524038550_);fill:url(#SVGID_00000142148735831068108680000000321551604072339378_);}
	
		.st14{clip-path:url(#SVGID_00000104675433418768928650000005165345547524038550_);mask:url(#SVGID_00000013150904371900261650000010122499029775729342_);fill:none;}
	.st15{clip-path:url(#SVGID_00000040532733697599958300000014503049597708591766_);}
	.st16{filter:url(#Adobe_OpacityMaskFilter_00000016764572820680869820000005980886210711341229_);}
	
		.st17{clip-path:url(#SVGID_00000004519489134776042340000006203137024707529601_);fill:url(#SVGID_00000121995111551054894270000006624246381875159989_);}
	
		.st18{clip-path:url(#SVGID_00000004519489134776042340000006203137024707529601_);mask:url(#SVGID_00000063595112008711266700000011980386299360757945_);fill:none;}
	.st19{clip-path:url(#SVGID_00000024694477782154288610000006351793502796311195_);}
	.st20{filter:url(#Adobe_OpacityMaskFilter_00000181079135515345804370000017959822397112124605_);}
	
		.st21{clip-path:url(#SVGID_00000052792595655569871520000006126613425024514488_);fill:url(#SVGID_00000018951487424674813670000009130903025349883296_);}
	
		.st22{clip-path:url(#SVGID_00000052792595655569871520000006126613425024514488_);mask:url(#SVGID_00000101085488176606388710000003408063403526648992_);fill:none;}
	.st23{clip-path:url(#SVGID_00000007426340494438108940000006160272460539301780_);}
	.st24{filter:url(#Adobe_OpacityMaskFilter_00000069367951382753670910000001311946233427532472_);}
	
		.st25{clip-path:url(#SVGID_00000141420147313363591540000007384017774764404904_);fill:url(#SVGID_00000150799043335278824190000016141237160246148243_);}
	
		.st26{clip-path:url(#SVGID_00000141420147313363591540000007384017774764404904_);mask:url(#SVGID_00000119836422514403178630000002618104298946364046_);fill:none;}
	.st27{fill:#FFDD00;}
	.st28{fill:#F0CC9E;stroke:#000000;stroke-width:3.5685;stroke-miterlimit:10;}
</style>
<g>
	<defs>
		<rect id="SVGID_1_" width="500" height="500"/>
	</defs>
	<clipPath id="SVGID_00000127025639420218083710000017085517528835627904_">
		<use xlink:href="#SVGID_1_"  style="overflow:visible;"/>
	</clipPath>
	<g style="clip-path:url(#SVGID_00000127025639420218083710000017085517528835627904_);">
		<g>
			<path class="st1" d="M423.2,328.2c-1,0-10.6-0.3-10.6-0.3l-20.5-3.8l-14.7,0.3l-10.3-1.9l-12.2,1l-13.8-1.3l-36.2,3.2l-21.2,0.6
				c0,0-203.4-0.3-204.7-0.3c-1.3,0-9,1.9-9,1.9s-3.8,5.4-4.8,5.4c-1,0-34,2.2-34,2.2l-16.3,3.2l-13.1,1l6.7,14.7l8,7.1l7.7,13.1
				l8,3.8l11.2,14.1l8.7,4.8l18,1.9l9.9,0.3l377.8-8.7l9-6.1l6.7-9.6l4.5-9.9l4.5-5.5l4.2-4.8l11.9-7.1l-1.3-4.5l-21.5-2.6l-1.3-5.8
				l-11.9-3.8l-16.7-2.6l-14.1,1L423.2,328.2z"/>
		</g>
		<g>
			<path d="M414.3,326.8c3.6-0.6,7-1.4,10.6-1c1.8,0.2,3.6-0.1,5.4-0.1c2.1,0,2.3,0.2,2.3,2.3c0,0.2,0,0.3,0.1,0.6
				c0.6-0.2,1.1-0.5,1.6-0.6c2.6-0.5,5.2-0.9,7.8-1.3c3.1-0.6,6.1-0.1,9.2-0.2c2.4-0.1,4.4,1.1,6.5,2c1.2,0.5,2.6,0.9,4,1
				c2.2,0.2,4.4,0.2,6.5,1.1c0.6,0.3,1.4,0.1,2,0.4c1.1,0.4,2.5,0.7,3.3,1.5c2.5,2.9,3.6,2.9,3.7,7.5c0.8-0.2,1.6-0.6,2.3-0.5
				c1.5,0.1,3.1,0.3,4.6,0.7c1.6,0.4,3,1.2,4.7,1.3c1.4,0,2.8,0,4.2,0c1.2,0,2.5,0.1,3.7,0.3c2.6,0.3,3.9,3.2,2.8,5.7
				c-1.2,2.8-3.3,4.6-5.6,6.1c-1.7,1.1-3.3,2.2-5,3.2c-0.6,0.4-1.3,0.6-2,0.7c-2.8,0.6-2.8,1.4-3.2,3.9c-0.4,2.5-1.6,4.5-3.9,5.7
				c-1,0.5-1.8,1.2-2.1,2.4c-0.8,3.2-2.3,6-4.5,8.4c-0.4,0.4-0.6,1.1-0.8,1.6c-0.9,1.9-2.4,3.3-3.7,4.9c-1.5,1.9-3.2,3.5-5.3,4.7
				c-0.3,0.2-0.7,0.3-1,0.5c-1.2,0.8-2.4,1.5-3.6,2.4c-0.8,0.6-1.4,1.4-2.6,1c-0.6-0.2-1.1-0.5-1-1.4c0.1-0.5-0.3-1.1-0.4-1.6
				c0.4-0.5,0.8-1,1.3-1.4c0.6-0.5,1.2-1.2,1.9-1.2c2-0.2,3.5-1.4,4.9-2.5c2.2-1.7,4.2-3.9,6.1-5.9c0.4-0.5,0.8-1.4,0.7-2
				c-0.5-1.3,0.4-1.8,1-2.5c0.7-0.9,1.6-1.6,2.3-2.5c1.4-2.1,2.1-4.5,2.6-7.1c0.1-0.7,1.2-1.5,2-1.9c2.7-1.2,3.2-3.6,3.3-6.2
				c0-0.9,0-1.7,1-2.1c0.2-0.1,0.6-0.3,0.6-0.5c0.8-2.8,3.3-2.4,5.3-2.8c1.4-0.2,2.6-0.7,3.4-1.9c0.2-0.4,0.7-0.8,1.1-0.8
				c1.9-0.2,2.7-1.9,4.3-3.2c-1.7-0.1-3.1-0.1-4.4-0.3c-2.3-0.3-4.6-0.8-7-1.1c-2-0.3-4.1-0.5-6.1-0.9c-1-0.2-1.9-0.6-2.9-1
				c-0.8,1.2-1.3,1.3-2.2-0.4c-0.5-1-0.8-2.2-1.2-3.2c-0.1-0.2,0-0.3,0-0.5c0.4-1.3,0-2.1-1.4-2.5c-2.3-0.7-4.5-1.4-6.9-1.6
				c-1.9-0.2-3.7-1.3-5.6-1.7c-1.8-0.5-3.6-0.7-5.5-1c-2.2-0.3-4.5-0.4-6.7-0.8c-3.7-0.8-7.4-0.9-11.1-0.8c-2.6,0.1-5.2,0.5-7.8,0.6
				c-2.3,0.1-4.7-0.1-7-0.2c-2-0.1-4.1-0.5-6-0.2c-1.2,0.2-1.7-0.4-2.5-0.7c-1.6-0.6-3.2-1-4.9-1.5c-1.1-0.3-2.3-0.6-3.5-0.8
				c-1.7-0.3-3.5-0.6-5.2-0.7c-4.1-0.1-8.2,0-12.4-0.1c-2.4,0-4.7-0.4-7.1-0.5c-0.9,0-1.8,0.2-2.7,0.1c-1.7-0.1-3.2-0.3-4.8-1.1
				c-2.6-1.3-5.6-0.5-8.4-0.6c-3.1-0.1-6.3-0.1-9.4,0c-2,0-4.1,0.2-6.1,0.3c-1.8,0.1-3.6,0.2-5.4,0.3c0,0-4.1,1.6-6.4,1.1
				c-2.3-0.5-9.2-0.4-11.7-0.1c-2.5,0.3-9,1.8-10.2,1.2c-1.2-0.6-5.1,0.1-5.3,0.1c-0.4,0-0.8,0.1-1.2,0c-4.3,0-8.6-0.2-12.9-0.2
				c-4.9,0-186.8,0.1-191.7,0.2c-2.6,0-5.2,0.2-7.8,0.3c-0.6,0-1.3-0.2-1.9-0.2c-2.9,0-5.7,0.1-8.6,0.2c-2.2,0.1-4.4,0.2-6.7,0.3
				c-0.5,0-0.9,0.2-1.4,0.3c-1.2,0.3-2.5,0.5-3.6,1.1c-1,0.5-1.9,0.9-3.1,1.1c-1.2,0.2-2.1,0.7-2,2.4c0,2.2-0.8,3.2-3.1,3.3
				c-2.3,0.2-4.6-0.1-6.9-0.2c-1.5-0.1-3-0.3-4.2,0.7c-0.2,0.2-0.6,0.2-0.9,0.1c-3.2-0.2-6.4-0.5-9.5-0.5c-2.5,0-5,0.4-7.6,0.6
				c-0.2,0-0.4,0-0.5,0.1c-2.4,1.5-5.1,0.9-7.7,0.8c-2.2-0.1-3.8,0.9-5.6,2c-0.3,0.2-0.6,0.4-1,0.5c-1,0.3-2.1,0.7-3.2,0.7
				c-2.2,0.1-4.4,0-6.6,0c-2,0-4,0-5.9,0.1c-0.9,0.1-1.2,1-0.9,1.7c0.9,1.9,1.6,3.9,2.6,5.7c1.2,2.2,2.5,4.5,4.1,6.4
				c1.2,1.5,3.1,2.5,4.5,3.8c1.4,1.2,2.2,2.7,2.8,4.5c0.6,1.8,1.8,3.5,3,5.1c1.5,1.8,3.1,3.5,4.9,5c1.3,1.1,3.1,1.7,4.6,2.6
				c0.5,0.3,0.8,0.8,1.2,1.2c1.8,1.8,3.2,3.9,4.4,6.1c0.6,1.1,1.6,2,2.6,2.8c1.8,1.6,3.6,3.2,5.5,4.6c1.4,1.1,3.1,1.8,4.6,2.8
				c0.8,0.5,1.6,1.1,2.1,1.8c0.8,1,1.8,1,2.8,1.3c2.4,0.8,4.9,0.5,7.4,0.5c2.9,0,5.9,0.7,8.8,1.1c1.2,0.1,2.4,0.1,3.6,0
				c1.4-0.1,3-0.5,4.4-0.4c0.9,0.1,2.2,0,2.2,1.2c0.1,1.2-0.3,2.4-0.6,3.6c-0.1,0.3-0.8,0.6-1.1,0.6c-1.1-0.2-2.2-0.5-3.3-0.8
				c-0.7-0.2-1.5-0.3-2.2-0.4c-2.1-0.3-4.2-1.1-6.2-0.9c-2.9,0.2-5.5-1.1-8.3-0.9c-0.3,0-0.7,0.1-1,0.2c-1.6,0.5-3.1,0.6-4.6-0.4
				c-1-0.6-2.2-0.7-3.3-1.1c-0.8-0.3-1.6-0.7-2.3-1.3c-1.7-1.5-3.2-3-5.4-4c-1.6-0.7-2.6-2.6-3.8-4c-1.4-1.7-3-3.4-4.1-5.3
				c-1-1.6-2.5-2.4-3.7-3.6c-2.1-2.2-4.9-3.2-7.4-4.5c-1.2-0.6-1.8-1.7-2.5-2.6c-1.2-1.5-2.1-3.3-3-5c-0.9-1.6-1.6-3.3-2.4-4.9
				c-0.2-0.4-0.6-0.8-1-1.2c-1.2-1.5-2.2-3.1-3.9-4.2c-2.6-1.7-4.6-4-5.3-7.1c-0.2-0.8-0.8-1.5-1.3-2.3c-0.4-0.6-0.8-1.1-1.1-1.7
				c-0.9-1.9-1.7-3.8-2.6-5.8c-0.5-1.1,0.4-2.4,1.6-2.6c2.2-0.4,4.3-1,6.5-1.3c1.1-0.2,2.4-0.1,3.5,0.1c2,0.3,3.8,0.1,5.7-0.7
				c1-0.5,2.2-0.7,3.2-1.1c1-0.4,2.3-0.4,3.2-1.1c1.7-1.2,3.5-0.5,5.3-0.5c0.6,0,1.3-0.2,1.9-0.2c2.4-0.1,4.8-0.1,7.3-0.2
				c0.3,0,0.6,0,0.9-0.2c2-1.1,4.2-0.5,6.3-0.5c1.3,0,2.6-0.2,4-0.2c1.4-0.1,2.7-0.9,4.1,0c1.5-1,3.3,0.7,4.8-0.5
				c0.5-0.4,1.5-0.2,2.1,0c2.6,0.8,3.4,0.4,4.2-2.2c0.3-1,0.8-1.8,2.1-1.9c0.6,0,1.2-0.3,1.6-0.6c0.8-0.5,1.4-1.1,2.5-0.7
				c0.2,0.1,0.5-0.3,0.8-0.5c1-1,2.2-1.7,3.7-1.7c2.1,0,4.1-0.5,6.2-0.5c4.5-0.1,8.9-0.7,13.4-0.3c3.9,0.3,184.9,0.3,188.8,0.6
				c1.9,0.1,3.8,0.8,5.7,0.8c3,0,6.1,0.3,9.1-1.1c0.6-0.3,1.5,0,2.2,0c0.6,0,1.1-0.1,1.7-0.2c1.4-0.1,2.7-0.3,4.1-0.4
				c0,0,7.7,0,12-1c4.3-0.9,5.6-2,9.6-1.2s10,0.2,11-0.3s2.3-1,4.3-0.6c1.5,0.3,3,0.6,4.5,0.9c0.5,0.1,1,0.1,1.5,0.2
				c0.6,0.2,1.4,0.3,1.7,0.7c0.5,0.8,1,0.6,1.8,0.6c1.4-0.1,2.8-0.6,4.2,0.1c0.6,0.3,1.4,0.1,2.1,0c2.3-0.4,4.6-1,6.9-1.4
				c0.9-0.2,1.8-1,2.7,0.2c0.1,0.1,0.7-0.1,0.9-0.3c1.2-1,2.7-0.7,4.1-0.6c0.5,0,0.8,0.7,1.3,1c0.4,0.3,0.8,0.8,1.3,0.9
				c1.9,0.2,3.8,0.4,5.7,0.5c1.1,0,2.2-0.4,3.3-0.5c1.9-0.2,3.9-0.5,5.8-0.4c1.3,0,2.6,0.7,3.9,0.8c1.3,0.1,2.6,0,3.9,0
				c0.5,0,1.1,0.3,1.6,0.3c0.7,0.1,1.5,0.2,2.2,0.2c0.5,0,1-0.1,1.4,0c2.5,0.3,5.1,0.7,7.6,1.1C413.2,324.3,413.9,325.5,414.3,326.8
				"/>
		</g>
		<g>
			<g>
				<path d="M300.3,324c-6.9,0-13.9-0.2-20.9,0.1c-3.4,0.1-6.7,0.6-10.1,0.5c-1.7,0-3.4-0.3-5-0.4c-1.7-0.1-3.3,0-5,0
					c-6.9,0.2-13.7-0.2-20.6-0.3c-3.4-0.1-6.9-0.4-10.3-0.2c-1.1,0.1-2.1,0.4-3.3,0.4c-1.1,0-2.1,0-3.2,0c-1,0-1.8,0.2-2.7,0.6
					c-1.2,0.6-2.4,1.1-3.7,1.2c-2.7,0.1-4.7-1.7-6.8-3.1c-2.8-1.8-5.5-0.6-8.5,0.1c-3.3,0.7-6.6,1.3-9.9,1.6
					c-6.6,0.7-13.3,0.5-19.9-0.3c-3.4-0.4-6.7-1-10.1-1.3c-3.4-0.2-6.6,0-9.9,0.6c-1.9,0.4-3.8,0.8-5.8,0.8c-2,0-3.9-0.3-5.8-0.5
					c-3.8-0.5-7.6-0.5-11.5-0.3c-7.8,0.4-15.7,1-23.5,1.5c0.3,0.1,0.7,0.3,1,0.4c-0.1-0.1-0.3-0.2-0.2-0.4c0.7-0.9,0.3-2.5-1-2.4
					c-6.9,0.2-13.9,0.4-20.8,0.5c-1.7,0-3.3,0.1-5,0.1c-1.5,0-3.1,0-4.6,0.2c-2.3,0.4-4.4,1.7-4,4.3c0.3,1.8,3,1,2.7-0.8
					c-0.1-0.4,1.5-0.7,1.7-0.7c1.3-0.2,2.6-0.1,3.9-0.2c2.9-0.1,5.8-0.2,8.7-0.2c5.8-0.2,11.6-0.3,17.4-0.5c-0.3-0.8-0.7-1.6-1-2.4
					c-0.8,1-1.1,2.2-0.6,3.4c0.7,1.6,2.2,1.4,3.7,1.3c3.6-0.2,7.3-0.5,10.9-0.7c7.2-0.5,14.4-1.2,21.5-0.4c3.6,0.4,6.9,0.8,10.5,0.1
					c3.6-0.7,6.9-1.3,10.5-1.1c3.5,0.2,6.9,0.8,10.3,1.2c3.4,0.4,6.7,0.7,10.1,0.8c6.9,0.1,13.9-0.5,20.6-2c1.5-0.3,3.3-1.1,4.9-1.1
					c1.5,0,2.7,1.3,3.8,2c2.2,1.4,4.6,2.4,7.2,2c1.3-0.2,2.5-0.7,3.7-1.3c0.9-0.5,1.8-0.4,2.9-0.4c2.6,0,5-0.5,7.6-0.4
					c7.1,0.2,14.3,0.4,21.4,0.5c3.9,0.1,7.9-0.3,11.8,0c1.9,0.1,3.8,0.4,5.8,0.4c2,0,4-0.1,6-0.3c8.1-0.6,16.3-0.3,24.5-0.3
					C302.1,326.8,302.1,324,300.3,324L300.3,324z"/>
			</g>
		</g>
		<g>
			<g>
				<path d="M456.7,390.3c-5.7,0.1-11.5,0.1-17.2,0.2c-5.5,0.1-10.9,1-16.4,0.6c-5.5-0.5-11.1,0-16.6-0.1
					c-5.6-0.1-11.2-0.1-16.8-0.2c-2.5,0-4.9-0.1-7.4,0.4c-1.6,0.4-3.3,0.3-4.9,0.4c-2.1,0-4,0.4-6.1,0.6c-1.7,0.1-3.2-0.6-4.9-0.7
					c-1.5-0.1-3,0-4.5-0.1c-0.5,0-0.7-0.1-1.4-0.1c-0.8-0.1-1.6-0.1-2.4-0.1c-3.9,0-7.5,1.4-11.3,1.8c-4.3,0.5-8.7,0-13-0.5
					c-2.5-0.3-4.8-0.5-7.3,0c-2.4,0.5-4.7,1.2-7.2,1c-1.8-0.1-1.8,2.7,0,2.8c2.1,0.1,4.2-0.4,6.3-0.8c2.2-0.5,4.1-0.7,6.3-0.4
					c4,0.5,8.1,1,12.1,0.9c2-0.1,4-0.3,6-0.6c1.9-0.3,4.1-1.1,5.9-1.3c3-0.3,5.3,0.1,8.2,0.2c1.5,0,2.7,0.1,4.1,0.5
					c2.1,0.6,4.1,0.2,6.2-0.1c1.8-0.3,3.7-0.2,5.6-0.3c1.9-0.1,3.7-0.7,5.5-0.7c5.7,0,11.3,0.1,17,0.2c2.8,0,5.6,0.1,8.4,0.1
					c2.7,0,5.4-0.2,8.1-0.2c3.1,0,6.1,0.5,9.1,0.4c3.1-0.2,6.1-0.5,9.2-0.6c6.5-0.2,12.9-0.2,19.4-0.2
					C458.6,393.1,458.6,390.3,456.7,390.3L456.7,390.3z"/>
			</g>
		</g>
		<g>
			<g>
				<path d="M321,393.2c-8.6,0.2-17.1,0.1-25.7,0.9c-2.1,0.2-4.2,0.4-6.3,0.3c-2-0.1-4-0.4-6-0.3c-4.2,0.1-8.4,0.3-12.6,0.3
					c-4.3,0-8.5,0-12.8-0.1c-2.1,0-4.3,0-6.4,0c-1.8,0-3.3,0.2-5,0.6c-2.6,0.5-5.4,0.2-8,0.6c-1.5,0.2-3,0.6-4.4,0.3
					c-1.1-0.2-2-0.6-3.2-0.6c-2.1-0.1-4.2-0.1-6-0.2c-2.6-0.1-5,0.1-7.5,0.7c-3,0.8-6.1,1.3-9.3,1.4c-3,0.1-6-0.2-8.9-0.6
					c-1.7-0.2-3.5-0.5-5.2-0.5c-1.5,0.1-3.1,0.4-4.6,0.8c-1.5,0.3-3.1,0.7-4.7,0.8c-1.7,0-3.2-0.5-4.7-1.1c-1.4-0.6-2.8-1.1-4.3-1.3
					c-1.7-0.2-3.5,0.4-5.2,0.8c-2,0.5-4,0.8-6,0.7c-2.1-0.1-4.2-0.4-6.3-0.6c-8.5-0.6-17.1,0.7-25.5,1.4c-2.1,0.2-4.1,0.4-6.2,0.5
					c-0.3,0-0.7,0-1,0.1c-0.1,0,0.5,0.2,0,0.1c-0.1,0-0.3-0.1-0.4-0.1c-0.4-0.1-0.7-0.1-1.1-0.1c-2-0.1-3.9,0-5.9,0
					c-0.4,0-0.8,0-1.2,0c-0.1,0-0.4,0-0.3,0c0.2,0,0,0,0,0c0,0,0,0,0,0c-0.7-0.2-0.5,0.4,0.7,1.9c0.6-0.9-0.2-2.2-1.2-2.1
					c-4.2,0.2-8.4,0.6-12.5,1c-2,0.2-4,0.4-5.9,0.5c-1.6,0.1-3.2,0.3-4.8,0.2c-4.8-0.3-9.6-1.2-14.4-1.4c-1.7-0.1-5-0.2-4.6,2.4
					c0.3,1.8,3,1,2.7-0.8c0.2,1-0.1,0.8-0.5,1.3c0.2-0.2-0.2,0.5-0.1,0.1c0,0,0.3-0.1,0.3-0.1c0.3,0-0.1,0,0.2,0c0.2,0,0.4,0,0.6,0
					c1,0,2,0,2.9,0.1c2.5,0.2,5.1,0.5,7.6,0.7c1.8,0.2,3.6,0.5,5.5,0.6c3.4,0.1,6.9-0.4,10.3-0.7c4.3-0.4,8.6-0.8,12.9-1
					c-0.4-0.7-0.8-1.4-1.2-2.1c-0.7,0.9,0.1,2,1,2.3c0.7,0.2,1.5,0.2,2.2,0.2c2,0,4-0.1,6,0c0.2,0,0.3,0,0.2,0c0.1,0,0.4,0.1,0.1,0
					c-0.4-0.1,0.2,0.1,0.2,0.1c0.2,0,0.4,0,0.6,0c0.7,0,1.3-0.1,2-0.2c2.1-0.2,4.3-0.4,6.4-0.5c4.4-0.4,8.7-0.8,13.1-1.1
					c4.3-0.3,8.6-0.5,12.9-0.1c2.2,0.2,4.4,0.5,6.6,0.4c1.9-0.1,3.8-0.5,5.7-1c1.7-0.4,3.3-0.8,5-0.2c1.6,0.5,3,1.3,4.6,1.7
					c3.4,0.9,6.6,0,9.9-0.7c3.3-0.7,6.7,0,10,0.3c2.9,0.3,5.8,0.5,8.7,0.2c1.5-0.1,3-0.3,4.5-0.6c1.8-0.3,3.5-0.9,5.3-1.3
					c1.9-0.4,4.4-0.1,6,0c2.1,0.2,4.4-0.3,6.3,0.3c3.1,1,6.2-0.2,9.3-0.2c1.3,0,2.7-0.1,4-0.2c1.4-0.2,2.8-0.6,4.2-0.7
					c4.3-0.1,8.7,0,13,0.1c4.4,0,8.7,0.1,13.1,0c2.1,0,4.3-0.1,6.4-0.2c2.1-0.1,4.1,0.1,6.2,0.3c4.3,0.3,8.5-0.5,12.8-0.7
					c4.5-0.2,8.9-0.2,13.4-0.3c2.2,0,4.3-0.1,6.5-0.1C322.8,396,322.8,393.2,321,393.2L321,393.2z"/>
			</g>
		</g>
	</g>
	<g style="clip-path:url(#SVGID_00000127025639420218083710000017085517528835627904_);">
		<polygon class="st2" points="189.5,106.8 202.1,106.8 238.1,108 274.2,108.9 299.8,108.9 316.6,108.9 318.5,110.8 319.1,130.6 
			316.6,171.8 315.4,181 315.4,192.7 314.8,196.5 305.1,197 285.3,196.4 276.8,195.5 263.3,195.5 219.8,194.2 185.7,194.1 
			185.7,188.5 185.2,149.2 186.7,137.3 186.7,122.2 		"/>
		<g>
			<polygon class="st3" points="265.3,119.5 270.2,124.5 271.2,129 277.9,122.9 282.8,121.3 287.2,122.7 290.5,126.6 287.2,137.7 
				280.7,144.6 274,150.9 267.7,146 261.1,140.4 257.2,134.1 256,125.4 258.8,121.3 			"/>
			<polygon class="st4" points="253.7,108.5 260,109.6 259.6,96.5 254.6,95.8 			"/>
			<polygon class="st4" points="255.9,196.4 253,236 250.7,271.9 247.4,271.9 248.9,224 252.6,195.3 			"/>
			<polygon class="st4" points="246.2,300.4 250.7,299 250.1,310.6 247.8,315.8 244.9,314.2 			"/>
			<polygon class="st5" points="281.3,264.2 290.3,262.9 289.9,249.7 293.5,236.2 300.7,229.4 310.7,226 321,225.8 328.5,224 
				341.2,226.7 348.9,225.3 357,230.5 361.7,236.6 363.3,244.6 362,254.9 353.1,270.1 361.5,270.3 369.7,266 375.8,255.4 372.1,245 
				371.2,236.6 365.6,226 358.3,218.1 347,213.8 335.1,212 330.5,213.8 322.2,213.1 309.3,216.1 304.1,215.6 292.6,219 287.6,228.3 
				280.6,236.9 274.9,242.7 273.6,252.2 			"/>
			<polygon class="st6" points="147,315.1 155.8,316.4 183.4,317.1 209.4,319.8 208.9,346.3 181.6,345.6 176.6,339.3 173.4,346.3 
				142.5,343.8 			"/>
			<polygon class="st7" points="155.3,316.6 154.3,322.6 154.1,329.2 154.2,333.3 153.3,343.3 159.5,344.7 161.9,343.6 162.8,335.7 
				163.5,324.1 164,319.1 163.7,316.4 			"/>
			<polygon class="st7" points="172.3,317.5 180.8,318 177.4,337.7 173.4,345.1 170.8,345.4 171.8,335.3 			"/>
			<polygon class="st7" points="190,319.3 196.4,321 194.1,344.1 185.8,343 			"/>
			<polygon class="st7" points="204.5,320.3 208.7,320.5 208.3,343.9 201.5,344.5 202.8,331.6 203.7,322.1 			"/>
			<polygon class="st8" points="293.2,297.4 303.2,288.2 314,286.8 320.1,287.5 325.6,295.6 337.6,286.8 346.8,285.7 353.4,290 
				353.6,318.5 353.4,329.3 351.3,332 291.7,331.8 			"/>
			<polygon class="st9" points="301.1,291.1 307.1,288 307.9,289.3 307.1,291.5 305,291.6 303.3,295.2 301.1,293 			"/>
			<polygon class="st9" points="316.3,287.4 313.4,289.9 312.1,292.5 312.2,293.6 316.2,293 316.6,295.8 317.9,297 319.5,294.9 
				324,295.7 321.5,288.3 			"/>
			<polygon class="st9" points="327.5,295.7 327.2,299.6 325.2,302.4 323.1,301.5 321.1,303.7 318.8,303.7 318.6,302.1 323.3,296.1 
							"/>
			<g>
				<path class="st9" d="M305.1,302.6c0.3-0.2,3.8-2.5,3.8-2.5l1.5,0.5l0.3,1l-0.9,2.5l1.9,1.2l-0.3,1.2l-1.9,0.8l0.3,3.2l-0.9,1.3
					l-2.5-1.8l-2.2,0.4l-2.2,1.5l-1.3-0.6v-3.7l-1.9,0.7l-1.8-1.2l-0.6-1.7l1.8-1.4l3-1.5l1-4l1.4-0.4l1.1,1.3L305.1,302.6z"/>
				<polygon class="st9" points="321.9,311.1 324.6,308.1 325.3,309.4 325.5,311.4 327.6,311.6 328.8,312.1 328.4,314.5 
					325.2,316.5 324.1,319.5 323.2,320.1 321.1,318.6 320.6,317.4 317.2,319.4 315.7,318.2 316,316.1 318.5,312.8 318,310.2 
					318.2,308.7 319.8,308 				"/>
				<polygon class="st9" points="300.3,317.7 304.7,316 305.3,317.2 304.5,320.9 307.7,320.2 309.4,321 309,322.9 306.3,323.9 
					307.7,326.6 303.2,326.7 299.1,329.6 297.9,325.3 295.5,324.9 295.3,322.8 295.4,321 296.4,318.7 297.7,314.7 299,314.7 				"/>
				<polygon class="st9" points="321.2,327 324.8,325.2 325,327.8 327.1,330.5 314.9,331.4 314.4,330.1 314.1,325.9 316,325.5 
					317,326.4 319.9,322.5 321.8,322.9 				"/>
				<polygon class="st9" points="345.1,330.3 351.3,331.1 352.2,323 348.8,324.2 347.8,323.1 345.4,326.1 343.3,325.6 343,327.2 
									"/>
				<polygon class="st9" points="351.9,319.1 350.3,317.3 350,315.7 352.3,313.4 				"/>
				<polygon class="st9" points="339.3,287.4 344.6,286 349,287.6 351,290.9 346.7,292 346,294.3 344.9,295.7 343.1,293 
					342.7,291.1 339.7,292.8 338.4,290.8 				"/>
				<polygon class="st9" points="335.6,300.2 338.1,297.8 339.7,297.9 338.9,302.5 341.9,302.4 342.2,303.7 340.6,305.9 
					336.8,306.3 335.5,309.6 334.5,308.9 333.2,305.8 330.3,307.2 329.2,306.2 330.1,303.9 332.4,302.2 332.5,298.9 333.9,297.9 
					335.3,298.7 				"/>
				<polygon class="st9" points="353.1,299.7 352.2,309.7 349.5,310.9 348.7,310.3 348.6,307.2 345.7,307.6 345,306.8 346.7,304.2 
					348.2,304.1 348.6,302.8 348.6,300.1 349.7,300.2 350.4,301.1 352,299.6 				"/>
				<polygon class="st9" points="337.1,316.4 339.4,314.9 340.7,314.3 342.2,318.2 344.1,319.4 344.5,320.9 342.8,322.3 
					338.8,321.2 338.2,323.4 336.8,324.2 335.1,321.7 332.8,322.5 332,322.1 332,319.9 334.7,318.5 335,315.2 				"/>
			</g>
			<polygon class="st10" points="144.5,326.2 140.7,328.4 138.6,328.2 135.5,321 136.1,305.4 140.9,290 150.2,283 160.1,278.5 
				147.4,271 139.8,262.2 135,251.8 131.6,247.3 133.2,243.9 137.3,240.9 138.8,230.1 145,219.7 154.9,212.9 173.2,209.5 
				188.1,211.8 203.3,217 212.1,224.9 217.5,236.4 217.5,246.4 220.7,252 219.8,254.9 215.7,257.4 204.4,274.6 226.3,276 
				236.7,277.3 248,273.3 253.5,277.6 251.2,282.1 254.6,283.4 280.4,281.6 301.6,276.2 292.6,264.2 289.4,259.9 291.4,243.2 
				294.8,234.8 302.3,228.5 311.6,226 320.1,226 326.7,224.2 339.6,226.2 346.1,225.3 352.9,226.9 361.5,236 363.5,242.3 
				362.2,253.1 357.4,263.8 352.9,271 345.7,274.8 344.8,277.8 354.1,277.8 363.3,282.8 366.3,292.5 365.4,302.2 362.9,309.4 
				353.8,316 354.5,304.5 353.8,291.3 349.1,286.6 342.1,285.7 333.3,288.6 326,295.4 320.1,287.5 311.8,286.4 305.7,287.5 
				299.1,290.9 291.4,298.8 290.3,288.4 285.8,287.7 255.9,293.8 250.3,298.8 246.7,298.8 243.3,294.7 245.5,290.2 241.5,285.9 
				228.8,283.9 210.7,286.4 210.1,299 211.2,309.9 209.8,318.9 201.5,320.1 182.7,317.3 167.8,316.2 146.8,314.6 			"/>
			<polygon class="st10" points="303.9,331.6 313.8,332.3 310,359.6 306.8,362.6 303.4,362.6 			"/>
			<polygon class="st10" points="338,332.5 345.5,332.7 345.1,358.4 341.8,361.5 336.3,362.4 			"/>
			<g>
				<g>
					<g>
						<defs>
							<rect id="SVGID_00000055684768807775613410000010545665566534519452_" x="186.4" y="259.8" width="13.1" height="12.9"/>
						</defs>
						<clipPath id="SVGID_00000106107857327097038820000006536523733191877795_">
							<use xlink:href="#SVGID_00000055684768807775613410000010545665566534519452_"  style="overflow:visible;"/>
						</clipPath>
						<g style="clip-path:url(#SVGID_00000106107857327097038820000006536523733191877795_);">
							<defs>
								<path id="SVGID_00000096045608103892078420000006028222422298120112_" d="M186.4,266.3c0,3.6,2.9,6.4,6.6,6.4
									c3.6,0,6.6-2.9,6.6-6.4c0-3.6-2.9-6.4-6.6-6.4C189.3,259.8,186.4,262.7,186.4,266.3"/>
							</defs>
							<clipPath id="SVGID_00000137130044584267639240000001622997236167021212_">
								<use xlink:href="#SVGID_00000096045608103892078420000006028222422298120112_"  style="overflow:visible;"/>
							</clipPath>
							<defs>
								<filter id="Adobe_OpacityMaskFilter" filterUnits="userSpaceOnUse" x="186.4" y="259.8" width="13.1" height="12.9">
									<feColorMatrix  type="matrix" values="1 0 0 0 0  0 1 0 0 0  0 0 1 0 0  0 0 0 1 0"/>
								</filter>
							</defs>
							
								<mask maskUnits="userSpaceOnUse" x="186.4" y="259.8" width="13.1" height="12.9" id="SVGID_00000172410172352239473490000009027532438403727288_">
								<g class="st12">
									
										<radialGradient id="SVGID_00000073695344066384333650000007325340224371789975_" cx="-310.5462" cy="568.6649" r="0.6295" gradientTransform="matrix(10.3254 0 0 -10.3254 3399.457 6137.9604)" gradientUnits="userSpaceOnUse">
										<stop  offset="0" style="stop-color:#FFFFFF"/>
										<stop  offset="9.119124e-02" style="stop-color:#F1F1F1"/>
										<stop  offset="0.2626" style="stop-color:#CDCDCD"/>
										<stop  offset="0.4959" style="stop-color:#939393"/>
										<stop  offset="0.7788" style="stop-color:#434343"/>
										<stop  offset="1" style="stop-color:#000000"/>
									</radialGradient>
									
										<rect x="186.4" y="259.8" style="clip-path:url(#SVGID_00000137130044584267639240000001622997236167021212_);fill:url(#SVGID_00000073695344066384333650000007325340224371789975_);" width="13.1" height="12.9"/>
								</g>
							</mask>
							
								<rect x="186.4" y="259.8" style="clip-path:url(#SVGID_00000137130044584267639240000001622997236167021212_);mask:url(#SVGID_00000172410172352239473490000009027532438403727288_);fill:none;" width="13.1" height="12.9"/>
						</g>
					</g>
				</g>
				<g>
					<g>
						<defs>
							<rect id="SVGID_00000174582621480579075790000008607329050481624742_" x="148.2" y="258.8" width="13.1" height="12.9"/>
						</defs>
						<clipPath id="SVGID_00000101798390441321853080000005942445308135281847_">
							<use xlink:href="#SVGID_00000174582621480579075790000008607329050481624742_"  style="overflow:visible;"/>
						</clipPath>
						<g style="clip-path:url(#SVGID_00000101798390441321853080000005942445308135281847_);">
							<defs>
								<path id="SVGID_00000121258328838976466930000017992356028064061598_" d="M148.2,265.2c0,3.6,2.9,6.4,6.6,6.4
									c3.6,0,6.5-2.8,6.6-6.3v-0.2c0-3.5-3-6.3-6.6-6.3C151.1,258.8,148.2,261.6,148.2,265.2"/>
							</defs>
							<clipPath id="SVGID_00000165947379062503465660000013802675545902151064_">
								<use xlink:href="#SVGID_00000121258328838976466930000017992356028064061598_"  style="overflow:visible;"/>
							</clipPath>
							<defs>
								
									<filter id="Adobe_OpacityMaskFilter_00000062156211972626586120000008417365820687871900_" filterUnits="userSpaceOnUse" x="148.2" y="258.8" width="13.1" height="12.9">
									<feColorMatrix  type="matrix" values="1 0 0 0 0  0 1 0 0 0  0 0 1 0 0  0 0 0 1 0"/>
								</filter>
							</defs>
							
								<mask maskUnits="userSpaceOnUse" x="148.2" y="258.8" width="13.1" height="12.9" id="SVGID_00000178890421305568867450000015592117711453062839_">
								<g style="filter:url(#Adobe_OpacityMaskFilter_00000062156211972626586120000008417365820687871900_);">
									
										<radialGradient id="SVGID_00000044876095993714891740000000915592276920233642_" cx="-308.368" cy="568.6038" r="0.6294" gradientTransform="matrix(10.3254 0 0 -10.3254 3338.7637 6136.2544)" gradientUnits="userSpaceOnUse">
										<stop  offset="0" style="stop-color:#FFFFFF"/>
										<stop  offset="9.119124e-02" style="stop-color:#F1F1F1"/>
										<stop  offset="0.2626" style="stop-color:#CDCDCD"/>
										<stop  offset="0.4959" style="stop-color:#939393"/>
										<stop  offset="0.7788" style="stop-color:#434343"/>
										<stop  offset="1" style="stop-color:#000000"/>
									</radialGradient>
									
										<rect x="148.2" y="258.8" style="clip-path:url(#SVGID_00000165947379062503465660000013802675545902151064_);fill:url(#SVGID_00000044876095993714891740000000915592276920233642_);" width="13.1" height="12.9"/>
								</g>
							</mask>
							
								<rect x="148.2" y="258.8" style="clip-path:url(#SVGID_00000165947379062503465660000013802675545902151064_);mask:url(#SVGID_00000178890421305568867450000015592117711453062839_);fill:none;" width="13.1" height="12.9"/>
						</g>
					</g>
				</g>
				<g>
					<g>
						<defs>
							<rect id="SVGID_00000037661931638677470080000014009493964687640478_" x="296.4" y="258.1" width="13.1" height="12.9"/>
						</defs>
						<clipPath id="SVGID_00000044138079729296922670000014980208499317722289_">
							<use xlink:href="#SVGID_00000037661931638677470080000014009493964687640478_"  style="overflow:visible;"/>
						</clipPath>
						<g style="clip-path:url(#SVGID_00000044138079729296922670000014980208499317722289_);">
							<defs>
								<path id="SVGID_00000141424394116347187580000017424852939732748939_" d="M296.4,264.5c0,3.6,2.9,6.4,6.6,6.4
									c3.6,0,6.6-2.9,6.6-6.4c0-3.6-2.9-6.4-6.6-6.4C299.4,258.1,296.4,260.9,296.4,264.5"/>
							</defs>
							<clipPath id="SVGID_00000059283497162093333640000016481242226584921277_">
								<use xlink:href="#SVGID_00000141424394116347187580000017424852939732748939_"  style="overflow:visible;"/>
							</clipPath>
							<defs>
								
									<filter id="Adobe_OpacityMaskFilter_00000180342007442643229140000002995574179911953819_" filterUnits="userSpaceOnUse" x="296.4" y="258.1" width="13.1" height="12.9">
									<feColorMatrix  type="matrix" values="1 0 0 0 0  0 1 0 0 0  0 0 1 0 0  0 0 0 1 0"/>
								</filter>
							</defs>
							
								<mask maskUnits="userSpaceOnUse" x="296.4" y="258.1" width="13.1" height="12.9" id="SVGID_00000087379157063335732780000017703818925003427726_">
								<g style="filter:url(#Adobe_OpacityMaskFilter_00000180342007442643229140000002995574179911953819_);">
									
										<radialGradient id="SVGID_00000031924998892902333770000005648773278314638248_" cx="-316.8213" cy="568.5645" r="0.6294" gradientTransform="matrix(10.3254 0 0 -10.3254 3574.3115 6135.1592)" gradientUnits="userSpaceOnUse">
										<stop  offset="0" style="stop-color:#FFFFFF"/>
										<stop  offset="9.119124e-02" style="stop-color:#F1F1F1"/>
										<stop  offset="0.2626" style="stop-color:#CDCDCD"/>
										<stop  offset="0.4959" style="stop-color:#939393"/>
										<stop  offset="0.7788" style="stop-color:#434343"/>
										<stop  offset="1" style="stop-color:#000000"/>
									</radialGradient>
									
										<rect x="296.4" y="258.1" style="clip-path:url(#SVGID_00000059283497162093333640000016481242226584921277_);fill:url(#SVGID_00000031924998892902333770000005648773278314638248_);" width="13.1" height="12.9"/>
								</g>
							</mask>
							
								<rect x="296.4" y="258.1" style="clip-path:url(#SVGID_00000059283497162093333640000016481242226584921277_);mask:url(#SVGID_00000087379157063335732780000017703818925003427726_);fill:none;" width="13.1" height="12.9"/>
						</g>
					</g>
				</g>
				<g>
					<g>
						<defs>
							<rect id="SVGID_00000181047216263827581350000007269296080338053822_" x="335.9" y="258.5" width="13.1" height="12.9"/>
						</defs>
						<clipPath id="SVGID_00000072990258669303663870000014249353619128913340_">
							<use xlink:href="#SVGID_00000181047216263827581350000007269296080338053822_"  style="overflow:visible;"/>
						</clipPath>
						<g style="clip-path:url(#SVGID_00000072990258669303663870000014249353619128913340_);">
							<defs>
								<path id="SVGID_00000097472629419410661200000016771529390197776305_" d="M335.9,264.9c0,3.6,2.9,6.4,6.6,6.4
									c3.6,0,6.6-2.9,6.6-6.4s-2.9-6.4-6.6-6.4C338.8,258.5,335.9,261.4,335.9,264.9"/>
							</defs>
							<clipPath id="SVGID_00000098923610330594595790000013733010554770978485_">
								<use xlink:href="#SVGID_00000097472629419410661200000016771529390197776305_"  style="overflow:visible;"/>
							</clipPath>
							<defs>
								
									<filter id="Adobe_OpacityMaskFilter_00000073689600128245321410000000221330559666313621_" filterUnits="userSpaceOnUse" x="335.9" y="258.5" width="13.1" height="12.9">
									<feColorMatrix  type="matrix" values="1 0 0 0 0  0 1 0 0 0  0 0 1 0 0  0 0 0 1 0"/>
								</filter>
							</defs>
							
								<mask maskUnits="userSpaceOnUse" x="335.9" y="258.5" width="13.1" height="12.9" id="SVGID_00000050640690329994913110000009254455107937441175_">
								<g style="filter:url(#Adobe_OpacityMaskFilter_00000073689600128245321410000000221330559666313621_);">
									
										<radialGradient id="SVGID_00000178903902823596874000000007942133927965391757_" cx="-319.0703" cy="568.5902" r="0.6295" gradientTransform="matrix(10.3254 0 0 -10.3254 3636.9805 6135.8774)" gradientUnits="userSpaceOnUse">
										<stop  offset="0" style="stop-color:#FFFFFF"/>
										<stop  offset="9.119124e-02" style="stop-color:#F1F1F1"/>
										<stop  offset="0.2626" style="stop-color:#CDCDCD"/>
										<stop  offset="0.4959" style="stop-color:#939393"/>
										<stop  offset="0.7788" style="stop-color:#434343"/>
										<stop  offset="1" style="stop-color:#000000"/>
									</radialGradient>
									
										<rect x="335.9" y="258.5" style="clip-path:url(#SVGID_00000098923610330594595790000013733010554770978485_);fill:url(#SVGID_00000178903902823596874000000007942133927965391757_);" width="13.1" height="12.9"/>
								</g>
							</mask>
							
								<rect x="335.9" y="258.5" style="clip-path:url(#SVGID_00000098923610330594595790000013733010554770978485_);mask:url(#SVGID_00000050640690329994913110000009254455107937441175_);fill:none;" width="13.1" height="12.9"/>
						</g>
					</g>
				</g>
				<path class="st27" d="M164.1,216.6l-2,5.3l4.2,7.3c2,0.7,9.7-0.3,9.7-0.3c1.5,0.8,5.1-1.2,5.1-1.2c1.9,1,3.4-2.4,2.9-3.4
					c-0.5-1-3.1-2.9-3.1-2.9s-0.1-2.3,3.2-3.7c13.2-5.8,33.6,24.4,33.6,24.4l-4.4-17l-13.9-10.7l-27.6-5.8l-21.4,4.4l-9.7,13.9
					l-3.1,12.2C148.6,220.1,164.1,216.6,164.1,216.6"/>
				<path class="st2" d="M305.6,309.3c0,1,0.9,1.9,3.5,3.3h0C306.5,311.1,305.6,310.3,305.6,309.3"/>
				<path d="M285.9,119.8c-0.7-0.7-2.1-1.2-3-1c-2.9,0.7-5.6,2.1-7.7,4.2c-0.9,1-1.7,2.1-2.6,3.3c-1.2-3.1-2-6-5-7.6
					c-1.4-0.7-2.7-1.8-4.5-1c-1.3,0.6-2.7,0.9-3.9,1.6c-4.4,2.8-5.8,5.5-4.7,10.7c0.4,1.9,0.9,3.8,1.6,5.5c0.5,1.3,1.5,2.5,2.4,3.6
					c0.8,1,1.8,1.9,2.7,2.9c0.7,0.8,1.4,1.6,2.2,2.4c1.5,1.4,3,2.7,4.5,4c0.6,0.5,1.1,1.3,1.8,1.5c1.1,0.3,1.5,1.1,2.1,1.8
					c0.4,0.4,1.2,0.7,1.8,0.7c2-0.3,3.4-1.6,4.7-3.1c1-1.1,2-2.4,3.2-3.3c3.1-2.4,5.6-5.4,7.6-8.7c1.8-3,2.2-6.6,2.5-10.1
					c0-0.8-0.3-1.6-0.6-2.4C289.9,122.6,287.6,121.5,285.9,119.8 M287.7,128c-0.9,2.4-2,4.8-2.1,7.2c-0.1,2.7-2,3.8-3.4,5.3
					c-2.6,2.9-5.6,5.5-8.7,8.4c-1.1-1.1-1.8-2.2-2.8-2.9c-0.9-0.6-2.1-0.8-3-1.4c-0.9-0.5-1.7-1.3-2.4-2c-2.6-3-5.2-6.1-6.8-9.8
					c-0.4-0.9-0.5-1.9-0.4-2.9c0.1-1.9-0.8-3.7,0.1-5.6c0.9-1.9,2.4-3.1,4.2-3.6c1.5-0.4,2.9,0.9,4,2c1.5,1.5,1.9,3.6,2.2,5.6
					c0.1,0.4,0,0.9,0.2,1.3c0.3,0.7,0.9,1.9,1.2,1.9c0.9-0.2,1.9-0.7,2.6-1.3c2.2-2.1,3.8-4.9,6.7-6.2c1-0.5,2-1.1,3.1-1.2
					c0.9-0.1,1.9,0.3,2.8,0.6c0.6,0.2,1,0.8,1.5,1.1C288.5,125.7,288.5,125.9,287.7,128"/>
				<path d="M162.7,216.5c-1.9,3-1.7,6.2-0.5,9.2c0.7,1.7,1.7,3.4,3.8,3.7c0.9,0.2,1.3-0.2,0.9-1.1c-0.4-0.9-1-1.8-1.5-2.7
					c-1.9-3.3-1.3-6.7,0.1-10.2C164.1,214.9,163.4,215.4,162.7,216.5"/>
				<path d="M171.7,227.8c1,0.8,2.3,1.2,3.5,1.7c0.4,0.1,0.9-0.3,1.4-0.5c-0.2-0.4-0.4-0.8-0.8-1.1c-0.9-0.8-1.8-1.7-2.8-2.2
					c-2.5-1.2-3.2-3.7-3.2-5.8c0-1.9-0.6-2.1-1.9-2.3c-1,2.2-1.7,4.3,0.1,6.4C169.2,225.2,170.3,226.6,171.7,227.8"/>
				<path d="M174.3,258.2c-0.6-1.7-1.1-3.1-1.6-4.5c-1.4,2.3-0.4,4.4-0.1,6.5c0.1,0.6,1.5,1,2.3,1.6c0.8-1,1.5-1.7,2.2-2.5
					c0.5-0.5,1.2-1.1,1.3-1.7c0.2-0.9-0.1-1.8-0.2-2.7c-0.6,0.4-1.3,0.7-1.9,1.1C175.7,256.6,175.1,257.3,174.3,258.2"/>
				<path d="M150,247.4c-0.1-0.1-0.2-0.2-0.3-0.3c-0.8,0.9-1.7,1.7-2.4,2.7c-1,1.4-0.3,2.9,1.4,3.3c1.4,0.4,3.4-0.6,4.4-2.1
					c0.9-1.3,0.6-2.6-0.8-3.1C151.6,247.6,150.8,247.5,150,247.4"/>
				<path d="M172.9,270.6c2.8,0.2,5-0.8,7.3-3c-1.4-0.6-2.5-1-3.6-1.5c-1.4,0.4-1.8,2.6-3.6,2.1c-1.3-0.4-2.6-1-3.8-1.4
					C169,268.8,170.6,270.5,172.9,270.6"/>
				<path d="M195.9,253.2c0,1.3,1.3,2.4,2.9,2.5c1.5,0.1,3.3-1.4,3.3-3c0.1-1.3-1-2.6-2.4-2.7C198,249.9,195.9,251.6,195.9,253.2"/>
				<path d="M182.2,227.4c-0.2-0.4-0.4-0.8-0.6-1.1c-0.1-0.2-0.3-0.4-0.5-0.4c-2.6-0.5-3.1-2.4-3.1-4.6c0-1.1-0.1-2.4-1.8-2.1
					c-1.3,0.2-1.4,1.3-1.1,2.2c0.6,1.9,1.2,3.8,3,5C179.2,227.1,180.2,228.8,182.2,227.4"/>
				<path d="M183.9,224.7c0.3-0.3,0.2-1.1,0-1.6c-0.7-1.6-2-2.3-3.7-2.4c-0.1,0.2-0.3,0.4-0.3,0.5c0.8,1.3,1.5,2.5,2.4,3.7
					C182.6,225.1,183.7,225,183.9,224.7"/>
				<path d="M327.8,264.7c-0.8,1-1.9,2-3.1,2.5c-1.3,0.5-2.9,0.7-4.3,0.6c-0.5,0-0.9-1.2-1.5-1.7c-0.5-0.4-1.3-0.4-2.2-0.7
					c1.6,3.6,2.6,4.4,5.8,4.2c3.5-0.2,6.2-1.5,7.4-5.2C329,263.8,328.5,263.8,327.8,264.7"/>
				<path d="M322,259.7c0.2,0.1,0.6,0,0.9,0c2.1,0,2.8-1.7,3.7-3.1c0.4-0.6,1.6-1.3,0.4-2.1c-0.2-0.1-1.3,0.7-1.8,1.3
					c-0.8,1.1-1.3,2.4-3.1,2.6c-0.4-2-0.9-4-1.3-5.9c-0.2,0-0.4,0-0.6,0c-0.2,0.2-0.5,0.5-0.6,0.7
					C319.1,254.9,320.5,258.8,322,259.7"/>
				<path d="M347.5,246.4c-0.9,0-2,1.4-2,2.6c0,1.4,1.1,2.7,2.3,2.7c1.3,0,2.7-1.5,2.7-3C350.4,247,349.7,246.5,347.5,246.4"/>
				<path d="M300.3,246.2c-0.9,0.4-1.8,1.5-2.2,2.4c-0.4,1.1,1.4,2.7,2.5,2.7c0.8,0,2.1-1.4,2.1-2.4
					C302.7,247.7,301.2,245.8,300.3,246.2"/>
				<path d="M163.4,294.5c-0.7,0.3-1.3,0.9-2.1,1.5c0.7,0.9,1.1,1.9,1.5,1.9c1.4-0.1,1.3-1.5,1.5-2.5
					C164.4,295.2,163.5,294.5,163.4,294.5"/>
				<path d="M193.3,296.8c-0.1,0.1,0.7,0.9,1,0.9c0.7-0.2,1.3-0.7,2.4-1.4c-1-0.9-1.5-1.3-2-1.8
					C194.2,295.3,193.7,296.1,193.3,296.8"/>
				<path d="M310.7,302.8c0.8-1.1,0.9-2.2-0.3-3c-1-0.7-2.1-0.6-3.1,0.4c-0.5,0.6-1.2,1-2.1,1.7c0.1-0.6,0.3-1,0.2-1.3
					c-0.5-1-0.8-2.4-1.6-3c-1.1-0.8-2,0.2-2.4,1.3c-0.4,1-0.5,2.1-0.8,3.1c-1,0.5-2.1,1-3.2,1.6c-1.1,0.6-1.9,1.5-1.4,2.8
					c0.9,2.1,2.2,2.6,3.9,1.7c0,3.1,0.2,4.1,1.7,4.1c0.9,0,1.9-1,2.7-1.6c0.2-0.2,0-0.8,0-1.3c-0.9,0.4-1.3,1-1.8,1.5
					c-0.3,0.3-0.7,0.4-1.1,0.4c-0.2,0-0.5-0.6-0.4-0.9c0.2-1.2,0.6-2.3,0.9-3.4c0.1-0.3,0.1-0.7,0.1-1c-0.4,0-0.8-0.1-1.1,0.1
					c-0.8,0.4-1.5,1-2.3,1.5c-0.5-0.6-1.1-1.2-1.8-2c1.7-1,2.9-2.7,5.1-1.9c0.5-5.2,0.5-5.2,2.3-4.5c0.2,1.4,0.3,2.8,0.5,4.7
					c1.5-1.1,2.6-2,3.7-2.8c0.4-0.3,1.1-0.2,1.6-0.4c0.1,0.2,0.1,0.4,0.2,0.6c-0.6,1-1.2,2-2,3.4c0.6,0,1.1,0,1.5,0.1
					c0.5,0.1,1,0.1,1.3,0.4c0.1,0.1-0.1,0.7-0.1,1.1c-0.9-0.2-1.7-0.4-2.6-0.7c-0.3,1.9,2,3.6,0.1,5.6c-0.9-0.9-1.8-1.8-2.7-2.7
					c-0.1,0.3-0.2,0.5-0.2,0.7c0,1,0.9,1.9,3.5,3.3c1-1.2,1.4-2.5,1.3-3.7c0-0.4-0.2-0.8-0.3-1.2c0.9-0.7,2.2-1.3,2.2-1.8
					c-0.1-0.9-0.9-1.8-1.5-3C310.6,303.1,310.6,302.9,310.7,302.8"/>
				<path d="M309.1,312.6L309.1,312.6c1-1.2,1.4-2.5,1.3-3.7C310.5,310.1,310.1,311.4,309.1,312.6"/>
				<path d="M326.5,310.9c-0.2,0-0.3,0.1-0.6,0.1c0-0.7,0.1-1.3,0-1.8c-0.2-0.6-0.4-1.3-0.8-1.6c-0.2-0.2-1,0.4-1.5,0.7
					c-0.7,0.5-1.4,1.1-1.8,1.4c-1-1-1.7-1.8-2.5-2.6c-0.6,0.7-1.4,1.3-1.9,2.1c-0.5,0.9-0.2,1.8,1.1,2.6c-0.3-1.5-0.5-2.8,1.1-3.5
					c0.3,0.8,0.6,1.6,0.8,2.3c0.2,0.7,0.1,1.4,0.2,2.5c1.5-1.8,2.6-3,3.7-4.3c0.4,0.5,0.5,0.9,0.4,1.1c-0.5,2.1-0.1,2.5,1.9,2
					c1.1-0.3,1.7,0.2,1.5,1.3c-0.3,1.7-2.4,2.6-4.4,1.7c0.1,0.6,0.3,1.2,0.4,1.7c0.3,1.4-0.3,3-1.1,2.9c-1.2-0.2-1.4-1.2-1.5-2.2
					c0-0.4-0.4-0.9-0.8-1.1c-0.2-0.1-0.7,0.3-1.1,0.5c-1,0.6-1.9,1.3-3.1,2.1c-1.1-3.5,1.6-4.4,3-6.4c-0.5-0.1-1.2-0.3-1.4,0
					c-1.1,1.4-2.2,2.8-2.9,4.4c-0.6,1.3,1.2,3.2,2.4,2.7c1-0.4,1.9-1,2.9-1.5c0.1,0.2,0.2,0.5,0.4,0.7c0.8,0.7,1.6,1.5,2.5,1.8
					c0.3,0.1,1.5-1.2,1.5-1.9c0.1-1.5,1.2-1.9,2.1-2.6c0.3-0.2,0.7-0.3,1-0.5c0.9-0.7,1.7-3.1,1-3.9
					C328.5,311.1,327.4,311.1,326.5,310.9"/>
				<path d="M333.1,306.5c0.7,1.4,1.4,2.7,2,4c0.2,0,0.4,0,0.5,0c0.6-1.2,1.2-2.4,1.8-3.7c0.3,0,0.7,0,1.1,0c1.9,0.1,3.3-0.8,4-2.6
					c0.5-1.5-0.2-2.5-1.8-2.4c-0.9,0.1-1.7,0.3-2.5,0.5c0,0.2-0.1,0.4-0.1,0.7c0.6,0,1.3,0,1.9,0c0.6,0,1.1,0.1,1.7,0.1
					c-0.2,0.6-0.3,1.3-0.7,1.7c-0.4,0.4-1.1,0.6-1.8,0.7c-0.9,0-1.9-0.1-2.7-0.2c-0.4,1.2-0.7,2.4-1,3.6c-0.2,0-0.4-0.1-0.6-0.1v-4
					c-1.5,0.6-3.1,1.2-4.9,1.9c-0.3-2.9,2.2-2.8,3.6-3.8c-1.3-2-1.2-3.1,0.8-4.4c0.3,1.4,0.6,2.6,1,4.1c2.7-3.8,2.7-3.8,3.9-4
					c-0.2,1.1-0.5,2.2-0.7,3.3c0.2,0.1,0.4,0.1,0.7,0.2c0.4-1,1.2-2,1.3-3c0.2-1.7-1.2-2.4-2.7-1.4c-0.7,0.4-1.2,1-1.5,1.3
					c-1.2-0.5-2.1-1.2-3-1.2c-0.5,0-1.5,1.4-1.4,2c0.4,2-0.7,2.9-1.9,3.9c-0.3,0.2-0.5,0.5-0.8,0.8c-0.6,0.8-0.7,1.6,0.1,2.4
					c0.7,0.8,1.4,0.9,2.4,0.4C332,306.8,332.6,306.7,333.1,306.5"/>
				<path d="M336.4,323.4c0.1-1,0.2-1.8,0.2-2.5c0-0.3-0.1-0.6-0.2-0.8c-0.2,0.1-0.5,0.1-0.7,0.2c-1,0.5-1.9,1.1-3.2,1.9
					c0-1-0.3-2,0-2.2c0.8-0.6,1.9-0.8,2.8-1.1V316c0.1-0.1,0.3-0.1,0.4-0.2c0.4,0.6,0.8,1.3,1.3,1.9c1-1.1,2-2.1,3.1-3.2
					c0.3,0.2,0.5,0.4,0.8,0.7c-0.4,0.9-0.7,1.8-0.9,2.3c1.4,0.8,2.6,1.5,3.9,2.2c0.2-0.1,0.3-0.3,0.5-0.4c-2.4-1.2-3.1-2.9-2-5.2
					c-0.3-0.1-0.8-0.5-1-0.4c-1,0.4-1.9,1.1-2.9,1.5c-0.4,0.2-1,0.4-1.4,0.3c-0.8-0.2-1.5-0.7-2.6-1.2c-0.1,1.5-0.2,2.5-0.2,3.6
					c-2.7,1-3.4,2-2.7,3.7c0.6,1.4,1.2,1.4,3.5,0.4c0.7,1,1.3,2.1,2,3.1c0.2,0,0.4-0.1,0.6-0.1c0.3-0.7,0.6-1.4,0.9-2
					c-0.1-0.1-0.3-0.1-0.4-0.2C337.6,323,337.1,323.2,336.4,323.4"/>
				<path d="M337.5,318.4c-0.1-0.2-0.3-0.4-0.4-0.6c0,0,0,0,0,0C337.2,318,337.3,318.2,337.5,318.4"/>
				<path d="M305.9,320.2c-0.2,0.1-0.5,0-0.9,0.1c0.2-0.6,0.4-1.1,0.6-1.5c0.6-1.2,0.5-2.6-0.5-3.2c-0.6-0.4-2,0.3-2.9,0.8
					c-1.5,0.9-1.7,0.9-2.2-0.8c-0.2-0.7-0.8-1.4-1.4-1.8c-0.3-0.1-1.4,0.5-1.6,1c-0.5,1.2-0.6,2.6-0.9,3.9c0,0.3,0.2,0.6,0.3,0.9
					c1.4-4.3,1.4-4.3,2.5-4.5c0.2,1.4,0.5,2.7,0.7,4.1c0.2,0,0.3,0,0.5,0c0.2-0.5,0.3-0.9,0.3-1c0.9-0.3,1.5-0.5,2.1-0.8
					c0.7-0.3,1.3-0.6,2.2-1c0.2,2.1-1.8,3.9,0.1,5.5c1.3-0.6,2.5-1.7,4.1-0.6c-0.1,1.1-0.5,1.8-1.9,1.4c-0.9-0.2-1.8,0.2-1.4,1.3
					c0.4,1.1,1.3,2,1.9,3c0.3-0.6,0.3-1.2,0.1-1.6c-0.2-0.5-0.7-0.9-0.9-1.2c1-0.5,2.1-0.9,2.7-1.6c0.4-0.4,0.4-2,0.2-2.1
					C308.6,320.1,307.3,319,305.9,320.2"/>
				<path d="M339.4,320c-0.3,0.4-0.7,0.9-1,1.3c0.7,0.2,1.3,0.3,1.8,0.6c0.7,0.3,1.3,0.8,2.1,0.9c0.5,0.1,1.3-0.1,1.7-0.5
					c0.4-0.4,0.6-1.1,0.8-1.7C342.5,321.8,341.8,321.8,339.4,320"/>
				<path d="M210.5,164.8c0.7-0.4,1.6-0.7,2.3-1.1c1.5-1,3.2-0.7,4.8-0.3c0.4,0.1,0.9,0.6,1.1,1c1.2,2.6,1.9,5.3,1.3,8.1
					c-0.2,1.1,0.2,2.3,0.2,3.5c-0.1,2-0.3,4.1-0.5,6.1c-0.2,1.3-1.9,2.3-3.3,2c-0.4-0.1-0.8-0.8-0.8-1.2c-0.1-3.6,0-7.1,0-10.7
					c0-1.2,0.1-2.4-0.4-3.4c-0.3-0.7-1.3-1.4-2.2-1.8c-0.4-0.2-1.4,0.2-1.7,0.6c-0.6,0.7-1.2,1.5-1.3,2.4c-0.6,4-0.9,8-1.5,12
					c-0.2,1.5-1.9,1.2-2.9,1.5c-0.6,0.2-2-0.1-2-0.4c-0.3-1-0.5-2.2-0.2-3.2c0.9-3.5,1.7-6.9,1.9-10.5c0.1-2.1,0.7-4.1,1.1-6.1
					c0.3-1.8,0.4-3.7,0.9-5.5c0.4-1.3,1.2-2.4,2-3.6c0.3-0.5,1.1-0.8,1.8-1c0.9-0.2,1.6,0,1.5,1c-0.2,1-0.2,2-0.6,2.9
					C210.4,159.6,209.8,162.1,210.5,164.8"/>
				<path d="M235.5,180.2c-1.2,0.9-2.1,1.6-3,2.3c-2,1.8-4.3,2-6.7,0.9c-0.7-0.3-1.5-1-1.7-1.7c-1-3.3-0.5-6.1,3.1-8.5
					c2.2-1.4,4.3-2.9,6.4-4.5c1-0.8,0.4-1.7,0.1-2.5c-0.4-0.9-1.3-1-2.3-1c-1.6,0.1-3.2,0.3-4.8,0.3c-1.3,0-1.7-0.4-1.3-1.6
					c0.3-0.7,0.7-1.5,1.1-2.2c0.1-0.2,0.3-0.3,0.5-0.3c2.9,0,5.8-0.1,8.7,0.1c0.6,0,1.3,1.3,1.6,2.1c0.5,1.2,0.6,2.5,0.9,3.7
					c1,4.8,2.1,9.7,3.1,14.5c0.3,1.2-0.4,1.8-2.6,2.3c-2.3,0.5-3,0.1-3-1.9V180.2z M234.3,171.5c-0.2,0-0.4-0.1-0.6-0.1
					c-1.5,1.4-3,2.8-4.4,4.2c-0.9,0.9-0.7,2,0.3,2.8c0.8,0.7,2,0.6,3-0.2c0.7-0.6,1.4-1.3,2-2c0.3-0.3,0.8-0.7,0.8-0.9
					C235.2,174.1,234.7,172.8,234.3,171.5"/>
				<path d="M244.7,160c0.6,0.3,1.5,0.6,1.7,1.1c0.9,1.7,1.7,3.5,2.3,5.3c0.7,2.5,1.2,5,1.7,7.6c0.4,1.8,0.8,3.6,1.3,5.4
					c0.1,0.5,0.8,0.8,1.2,1.2c0.3-0.3,0.6-0.6,0.8-0.9c1.2-2.3,2.5-4.5,3.4-6.9c1.1-2.9,1.8-5.9,2.7-8.8c0.2-0.8,2-1.7,2.9-1.4
					c1.3,0.3,1.8,1.3,1.4,2.4c-0.9,2.4-1.8,4.9-2.8,7.3c-1.4,3.4-2.6,6.9-4.2,10.3c-0.6,1.3-2.1,2.6-3.8,2.4c-1.4-0.2-3-0.5-3.9-1.9
					c-2.3-3.4-2.9-7.2-4.2-10.9c-0.7-2.2-1.6-4.3-2.5-6.4c-0.5-1.1-1.1-2.2-1.4-3.3c-0.1-0.5,0.4-1.2,0.9-1.6
					C242.9,160.3,243.7,160.2,244.7,160"/>
				<path d="M266.1,173.8c-0.2-3.9,0.7-6.3,2-8.6c0.5-0.9,1.7-1.5,2.6-2.2c0.3-0.3,0.7-0.5,1-0.8c1.6-1.5,3.8-2,6-2.2
					c3.9-0.4,5.1,1.6,3.9,4.5c-0.9,2.2-2.7,3.9-5,5.1c-1.1,0.6-2.3,0.9-3.3,1.5c-0.6,0.3-1.1,1-1.3,1.5c-0.7,1.8,0.1,3.6,0.7,5.3
					c0.2,0.6,1.2,1.3,1.9,1.5c1.3,0.4,2.7,0.3,4,0.7c0.8,0.2,1.7,0.6,2,1.1c0.2,0.4-0.2,1.3-0.6,1.8c-1.7,1.9-4.7,2.2-7.2,0.8
					c-0.8-0.5-1.8-0.9-2.5-1.5C266.9,179.7,266.7,176,266.1,173.8 M277,164.9c-0.7-0.9-1.5-1.1-2.3-0.6c-1.9,1.1-2.4,2.2-1.6,3.8
					C274.4,167,275.7,166,277,164.9"/>
				<path d="M294.1,164.5c-0.2,3.2-0.6,6.4-0.5,9.6c0,2.4,0.7,4.9,1,7.3c0.2,1.2,1.1,1.8,2.1,2.4c0.9,0.5,1.7,1,2.4,1.7
					c0.3,0.3,0.4,1.1,0.1,1.5c-0.3,0.5-1.1,1-1.6,1c-1.5,0-3.1-0.2-4.6-0.6c-0.8-0.2-1.4-1-2-1.6c-1.5-1.5-2.4-3.2-2.3-5.3
					c0.1-2.1,0-4.3,0-6.4c0.1-2.2,0.4-4.4,0.5-6.6c0-0.8-0.1-1.6-0.1-2.5c-0.9,0.2-1.9,0.4-2.9,0.6c-1.4,0.3-2-0.2-1.6-1.4
					c0.6-2,1.9-2.9,4.3-2.9c1.2,0,1.5-0.3,1.6-1.3c0.1-2.3,1.2-2.9,3.6-2.1c1.7,0.5,1,1.5,0.9,2.6c1,0.1,2,0.1,3,0.2
					c0.9,0.1,1.4,0.4,1.4,1.3c0,0.9,0,1.8-1.2,2c-1.1,0.2-2.2,0.2-3.3,0.3C294.6,164.4,294.4,164.5,294.1,164.5"/>
				<path d="M213.4,122c0.6,0.3,1.5,0.6,1.7,1.1c0.9,1.8,1.7,3.7,2.3,5.6c0.7,2.6,1.2,5.3,1.7,8c0.4,1.9,0.8,3.8,1.3,5.7
					c0.1,0.5,0.8,0.8,1.2,1.2c0.3-0.3,0.6-0.6,0.8-1c1.2-2.4,2.5-4.8,3.4-7.3c1.1-3,1.8-6.2,2.7-9.3c0.2-0.8,2-1.8,2.9-1.5
					c1.3,0.3,1.8,1.3,1.4,2.6c-0.9,2.6-1.8,5.2-2.8,7.7c-1.4,3.6-2.6,7.3-4.2,10.9c-0.6,1.4-2.1,2.7-3.8,2.5c-1.4-0.2-3-0.5-3.9-2
					c-2.3-3.6-2.9-7.7-4.2-11.5c-0.7-2.3-1.6-4.5-2.5-6.8c-0.5-1.2-1.1-2.3-1.4-3.5c-0.1-0.5,0.4-1.3,0.9-1.7
					C211.6,122.4,212.4,122.3,213.4,122"/>
				<path d="M233.7,144.8c0.4-2.6,0.7-4.8,1-7c0.5-3.9,1.7-7.6,2.9-11.3c0.3-1,0.8-2,1.5-2.9c0.3-0.3,1.5-0.3,2,0
					c0.5,0.3,0.9,1.1,0.8,1.7c-0.8,4.7-1.8,9.4-2.7,14.1c-0.4,1.9-0.6,3.9-0.8,5.9c-0.1,1.5-1.1,2.7-2.5,2.9c-0.3,0-0.9-0.3-1.1-0.6
					C234.3,146.6,234,145.5,233.7,144.8"/>
				<path d="M244.1,115.4c2,2.2,0.6,4.1-1.1,5.3c-1.1,0.8-2.4,0.4-3.2-0.8c-0.4-0.6,0.1-2.4,0.9-2.9c0.5-0.4,1-0.8,1.6-1
					C242.8,115.6,243.4,115.6,244.1,115.4"/>
			</g>
		</g>
		<path class="st28" d="M165.5,346.4l0.9,30.8l-15.4,5.1c-1.2,0.4-1.7-3.4-0.7-4.3l8.3-6.2l-1.8-26.4"/>
		<path class="st28" d="M188.3,346.4l-0.9,30.8l15.4,5.1c1.2,0.4,1.7-3.4,0.7-4.3l-8.3-6.2l1.8-26.4"/>
		<path d="M376.9,253.1c-0.4-1.4-1.1-2.8-1.6-4.2c-0.2-0.6-0.5-1.2-0.6-1.8c-0.4-1.3-0.6-2.7-1-4c-0.2-0.7-0.6-1.3-0.7-2
			c-0.2-1.5,0-3.2-0.5-4.6c-1.1-3.2-2.4-6.4-3.9-9.5c-0.9-1.7-2.5-3-3.6-4.6c-3.3-4.7-8.2-6.9-13.3-8.7c-3.1-1.1-6.3-1.8-9.5-2.7
			c-2-0.6-4.1-1.3-6.2-1.5c-1.6-0.1-3.7-0.2-4.7,1.7c-0.6,1.1-1.3,0.9-2.2,0.7c-3.2-0.6-6.5-0.8-9.7,0c-3.2,0.7-6.3,1.6-9.6,2.1
			c-1.8,0.3-3.7-0.3-5.5,0c-2.6,0.3-5.1,1-7.6,1.7c-1.8,0.5-3.6,1.1-5.1,2.1c-0.9,0.6-1.3,2.1-2.2,2.7c-2,1.3-2.2,3.7-3.5,5.5
			c-0.1,0.1-0.1,0.5,0,0.6c0.6,1,0,1.5-0.8,1.7c-2.2,0.7-3.2,2.5-4.2,4.3c-1.2,2-2.5,4.3-4.3,5.7c-3.3,2.6-4.8,6-5.6,9.9
			c-0.7,3.5-0.5,6.8,2.9,9c0.9,0.6,1.9,1.4,2.2,2.3c0.6,1.5,0.8,3.2,1,4.9c0.1,1,0.6,1.3,1.6,1.2c3.7-0.1,7.4,0.4,10.8-1.8
			c2.6,4.2,4.3,8.8,8.3,11.9c-1,0.2-1.8,0.1-2.5,0.2c-4.7,1-9.4,2-14,3.1c-3.8,0.9-7.6,1.6-11.5,1.5c-2.2,0-4.4,0.4-6.6,0.6
			c-0.4,0-0.8-0.1-1.1-0.1c-1.8,0.3-3.9-0.7-5.3,1.5c-1.3-0.3-2.5-0.7-3.3-0.9c0.8-1.4,1.9-2.5,2-3.8c0-0.8-1.5-1.6-2.3-2.3
			c0.5,0,1.2-0.1,1.9-0.2c0-0.1,0-0.2,0-0.4c-0.7-0.4-1.3-0.9-1.9-1.2c-0.1-1.1-0.3-2.2-0.2-3.2c0.2-2.1,0.8-4.1,0.9-6.2
			c0.2-4.3,0.3-8.5,0.4-12.8c0-0.4-0.1-0.9-0.1-1.3c0-0.7,0-1.5,0-2.2c0.1-2.5,0.3-5.1,0.4-7.6c0-2.2-0.3-4.3-0.2-6.5
			c0.2-4.2,0.7-8.3,0.9-12.5c0.2-3.8,0.1-7.5,0.4-11.3c0.3-4.4,0.9-8.8,1.4-13.2c2,0,3.9,0,5.8,0c1.7,0,3.4,0.2,5.1,0.1
			c1.9-0.1,3.8-0.6,5.6-0.8c1.1-0.1,2.2,0.1,3.3,0.2c3.6,0.3,7.2,0.6,10.8,1c3,0.3,6.1,0.7,9.1,1c1.7,0.2,3.4,0.5,5.1,0.6
			c2.8,0.2,5.7,0.4,8.5,0.4c1.3,0,2.7-0.6,4-0.5c1.1,0.1,1.5-0.3,1.6-1.1c0.2-1.2,0.3-2.5,0.3-3.7c0-2.8-0.1-5.5-0.1-8.3
			c0-0.7,0.2-1.4,0.4-2.1c0.2-1.1,0.6-2.1,0.7-3.2c0.2-2.3,0.2-4.7,0.4-7.1c0.3-5.1,0.7-10.1,1-15.2c0.1-2.3-0.1-4.6,0.2-6.9
			c0.4-3.9,1.2-7.8,1.5-11.7c0.3-4.3,0.3-8.6,0.3-12.9c0-2.6-0.2-5.2-0.3-7.9c0-0.6-0.4-1.1-0.4-1.7c0-1.3,0.2-2.6,0.1-3.9
			c-0.1-0.9-0.5-1.9-0.7-2.8l-0.6,0.1c-0.1,0.7-0.1,1.4-0.2,2c0,0.4,0,0.9-0.1,1.3c-0.2,1.4-0.5,2.8-0.7,4.2c-0.1,0.4-0.2,0.7-0.4,1
			c-0.2,0.6-0.6,1.3-0.6,2c0.1,1.8,0.5,3.6,0.6,5.4c0.1,1.8-0.2,3.6-0.3,5.4c-0.1,3-0.2,6-0.4,9c-0.3,4.8-0.6,9.6-1,14.5
			c-0.1,1.4-0.2,2.7-0.2,4.1c0,1,0.1,2.1,0.1,3.1c-0.2,3.9-1,7.9-0.6,11.8c0.3,3.1-0.7,5.9-0.8,8.8c0,3.5-1.6,6.9-0.2,10.4
			c0.5,1.4-0.2,2-1.8,1.9c-1.3,0-2.7,0.2-4,0.2c-1.1,0-2.3-0.1-3.4-0.3c-2.3-0.3-4.5-0.9-6.7-0.9c-2.4-0.1-4.8,0.5-7.2,0.5
			c-1.8-0.1-3.7-0.8-5.5-1.1c-0.3-0.1-0.6,0.1-0.9,0.1c-0.3-0.3-0.6-0.9-1-0.9c-2.2,0-4.5-1.1-6.6,0.4c-0.1,0.1-0.3,0-0.4,0.1
			c-1.4,0.2-2.9,0-4.2,0.5c-1.8,0.8-3.3,0.8-4.8-0.5c-0.3-0.3-0.9-0.4-1.4-0.4c-3-0.1-5.9-0.2-8.9-0.4c-1.4-0.1-2.8,0.3-4.3,0.2
			c-3.2-0.3-6.4,0.2-9.6,0.4c-1.7,0.1-3.6,0.8-5.1,0.3c-1.6-0.6-3.2-0.3-4.8-0.8c-0.8-0.3-1.7-0.1-2.5-0.2c-0.5,0-1,0-1.6,0
			c-1.5,0-3.1,0-4.6,0c-2,0.1-4,0.4-5.9,0.3c-2.8-0.2-5.6-0.8-8.4-1.1c-2-0.2-4-0.2-6-0.4c-3.6-0.3-7.1,1.1-10.7,0.2
			c-1.5-0.4-3.1-0.4-4.7-0.4c-1.7,0-1.8-1-1.7-2.3c0.1-2.7,0.4-5.5,0.3-8.2c-0.2-5.7-0.7-11.5-0.9-17.2c-0.1-4.6,0.1-9.3,0.3-13.9
			c0.1-3.1,0.6-6.2,0.8-9.3c0.2-4.3,0.3-8.7,0.5-13c0.1-1.7-0.1-3.4,0.3-5c0.8-4,1.9-7.9,2.7-11.8c0.3-1.5,1-1.8,2.1-1.5
			c2.6,0.6,5.1,0,7.6-0.5c1.7-0.4,3.6-0.7,5.3-0.6c1.9,0.1,3.8,0.9,5.8,1c3.1,0.2,6.3,0,9.4,0c3,0,6,0.8,9.1,0c1.9-0.5,4,0,6.1-0.1
			c3.6-0.2,7.3,0.3,11,0.6c2.8,0.2,5.5,0.5,8.3,0.6c3,0.2,6,0.3,8.9,0.3c2.2,0,4.3-0.2,6.5-0.2c4,0.1,8,0.3,12,0.3
			c5.8,0,11.6-0.4,17.4-0.3c4.3,0.1,8.6,0.7,12.9,0.9c1.7,0.1,3.5,0.7,4.8-0.8c-0.2-0.8-0.4-1.5-0.5-2.2c-0.2-1-0.5-1.7-1.8-1.6
			c-4.5,0.2-8.9,0.2-13.4,0.3c-1.6,0-3.3,0.3-4.9,0.3c-2.6,0.1-5.2,0-7.8,0c-1,0-1.9,0-2.9,0c-2.2,0.2-4.4,0.3-6.6,0.6
			c-0.8,0.1-1.7,0.5-2.4,0.3c-2.1-0.7-4.1-0.6-6.2-0.6c-3.6,0-7.2-0.2-10.8-0.4c0-0.5,0.2-1.2,0.1-2c-0.1-2.8-0.3-5.6-0.3-8.4
			c0-1.7-0.9-2-2.2-2.1c-1.1-0.1-2.2,0.1-3.3,0c-1.3-0.1-1.8,0.7-2.1,1.7c-0.3,1-0.3,2-0.4,3.1c-0.3,2.5-0.6,5-0.9,7.8
			c-1.5-0.4-2.7-0.9-3.9-0.9c-2.1-0.1-4.2,0.2-6.4,0.3c-0.5,0-1,0.2-1.4,0.2c-1.6-0.1-3.2-0.5-4.9-0.5c-3.4-0.2-6.8,0.6-10.2-0.4
			c-0.5-0.2-1.1-0.2-1.6-0.1c-2.3,0-4.5,0.1-6.8,0.2c-1.6,0-3.2,0-4.8,0.1c-3.6,0.3-7.2,0.7-10.6-0.9c-0.3-0.1-0.6-0.1-1-0.1
			c-2.8,0.1-5.7-0.2-8.4,0.4c-2.3,0.5-5.5-1.3-6.7,2.4c0,0.1,0,0.2,0,0.6c1.8,0.3,1.7,1.6,1.6,3.1c-0.5,4.3-1.3,8.6-1.6,12.9
			c-0.3,3.5-0.2,7.1-0.2,10.7c0,2.7,0.6,5.1-0.2,8c-1.3,4.9-1.7,10.1-1.9,15.1c-0.2,5.9,0.2,11.9,0.3,17.8c0,0.3,0.1,0.7,0.1,1
			c0,3.1,0.2,6.2,0,9.2c-0.1,2.8-0.5,5.5-0.8,8.3c-0.1,0.9,1.9,2.6,2.9,2.5c2.2-0.2,4.4-0.5,6.5-0.7c0.7-0.1,1.4,0,2.1,0.2
			c1.9,0.6,3.9,0.8,5.9,0.5c3.3-0.4,6.6-1.1,9.9-0.9c4.5,0.2,9,0.2,13.6,0.2c3.9,0,7.9-0.2,11.8-0.1c3.2,0.1,6.3,0.5,9.5,0.8
			c1.8,0.2,3.7,0.3,5.6,0.4c-0.2,2-0.4,3.9-0.6,5.7c-0.2,2.2-0.2,4.4-0.5,6.6c-0.5,4.6-1.1,9.1-1.5,13.7c-0.2,2.1-0.2,4.2-0.3,6.2
			c0,1.9,0.1,3.8,0,5.6c-0.1,2.5-0.2,5-0.3,7.6c-0.1,2.2,0.1,4.5-0.1,6.7c-0.2,2.7-0.6,5.3-0.7,8c-0.3,3.7-0.4,7.5-0.7,11.2
			c0,0.5-0.1,1-0.3,1.4c-0.3,0.9-0.7,1.8-1.2,2.8c-1.5,0.5-3.4,1.1-5.2,1.8c-2.6,0.9-5.1,1.3-7.9,0.8c-5.1-0.9-10.2-1.4-15.4-1.5
			c-3,0-6-0.4-9.2-0.7c1-1.3,2-2.4,2.8-3.5c1.9-2.6,3.8-5.3,5.7-8c1.3-1.8,1.9-4.2,4.3-5.3c1.4-0.7,2.3-2.3,1.9-4.1
			c-0.1-0.6-0.8-1.1-1.3-1.7c-0.4,0.5-0.9,0.9-1.3,1.4c-0.1,0.2-0.1,0.5-0.1,0.8c-0.3,1.3-0.8,2.2-2.5,1.6c-0.8-0.3-2.6-1-2.2,1.3
			c0,0.1-0.3,0.3-0.4,0.4c-0.4,0.6-0.8,1.1-1.1,1.7c-1.4,2.6-2.6,5.3-4.2,7.7c-1.2,1.9-2.7,3.6-4.2,5.2c-0.7,0.7-1.6,1.6-2.9,0.9
			c-0.4-0.2-1.1,0-1.6,0.2c-1.3,0.7-2.5,1.7-3.8,2.2c-2.3,0.9-4.6,1.9-7.1,2.4c-2.9,0.6-6,0.7-9,1c-3,0.3-6.1,0.9-9.1-0.2
			c-0.5-0.2-1.3,0-1.9,0.2c-2,0.9-3.8,1-5.6-0.7c-0.9-0.9-1.9-1.9-3.1-2.2c-1.4-0.4-2.9-1.4-4.6-0.5c-2.5-1.7-4.9-3.4-7.3-5.1
			c-0.7-0.5-1.2-1.4-1.9-2.1c-0.7-0.6-1.7-1-2.2-1.7c-1.5-2.1-3.1-4.1-4.1-6.4c-1-2.2-1.3-4.8-2-7.5c0,0-0.6-0.3-0.5-0.7
			c0.1-1.3-0.6-1.4-1.6-1.5c-0.7-0.1-1.7-0.6-2-1.1c-1-2-0.6-3.2,1.4-4.2c2.1-1.1,3.1-2.9,3.6-5.2c0.4-2.2,0.6-4.6,1.4-6.7
			c1.1-2.9,2.6-5.7,4.3-8.3c1.8-2.7,4.3-4.7,7.2-6.2c1.1-0.5,3.1-0.3,2.7-2.7c2.4-0.5,4.7-1,6.9-1.5c1.7-0.4,3.4-0.9,5.2-1.3
			c0.6-0.1,1.2-0.3,1.7-0.3c2.1,0,4.2,0.1,6.2,0.2c1.8,0.1,3.6,0.2,5.4,0.5c2.2,0.3,4.4,0.9,6.5,1.3c2.2,0.3,4.5,0.2,6.6,0.9
			c4.9,1.5,9.4,4,13.2,7.4c2.5,2.2,4.2,5.2,6,8c0.9,1.4,0.8,3.3,1.7,4.7c1.9,3.3,2.6,6.6,1.2,10.2c-0.5,1.3-0.2,2.5,0.8,3.4
			c0.4,0.4,0.7,1.1,1.1,1.3c0.8,0.3,1.7,0.4,2.6,0.6c0-0.6,0.2-1.3,0.1-1.9c-0.1-0.4-0.5-0.7-0.7-1.1c-0.3-0.7-0.9-1.6-0.7-2.3
			c0.9-2.9,0.8-5.8,0.2-8.6c-0.6-2.9-1.5-5.8-2.5-8.6c-0.5-1.3-1.2-2.6-2-3.7c-1.2-1.6-2.6-2.9-3.8-4.5c-1.5-2.1-3.7-3.4-5.9-4.4
			c-2.6-1.1-5.6-1.4-8-2.9c-2.6-1.7-5.2-2.2-8.1-2.3c-2.2-0.1-4.4-0.6-6.6-1c-0.7-0.1-1.5-0.5-2.2-0.6c-1.7-0.4-3.5-1.3-5.2-1.2
			c-4.6,0.4-9.4-0.2-13.7,2.1c-1,0.5-2.3,0.5-3.5,0.8c-2.5,0.6-5,1.2-7.4,1.9c-0.4,0.1-0.8,0.5-1,0.8c-1,1.5-1.4,3.4-3.4,4.1
			c-0.2,0.1-0.2,0.4-0.3,0.5c-1.2,1.8-2.5,3.5-3.5,5.4c-1.7,3.2-4.2,6-5.2,9.6c-0.8,2.8-2.8,5.3-0.5,8.3c-2.6,1.5-4.4,3.5-5.8,6.1
			c-1.1,2,0,3.6,0.4,5.4c0.3,1.4,1.8,0.9,2.8,1.2c0.5,0.1,0.9,0.2,1,0.3c0.9,3,0.4,6.2,2.7,8.6c0.9,0.9,1.4,2.2,2.2,3.2
			c1.6,2.1,2.7,4.5,5.1,5.9c3.2,1.8,6.3,3.8,9.5,5.7c0.8,0.5,1.7,1,2.9,1.7c-4.3-0.1-7.3,2-10.5,3.5c-2.5,1.1-4.1,3.3-6,5.3
			c-2.4,2.5-3.7,5.5-3.8,8.6c-0.2,4.4-1.3,8.6-2.3,12.8c-0.3,1.3-1.1,2.7,0.5,3.9c0.1,0.1,0.1,0.3,0.1,0.4c-0.1,1.4-0.3,2.9-0.4,4.3
			c0,0.5-0.1,1.1,0,1.7c0.5,2.4,0.9,4.8,1.7,7.2c0.3,1,1.4,1.8,2.3,2.4c1.2,0.9,2.7,1.3,4.2-0.1c-0.1,1.7-0.4,3.2-0.6,4.6
			c-0.2,1.7,0.1,3.4-0.3,5c-0.5,2.1-1.3,4.1-2,6c-0.5,1.2-0.4,1.9,0.7,2.7c1.1,0.8,2.2,0.7,2.8-0.4c0.6-1,1.5-1.1,2.4-0.9
			c1.6,0.3,3.1,0.6,4.7,0.9c1.3,0.1,4.3,0.2,7.7,0.2c4.3,0.1,9.1,0.7,9.1,0.7c1.7-1,3.4-0.3,5.1,0.1c2.7,0.5,5.1-1.6,4.6-4.3
			c-0.1-0.7-0.1-1.4-0.2-2.1c0.2,0,0.3,0,0.5-0.1c0.7,1.5,1.3,3.1,2.2,4.6c0.6,1,1.2,2.1,2.7,1.9c2.2-0.2,4.5-0.2,6.9-0.4l14.3,0.4
			l0,0c0.9-0.2,1.8-0.3,2.6-0.4c0.4,0,0.9,0.4,1.4,0.5c1,0.2,1.9,0.5,2.9,0.4c0.3,0,0.4-1.3,0.6-2c0.1-0.7,0.2-1.5,0.3-2.3
			c0.4-2.1,1.1-4.2,1.3-6.4c0.4-3.7-0.4-7.5-0.2-11.3c0.3-4.5,0.6-9,0.8-13.4c0.1-1.8,0-3.6-0.2-5.3c-0.6-4.3-1.1-8.5-0.5-12.9
			c0.1-1,0.5-1.9,0.4-2.9c-0.4-2.7,1-4.6,3.7-4.7c2.3-0.1,4.7-0.3,7-0.4c1.1-0.1,2.2-0.2,3.3-0.2c3.3,0.1,6.5,0.2,9.8,0.3
			c0.1,0,0.1,0,0.2,0c1.9-0.3,3.7-0.4,5.2,1.1c-0.3,1-0.5,2-0.8,3c1.2,0.2,2.2,0.4,3.2,0.6c-3.4,3.4-3.2,5.1,0.4,6.4
			c0,0.5,0.1,1,0.1,1.5c0.2,4.2,0.8,8.3-0.3,12.4c-0.2,0.9-0.3,1.9,0,2.8c0.3,0.8,1.1,1.8,1.8,1.9c1,0.2,2.4,0.6,3.3-0.7
			c1.1-1.7,2.4-3.2,2.3-5.5c-0.1-3.1,0.6-6.3,0.8-9.5c0.1-1.5,0.1-2.8,1.7-3.5c1.3-0.6,2.4-1.5,3.7-1.8c3.9-0.7,7.9-1,11.8-1.8
			c3.3-0.7,6.5-2.3,10-1.9c0.5,0,1.1-0.3,1.5-0.6c2.2-1.6,4.7-1.6,7.5-1.4c0.3,4.2,0.7,8.4,0.8,12.7c0.1,2.2-0.2,4.4-0.3,6.5
			c0,0.7-0.3,1.4-0.2,2.1c0.1,1.7,0.5,3.5,0.6,5.2c0.3,3.4,0.5,6.9,0.6,10.3c0,0.5-0.3,1.1-0.4,1.7c-0.2,1-0.8,2-0.5,2.9
			c0.4,1.5,2.9,2.7,4.4,2.3c3-0.8,5.9,0,8.6,0.1c0.1,0.7,0.3,1.1,0.3,1.6c0.2,1.5,0.5,2.9,0.5,4.4c-0.2,4.5-2.3,18.5-0.8,23
			c0.2,0.7,0.9,1.6,1.4,1.7c3.6,0.6,8.5-2.8,8.5-6.9c0-0.6-0.1-1.2,0-1.8c0.4-2.9,1.4-15.3,2-18.2c0.2-0.9,0.8-2.3,1.5-2.5
			c1.4-0.5,3-0.5,4.5-0.4c1.7,0,3.4,0.5,5,0.4c2.8-0.1,5.5-0.5,8.2-0.9c1.7-0.2,2.3,0.2,2.2,1.9c-0.1,0.8-0.3,1.6-0.3,2.4
			c-0.1,2-1,15.3-1.1,17.3c-0.2,1.8-0.5,3.7-0.6,5.5c0,0.8,0.5,1.9,1.1,2.2c1.2,0.5,2.6,0.8,3.9,0.7c1.4-0.1,2.7-0.7,4.1-1.1
			c2.6-0.7,4.6-2.9,4.3-5.5c-0.4-3.6,1-18.3,0.9-21.9c0-1.4,0.8-1.8,2.1-1.8c1.1,0,3-0.1,3.1-0.6c0.4-1.4,1.8-0.9,2.3-1.8
			c0.2-0.4,0.2-0.9,0.2-1.4c0.1-1.1-0.2-2.2,0.2-3.2c1.1-3.1,1.3-6.2,0.7-9.3c0-0.3,0-0.7,0.2-0.9c1.6-1.3,3.4-2.4,5-3.7
			c1.3-1.1,2.8-2.2,3.6-3.7c1.7-2.9,2.1-6.2,2.1-9.5c0-1-0.1-2.1,0.1-3.1c0.3-2.4,0.6-4.8-0.1-7.2c-0.2-0.6-0.1-1.2-0.2-1.8
			c-0.2-0.9-0.1-2-0.6-2.8c-0.9-1.3-2.1-2.4-3.2-3.5c-3.7-3.7-8.5-4.3-13.4-4.5c-0.9,0-1.8,0.2-2.7,0.3c-0.1-0.2-0.2-0.4-0.2-0.5
			c0.5-0.4,0.9-1,1.5-1.1c2-0.2,3.3-1.3,4.7-2.6c0.5-0.4,1.2-0.7,1.8-0.7c1.9,0,3.7,0.2,5.6,0.2c0.9,0,1.9,0,2.5-0.4
			c2.5-1.7,5.8-1.7,7.8-4.7c1.8-2.8,4.9-4.7,6-8.1c0.3-0.8,0.3-1.7,0.3-2.5C377.2,255.1,377.2,254.1,376.9,253.1z M258.3,99.9
			c-0.3,2.4-0.1,4.9-0.1,7.6c-1.2-0.2-1.7-0.3-2.1-0.3c-0.2-3.6-0.4-7-0.6-10.6C258,96.7,258.6,97.8,258.3,99.9z M249.8,261.1
			c0.1-0.9-0.2-1.7-0.1-2.6c0.2-3.8,0.5-7.7,0.6-11.5c0.1-4.1,0-8.3,0-12.4c0-3.3-0.1-6.6,0-9.8c0-1,0.5-1.9,0.6-2.9
			c0.6-4.2,1.2-8.3,1.7-12.5c0.3-3.1,0.4-6.3,0.6-9.4c0-0.6-0.1-1.2-0.2-1.8c-0.2-1,0.1-1.4,1.4-1.1c-0.6,8.2-1.6,16.3-1.7,24.5
			c-0.1,8.2-1.3,16.3-1.5,24.4c-0.2,8.1-0.9,16.2-1.8,24.4c-0.1-0.3-0.2-0.6-0.2-0.9C249.3,266.7,249.6,263.9,249.8,261.1z
			 M153.2,337.2c-0.2,1.7-0.3,3.4-0.6,5.6c-1.2-0.6-2.2-1.1-3.3-1.5c-0.6-0.2-1.3-0.3-1.9-0.3c-0.7,0-1.4,0-2.1,0
			c-0.1-0.1-0.2-0.2-0.3-0.3c1.3-1.1,1.6-2.1,1-3.8c-0.6-1.8-0.6-4.1,0.8-6c0.3-0.5,0.3-1.2,0.4-1.8c0.3-3.5,0.8-6.9,2.2-10.2
			c-0.1-0.9-1.9-1.3-1.2-2.3c1.1,0.1,1.9,0.3,2.7,0.3c0.7,0,1.4,0,2.1,0c1.3,0.1,1.5,0.9,1.4,2.1c-0.5,4.5-1.4,9-0.7,13.5
			C153.9,333.9,153.3,335.6,153.2,337.2z M171.7,321.4c-0.3,4.4-1.1,8.8-0.4,13.3c0.2,1.2-0.2,2.5-0.3,3.8c-0.2,1.7-0.3,3.5-0.5,5.2
			h-7.9c0.6-8.7,1.2-17.2,1.8-25.7c-0.2,0-0.4-0.1-0.6-0.1c-0.2,0.3-0.4,0.6-0.5,1c-0.3,4.8-0.5,9.6-0.8,14.5c-0.1,1-0.3,2-0.4,2.9
			c-0.2,1.9-0.5,3.8-0.5,5.6c0,2-1.5,2-2.7,1.9c-1.4-0.1-2.9-0.5-4.3-0.9c-0.3-0.1-0.8-0.7-0.8-1c0.1-1.8,0.4-3.6,0.6-5.4
			c0.1-1.2,0.2-2.3,0.3-3.5c0-2.1,0-4.2,0-6.3c0.1-2.4,0.3-4.9,0.4-7.3c0.1-1.5,0.9-1.9,2.3-1.9c2.9,0,5.9,0,8.8,0
			c1,0,2,0.1,2.9,0.3C171.2,318.1,171.8,319.4,171.7,321.4z M175.5,335.3c-0.8,2.9-1.5,5.5-2.2,8.4c-0.1,0.1-0.6,0.3-1.5,0.8
			c0.3-8.8,0.5-17.4,0.8-26.2c2.5,0.1,4.8,0.2,7.5,0.3c-1,6.2-1.8,12.1-2.8,18.1C176.7,336.3,176.2,335.9,175.5,335.3z M185.5,341.9
			c-1.5,0-2.8,0-4.2,0c-0.3,0-0.7-0.1-0.9-0.3c-1.7-1.9-2.5-4-2.1-6.6c0.8-4.8,1.5-9.7,2.3-14.5c0.3-1.7,2-2.4,4.2-1.5
			c0.8,0.3,1.5,0.8,2.3,0.8c1.9,0.2,2,1.4,1.8,2.8c-1.1,5.6-2.3,11.1-3.4,16.6C185.4,340,185.5,340.9,185.5,341.9z M186.2,342.2
			c0.6-3.3,1.2-6.2,1.7-9.1c0.8-4.2,1.6-8.4,2.4-12.8c1.6,0.3,3.5,0.7,5.4,1.1c-0.7,7.2-1.4,14.4-2.1,21.8
			C191.2,342.9,189,342.6,186.2,342.2z M200.9,342.2c-0.3,1.5-1.6,2.3-3.1,1.9c-1-0.3-2-0.5-3-0.8c0.7-7.2,1.3-14.5,2-22
			c1.6,0,3-0.1,4.3,0c2.1,0.3,2.4,0.9,2,4c-0.4,3.1-0.8,6.3-1.2,9.4C201.5,337.3,201.3,339.8,200.9,342.2z M207.7,325.7
			c-0.8,3.6-0.4,7.1,0,10.6c0.1,0.9-0.1,1.8-0.2,2.7c0,1.1-0.1,2.1,0,3.2c0,1-0.3,1.4-1.3,1.4c-1.4-0.1-2.8,0-4.1,0
			c0.6-6.8,1.3-13.2,1.8-19.5c0.1-1.7,0.9-2.5,2.3-3C208.3,322.1,208.1,324.1,207.7,325.7z M240.5,284.6c-0.9-0.4-1.8-0.8-2.8-1
			c-1.9-0.4-3.8-0.9-5.8-1c-3.6-0.1-7.2,0-10.8,0.1c-2.1,0-4.3,0.2-6.4,0.2c-0.7,0-1.3,0-2,0.2c-1.6,0.3-1.6,0.4-1.5,2
			c-0.5-0.4-0.9-0.9-1.4-1.3l-0.5,0.1c0,1.5,0.1,3,0,4.4c0,0.5-0.3,1.1-0.7,1.3c-0.9,0.4-1,0.9-0.9,1.9c0.4,3.3,0.5,6.6,0.7,9.9
			c0.2,2.5,0.7,4.9,0.6,7.3c-0.1,2.7-0.7,5.4-1.2,8.2c-1.6,0.7-2.3,1.1-2.8,1c-0.2,0-0.3-0.1-0.4-0.2c-0.2-0.1-0.4-0.3-0.7-0.6
			c-0.2,0.1-0.4,0.1-0.6,0.2c-0.4,0.1-0.8,0.2-1.2,0.3c-0.2,0-0.4,0.1-0.6,0.1c-0.6,0.1-1.2,0.1-1.7,0c-1.7-0.1-3.5-0.4-5.2-0.5
			c-3.1-0.2-6.2-0.5-9.2-0.9c-1.9-0.2-3.9-0.5-5.8-0.8c-1.5-0.2-2.9-0.4-4.4-0.5c-3.2-0.3-6.3-0.7-9.5-0.9c-2.1-0.1-4.2,0.1-6.4,0
			c-1.9-0.1-3.8-0.5-5.7-0.8c-0.7-0.1-1.4-0.6-2.2-0.8c-2.3-0.6-2.3-0.6-2.1-2.9c0.1-0.7,0.3-1.4,0.4-2.1c0.3-2.1,0.6-4.3,0.9-6.4
			c0.1-0.6,0-1.2,0.2-1.8c0.4-1.1,0-1.9-0.8-2.2c-0.9-0.4-2-0.3-3-0.4c-0.1,0-0.3,0.6-0.4,1c-0.3,3.8-0.5,7.7-0.8,11.5
			c-0.1,1.2-0.4,2.5-0.6,3.7c-0.4,2-0.7,4-1.1,5.9c-0.4-0.4-0.9-0.8-1.7-1.5c-0.7,3.1,2.5,6-0.9,8.2c0-1.1,0-2.4,0-3.6
			c0-1.8-1.3-2.9-2.9-2.1c-0.4,0.2-0.9,1-0.8,1.5c0.4,1.6,1,3.2,1.4,4.9c0.1,0.3-0.1,0.8-0.2,1.2c-0.4-0.3-1-0.4-1.1-0.8
			c-0.4-1.7-0.7-3.4-1.1-5c-0.2-0.8-0.4-1.4,0.4-2c0.2-0.1,0.3-0.8,0.1-1c-1.3-2.6-0.8-5.3-0.1-7.8c0.8-2.9,1.6-5.7,1.4-8.8
			c-0.1-2.1,0.5-4.6,1.6-6.4c1.8-3.1,4.3-5.8,6.5-8.6c0.2-0.2,0.6-0.3,0.9-0.4c2.2-0.1,3.6-1.8,5.4-2.6c1.6-0.7,3.3-1.1,4.9-1.6
			c0.2,0,0.4,0,0.5,0c1-1.4,2.6-0.2,3.7-0.7c2.2-0.9,4.2,0,6.3,0c0.4,0,0.8-0.4,1.3-0.5c1-0.2,2-0.2,3,0.1c1.5,0.3,3.1-0.1,4.7-0.3
			c0.6-0.1,1.2-0.3,1.8-0.3c2,0,4.1,0.7,6.1-0.2c0.5-0.2,1.2,0.1,1.7,0.1c0.6,0,1.1-0.2,1.7-0.3c1-0.2,2-0.6,3.1-0.6
			c1-0.1,2,0.2,2.5-1.1c0.1-0.3,0.9-0.6,1.2-0.5c1.3,0.3,2-0.6,2.8-1.3c1.5-1.3,2.6-1.2,4.2,0c0.3,0.2,0.8,0.3,1.2,0.3
			c3.5,0.2,7,0.2,10.6,0.4c2.1,0.1,4.1-0.3,6.2-0.6c1.3-0.2,2.8,0.1,4.1,0.5c3.1,0.9,6.2,1.6,9.5,1.7c0.9,0,1.7,0.2,2.6,0.4
			c1.8,0.3,2.8-0.4,2.8-2.1c3.3-1.4,6.6-2.5,10.3-1.4c-1.2,0.2-2.4,0.3-3.6,0.5c-0.8,0.2-1.5,0.5-2.1,0.9c-0.3,0.2-0.6,1.2-0.4,1.4
			c0.4,0.4,1.1,0.6,1.6,0.5c1.5-0.3,3-0.7,4.6-1c0.4-0.1,0.8,0.1,1.2,0.1c0,0.1,0,0.3,0.1,0.4c-1.1,0.3-2.1,0.6-3.2,0.9
			c-1.4,0.4-2.8,0.7-4.1,1.1c-1.1,0.3-1.4,1.2-0.3,1.7c1.5,0.7,3.1,1.1,4.7,1.5c1.2,0.3,2.4,0.3,3.6,0.4c0,0.2,0,0.4-0.1,0.6
			c-2,0.1-4,0.4-6,0.4C244.2,285.2,242.3,284.9,240.5,284.6z M248.4,311.5c-0.3,0.9,0.3,2-0.6,2.8c-0.2,0.2-0.5,0.3-1.2,0.7
			c0.1-2.6,0.2-4.9,0.4-7.1c0.1-1.8,0.3-3.5,0.3-5.3c0-1.2,0.4-1.8,1.6-2C249,304.2,249.7,307.9,248.4,311.5z M311,335.8
			c-0.5,4.1-1.6,17.7-2,21.9c-0.1,1.3-0.5,2.4-2,2.8c-0.5,0.1-1,0.8-1.5,1.3c-0.6-0.6-0.9-1-0.5-2.2c0.5-1.5,0-3.4-0.1-5.1
			c-0.2-1.4,0.1-12.3,1.1-13.6c0.1-0.1,0.2-0.4,0.2-0.6c0-2.2,0-4.5,0-6.9h2.8C311,333.3,311.2,333.5,311,335.8z M342.6,356.1
			c-0.2,3.3-1.8,4.7-4.9,5c0.3-5.3,1.4-21.7,1.7-27.1c0.6,0,1.4,0.1,2.1-0.1c1.3-0.3,1.8,0.4,1.8,1.4
			C343.4,338.5,342.9,352.9,342.6,356.1z M350.8,330.3c-1.9-0.2-3.6-0.5-5.4-0.7c-0.4-1-2.2-1.5-1.9-3.6c2.2,1.8,2.2,1.8,3.1-0.5
			c0.2-0.5,0.5-0.9,0.8-1.3c0.4,0.6,0.6,1,0.9,1.4c1-0.7,1.9-1.3,2.8-2C351.1,325.9,351,328.1,350.8,330.3z M349.7,323
			c-0.3-0.4-0.6-0.8-1.1-1.5c-1.3,1.3-2.4,2.6-3.3,3.5c-0.8,0.1-1.9-0.2-2.2,0.2c-0.4,0.6-0.6,1.7-0.4,2.4c0.2,0.8,0.9,1.4,1.5,2.2
			h-17.1c-0.5-0.7-1-1.2-1.3-1.8c-0.2-0.4-0.2-1-0.3-1.5c-0.1-0.6,0.1-1.4-0.2-1.7c-0.5-0.5-1.2-0.5-1.8,0.2
			c-0.2,0.3-0.8,0.3-1.3,0.4c-0.1-0.4-0.3-0.9-0.2-1.3c0.5-1.1-0.2-1.7-0.9-2c-0.5-0.2-1.4-0.2-1.8,0.2c-1,0.8-1.8,1.9-2.7,2.9
			c-0.5-0.1-1.5-0.5-2.1-0.3c-1.2,0.4-1.3,1.7-1.1,2.8c0.2,0.9,0.6,1.8,0.8,2.7c0.2,0,0.4-0.1,0.5-0.1c-0.1-0.9-0.3-1.7-0.3-2.6
			c0-0.5,0.3-1.1,0.5-1.6c0.4,0.4,0.9,0.7,1.3,1.2c0.3,0.3,0.3,0.8,0.7,1.7c1.3-2.2,1-5.1,4-6.1c-0.3,1.9-0.6,3.6-0.9,5.3
			c1.5-0.8,2.8-1.5,4.6-2.4c-1.1,2.1,0.3,3,1.7,4.1c-0.9,0.1-1.4,0.1-1.8,0.1c-1,0.1-2.2-0.4-3,0.7c-0.1,0.2-0.6,0.1-1,0.1
			c-2.8,0-5.5,0-8.3-0.2c-2.4-0.2-4.8-0.7-7-1.4c-0.7-0.2-1.1-1.6-1.6-2.4c-0.2-0.4-0.3-0.8-0.7-1.3c-0.1,2.6-2.2,2.3-4,3.3
			c0.2-1.7,0.3-3.1,0.5-4.8c-0.5,0.2-0.9,0.3-1.3,0.4c-0.6,0.1-1.6,0.5-1.8,0.2c-0.4-0.5-0.6-1.4-0.4-2c0.3-1.6,0.4-1.5-0.6-2.2
			c-0.8,3.2-1.8,4.7,2.6,5.6c0.1,1.1,0.3,2.3,0.4,3.4c-1.3,0.4-2.6,0.8-4.4,1.3c-0.1-1.8-0.2-3.6-0.2-5.4c0-2.2,0-4.5,0-6.7
			c0-4,0.3-8-0.1-11.9c-0.4-3,0.4-5.5,1.7-7.8c1.3-2.3,3.2-4.4,4.8-6.5c1.2,1.2,2,2.2,3.2,3.4c0.9-1.4,1.5-2.5,2.2-3.6
			c2.1,0.5,3.6-1.2,2.9-3.9c2.1-0.2,4.1-0.3,6.1-0.5c-0.8,1.2-1.8,2.4-2.5,3.8c-0.8,1.5,0.1,3.2,1.5,3c0.7-0.1,1.3-0.6,2-1
			c0.2,0.9,0.3,1.7,0.7,2.4c0.4,0.7,1.2,1.5,1.8,1.6c0.5,0.1,1.1-1,1.7-1.7c0,0,0.4,0,0.9,0.1c-0.5-1.3-1-2.5-1.5-3.7
			c-0.1,0-0.2,0.1-0.4,0.1c-0.1,1.4-0.3,2.7-0.4,4.4c-1.7-1.2-1.9-2.2-1-5.6c-1.7,0.9-3,1.7-4.4,2.4l-0.5-0.4c0.4-0.9,0.6-2,1.2-2.6
			c1.1-1.2,2.2-2.7,4.2-2.2c0.6,0.1,1.2,0.4,1.6,0.9c1.7,1.8,2.3,4.2,3,6.5c0.1,0.2,0,0.6-0.2,0.8c-1.1,1.4-2.2,2.8-3.5,4.2
			c-1.2,1.3-1.3,2.6-0.3,3.6c0.8,0.8,2.7,0.5,3.4-0.8c0.7-1.2,1.4-1.2,2.5-0.7c0.3,0.1,0.8,0.2,0.9,0c0.8-1,1.4-2.1,2.3-3.4h-2.5
			c0.2,0.6,0.4,1.1,0.6,1.6c-1,0.9-2,1-2.9-0.3c-0.6,0.8-1.1,1.7-1.8,2.2c-0.5,0.4-1.2,0.4-1.9,0.5c-0.1,0-0.5-0.8-0.4-0.9
			c0.5-0.4,1.2-0.7,1.8-1.1c0.4-0.3,0.9-0.5,1.1-0.9c0.4-1,0.7-2,1.1-3.3c0.6,0.4,1,0.7,1.4,1c0-0.1-0.1-0.3-0.1-0.4
			c1.2-0.4,2.3-0.7,3.4-1.1c0.9-0.8,1.8-1.7,2.7-2.5c0.9-0.8,2-1.6,2.8-2.5c1.3-1.7,3-2.2,5.2-2.5c-1.4,2.2-0.1,3.4,1.5,4.8
			c0.7-0.6,1.4-1.3,2.2-2c0.2,0.8,0.3,1.7,0.7,2.4c0.4,0.7,1,1.2,1.9,2.1c1-1.5,1.8-2.7,2.6-3.9c0.9-0.2,2-0.4,3.3-0.7
			c0.4,0.9,1,2.1,1.4,3.3c0.3,1.3,0.3,2.6,0.4,3.8c-0.8,0.5-1.6,0.9-2.1,1.2c-0.8-0.3-1.7-1-1.9-0.8c-1.4,1.1-0.8,2.6-0.3,4
			c-2.1,0.2-2.7,1.9-3.5,3.3c-0.1,0.2,0.1,0.9,0.4,1.1c0.4,0.3,1.1,0.5,1.6,0.5c0.4,0,0.8-0.4,1.3-0.6c0.2,1.2,0.2,2.5,0.7,3.3
			c0.9,1.2,1.9,0.4,2.7-0.4c0.4,1.4,0.8,2.4-0.8,3.5c-1.6,1.1-1.1,3,0.1,4.5c0.8,1,1.1,2.4,1.6,3.9
			C351.1,322.6,350.4,322.8,349.7,323z M304.6,290.3c-0.6,1.5-1,2.7-1.5,4.2C301.1,292,301.3,291.5,304.6,290.3z M305.3,290.2
			c0-0.3,0.1-0.5,0.1-0.8c0.6-0.1,1.2-0.1,1.8-0.2c-0.1,0.5-0.2,0.9-0.3,1.4C306.4,290.5,305.9,290.4,305.3,290.2z M339.2,290.3
			c0.6-2.3,2.3-3.2,4.5-3.2c2.5,0,4.9,0.3,6.2,3.6c-0.8,0-1.5,0.1-2.1,0c-0.6-0.2-1.2-0.6-1.6-0.9c-0.2,1.7-0.4,3.1-0.7,4.9
			c-2.4-1-2-2.9-2.1-4.9c-1,0.6-1.7,1.1-2.4,1.5c-0.5,0.3-1,0.5-1.5,0.7C339.4,291.5,339.1,290.8,339.2,290.3z M351.8,314.4v3.3
			C350.1,316.9,350,316.4,351.8,314.4z M351.9,308.5c-0.5,0.4-0.9,0.6-1.2,0.8c-0.4,0.3-0.6,0.7-1,1.1c-0.2-0.1-0.4-0.2-0.6-0.3
			c0.2-1.3,0.4-2.5,0.7-4c-0.2-0.2-0.2-0.2-4.2,0.8c0.6-0.9,0.7-2.4,2.5-2.4c0.3,0,0.8-1.1,0.9-1.8c0.1-0.7-0.2-1.4,0.1-2.2
			c0.4,0.7,0.8,1.4,1.2,2.3c0.7-1,1.3-1.9,1.9-2.7c0.1,0,0.3,0.1,0.4,0.1C352.3,303.2,352.1,306,351.9,308.5z M348.7,278.6
			c0.5,0,1-0.1,1.5,0c3.3,1,7,1.4,9.6,4c2.1,2,4.3,3.9,4,7.4c-0.5,4.8-0.4,9.6-0.8,14.3c-0.1,1.5-0.5,3-2,4.1c-1,0.7-1.5,2-2.3,3
			c-1.3,1.4-2.4,1.4-3.7,0.1c1.8-2,1.4-4.5,1.4-6.8c0-1.6-0.6-3.2-0.6-4.8c0-2.2,0.3-4.4,0.2-6.6c-0.1-1.6-0.5-3.2-1-4.8
			c-0.2-0.5-1-1.2-1.4-1.2c-1.2,0-1.6-1-2.3-1.5c-1.4-0.8-3-1.7-4.5-1.8c-4-0.4-8-0.3-11.8,1.4c-3,1.4-5.4,3.3-7.3,5.9
			c-0.3,0.4-0.6,0.8-1.1,1.5c-0.8-2.3-3-3.3-3.3-5.7c0-0.4-0.9-0.8-1.4-0.9c-2.7-0.4-5.4-0.9-8.1-1.1c-2.4-0.2-4.9-0.4-7.2,0.2
			c-3,0.8-6.1,1.9-8.5,4.1c-1.5,1.3-3,2.5-4.6,3.7c-0.1-1.3-0.1-2.8-0.4-4.3c-0.1-0.6-0.7-1.3-1.3-1.7c-2-1.3-4.1-1.3-6.4-0.9
			c-3.7,0.7-7.4,1.2-11.1,1.9c-2.4,0.4-4.7,1-7,1.4c-3.5,0.6-7.2,0.8-10.6,1.7c-1.7,0.5-3,2.3-4.4,3.5c-0.7,0.6-1,1.6-1.7,2.2
			c-0.3,0.3-1.1,0.2-2,0.4c0.4-0.8,0.5-1,0.6-1.2c0.1-0.4,0.3-1.1,0.1-1.3c-0.3-0.3-1-0.4-1.4-0.4c-1,0.1-1.9,0.3-2.9,0.4
			c0.2-1.4,0.8-1.7,1.9-1.8c1.9-0.2,3.8-0.5,5.6-1.1c0.4-0.1,0.7-1.4,0.7-2.1c-0.1-0.9-0.3-1.9-1.8-1.8c-1.7,0.2-3.4,0-5.1,0
			c0-0.1-0.1-0.3-0.1-0.4c0.7-0.2,1.3-0.4,2-0.5c1.5-0.1,3.1,0.1,4.5-0.2c1.2-0.3,2.2-1.2,3.3-1.8c0.7-0.3,1.6-0.8,2.2-0.6
			c2.8,1,5.5,0,8.2-0.4c1.5-0.2,3-0.4,4.4-0.1c1.3,0.3,2.4,0.4,3.7,0.1c1.9-0.5,3.7-1,5.7-0.8c1.7,0.1,3.5-1,5.3-1.5
			c2-0.5,3.9-1,5.6-2.4c1.3-1,3.5-0.9,5.3-1.2c1.6-0.3,3.3-0.6,5-0.7c2.1-0.1,4.1-0.1,6.2,0c2.4,0.1,4.8,0.3,7.1,0.4
			c0.3,0,0.6-0.1,0.8-0.2c0.8-0.7,1.4-0.7,2.5-0.3c3.2,1,6.4,2,9.7,2.4c4.3,0.5,8.7,1.1,13-0.8c1.5-0.7,3.5-0.1,5.2-0.2
			C346.7,278.8,347.7,278.7,348.7,278.6z M354.3,265c-1.6,2.2-3.2,4.4-4.9,6.6c-0.9,1.1-2,1.4-3.4,0.8c-0.4-0.2-1.2,0-1.7,0.2
			c-3.6,1.6-7.4,2.5-11.4,2.8c-2.1,0.2-4.2,0.6-6.3,0.7c-1.7,0.1-3.5-0.2-5.2-0.2c-1.2,0-2.4,0.2-3.6,0.3c-2.3,0.3-4.2-0.9-6.2-1.8
			c-1.8-0.8-3.9-1.4-5.8-1.4c-4,0.1-5.6-2.9-7.7-5.2c-0.6-0.6-1.1-1.4-1.4-2.2c-1-2.6-3.5-3.6-4.9-4.7c-0.3-2-0.6-3.4-0.8-4.7
			c-0.1-0.3-0.2-0.7-0.1-1c0.4-3,0.8-6,1.3-9c0.6-4.1,2.1-7.9,4.7-11.1c1.4-1.7,2.7-3.8,4.6-4.7c2.9-1.4,6.3-1.7,9.3-2.9
			c3.2-1.2,6.4,0.2,9.6-0.3c1.5-0.2,3-0.5,4.4-1.2c1.9-0.9,3.6-0.5,5.5-0.1c2.2,0.4,4.5,0.6,6.7,0.8c0.3,0,0.7,0,1,0.1
			c2.7,0.9,5.3,0.7,7.9-0.2c0.5-0.2,1.3,0.2,1.9,0.4c0.3,0.1,0.5,0.3,0.8,0.3c4.2,0.4,6.9,3.2,9.4,6c3.3,3.6,4.2,8,3.9,12.9
			c-0.3,5.5-2.5,10.2-4.8,15C356.3,262.6,355.2,263.8,354.3,265z M372.6,254.5c-1.1,2.2-2,4.6-3,6.9c-0.2,0.4-0.7,0.7-1,1
			c-0.4,0.4-1,0.8-1.2,1.3c-0.6,2.1-2.3,3-4.1,3.5c-2.3,0.7-4.6,1-6.9,1.4c-0.1-0.1-0.2-0.3-0.3-0.4c0.6-0.9,1.2-1.8,1.9-2.7
			c3.2-3.9,4.9-8.5,5.7-13.4c0.4-2.6,1.4-5.2,1.2-7.8c-0.3-3.8-0.2-7.8-3.5-10.7c-2.7-2.4-5.1-5.2-7.6-7.8c-0.3-0.3-0.5-0.8-0.8-0.8
			c-3.2,0-6.1-2.7-9.5-0.9c-2.8,1.4-5.8,0.8-8.7,0.2c-2.1-0.4-4.2-0.8-6.2-1.5c-2.2-0.7-4.1,0.4-6,0.8c-1.6,0.3-3.2,0.9-4.8,1.1
			c-1.4,0.1-2.8-0.2-4.2-0.3c-4.3-0.1-8.4,0.5-12,2.9c-1.5,1-3.1,1.7-4.4,2.8c-1.1,0.9-1.8,2.2-2.7,3.4c-0.4,0.5-1.2,0.8-1.3,1.4
			c-1.1,3.3-2.1,6.6-2.9,10c-0.8,3.4-1.4,6.8-2,10.2c-0.2,1.5,0,3.2-0.2,4.7c-0.1,0.9-0.7,1.8-1,2.6c-0.9,0-1.6,0.1-2.3,0
			c-0.7-0.1-1.6-0.4-1.9-0.8c-0.7-1.7-1.1-3.4-1.7-5.1c-0.2-0.5-0.4-1.1-0.7-1.5c-0.9-1-1.9-1.8-2.9-2.7c-2.1-1.8-1.6-4.2-1.2-6.4
			c0.6-3,2-5.4,4.7-7.3c2.7-1.8,5-4.1,6.2-7.3c0.3-0.8,1.2-1.3,1.8-1.9c0.3-0.3,0.7-0.6,0.7-0.9c-0.1-2.4,1.8-3.7,2.7-5.6
			c1.5-3.1,4.1-4.2,7.5-4.1c1,0.1,2.1-0.6,3-1.1c1.4-0.7,2.5-1,4.2-0.5c1.5,0.5,3.5,0.4,5.1-0.2c5.5-2,11.1-3.3,16.9-2.2
			c1.6,0.3,2.8,0.6,3.9-0.7c2.4,0.7,5.1-1,7.5,0.8c1.7,1.4,3.9,1.1,5.9,1.4c3.9,0.7,7.8,1.4,11.2,3.5c2.7,1.7,5.2,3.6,6.4,6.9
			c0.7,2.1,2.1,3.9,3.1,5.9c0.4,0.8,0.5,1.6,0.8,2.5c0.1,0.3,0.1,0.7,0.2,0.8c2,0.9,2,2.9,2.6,4.6c0.2,0.4,0.2,1,0,1.4
			c-1.6,2.8,0,5.1,1,7.6c0.2,0.6,0.6,1,1,1.5C373.1,252.1,373.3,253.2,372.6,254.5z"/>
		<path class="st28" d="M312.9,332.6l-2.5,40.1l-15.8,3.7c-1.3,0.3-1.4-3.5-0.3-4.3l8.8-5.4l0.8-35.1"/>
		<path class="st28" d="M336.7,332.6l-1.9,40.1l17.2,5.4c1.4,0.5,1.9-3.4,0.8-4.2l-9.2-6.3l3.2-34.9"/>
	</g>
</g>
</svg>
