<?xml version="1.0" encoding="utf-8"?>
<!-- Generator: Adobe Illustrator 26.3.1, SVG Export Plug-In . SVG Version: 6.00 Build 0)  -->
<svg version="1.1" id="Layer_2" xmlns="http://www.w3.org/2000/svg" xmlns:xlink="http://www.w3.org/1999/xlink" x="0px" y="0px"
	 viewBox="0 0 500 500" style="enable-background:new 0 0 500 500;" xml:space="preserve">
<style type="text/css">
	
		.st0{clip-path:url(#SVGID_00000085961078026763198870000002191354709243248313_);fill:url(#SVGID_00000071532967034609428510000006777463135771455923_);}
	.st1{fill:#FFCB05;}
	.st2{clip-path:url(#SVGID_00000134209320604239327300000004948741798852489134_);fill:#FFCB05;}
	.st3{clip-path:url(#SVGID_00000134209320604239327300000004948741798852489134_);fill:#58574B;}
	.st4{clip-path:url(#SVGID_00000134209320604239327300000004948741798852489134_);fill:#F3F0DD;}
	.st5{clip-path:url(#SVGID_00000134209320604239327300000004948741798852489134_);}
</style>
<g>
	<g>
		<defs>
			<path id="SVGID_1_" d="M69.4,84.8L60,88.5l-4,12.1l3.7,24.9l11.8,16.5l2.3,18.5l-5.7,22.5l-2.3,3.7l-21.2,11.1l-6.7,8.1v5
				l-5.4,6.7l17.1-4l8.7,1.7l-10.4,16.1l-18.5,9.7l-3,2.4l-6,7c0,0-3.7,15.4,33.9,27.2c4.5,1.4,5-9.1,5-9.1l8.4-27.2l20.5-19.5
				l2,3.7l4,6l6-2.7l3.4-23.2l0.7-74.6l-3.7-14.1L88.6,97.9c0,0-8.4-11.4-12.1-13.4L69.4,84.8z"/>
		</defs>
		<clipPath id="SVGID_00000065064259666416066730000011520623947740467376_">
			<use xlink:href="#SVGID_1_"  style="overflow:visible;"/>
		</clipPath>
		
			<linearGradient id="SVGID_00000012472041201776373960000002053356721328952724_" gradientUnits="userSpaceOnUse" x1="-294.7212" y1="2375.0425" x2="-291.3465" y2="2375.0425" gradientTransform="matrix(23.0868 9.5532 9.5532 -23.0868 -15873.2637 57809.0859)">
			<stop  offset="0" style="stop-color:#FFFFFF"/>
			<stop  offset="0.1404" style="stop-color:#F3F6F7"/>
			<stop  offset="0.3303" style="stop-color:#DDE5E9"/>
			<stop  offset="0.5483" style="stop-color:#BECBD3"/>
			<stop  offset="0.7854" style="stop-color:#96A9B3"/>
			<stop  offset="1" style="stop-color:#718793"/>
		</linearGradient>
		
			<polygon style="clip-path:url(#SVGID_00000065064259666416066730000011520623947740467376_);fill:url(#SVGID_00000012472041201776373960000002053356721328952724_);" points="
			29.5,53.5 173.1,112.9 91.5,309.9 -52,250.5 		"/>
	</g>
	<polygon class="st1" points="211.5,309.8 214.2,356.8 151,375.2 166.1,388 168.2,396.4 180.9,398.1 196.4,399.8 223.6,364.5 
		223.3,305.5 	"/>
	<g>
		<defs>
			<rect id="SVGID_00000021830886195073065380000016409595489980312970_" x="16.7" y="79.7" width="466.6" height="340.7"/>
		</defs>
		<clipPath id="SVGID_00000071557880393662179360000003496121315328631447_">
			<use xlink:href="#SVGID_00000021830886195073065380000016409595489980312970_"  style="overflow:visible;"/>
		</clipPath>
		<path style="clip-path:url(#SVGID_00000071557880393662179360000003496121315328631447_);fill:#FFCB05;" d="M65.1,152.9
			c1.7-1,9.1-10.4,11.4-11.1c2.3-0.7,20.1-4,20.1-4h29.6l7.7,6.7l2,11.1l-6.4,12.8l-24.2,11.1l3.4-21.2H72.5l-5,21.2l-7.4-0.3
			l-2.4-3.7l1.3-2l8.7-2.4l1.3-11.1L65.1,152.9z"/>
		<polygon style="clip-path:url(#SVGID_00000071557880393662179360000003496121315328631447_);fill:#FFCB05;" points="277.3,300 
			291.1,300 289.7,344.4 291.4,376.3 292.1,388.7 278.3,416.9 260.5,408.8 249.8,410.2 240,399.8 228.6,393 279.7,368.9 
			276.6,338.3 		"/>
		<path style="clip-path:url(#SVGID_00000071557880393662179360000003496121315328631447_);fill:#58574B;" d="M229.4,171.3l-6,15.7
			c-2.5,8.1,7.1,29.5,7.1,31.5c0,2,13.6,12.1,18.6,18.6c5,6.6,25.8,7.5,39.9,13.5c14.1,6,32.7-2.5,48.9,2.6c16.1,5,32-6.6,45.6-7.1
			c13.6-0.5,39.1-10.3,52.7-12.9c13.6-2.5,18-3.9,18-3.9l8.4-8.4l-28.3-7.7l-76.5-26.4l-53.4-14.8l-62.9-3.5L229.4,171.3z"/>
		<path style="clip-path:url(#SVGID_00000071557880393662179360000003496121315328631447_);fill:#F3F0DD;" d="M132.2,138.2
			c3-2.5,5.7-15.8,7.7-17.4c2-1.5,26.1-10.3,27.6-10.3c1.5,0,25.1,7.7,27.6,7.7c2.5,0,17.4,21.9,17.4,21.9l9,25.7l9.6,8.4l-9,17.4
			l1.3,28.3l23.1,16.1l34.7,11.6l29.6,7.1l52.7-3.2l48.2-12.2l38.6-7.7l-12.9,12.9l-21.9,5.8l-28.3,16.7l-23.1,10.9l-49.5,14.8
			l-45.6,7.7l-32.8-0.6l-19.3,5.1l-55.9-10.3l-17.4-14.8l-14.8-16.1l-7.1-30.9l1.3-16.1l14.8-42.4l-5.1-9l2.6-14.8L132.2,138.2z"/>
		<path style="clip-path:url(#SVGID_00000071557880393662179360000003496121315328631447_);" d="M97.1,165.9c-0.6,1-1.1,2.7-1.8,2.8
			c-2.5,0.3-5,0.1-7.5,0.1c-0.1-0.6-0.1-1.1-0.2-1.7c2.8-0.6,5.6-1.3,8.4-1.9C96.4,165.4,96.7,165.7,97.1,165.9"/>
		<path style="clip-path:url(#SVGID_00000071557880393662179360000003496121315328631447_);" d="M83.2,182.7c3.3-0.3,6.7-0.6,10.8-1
			c-0.2,0.5-0.2,1.8-1,2.6C91.1,186.1,86.3,185.2,83.2,182.7"/>
		<path style="clip-path:url(#SVGID_00000071557880393662179360000003496121315328631447_);" d="M77.1,169c2.7,1.6,4.7,2.8,6.7,4
			c-0.2,0.5-0.4,1-0.5,1.6c-2.1-0.6-4.3-1-6.3-1.8C76.6,172.6,77.1,170.6,77.1,169"/>
		<path style="clip-path:url(#SVGID_00000071557880393662179360000003496121315328631447_);" d="M77,172.8c2,0.9,4.2,1.3,6.3,1.8
			c0.2-0.5,0.4-1,0.5-1.6c-2-1.2-3.9-2.4-6.7-4C77.1,170.6,76.6,172.6,77,172.8"/>
		<path style="clip-path:url(#SVGID_00000071557880393662179360000003496121315328631447_);" d="M93,184.2c0.7-0.7,0.8-2.1,1-2.6
			c-4.1,0.4-7.5,0.7-10.8,1C86.3,185.2,91.1,186.1,93,184.2"/>
		<path style="clip-path:url(#SVGID_00000071557880393662179360000003496121315328631447_);" d="M95.3,168.7
			c0.7-0.1,1.2-1.8,1.8-2.8c-0.3-0.2-0.7-0.5-1-0.7c-2.8,0.6-5.6,1.3-8.4,1.9c0.1,0.6,0.1,1.1,0.2,1.7
			C90.3,168.8,92.9,169,95.3,168.7"/>
		<path style="clip-path:url(#SVGID_00000071557880393662179360000003496121315328631447_);" d="M75.3,87.4c0.6-0.7,1.1-1.5,2.1-2.6
			C76.4,86,75.8,86.7,75.3,87.4C75.3,87.4,75.3,87.4,75.3,87.4"/>
		<path style="clip-path:url(#SVGID_00000071557880393662179360000003496121315328631447_);" d="M75.3,87.4c0,0-0.1-0.1-0.1-0.1
			L75.3,87.4C75.2,87.4,75.2,87.4,75.3,87.4"/>
		<path style="clip-path:url(#SVGID_00000071557880393662179360000003496121315328631447_);" d="M75.2,87.5l-0.1-0.1
			C75.1,87.4,75.2,87.4,75.2,87.5C75.2,87.5,75.2,87.5,75.2,87.5C75.2,87.5,75.3,87.4,75.2,87.5C75.3,87.4,75.3,87.4,75.2,87.5
			C75.2,87.4,75.2,87.4,75.2,87.5"/>
		<path style="clip-path:url(#SVGID_00000071557880393662179360000003496121315328631447_);" d="M465.9,241.2
			c-4.7-1.4-9.4-2.7-14.1-4.1c0-0.4,0-0.9,0.1-1.3c5.8-3.5,11.6-7,17.7-10.7c-0.1-3.2-4.9-8.6-8.7-9.4c-2.1-0.4-4-1.2-6.1-1.7
			c-4.7-1-9.5-1.6-14.1-2.9c-5.7-1.6-11.4-3.5-17-5.4c-7.1-2.4-14.3-4.9-21.4-7.4c-7.2-2.6-14.4-5.5-21.7-7.7
			c-3.8-1.2-7.9-1.2-10.4-5.1c-0.5-0.8-2.2-1-3.3-1.3c-6.4-1.7-13.1-0.3-19.4-4.5c-5.3-3.6-12.4-4.5-18.7-6.3c-6-1.6-12-3.2-18.1-4
			c-8.7-1.1-17.2-3-26.2-3c-13.9,0.1-27.8-2-41.8-2.8c-4.9-0.3-9.9,0.5-14.8,0.8c-2.2,0.1-3.4-0.4-3.8-3c-0.8-5.4-1.8-10.9-3.3-16.2
			c-1-3.6-3.8-6.7-4.6-10.3c-1.2-5.3-4-9.4-8.1-12.3c-6.4-4.6-13.1-8.8-20-12.4c-3.7-1.9-8.2-2.3-12.4-2.8
			c-4.1-0.5-8.5-1.2-12.4-0.3c-6.5,1.5-12.8,3.8-18.8,6.6c-3.3,1.5-6.2,4.4-8.6,7.2c-5.1,6.1-7.8,15.5-19,12.3
			c-1.3-0.4-2.8,0.3-4.3,0.3c-0.7,0-1.8-0.2-2.1-0.6c-2.9-5.6-7.3-11.1-8.2-17.1c-1.2-7.7-7.5-10.4-11-15.6
			c-1.8-2.6-4.3-4.9-6.8-6.8c-2.9-2.3-6.1-4-9.1-6c0,0,0,0,0,0h0c1.6,2,3.3,4,4.8,6.1c2.8,3.6,5.7,7.3,8.4,11
			c3,4.1,5.6,8.5,8.7,12.5c3.5,4.6,4.5,9.6,3.9,15.2c-0.1,0.7,0.3,1.5,0.6,3.2c-4,0.3-7.8,0.3-11.6,1c-4.5,0.8-9,1.6-13.2,3.3
			c-3.1,1.2-3.8,0-4.8-2.3c-0.6-1.5-1.6-2.9-2.8-4c-4.5-4.6-8.4-9.4-8.8-16.1c-0.2-3.9,0-7.8,0-11.7c0.6,0,1.1,0,1.7,0
			c0,1.7-0.2,3.3,0.1,4.9c0.1,0.9,1,1.7,1.5,2.5c0.8-0.8,2.5-1.7,2.4-2.3c-0.3-2.8-1-5.5-1.9-8.2c-0.7-2.1-2.4-4.2-2.4-6.2
			c0.1-6.2,3.4-8.8,9.8-8.7c1.2,0,2.4-0.1,3.6-0.2c0,0-0.1-0.1-0.1-0.1c0,0,0.1,0.1,0.1,0.1c0.6-0.7,1.1-1.4,2.1-2.6
			c-1.9-1.1-3.5-2.2-5.2-2.9c-5.6-2.2-9.5,1.7-13.6,4.3c-1.2,0.8-2.8,2.2-3,3.4c-0.8,5.6-1,11.4-1.8,17c-1.3,8.9,2.5,16.3,6.4,23.7
			c2.7,5,5.2,10.2,7.6,15c-2.9,2.2-5,3.5-6.7,5.2c-1.8,1.8-3.5,3.8-5,5.9c-0.6,0.9-1,2.9-0.6,3.2c0.9,0.7,2.4,1,3.7,0.9
			c1.2-0.1,2.4-1.2,3.4-1c1.4,0.3,3.4,1.1,3.7,2.1c1.8,6.8,1.5,7.3-5.6,9.4c-1.1,0.3-2.3,0.8-3,1c-3.3,8.6,4.7,7.5,9.3,10.7
			c-6.1,3.2-11.6,5.8-17,8.8c-7.2,4-14.9,7.8-16.7,17.3c1,0.7,1.9,1.4,2.9,2.1c-0.4,0.8-0.8,1.6-1.9,3.7c6.3-2.2,11.5-4.1,16.6-5.9
			l0.4,1.1c-6,2.4-12,4.7-19,7.5c8.5,5.3,15.1-2.8,23.4-1.6c-8.9,9.4-15.1,20.4-27.6,25.5c2.7,0.4,5.1,0.3,7.3-0.3
			c2.2-0.6,4.3-1.6,6.3-2.7c1.9-1,3.6-2.2,5.3-3.4l0.9,1.4c-6.9,4.3-13.7,8.5-20.5,12.8c-0.5-1.2-0.2-1.5-0.2-1.9
			c0.1-1.6,0.2-3.2,0.4-4.8c-1.5,0.5-3.1,0.8-4.4,1.6c-1.1,0.7-2.2,1.8-2.7,3c-0.5,1.1-0.2,2.5-0.2,3.8c1.1,0,2.3,0.1,3.4,0
			c0.9-0.1,1.8-0.4,2.7-0.7c0.1,0.2,0.2,0.5,0.3,0.7c-2,1.7-3.9,3.4-5.9,5.2c3.6,3.2,4.7,3.2,6.9,0c2.6-3.8,5.7-6.8,10.4-7.5
			c-3.9,5-7.8,9.9-11.7,14.8l1.4,1.3c3.1-2.6,6.6-5,9.4-7.9c5-5.2,9.6-10.7,14.3-16.1c0.9-1.1,1.6-2.4,2.4-3.7
			c-1.3-0.8-2.6-1.6-3.5-2.1c1.6-2.9,3.4-5.9,5.1-9c2.2-4.2,2.3-9.4,6.8-12.4c0.3-0.2,0.3-0.7,0.4-1.1c1.9-6.6,5.8-12.3,5.7-20
			c-0.1-10,3.3-19.9,7.7-29.1c0.4-0.9,1.5-2.2,2.3-2.2c8.3-0.2,16.7-0.1,24.7-0.1c-0.9,5.7-2.1,11-2.6,16.5c-0.4,4,0.6,8.2-0.3,12
			c-1.2,5-3.5,9.8-5.9,14.3c-2.8,5.4-5.9,10.8-9.5,15.8c-3,4.2-6.8,8-10.5,11.7c-2.8,2.9-6.5,5-8.9,8.2c-2.3,3.1-5.7,6.4-3.2,11.2
			c0.3,0.6-0.2,2.5-0.6,2.5c-5.2,0.7-4.7,7.1-9.5,9.1c-3.6,1.6-5.5,7.3-8.1,11.2c0.4,0.4,0.8,0.8,1.2,1.2c4.2-3.7,8.4-7.5,12.6-11.2
			c-1,3.6-2.9,6.5-4.4,9.6c-0.5,1.1-0.3,3.2,0.5,4.2c0.5,0.6,3.1,0.7,3.8,0c5.6-5.5,9.1-12.2,9.6-20.1c0.4-7.6,3.8-13.9,8.3-19.4
			c3.9-4.7,8.9-8.5,13.2-12.6c-0.2-0.4,0-0.2,0,0.1c1.5,6.9,3.6,8.3,10.1,6.8c0.4-0.1,0.9,0.1,1.2-0.1c1.5-0.9,3.5-1.6,4.4-3
			c4.2-6.7,7.2-13.9,5.8-22.1c-1.1-5.9-1.9-11.8-3.4-17.6c-1-4,1.3-8.8,5.1-10.2c5.3-2,10.5-4,15.7-6.3c3.6-1.6,4.9-1.1,5.8,2.7
			c1.5,6.1-2.8,10.4-4.7,15.4c-1.7,4.6-4.8,8.8-6.1,13.5c-1.7,6.4-2.5,13-3.2,19.6c-0.4,3.3,0.3,6.7,0.6,10.1c0.2,2.2,1.7,5,0.8,6.3
			c-2.1,3.2-0.2,5.6,0.4,8.2c0.7,3.4,2.1,6.7,3.1,10.1c3.1,10.2,5.9,20.7,18.2,24.2c0.7,0.2,1.2,1.4,1.8,2.1
			c0.7,0.8,1.4,1.7,2.2,2.3c2.6,2,6.1,3.3,7.7,5.8c4.8,7.9,13,7.4,20.4,9c5.4,1.1,10.8,1.6,16.2,2.6c1.8,0.3,3.5,1.2,5.3,1.6
			c3.9,1,7.8,1.9,11.7,2.9c0,0.8,0.1,1.3,0,1.9c-1.3,6.6-0.5,12.8,1.5,19.3c1.3,4.3,0.7,9.2,0.9,13.8c0.1,3.5,0,7.1,0,11.3
			c-0.4,0.2-1.4,0.9-2.5,1.2c-7.4,1.5-14.8,2.7-22.2,4.2c-9.6,1.9-19.2,3.7-28.6,6c-4.9,1.2-6.8,4.6-6.9,8.9
			c-0.1,6.1,5.1,9.8,9.9,10.7c1.2,0.2,2.6,1.5,3.2,2.6c0.7,1.4,0.7,3.1,1,4.7c1.2,5.5,4.4,7.7,10,6.6c3.8-0.8,6.9-0.6,9.8,2.8
			c2.9,3.4,11.2,2.9,14.2-0.4c4.2-4.4,8.5-8.9,12.5-13.6c2.8-3.3,5.5-6.8,7.9-10.4c2-2.9,3.1-6.3,6.6-8.2c1.8-0.9,3-3,1.9-5.8
			c-0.9-2.4-1-5.3-0.9-8c0.2-7.1,0.8-14.3,1.2-21.4c0.1-2.5,0-5,0.1-7.5c0.4-7,0.6-14,1.3-21c0.2-1.7,1.5-4.5,2.7-4.7
			c4.8-0.8,9.8-0.9,14.7-1c5.7-0.1,11.5,0.2,17.2,0.3c0.9,0,1.8,0.1,2.7,0.4c1.9,0.7,3.8,1.6,6.4,2.7c0.4,2.9,1.1,6.5,1.4,10.1
			c0.5,5.8,0.7,11.6,1,17.3c0.2,3.7,0.6,7.4,0.8,11.1c0.3,4.6,0.5,9.2,0.7,13.9c0.1,2.6,0,5.2,0,7.8c0.4,0.1,0.8,0.2,1.2,0.3
			c-1.4,1.3-2.6,3.2-4.3,4c-10.4,4.7-20.8,9.2-31.3,13.6c-3.7,1.5-7.7,2.3-11.4,3.8c-2.1,0.9-4.9,1.6-4.4,5
			c0.4,2.9,6.8,10.4,9.7,10.2c5.3-0.4,7,3.2,9.2,6.6c3.8,6,10,8,16.5,5.4c2.6-1.1,4.8-1.3,7.2,1.2c2,2.1,5.4,3.1,8.3,4.1
			c2.5,0.8,8.2-2.5,9.1-5.1c1.3-3.5,1.8-7.3,3.6-10.5c3.3-5.9,6.8-11.5,5.7-18.7c-0.1-0.5,0-1.2,0.3-1.6c4.2-5.2,0.9-10.1-0.6-15
			c-0.7-2.3-2.1-4.5-2-6.7c0.2-5.3-3-10.9,1.5-15.8c0.2-0.2,0-0.8,0-1.2c-0.5-4.7-1.1-9.4-1.4-14.2c-0.3-4.6-0.6-9.2-0.2-13.7
			c0.4-5,1.6-9.9,2.6-15.7c8.5-1.7,17.7-3.5,26.9-5.5c2.7-0.6,5.6-1.3,8-2.6c5.1-2.7,9.9-6.2,16.2-5.7c1.2,0.1,2.4-0.4,3.6-0.8
			c9.6-3.3,19.1-6.6,28.7-9.9c1.2-0.4,2.3-0.8,3.4-1.4c7-3.6,14-7.1,20.8-10.9c2.9-1.6,5.4-4,8.2-5.9c3.6-2.5,7.3-4.9,10.9-7.3
			c0.3-0.2,0.8-0.1,1.2-0.1c8,0.5,16.1,1.2,24.1,1.6c2.6,0.1,5.3-0.4,7.9-0.4c4.5,0,9.1,0.5,13.6,0.3c3.3-0.1,6.6-1.4,9.9-1.4
			c2.8,0,3.8-1.1,4.6-4.5C477.4,244.9,471.7,243,465.9,241.2 M63.6,177.5c-1.7-0.3-3.3-1.2-4.9-1.9c0.1-0.3,0.3-0.7,0.4-1
			c1.5-0.2,3-0.6,4.4-0.5c0.9,0.1,1.8,1,2.7,1.5C65.3,176.3,64.4,177.6,63.6,177.5 M56.5,199c-5.6,1.5-10.8,4.7-16.6,7.2
			c3.5-5.7,19.3-16.2,24-15.8C62.8,194.8,61.4,197.7,56.5,199 M92.4,224.4c0.1-2-0.6-4-1-6.5c-0.2,0.1,0.5-0.3,1.5-0.9
			c1.3,4.2,2.6,8.1,3.9,12.4C92.9,229.5,92.2,228.4,92.4,224.4 M99,219.7c-0.5-4.5-0.9-9-1.4-13.6c0.7,0,1.3-0.1,2-0.1
			c0.2,4.5,0.5,9.1,0.7,13.6C99.8,219.7,99.4,219.7,99,219.7 M128.1,165.4c-0.8,1-2,2-3.2,2.5c-5,2.2-10.2,4.1-15.8,6.4
			c0.5-4.3,2.6-6.4,6-7.5c3.7-1.2,7.2-2.9,10.8-4.2c0.7-0.3,1.7,0.2,2.6,0.3C128.5,163.8,128.6,164.9,128.1,165.4 M68.2,155.4
			c3.5-3.5,6-6.8,9.1-9.1c2.3-1.7,5.4-2.7,8.3-3.2c5.4-0.9,11-1.3,16.5-1.8c4.5-0.4,8.9-0.7,13.4-0.8c2.8-0.1,5.7-0.1,8.4,0.6
			c1.5,0.4,2.8,2,3.8,3.4c1.9,2.6,3.4,5.4,5.6,8.9C111.2,157.8,89.8,152.5,68.2,155.4 M218.9,366.4c-7.2,9.7-14.6,19.1-22.2,28.5
			c-0.9,1.1-3.1,1.2-4.8,1.3c-2,0.2-4.1,0.1-7.3,0.1c-3.3-2.6-8.2-4.2-14.1-2.1c-0.1-1.4-0.2-2.6-0.2-3.7
			c0.2-6.2-4.1-10.9-10.4-11.3c-1.2-0.1-2.3-0.9-3.5-1.4c0.7-1,1.2-2.6,2.1-2.9c3.6-1.2,7.3-2.1,11-3.1c6.9-1.8,13.8-3.7,20.7-5.2
			c6.9-1.5,13.9-2.8,21-3.9c2.4-0.4,4.9,0.2,8.1,0.3c-1-2-1.5-2.9-2.1-4.2c0.7-0.1,1.4-0.4,1.7-0.1
			C221.7,361.3,220.4,364.4,218.9,366.4 M215,328.9c-0.5-5.5-1.3-11.1-1.2-16.6c0-1,4-1.8,6.5-2.9v47.8c-0.5,0.2-1,0.5-1.4,0.7
			c-1-1.5-2.7-2.9-2.9-4.5c-0.3-2.7,0.7-5.4,0.5-8.1C216.2,339.8,215.5,334.4,215,328.9 M285.8,394.3c-2.2,5.4-5.7,10.3-8.6,15.4
			c-0.4,0.7-0.3,1.6-0.7,3.6c-4.5-2.2-8.2-4.6-12.2-5.8c-2.9-0.9-6.4-0.5-9.5,0.1c-2.2,0.4-3.2,0.5-4.5-1.7c-3.1-5.3-8.4-8-14-10.1
			c-1-0.4-2.1-0.8-3.1-1.3c-0.1-0.5-0.2-1-0.3-1.5c3.8-1.7,7.5-3.6,11.4-5.1c9.9-3.8,19.8-7.4,29.7-11.1c1.4-0.5,2.6-1.5,3.9-2.2
			c1.9-1.1,5.3-1.8,5.6-3.2c0.6-3.1-0.1-6.5-0.8-9.6c-1.3-6.1-2.9-12.1-4.2-18.2c-0.1-0.6,0.8-1.3,1.2-2.1c0.5-0.9,1.2-1.8,1.2-2.7
			c0.2-6.8,0.2-13.6,0.3-20.4c0-3.6-0.2-7.2,0.1-10.8c0.1-1.2,1.2-2.4,2.1-3.5c0.1-0.1,2.1,0.7,2.1,1.1c0.1,1.3-0.5,2.5-0.6,3.8
			c-0.3,4.2-1.1,8.5-0.7,12.7c0.5,5.9,1.9,11.8,2.8,17.7c0.1,0.5,0,1.1,0,1.7c-0.5,6.4-1.1,12.7-1.3,19.1c-0.1,2,0.9,4,1.1,6
			c0.2,2.3,0.1,4.6,0.1,6.9c0,0.8-0.5,1.9-0.1,2.3C292.5,381.9,288.1,388.3,285.8,394.3 M371.4,268.5c-8.3,3.3-16.6,6.5-24.9,9.6
			c-2.3,0.9-4.7,1.3-7,2c-6.1,1.7-13.2,2-18.1,5.5c-8.6,6.1-18.1,5.9-27.5,7c-12.4,1.4-24.9,2.9-37.3,4.3
			c-10.4,1.2-20.9,2.4-31.3,3.6c-0.7,0.1-1.4-0.6-2.1-0.9c-1.1-0.4-2.3-1.3-3.3-1.2c-11.1,1-21.9-0.1-32.7-3.2
			c-6.3-1.8-13.2-1.9-19.5-3.7c-4.2-1.2-7.9-4.3-11.8-6.5c-1-0.6-2.2-0.9-3.2-1.6c-2.1-1.4-4.2-3-6.2-4.6c-1.8-1.4-3.5-3-5.2-4.6
			c-2-1.9-4.6-3.7-5.5-6.1c-3.1-8.5-5.6-17.2-8.3-25.9c-0.1-0.4,0-1-0.2-1.2c-5.8-5.2-2-11.6-1.2-17c1.2-7.8,4.1-15.4,6.6-23
			c0.6-1.7,2.1-3.1,3-4.8c0.7-1.2,1.2-2.5,1.7-3.9c0.7-1.7,1.3-3.5,1.8-5.2c0.9-2.9,1.4-6,2.6-8.8c1.7-3.9-1-5.8-3.1-8
			c-4-4.1-2-8.6-1.1-13.1c0.6-3.1,1.9-7.4,0.4-9.4c-3.4-4.7-1.9-7.4,2-10.2c-4.3-6.7-1.7-9.6,3.5-12.6c2.1-1.2,3.7-3.5,5.8-4.2
			c6.1-2,12.4-3.4,18.7-5c4.2-1.1,7.5,1,11.3,2.1c7.8,2.4,14.7,6.3,21.2,10.9c2,1.4,3.4,3.6,4.8,5.6c2.1,2.8,4.5,5.6,5.8,8.8
			c1.6,3.8,2.7,8.1,2.9,12.2c0.5,9.1,4,15.9,13.2,19.2c-6.1,7.2-7.4,15.8-8.2,24.6c-0.4,5.2-1,10.5-1.2,15.7c-0.1,2.5,0.6,5,1.2,7.4
			c2.6,9.9,7.9,18.6,14.7,26.1c2.8,3.1,7.7,4.4,11.9,6c9.6,3.6,19.2,7.3,29.1,10c8.7,2.4,17.8,3.6,26.8,4.9c5.4,0.8,11,1.2,16.5,0.8
			c11.2-0.7,22.4-1.9,33.7-3c5.1-0.5,10.2-1,15.2-1.9c4.4-0.7,8.7-1.9,13.1-2.8c1.1-0.2,2.3-0.3,3.7,0.5
			C379.7,264.7,375.6,266.8,371.4,268.5 M430.6,242.2c-8.1,2.7-16.2,5.5-24.6,7.1c-11.9,2.3-24.1,3.4-35.2,8.8
			c-2.5,1.2-6,0.3-8.9,0.9c-5.1,1-10.3,3.5-15.3,3.3c-4.8-0.2-9.2-1.5-13.7,1.9c-1.1,0.8-4.1-1.2-6.2-1.2c-4.2-0.1-8.4,0.6-12.6,0.5
			c-9.4-0.1-18.8,0-27.9-3.4c-3.2-1.2-7.2-0.4-10.4-1.6c-8.6-3.4-18-4.9-25.5-11c-4.5-3.7-9.6-6.7-14.6-9.6
			c-3.9-2.3-4.9-6.1-6.9-9.5c0.3-0.2,0.6-0.5,0.9-0.7c1.7,1.7,3.3,3.6,5.3,4.9c2.1,1.5,4.6,2.6,6.9,3.9c2.7,1.5,5.4,4.3,8,4.2
			c9.3-0.3,15.8,6.1,23.8,8.9c9.2,3.2,18.3,6.9,27.8,9.1c5.8,1.3,12.2,0.1,18.3,0c5.5,0,11,0,16.7,0c0.5-2.4,0.2-4,4-2.2
			c3.6,1.7,8.8,0.7,13.1,0c6.4-1.1,12.9-2.5,19.1-4.6c10.4-3.5,21.6-1.6,32-6.8c8-4,17.6-4.9,26.5-7.2c2.2-0.6,4.4-1.3,6.5-1.9
			c0.2,0.3,0.4,0.6,0.6,1C435.8,238.8,433.4,241.2,430.6,242.2 M439.5,230.4c-10.1,2.6-20.4,4.4-30.6,6.8c-4.4,1-8.7,2.9-13.1,4
			c-4.1,1.1-8.4,1.8-12.6,2.6c-6.3,1.3-12.6,2.6-18.9,3.8c-0.8,0.2-1.6,0.3-2.4,0.4c-7.8,1-15.5,2.5-23.4,3
			c-7.4,0.5-14.9-0.1-22.4,0.2c-15.6,0.6-29.8-4.5-43.8-10.3c-3.8-1.5-7.2-3.7-10.9-5.4c-1.4-0.6-3.2-1-4.7-0.8
			c-6.8,0.9-11.8-2.2-15.1-8.2c-2.3-4.3-6-7.9-8.9-11.9c-1.2-1.6-2.2-3.2-3-5c-1.1-2.4-1.8-5-2.9-7.5c-1.5-3.5-1.6-8.3-0.4-12
			c1.4-4.5,4.3-8.7,7.3-12.5c1.4-1.8,4.6-3.3,6.7-3.1c4.9,0.6,8.9-1.5,13.2-2.9c1.9-0.6,4.4,0.2,6.6,0.6c4.2,0.8,8.3,2.1,12.6,2.7
			c7.3,1,14.6,1.8,21.9,2.3c3.1,0.2,6.4-0.8,9.6-1c1.5-0.1,3.2,0.1,4.7,0.5c3.9,1,7.8,2.1,11.6,3.2c4.1,1.2,8.1,2.6,12.2,3.8
			c2.5,0.7,5.1,1.2,7.5,2c1.9,0.6,3.7,1.6,5.5,2.3c1,0.4,2.3,1.2,3,0.9c4-1.6,6.6,1,9.7,2.5c4.2,2,8.7,3.4,13.1,5
			c5.4,2,11,3.5,16.3,5.8c13.8,6.1,28.2,10.1,42.8,13.4c2.7,0.6,5.8-0.4,8.4,0.4c4.3,1.3,8.3,3.5,12.4,5.3c1.4,0.6,2.8,1.3,4.3,2
			c0.1,0.3,0.2,0.6,0.3,0.9c-0.8,0-1.6,0-2.5,0c-1.5,0.1-4.2-0.1-4.3,0.4C448,230.2,443,229.5,439.5,230.4"/>
		<path style="clip-path:url(#SVGID_00000071557880393662179360000003496121315328631447_);" d="M54.5,246c-2.7-1.6-4.9-0.7-6.7,2.1
			c-2,3-4.7,5.5-7.1,8.2c-2.3,2.8-6.4,4.8-5.5,10.3c2.3-2,4-3.6,5.8-5.2c0.2,0.2,0.3,0.3,0.5,0.5c-0.9,2.1-1.9,4.2-2.5,6.3
			c-0.3,1,0,2.2,0.1,3.3c1-0.4,2.4-0.6,3-1.3c4.9-5.7,9.7-11.4,14.3-17.2C59,249.8,58.7,248.4,54.5,246 M44.7,260.1
			c-0.6-0.6-1.3-1.2-1.9-1.7c2.1-2.2,4.3-4.3,6.4-6.5c0.4,0.4,0.9,0.8,1.3,1.2C48.6,255.4,46.6,257.7,44.7,260.1"/>
		<path style="clip-path:url(#SVGID_00000071557880393662179360000003496121315328631447_);" d="M66,221.8c3.9,0.5,7.7,1,11.6,1.5
			c0.1-0.6,0.2-1.2,0.3-1.8c-3.3-3.4-7.7-0.9-11.5-1.8C66.3,220.4,66.1,221.1,66,221.8"/>
		<path style="clip-path:url(#SVGID_00000071557880393662179360000003496121315328631447_);" d="M84.6,190.4
			c-2.3-0.8-4.4-1.6-6.7-2.3c-1.3-0.4-2.8-0.4-4.8-0.6C77.2,193.3,82,193.9,84.6,190.4"/>
		<path style="clip-path:url(#SVGID_00000071557880393662179360000003496121315328631447_);" d="M77.1,202.2c2.9,0.4,5.8,0.9,8.7,1
			c0.6,0,1.2-1.2,1.8-1.9c-0.6-0.4-1.2-1.2-1.8-1.2c-2.8,0.3-5.7,0.8-8.5,1.3C77.2,201.7,77.2,201.9,77.1,202.2"/>
		<path style="clip-path:url(#SVGID_00000071557880393662179360000003496121315328631447_);" d="M58.3,227.9
			c4.7,2.6,6.4,2.6,8.8-0.3C59.3,226.6,59.3,226.6,58.3,227.9"/>
		<path style="clip-path:url(#SVGID_00000071557880393662179360000003496121315328631447_);" d="M77.6,209.9c-3.4-0.8-6.2-1.5-9-2.1
			C71.7,212,74.5,212.6,77.6,209.9"/>
		<path style="clip-path:url(#SVGID_00000071557880393662179360000003496121315328631447_);" d="M168.7,137.4
			c0.1,3.6-3.1,6.9-6.6,6.9c-3,0-6.7-3.4-5.9-6.4c0.6-2.4,3.1-5.3,5.5-6.2C164.7,130.6,168.6,134.4,168.7,137.4"/>
		<path style="clip-path:url(#SVGID_00000071557880393662179360000003496121315328631447_);" d="M88.9,111.9c1,5.9-1.1,9.7-7.5,12.5
			c-2.8,1.2-6.1,1.8-9.2,2c-3.5,0.2-8.3-3.8-9-7.1c-0.1-0.5,1.6-1.9,2.1-1.8c1.2,0.4,2.7,1.2,3.3,2.2c1.9,3.2,4.7,4.1,8,3.2
			c4.2-1.2,7.8-3.1,8.7-8c0.3-1.4,1.6-2.5,2.5-3.8C88.2,111.4,88.5,111.6,88.9,111.9"/>
		<path style="clip-path:url(#SVGID_00000071557880393662179360000003496121315328631447_);" d="M80.7,108.9
			c-2.6-0.4-5.4-0.6-7.9-1.5c-0.7-0.3-1.2-4-0.7-4.3c1.9-1.1,4.9-2.6,6.3-1.9c1.7,0.9,2.2,4,3.3,6.1
			C81.4,107.8,81.1,108.4,80.7,108.9"/>
		<path style="clip-path:url(#SVGID_00000071557880393662179360000003496121315328631447_);" d="M95.5,121.6
			c1.5,4.5-1.2,6.7-7.6,6.3C90.3,125.9,93,123.7,95.5,121.6"/>
		<path style="clip-path:url(#SVGID_00000071557880393662179360000003496121315328631447_);" d="M74.2,131.6h8.2
			c-0.8,1.2-1.5,2.8-1.9,2.7c-2.2-0.3-4.4-1-6.6-1.5C74,132.4,74.1,132,74.2,131.6"/>
	</g>
</g>
</svg>
